<svg xmlns="http://www.w3.org/2000/svg" viewBox="0 0 412.47 420.57"><defs><style>.cls-1{fill:#595959;}.cls-2{opacity:0.25;}.cls-3{fill:#ff7300;}.cls-4{fill:#0c5984;}.cls-5{fill:#106f99;}.cls-6{fill:#00e78f;}.cls-7{opacity:0.1;}.cls-8{fill:#53e5aa;}</style></defs><title>account-details-iconAsset 133</title><g id="Layer_2" data-name="Layer 2"><g id="account_details" data-name="account details"><path class="cls-1" d="M177.75,28.41c34,6.61,58.4,33.91,67.67,66.43,10.57,37.09-.27,77.86-23.34,108-6.63,8.67-14.44,16.75-23.89,22.35-10.51,6.22-22.44,8.13-34.35,9.83-2.19.32-1.26,3.64.92,3.33,10.84-1.57,21.77-3.28,31.64-8.31,9-4.56,16.66-11.36,23.23-18.91a137.39,137.39,0,0,0,28.2-52.24c10-35.1,4.53-74.3-19.17-102.77a83.23,83.23,0,0,0-50.48-29.31c-1-.17-1.46,1.36-.43,1.56Z"/><g class="cls-2"><path class="cls-3" d="M146.68,234.6c1.51,1,3,2,4.63,2.93.59.34,3.1,2,.68.25l2.84,2.2a14,14,0,0,0,7.1,1.92c-4.18-1.49.68.13,2.09.36,3.15.53,6.35.94,9.53,1.2L164.42,241a27.13,27.13,0,0,0,5,2.18,19,19,0,0,0,10,0c-8.53.13,2.94-.5,3.55-.59,2.05-.32,4.09-.67,6.11-1.14,5.71-1.36,10.81-3.75,16.26-5.87.56-.24,1.11-.48,1.65-.73q-9.21,4.16,1.73-.58,9.24-7.29,1.52-.94L211,233a30.71,30.71,0,0,0,6.3-3.29l.76-.45q-11.15,4.57,1.59-.75A32,32,0,0,0,227.3,222c1.47-1.58,2.9-3.2,4.27-4.88a164.67,164.67,0,0,0,11.71-15.87c3.76-5.95,6.3-12.65,8.76-19.23a138.38,138.38,0,0,0,7.58-34.12l-1,7.67c4.62-30.29,1.05-63.57-17.15-89.18-9.32-13.12-21.1-24.42-35.88-31.18-6.59-3-11.62-4.84-18.94-5-5.17-.11-10.43.89-15.48,1.83-7.92,1.49-15.65,3.95-23.36,6.23-3.82,1.13-7.64,2.27-11.5,3.3-1.81.48-3.63.95-5.46,1.36-2.94.66-8.66.76,1.48.07-6.94.48-13.89,1-20.84,1.47-19.41,1.33-40,2.43-57.85,11-9.79,4.69-19.27,12.36-26.85,20a86.68,86.68,0,0,0-22,37.73C1.45,125.2.44,138.25.94,150.7c.61,15,3,30.6,11.89,43.08,16.69,23.42,46.48,36.5,74.57,38.92,17.53,1.5,36.29-4.17,52.79-9.64,40.63-13.47,88.48-42,89.72-90,1.11-43.52-46.5-62.92-77.83-81.46-23.55-14-50.24-14.36-76.58-10.93-6.17.8-12.72.84-18.55,3.06-8,3.05-13.22,6.47-19.86,11.89C29.38,61.9,23.14,70,17.47,78.07,11.91,86,7.14,95.28,4.73,104.66,1.4,117.57,3,131.35,6.36,144.08A97.65,97.65,0,0,0,22.87,178c10,13.29,20.65,24.35,36.23,30.92a76.17,76.17,0,0,0,46.72,4c10.21-2.27,20.21-7.23,29.55-11.75a112.32,112.32,0,0,0,26.57-17.46c14.3-12.91,22-34.14,11.95-52-5.76-10.25-15.69-15.46-24.73-22.2l6.82,5.28a21.44,21.44,0,0,1-2.58-2.36l5.29,6.85a6,6,0,0,1-.78-1.15l3.42,8.09c-3.65-9.17-6.5-15.51-12.9-23a51.74,51.74,0,0,0-15.38-12c-14.77-7.58-31.75-10-47.92-5.67C52.65,94.24,33.85,127,33.49,159.05c-.09,8.79,4,19.49,10.57,25.52,7.42,6.8,15.5,9.64,25.52,10.56,19.82,1.83,39.79-1.53,55-15.4,17.28-15.83,21.75-42.23,10.46-62.68-5.93-10.76-17.78-19.29-29.69-22a48.92,48.92,0,0,0-43.76,11c-20.76,18.14-19.26,50.52-1.16,69.68,13.22,14,38.8,14.34,52,0s14.82-37.76,0-52a10.28,10.28,0,0,1-1.73-1.88l5.73,7.42a11.51,11.51,0,0,1-1.23-2.23l3.69,8.75a17.65,17.65,0,0,1-.9-3.73l1.31,9.71a12.26,12.26,0,0,1,0-2.57L118,149a17,17,0,0,1,1-3.69L115.3,154a10.7,10.7,0,0,1,1.33-2.17L111,159.17a10,10,0,0,1,1.83-1.79l-7.33,5.67a10.56,10.56,0,0,1,2.21-1.27L99,165.42a17.51,17.51,0,0,1,3.71-.92l-9.59,1.29a13,13,0,0,1,2.57,0l-9.57-1.29a18.51,18.51,0,0,1,3.71,1l-8.58-3.62a11,11,0,0,1,2.19,1.3l-7.26-5.61a8.92,8.92,0,0,1,1.83,1.8l-5.6-7.25a11.49,11.49,0,0,1,1.25,2.15l-3.61-8.56a15.62,15.62,0,0,1,.92,3.49l-1.28-9.53a19.49,19.49,0,0,1-.13,3.66l1.28-9.54a24,24,0,0,1-1.06,3.63l3.62-8.57a25,25,0,0,1-2.62,4.47l5.61-7.27a25,25,0,0,1-3.72,3.63L80,124.1a27.28,27.28,0,0,1-3.69,2.08l8.59-3.62a35.57,35.57,0,0,1-8,2.1l9.57-1.28A81.42,81.42,0,0,1,69.58,123l36.08,36.08c0-1.92.16-3.81.37-5.72l-1.29,9.6A54.64,54.64,0,0,1,108,150.42l-3.64,8.64a53.58,53.58,0,0,1,6.2-11.12L105,155.19a41,41,0,0,1,5.88-6l-7.2,5.56a35.34,35.34,0,0,1,6.93-4.17l-8.43,3.56a33.23,33.23,0,0,1,7.13-1.91L100,153.5a35.77,35.77,0,0,1,8.65.09l-9.25-1.24a34.79,34.79,0,0,1,7.08,2l-8.25-3.49a31.82,31.82,0,0,1,6.23,3.64l-7-5.36a27.15,27.15,0,0,1,4.14,4.23l-5.33-6.9a28.46,28.46,0,0,1,2.41,4.14l-3.43-8.11c2.71,6.77,5.12,12.43,10.29,17.75a60.21,60.21,0,0,0,10,7.74c3.38,2.22,7,3.93,10.33,6.3l-6.74-5.21a13.67,13.67,0,0,1,2.32,2.24l-5.2-6.72.34.57-3.34-7.93a3,3,0,0,1,.32,1.14l-1.18-8.81,0,.58,1.18-8.81a20.05,20.05,0,0,1-.81,2.71l3.33-7.9a25.61,25.61,0,0,1-3.22,5.3l5.13-6.65a51.11,51.11,0,0,1-7.86,7.49l6.57-5.08a117.69,117.69,0,0,1-25,14L99.26,148a63.23,63.23,0,0,1-14.91,4.64l8.41-1.13a49.67,49.67,0,0,1-11,.07l8.37,1.13a49.13,49.13,0,0,1-12.09-3.24l7.48,3.16A47,47,0,0,1,76,146.85l6.31,4.88a88.09,88.09,0,0,1-13-14L74.2,144a77.3,77.3,0,0,1-9.08-15.28L68.21,136a68,68,0,0,1-4.58-16.79l1.09,8.14a49.44,49.44,0,0,1-.46-10.8l-1.1,8.15a37.32,37.32,0,0,1,2.5-8.72l-3.1,7.34a80.45,80.45,0,0,1,10-16.69l-4.82,6.24a78.71,78.71,0,0,1,13.1-13.52l-6.27,4.84a33.78,33.78,0,0,1,6.25-3.85l-7.4,3.12a16,16,0,0,1,3.44-1l-8.24,1.11c14.68-1.8,29.48-3.74,44.24-1.81l-8.31-1.11A67.65,67.65,0,0,1,120.42,105l-7.48-3.16c8.87,4,17.26,9.71,25.73,14.52,9.08,5.17,18.09,10.52,26.39,16.89l-6.41-5a70.5,70.5,0,0,1,12.55,12l-4.93-6.39a33.08,33.08,0,0,1,3.53,6l-3.17-7.51a22.93,22.93,0,0,1,1.47,5.27L167,129.24a41.33,41.33,0,0,1-.06,8l1.12-8.33a41.7,41.7,0,0,1-2.78,10.35l3.15-7.46a51.43,51.43,0,0,1-6.21,10.28l4.87-6.29a97.23,97.23,0,0,1-16.54,15.57l6.24-4.82a145.11,145.11,0,0,1-31.18,18.57l7.18-3C118.82,167.93,104,173.38,89,175.6l7.74-1a58,58,0,0,1-14.54-.14l7.66,1A84.57,84.57,0,0,1,73,171.18c-.82-.3-1.63-.62-2.44-1q-3-1.2,2.75,1.14a27.37,27.37,0,0,0-2.93-1.43,74.82,74.82,0,0,1-7.28-4.17c-.76-.49-2.73-1.45-3.13-2.17.66,1.18,5.2,4.33,1.63,1-.93-.85-1.77-1.76-2.65-2.66-3.28-3.33,2.8,4.43,1.15,1.58-.62-1.08-1.32-2.13-1.94-3.22-2.45-4.3,1.17,4.28.49,1.06s-1.58-6.18-2-9.42l1,7.44a121.63,121.63,0,0,1-.17-29l-1,7.39a84.69,84.69,0,0,1,1.7-9.07c.34-1.35.72-2.69,1.14-4,.76-2.35,3.29-5.75-.42.4,1.43-2.38,2.46-5,4-7.31.4-.62,3.22-5.29.74-1.2s1.37-1.35,2.17-2.18c1.93-2,4-3.75,6.07-5.61,4.42-4-5.19,3.67-.33.21.91-.64,1.81-1.29,2.72-1.92,1.92-1.33,3.88-2.58,5.9-3.76,2.18-1.29,3.9-.38-3.7,1.48,1.1-.27,2.19-.81,3.28-1.15A93.87,93.87,0,0,1,91.5,101c2.1-.37,4.22-.64,6.32-1-10.31,1.69-.45.12,2-.14,8.8-.92,17.63-1.48,26.45-2.21,18.72-1.54,35.7-7.71,53.83-12,1.83-.43,3.68-.84,5.54-1.17,6.3-1.14-7.23.29-1.43.21.8,0,1.66,0,2.46-.05,3.79-.29-7.56-1.43-4.81-.69,2.5.67,1.55,1.3-4.18-1.91,1,.55,2.07,1,3.08,1.47a90.28,90.28,0,0,1,8.46,5.18c3.43,2.25-5.29-4.34-3-2.31.58.5,1.18,1,1.76,1.47,1.37,1.18,2.69,2.43,3.95,3.73s2.39,2.69,3.59,4c2.79,3.13-4.41-6.18-2.08-2.7.49.75,1,1.46,1.54,2.2a78.22,78.22,0,0,1,5.2,9.45c1.86,3.84-2.83-7.25-1.39-3.23.31.85.65,1.69.95,2.55q.9,2.59,1.63,5.24A92,92,0,0,1,203.78,121l-1-7.46a111.45,111.45,0,0,1,0,28.62l1-7.65a123,123,0,0,1-8.39,30.94l3-7.06c-2.53,5.92-5.47,11.59-7.93,17.55l3-7.1a104.4,104.4,0,0,1-9.19,16.5c-.85,1.23-4.07,5.5-.52.84q4.67-6.1-2.79,3.58l-2.85,6.76c.07-.13,3.7-7.56,1.62-3.84-.72,1.29-1.38,2.6-2.13,3.88-.36.62-.77,1.22-1.12,1.85-2.16,3.82,6.48-8.45.32-.47q-3.66,4.59-.48.79c1.63-2,1.93-2.29.89-1q-.56.69-1.14,1.38c-.95,1.12-1.93,2.22-2.95,3.28-2,2.07-4.35,3.75-6.34,5.79.56-.57,4.3-3.11,1.6-1.28a11.08,11.08,0,0,0-1.82,1.27l2.89-1.11-4.48,1.89a14.29,14.29,0,0,0-5.26,4.83c-2.1,2.74-2,2.53.45-.66.29-.28,3.44-2.47,1.48-1.18-.6.4-1.18.85-1.79,1.25a34.11,34.11,0,0,1-4.06,2.44l7.09-1.92c-6,.73-10.55,2.51-13.59,8.05l4.49-4.49a63.89,63.89,0,0,1-7.07,4.43c-5.28,2.85-4.42,9.92,0,12.95Z"/></g><path class="cls-1" d="M120,41.8c-23.29-6.73-52.52-4.47-74.08,6.76C25.42,59.24,11.28,79.7,4.71,101.46-9.52,148.53,8.9,204,54.61,226c28,13.44,61.87,13.13,88.6-3.22,2.69-1.65.21-5.93-2.49-4.25-45.37,28.27-106.61,6.14-127.63-41.74C-4.29,137.16,3.66,83.09,40.32,56.9,61.7,41.62,94,38.59,119,45.46c2.36.65,3.35-3,1-3.66Z"/><path class="cls-1" d="M35,293.59c9.92-1,19.82-.55,29.76-.67a302.8,302.8,0,0,1,30.86,1.39c10.14.93,19.74-.49,29.85-.87,9.69-.36,19.86-.36,29.18-3.35,2.47-.8,2.22-5.13-.64-4.79-9.79,1.15-19.53,2.93-29.44,2.07-5.43-.47-10.43-2.08-15.7-3.21-5-1.06-10-1.53-15.06-2.17-10-1.29-19.93-3.28-29.95-4.5-10.27-1.25-20.68-.29-30.87,1.25-8.34,1.26-6.47,15.75,2,14.85Z"/><path class="cls-1" d="M35.29,334.76c10.26,1.16,21.13-.22,31.46-.3,10.85-.09,21.66.57,32.52.34,10.52-.23,21-.6,31.56-.71,5.27,0,10.53-.17,15.79-.22,5.7-.06,11.18.55,15.57-3.65a6.75,6.75,0,0,0,0-9.42c-4.16-4-9.14-3.59-14.58-3.57-5.59,0-11.19.07-16.78.25-10.84.34-21.73.68-32.55,1.51-10.47.81-20.71,2.62-31.09,4.1-10.72,1.53-22.43,2-32.76,5.32-3.65,1.16-2.68,5.95.86,6.35Z"/><path class="cls-1" d="M30.84,361.68c14,3.48,29.18,2.72,43.49,3.09,15,.38,29.91.42,44.9.2,14.63-.22,29.26-.68,43.88-1.19q11-.37,21.94-.82c4-.17,8-.22,12-.51a24.51,24.51,0,0,0,10.36-3.19c4-2,2.35-7.3-1.13-8.65A25,25,0,0,0,195,348.77c-3.32.13-6.64.33-10,.49q-11,.53-21.94,1c-15,.61-29.92,1.09-44.88,1.62q-22,.79-43.9,1.9c-14.33.73-29.5.16-43.49,3.68a2.22,2.22,0,0,0,0,4.25Z"/><path class="cls-3" d="M104.46,144.42c10-5.3,20.44-19.75,14.42-31.24-5.63-10.76-22.72-12.41-33.18-9.37-17.35,5-17.34,24.65-10.54,38.18,3.35,6.68,9.08,12.17,16.35,14.25a22.74,22.74,0,0,0,6,.84c1.08,0,5.24-1,5.7-.57.3.28-5.13-1.12-2.61.05.54.25,3.26,1.23,2,.71s1.93.84,2.29,1q2.43,1.05,4.87,2.06a51,51,0,0,0,8.24,2.73c7,1.55,14.34,1.58,20.7-2.09,10-5.8,13.84-18.09,14.73-28.94,1-11.58-2.86-24.44-12.76-31.27-12.56-8.68-25.35-2.69-36.35,5.16a19.8,19.8,0,0,0-2.48,1.71c-2,2,1.41-1,1.34-.36a7.14,7.14,0,0,1-1.35.4c-2.7.52-5.38,1-8.11,1.4C86.49,110.17,79,112.7,75,119.31c-10.73,17.38,8.55,37.28,25.86,37.95,5.13.2,10.6-1.37,14.24-5.17a23.17,23.17,0,0,0,3.29-4.26,24.92,24.92,0,0,0,1.32-2.94c.31-.72.62-1.45.91-2.18s.24-.57-.2.47c.08,1.18-.61,1,0,.09-4.91,7-13.13,4.87-7.33,4.93,1.38,0,2.79-.09,4.17-.19,3.78-.28,7.45-.65,10.85-2.48,12.11-6.53,8-23.56-3.82-27.25-2.77-.86-5.69-1.11-8.51-1.71a6.81,6.81,0,0,0-1.51-.33c-.62.07-5.07-2.48,2,1.14,5.74,3,.67-.27-.45-1A24.3,24.3,0,0,0,102,112.59a25.22,25.22,0,0,0-22.91,16.58,22.47,22.47,0,0,0,26.34,29.75c9.9-2.31,18.47-13,18.74-23.15a15.07,15.07,0,0,0-14.77-15.61c-7.19-.16-12.07,5.26-15.92,10.53-6.05,8.28-5.76,17.74-6,27.57-.18,8.49-1.55,19,4.83,25.58a35.5,35.5,0,0,0,17,9.31c12,2.45,23.17-3.89,26-16.15,1.67-7.17.55-14.58-.77-21.69l-1.42,10.86c2.28-3.72,4.5-7.6,4.5-12.13A14.75,14.75,0,0,0,119.21,140c-6.83,1.85-12.47,8.08-17.5,12.75-4.1,3.81-9.22,7.68-12.64,12.14-1,1.28,2.46-1.23.69-.51a26.19,26.19,0,0,0-3,1.91c-2.37,1.41-4.82,2.66-7.24,4-5.31,2.91-10.65,5.95-15.06,10.18-6,5.72-5.75,15.87,0,21.62,6,6,15.57,5.65,21.62,0,.48-.44,1.67-2.11.21-.23.32-.41,2.07-.67.69-.47-1.9.27,4.54-.87,1-.44a27.82,27.82,0,0,1,5.77,0c-3.57-.32,2.91.5,3.48.54a60.17,60.17,0,0,0,8.49-.24q6.7-.42,13.43-.77,3.45-.18,6.92-.13c1.15,0,2.29.09,3.45.15a8.07,8.07,0,0,1,1.94.21c-.59-.23-3.09-.6-1.07-.11,2.24.55,4.48,1.28,6.72,1.8,1.58.37-1.62-.46-1.45-.6a11.54,11.54,0,0,1,1.54.8,10.29,10.29,0,0,0,1.09.67c1.36.43-2.11-2.22-.58-.47.52.6,2.23,2.9,1.12,1-1.27-2.11.34,1,.65,1.51-1.77-2.75-.62-1.86-.5-.82.45,3.89,2.25-4,3.1-6.08,2.46-6,1.58-6.86,5.07-7.94-2.26.7,1.53-.45,1.4-.13s-2.93,0-3.09,0c-3.07-.06,1.34.64-1.07-.23s-7.3-2.29-8.27-2.71c1.48.64-1.29-.62-1.58-.76-.67-.32-1.34-.65-2-1q-2.38-1.23-4.68-2.63c-3.35-2.05-6.48-4.53-10-6.24-8.29-4-17.06-4.34-26.08-3.75-3.1.21-6.18.64-9.26,1-1.34.17-2.7.28-4,.46a7.92,7.92,0,0,0-1.1.07c-1.9.62,3.41.77,2.24.34-8.1-2.95-18.38,3.3-20.24,11.49-2.11,9.24,2.8,17.13,11.49,20.24,10.32,3.69,21.64,3.86,32.46,3.68,5.88-.1,11.77-.21,17.65-.4,2.43-.09,4.87-.18,7.29-.35.86-.06,1.72-.12,2.57-.21,2.19-.21,9.71-1.25,2.06-.25,8.18-1.07,16.25-6.52,15.83-15.83-.34-7.65-7-17-15.83-15.83-9.18,1.21-19.24,0-28.41-.76-5.85-.49-11.71-1.42-17.58-1.46-2.28,0-4.56-.05-6.84-.21-1.74-.11-4.61-1,1.28.29a14.47,14.47,0,0,1-1.73-.4l-4.38,32.32c6.53.26,13.09-2.53,19.38-3.89.83-.18,1.65-.34,2.48-.5,3-.54.31.09-.16.07a13.2,13.2,0,0,0,3.26.06c1.84-.48-2-.72-.19-.09,1,.34,2.1.51,3.09.76,1.39.35,1.32,1.23-.18-.08a38.59,38.59,0,0,0,6.07,4A82.86,82.86,0,0,0,135,216.93c1.84.33,3.7.51,5.55.79.69.11,2.79.51-.41,0a56.44,56.44,0,0,0,6.62.81c4,.19,8.63-.39,12.16-2.52,17.59-10.58,3.42-33.74-10.25-40.13a51.56,51.56,0,0,0-10.07-3.64c-1.41-.33-2.84-.58-4.27-.81-1.63-.26-3.33-.46-4.92-.66,5.21.67-1.94-.28-3-.39a92.47,92.47,0,0,0-16.72-.33c-2.57.17-5.14.39-7.71.55-1,.06-2,.07-2.93.13s-3.88-.31-.24.18c6.2.84-6.13-.82-3.78-.56-1.2-.13-2.39-.27-3.6-.3a46.23,46.23,0,0,0-9.81,1,35.4,35.4,0,0,0-17.26,9.37L86,202c.32-.31,1-1.25,1.45-1.34q-2.2,1.68-.78.68c.34-.24.69-.47,1-.69,1.55-.92,3.06-1.89,4.62-2.79,3.57-2.05,7.22-4,10.65-6.24a66.4,66.4,0,0,0,11.42-9.85c3.38-3.53,6.69-7.13,10.13-10.61,1.62-1.65,3.29-3.24,5-4.83,1.86-1.75,1-.61-.78.46.28-.17.52-.39.81-.54-1.2.62-4.4,1.79-6.24,1.63L116.14,166l.11.07-5.1-5.11q.06-15.24-1.52-9.82c1.19-2.68,1.46-3.34.83-2-.4.63-.74,1.35-1.07,2a16.72,16.72,0,0,0-1.91,11.67c.06.4.64,4.71.39,2.07.15,1.57.21,3.12.22,4.7,0,2.27-.2,2,.15-.08-.58,3.56,1.19-1.59.28-.08-1.23,2.05,2.36-2.61.84-1.13q3.39-2.39,1.62-1.38,4-1.5,2-.94c4.27-1.08,3.19-.31,1.75-.34-2,0,4,1.27,1.12.08a8.89,8.89,0,0,0-1.59-.5c-2-.39,3.51,1.93.8.29-.46-.28-1-.5-1.42-.78-.75-.43-4.29-2.94-1.65-1,2.28,1.7.87.71.41.24-1.46-1.51,2.09,3.2,2.34,3.8.37.88,1,6.7,1,3.82,0-.73,0-1.46-.07-2.18-.11-4.42,0-8.84.09-13.25.11-4,.54-8,.64-12,0-.11-.32,4.91-1.56,5.25.4-.11,2.19-3.17,2.4-3.7q1-1.38-.79,1c.3-.38.62-.74,1-1.1,1.07-1,.5-.63-1.7,1.19q4.78-2.84-9.68,1.14l-6.23-3.63Q96,130,96,135.43c.53-3.15.63-4,.32-2.63-.69,2.76,1.88-2.64.51-1a18.23,18.23,0,0,1-1.24,2c-.61-.39,2.91-2.84.07-.53,2-1.5,2.48-1.88,1.28-1.12s-.75.43,1.6-.67q-2.15.51,1.81-.18-2.2-.06,1.65.3-2.07-.63,1.12.59-2.85-1.72,2,2.33a5.64,5.64,0,0,1,.5,5.13c-.5,1-.42.82.26-.42a5,5,0,0,1-1.86,1.94c-1.7.86-2.56.06-4.14-.41-4.12-1.22,6.81,3.67,5.83,3.37.48.15.94.29,1.43.41,1.7.43,3.47.65,5.2,1,.84.16,1.7.4,2.56.51,3.13.42,3.12,3.44-4.36-3l-3.75-6.45,0,.11,3.75-14.2L116.4,119c3-.35,3.61-.44,1.87-.27-.73,0-1.46.1-2.19.14-3.17.16-6.53,0-9.64.79a19,19,0,0,0-8.52,5.17c-3.11,3.16-3.25,6-5.39,9.69,2.28-3.95-3.84,1.53,4.65-3.8l4.33-2.72c1.62.34,1.56.3-.16-.13,2.11,2-.26-.32-.23-.28,1.56,2.28-1.82-1.3.4.4-2.7-2.06.27-1-.24-.25l.12,1.72a10.47,10.47,0,0,1-5.11,9c.31-.25,1.27-.52,1.54-.83-2.06.8-2.3.91-.74.34.51-.18,1-.34,1.55-.49,3.52-1.06,7.14-1.7,10.61-3,4.94-1.78,8.5-4.56,12.39-8,.92-.81,1.86-1.6,2.76-2.43.23-.21,1.91-1.57.32-.36,1-.77,2.1-1.39,3.15-2.09,1.62-1.06.17-.35.12-.11l1.06-.27a2.93,2.93,0,0,1-2,.21l-.73-.09c1.35.41,1.2.28-.43-.39.2,0,2.65,1.58.94.38s2.1,2.9-.2-.44c.63.92,2.07,4.73,1.22,1.83.46,1.55.87,3,1.2,4.63-.61-3,0,1.63,0,2.67,0,.67,0,1.33-.07,2s-.1,1.33-.17,2c.2-1.43.23-1.7.07-.79-.3,1.42-.67,2.8-1,4.2-.19.75-1.53,3.14-.09.49-.27.49-.55,1-.79,1.53-1,2-1.42.62,0,.2a8.43,8.43,0,0,1-1,1.08l1-.77c-1.22.67-1.19.71.07.1l-1,.26c1.47-.15,1.48-.18,0-.1.11,0-3.42-.32-1.71-.07s-1.93-.51-1.78-.47a53.26,53.26,0,0,1-5.53-1.8c-3.31-1.24-6.52-2.92-9.93-3.92a19,19,0,0,0-5.32-.83c-.93,0-4.6.66-3.51.47,1.46-.25-1.59.68-.46.14-.3.14-.52-.17-.84-.5,0,0-2.14-3.29-2.1-3.19a18.78,18.78,0,0,1-1.33-5.82c-.38-3.18-.09-.2-.09-.2.2.63.76-1.5-.37-.07,1.26-1.6,6-2.35,8.93-2.35,2,0,2.53.73,3.77.81-.58,0-.84-1.14-.83-1.17a21.92,21.92,0,0,1-.17,2.68A22.23,22.23,0,0,1,98,136.05c-4.67,4.16,1.28,11.1,6.46,8.37Z"/><path class="cls-3" d="M78.7,108.46c10.41,0,20.38-9.15,19.9-19.9s-8.75-19.9-19.9-19.9c-10.41,0-20.38,9.16-19.9,19.9s8.74,19.9,19.9,19.9Z"/><path class="cls-3" d="M102.78,101.9c10.41,0,20.38-9.16,19.9-19.9s-8.75-19.9-19.9-19.9c-10.41,0-20.38,9.15-19.9,19.9s8.74,19.9,19.9,19.9Z"/><path class="cls-3" d="M145.2,95.72c11.82,0,23.14-10.39,22.59-22.59s-9.93-22.6-22.59-22.6c-11.82,0-23.15,10.4-22.6,22.6s9.93,22.59,22.6,22.59Z"/><path class="cls-3" d="M80.61,94.33c0,4.6-.75,10,1.6,14.18a12.12,12.12,0,0,0,15.23,5.22c3.88-1.54,7.23-4.85,10.22-7.7,1.44-1.37,2.82-2.79,4.13-4.28.75-.86,1.47-1.73,2.18-2.61q3.84-4.15-.6-.81h-6l1.15.39-6.76-5.19c-.45-1.75-.34-1.61.32.4l1.17,3.22a40,40,0,0,0,2.21,5.42c2.64,4.67,7.16,8,12.66,8s9.45-3.17,12.3-7.53c1.68-2.58,2.72-5.61,4.55-7.07l-5,2.9.89-.35-8.7-1.14.78.38-4-4,.41.91-1.54-5.71c.44,4.11-.5,8.27.77,12.3a13.13,13.13,0,0,0,12.71,9.08c10.18-.19,14.91-10.23,21.1-16.57l-18.88-11c-2.87,7-3.24,14.7-5.9,21.79-2.15,5.72,2.39,12.39,7.89,13.9,6.34,1.74,11.74-2.16,13.9-7.89,2.66-7.09,3-14.79,5.9-21.8,4.44-10.83-11.52-18.52-18.88-11a95.34,95.34,0,0,0-6.21,7.4c-.42.52-.84,1-1.28,1.55a24.56,24.56,0,0,1-1.76,1.92c-1.63,1.51-.61,1.17,3.09-1l8,3.31-.79-.69,2.91,5c.09,1.75.12,1.61.1-.4l0-3.22a22.43,22.43,0,0,0-.5-5.67,12.88,12.88,0,0,0-12.09-9.58c-5.27,0-9.67,3.67-12.56,7.73a32.1,32.1,0,0,0-2.11,3.4c-.41.82-.82,1.63-1.25,2.43-1.16,1.76-.82,1.63,1-.39l5.7-1.54-1,0,5.7,1.54c.39,1.39,1,1.93,1.74,1.63l-1.17-3.21a29.65,29.65,0,0,0-2.59-5.8,13.06,13.06,0,0,0-15.12-5.2c-8.26,2.69-11.39,12.56-18.76,16.72l5.7-1.54-.76,0,9.75,5.59-.36-.54,1.55,5.7c-.27-2.78-.06-5.69-.06-8.48,0-14.54-22.57-14.56-22.6,0Z"/><path class="cls-3" d="M70.35,96l1.94,15.52c.73,5.84,4.67,11.59,11.3,11.29,5.49-.24,12.08-5,11.3-11.29L92.94,96c-.73-5.84-4.67-11.59-11.3-11.3-5.49.25-12.08,5-11.29,11.3Z"/><path class="cls-4" d="M279.09,251.21c4.61,14.93,13.26,28.53,20.89,42.08,7.79,13.82,15.7,27.46,24,41s16.72,26.86,25.1,40.29c4,6.45,8,12.93,12,19.35,4.6,7.28,8.72,15,14.35,21.58,3.39,3.93,10.32,4.53,14.61,1.89a109.12,109.12,0,0,0,17-13.55,10.33,10.33,0,0,0,1.6-12.39c-15.69-25.22-36.8-46.52-52.8-71.51-8.16-12.75-15-26.3-24.12-38.44-7.6-10.15-16.45-18.19-25.8-26.65-4.64-4.2-11.82-4.58-16.4,0-4.25,4.25-4.69,12.22,0,16.41,8.5,7.61,17.14,14.79,23.95,24,8.8,12,15.51,25.29,23.69,37.66,16.1,24.37,37.59,44.55,53.82,68.81l1.6-12.39c-3.62,3.64-6.79,4.83-11.82,6l14.83,8.43c-5.95-14.82-16.46-28.4-25.39-41.57s-18-26.11-27.27-39-18.82-25.69-28.2-38.55c-9.21-12.63-17.55-26.4-28.51-37.61-2.95-3-8.47,0-7.19,4.19Z"/><path class="cls-5" d="M309.41,304.57c3.45,8.74,8.89,17,13.48,25.19,4.13,7.37,8.26,14.74,12.63,22,6.19,10.21,13.24,19.94,19.9,29.84L367,398.69c4,5.94,7.46,12.28,13.25,16.62,6.42,4.82,14.91-3.12,13-10-1.77-6.4-6.54-11.73-10.28-17.1L371.71,372c-6.92-10-13.76-20-20.87-29.79-4.88-6.74-9.55-13.63-14.2-20.52-5.28-7.8-10-16.44-16-23.67-4.18-5-13.61.35-11.19,6.51Z"/><path class="cls-6" d="M333.94,79.62c-5-15.35-11-30-22.2-41.88A114.64,114.64,0,0,0,278,13.1,135.32,135.32,0,0,0,197.19,1.89a129.21,129.21,0,0,0-67.13,32.92c-26.72,25.18-38,63.84-36.69,99.8,2.17,61.57,44.55,120.91,106.19,134.53,68,15,145.6-31,159.86-100.27,6.24-30.34.67-61.64-11.41-89.83a125.91,125.91,0,0,0-58.43-62.36A118.52,118.52,0,0,0,262.13,6.45a10.09,10.09,0,0,0-11.84,5.81c-1.69,4.2-.52,10.48,4.11,12.54,15,6.64,30.33,13.07,43.35,23.21a99.87,99.87,0,0,1,23.38,26.05,126.24,126.24,0,0,1,7.65,14.51c.27.6.53,1.21.79,1.82-.75-1.77-.09-.21,0,.13.47,1.2.95,2.39,1.4,3.6.93,2.48,1.79,5,2.61,7.53,4,12.48,7,25.24,7.4,38.4a101.52,101.52,0,0,1-36.64,81.55c-22.95,19.28-52.73,31.08-82.45,29.85-25-1-49.63-11.95-68.37-28.95a128.35,128.35,0,0,1-39-68.2c-6.68-31.14-1.61-65.69,16.47-92.22,13.16-19.32,33-30.58,54.61-36.3a122.37,122.37,0,0,1,66.18.86A101,101,0,0,1,283.3,42.17c9.29,6.64,18.83,16.48,27.73,25.75A97.94,97.94,0,0,1,323.56,84c3.3,5.27,12.44,2,10.38-4.38Z"/><g class="cls-7"><path class="cls-6" d="M327.51,115.41c2-6.72,2.52-14.18,3.29-21l-1.9,14.15c1.34-9.55,2.24-13.9,1.09-22.51a51.61,51.61,0,0,0-10.72-25.75c-2.73-3.53-5.2-6.93-8.53-9.86-6.71-5.88-14-11.71-22-15.94C275.56,27.5,262.4,23.85,248,21c-19.09-3.77-37.81-5.55-56.78.19C177,25.48,164,32.53,151.58,40.51l80.6,46.25V85.38l-1.91,14.23c.18-.87.33-1.74.46-2.62l-5.31,12.56.57-1.09c5.45-10.58,7.76-21.22,6.16-33.11-1.46-10.89-5.94-22.15-14.28-29.81A61.67,61.67,0,0,0,195,32.19c-11.68-3.78-29.72-1.72-40,5.23A94,94,0,0,0,142.69,47L164.9,34c-13.4,2.64-25,10.28-35.24,18.92a49.47,49.47,0,0,0-6.21,6.24c-4.14,5-8.54,10.25-11.65,16C101.66,94,97.4,115.52,96.64,136.76c-1.57,44,30.5,77.51,63.31,102.08l-10.25-7.92a196.18,196.18,0,0,0,19.1,14.5c6.79,4.35,14.47,7.34,21.91,10.3a60.3,60.3,0,0,0,11,3.38c7.87,1.5,16.52,3.08,24.66,2.75,29.19-1.18,54.85-14.16,76.31-33.39,9.17-8.22,16.9-18.46,23.73-28.61,7.26-10.8,13.25-23.69,15.43-36.54,2.61-15.39,2.45-23,.1-38.22-1.27-8.27-5-16.56-8.92-23.79-2.87-5.3-7.14-10.08-10.94-14.68a32.31,32.31,0,0,0-3.83-3.93c-4.74-4.13-10-8.62-15.67-11.51s-12.19-6-18.42-7.44c-23-5.41-48.53-2.42-68.83,10.24-12.51,7.81-22.18,18.24-33.37,27.48L194.15,92a10.47,10.47,0,0,1-2.49,1.49L206,87.46l-1.38.43,16-2.15a7.23,7.23,0,0,1-2.82,0l16,2.15-1.35-.39,14.38,6.07a18.52,18.52,0,0,1-3.74-2.28l12.17,9.4c-8.16-7.33-14.62-17.22-21.53-25.72L223.26,62.06c-6.52-8-15.2-13.49-23.37-19.71l11.6,9-.94-.86L219.47,62l-.78-1,5.72,13.54L223.84,73l2,15a7.92,7.92,0,0,1,.08-3.18l-2,14.72a17.73,17.73,0,0,1,.85-2.77l-5.5,13a35.62,35.62,0,0,1,2.4-4.58l-8.31,10.76c.63-.61,1.29-1.18,2-1.73l-10.73,8.29a33.07,33.07,0,0,1,5.68-3.42l-12.57,5.3a33.29,33.29,0,0,1,7.66-2.21L191.56,124a80.1,80.1,0,0,1,14.11-.1l13.05-1.75,11.72-5a48.7,48.7,0,0,0,20.09-23.47,47,47,0,0,0,3.35-25.44c-1.54-11.41-6.15-19.24-13.5-28.18C218.73,13.8,177,15.4,150,31.64c-16.66,10-29.91,23.47-34.89,42.87-2.61,10.16-2.81,22.55.53,32.59,1.89,5.68,4.68,11.2,7.08,16.69,3.66,8.39,9.57,14.88,15.3,22.11l16.46,20.75c5,6.34,9.73,13.67,15.75,19.1,13.3,12,29.3,20.1,47.59,20.34A68,68,0,0,0,254.94,196c10.52-6.28,18.59-15.92,28.14-23.44L270.87,182a72,72,0,0,1,12.5-7.53L269,180.56a39.88,39.88,0,0,1,9.08-2.64l-15.83,2.13a34.59,34.59,0,0,1,6.19-.12l-15.73-2.11a27.76,27.76,0,0,1,6,1.46l-14-5.92a26.09,26.09,0,0,1,4.9,2.87l-11.81-9.13a28.88,28.88,0,0,1,3.82,3.92l-9.07-11.75a32.67,32.67,0,0,1,3.43,6l-5.81-13.76a36.45,36.45,0,0,1,1.87,6.78l-2-15.19a39.24,39.24,0,0,1,0,9.38l2-15a47.33,47.33,0,0,1-2.81,10l5.65-13.4a91.24,91.24,0,0,1-11.64,19.62l8.66-11.22a91.72,91.72,0,0,1-15,15.09l11.08-8.56a71.68,71.68,0,0,1-15.37,9l13-5.46a66.74,66.74,0,0,1-15.61,4l14.25-1.92a56.36,56.36,0,0,1-12.18,0l14,1.89A64.37,64.37,0,0,1,209.83,152l12.31,5.2a66.5,66.5,0,0,1-13.58-7.79l10.25,7.92a161.91,161.91,0,0,1-26.11-26.61L200.61,141a56.6,56.6,0,0,1-7.17-11.86l5.09,12.08a44.08,44.08,0,0,1-2.28-8.72l1.8,13.43a82.39,82.39,0,0,1,.56-20L196.8,139.3a87.88,87.88,0,0,1,5.31-21.44l-5.08,12a49.55,49.55,0,0,1,5.58-9.65l-7.88,10.2a43.16,43.16,0,0,1,6.18-6.28l-10.2,7.88a36.78,36.78,0,0,1,7.47-4.43l-12,5.08a35.53,35.53,0,0,1,5.52-1.6L152.88,126a21.4,21.4,0,0,0,2.09,1l26.2-96.75c-14.41.9-29.47,5-39.69,16.08a84.09,84.09,0,0,0-9,12c-5.35,8.73-6.71,18.45-7.4,28.39-1.27,18.46,11.1,37.23,26.53,46.25,16.77,9.82,37.27,9.41,54.07,0a188.24,188.24,0,0,1,17-8.67l-12.94,5.46a67.62,67.62,0,0,1,14.66-4.32l-14.52,2a49.16,49.16,0,0,1,12.36,0l-14.62-2c13.85,2.12,28.18,7.19,41.19,12.33l-13.29-5.6a56.31,56.31,0,0,1,11.24,6.22l-11.06-8.55c.81.64,1.58,1.31,2.38,2l11,8.51a40.4,40.4,0,0,0,20.24,6.46c4,.54,7.36.67,11.18,1.06l-13.24-1.77a34.67,34.67,0,0,1,4.25,1.16c10.26,3.59,26,1.25,35.1-4.59,10.12-6.52,17.4-15.53,20.93-27.22Z"/></g><path class="cls-1" d="M282.28,258.84c5.93,9.81,7.71,20.76,12.71,30.89,5.91,12,13.94,23.16,20.73,34.65Q338,362.06,361.34,399c3.66,5.82,7,12.38,11.31,17.7,3.33,4.07,7.4,5,12,2.4,6.12-3.4,11.86-7.75,17.72-11.59,4-2.65,10.09-5.75,10.08-11.39,0-5.24-5.44-10.61-8.29-14.65-4.95-7-10-13.92-15.06-20.87-9.27-12.85-18.67-25.61-28-38.41-10.52-14.39-20.9-28.9-31.6-43.16-4.26-5.68-8.26-12.08-14.09-16.31-5.64-4.09-11.29-6.82-15.58-12.55a2.22,2.22,0,0,0-3.82,2.24c4.51,9.86,15.88,12.19,22.24,20.5,8.64,11.29,16.76,23,25.2,34.49q25.86,35.11,51.85,70.13c3.83,5.13,8.33,10.06,11.79,15.43,4.47,6.94-11.74,14.42-16.54,17.58-2.39,1.58-5.2,4.08-7.87,5.15-5.55,2.22-7.1-1.45-9.53-5.27-4.24-6.68-8.44-13.39-12.66-20.09q-21-33.3-41.05-67.12c-6.95-11.73-15.19-23.18-21.23-35.39-2.26-4.56-3.61-9.42-5.25-14.21A77.15,77.15,0,0,0,285,257.23c-1.09-1.73-3.81-.16-2.75,1.61Z"/><path class="cls-8" d="M104.41,72.49c-5.86,12.16-7.16,27.51-8.15,40.83a207,207,0,0,0,1.36,44c3.63,25.81,13.78,48.59,33,66.47,10.06,9.35,21.49,17.14,32.84,24.8,7.19,4.87,14.21-7,6.83-11.68-24-15.17-47.5-31.57-57.51-59.45a172.26,172.26,0,0,1-10.11-51.58,205.36,205.36,0,0,1,.78-26.83c.82-8.67,2.89-17.26,3.29-25.93a1.27,1.27,0,0,0-2.34-.64Z"/><path class="cls-1" d="M315.1,38.49C284.43,9,239.52-2.72,197.9,3.35,152.79,9.93,114.55,39,98.34,81.89c-21.91,58-.57,128.63,49.94,165,49.19,35.4,125.79,29.22,172-8.62,49.34-40.45,53.6-114.08,22.69-167.07a125,125,0,0,0-15-20.74c-2.08-2.32-5.22,1-3.36,3.37,21,26.56,34.07,57.65,33.84,91.91-.2,28.63-9.3,56.79-28.68,78.21-38.89,43-111.47,54.73-163.12,29.77C110.74,226.7,81.72,156,97,97c11.41-43.87,44.52-77,88.57-87.88,39.15-9.67,83.52-2.48,116.53,21.1a117.56,117.56,0,0,1,11.68,9.56c.86.79,2.13-.47,1.28-1.28Z"/><path class="cls-1" d="M184.05,23.63c-22.75,7.13-43,21-56.27,41-11.69,17.61-17.35,38.68-18,59.69-1.4,46,20.9,93.78,62.49,115.81C193.8,251.48,219,255.25,243,251.67c25.05-3.73,48.74-12.13,66.88-30.43,34.58-34.89,39.78-91.35,17.83-134.25-11.83-23.11-31.41-41.67-54.42-53.5-23.86-12.26-50.78-15.91-77.22-12q-5.73.85-11.38,2.14c-4.61,1-7.38,2.69-11.25,5.44,0,0,0,.08,0,.08,3.36.13,6.53.53,9.81-.25,4.1-1,8.19-1.87,12.35-2.55A134.24,134.24,0,0,1,218,24.56a119.2,119.2,0,0,1,37.54,6.18,122.73,122.73,0,0,1,56.23,39.4c30.13,38,33.6,94.61,5.83,134.9-13.35,19.39-33.2,32.53-55.92,38.28-24,6.08-48.64,7.35-72.33-.79-43.71-15-70.54-58-74.38-102.76-1.69-19.69.8-40,8.83-58.16,8.85-20,24.19-36.12,43.24-46.76a137.7,137.7,0,0,1,17.84-8.22c1.83-.71,1.12-3.61-.83-3Z"/></g></g></svg>