<svg xmlns="http://www.w3.org/2000/svg" viewBox="0 0 652.61 397.91"><defs><style>.cls-1,.cls-2{fill:#ff7300;}.cls-1{opacity:0.21;}</style></defs><title>cooksAsset 162</title><g id="Layer_2" data-name="Layer 2"><g id="Cook_silhuette" data-name="Cook silhuette"><path class="cls-1" d="M6.34,397.91c0-23.29,40.18-43,95.27-49.26l2.26-.25,2.42-23.66-.2-.74C79.44,309.63,61,278.7,61,242.85a99.72,99.72,0,0,1,8.54-40.71l6.29-34.59s-13,4.12-21.25,4.12C24.44,171.67,0,148.13,0,119.08S24.44,66.49,54.59,66.49A55.49,55.49,0,0,1,92.93,81.64l.42.41c7.77-19.94,27.73-34.13,51.13-34.13a54.88,54.88,0,0,1,48.19,27.86l.3.54a55.74,55.74,0,0,1,31.79-9.83c30.15,0,54.59,23.55,54.59,52.59s-24.44,52.59-54.59,52.59c-9,0-21.79-4.94-21.79-4.94l6.82,35.41a99.73,99.73,0,0,1,8.55,40.71c0,35.61-18.2,66.38-44.56,80.87l-.95.5,2.48,24.18h0l2.43.27c55,6.33,95.1,26,95.1,49.24Z"/><path class="cls-1" d="M379.6,397.91c0-23.29,40.18-43,95.27-49.26l2.26-.25,2.42-23.66-.2-.74c-26.65-14.37-45.08-45.3-45.08-81.15a99.72,99.72,0,0,1,8.54-40.71l6.29-34.59s-13,4.12-21.25,4.12c-30.15,0-54.59-23.54-54.59-52.59s24.44-52.59,54.59-52.59a55.49,55.49,0,0,1,38.34,15.15l.42.41c7.77-19.94,27.73-34.13,51.13-34.13a54.88,54.88,0,0,1,48.19,27.86l.3.54A55.74,55.74,0,0,1,598,66.49c30.15,0,54.59,23.55,54.59,52.59S628.17,171.67,598,171.67c-9,0-21.79-4.94-21.79-4.94l6.82,35.41a99.73,99.73,0,0,1,8.55,40.71c0,35.61-18.2,66.38-44.56,80.87l-.95.5,2.48,24.18h0l2.43.27c55,6.33,95.1,26,95.1,49.24Z"/><path class="cls-2" d="M174.72,397.91c0-26.48,45.67-48.84,108.3-56l2.58-.28,2.74-26.89-.22-.85c-30.29-16.33-51.25-51.51-51.25-92.27a113.29,113.29,0,0,1,9.71-46.27L253.72,136s-14.75,4.68-24.15,4.68c-34.28,0-62.07-26.77-62.07-59.79s27.79-59.79,62.07-59.79a63.1,63.1,0,0,1,43.59,17.22l.48.46C282.47,16.13,305.16,0,331.77,0c23.73,0,44.35,12.82,54.79,31.67l.34.61A63.38,63.38,0,0,1,423,21.11c34.28,0,62.06,26.77,62.06,59.79S457.32,140.69,423,140.69c-10.23,0-24.77-5.62-24.77-5.62L406,175.33a113.34,113.34,0,0,1,9.72,46.28c0,40.5-20.69,75.48-50.66,91.95l-1.08.58,2.81,27.48h0l2.77.31c62.53,7.19,108.12,29.53,108.12,56Z"/></g></g></svg>