<svg xmlns="http://www.w3.org/2000/svg" viewBox="0 0 376.25 414.22"><defs><style>.cls-1{fill:#f15a24;}.cls-2{fill:#00e78f;}.cls-3{fill:#cecece;}.cls-4{fill:#00bf71;}.cls-5{fill:#b3b3b3;}.cls-6{fill:#595959;}.cls-7{opacity:0.14;}.cls-8{fill:#ff7300;}.cls-9{opacity:0.05;}.cls-10{opacity:0.33;}.cls-11{opacity:0.56;}</style></defs><title>shopping-listAsset 125</title><g id="Layer_2" data-name="Layer 2"><g id="shoppinglist"><path class="cls-1" d="M356.91,242.37c2.6,8.91.7,17.42-1,26.28-1.56,8.18-3.84,16.4-4.69,24.68-.35,3.47,5,3.92,5.9.8a187.06,187.06,0,0,0,5.72-28.29c1.11-8.23.91-16.71-2.3-24.46-.89-2.16-4.31-1.4-3.62,1Z"/><path class="cls-2" d="M350,239.61l.25,0a2.51,2.51,0,0,0,2.25-1.72l.2-.47a3.08,3.08,0,0,0-.82-3.1l-.77-.6a4.12,4.12,0,0,0-4.76-.62c-5.72,3.18-4.25,9.47-3.77,15,.64,7.43.94,14.85,1.27,22.3.3,6.65-.36,14.25,1.07,20.76,1.37,6.23,8.09,5.5,12.36,8.76,2.53,1.94,6.37-.69,6.25-3.59-.24-6.37-.29-12.54,1.14-18.8a167.18,167.18,0,0,0,3.42-18.31c.72-6.39,1.25-13.28.39-19.68-.64-4.83-3.56-7.2-8.24-8.2-3.74-.8-8.09-.94-11.34,1.36-4.27,3-4,7.77-3.3,12.39a226.73,226.73,0,0,1,2.6,42.76c-.16,4.78,7.29,7.18,9.4,2.55,3.31-7.28,3-15.89,3.62-23.72.75-9.33,1.65-18.61,2.67-27.91l-11.29,1.53a2.52,2.52,0,0,1-.06,2.33c-1.91,6.12,6.53,9,9.86,4.15a10.17,10.17,0,0,0,1.28-9.53c-2-6.17-11-5.05-11.28,1.52-.33,8-.7,16-1.26,24.06l-.79,11.54c-.25,3.49,0,7.68-1.46,10.94l9.4,2.54a256.58,256.58,0,0,0-1-29.47,130.46,130.46,0,0,0-1.86-15c-.52-2.47-1.08-2.5,1.16-3a17.19,17.19,0,0,1,2.38,0c1.12-.25,1.48.08,1.08,1,.6,1.37.09,4.95.1,6.52q0,3.8-.18,7.59a102.53,102.53,0,0,1-2,14.81,115.56,115.56,0,0,0-2.81,26.08l7.1-2.93A22.72,22.72,0,0,0,357.1,290c-.84-.36-1.91-.52-2.69-.95-1.67-.91-.5.5-1.42-1.26-1-1.92-.55-6.45-.74-8.72l-.74-8.73c-.46-5.49-1-11-1.35-16.48-.14-2.49-2.09-13.59.71-14.39l-2.28-.6a1.84,1.84,0,0,0,1.41.71Z"/><path class="cls-2" d="M365.49,121.13c-7.6-.11-6.2,17.08-6.22,21.6s6.51,5.32,7.73,1.05a52.19,52.19,0,0,0,1.94-18.35c-.35-4.92-7.85-5-7.74,0,.33,15.17-2.41,30-4.73,44.95-1.08,7-2.15,13.9-3,20.88S351.35,205.89,353,213c.79,3.42,5.91,3.27,6.78,0,1.86-7,1.58-14.53,2.41-21.69.88-7.47,2.07-14.9,3.21-22.33a277,277,0,0,0,3.56-43.5H361.2a48,48,0,0,1-1.79,16.26l7.74,1c0-3.71-.09-7.47-.39-11.18-.25-3.07-.76-5.35.37-8.27a1.71,1.71,0,0,0-1.64-2.15Z"/><path class="cls-2" d="M359.84,96.58c.6,1.83.85,2.79,2.88,3.48,2.51.86,4.34-1.73,3.94-4a25.51,25.51,0,0,1,1-13.19l-5.37,2.18c1.34.64-.22,3.71-.52,4.73-.76,2.56-.92,4.77.38,7.16,1.67,3.06,5.72,1.33,6-1.63.56-5.35,4.71-13.31-2.2-16.57A3.7,3.7,0,0,0,360.65,81a28.44,28.44,0,0,0-.17,16.84l.82-3.12c-.28.3-.57.77-.88,1l1.43-.38-.62-.17a1.14,1.14,0,0,0-1.39,1.39Z"/><path class="cls-3" d="M355,312.25c-.06-4.71-2-9.47-3.58-13.88L347,300.92a25.14,25.14,0,0,0,9.83,6.71l-1.78-4.38c-4.89,6.88-5,18.27-5.18,26.42l8-1.08a92.33,92.33,0,0,1-3.67-14.92c-.68-4.48.11-10.11-2.45-14a3.08,3.08,0,0,0-5.26,0c-2.58,4.16-1.14,9.75-.47,14.36a94.83,94.83,0,0,0,4,16.69c1.42,4.28,7.91,3.64,8-1.08a104,104,0,0,1,1.08-13.3c.56-3.83,1.78-7.74,1.53-11.61a3.09,3.09,0,0,0-2.19-2.88,16.1,16.1,0,0,1-7.72-4.66c-2.14-2.17-5.46.58-4.11,3.17,2.12,4.06,3.56,8.68,6.09,12.48a1.23,1.23,0,0,0,2.27-.62Z"/><path class="cls-3" d="M344.13,227.09l-2.39.92a1.84,1.84,0,0,0,0,3.52c3,.64,5.92-.23,8.95-.59a30.64,30.64,0,0,1,11.71.82,4.18,4.18,0,0,0,5.22-4q1.31-20.85,3.47-41.64c1.39-13.55,3.92-27.88,3.11-41.5a1.93,1.93,0,0,0-3.77-.51c-4.43,12.87-5.47,27.57-6.95,41-1.55,14.19-2.88,28.4-4.11,42.61l5.23-4c-7.05-1.32-19.58-2.15-23.94,5l3.33,1.41.78-2.53a.47.47,0,0,0-.64-.64Z"/><path class="cls-3" d="M357.2,214.51l3.81-3.89-1.6-1.23c-1.65,3.72-3,7.41-5.67,10.58l4.29,3.32c2.11-4.78,4.11-9.61,6.15-14.42L359,206.69l-.71,3.62c-.71,3.57,4.36,5,5.49,1.51,1-3,1.86-6,2.77-9.07l-5.33-1.47c-2,6.82-6.94,19.26-16.11,18.49l2.59,1.49c-1-1.56.45-6.53.64-8.25l1-9.57c.71-6.69,1.28-13.38,1.8-20.09.5-6.39.95-12.78,1.85-19.12.95-6.71,3-12.88,4.75-19.36.74-2.7-3.29-4.57-4.62-2-4.88,9.61-6,21.43-7.26,32-1.44,12-2.62,24.08-3.64,36.16-.3,3.62-2.26,10.07.27,13.2,2.18,2.71,6,1.31,8.72.09,8.68-4,12.54-13.09,15.32-21.63,1.1-3.39-4.21-4.83-5.33-1.47-1,3-2,6-2.93,9l5.49,1.51.68-3.62a2.83,2.83,0,0,0-5.46-1.51c-2,4.83-4,9.64-6,14.49-1.16,2.92,3.51,4.76,5,2.11,2.43-4.28,4-8.73,3.24-13.66a1,1,0,0,0-1.86-.24l-2.57,4.83a.23.23,0,0,0,.36.29Z"/><path class="cls-3" d="M372.25,116.44c-1.84,11-2.53,22.16-5,33.11-.58,2.53,3.35,3.6,3.88,1.07,2.38-11.19,3.95-22.89,1.6-34.18-.05-.21-.42-.22-.45,0Z"/><path class="cls-3" d="M371.46,119.18c1.65-5.34-.1-10.25-3.85-14.27l-2.28,3.92c2.11,1.06,2.91,2.51,2.41,4.33l4.15-1.12c-3.25-6.35-7.49-10.33-14.76-11.18a3.89,3.89,0,0,0-3.75,2.85c-5.5,22.35-8.21,45.83-10.6,68.69-1.11,10.53-2.52,21.26-2.41,31.86.08,7.9,2,15.49,8.76,20.19,2.78,1.93,6.11-.69,6.28-3.6.27-4.6-1-8.86-1.76-13.36A72.36,72.36,0,0,1,353,194c.26-9,1.49-17.92,2.44-26.83l2.95-27.64,1.44-13.49a64.7,64.7,0,0,1,.85-7.5c.18-.76,1.61-4.06,1.8-3.79l.64-5c-8.33,6.81-11.3,16.43-12,26.88-.89,12.42,2,25.38-3.24,37.17-2.13,4.74,4.65,9,7.13,4.16,5.5-10.67,4.67-22.48,4.59-34.12-.06-9.81,1-21.81,9.37-28.28a4.11,4.11,0,0,0,.64-5c-4.79-7.12-14.07-3.55-16.48,3.65-1.63,4.88-1.55,10.56-2.09,15.64l-2,19.28c-1.26,11.88-2.68,23.76-3.74,35.65a111.11,111.11,0,0,0-.41,18.33c.47,5.89,2.62,11.79,2.28,17.69l6.27-3.6c-6-4.55-3.86-15.18-3.22-21.52,1-10,2-20.09,3.1-30.12,2.32-20.31,5.67-40.55,7.8-60.86l-3.89,3.89c4.35-.09,8.93,1.49,10.91,5.65.78,1.63,3.8,1.35,4.07-.54.64-4.45-1.31-7.84-5.53-9.44-2.19-.83-4,2.41-2.28,3.92,3.21,2.83,4.45,6.39,4.58,10.61a1.32,1.32,0,0,0,2.58.34Z"/><path class="cls-3" d="M358.83,221.63l-.2-.26-2.06-3.63a25.56,25.56,0,0,0-1.15,4.22c-.33,1.62.45,3.83,2.34,4.12a16.52,16.52,0,0,0,6.11-.08c3.91-.76,2.89-6.75-.92-6.8a41.93,41.93,0,0,0-21.3,5.46l4.62,1.88c-.52-2.34.64-4,1.33-6.15s-1.79-3.72-3.58-2.76c-3.78,2.06-4.36,6.69-3.82,10.58.31,2.21,3,2.61,4.62,1.88a45.88,45.88,0,0,1,18.13-4l-.92-6.8a6.38,6.38,0,0,1-3.38.17l3.23,4.24a32.59,32.59,0,0,0,.49-5.22c-.05-5.31-8.27-2.23-5.5,1.49a6.78,6.78,0,0,0,1.62,1.58.29.29,0,0,0,.34,0Z"/><path class="cls-3" d="M366.19,223.49c-1.73,2.21-2.8,5.15-1.64,7.87a2.21,2.21,0,0,0,3.8,0c1.16-2.72.09-5.66-1.63-7.87a.37.37,0,0,0-.53,0Z"/><path class="cls-3" d="M371.76,111c.51-7.8-11.3-11-17.15-8.87-9.44,3.36-6.77,15-2.11,21.08,1.67,2.17,6.22,1.06,5-2.1-1.38-3.48-5.82-11.48-.11-13.36,4.72-1.55,9.32.76,12.48,4a1.14,1.14,0,0,0,1.92-.8Z"/><path class="cls-4" d="M360.14,239.38q-1.84,13.58-4.4,27c-.87,4.51-1.66,9-2.41,13.54-.62,3.78-1.75,7.4-1,11.19.45,2.22,3.36,2.16,4.46.58,2.34-3.38,2.66-7.9,3.49-11.89.87-4.16,1.48-8.31,2-12.53,1.14-9.07,2-18.17,2.62-27.28.19-2.7-4.41-3.39-4.78-.65Z"/><path class="cls-5" d="M366.6,226.35c3.17-10.3,6.46-21.65,6.45-32.49,0-3.09-4-3.94-5.59-1.52-6.17,9.37-7.73,22.23-6.76,33.21.3,3.28,4.85,4.18,5.9.8Z"/><path class="cls-5" d="M355.79,323.85c.35-1.22,1-2.17,1.29-3.39.29-1.43,0-3.08.19-4.54.18-1.62.76-3.19.92-4.79a7.54,7.54,0,0,0-.73-3.66,2.08,2.08,0,0,0-3.44-.91c-2.82,2.67-2.68,5.63-2.25,9.36a21.61,21.61,0,0,0,.84,4.58c.56,1.62,1.67,2.22,2.87,3.43a.19.19,0,0,0,.31-.08Z"/><path class="cls-6" d="M375.49,152.53c1-8.29.79-16.71.63-25-.07-3.94-.17-7.89-.21-11.83,0-3.56.16-7.23-1.86-10.35-3.58-5.54-12.88-7.45-19.05-6.73-2.4.29-4.17,1.23-5.17,3.49-2,4.51-1.73,11-2.38,15.86-6.3,47.58-10.74,95.7-7.88,143.71a400,400,0,0,0,12.36,78.86c.61,2.33,4.25,1.34,3.61-1-11.21-40.9-14.42-83.42-13.29-125.7.57-21.07,2.18-42.11,4.39-63.07q1.62-15.48,3.64-30.93.48-3.73,1-7.47c.28-2.14.24-6.2,1.15-8.27,1.94-4.4,10-2.23,13.61-1,6.37,2.18,7,7.13,7.08,13.13.07,4,.22,8,.33,12,.22,8.08.71,16.28.09,24.35-.1,1.28,1.82,1.23,2,0Z"/><path class="cls-6" d="M358.59,329.83c5.63-27.64,9.16-55.81,12.06-83.86q2.13-20.64,3.49-41.34c.47-7.12.95-14.24,1.12-21.37.18-7.58.94-15.64,0-23.17-.23-1.82-3.23-2.72-3.6-.48-1.17,7.1-.88,14.57-1.27,21.76-.38,6.83-.59,13.67-.93,20.51q-1.05,21.18-3,42.31c-2.62,28.54-7,56.86-10.09,85.34-.14,1.26,2,1.53,2.21.3Z"/><path class="cls-6" d="M366.09,123c2.47-1.82-.77-4.6-3-3.51-2.57,1.23-2.22,5.43-2.3,7.67-.23,6.07-.56,12.12-1.11,18.16a316.1,316.1,0,0,1-5.53,36.59c-2.33,11.07-3.79,21.34-.61,32.41a1.47,1.47,0,0,0,2.65.35c9.15-14.13,9.39-31.07,10.66-47.3.73-9.33,2.7-18.17,4.45-27.32,1.46-7.6,1.86-15-1.6-22.11-1.06-2.17-4.32-.27-3.24,1.89,4.12,8.29,1.85,17.35,0,25.94a155.35,155.35,0,0,0-2.95,21.6c-1.09,15.72-1.11,32.09-9.84,45.84l2.64.34c-4.75-16,1-32,3.15-48q1.47-10.58,2.2-21.22c.24-3.5.42-7,.55-10.51.06-1.91.11-3.83.14-5.74,0-1,0-1.91,0-2.87q-.45-2.79,3.41-2.57c-.09.18.12.47.32.32Z"/><path class="cls-6" d="M359.83,97.47a59.23,59.23,0,0,0,2.85-10.86c.28-1.35.18-3.68,1.14-4.78,1.31-1.49,3.16.07,3.76,1.74,2.16,6-4.83,11.94-1.36,18a1.84,1.84,0,0,0,3.4-.93A33.46,33.46,0,0,1,371,91.75a23.53,23.53,0,0,0,1.37-7.46,8.24,8.24,0,0,0-6-8,6.27,6.27,0,0,0-7.62,3.58c-.91,2.09-1.05,4.61-1.34,6.85A56.72,56.72,0,0,0,356.42,97a1.74,1.74,0,0,0,3.41.46Z"/><path class="cls-6" d="M341.61,235.66a27.08,27.08,0,0,1,15.48-2.11c4.68.73,8.22,3.23,12.55,4.76,1.77.63,2.69-1.69,1.68-2.9-7.07-8.41-22.5-6.66-31-2-1.51.83-.18,3,1.33,2.27Z"/><path class="cls-6" d="M344.53,298.27c5.11-2.21,8.84.84,13.05,3.32,2.2,1.29,3.85-1.87,1.94-3.32-4.39-3.36-11.8-6.4-16.36-1.77-1,1,.25,2.25,1.37,1.77Z"/><g class="cls-7"><path class="cls-8" d="M5.69,17.94C19.43,28.39,23.4,46,26.5,62.26c5,26,10,52.28,8.17,78.63C33.9,152,31.93,163,30.36,174.08A465.08,465.08,0,0,0,52.08,392.87a8.25,8.25,0,0,0,2.52,4.18c2.1,1.56,5.13,1.12,7.77.62,57.26-10.9,116.28-9.91,174.72-8.88,19.49.34,39.06.69,58.28,3.66C272,351.07,254.39,232.64,260,214.66c20-64,29-129.93,17-196.74,0,0-66,0-110-1.86-58.21-2.45-89.86-1-147.06,9.31"/><path class="cls-8" d="M2.5,21.13c6,6,9.22,13.45,11.08,21.65,1.93,8.47,3.25,17.17,4.8,25.73,3.75,20.74,7.19,41.59,6.87,62.74-.33,21.84-5.48,43.34-7.6,65a460.6,460.6,0,0,0-1.87,61.37A472,472,0,0,0,37.23,382.4c2.89,9.15,5.05,22.46,15.62,25.7,4.77,1.47,9.5.52,14.29-.35,5.66-1,11.35-2,17-2.83a581,581,0,0,1,63.18-5.38c24.12-.91,48.25-.78,72.38-.44s48.82-.11,72.84,3.45c8.72,1.3,16.68-6.76,11.84-15.4-.94-1.67-1.84-3.37-2.67-5.1-.38-.79-.75-1.59-1.12-2.39-.28-.62-1.53-3.51-.77-1.71-1.83-4.34-3.44-8.78-5-13.24-3.47-10.25-6.35-20.7-8.92-31.21a646.31,646.31,0,0,1-12.48-66.21c-1.92-14.4-4.09-31.89-3.1-47.56,0-.48.16-1,.14-1.46s-.85,3-.11,1.08c.66-1.69,1-3.63,1.57-5.36q4-12.77,7.32-25.71a473.52,473.52,0,0,0,10.49-51.95c5.79-40.61,6.35-81.34-.15-121.9-.9-5.68-7.35-9.56-12.66-9.64-24.25-.4-48.52-1.17-72.76-2.12C165.5,1.14,126.56-1.49,87.82,1.08c-24.16,1.6-48.17,5.15-72,9.31C7.79,11.79,2.55,22.05,5,29.5c2.78,8.57,10.53,12.43,19.11,10.85,10.89-2,21.81-3.91,32.78-5.5l4.08-.58c-.7.1-2.44.31.73-.1q3.15-.41,6.3-.78,7.65-.9,15.33-1.57a561.79,561.79,0,0,1,57.15-1.71c19.29.3,38.57,1.41,57.86,1.56,17,.13,33.93-.05,50.89-.24q13.9-.15,27.81-.38l-12.66-9.64a342.68,342.68,0,0,1,3.6,104.35,435.59,435.59,0,0,1-9.22,50.93q-3.2,13.44-7.09,26.72c-1.42,4.87-2.94,9.37-3.5,14.41-1.67,15.07.86,31,2.84,45.9a670.18,670.18,0,0,0,12.71,68.88c5.33,22.14,11.5,45.11,22.63,65.14l11.84-15.4c-21.84-3.31-43.82-3.8-65.87-4.22-21.24-.4-42.47-.76-63.71-.5-21.49.26-43,1.16-64.39,3.28q-16.26,1.61-32.39,4.17-3.8.6-7.58,1.28c-1.37.25-4.44.38-5.24.94l-.69,0q3.16.29,4.15,2.53c-.1.72-.73-2.12-.86-2.51-.92-2.66-1.81-5.32-2.68-8a460.53,460.53,0,0,1-21-183c1.83-21.06,6.59-41.94,6.92-63.11.37-24.06-4.38-48-9.1-71.45C32,43.16,24.9,24.45,8,14c-4.4-2.7-9.07,3.47-5.47,7.09Z"/></g><g class="cls-9"><path class="cls-8" d="M257,50.93a16.75,16.75,0,0,0,1-6.07l-7.2,7.19c1.88-.21,2.08-.18,3.37,1.21L251.71,44c1.07-2.77.33-1.15-.46.82-.35.85-2,8.56-1.13,4.75.52-2.35.11-.38,0,0,1.55-4.26,1.52-3.26.7-2,.68-1,5.14-6.59.75-.9-3.92,5.07-5,10.54-4.8,16.72.12,3.12.41,6.24.4,9.37,0,1.59-.19,3.16-.23,4.75-.06,2.85.49-3.89.51-3.4a14.23,14.23,0,0,1-.6,3.29c-.66,3-1.46,6.12-2.34,9.09A17.43,17.43,0,0,1,243,90.88c.06-.09,3-6.12.95-2.52-.43.77-.82,1.57-1.27,2.34s-3.81,5.4-1,1.84-.77.74-1.52,1.51-1.33,1.23-2,1.87c-1.43,1.46-3,1.2,1.88-1.34-1.82.94-3.46,2.31-5.28,3.29-.7.37-1.45.69-2.14,1.07-2.85,1.57,4.67-1.47,1.51-.68-1.82.46-3.59,1.13-5.41,1.57s-3.74.71-5.59,1.14c-2.72.62,2.56-.29,2.52-.29-1.36.06-2.76.32-4.13.44-8.07.74-16.19.75-24.29.95-9.44.24-18.86.85-28.24,1.9-5.92.66-12.1,1.06-17.91,2.35s-11,5.07-16.28,7.66c-1.07.53-2.12,1.12-3.22,1.6-2.81,1.24,4.08-1.2-1.41.29-2.43.66-4.83,1.54-7.22,2.35-4.76,1.62-9.43,3.46-14.27,4.86s-9.58,2.77-14.48,3.69c-4,.75-1.48.11-.86.08-1.53.06-3,0-4.57-.06-.9-.05-1.85-.07-2.74-.21,3.44.56-2.21-.75-2.33-.78l8.21,31.08c1.93-2.41,3.78-4.88,5.58-7.39.61-.84,4.08-5.34,1.66-2.29,2.83-3.56,5.75-7,8.81-10.41a43.44,43.44,0,0,1,4.33-4.25c.86-.73,5.38-4.13,2.3-1.87,3.46-2.54,6.91-5.06,10.5-7.42,7.06-4.67,14.48-8.61,21.87-12.71,3.62-2,7.27-4,11-5.76,1.87-.91,3.74-1.79,5.63-2.65l2.85-1.26c4.91-2.19-4.47,1.72.53-.21a246.59,246.59,0,0,1,49.71-13.53c1-.17,2.08-.32,3.12-.48,3.52-.55-1.17-.35-1.49.19.38-.62,5.37-.6,6.25-.68,4.24-.4,8.48-.38,12.7-.67,2.53-.17-3.84-.75-4.71-1.07l-1.68-.72q-14.61-13-6.18-24.31l2.11-3.68c-1.35,1.28-1.25,1.27.33,0,3.08-2,.1-.38-.63.15-2.44,1.75,4.48-1.34,1.66-.63-1.18.3-2.33.76-3.49,1.12-2.85.89-5.7,1.63-8.6,2.3-24.44,5.65-48.82,11.48-73.22,17.28C127.4,79.56,116.75,98,121.67,113.18c2.37,7.34,6.91,14.41,13.93,18.12,6.69,3.53,16,6.1,23.35,3l36.83-15.29q8.28-3.45,16.57-6.87l6.14-2.59-1.54.64c1.53-.66,3.06-1.3,4.59-1.94,3.07-1.3,6.12-2.62,9.19-3.88,6.49-2.67,13.46-4.34,19.59-7.83,8-4.55,15.12-12,17.59-21a29.12,29.12,0,0,0-7.68-28c-6.43-6.53-16-9.08-25-8.87-21.62.51-43.86,5.59-64.07,13.12-21.55,8-41.66,18.36-59.66,32.72a222.45,222.45,0,0,0-24.33,22.92c-8.3,8.94-17.45,16.78-24.5,26.88-3.72,5.34-3.15,13.39,0,18.78,3.6,6.14,9.33,8.45,16.06,9.21,11.13,1.25,23-1.31,33.81-4,4.87-1.22,9.64-2.58,14.59-3.45,2.51-.43,5-.84,7.53-1.22q1.89-.28,3.78-.54c-2.76.37.2,0,1.44,0,2.48,0,5,.41,7.45.55,3.35.2-3.62-1-.62,0a29.34,29.34,0,0,0,5.79,1.05,27.21,27.21,0,0,0,8.45-.06c-1.26.17,8.79-1.23,3.76-.52-3.56.5.54-.06,1.42-.16,1.57-.19,3.15-.37,4.73-.54,10.42-1.09,20.87-1.58,31.34-1.8,21.15-.44,43.36-1.7,62-12.81a68.76,68.76,0,0,0,33.1-53.89,66.27,66.27,0,0,0-6.86-34.72c-5-9.71-23.83-19.09-34.43-11.82l7.31-1a18.44,18.44,0,0,0-16.23,1.24c-4.35,2.61-5,10,0,12.43a20.2,20.2,0,0,0,7.32,1.8A2.66,2.66,0,0,0,257,50.93Z"/></g><g class="cls-9"><path class="cls-8" d="M59.78,252.26a20.35,20.35,0,0,0,7.33-1.8c5-2.43,4.35-9.83,0-12.43a18.38,18.38,0,0,0-16.23-1.24l7.31,1c-7.95-5.45-24-.8-30.21,5.94-8.34,9.09-10.69,22.63-11.17,34.55C15.9,301,27.52,321.66,45.44,335c17,12.67,39.35,15.19,59.86,15.79,9.86.3,19.71.4,29.54,1.18,5.07.39,10.1,1,15.15,1.54l.94.12q-4.71-.65-1.89-.24c0,.22,6.33,1,8.48,1.05a38.31,38.31,0,0,0,8.32-1.06l2.52-.6-2.4.29c2.35-1,6.76-.61,9.32-.65.54,0,3.78.47.51,0,1.58.2,3.15.44,4.72.68a165.85,165.85,0,0,1,17.55,3.58c11.88,3.16,25.11,6.34,37.44,5,6.73-.76,12.46-3.07,16.06-9.21,3.15-5.39,3.72-13.45,0-18.78-6.43-9.2-14.5-16.83-22.42-24.68-6.86-6.8-13.19-13.95-20.55-20.28-17.57-15.1-36.89-25.91-58.24-34.71a223,223,0,0,0-63.77-15.38c-6-.6-11.72-.81-17.74.42a29.71,29.71,0,0,0-22.43,20.69c-5.55,19.95,10.86,34.61,27.79,40.65,6.9,2.46,13.61,5.17,20.36,8,1.22.51,2.44,1.1,3.68,1.55-7.17-2.6,3,1.26,5.52,2.32l11,4.58,40.51,16.83c6.74,2.8,17.37.45,23.35-3.06C185,327,191,319.79,192.6,312.57c3.54-15.55-4.67-33.37-21.17-37.29-21.51-5.1-43-10.28-64.54-15.26-5.13-1.19-10.34-2.21-15.39-3.72-1.26-.38-2.52-.78-3.78-1.19-1-.32-4.24-.63-.77-.15,3,.43.85.11-.44-.49-2.52-1.17,3.59,3.5,1,.63l4.22,7.35-8.29,20.64c-1.12.74-5.33,2.38-7,1.83,1.41.45,4-.05,5.5,0,4.68.25,9.44,1.2,14.11,1.27-.54,0-5.61-.85-1.49-.2l3.11.48q3.1.51,6.2,1.1c4.37.82,8.74,1.69,13.07,2.73a218.62,218.62,0,0,1,24.65,7.47c1.94.72,3.87,1.48,5.8,2.24,1.07.42,3.89,1.31-.9-.41,1,.34,1.93.83,2.86,1.24q6,2.69,11.9,5.73c7.5,3.9,15,7.93,22.22,12.34q6.15,3.78,12,8c.82.58,1.63,1.17,2.44,1.77,1.31,1,2.52,1.92.53.36a66.73,66.73,0,0,1,5.85,4.89,123.36,123.36,0,0,1,9,10.27c.64.79,1.26,1.58,1.89,2.37-2.64-3.29.46.66.77,1.08,2.13,2.9,4.22,5.79,6.47,8.6l8.2-31.09c-1.18.32-2.37.58-3.55.88.35-.09,2.52-.17.32,0s-4.26.24-6.4.19c2.4.06-.35,0-.86-.09-.92-.17-1.82-.37-2.73-.57-2.74-.61-5.46-1.32-8.16-2.08-4.23-1.19-8.35-2.53-12.49-4s-9.14-4.06-13.49-4.51c-1.84-.19-.42.14.29.39a31.19,31.19,0,0,1-3.22-1.61c-1.87-.92-3.78-1.76-5.6-2.77-3.17-1.76-6.16-3.65-9.66-4.78-3.84-1.24-8.23-1.4-12.18-1.93-9.44-1.24-18.92-2.13-28.43-2.56-8.32-.39-16.65-.33-25-.75-2-.1-3.91-.22-5.86-.39-1.18-.1-7.25-.7-3.29-.3,4.18.42-2.13-.47-3.15-.7-2.11-.46-4.15-1.1-6.23-1.67-4.51-1.24,1.56.36,1.47.76,0,0-3.09-1.54-2.86-1.41-1.42-.77-2.75-1.66-4.13-2.49-3.41-2.07,1.53,1,1.77,1.43a14.3,14.3,0,0,0-2-1.81c-1.26-1.21-2.31-2.94-3.66-4,0,0,3,4.62,2,2.49-.38-.78-1-1.49-1.45-2.24-.64-1.06-2.18-2.9-2.2-4.12,0,0,2.4,6.47,1.06,2.49-.21-.63-.44-1.26-.65-1.89-.55-1.71-.94-3.45-1.38-5.18-.5-1.95-1.09-3.87-1.49-5.85-.13-.65-.22-1.32-.36-2-.58-2.8.55,7,.35,2.05-.15-3.66,0-7.14.23-10.79.09-1.72.19-3.53.2-5.26a24.36,24.36,0,0,0-3.18-11.75l-3.64-4.71,2.57,3.25c-1.47-2.28.66,1.94.7,2-1.13-3.23.66,4.94-.13-1-.16-1.19-3.33-9.35-1.5-4.61l-2.44,9.24c1.28-1.39,1.48-1.43,3.37-1.21l-7.2-7.2a16.77,16.77,0,0,0,1,6.08,2.68,2.68,0,0,0,2.54,1.94Z"/></g><g class="cls-10"><path class="cls-8" d="M49.75,37.67c31.48-5.12,63.92-6.7,95.77-6.82a739.63,739.63,0,0,1,94,5.65c.46,0,.45-.67,0-.73a712,712,0,0,0-94.93-5.44c-31.85.34-63.22,3.52-94.81,7.24a.05.05,0,1,0,0,.1Z"/></g><g class="cls-10"><path class="cls-8" d="M58.75,61.15c16.14-1.11,32.16-3.19,48.33-4,15.85-.79,31.73-1.12,47.59-.86a670.33,670.33,0,0,1,97.38,8.8c.74.12,1.06-1,.32-1.13a659,659,0,0,0-96.73-9.18c-16.19-.33-32.39-.1-48.56.84s-32.56,1.87-48.42,4.83a.36.36,0,0,0,.09.71Z"/></g><g class="cls-10"><path class="cls-8" d="M49.55,99.26a670.39,670.39,0,0,1,103.71-9.72c34.93-.39,69.31,2.88,103.86,7.7.56.07.82-.77.24-.88-34.13-6.26-69.45-8.27-104.1-7.91A560,560,0,0,0,49.45,98.91c-.23,0-.13.39.1.35Z"/></g><g class="cls-10"><path class="cls-8" d="M56.52,131.56c33.38-5.15,67.2-4.62,100.87-4.17q51.24.67,102.5,1.09a.68.68,0,0,0,0-1.36q-52.24-.83-104.49-1.52c-33.17-.4-66.45-.73-99.31,4.4-1,.16-.6,1.72.43,1.56Z"/></g><g class="cls-10"><path class="cls-8" d="M56.05,161.93c32.07,2.52,63.86.88,95.9-1.05s64.45-2.94,96.47-6c.68-.06.71-1.1,0-1.08-64.11,1.54-128.17,11.1-192.37,6.93-.76,0-.75,1.11,0,1.17Z"/></g><g class="cls-10"><path class="cls-8" d="M54.79,188.36q48.54.93,97.08,1.37c31.59.26,62.88-1.69,94-7.45.52-.09.3-.88-.21-.78-31.7,5.87-63.54,7.7-95.73,7.4-31.71-.29-63.41-.7-95.12-.81a.14.14,0,0,0,0,.27Z"/></g><g class="cls-10"><path class="cls-8" d="M52.31,216.6c30.31,4,61.12,1.47,91.56.31l45.54-1.73,23.76-.9c7.86-.3,16-.07,23.76-1.08a.59.59,0,0,0,0-1.17c-7.85-.42-15.9.42-23.76.72l-22.77.86-46.53,1.77c-30.4,1.15-61.23,3.61-91.56.32-.58-.06-.57.83,0,.9Z"/></g><g class="cls-10"><path class="cls-8" d="M45.84,250.21l93.69-5.78c15.06-.93,30.14-2.12,45.23-2.34a202.79,202.79,0,0,1,46.54,4.72.5.5,0,0,0,.27-1c-28.52-9.14-60.77-4.72-90.06-2.86l-95.67,6c-.75,0-.76,1.22,0,1.17Z"/></g><g class="cls-10"><path class="cls-8" d="M48.55,293.29q47.43-6.19,95.28-7.83,23.65-.79,47.34-.5c16.08.19,32.23,1.72,48.29,1.62a.54.54,0,0,0,0-1.08c-15.51-2.05-31.67-1.85-47.3-2.14q-24.16-.44-48.33.4Q96,285.4,48.55,291.66c-1,.13-1,1.76,0,1.63Z"/></g><g class="cls-10"><path class="cls-8" d="M43,315.88c13.59,4.9,27.94,3.25,41.92,1.17a467.49,467.49,0,0,1,52-5.16A405.39,405.39,0,0,1,187,313.23c15.89,1.41,31.84,3.69,47.65.31.62-.13.36-1.09-.27-1-16,3.41-32.22.94-48.34-.46a405.66,405.66,0,0,0-49.18-1.28,412.42,412.42,0,0,0-46.15,4.25c-15.76,2.35-32.06,5.32-47.49-.26-.66-.24-.94.8-.29,1Z"/></g><g class="cls-10"><path class="cls-8" d="M51,345.86c63.52-11.8,127.83-15.75,192.26-10.49.52,0,.52-.77,0-.81-64.09-5.15-129.36-2-192.45,10.6-.46.1-.26.79.19.7Z"/></g><g class="cls-10"><path class="cls-8" d="M74.06,364.6l.17-.45a.42.42,0,0,0-.19-.48c-1.59-.88-3.4.39-2,2,.82.92,2.47.71,3.53.67,4.47-.18,9.12-1.22,13.55-1.83,19.12-2.66,38.14-5.95,57.28-8.47,37.92-5,76.51-7.48,114.33-.38,1,.18,1.38-1.3.41-1.48-30.91-5.82-62.44-5.36-93.63-2.21-15.48,1.56-30.89,3.73-46.27,6.06q-11.49,1.73-23,3.53c-3.82.59-7.62,1.22-11.44,1.84-1.09.18-14,2.27-13.58,1-.16.51.6.69.79.22Z"/></g><path class="cls-6" d="M21,414.21C94,397.59,168.5,390.26,243.23,394.61q15.16.88,30.31,2.39,8,.79,16,1.78c2.76.33,5.52.69,8.28,1.06,1.64.22,6,0,7.14,1,1,.88,2.88,0,2.37-1.38-18.66-51.79-38-105.57-37.38-161.37.29-28,7.59-53.81,15.5-80.39,7.51-25.25,11.86-50.66,10.7-77.08-1.07-24.26-6.49-47.82-11.38-71.52A1.53,1.53,0,0,0,283.33,8c-8.42.9-17.54-.45-26-.77L227.88,6.12c-19.8-.74-39.6-1.54-59.41-2.18C129.31,2.69,90,2.28,51,6.09c-10.64,1-21.26,2.4-31.82,4.13-2.53.42-5.05.85-7.57,1.31-2.22.4-6.62.43-8.5,1.64-1.3.83-2,2.3-2.87,3.59a1.53,1.53,0,0,0,0,1.57c26.5,42.33,27.33,93.5,23.07,141.7-2.35,26.61-6,53.1-7.19,79.81a412.75,412.75,0,0,0,4.33,77.34c4.26,29.35,10.93,58.34,18.72,86.95a1.46,1.46,0,0,0,2.81-.78C30.48,358.61,20.37,313.3,19,266.94c-1.35-45.57,7.77-90.46,9.26-135.9.65-19.79-.3-39.73-4.11-59.2a174.47,174.47,0,0,0-8.09-28.65q-2.5-6.57-5.59-12.9c-1-2.06-2.06-4.09-3.16-6.1-.56-1-1.12-2-1.7-3,.12.21-2.6-3.77-2.56-3.07-.18-3.3,7.62-3.27,9.37-3.58q8.5-1.56,17.06-2.76c11.58-1.65,23.23-2.86,34.9-3.72C87.12,6.38,109.93,6,132.72,6.25c25.52.28,51,1.33,76.52,2.29L248.49,10l18.65.69c5.29.2,10.92,1,16.19.39L281.84,10c4.5,21.77,9.56,43.41,11,65.66,1.78,26.86-1.94,52.9-9.47,78.65-7.49,25.59-15.13,50.49-16.18,77.34s2.83,53.4,9,79.33c7.29,30.41,17.79,59.93,28.39,89.31l2.37-1.38c-1.79-1.62-5.39-1.37-7.64-1.67q-6.78-.91-13.57-1.7-14.15-1.65-28.36-2.73-28.92-2.23-57.93-2.13a745.8,745.8,0,0,0-113.84,9.14,620.27,620.27,0,0,0-64.79,13.9c-.34.09-.19.6.15.52Z"/><g class="cls-11"><path class="cls-6" d="M69,47.28c-3.52,2.47-7.11,9-.94,10.79,6,1.72,11.29-4.51,11.33-10a.43.43,0,0,0-.8-.22c-1.55,2.22-1.11,5.25,1.64,6.25a4.57,4.57,0,0,0,4-.54,4.14,4.14,0,0,0,1-.87,4.77,4.77,0,0,0,.57-1c-.18-1.51.4-1.89,1.74-1.15-.22.33.14.68.47.62a10.11,10.11,0,0,0,3.85-1.62C92.59,49,93,48,94.1,48.08c2.7.17,3.81,10.19,2.92,12-.45.88-2.08,2-1.16-.1A9.4,9.4,0,0,1,98,57.59c1.44-1.4,3-2.63,4.52-4a15.67,15.67,0,0,0,5-7.36c.16-.53-.54-.75-.84-.35-4,5.35,5.25,7.29,4.49,2.08-.08-.53-.88-.37-.91.13-.14,2.55,2.42,2.81,4.33,1.93a9.23,9.23,0,0,0,1.9-1.32,19.05,19.05,0,0,1,7-.65,9.28,9.28,0,0,0,2.73-.32,5.92,5.92,0,0,0,3.4-3.06.52.52,0,0,0-.59-.76,3.76,3.76,0,0,0-2.1,5.66c2,3.37,6.61,2.28,9.51.94.63-.29.08-1.23-.55-.93-5.29,2.45-9.77-4.74-14.55-2.47-.38.18-.77.22-1.08.65-.67.92-.56,1.24-.06,2.14a.42.42,0,0,0,.77-.21,2.09,2.09,0,0,0-2-2.44,3.94,3.94,0,0,0-1.41.09,10.45,10.45,0,0,0-1.41.73q-4.23,3.48-10.25.13c-1.41,1.06-2.5,3.45-3.91,4.78s-2.72,2.32-4,3.54S94,59.89,93.54,61.9,95,67,97.16,64.72c1.16-1.22.86-4.17.85-5.52a35.1,35.1,0,0,0-2.3-11.86.35.35,0,0,0-.42-.24l-1.89-.21a.39.39,0,0,0-.53.14q-2.13,4.86-4,2.92a5,5,0,0,0,.35-1.21s0-.27,0-.33c-1-.83,0-1.4-1.83-1.28-1.2.08-1.16,1-1.88,1.53q-.43,4.71-7.26,2L77.2,53A9.72,9.72,0,0,1,72,57.09q-10.52-4.74-2.66-9.2c.36-.26,0-.87-.36-.61Z"/></g><g class="cls-11"><path class="cls-6" d="M68,92a16.82,16.82,0,0,0,7.43-11.77c.05-.33-.34-.66-.62-.36-2.11,2.27-6.08,8.89-1.38,10.76,4.26,1.69,7.81-3.17,7.63-6.85a.44.44,0,0,0-.74-.31,1.62,1.62,0,0,0,.23,2.66c1.19.78,3.5-1.18,3.27-1.34-.08-.06.32,6.63.23,7.31l.14,1.7L82,93.21c-.14-.36,1.35-2.14,1.61-2.51,1.8-2.6,3.64-4.64,3.1-7.91a.45.45,0,0,0-.75-.2c-2.63,3.37,1.14,7.2,4.5,4.4.71-.59,1-2,1.65-2.44,1.89-1.29,5.27,1.35,7.83.1s2.65-4.2,2.64-6.61a.54.54,0,0,0-1.07,0c0,2.3-.06,4.59-.09,6.89a.55.55,0,0,0,.93.38,6,6,0,0,0,1.56-1.5c.58-1.16,1.54-1.36,2.89-.6a.56.56,0,0,0,.3,1.07c.88-.22,7.62-1.78,7.68-3.28a.6.6,0,0,0,.3.53,8.53,8.53,0,0,0,2.36.23c3,2.2,1.15,9.06.06,11.86l1.3.36c.61-2.71,1.27-6.76,3-9,1.31-1.7,3.26-1.58,4.76-2.9a3.61,3.61,0,0,0,.37-5.5c-.33-.38-1.12-.09-1,.43.32,2.53.64,5,1,7.58a.72.72,0,0,0,.51.66,3.23,3.23,0,0,0,2.42-.11c.37-.15.66-.48,1-.65a2.4,2.4,0,0,0,.58-.61,3,3,0,0,1,3-1.22c-.86.42-.11,1.66.75,1.27,3.65-1.65,10.55.2,11.19-5.34.09-.7-.94-.88-1.26-.34A3.74,3.74,0,0,0,148.37,84a5.33,5.33,0,0,0,2.31-.9c2.86-1.55,2.33-2.27,6.6-2.21,4.06.06,8.12-.18,12.2-.43.86,0,.86-1.41,0-1.35-2.6.18-5.2.41-7.79.54-2.24.1-4.1-.57-6.2-.64a4.52,4.52,0,0,0-2.27.58,9,9,0,0,0-1.44,1l-.92.71q-2.37,2.46-4.7-2.35l-1.26-.34c-.46,4-7.77,2.71-10.59,4.07l.75,1.27c1.41-.74,1.87-2.41.27-3.4-1.17-.73-2.36.11-3.38.57-1.79.8-.35,1.38-2.63,1.31q-2.31.9-1.73-1.78L127,76.84l-1,.6q-.45,4.95-4.21,5.19l-.15.06a17.73,17.73,0,0,0-1.33,2.38,38.41,38.41,0,0,0-2.87,8.55.67.67,0,0,0,1.3.36,17.26,17.26,0,0,0-.34-13.63.61.61,0,0,0-.84-.22l-1.61.08a.61.61,0,0,0-.9-.52,30,30,0,0,1-8.31,3.52l.3,1.07a1.72,1.72,0,0,0,.31-3.23c-.86-.48-2,0-2.7.43-.26.15-2.13,2.42-2.29,2.38s.15-5.36.16-5.82h-1.07c.38,2.71-1.08,4.72-4.36,6l-1.3,0c-.31.2-.76.14-1.08.45-.76.73-.69.88-.54,1.82a.46.46,0,0,0,.55.31c2.54-.6,4.36-3.94.93-5.1-1.45-.5-2.55.21-3.49,1.22a13.5,13.5,0,0,0-1.12,1.86c-3.2-.19-5.37.87-6.49,3.19a27,27,0,0,0-2.46,3.45c-1,1.57-3.5,7,.32,7.12,5.16.21,2-12.32,1.81-14.76a.43.43,0,0,0-.84-.12l-3.75,3.59-7.1-1.91c-.13-.41,2-4.94,1.25-1.08-.59,3-3.65,5.84-6,7.55-.24.18,0,.59.24.41Z"/></g><g class="cls-11"><path class="cls-6" d="M70.66,119.41A5,5,0,0,0,74.74,116c.14-.35-.43-.58-.61-.25-3.08,5.48.61,9.56,0,15.16q.91,3.8-2.35-1a12.33,12.33,0,0,1,1-2.49c.64-1.47,1.43-2.86,2.12-4.31a18.23,18.23,0,0,0,1.82-6,.44.44,0,0,0-.74-.31c-2.55,2.91-.76,7.55,3.53,6.68,2.11-.42,2.28-1.73,3.5-3.21,2.17-2.63,6.7-1.49,8.13-5.15.18-.48-.51-.81-.84-.48a2.63,2.63,0,0,0-.09,4c2,2,3.78-.26,5.79-.09,3,.26,4.63,7.38,3.82,9.73A1.39,1.39,0,0,1,98.66,130c-1.33,1-1.4.64-.18-1.18a15.27,15.27,0,0,1,1.58-2.26c1.73-2.38,3.34-4.33,2.87-7.37a.57.57,0,0,0-1-.14c-.56,1.1-.55,1.94.58,2.66,2.12,1.37,8.42-4.45,9.43-.36a.54.54,0,0,0,1,0c.32-.88,7.57.85,9.19.32A5.89,5.89,0,0,0,126.2,117c.11-.49-.56-1-.94-.55-1.36,1.75-.07,3.42,2,3.68,1.78.21,3.74-1.43,5.54-1.47s3.51.84,5.16,1.23c2,.46,3.29.6,5.07-.55a.55.55,0,0,0-.55-1c-3.14,1.56-6-.55-9-.79a8.77,8.77,0,0,0-2.11.05c-.13,0-7.19,2-5.33-.39l-1-.55c-.92,4.42-5,4-8.2,3.17-.6-.16-1.12-.66-1.76-.73s-2.21.72-2.64.65.36.17.12.11-1.44-1.51-1.95-1.71c-3.65-1.44-8.7,4-10.28,6-1.9,2.46-4.07,4.94-3.91,8.2,0,.27.24.59.55.55,7.93-.94,2.64-13.08-.74-16.14a.53.53,0,0,0-.74,0c1-.92-13-.94-11,4a1.79,1.79,0,0,0,2.9.73c3.1-2.37-1.56-6.41-4.47-3.16-.49.55-.68,2-1.22,2.37l-6.4-1.17a21.41,21.41,0,0,1-1.26,3.06c-.9,1.91-2.05,3.72-2.76,5.72-.64,1.77-1.85,5.89.6,7.08,1.52.74,2.67-.29,3.15-1.7s0-3.23-.28-4.57c-.44-2.53-.7-11.23-4.31-10.29a.27.27,0,0,0,.14.53Z"/></g><g class="cls-11"><path class="cls-6" d="M73.62,159.34a10.71,10.71,0,0,0,2.5-9.67c-.1-.52-.93-.4-.92.12.07,2.79-.14,8.42,4.07,8s3.78-5.13,3.15-8c-.1-.44-.86-.47-.93,0-.78,4.91,1,8.36,5.91,6.63,1.65-.58.87-.69,3.15-1,1.78-.22,2.08,0,3.51-.9a3.74,3.74,0,0,0,2-2.18,2.26,2.26,0,0,0-1.32-2.74.47.47,0,0,0-.69.4,28.19,28.19,0,0,0,1.06,9.75.47.47,0,0,0,.68.28c.42-.31,1.25-1.26,1.63-1.5q1.11-2.27,4-.49l3.12-2.14,3.11-2.13c1.34-.3,1.86-1,1.57-2.18a18.17,18.17,0,0,0-1,1.71c-1.09,2.55-.11,4.74.11,7.3a4.08,4.08,0,0,1-.63,4.36l2-3.38,4.09-6.75a.51.51,0,0,0-.8-.62,1.53,1.53,0,0,0,.4,2.6,2.24,2.24,0,0,0,1.28.17c1.12-.16,3.21-3.8,3.3,0,0,.57.94.75,1,.14q4.52-3.95,7.09-1.05a2.9,2.9,0,0,0,.51.48c.36.08.74.42,1.14.52a3.85,3.85,0,0,0,2.5-.27c2.1-1.1,1.95-3.23.86-5a.61.61,0,0,0-.94-.12,1.78,1.78,0,0,0-.35,2.75c1.84,2.2,5.49-.89,7.67.17a.58.58,0,0,0,.77-.21c1.49-2.22,6.71-1,8.93-3.23a6.27,6.27,0,0,0,1.6-6.21c-.14-.61-.95-.41-1,.13a15.79,15.79,0,0,0,1.14,8.18.65.65,0,0,0,1.16.15c1.87-2.63,3.48.64,5,.69a7.1,7.1,0,0,0,2-.28c2.25-.52,2.72-.34,5.46-.48,2.08-.11,4.29-.32,3.57-3l-1.19.69a5.59,5.59,0,0,0,4.18,1.48,10.15,10.15,0,0,0,1.92-.45c2.62.8.28,5.79-.5,7.26-.46.88.86,1.65,1.33.78,1.35-2.47,2.63-5,3.89-7.51.41-.82-.8-1.55-1.25-.72-1.35,2.46-2.7,4.94-4,7.45l1.33.78a11.59,11.59,0,0,0,.45-9.32.57.57,0,0,0-.81-.33l-5.56-.42a.72.72,0,0,0-1.19.69c.17.58-6,1.28-6.71,1.37a7.56,7.56,0,0,1-4-.61c-.24-.1-.54-.92-1-1-1.34-.23-1.15.06-2.4.27-.23,0-.92,1.1-1,1.05-1.39-.56-.88-5.65-.76-6.74l-1,.14-1.37,5.18L142.24,152c-.72.16-1.51,0-2.24.14s-1.38.63-2.11.8c-2.3.55-12.48,1.41-11.48,1.87-1.77-.82-2.21-2.37-4.61-2.08a4.42,4.42,0,0,0-3.85,4.1l1,.14c-.06-1.89-.52-2.56-2.19-3.44a.51.51,0,0,0-.7.18c-.87,2-2.74,1-4.25,2.28-1,.82-1.86,3.08-2.55,4.23-.94,1.54-2.74,3.54-3.13,5.32-.23,1.06-.35,2.24.86,2.78,1.91.86,2.55-1.35,2.79-2.76.84-4.78-3.78-10.1,1-14,.44-.36-.14-1.13-.62-.8l-10.88,7.52a.49.49,0,0,0,.25.91c3.92.13,3.17-5-.16-4-.78.21-1.08.86-1.66,1.3-1.73,1.29-1.59,2.22-2.59-.09-.11-.27-.26-4.7-.35-4.72.79.18-4.49,4-4.85,4.79a2.33,2.33,0,0,0-.22,2c1.21,3.57,7.24,1,5-2.84-1-1.83-3.43-2.12-5.27-1.54-.88.27-1.35,1-2.14,1.25l-.89.65q-3-4.84-7.23-2.45-4,2.61-3-2.11l-.62,1.3c-.84,2.25-.78,4.33-2.24,6.51-.11.16.15.37.28.21Z"/></g></g></g></svg>