<svg xmlns="http://www.w3.org/2000/svg" viewBox="0 0 72.02 58.2"><defs><style>.cls-1,.cls-3{fill:none;stroke:#09466e;stroke-miterlimit:10;}.cls-1{stroke-width:4.18px;}.cls-2{fill:#09466e;}.cls-3{stroke-linecap:round;stroke-width:3px;}</style></defs><title>account-details-iconAsset 131</title><g id="Layer_2" data-name="Layer 2"><g id="Cook_silhuette" data-name="Cook silhuette"><rect class="cls-1" x="2.09" y="2.09" width="67.84" height="54.03" rx="5.89"/><path class="cls-2" d="M10,45c0-2.12,3.65-3.91,8.66-4.49l.21,0,.22-2.15,0-.07A8.32,8.32,0,0,1,15,30.92a9,9,0,0,1,.78-3.71l.57-3.15a8.23,8.23,0,0,1-1.93.38,4.79,4.79,0,1,1,0-9.57,5,5,0,0,1,3.48,1.38l0,0a5.05,5.05,0,0,1,9-.57l0,0a5.07,5.07,0,0,1,2.89-.89,4.79,4.79,0,1,1,0,9.57,6.94,6.94,0,0,1-2-.45l.62,3.22a9,9,0,0,1,.78,3.71,8.3,8.3,0,0,1-4.06,7.35l-.08,0,.22,2.2h0l.22,0c5,.57,8.65,2.36,8.65,4.48Z"/><line class="cls-3" x1="43.93" y1="20.6" x2="59.93" y2="20.6"/><line class="cls-3" x1="43.93" y1="29.1" x2="59.93" y2="29.1"/><line class="cls-3" x1="43.93" y1="37.6" x2="59.93" y2="37.6"/></g></g></svg>