<svg xmlns="http://www.w3.org/2000/svg" viewBox="0 0 149.26 187"><defs><style>.cls-1{fill:#09466e;}</style></defs><title>cook-silhouetteAsset 100</title><g id="Layer_2" data-name="Layer 2"><g id="Cook_silhuette" data-name="Cook silhuette"><ellipse class="cls-1" cx="29.17" cy="38.02" rx="29.17" ry="28.1"/><ellipse class="cls-1" cx="77.2" cy="28.1" rx="29.17" ry="28.1"/><ellipse class="cls-1" cx="120.09" cy="38.02" rx="29.17" ry="28.1"/><polygon class="cls-1" points="40.52 63.92 37.74 82.66 111.51 82.66 108.45 63.48 99.5 38.02 49.91 38.02 40.52 63.92"/><ellipse class="cls-1" cx="74.63" cy="104.15" rx="42.03" ry="47.94"/><path class="cls-1" d="M3.39,187c0-15.16,31.87-27.45,71.19-27.45s71.2,12.29,71.2,27.45"/><polygon class="cls-1" points="58.14 134.67 54.29 172.42 77.4 182.71 75.47 134.67 58.14 134.67"/><polygon class="cls-1" points="91.11 135.53 94.97 173.28 71.86 183.57 73.78 135.53 91.11 135.53"/></g></g></svg>