<svg xmlns="http://www.w3.org/2000/svg" viewBox="0 0 74.39 75.05"><defs><style>.cls-1{fill:#09466e;stroke:#fff;stroke-width:1.8px;}.cls-1,.cls-2{stroke-linecap:round;stroke-linejoin:round;}.cls-2{fill:none;stroke:#09466e;stroke-width:2.4px;}</style></defs><title>wavinghandAsset 29</title><g id="Layer_2" data-name="Layer 2"><g id="Layer_30" data-name="Layer 30"><path class="cls-1" d="M26.89,59.2,16.81,23.8a5,5,0,0,1,3.45-6.19h0a4.59,4.59,0,0,1,5.67,3.16l6,21L23.59,12.63A4.71,4.71,0,0,1,26.83,6.8h0a4.87,4.87,0,0,1,6,3.35l8.27,29-9.25-32a4.85,4.85,0,0,1,3.34-6h0a4.76,4.76,0,0,1,5.87,3.27l9.28,32.13L42.31,8.38A4.76,4.76,0,0,1,45.59,2.5h0a4.82,4.82,0,0,1,6,3.32l9.34,32.6a.54.54,0,0,0,1.05,0L64,27.19c1.5-7.5,11.39-7.82,9.11,1.07,0,0-1.82,23-1.68,25.49.47,8.1-5.44,15.7-13.59,18l-5.56,1.58A20.58,20.58,0,0,1,26.89,59.2Z"/><path class="cls-2" d="M2,19.42A10.56,10.56,0,0,0,5.64,32.11"/><path class="cls-2" d="M7.2,18.32s-3.95,7,3.62,12.7"/><path class="cls-2" d="M70,14s2.2-6.18-3.62-12.69"/><path class="cls-2" d="M64.77,15.11s2.76-6-3.62-12.7"/></g></g></svg>