<svg xmlns="http://www.w3.org/2000/svg" viewBox="0 0 412.47 420.57"><defs><style>.cls-1{fill:#595959;}.cls-2{opacity:0.25;}.cls-3{fill:#ff7300;}.cls-4{fill:#0c5984;}.cls-5{fill:#106f99;}.cls-6{fill:#00e78f;}.cls-7{opacity:0.1;}.cls-8{fill:#53e5aa;}</style></defs><title>account-detailsAsset 127</title><g id="Layer_2" data-name="Layer 2"><g id="account_details" data-name="account details"><path class="cls-1" d="M177.75,28.41c34,6.61,58.4,33.91,67.67,66.43,10.57,37.09-.27,77.86-23.34,108-6.63,8.67-14.44,16.75-23.89,22.35-10.51,6.22-22.44,8.13-34.35,9.83-2.19.32-1.26,3.64.92,3.33,10.84-1.57,21.77-3.28,31.64-8.31,9-4.56,16.66-11.36,23.23-18.91a137.39,137.39,0,0,0,28.2-52.24c10-35.1,4.53-74.3-19.17-102.77a83.23,83.23,0,0,0-50.48-29.31c-1-.17-1.46,1.36-.43,1.56Z"/><g class="cls-2"><path class="cls-3" d="M146.68,234.6c1.51,1,3,2,4.63,2.93.59.34,3.1,2,.68.25l2.84,2.2a14,14,0,0,0,7.1,1.92c-4.18-1.49.68.13,2.09.36,3.15.53,6.35.94,9.53,1.2L164.42,241a27.13,27.13,0,0,0,5,2.18,19,19,0,0,0,10,0c-8.53.13,2.94-.5,3.55-.59,2.05-.32,4.09-.67,6.11-1.14,5.71-1.36,10.81-3.75,16.26-5.87.56-.24,1.11-.48,1.65-.73q-9.21,4.16,1.73-.58,9.24-7.29,1.52-.94L211,233a30.71,30.71,0,0,0,6.3-3.29l.76-.45q-11.15,4.57,1.59-.75A32,32,0,0,0,227.3,222c1.47-1.58,2.9-3.2,4.27-4.88a164.67,164.67,0,0,0,11.71-15.87c3.76-5.95,6.3-12.65,8.76-19.23a138.38,138.38,0,0,0,7.58-34.12l-1,7.67c4.62-30.29,1.05-63.57-17.15-89.18-9.32-13.12-21.1-24.42-35.88-31.18-6.59-3-11.62-4.84-18.94-5-5.17-.11-10.43.89-15.48,1.83-7.92,1.49-15.65,3.95-23.36,6.23-3.82,1.13-7.64,2.27-11.5,3.3-1.81.48-3.63.95-5.46,1.36-2.94.66-8.66.76,1.48.07-6.94.48-13.89,1-20.84,1.47-19.41,1.33-40,2.43-57.85,11-9.79,4.69-19.27,12.36-26.85,20a86.68,86.68,0,0,0-22,37.73C1.45,125.2.44,138.25.94,150.7c.61,15,3,30.6,11.89,43.08,16.69,23.42,46.48,36.5,74.57,38.92,17.53,1.5,36.29-4.17,52.79-9.64,40.63-13.47,88.48-42,89.72-90,1.11-43.52-46.5-62.92-77.83-81.46-23.55-14-50.24-14.36-76.58-10.93-6.17.8-12.72.84-18.55,3.06-8,3.05-13.22,6.47-19.86,11.89C29.38,61.9,23.14,70,17.47,78.07,11.91,86,7.14,95.28,4.73,104.66,1.4,117.57,3,131.35,6.36,144.08A97.65,97.65,0,0,0,22.87,178c10,13.29,20.65,24.35,36.23,30.92a76.17,76.17,0,0,0,46.72,4c10.21-2.27,20.21-7.23,29.55-11.75a112.32,112.32,0,0,0,26.57-17.46c14.3-12.91,22-34.14,11.95-52-5.76-10.25-15.69-15.46-24.73-22.2l6.82,5.28a21.44,21.44,0,0,1-2.58-2.36l5.29,6.85a6,6,0,0,1-.78-1.15l3.42,8.09c-3.65-9.17-6.5-15.51-12.9-23a51.74,51.74,0,0,0-15.38-12c-14.77-7.58-31.75-10-47.92-5.67C52.65,94.24,33.85,127,33.49,159.05c-.09,8.79,4,19.49,10.57,25.52,7.42,6.8,15.5,9.64,25.52,10.56,19.82,1.83,39.79-1.53,55-15.4,17.28-15.83,21.75-42.23,10.46-62.68-5.93-10.76-17.78-19.29-29.69-22a48.92,48.92,0,0,0-43.76,11c-20.76,18.14-19.26,50.52-1.16,69.68,13.22,14,38.8,14.34,52,0s14.82-37.76,0-52a10.28,10.28,0,0,1-1.73-1.88l5.73,7.42a11.51,11.51,0,0,1-1.23-2.23l3.69,8.75a17.65,17.65,0,0,1-.9-3.73l1.31,9.71a12.26,12.26,0,0,1,0-2.57L118,149a17,17,0,0,1,1-3.69L115.3,154a10.7,10.7,0,0,1,1.33-2.17L111,159.17a10,10,0,0,1,1.83-1.79l-7.33,5.67a10.56,10.56,0,0,1,2.21-1.27L99,165.42a17.51,17.51,0,0,1,3.71-.92l-9.59,1.29a13,13,0,0,1,2.57,0l-9.57-1.29a18.51,18.51,0,0,1,3.71,1l-8.58-3.62a11,11,0,0,1,2.19,1.3l-7.26-5.61a8.92,8.92,0,0,1,1.83,1.8l-5.6-7.25a11.49,11.49,0,0,1,1.25,2.15l-3.61-8.56a15.62,15.62,0,0,1,.92,3.49l-1.28-9.53a19.49,19.49,0,0,1-.13,3.66l1.28-9.54a24,24,0,0,1-1.06,3.63l3.62-8.57a25,25,0,0,1-2.62,4.47l5.61-7.27a25,25,0,0,1-3.72,3.63L80,124.1a27.28,27.28,0,0,1-3.69,2.08l8.59-3.62a35.57,35.57,0,0,1-8,2.1l9.57-1.28A81.42,81.42,0,0,1,69.58,123l36.08,36.08c0-1.92.16-3.81.37-5.72l-1.29,9.6A54.64,54.64,0,0,1,108,150.42l-3.64,8.64a53.58,53.58,0,0,1,6.2-11.12L105,155.19a41,41,0,0,1,5.88-6l-7.2,5.56a35.34,35.34,0,0,1,6.93-4.17l-8.43,3.56a33.23,33.23,0,0,1,7.13-1.91L100,153.5a35.77,35.77,0,0,1,8.65.09l-9.25-1.24a34.79,34.79,0,0,1,7.08,2l-8.25-3.49a31.82,31.82,0,0,1,6.23,3.64l-7-5.36a27.15,27.15,0,0,1,4.14,4.23l-5.33-6.9a28.46,28.46,0,0,1,2.41,4.14l-3.43-8.11c2.71,6.77,5.12,12.43,10.29,17.75a60.21,60.21,0,0,0,10,7.74c3.38,2.22,7,3.93,10.33,6.3l-6.74-5.21a13.67,13.67,0,0,1,2.32,2.24l-5.2-6.72.34.57-3.34-7.93a3,3,0,0,1,.32,1.14l-1.18-8.81,0,.58,1.18-8.81a20.05,20.05,0,0,1-.81,2.71l3.33-7.9a25.61,25.61,0,0,1-3.22,5.3l5.13-6.65a51.11,51.11,0,0,1-7.86,7.49l6.57-5.08a117.69,117.69,0,0,1-25,14L99.26,148a63.23,63.23,0,0,1-14.91,4.64l8.41-1.13a49.67,49.67,0,0,1-11,.07l8.37,1.13a49.13,49.13,0,0,1-12.09-3.24l7.48,3.16A47,47,0,0,1,76,146.85l6.31,4.88a88.09,88.09,0,0,1-13-14L74.2,144a77.3,77.3,0,0,1-9.08-15.28L68.21,136a68,68,0,0,1-4.58-16.79l1.09,8.14a49.44,49.44,0,0,1-.46-10.8l-1.1,8.15a37.32,37.32,0,0,1,2.5-8.72l-3.1,7.34a80.45,80.45,0,0,1,10-16.69l-4.82,6.24a78.71,78.71,0,0,1,13.1-13.52l-6.27,4.84a33.78,33.78,0,0,1,6.25-3.85l-7.4,3.12a16,16,0,0,1,3.44-1l-8.24,1.11c14.68-1.8,29.48-3.74,44.24-1.81l-8.31-1.11A67.65,67.65,0,0,1,120.42,105l-7.48-3.16c8.87,4,17.26,9.71,25.73,14.52,9.08,5.17,18.09,10.52,26.39,16.89l-6.41-5a70.5,70.5,0,0,1,12.55,12l-4.93-6.39a33.08,33.08,0,0,1,3.53,6l-3.17-7.51a22.93,22.93,0,0,1,1.47,5.27L167,129.24a41.33,41.33,0,0,1-.06,8l1.12-8.33a41.7,41.7,0,0,1-2.78,10.35l3.15-7.46a51.43,51.43,0,0,1-6.21,10.28l4.87-6.29a97.23,97.23,0,0,1-16.54,15.57l6.24-4.82a145.11,145.11,0,0,1-31.18,18.57l7.18-3C118.82,167.93,104,173.38,89,175.6l7.74-1a58,58,0,0,1-14.54-.14l7.66,1A84.57,84.57,0,0,1,73,171.18c-.82-.3-1.63-.62-2.44-1q-3-1.2,2.75,1.14a27.37,27.37,0,0,0-2.93-1.43,74.82,74.82,0,0,1-7.28-4.17c-.76-.49-2.73-1.45-3.13-2.17.66,1.18,5.2,4.33,1.63,1-.93-.85-1.77-1.76-2.65-2.66-3.28-3.33,2.8,4.43,1.15,1.58-.62-1.08-1.32-2.13-1.94-3.22-2.45-4.3,1.17,4.28.49,1.06s-1.58-6.18-2-9.42l1,7.44a121.63,121.63,0,0,1-.17-29l-1,7.39a84.69,84.69,0,0,1,1.7-9.07c.34-1.35.72-2.69,1.14-4,.76-2.35,3.29-5.75-.42.4,1.43-2.38,2.46-5,4-7.31.4-.62,3.22-5.29.74-1.2s1.37-1.35,2.17-2.18c1.93-2,4-3.75,6.07-5.61,4.42-4-5.19,3.67-.33.21.91-.64,1.81-1.29,2.72-1.92,1.92-1.33,3.88-2.58,5.9-3.76,2.18-1.29,3.9-.38-3.7,1.48,1.1-.27,2.19-.81,3.28-1.15A93.87,93.87,0,0,1,91.5,101c2.1-.37,4.22-.64,6.32-1-10.31,1.69-.45.12,2-.14,8.8-.92,17.63-1.48,26.45-2.21,18.72-1.54,35.7-7.71,53.83-12,1.83-.43,3.68-.84,5.54-1.17,6.3-1.14-7.23.29-1.43.21.8,0,1.66,0,2.46-.05,3.79-.29-7.56-1.43-4.81-.69,2.5.67,1.55,1.3-4.18-1.91,1,.55,2.07,1,3.08,1.47a90.28,90.28,0,0,1,8.46,5.18c3.43,2.25-5.29-4.34-3-2.31.58.5,1.18,1,1.76,1.47,1.37,1.18,2.69,2.43,3.95,3.73s2.39,2.69,3.59,4c2.79,3.13-4.41-6.18-2.08-2.7.49.75,1,1.46,1.54,2.2a78.22,78.22,0,0,1,5.2,9.45c1.86,3.84-2.83-7.25-1.39-3.23.31.85.65,1.69.95,2.55q.9,2.59,1.63,5.24A92,92,0,0,1,203.78,121l-1-7.46a111.45,111.45,0,0,1,0,28.62l1-7.65a123,123,0,0,1-8.39,30.94l3-7.06c-2.53,5.92-5.47,11.59-7.93,17.55l3-7.1a104.4,104.4,0,0,1-9.19,16.5c-.85,1.23-4.07,5.5-.52.84q4.67-6.1-2.79,3.58l-2.85,6.76c.07-.13,3.7-7.56,1.62-3.84-.72,1.29-1.38,2.6-2.13,3.88-.36.62-.77,1.22-1.12,1.85-2.16,3.82,6.48-8.45.32-.47q-3.66,4.59-.48.79c1.63-2,1.93-2.29.89-1q-.56.69-1.14,1.38c-.95,1.12-1.93,2.22-2.95,3.28-2,2.07-4.35,3.75-6.34,5.79.56-.57,4.3-3.11,1.6-1.28a11.08,11.08,0,0,0-1.82,1.27l2.89-1.11-4.48,1.89a14.29,14.29,0,0,0-5.26,4.83c-2.1,2.74-2,2.53.45-.66.29-.28,3.44-2.47,1.48-1.18-.6.4-1.18.85-1.79,1.25a34.11,34.11,0,0,1-4.06,2.44l7.09-1.92c-6,.73-10.55,2.51-13.59,8.05l4.49-4.49a63.89,63.89,0,0,1-7.07,4.43c-5.28,2.85-4.42,9.92,0,12.95Z"/></g><path class="cls-1" d="M120,41.8c-23.29-6.73-52.52-4.47-74.08,6.76C25.42,59.24,11.28,79.7,4.71,101.46-9.52,148.53,8.9,204,54.61,226c28,13.44,61.87,13.13,88.6-3.22,2.69-1.65.21-5.93-2.49-4.25-45.37,28.27-106.61,6.14-127.63-41.74C-4.29,137.16,3.66,83.09,40.32,56.9,61.7,41.62,94,38.59,119,45.46c2.36.65,3.35-3,1-3.66Z"/><path class="cls-1" d="M35,293.59c9.92-1,19.82-.55,29.76-.67a302.8,302.8,0,0,1,30.86,1.39c10.14.93,19.74-.49,29.85-.87,9.69-.36,19.86-.36,29.18-3.35,2.47-.8,2.22-5.13-.64-4.79-9.79,1.15-19.53,2.93-29.44,2.07-5.43-.47-10.43-2.08-15.7-3.21-5-1.06-10-1.53-15.06-2.17-10-1.29-19.93-3.28-29.95-4.5-10.27-1.25-20.68-.29-30.87,1.25-8.34,1.26-6.47,15.75,2,14.85Z"/><path class="cls-1" d="M35.29,334.76c10.26,1.16,21.13-.22,31.46-.3,10.85-.09,21.66.57,32.52.34,10.52-.23,21-.6,31.56-.71,5.27,0,10.53-.17,15.79-.22,5.7-.06,11.18.55,15.57-3.65a6.75,6.75,0,0,0,0-9.42c-4.16-4-9.14-3.59-14.58-3.57-5.59,0-11.19.07-16.78.25-10.84.34-21.73.68-32.55,1.51-10.47.81-20.71,2.62-31.09,4.1-10.72,1.53-22.43,2-32.76,5.32-3.65,1.16-2.68,5.95.86,6.35Z"/><path class="cls-1" d="M30.84,361.68c14,3.48,29.18,2.72,43.49,3.09,15,.38,29.91.42,44.9.2,14.63-.22,29.26-.68,43.88-1.19q11-.37,21.94-.82c4-.17,8-.22,12-.51a24.51,24.51,0,0,0,10.36-3.19c4-2,2.35-7.3-1.13-8.65A25,25,0,0,0,195,348.77c-3.32.13-6.64.33-10,.49q-11,.53-21.94,1c-15,.61-29.92,1.09-44.88,1.62q-22,.79-43.9,1.9c-14.33.73-29.5.16-43.49,3.68a2.22,2.22,0,0,0,0,4.25Z"/><path class="cls-3" d="M102.58,132.61c12.16-6.39,24.9-24.47,16.79-38.18-7.3-12.35-27.94-14.09-40.27-10C59.81,90.9,52.85,116,64.42,132.32a36.09,36.09,0,0,0,22.94,14.73c5.5,1,9.91.39,15.42-.25-1.38.16-4.33,1.12-5.5.07a7.09,7.09,0,0,0,1.36.29c1.11.33,2.24.63,3.34,1,13.88,4.43,29.6,10.88,44.18,5.59,14.35-5.21,21.7-19.54,20.87-34.38-.75-13.48-6.28-27.24-16.72-36.13-6.11-5.2-13.75-9-22-8.78-8.92.21-16.85,4.94-23.86,10-1.36,1-5.59,3-6.39,4.39,1.46-2.64,4.09-1.12,2-.87a19.48,19.48,0,0,0-1.89.49c-1.58.36-4,.22-5.37.93.67-.33,5.72-.78.07,0-1.38.19-2.68.39-4,.66s-2.88.62-4.29,1A34.07,34.07,0,0,0,71.2,98c-9.2,8.06-8.63,20.37-3.67,30.55s15.65,17.48,26.69,19c5.9.8,12,.56,17.21-2.71,5.62-3.53,8.06-8.54,10.51-14.39.49-1.16,1.47-2.39-.69,1.63.83-1.54,1-.62-1.3,1.37l-4.59,1.89q-7.5,2.13-3.69,1.86A21.19,21.19,0,0,0,115,137c3.68-.16,7.84-.21,11.36-1.22,14.92-4.29,18.33-24.73,4.31-32.66-4.16-2.35-8.86-2.81-13.45-3.63-.75-.13-1.53-.35-2.28-.43-3.3-.37,2.69,1.82,3.8,2.12l1.16.81q-2-1.64-4.08-3.12c-.6-.38-1.17-.72-1.8-1a28.71,28.71,0,0,0-12.67-3.28c-11.12-.24-22.11,5.87-27.27,15.79-5.52,10.63-4.55,24,4.09,32.73,6.46,6.48,16.64,8.92,25.42,6.85,12.31-2.92,21.73-15.09,22.63-27.5a17.67,17.67,0,0,0-19.85-18.57c-8.24,1.11-13.22,7-17.68,13.47-6.63,9.54-6.09,21.06-6.31,32.25-.2,9.92-1.88,22.71,5.89,30.29,5.31,5.19,13.23,9.68,20.5,11.07,14.42,2.75,27.87-4.8,31-19.72,1.81-8.61.49-17.05-.87-25.63l-1.71,13.09c2.81-4.34,5.69-9.39,5.42-14.74-.59-11.68-11.33-20.05-22.8-16.67-8.3,2.45-15.21,10.15-21.37,15.91-4.68,4.37-10.58,8.88-14.46,14,.08-.11,3.6-2.31.62-.52-1.19.72-2.34,1.5-3.55,2.2-2.73,1.6-5.53,3.09-8.31,4.62-6.35,3.48-12.79,7.1-18,12.19-6.88,6.68-7.22,19.27,0,25.9,7.48,6.87,18.46,7,25.9,0,3.14-3-2.16.75.19-.22.54-.22,3.24-1.7,1-.67-2.64,1.19,1.7-.39,1.85-.44,1.2-.43,2.52-1.5-.62-.05,1-.46,4.9-.6,5.82,0-1.92-1.21-2.58-.34-.61,0s3.7.6,5.54.76a70.55,70.55,0,0,0,10.48-.29c5.39-.34,10.78-.83,16.17-1.09,3-.14,5.93-.23,8.89-.1,1.31.05,2.62.19,3.93.29,4.72.35-3.45-.81,1.06.18.68.15,8,2.18,8,2.27-.21.33-4.05-2.2-1.75-.67.46.31,1,.54,1.52.83s1,.64,1.44.91c2.65,1.47-2.69-2.76-.86-.61a13,13,0,0,0,1.46,1.51c1.51,1.23-1.9-3.27-1.14-1.46a12.42,12.42,0,0,0,1.11,1.85c1.44,2.16-1.71-1.73-.64-1.61a16.31,16.31,0,0,1,.57,1.79c.38,4.51.47-8,.28-6.91,1.41-8.19,10.25-10.83,6.44-8.69,4.25-2.39,3.63-1.45,1.84-1,5.44-1.25,2.15-.43.07-.38-3.15.08.55-.73,1,.22a19.9,19.9,0,0,0-2.17-.46,109.85,109.85,0,0,1-11.08-3.55c3.35,1.17,1,.44.24.08-1.12-.53-2.24-1-3.35-1.59-2.05-1-4.07-2.13-6-3.31-3.85-2.3-7.53-5-11.49-7.15-9.84-5.21-20.92-5.84-31.83-5.18-2.23.14-4.46.37-6.69.64l-2.25.29-5.6.75.44-.06c3.67-.51-1.58.14-2.4.23a8.4,8.4,0,0,0-1.43.08q-2.55,0,3.76.61-10-1.32-.89-.16a19.73,19.73,0,0,0-23.25,11.41c-3.48,8.23-.9,20.59,8.06,24.62,13.55,6.1,28.45,6.57,43.1,6.35,7.16-.11,14.32-.24,21.48-.47,2.87-.09,5.75-.21,8.62-.4,1.08-.07,2.16-.14,3.23-.25l1.3-.14,5-.68-3.82.51c5.23-.7,9.5-1.66,13.39-5.55,3.29-3.29,5.76-8.67,5.55-13.39C155,182,147,170.79,136.46,172.19c-11,1.46-23.12,0-34.12-.9-6.9-.57-13.89-1.8-20.81-1.82-2.71,0-5.43-.07-8.14-.25-.84-.06-2.46.1-3.24-.29-.52-.27,6,.94,3.75.47-.41-.08-.8-.17-1.2-.28l-10.48,38A39.28,39.28,0,0,0,78,206.46c3.86-.92,7.67-2.09,11.55-3,1-.23,2-.46,3.06-.65.4-.08,4.45-.48,1.38-.3s1.16.07,1.48.07c.75,0,3.28-.22,3.89.24,0,0-4.53-1.1-1,0,.55.16,3.39.53,3.64,1.07.13.26-4-2.47-1-.26,1.32,1,2.71,1.85,4,2.78,9.29,6.51,21.3,10.62,32.41,12.79,8.26,1.61,17.85,3.24,26.12.74a19.45,19.45,0,0,0,13.26-13.52c1.67-6.38-.59-13.43-3.45-19.13a38.58,38.58,0,0,0-17.83-17c-14-6.65-31.07-8.1-46.47-7.12-5.09.32-10.41.23-15.45.76,4.74-.49,5.56.76,2.86.31a71.76,71.76,0,0,0-9.25-1.06,52.27,52.27,0,0,0-12.11,1.25,42.62,42.62,0,0,0-20.53,11.21l25.9,25.9c2.32-2.3.84.23-.61.21.59,0,2-1.37,2.45-1.69,2-1.34,4.14-2.56,6.26-3.77,3.92-2.24,7.92-4.34,11.72-6.78a78.07,78.07,0,0,0,14.21-12.16c4.15-4.32,8.25-8.69,12.47-12.94,1.86-1.89,3.74-3.77,5.72-5.53.37-.33.77-.64,1.13-1,1.85-1.78-2,1.53-2.12,1.6.32-.21.62-.46,1-.65-2.5,1.37-8.21,2.86-12.07,1.42l-7.58-4.42-2.54-3.26L108.21,144c.14,1.1,1-5.64.42-3.39-.12.47,2.3-4.55.91-2.2-2.57,4.32-4.44,8.9-3.76,14,.12.84,1.34,7.72.75,3.63.18,1.25.28,2.53.34,3.79s0,2.52,0,3.79a6.5,6.5,0,0,0-.1,1.43c-.8-.91,1.57-4,.12-1.6-.3.52-1.21,3.64.07.29,1-2.51.65-1.55.29-.91-1.06,1.91,1.75-2.2,1.64-2.09-1.6,1.6,3.72-2.5,1.84-1.39-1.55.92,4.8-1.69,1.77-.88.44-.12,5.2-.57,2.49-.46s2.23.43,2.15.32-6-2.12-1.93-.4c3.31,1.41-.51-.33-1.43-.86s-1.91-1.26-2.89-1.85c-2.28-1.36,3.48,3.4,1.26.92a6.11,6.11,0,0,1-.56-.58,26.56,26.56,0,0,1,3.26,5.05,7.39,7.39,0,0,1,1.07,3.86c.26,2.09.33,2.63.23,1.6.67-7.73-.19-15.88.1-23.67.09-2.25.18-4.49.34-6.73.06-.92.16-1.83.22-2.75.19-2.92-.74,3.86-.31,2.39.38-1.32-1.68,3.51-1.5,3.36a11.28,11.28,0,0,0,1.45-2.31c.32-.5.66-1,1-1.49,1.75-2.75.35.35-.61.65.37-.12,1.36-1.47,1.62-1.82.46-.62,2-1.38-.79.55-4.82,3.29-11.19,5.42-17.13,1l-6-6.06c.38.5-2-8-2-7.53.08,2.08.52-3.63.46-3.27s-.2.7-.29,1.06c-.6,2.25.88-2.27,1-2.39a10,10,0,0,0-1.45,2.5c-1.17,2.38,2.2-3.91,1.09-1.48a3.18,3.18,0,0,1-.9.89c-2.35,1.43,3.8-2.48,1.39-1.11-1.87,1.05,2.3-.86,2.31-.86-3.56,1.11,4.38.24.58,0,5,.33,3.24.53,1.59,0,.46.16,3.69,1.79,1.72.58a5.88,5.88,0,0,1,3.08,3.57c1.34,2.76,1.7,3.2,1.09,1.3l.38,2.3c-.46,2.42-.55,3-.25,1.67.61-1.73-2.4,3-.18.25l-1.29,1.57q1.65-1.57,0-.18c-.47.2-4.16,2.39-1.07.88l-1.87.24c1.68.05,1.82,0,.39,0-.5-.17-4.08-.53-4-1.48a44.06,44.06,0,0,0,3.73,2.85,24.15,24.15,0,0,0,5.55,2.17c2.08.58,4.26.86,6.38,1.26,1.06.2,2.12.45,3.18.64.41.08.83.27,1.24.31l.39.12a16,16,0,0,1-6.86-4l-5.11-12.34v.1L110,106.34c-.2.2,7.87-4.49,6.83-4.14s3.31-.38,3.14-.41a15,15,0,0,0-3,.22c-4.18.22-8.67-.1-12.69,1.2a23.28,23.28,0,0,0-12.36,9.63,27.2,27.2,0,0,0-2.16,4.44c-.39.92-.79,2-1.24,3,.28-.57,2-3.35.68-1.67-1.07,1.35-.93,1.25,1.9-1.52s4.67-3,8.21-4.08c-.73.22-2.38-.59-.43,0,2.11.68.16-.27-.36-.3.5,0,2.39,1.48,1,.35-.48-.4-2.51-2.24-1.07-.64s.13-.3-.27-.53c1.19.66,1.06,2.13.3.16.09.24.74,2.89.39,1-.42-2.23,0,1.8,0,1.8a13.25,13.25,0,0,1-3.43,8.52c.19-.19-3.43,2.53-1.87,1.6,1.4-.84-2.17.82-2.11.83,1.05.06,2.91-.92,4-1.18,4.59-1.12,9.26-1.94,13.68-3.67,6.28-2.46,10.89-6.43,15.9-10.84,1-.85,1.92-1.67,2.9-2.5,2.31-2-1.74,1,.85-.59,1.05-.64,2.18-1.22,3.21-1.89-.12.08-2.73.94-1.1.53,1.86-.47-3.73-.22-.46.06-2.09-.18-2.76-.58-.53.05,3.2.9-.18-.34-.27-.24.15-.16,2.13,1.3,2.38,1.39-.22-.08-2-2.07-1.19-.93a14.28,14.28,0,0,0,1.37,1.32c1.43,1.46,1.7,2.55.47.33.48.86,1.13,1.65,1.64,2.49s.95,1.78,1.44,2.66c1.18,2.09-.74-2.51.28.68.66,2.1,1,4.27,1.67,6.36-.65-2.13-.13-2-.05,0,0,1.13,0,2.25,0,3.38,0,3.25.7-1.9,0,.26a25.41,25.41,0,0,0-.67,2.6c-.48,2.58,1-2.73.12-.31-.13.38-.54.71-.65,1.09-.3,1.08,1.7-1.54.76-.94-.55.33-2.67,1.82-.73.82s.16-.24-.35,0c-1.36.71,1.43-.57,1.4-.56-1.09.11-2.24.64-3.34.83,2.93-.52-.41-.17-1.6-.21-.59,0-4-.34-2.54-.15,1.67.22-.48-.1-.68-.15-.85-.19-1.72-.34-2.58-.53-2.76-.61-5.47-1.38-8.17-2.2-4.29-1.31-8.53-3-12.93-3.94a23.87,23.87,0,0,0-8.23-.55c-.44.06-5.25.39-2.48.36-.67,0-1.34,0-2,0-2.23-.18,2,.53-.23,0-.67-.16-3.58-1.13-2.75-.75,1.42.65-2.69-1.75-1.48-.87s-2.57-3-1-.78a12.75,12.75,0,0,1-1-1.7c-1-1.92.44,1.78,0-.24-.14-.61-.34-1.22-.43-1.85.28,1.94-.17.46.22-.12,0,0,.29-2.37,0-.7s.33-1,.43-1.27c.57-1.49-.12.13-.23.34,0,.06,1.79-3,1-1.78-1.19,1.82,2.11-2.66,1.84-2.37-1.23,1.28-.22.06.31-.07-1.53.37.75-.24,1.53-.63,1.22-.61-.29.15-.46.21.74-.25,1.47-.51,2.22-.73a31.87,31.87,0,0,1,4.72-1.06c-1.33.18,1.95,0,2.49,0a4.88,4.88,0,0,1,2.33.24c1.18.26.72.21,1.16.3-.89-.17-.08-1.33-.28-.33-.1.47-.07.42,0-.09,0,0,0,1.65-.11,2.17a26.22,26.22,0,0,1-8.39,15.07c-5.64,5,1.55,13.26,7.73,10Z"/><path class="cls-4" d="M279.09,251.21c4.61,14.93,13.26,28.53,20.89,42.08,7.79,13.82,15.7,27.46,24,41s16.72,26.86,25.1,40.29c4,6.45,8,12.93,12,19.35,4.6,7.28,8.72,15,14.35,21.58,3.39,3.93,10.32,4.53,14.61,1.89a109.12,109.12,0,0,0,17-13.55,10.33,10.33,0,0,0,1.6-12.39c-15.69-25.22-36.8-46.52-52.8-71.51-8.16-12.75-15-26.3-24.12-38.44-7.6-10.15-16.45-18.19-25.8-26.65-4.64-4.2-11.82-4.58-16.4,0-4.25,4.25-4.69,12.22,0,16.41,8.5,7.61,17.14,14.79,23.95,24,8.8,12,15.51,25.29,23.69,37.66,16.1,24.37,37.59,44.55,53.82,68.81l1.6-12.39c-3.62,3.64-6.79,4.83-11.82,6l14.83,8.43c-5.95-14.82-16.46-28.4-25.39-41.57s-18-26.11-27.27-39-18.82-25.69-28.2-38.55c-9.21-12.63-17.55-26.4-28.51-37.61-2.95-3-8.47,0-7.19,4.19Z"/><path class="cls-5" d="M309.41,304.57c3.45,8.74,8.89,17,13.48,25.19,4.13,7.37,8.26,14.74,12.63,22,6.19,10.21,13.24,19.94,19.9,29.84L367,398.69c4,5.94,7.46,12.28,13.25,16.62,6.42,4.82,14.91-3.12,13-10-1.77-6.4-6.54-11.73-10.28-17.1L371.71,372c-6.92-10-13.76-20-20.87-29.79-4.88-6.74-9.55-13.63-14.2-20.52-5.28-7.8-10-16.44-16-23.67-4.18-5-13.61.35-11.19,6.51Z"/><path class="cls-6" d="M333.94,79.62c-5-15.35-11-30-22.2-41.88A114.64,114.64,0,0,0,278,13.1,135.32,135.32,0,0,0,197.19,1.89a129.21,129.21,0,0,0-67.13,32.92c-26.72,25.18-38,63.84-36.69,99.8,2.17,61.57,44.55,120.91,106.19,134.53,68,15,145.6-31,159.86-100.27,6.24-30.34.67-61.64-11.41-89.83a125.91,125.91,0,0,0-58.43-62.36A118.52,118.52,0,0,0,262.13,6.45a10.09,10.09,0,0,0-11.84,5.81c-1.69,4.2-.52,10.48,4.11,12.54,15,6.64,30.33,13.07,43.35,23.21a99.87,99.87,0,0,1,23.38,26.05,126.24,126.24,0,0,1,7.65,14.51c.27.6.53,1.21.79,1.82-.75-1.77-.09-.21,0,.13.47,1.2.95,2.39,1.4,3.6.93,2.48,1.79,5,2.61,7.53,4,12.48,7,25.24,7.4,38.4a101.52,101.52,0,0,1-36.64,81.55c-22.95,19.28-52.73,31.08-82.45,29.85-25-1-49.63-11.95-68.37-28.95a128.35,128.35,0,0,1-39-68.2c-6.68-31.14-1.61-65.69,16.47-92.22,13.16-19.32,33-30.58,54.61-36.3a122.37,122.37,0,0,1,66.18.86A101,101,0,0,1,283.3,42.17c9.29,6.64,18.83,16.48,27.73,25.75A97.94,97.94,0,0,1,323.56,84c3.3,5.27,12.44,2,10.38-4.38Z"/><g class="cls-7"><path class="cls-6" d="M327.51,115.41c2-6.72,2.52-14.18,3.29-21l-1.9,14.15c1.34-9.55,2.24-13.9,1.09-22.51a51.61,51.61,0,0,0-10.72-25.75c-2.73-3.53-5.2-6.93-8.53-9.86-6.71-5.88-14-11.71-22-15.94C275.56,27.5,262.4,23.85,248,21c-19.09-3.77-37.81-5.55-56.78.19C177,25.48,164,32.53,151.58,40.51l80.6,46.25V85.38l-1.91,14.23c.18-.87.33-1.74.46-2.62l-5.31,12.56.57-1.09c5.45-10.58,7.76-21.22,6.16-33.11-1.46-10.89-5.94-22.15-14.28-29.81A61.67,61.67,0,0,0,195,32.19c-11.68-3.78-29.72-1.72-40,5.23A94,94,0,0,0,142.69,47L164.9,34c-13.4,2.64-25,10.28-35.24,18.92a49.47,49.47,0,0,0-6.21,6.24c-4.14,5-8.54,10.25-11.65,16C101.66,94,97.4,115.52,96.64,136.76c-1.57,44,30.5,77.51,63.31,102.08l-10.25-7.92a196.18,196.18,0,0,0,19.1,14.5c6.79,4.35,14.47,7.34,21.91,10.3a60.3,60.3,0,0,0,11,3.38c7.87,1.5,16.52,3.08,24.66,2.75,29.19-1.18,54.85-14.16,76.31-33.39,9.17-8.22,16.9-18.46,23.73-28.61,7.26-10.8,13.25-23.69,15.43-36.54,2.61-15.39,2.45-23,.1-38.22-1.27-8.27-5-16.56-8.92-23.79-2.87-5.3-7.14-10.08-10.94-14.68a32.31,32.31,0,0,0-3.83-3.93c-4.74-4.13-10-8.62-15.67-11.51s-12.19-6-18.42-7.44c-23-5.41-48.53-2.42-68.83,10.24-12.51,7.81-22.18,18.24-33.37,27.48L194.15,92a10.47,10.47,0,0,1-2.49,1.49L206,87.46l-1.38.43,16-2.15a7.23,7.23,0,0,1-2.82,0l16,2.15-1.35-.39,14.38,6.07a18.52,18.52,0,0,1-3.74-2.28l12.17,9.4c-8.16-7.33-14.62-17.22-21.53-25.72L223.26,62.06c-6.52-8-15.2-13.49-23.37-19.71l11.6,9-.94-.86L219.47,62l-.78-1,5.72,13.54L223.84,73l2,15a7.92,7.92,0,0,1,.08-3.18l-2,14.72a17.73,17.73,0,0,1,.85-2.77l-5.5,13a35.62,35.62,0,0,1,2.4-4.58l-8.31,10.76c.63-.61,1.29-1.18,2-1.73l-10.73,8.29a33.07,33.07,0,0,1,5.68-3.42l-12.57,5.3a33.29,33.29,0,0,1,7.66-2.21L191.56,124a80.1,80.1,0,0,1,14.11-.1l13.05-1.75,11.72-5a48.7,48.7,0,0,0,20.09-23.47,47,47,0,0,0,3.35-25.44c-1.54-11.41-6.15-19.24-13.5-28.18C218.73,13.8,177,15.4,150,31.64c-16.66,10-29.91,23.47-34.89,42.87-2.61,10.16-2.81,22.55.53,32.59,1.89,5.68,4.68,11.2,7.08,16.69,3.66,8.39,9.57,14.88,15.3,22.11l16.46,20.75c5,6.34,9.73,13.67,15.75,19.1,13.3,12,29.3,20.1,47.59,20.34A68,68,0,0,0,254.94,196c10.52-6.28,18.59-15.92,28.14-23.44L270.87,182a72,72,0,0,1,12.5-7.53L269,180.56a39.88,39.88,0,0,1,9.08-2.64l-15.83,2.13a34.59,34.59,0,0,1,6.19-.12l-15.73-2.11a27.76,27.76,0,0,1,6,1.46l-14-5.92a26.09,26.09,0,0,1,4.9,2.87l-11.81-9.13a28.88,28.88,0,0,1,3.82,3.92l-9.07-11.75a32.67,32.67,0,0,1,3.43,6l-5.81-13.76a36.45,36.45,0,0,1,1.87,6.78l-2-15.19a39.24,39.24,0,0,1,0,9.38l2-15a47.33,47.33,0,0,1-2.81,10l5.65-13.4a91.24,91.24,0,0,1-11.64,19.62l8.66-11.22a91.72,91.72,0,0,1-15,15.09l11.08-8.56a71.68,71.68,0,0,1-15.37,9l13-5.46a66.74,66.74,0,0,1-15.61,4l14.25-1.92a56.36,56.36,0,0,1-12.18,0l14,1.89A64.37,64.37,0,0,1,209.83,152l12.31,5.2a66.5,66.5,0,0,1-13.58-7.79l10.25,7.92a161.91,161.91,0,0,1-26.11-26.61L200.61,141a56.6,56.6,0,0,1-7.17-11.86l5.09,12.08a44.08,44.08,0,0,1-2.28-8.72l1.8,13.43a82.39,82.39,0,0,1,.56-20L196.8,139.3a87.88,87.88,0,0,1,5.31-21.44l-5.08,12a49.55,49.55,0,0,1,5.58-9.65l-7.88,10.2a43.16,43.16,0,0,1,6.18-6.28l-10.2,7.88a36.78,36.78,0,0,1,7.47-4.43l-12,5.08a35.53,35.53,0,0,1,5.52-1.6L152.88,126a21.4,21.4,0,0,0,2.09,1l26.2-96.75c-14.41.9-29.47,5-39.69,16.08a84.09,84.09,0,0,0-9,12c-5.35,8.73-6.71,18.45-7.4,28.39-1.27,18.46,11.1,37.23,26.53,46.25,16.77,9.82,37.27,9.41,54.07,0a188.24,188.24,0,0,1,17-8.67l-12.94,5.46a67.62,67.62,0,0,1,14.66-4.32l-14.52,2a49.16,49.16,0,0,1,12.36,0l-14.62-2c13.85,2.12,28.18,7.19,41.19,12.33l-13.29-5.6a56.31,56.31,0,0,1,11.24,6.22l-11.06-8.55c.81.64,1.58,1.31,2.38,2l11,8.51a40.4,40.4,0,0,0,20.24,6.46c4,.54,7.36.67,11.18,1.06l-13.24-1.77a34.67,34.67,0,0,1,4.25,1.16c10.26,3.59,26,1.25,35.1-4.59,10.12-6.52,17.4-15.53,20.93-27.22Z"/></g><path class="cls-1" d="M282.28,258.84c5.93,9.81,7.71,20.76,12.71,30.89,5.91,12,13.94,23.16,20.73,34.65Q338,362.06,361.34,399c3.66,5.82,7,12.38,11.31,17.7,3.33,4.07,7.4,5,12,2.4,6.12-3.4,11.86-7.75,17.72-11.59,4-2.65,10.09-5.75,10.08-11.39,0-5.24-5.44-10.61-8.29-14.65-4.95-7-10-13.92-15.06-20.87-9.27-12.85-18.67-25.61-28-38.41-10.52-14.39-20.9-28.9-31.6-43.16-4.26-5.68-8.26-12.08-14.09-16.31-5.64-4.09-11.29-6.82-15.58-12.55a2.22,2.22,0,0,0-3.82,2.24c4.51,9.86,15.88,12.19,22.24,20.5,8.64,11.29,16.76,23,25.2,34.49q25.86,35.11,51.85,70.13c3.83,5.13,8.33,10.06,11.79,15.43,4.47,6.94-11.74,14.42-16.54,17.58-2.39,1.58-5.2,4.08-7.87,5.15-5.55,2.22-7.1-1.45-9.53-5.27-4.24-6.68-8.44-13.39-12.66-20.09q-21-33.3-41.05-67.12c-6.95-11.73-15.19-23.18-21.23-35.39-2.26-4.56-3.61-9.42-5.25-14.21A77.15,77.15,0,0,0,285,257.23c-1.09-1.73-3.81-.16-2.75,1.61Z"/><path class="cls-8" d="M104.41,72.49c-5.86,12.16-7.16,27.51-8.15,40.83a207,207,0,0,0,1.36,44c3.63,25.81,13.78,48.59,33,66.47,10.06,9.35,21.49,17.14,32.84,24.8,7.19,4.87,14.21-7,6.83-11.68-24-15.17-47.5-31.57-57.51-59.45a172.26,172.26,0,0,1-10.11-51.58,205.36,205.36,0,0,1,.78-26.83c.82-8.67,2.89-17.26,3.29-25.93a1.27,1.27,0,0,0-2.34-.64Z"/><path class="cls-1" d="M315.1,38.49C284.43,9,239.52-2.72,197.9,3.35,152.79,9.93,114.55,39,98.34,81.89c-21.91,58-.57,128.63,49.94,165,49.19,35.4,125.79,29.22,172-8.62,49.34-40.45,53.6-114.08,22.69-167.07a125,125,0,0,0-15-20.74c-2.08-2.32-5.22,1-3.36,3.37,21,26.56,34.07,57.65,33.84,91.91-.2,28.63-9.3,56.79-28.68,78.21-38.89,43-111.47,54.73-163.12,29.77C110.74,226.7,81.72,156,97,97c11.41-43.87,44.52-77,88.57-87.88,39.15-9.67,83.52-2.48,116.53,21.1a117.56,117.56,0,0,1,11.68,9.56c.86.79,2.13-.47,1.28-1.28Z"/><path class="cls-1" d="M184.05,23.63c-22.75,7.13-43,21-56.27,41-11.69,17.61-17.35,38.68-18,59.69-1.4,46,20.9,93.78,62.49,115.81C193.8,251.48,219,255.25,243,251.67c25.05-3.73,48.74-12.13,66.88-30.43,34.58-34.89,39.78-91.35,17.83-134.25-11.83-23.11-31.41-41.67-54.42-53.5-23.86-12.26-50.78-15.91-77.22-12q-5.73.85-11.38,2.14c-4.61,1-7.38,2.69-11.25,5.44,0,0,0,.08,0,.08,3.36.13,6.53.53,9.81-.25,4.1-1,8.19-1.87,12.35-2.55A134.24,134.24,0,0,1,218,24.56a119.2,119.2,0,0,1,37.54,6.18,122.73,122.73,0,0,1,56.23,39.4c30.13,38,33.6,94.61,5.83,134.9-13.35,19.39-33.2,32.53-55.92,38.28-24,6.08-48.64,7.35-72.33-.79-43.71-15-70.54-58-74.38-102.76-1.69-19.69.8-40,8.83-58.16,8.85-20,24.19-36.12,43.24-46.76a137.7,137.7,0,0,1,17.84-8.22c1.83-.71,1.12-3.61-.83-3Z"/></g></g></svg>