<svg xmlns="http://www.w3.org/2000/svg" viewBox="0 0 148 148"><defs><style>.cls-1,.cls-2{fill:#ff7300;}.cls-1{opacity:0.35;}</style></defs><title>cook-silhouette-circleAsset 105</title><g id="Layer_2" data-name="Layer 2"><g id="Cook_silhuette" data-name="Cook silhuette"><circle class="cls-1" cx="74" cy="74" r="74"/><ellipse class="cls-2" cx="45.65" cy="37.94" rx="18.37" ry="17.7"/><ellipse class="cls-2" cx="75.9" cy="31.7" rx="18.37" ry="17.7"/><ellipse class="cls-2" cx="102.91" cy="37.94" rx="18.37" ry="17.7"/><polygon class="cls-2" points="52.81 54.25 51.06 66.05 97.51 66.05 95.58 53.97 89.95 37.94 58.72 37.94 52.81 54.25"/><ellipse class="cls-2" cx="74.28" cy="79.59" rx="26.47" ry="30.19"/><polygon class="cls-2" points="63.9 98.81 61.48 122.58 76.03 129.06 74.82 98.81 63.9 98.81"/><polygon class="cls-2" points="84.67 99.35 87.09 123.11 72.54 129.6 73.75 99.35 84.67 99.35"/><path class="cls-2" d="M33.81,124.7c6.92-6,22.42-10.23,40.44-10.23,17.84,0,33.21,4.12,40.23,10h0a65.51,65.51,0,0,1-80.66.19Z"/></g></g></svg>