<svg xmlns="http://www.w3.org/2000/svg" viewBox="0 0 3418.72 752.52"><defs><style>.cls-1{fill:#fff;}.cls-2{fill:#0071bc;}.cls-3{opacity:0.05;}.cls-4{fill:#3fa9f5;}.cls-5{fill:#00e78f;}.cls-6{fill:#333;}.cls-7{fill:#f2f2f2;}.cls-10,.cls-13,.cls-8,.cls-9{fill:none;}.cls-10,.cls-8,.cls-9{stroke:#333;stroke-miterlimit:10;}.cls-9{stroke-width:2px;}.cls-10{stroke-width:0.97px;}.cls-11{opacity:0.59;}.cls-12,.cls-22{fill:#b3b3b3;}.cls-12{opacity:0.09;}.cls-14{fill:red;}.cls-15{fill:#009245;}.cls-16{fill:#f7931e;}.cls-17{fill:#00a99d;}.cls-18{fill:#fbb03b;}.cls-19{fill:#39b54a;}.cls-20{fill:#8cc63f;}.cls-21{opacity:0.42;}.cls-23{opacity:0.86;}.cls-24{fill:#09466e;}.cls-25{opacity:0.84;}.cls-26{opacity:0.02;}</style></defs><title>cookbook-cloudsAsset 45</title><g id="Layer_2" data-name="Layer 2"><g id="Layer_12" data-name="Layer 12"><path class="cls-1" d="M834.13,289.12c3.08,0,3.08-4.78,0-4.78s-3.08,4.78,0,4.78Z"/></g><g id="CookingCloud"><path class="cls-1" d="M1444.89,341.33a187.6,187.6,0,0,0-75.69,59.12c-4-33.45.48-45-46.62-61.8-35.78-12.79-78.28-15.76-115.95-5.87-59.43,15.61-101.7,62.9-96.14,109.84-32.75-8.79-70.87-9.7-101,3.31-34.31,14.82-51.61,53.14-37.14,81,8.73,16.77,66.59,41.13,90.37,29.87C1028,573.26,1002,647.33,1028.48,670.9s72,31,112.75,26.37,77.88-19.38,114.17-33.92c27,29.55,61.87,56.09,105.34,71.07s96.41,17.11,138.47,0c30.64-12.45,53-33.57,74.47-54.12,55.35,47.3,142.35,72.74,225.91,66.06S1961,701.08,2001.74,646.1a201,201,0,0,0,111.56,58.48c45.38,7.41,96.79-2.5,126.86-29s33.3-69.56,2.49-95.56c39.92-24,75.86-53.43,93.94-89.3s15.74-79-15.18-109.58-93.15-43.47-136.54-23.08c-26.41-25.87-62-48.3-104.58-54.88s-92.34,6.37-111.58,35.57c-42.44-13.71-87.42-26.65-133.5-23.85-57.84,3.52-107.48,31-152.48,58.44-6.54,4-13.7,8.18-22.12,8.46-6.45.21-12.56-1.93-18.37-4l-97.89-35.2c-16.93-6.08-34.6-12.3-53.38-12.24C1474.67,330.4,1459,335.23,1444.89,341.33Z"/><path class="cls-2" d="M1444.49,340.64a194.25,194.25,0,0,0-75.92,59.18l1.51.63c-1.66-14.2-.88-31.33-11-42.71-5.95-6.69-14.32-10.93-22.39-14.47a204.5,204.5,0,0,0-43.57-13.53c-55.46-10.63-119.07.86-158.39,44.12-17,18.72-28.32,43-25.59,68.76l1.69-1.29c-44.18-11.6-106.93-12.19-134.75,31.11-10,15.52-13.8,35.7-5.94,52.92,6.23,13.64,23.69,21.18,36.69,26.45,16.58,6.72,39.17,13.92,56.62,6.24l-1.47-2.52c-15.76,7.72-26.75,23.34-34.19,38.75-7.81,16.2-13.23,35.12-11.31,53.25s13.09,28.3,28.54,36.51c21.33,11.32,46.13,15.59,70.07,15.94,28.58.43,57-5.49,84.08-14.12,14.53-4.62,28.79-10,43-15.61,3-1.18,6-2.65,9.11-3.62,4-1.25,4.52-.58,7.32,2.36q7.29,7.63,15.11,14.76c39,35.42,87.84,59,140.61,63.48,29.62,2.53,60.42-.62,87.93-12.37,28.14-12,50.72-32.54,72.57-53.44h-2.24c47.62,40.33,110.12,61.23,171.71,66.41,64.07,5.39,130.12-7.44,186.37-39,27.93-15.67,53.27-36.19,72.55-61.89l-2.63.34c37.1,38.35,89.57,61.51,143.1,61.35,44.55-.13,103.62-16.46,119.12-63.95,7.88-24.15,0-49.32-19-65.82l-.33,2.59c45.71-27.65,98-67.59,105.34-124.56a91.19,91.19,0,0,0-20.31-70.57c-15.6-18.58-38.32-30-61.59-35.71-27.35-6.73-57.15-5.95-83,5.85l2.26.29c-31.41-30.57-71.77-53-116-56.79-36-3.06-81.67,5.91-103.35,37.71l2.44-1c-35.54-11.47-71.89-22-109.41-23.93-35.52-1.8-70.29,5.61-103,19.14a424.77,424.77,0,0,0-43.94,21.47c-6.61,3.67-13.15,7.47-19.65,11.34-7.84,4.67-15.73,10.6-24.44,13.54-9.43,3.19-18.3.42-27.29-2.8q-14.44-5.16-28.87-10.36l-55.23-19.84c-19.09-6.86-38.4-14.85-58.82-16.5-19.08-1.54-37.19,3.68-54.58,11.07-2.06.87-.28,3.88,1.76,3,17.49-7.42,36.24-12.11,55.34-10,18.26,2,35.61,9.08,52.76,15.25L1609.09,368l25.1,9c7.72,2.78,15.7,6.37,24,6.78,15.11.74,28.6-10.68,40.92-17.92,13.8-8.12,27.84-15.88,42.32-22.75,31.87-15.14,66.09-25.63,101.57-26.43,42.94-1,84.64,11.16,125.12,24.18a2.21,2.21,0,0,0,2.44-1c21.11-31,66.86-38.86,101.64-35.64,42.37,3.93,81.19,26,111.33,55.18a1.92,1.92,0,0,0,2.26.29c42-19.27,101.19-10,134.38,22.69A87.52,87.52,0,0,1,2346,451.55c-2,26.21-15.05,49.83-32,69.37-20.3,23.4-45.81,41.73-72.17,57.69a1.66,1.66,0,0,0-.33,2.59c17.12,14.89,25,36.94,19.16,59.17-5.93,22.43-23.68,38.66-43.84,48.79-44.73,22.49-100.19,20.32-145.79,1.75a200.2,200.2,0,0,1-68.09-46,1.72,1.72,0,0,0-2.64.34c-35.36,47.26-91.2,76.71-147.59,90.78-61.67,15.4-127.68,12.42-188-7.66-32.59-10.86-63.66-26.93-90-49.18a1.63,1.63,0,0,0-2.24,0c-16.53,15.82-33.35,31.58-53.1,43.36-21.16,12.63-44.87,19.57-69.37,21.64-47.7,4-95.74-8.7-136.27-33.83-21.31-13.22-40.38-29.66-57.35-48.08a1.46,1.46,0,0,0-1.47-.39c-53.87,21.58-110.9,43-169.85,32.42a133.71,133.71,0,0,1-36.9-11.88c-8.84-4.48-19-10.33-24-19.15-9.22-15.92-5-37.68.65-54,6.79-19.81,19.17-41.52,38.61-51.18,1.71-.85.21-3.27-1.47-2.52-14.44,6.45-33.21,1.27-47.35-3.58-13.33-4.58-31.11-11.6-39.75-23.5-10.74-14.78-6.75-36.92,1.68-51.65,10.8-18.83,29.4-30,50-35.21,27.31-6.92,56.48-4.75,83.52,2.32a1.35,1.35,0,0,0,1.69-1.29C1106.54,393,1149.5,354,1192.4,338.24c27.38-10.06,57.34-12.42,86.2-9a202.8,202.8,0,0,1,43.75,10.22c10.21,3.63,20.9,7.67,29.66,14.22,15.1,11.27,14.29,29.72,16.31,46.74.07.64,1,1.3,1.5.62A193.42,193.42,0,0,1,1445.29,342C1446.23,341.6,1445.42,340.23,1444.49,340.64Z"/><g class="cls-3"><path class="cls-4" d="M1026.21,653.28c37,45.85,113,32.09,197-1.78,9.15-3.7,43.72,34.56,51.68,40.22,45.9,32.69,103.72,54.56,161,47.54s111.45-48.45,117.84-101.94c49.84,61.64,124.23,110,206.91,114.9s217.84-53.89,239.56-128.36c48.33,24,91.23,71.54,146,70.43,39.89-.82,102-8,118-57.85,13.14-41-4.59-65.62-52.48-56.23-70,13.72-162.61,15.14-225.54-19.29-9.22-5-18.17-11-28.71-13.19-31.76-6.57-57.08,21.92-77.81,44.35-78.08,84.47-223.59,120.25-331,67.16-35.68-17.65-69.12-44.59-109.93-44.58-31.74,0-60.94,16.82-92.65,18.16-30.63,1.3-59.43-11.87-86.52-24.68-49.11-23.21-63.73-30.92-109.51-1.37-33.42,21.56-78.68,59-123.88,46.51"/></g><path class="cls-5" d="M1327.21,159.52c34.12,148.19,48.92,275.42,57.56,427.15,53.9-8.7,250.84-51.39,284.61-61,26.54-7.56,49.38,2.6,75.3,7.22,29.82,5.31,243.45,61.47,259.76,35.84,2-3.08,1.85-7,1.68-10.6-7.88-164.34-2.36-294.86-16.81-455.85a16.37,16.37,0,0,0-19.76-14.4c-25.6,5.35-70.55,10.34-77.4,12.87-34.83,12.85-129.69,41.26-239.5,71.17C1576.3,149.22,1326.58,156.77,1327.21,159.52Z"/><path class="cls-6" d="M1340.36,160q12.93,93.89,25.5,187.82l25.05,187.89,3.12,23.49,1.56,11.74.39,2.94.2,1.46a7.74,7.74,0,0,0,.27,1.25,8.57,8.57,0,0,0,2.76,4.24,8.69,8.69,0,0,0,7.2,1.92c.21,0,.42-.09.63-.13l.71-.19,1.43-.38,11.45-3,22.91-6.06,91.63-24.2,45.83-12c15.28-4,30.54-8.14,46-11.47a268.94,268.94,0,0,1,47-6.38,322.17,322.17,0,0,1,47.41,1.8c15.73,1.63,31.35,4.1,46.92,6.79l46.66,8.31,93.32,16.54,46.67,8.23,23.33,4.09,11.63,2a6.18,6.18,0,0,0,6.81-6.45c-3.42-31.33-6.23-62.88-8.1-94.42a1881.75,1881.75,0,0,1-2-189.57c1.27-31.58,3.16-63.12,2.78-94.65s-3.07-63.08-11-93.51l1.47,1.18a155.3,155.3,0,0,0-40.3,4.2,363.76,363.76,0,0,0-39.15,11.68l-77.39,27.38-77.41,27.38-38.74,13.63a199.5,199.5,0,0,1-19.81,5.85,92.71,92.71,0,0,1-20.62,2.52,111.12,111.12,0,0,1-20.62-2.11c-6.78-1.27-13.44-3-20.07-4.68-13.23-3.48-26.51-6.67-39.9-9.37s-26.86-5-40.41-6.74-27.16-2.93-40.81-3.65-27.32-.89-41-.75-27.34.62-41,1.25c-27.33,1.28-54.65,3-82,4.38l0-.3c27.32-1.59,54.61-3.62,82-5.16,13.67-.75,27.35-1.36,41-1.6s27.4-.12,41.09.48,27.37,1.74,41,3.39,27.15,3.86,40.6,6.51,26.81,5.8,40.06,9.23,26.56,6.62,40.08,6.55a91,91,0,0,0,20-2.53,198.69,198.69,0,0,0,19.52-5.86l38.66-13.77,77.36-27.52,77.39-27.46a369,369,0,0,1,39.48-11.81c13.42-3,27.25-4.85,41.12-4.29l1.18,0,.29,1.14c8,30.8,10.61,62.66,10.91,94.28s-1.65,63.25-3,94.79c-2.69,63.08-2.44,126.3,1.14,189.35,1.72,31.55,4.36,63,7.62,94.46a7.56,7.56,0,0,1-8.37,7.86l-11.7-2.09-23.32-4.21-46.64-8.35-93.31-16.64-46.67-8.19c-15.56-2.65-31.17-5.08-46.87-6.67a318.24,318.24,0,0,0-47.21-1.51A268.87,268.87,0,0,0,1627.4,527c-15.39,3.42-30.6,7.66-45.86,11.74L1535.77,551l-91.56,24.46-22.89,6.1-11.45,3.06-1.43.38-.73.19c-.27.06-.54.13-.82.18a11.68,11.68,0,0,1-3.34.11,11.47,11.47,0,0,1-9.67-8.19,12.74,12.74,0,0,1-.34-1.63l-.19-1.48-.39-2.93-1.53-11.75-3.06-23.5L1364,348q-12.12-94-23.93-188Z"/><path class="cls-7" d="M1415.94,575.06c51.78-18.7,103.83-36.75,155.37-56.1,22.14-8.31,112.9-21.44,112.9-21.44s87.6,11.65,128,19c88,16,155.66,24.38,155.66,28.92.17-82.69-.16-146-.16-228.42-2-62.56-1.42-143.67-1.42-206.33.1-17-29.08-36.17-29.08-36.17s-101.56,4.14-171.5,34.5c-53,23-119,53-119,53s-78.09-27.71-180-36c-18.5-1.5-76.5,1.5-76.5,1.5s-28.87,24.21-26,37c17.61,78.61,33,198.72,41.62,278.82C1407.19,455.88,1422.94,572.53,1415.94,575.06Z"/><path class="cls-6" d="M1929.86,75c0,.26-.2.27-.28.32a1.19,1.19,0,0,1-.28.1l-.55.12c-.36.06-.73.11-1.09.15-.73.08-1.45.15-2.18.2-1.45.11-2.9.2-4.36.26l-8.71.4-17.4.85q-17.38.93-34.67,2.92a256.41,256.41,0,0,0-34.13,6.08c-11.15,3.07-22.3,6.32-33.32,9.91s-21.93,7.52-32.7,11.85c-5.39,2.14-10.72,4.44-16,6.76l-7.92,3.63-7.84,3.78c-5.2,2.59-10.41,5.16-15.51,7.92-2.57,1.35-5.12,2.75-7.66,4.16s-5.09,2.79-7.61,4.23L1690,143l-7.5,4.42-7.47,4.49c-1.26.74-2.44,1.51-3.77,2.24a26.84,26.84,0,0,1-4.1,1.83,46.17,46.17,0,0,1-17.57,1.91,102.83,102.83,0,0,1-17.39-2.71c-5.7-1.33-11.31-3-16.86-4.8s-11-3.67-16.56-5.31q-16.63-5-33.67-8.49a333.67,333.67,0,0,0-34.26-5.35c-23-2.39-46.25-2.27-69.46-1.67-11.61.32-23.23.64-34.86.88a89.16,89.16,0,0,0-33.8,6.74l-.13-.27a85.12,85.12,0,0,1,16.51-5.72c2.85-.67,5.73-1.2,8.63-1.61s5.85-.57,8.74-.68c11.61-.51,23.21-1.22,34.83-1.7s23.25-.85,34.91-.83,23.32.56,35,1.67a307.53,307.53,0,0,1,34.58,5.49q17.12,3.67,33.85,8.84c5.56,1.72,11.12,3.6,16.58,5.51s11,3.6,16.58,5a108.08,108.08,0,0,0,17,3,44.29,44.29,0,0,0,16.91-1.43,24.53,24.53,0,0,0,3.88-1.64c1.24-.64,2.52-1.43,3.77-2.13l7.56-4.35,15.21-8.54c2.53-1.43,5.09-2.8,7.65-4.19s5.11-2.77,7.69-4.11q7.71-4.08,15.49-8l7.82-3.86,7.88-3.74c5.27-2.46,10.56-4.9,15.91-7.18q16.05-6.9,32.56-12.67t33.46-10.09a256.6,256.6,0,0,1,34.53-5.81c11.59-1.25,23.23-1.83,34.85-2.21,5.82-.2,11.63-.26,17.45-.3l8.71-.08,4.35-.07c.73,0,1.45,0,2.17-.09.36,0,.72,0,1.08-.1l.52-.08.24-.07c.07,0,.12-.1.1,0Z"/><path class="cls-8" d="M1371.2,199.5c8.39,27.87,12.24,58,18.23,86.71q3.12,14.9,6,29.86c7.3,37.48,13.41,75.22,16.89,113.26,4.3,46.92-3.28,97.23,7,143.23.5,2.21,143.19-42,156-46.48C1601.43,517,1683.71,498,1683.71,498s102.64,14.29,129,19c84,15,100,6,146.29,18.14-4.71-159,12.43-265.18,7.71-424.14"/><path class="cls-9" d="M1433,550.53c-7.89-58.65.43-118.5-6.49-177.27-3.86-32.71-12.39-64.67-20.89-96.49l-33.1-123.84c16.14,34.1,32.68,56.92,42.43,93.36,28.12,105.15,28.38,215.46,28.46,324.31"/><path class="cls-6" d="M1392.55,136.74l5.72,12.37c.94,2.07,1.92,4.12,2.82,6.21l2.68,6.27c1.75,4.19,3.61,8.35,5.28,12.58l5,12.68c6.4,17,12.52,34.17,17.59,51.65l1.94,6.53,1.79,6.59c1.17,4.39,2.41,8.77,3.53,13.17,2.15,8.84,4.43,17.64,6.38,26.52s3.89,17.76,5.79,26.65c.5,2.21.86,4.46,1.29,6.69l1.3,6.69L1455,338l1.15,6.72,2.27,13.45,1.95,13.5c.69,4.5,1.19,9,1.73,13.53l.8,6.78c.27,2.26.53,4.52.72,6.78l1.25,13.59c.23,2.26.38,4.53.53,6.8l.47,6.81c.7,9.07,1,18.17,1.39,27.25.74,18.15,1.31,36.3,3.19,54.35.92,9,2.2,18,4,26.89a210.35,210.35,0,0,0,7,26.29l-.19.06c-6.43-17-10.19-35-12.34-53.07-1.06-9-1.8-18.12-2.38-27.2s-.91-18.16-1.31-27.24-.79-18.14-1.41-27.2l-.42-6.79c-.13-2.27-.26-4.53-.47-6.79L1461.71,399c-.17-2.27-.41-4.52-.66-6.78l-.73-6.77c-.48-4.51-.92-9-1.55-13.52L1457,358.41l-2-13.47-1-6.73-1.17-6.71c-.79-4.47-1.54-8.95-2.43-13.41l-2.74-13.34c-.44-2.23-.92-4.45-1.46-6.66l-1.57-6.62c-1.07-4.42-2-8.86-3.25-13.23l-3.53-13.16c-1.22-4.37-2.54-8.72-3.81-13.08l-1.91-6.53-2.05-6.49L1426,226c-1.45-4.3-2.9-8.6-4.31-12.91s-2.93-8.59-4.45-12.87l-2.27-6.42-1.14-3.2-1.21-3.19-4.81-12.74c-1.58-4.25-3.35-8.43-5-12.66-3.28-8.47-7-16.76-10.44-25.17Z"/><path class="cls-6" d="M1941.32,516l2.09-54.55q1-27.32,1.8-54.65c1.12-36.44,1.76-72.89,2.36-109.34l1.84-109.36,1-54.69Q1951,106,1952,78.7l1.08,0L1948.57,188q-2.21,54.65-3.94,109.3l-.79,27.34-.7,27.33-.63,27.34-.5,27.33C1941.42,443.11,1941.41,479.67,1941.32,516Zm0,.2c-1-36.63-1-73-.75-109.49l.26-27.35.41-27.35.59-27.35.75-27.34c1-36.45,2.52-72.89,4.13-109.32s3.49-72.85,5.31-109.26l1.08,0q-1.12,27.32-1.88,54.65l-.68,27.34-.41,27.34c-.51,36.45-.48,72.91-.88,109.38-.24,18.22-.45,36.46-.91,54.68s-1,36.46-1.59,54.68-1.44,36.44-2.29,54.65c-.42,9.1-.92,18.21-1.43,27.31l-.79,13.65-.43,6.9C1941.63,511.64,1941.45,513.91,1941.31,516.16Z"/><path class="cls-6" d="M1937.14,74.54c.43,17.08.55,34.15.63,51.23s0,34.15-.28,51.22l-.61,25.6c-.21,8.54-.42,17.08-.53,25.61-.21,17.07-.17,34.15,0,51.22s.25,34.15.21,51.23,0,34.15-.18,51.22c-.4,34.15-1,68.29-2.2,102.43h-.3c-.71-34.15-.8-68.3-.7-102.45.08-17.07.33-34.14.56-51.22s.55-34.14,1-51.21.67-34.14.71-51.22c0-8.53-.07-17.07-.17-25.61L1935,177c0-17.07.17-34.15.46-51.22s.71-34.14,1.39-51.21Z"/><path class="cls-10" d="M1660.5,169.6c9,24.7,10.72,51.07,11.73,77.07,3,77.43,16.75,155.38,8.48,232.35"/><g class="cls-11"><path class="cls-1" d="M1425.21,196.29a204.87,204.87,0,0,1,10.14,25.33c32.93,96,44.84,311.76,53,313.93,9.85,2.63,60.18-28.42,81.26-29.57,9-.49,19.85-2.6,22.21-10,2.16-6.77-4.39-13.18-9.22-19-10.77-13-14.57-29.86-10.15-45,1.21-4.14,3-8.3,2.38-12.56-2.22-15.13-30.24-17.88-36.57-32.23-6.41-14.53,13.59-31.2,4.3-44.61-2.29-3.31-6-5.68-9.34-8.3-9.78-7.76-16.28-18.44-18-29.61-2.23,3.71-9,3.75-12.9,1.11s-5.71-6.91-7.21-10.94a345.9,345.9,0,0,1-14.87-52.12c-2.79-13.87-5-28.51-14.82-40S1421,136,1408.21,144.52c6.14.84,24.09,56.51,21.07,61"/></g><path class="cls-12" d="M1760.85,126.63a122.21,122.21,0,0,1-21.55,54.89c-4.59,6.46-10.08,13.2-9.9,21.12.09,4.13,1.75,8,2.93,12a53.5,53.5,0,0,1-1.55,34.81c-2.75,6.89-7,13.8-5.91,21.13,1.6,10.43,13.21,16.3,17.44,26,7.75,17.7-11.81,35.45-14,54.66-.92,8,1.29,16,1.75,24.08.8,14-3.64,27.65-8,40.94l-21.52,65.2c-7.08-48.22,5.26-97.6-.8-146-2-16.07-6-31.81-9.27-47.68a495,495,0,0,1-8.11-55.93c-1.36-15.65-6.67-41.28-1.7-56.35,4.12-12.5,22.82-20.62,34.51-27.26C1720.05,145.46,1760.47,129.57,1760.85,126.63Z"/><path class="cls-13" d="M1747.59,0h1.33"/><path class="cls-14" d="M1869.84,217.6a9.78,9.78,0,0,0-10.75-4.2c-5.06,1.6-8.07,6.71-8.56,11.77-1.07,11.13,9.56,18.59,19.86,17.82,9.42-.71,23.82-8.23,18.12-19.8-4.62-9.37-21.49-12-25.19-.77-2,6.11,5.57,11.88,11,8.42,1.13-.6,1.19-.73.17-.37a5.06,5.06,0,0,1,1.1.27,6.29,6.29,0,0,1,1.34.48c.4-3.9-.07-5.28-1.43-4.17-.68-.09-3.58,1.7-4.47,1.9a8.87,8.87,0,0,1-4.28.2c-6.37-1.7-.52-8.4,2.75-10.07a1.1,1.1,0,0,0,.39-1.48Z"/><path class="cls-15" d="M1866.12,214.59a3.84,3.84,0,0,1-2.44-2.68l-1.4,2.46a6.5,6.5,0,0,1,6.77,3.82,2.15,2.15,0,0,0,2.6,1.47,12.46,12.46,0,0,1,3.88-.78l-1.82-1c-.29-.51,1.21.6.61.48a2.19,2.19,0,0,0,1.56-.65,2,2,0,0,0,.56-2.13,2.25,2.25,0,0,0-2.7-1.54c-3.57.51-5.1,6-1.49,7.65s6.89-2.76,5.1-5.94a2.12,2.12,0,0,0-1.82-1.05,16.44,16.44,0,0,0-5,.93l2.6,1.48a10.41,10.41,0,0,0-11.9-6.56,2,2,0,0,0-1.4,2.46,7.7,7.7,0,0,0,4.86,5.05c2,.76,3.38-2.56,1.44-3.43Z"/><path class="cls-15" d="M1868.63,217.36c3.9,1.08,7.92.59,11.83,1.45,4.53,1,4.56-6.42,0-5.43-3.92.85-7.93.36-11.83,1.45a1.32,1.32,0,0,0,0,2.53Z"/><path class="cls-16" d="M1812.29,231.86c3.26,2.6,3.67,6.76,5.51,10.36,2.29,4.5,6.3,7.58,8.9,11.73,5.08,8.09,9.21,16.69,15.27,24.17,3.15,3.88,9.14-1.09,6.78-5.23-2.72-4.77-5.87-9.3-8.62-14.05-1.52-2.63-3.14-5.28-4.43-8s-1.7-5.49-2.39-8.33c-1.93-8-6.91-24.68-18.16-21.47-4.28,1.22-6.84,7.69-2.86,10.85Z"/><path class="cls-17" d="M1821.47,223.28a115.41,115.41,0,0,0-20.37-27.54l-2,2A77.58,77.58,0,0,1,1819.29,230l1.89-.79c-5-9.76-13.2-17.1-21.57-24l-1.82,2.37a60.57,60.57,0,0,1,14.84,13.68l1.11-2.69a22.39,22.39,0,0,1-9.15-3l-1.74,3a16.71,16.71,0,0,1,7.38,5.83l2.49-2.49-9.65-4.3c-2.07-.92-3.91,2-1.82,3.12,4.45,2.4,8.87,5.24,13.5,7.27,1.81.79,3.7,1.51,5.44.1,4.18-3.4.25-11.53-1.71-15-.94-1.68-4-.52-3.21,1.35,1.68,4,3.32,8,5.09,12,.77,1.73,3.78.48,3.08-1.3-1.52-3.9-3.18-7.75-4.78-11.61l-3.21,1.35a22.33,22.33,0,0,1,2.64,6.94l.23,2.14q-1.71,1.95-3.45.09c-4-1.34-8.06-4.37-11.8-6.4l-1.82,3.12,9.63,4.32c1.47.66,3.65-.83,2.49-2.49a18.47,18.47,0,0,0-9.19-7.15c-1.83-.68-3.09,2.29-1.33,3.16a31,31,0,0,0,10.89,3.14c1.52.15,1.86-1.75,1.12-2.69A62.89,62.89,0,0,0,1799.31,205c-1.41-.91-3.17,1.27-1.83,2.36,8.32,6.73,16.65,13.35,21.92,22.88a1,1,0,0,0,1.88-.8,78,78,0,0,0-20.18-33.68,1.41,1.41,0,0,0-2,2,127.65,127.65,0,0,1,20.09,26.87c.83,1.48,3.06.17,2.27-1.32Z"/><path class="cls-17" d="M1804.52,198.9c2.41-1.64,2.74-3.49,2.43-6.26a1.45,1.45,0,0,0-2.43-1c-2,1.71-5.41-.7-7.52-1.08s-4.37-.13-5.75,1.61a4.85,4.85,0,0,0,.41,6.18c2,2.3,5,2.28,7.78,2l-1.86-1.41a3.47,3.47,0,0,1-.49,2.61,1.89,1.89,0,0,0,1.62,2.82c1,0,3.33-.12,3.75,1a1.5,1.5,0,0,0,2.89-.8c-.46-3.2-3.9-4-6.64-4l1.62,2.83a8.49,8.49,0,0,0,1-5,2,2,0,0,0-1.93-1.93,9.26,9.26,0,0,1-3.67-.17c-1.21-.44-1.72-1.63-.51-2.09s3.34.73,4.48,1.05c2.63.74,5.57.8,7-1.89l-2.24.29c1.26,1.18.49,3.64-.45,4.66-.28.29.08.83.45.59Z"/><path class="cls-17" d="M1806.11,215.79a39.73,39.73,0,0,1-1.34-6.75l-1.58,2.07q-4.59,2.59-3.75-.55l-1.81.49-.41,2.55,1.52.4a16.2,16.2,0,0,0-4.38-5.54c-.3-.24-5.94-4-6.07-3.92l-1.85-1.42-3.07-.05.69,1.72.71-1.16a1.54,1.54,0,1,0-1.19-2.83,3.67,3.67,0,0,0-2.45,3.18,1.58,1.58,0,0,0,.7,1.72c3.18,1.67,7.17,1.83,7.54-2.58a1.48,1.48,0,0,0-1.86-1.41,3.16,3.16,0,0,0-1.86,4.74,5.66,5.66,0,0,0,2.71,2c3.54,1.76,6.21,3.31,8.47,6.71a1.1,1.1,0,0,0,1.51.4c1.88-1.42,2.48-3.47,1-5.44a1,1,0,0,0-1.81.49c-.24,4.5,4,8.81,8.46,5.88,4.23-2.79,1.54-8.16-2.77-8.6-1.16-.12-1.74,1.13-1.58,2.07a20.31,20.31,0,0,0,2.53,6.71,1.08,1.08,0,0,0,2-.83Z"/><path class="cls-18" d="M1817.79,234.65a16.27,16.27,0,0,0,13,1.46l-1-2.48c-3.61,2.05-6.79,2.15-10.8,2.23a1,1,0,0,0-.82,1.43,11.3,11.3,0,0,0,12.12,5.2c1-.2,1.09-2,0-2.15a7.54,7.54,0,0,0-7.91,3.45,1.13,1.13,0,0,0,.67,1.64c2.66,1,5.32,2,8,2.86l-.56-1.38c-1.5,3.2-1.15,6.52,1.51,9,.57.53,1.43-.32.86-.86-1.76-1.67-2.24-5.17-.75-7.15a1,1,0,0,0-.34-1.29c-2.69-1.14-5.41-2.21-8.13-3.29l.67,1.64a5.84,5.84,0,0,1,5.68-2.39l-.29-2.19a9.16,9.16,0,0,1-9.89-4l-1.07,1.4c4.15,1.44,8.66.25,12.42-1.76,1.33-.71.42-3-1.05-2.48a14.18,14.18,0,0,1-11.36-.46c-1.08-.51-2,1-1,1.62Z"/><path class="cls-18" d="M1834.06,261.44l2.86,1.83c.25.16.48-.24.23-.4l-2.8-1.91c-.3-.2-.59.29-.29.48Z"/><path class="cls-19" d="M1878.91,257.51a14.54,14.54,0,0,0-16.12,7.61c-3,6.2.06,13.73,6.14,16.69,4.5,2.19,14,.35,12.18-6.53a4.65,4.65,0,0,0-2.32-2.9,5.9,5.9,0,0,0-2.08-.63l-.75-.1c-1.12-.26-1.33-.12-.64.41a9.17,9.17,0,0,1,1.6,2.16h-1.4c-.74-.73-1-2.6-1.16-3.56a13.13,13.13,0,0,1,.9-7.19h-5.45l-.69,2.58c1.46-1.17,3.7-2,5.23-.56,1,1,1.33,3.37-.87,3.31l2.51,1.91a2.18,2.18,0,0,1,1.25-2.77l-3.54-3.53c-1.62,3-4.78,3.59-7.88,4-2.21.28-4.41,2.15-3.56,4.67,1.39,4.14,5,7.16,9.53,6.91,4-.23,5.28-6.37,1-7.28-1.84-.38-2.8-.8-3.77-2.47l-1.33,5.05c4.13-1.95,8.19-4.13,10.49-8.25a2.61,2.61,0,0,0-3.54-3.54,7.6,7.6,0,0,0-3.66,8.61,2.63,2.63,0,0,0,2.51,1.91c5.23.18,8.49-5.82,6.3-10.39-2.76-5.77-10.29-4.62-14.42-1.32a2.61,2.61,0,0,0-.68,2.59c2.19,7.24,12.14,4.56,10.58-2.83-.6-2.86-4.3-2.23-5.18,0-2,5.09-1.89,20.18,6.91,18.76,7.78-1.25,6.67-12.86-.75-13.82-7.78-1-9.88,10.31-1.32,10.28l.43-.62a2.38,2.38,0,0,1-2.13.52,5.48,5.48,0,0,1-3.26-1.52,7.65,7.65,0,0,1-2.73-6.07c.44-5.33,6.44-7.86,11.09-7.73,2.45.07,3-3.82.59-4.33Z"/><path class="cls-15" d="M1866.83,279.39c9.81,7.74,20.93-4.46,15.45-14.59l-2.53,4.4a7.22,7.22,0,0,0,6.46-5.13c.68-2,.41-3.86.51-5.89,0-.65-.28-2.19.4-2.67a4.59,4.59,0,0,1,.32,3.54c.36,1.81-.44,2.9-2.4,3.25l2.28,4-2.41,1.87c-1.53,2.66,1.89,5,4.07,3.14a3.61,3.61,0,0,1,4.34-.41l-1.86-1.85q-1.45-4.61,2.84-3.92l3.92,1,.73-3.39-4-1.05c2,3-.31,5.29-2.57,7.11-.68.54-4.36,2.25-4.26,3.22-.39-3.8-5.95-4-6,0,0,1.29-2.21,2.46-2.92,3.44a7.15,7.15,0,0,0-1.38,3.62,4.26,4.26,0,0,0,3.38,4.76V279c-1.44.45-5.51,2-5.29-.93.24-3.31-4.65-3.13-5.07,0-.91,7,7,7.41,11.71,5.81a2.56,2.56,0,0,0,.6-4.62c.47.29,3.57-3,3.76-3.29a6.75,6.75,0,0,0,1.26-3.91h-6c.39,7.56,8.08,5.93,12.43,2.84,5.21-3.68,9.81-9.94,5.51-16.13-.85-1.22-2.63-2-4-1.05-3.91,2.7-5.14,7.15-2.72,11.34a2.89,2.89,0,0,0,3.92,1c4.44-3.1,3.23-10.23-2.4-11.12-6-.95-11.17,6-9.18,11.57,1.81,5,9.63,5.61,11.1-.05,1.83-7.05-8.18-5.65-11.4-2.83l4.08,3.15c1.45-2.62,2.64-6.28-.27-8.39a4.31,4.31,0,0,0-6.36,1.23,2.66,2.66,0,0,0,2.28,4,8.41,8.41,0,0,0,7.78-5.8c1.11-3.28.7-9.35-1.61-12.11-2.09-2.48-6.13-1.4-8.15.59a8.54,8.54,0,0,0-2.25,4.56c-.4,2.1,1.12,8.09-1.84,8.65a2.94,2.94,0,0,0-1.75,4.29c3.89,6.28-2.79,10.7-8.61,8.58-1.66-.6-3.21,1.93-1.78,3.06Z"/><path class="cls-20" d="M1874.33,282.28a11.32,11.32,0,0,0,10.92-.78,14,14,0,0,0,4.38-4.12c1-1.48,1.07-4.81,2-5.87l-2.49.66q5.38,3.4-.88,6l2.67,2c-1-3.08.09-4.07,2.59-5.8,1.67-1.15,1.22-1.48-.08.35-1.64,2.34-3.6,4.93-6.13,6.38-5.64,3.22-14.41-1.4-20.38-2.3-4.18-.62-6.08,5.26-1.79,6.51,6.46,1.89,16.36,5,22.92,2.27,4.76-2,10.33-7.79,11.9-12.8s-3.81-6.86-7.93-5.83c-5.7,1.42-8.3,7.35-6.44,12.69a2.82,2.82,0,0,0,2.67,2c7.94-.66,12.72-11.39,4.48-15.79-2.9-1.54-5.16-.48-6.07,2.53-.85,2.83-.5,5-2.81,7.24a11,11,0,0,1-9.05,2.76,1,1,0,0,0-.5,1.84Z"/><path class="cls-20" d="M1864.89,259c-5.46,1.18-4,8.59,1.5,8.16l-.72-2.67c-4.32,2.69-7.37,9-4,13.67.84,1.17,3.07.92,3-.8-.24-4.06-.38-7.55,2.8-10.62a1.45,1.45,0,0,0-.64-2.4c-1.7-.38-.88-1.77-.2-2.44a1.75,1.75,0,0,0-1.68-2.9Z"/><g class="cls-21"><path class="cls-1" d="M1791.57,154.15c8-4.27,15.93-8.88,24.22-12.69s18-8.4,27.14-9.6c8.71-1.15,17.93-.77,26.67-.2a143.5,143.5,0,0,1,25.06,3.74V100.93c-4.62,1.41-9.36,2.33-13.92,3.91a168.46,168.46,0,0,0-17,7.43q-6.72,3.2-13.51,6.21c-2.27,1-4.55,2-6.82,3s-2.28,1,.22-.07l-2.57,1.06c-18,7.48-36.93,11.6-55.58,17.23a26.33,26.33,0,0,0-18.8,28.79c1.67,12.44,12.65,23.22,25.77,22.76,16.3-.57,32.58-1.94,48.85-3s32.52-.87,48.85-.77l-14.37-53c-4.21,2.9-8.36,5.73-12.43,8.85l2.82-2.17-2.34,1.79-3.89,3-15.55,11.94c-11.9,9.13-24.35,17.88-35.61,27.77-9.64,8.46-12,26.56-4.81,37.26,7,10.47,16.91,18.24,29.51,20.76,8.42,1.69,16.59,1.16,25,2.13l-7.93-1.07a38.14,38.14,0,0,1,7.5,1.88l-7.14-3c1.53.64,2.86,1.58,4.33,2.28a18.73,18.73,0,0,1-7.5-7.55,9.8,9.8,0,0,1,1,1.94l-3-7.15a9.86,9.86,0,0,1,.59,2.19l-1.07-7.95a10,10,0,0,1,.07,2.38l1.07-8a19,19,0,0,1-.82,3.51l3-7.16c-1.51,3.52-3.92,6.47-5.81,9.76-4.8,8.35-7.16,17.49-5.88,27.06,1.44,10.71,6.64,19.29,15.18,25.89,4,3.11,8.63,5,12.63,8.09l-6.21-4.8a11.74,11.74,0,0,1,1.61,1.62l-4.8-6.2A15.28,15.28,0,0,1,1857,282l-3.08-7.31a16.41,16.41,0,0,1,.8,2.78l-1.09-8.13a22.26,22.26,0,0,1,.1,4l1.09-8.11c-.63,4.54-2.36,8.8-3.9,13.1a69.08,69.08,0,0,0-4.17,20.5,44.54,44.54,0,0,0,12,31.65,53.35,53.35,0,0,0,5.85,5.18c1.11.9,2.13,1.92,3.23,2.82q2.46,2.53-2.49-3.43a17.47,17.47,0,0,1,1.39,2.5l-3.07-7.27a22.72,22.72,0,0,1,1.46,5.49l-1.09-8.07c.58,5.57-.11,11.07-.38,16.64-.41,8.18.4,16.85,3.31,24.53,3.22,8.47,7.3,14.77,12.36,22.09a45.26,45.26,0,0,0,6.24,7.6,21.13,21.13,0,0,0,9.08,5.83q7.13,3-.78-.31c2.64,1.22,5.5,2.47,8.15,3.48,1.79.68,3.06,2.4-.8-.2l-6.68-6.69c.5,1,1,2,1.49,3,.64,1.36.34,2,.09.46a44.12,44.12,0,0,0,2.19,7.36c1.59,4.51,2.67,9.18,4.39,13.64a49.67,49.67,0,0,0,3.19,7.46c1.06,1.82,1.65,2.22,1.94,4.19.69,4.79-.82,10.3-1.82,15-1.86,8.64,10.73,12.21,13.29,3.66,1.64-5.44,2.67-11,4-16.53.56-2.38,1.51-3.64,2.85-5.67a30.24,30.24,0,0,0,3.67-8.84,64.63,64.63,0,0,0,1.65-18.2,50.29,50.29,0,0,0-1.57-11.33c.46,1.69.11,1.17-.13-.29-.44-2.73-.72-5.49-1.14-8.22v9.91c-.24.71-1.72,3.57-.49,1.46a49.74,49.74,0,0,0,3.12-7.19,31.86,31.86,0,0,0,2.5-11.88c0-9.46-4.43-17.38-8-25.89l3,7.18c-1.88-4.59-3.87-9.11-5.9-13.63l3.06,7.26a37.71,37.71,0,0,1-2.34-8.12l1.08,8.07a75.52,75.52,0,0,1,.1-13.78,80.31,80.31,0,0,0-1.12-20.79,47,47,0,0,0-9.48-20.2c-3.45-4.46-7.8-7.93-11.26-12.33l4.87,6.31a26.7,26.7,0,0,1-2-3.33l3.14,7.45a18.75,18.75,0,0,1-1.07-4.1l1.11,8.26a26.65,26.65,0,0,1,.16-5.43l-1.1,8.23c1.83-11.17,6.66-20.83,6.92-32.47.24-10.91-4.22-21-11.3-29-4.88-5.57-11.34-8.22-17.11-12.43l6.25,4.82a10.24,10.24,0,0,1-1.68-1.61l4.83,6.26a15,15,0,0,1-1.7-3.06l3.11,7.37-.28-1.07,1.1,8.19a12.63,12.63,0,0,1,0-3.25l-1.1,8.15a25.52,25.52,0,0,1,1-3.29l-3.07,7.29c3-6.76,7-13.06,9-20.28a40.49,40.49,0,0,0-9.85-38.26,49.61,49.61,0,0,0-23.79-13.34c-7.77-1.87-15.64-1.63-23.49-2.56l8,1.07a37.64,37.64,0,0,1-8.81-2.19l7.26,3.06c-3-1.42-3.45-3.1,2.07,2.25-3.38-3.27,4.33,6.84,1.82,2.37l-11,42.07c12.07-9,23.34-19,34.79-28.83,10-8.51,20-16.91,29.44-25.93,8.28-7.87,10.2-20.88,5.89-31.09-3.94-9.33-15-18.92-26-17.49-16.29,2.1-32.45,4.3-48.85,5.23s-32.6,1.56-48.85,3l7,51.55c20.39-7.34,39.3-17.72,58.94-26.79q13.45-6.21,26.61-13.06a91.77,91.77,0,0,0,12.77-7.52c5-3.79,9.54-8,14.28-12.12,5.71-5,6.86-15.36,2.8-21.65-4.53-7-12.09-9.83-20.19-8.22-19.74,3.94-37.46,11.61-55.41,20.43-8.64,4.24-17.85,7.14-26.42,11.64-8.87,4.66-17.35,9.85-24.84,16.52-2.58,2.3.71,6.16,3.58,4.63Z"/></g><path class="cls-22" d="M1449.25,174.26a25.22,25.22,0,0,0,0,19.68c2,4.53,6.17,9.31,11.68,8.28,5.14-1,8.62-6.81,10.12-11.35A22.84,22.84,0,0,0,1470,174c-.85-1.87-3.72-1.23-4.21.55-1.65,6-3.7,19.81,3.61,23.2,2.69,1.25,5.56.2,7.59-1.73,2.89-2.73,3.52-9.61,7.18-11l-2.94-1.2a17.62,17.62,0,0,1,1.47,8.76c-.12,1.93,1.81,2.84,3.41,2.6,6.49-1,11.2-5.24,13.45-11.31,1.29-3.47-4.15-4.86-5.48-1.52-1.66,4.17,1.7,8.31,5.9,8.9,5.2.73,8.59-4.11,10.36-8.27l-3.85,1c3.08,1.61,3.77,5.63,6,8.12a8.36,8.36,0,0,0,8.1,2.75c3.52-.72,6.19-3.24,8.43-5.89a28.78,28.78,0,0,1,3.73-4.14,4.94,4.94,0,0,1,8.21,3.92c0,3.49,5.24,3.46,5.4,0,.27-5.68,12.28,4.27,14.23,5,3.59,1.32,7,.94,9.83-1.58h-3.78c4.17,4.2,9.78,1.64,14.94,1.57,3-.05,23.38,2.52,22.84,7-.43,3.58,5.79,3.77,5.72,0-.14-6.85-8.82-8.47-14-10a56.69,56.69,0,0,0-11.75-2.3c-3.12-.22-11.66,2.22-13.94-.08a2.74,2.74,0,0,0-3.78,0c-3.45,3-8-2.31-10.56-4.13a12.21,12.21,0,0,0-6.76-2.69c-4.42-.11-8.12,2.72-8.36,7.19h5.4c.05-8.36-9.1-13.64-16.14-8.84-3.37,2.3-8.53,12.31-13.42,8.68-1.52-1.13-2.23-3.88-3.25-5.45a11.21,11.21,0,0,0-4.24-4c-1.22-.64-3.23-.43-3.85,1a10.75,10.75,0,0,1-1.74,3.32c-.57.59-5.15,3-4.18.42l-5.48-1.52c-1.53,4.39-4.92,6.88-9.4,7.64l3.4,2.59a23.67,23.67,0,0,0-2.35-11.4,2.63,2.63,0,0,0-3-1.2c-4.14,1.68-5.23,4.72-7,8.55-.88,1.91-1,3.64-3.51,3.72s-2.31-1.32-2.74-3.55a29.1,29.1,0,0,1,.69-12.89l-4.21.55c3.07,6.49,2.37,17.37-5.19,20.39-3.18,1.26-4.65-.28-6.29-3.1a18.34,18.34,0,0,1-2-5.53,22.56,22.56,0,0,1,1-12.62c1-2.76-3.29-3.84-4.34-1.2Z"/><path class="cls-22" d="M1466.26,232.88c1.82,2.94,5.63,3.11,8.2.82,1.67-1.49,2.06-3.7,2.58-5.75.23-.93,1.39-5.86,3.54-4.59.68.4.39,3.31.42,4,.16,3,.72,6.36,4.21,7,5.42,1,6.85-5.12,6.71-9.15l-4.13,1.12,1.76,2.72a2.26,2.26,0,0,0,3.86,0c2.46-3.37,7.5-2.07,9,1.35,1.06,2.38,4.12.8,4.36-1.18q5.55-7.29,7.46.23a2.51,2.51,0,0,0,4.63,1.26,8.34,8.34,0,0,1,8.32-3.16c2.67.63,4.48,2.79,6.6,4.36,3.08,2.28,7.2,3.84,10.72,1.48,5.87-4,1-12.9-5.2-9.43a2.72,2.72,0,0,0-1.21,3,120.6,120.6,0,0,0,6.43,25.44c1.33,3.55,7.11,1.93,5.7-1.57a121.11,121.11,0,0,1-7.08-25.26l-1.2,3c-3.81,2.25-7.47-3.09-10.43-4.7a12.75,12.75,0,0,0-6.17-1.48,13.46,13.46,0,0,0-10.77,5.89l4.63,1.25c-.93-11.15-15.91-11.41-17.11-.23l4.36-1.18c-3.15-6.84-12.74-7.13-16.92-1.25h3.86l-1.79-2.7c-1.14-1.73-4.24-1.21-4.13,1.12q.72,2.64-2.1,4a17.67,17.67,0,0,1-.17-2.3,20.6,20.6,0,0,0-.28-3.51,5.17,5.17,0,0,0-9.35-2.45,9.14,9.14,0,0,0-1.78,3.06c-.09.27-2.22,10.07-4.23,6.93-1.33-2.08-4.63-.18-3.32,1.94Z"/><path class="cls-22" d="M1482,256.64l-.06-.57a2,2,0,0,0-1.39-1.82c-4.24-.95-5.93,3.66-7,7-1.45,4.55-1.34,9.89,2.29,13.41,3.29,3.2,8,3,11.61.51,4.87-3.31,6.88-9.25,7.29-14.86.21-2.95-4.22-3.36-5-.67a8.59,8.59,0,0,0,6.86,11.15c1,.15,2.43-.08,2.91-1.19a27.76,27.76,0,0,0,.57-22.1c-1-2.63-5-2.4-5.09.69a38.8,38.8,0,0,0,2.28,15.32c1.35,3.6,3.46,9.06,7.1,11a6.63,6.63,0,0,0,7.87-1.82c3-3.48,2-8,.72-12l-4.79,2a9.27,9.27,0,0,0,11.18,4,8.71,8.71,0,0,0,2.54-1.42c.57-.48,1.48-2.16,2-2.37,3.27-1.37,5.63,6.09,7.09,8s4.41-.15,3.73-2.17q2.71-3.5,4.63-.92a13.71,13.71,0,0,0,1.61,1.13,11.87,11.87,0,0,0,3.06,1.14,14.26,14.26,0,0,0,8-.73c5.83-2.2,9.5-7.68,12.58-12.78l-4.78-2a4.06,4.06,0,0,0,1.44,4.42c1,.85,2.32,1.05,3.5,1.56a9.11,9.11,0,0,1,4.4,3.77c2.76,3.83,7.24,7.92,12,4.59,2.6-1.81.17-6.09-2.5-4.29-3.1,2.07-6.39-5.3-8.26-6.92a10.61,10.61,0,0,0-2.64-1.61,7.38,7.38,0,0,0-1.66-.56c-1.4-1-1.83-.83-1.27.43.54-2.84-3.17-4.65-4.79-2-2.48,4-5.12,8.78-9.73,10.64a8,8,0,0,1-7.76-.47c-1.44-.88-2.45-2.3-4.1-2.86-5.13-1.73-9.85,3.86-8.07,8.68l3.74-2.18c-2.84-3.42-3.14-9.92-8.78-10.35-4.64-.36-8.64,9.08-12.66,2.66-1.51-2.43-5.77-.9-4.79,2,.51,1.52,3,8.84-1.53,7.4-1.46-.48-3.59-6.1-4.07-7.35a34.28,34.28,0,0,1-2.13-13.93l-5.09.68a22.81,22.81,0,0,1,0,18.13l2.91-1.18a3.83,3.83,0,0,1-3.3-4.83l-5-.68c-.24,3.52-5.47,17.5-11,9.91-1.22-1.68-1.11-4.19-.73-6.07.24-1.16,1.31-5.89,2.64-6.26l-2.12-.86.34.49c.86,1.27,3.44,1,3.23-.87Z"/><path class="cls-22" d="M1485,305.51a7.07,7.07,0,0,0-1.76,6.87,1.05,1.05,0,0,0,.73.73c3.43,1.13,5.75-1.12,7.55-3.89,1.59-2.44,2-6.61,4.43-8.3,6.84-4.86,5.87,4.33,6.55,6.94.81,3.11,3.19,5.25,6.51,4.62,3.94-.75,6-4.39,7.12-7.89l-2.86,1.16c4.64,2.69,12.78,4.19,17.71,1.21,3.21-1.94,5-6.39,1.3-8.67a2.32,2.32,0,0,0-3.16.83c-1.91,4.07.1,8,4.2,9.8,6.49,2.79,11.06-3.06,16.08-6,2.54-1.49,5.2-2.55,7.76,0,.94.93,1.32,2.5,2.26,3.53a6.9,6.9,0,0,0,5.81,2.34,10.54,10.54,0,0,0,6.38-3.36c1-1,1.49-2.31,2.38-3.28.26-.61.51-1.22.76-1.83q3.07.9,2.6,3.55c.08,2.58,4.07,2.6,4,0,0-1.48,5.6,1,6.42,1.11a8.14,8.14,0,0,0,4.55-.49c3.75-1.5,6.19-5.35,8.07-8.71h-2.51c5.53,11.93,21.11,4.59,30.52,8.07a2,2,0,0,0,2.22-.91c3.84-5.47,12.58-3.13,11.42,4-.58,3.63,4.78,4.35,5,.67.6-11.19-13.58-16.17-19.8-6.7l2.23-.91c-5-1.67-9.83-.92-15-.47s-11.58.19-14.1-5.26a1.47,1.47,0,0,0-2.51,0c-1.93,3.46-3.93,7-8.19,7.18-2.91.09-4.11-1.61-6.76-2a4.64,4.64,0,0,0-5.6,4.35h4c.31-4.12-.62-9.6-5.77-10-6.31-.46-7.29,14.55-13.4,7.74-1.6-1.78-2.14-3.61-4.56-4.61a10.47,10.47,0,0,0-7-.07,19.3,19.3,0,0,0-6,3.36,42.23,42.23,0,0,1-4.33,3.22,6.52,6.52,0,0,1-4.56,1.25,3,3,0,0,1-2.63-3.29l-3.16.83a21.6,21.6,0,0,1-3.36,1.43,18.84,18.84,0,0,1-4.37.29,27.7,27.7,0,0,1-7.45-1.81,2,2,0,0,0-2.47,1.88,5.38,5.38,0,0,1-1.61,4.24c-2.4,2.3-5,.27-6.12-2.25-.7-1.54-.3-3.63-.9-5.25a5.15,5.15,0,0,0-4.11-3.65c-2.36-.25-4.23,1.42-5.56,3.17a19.25,19.25,0,0,0-2.4,4.69c-.53,1.32-1,3.39-2.23,4.3-.49,1.3-1.28,1.33-2.36.11-2.06-.34-2.28-1.3-.68-2.89.48-.81-.67-1.74-1.33-1Z"/><path class="cls-22" d="M1493.69,337.15c-3.08,6.08-4.52,17,5.15,17.59,10.13.64,12.34-10.59,12.34-18.29l-5.54.75c1.54,11.46,17.59,11.95,19.35.37l-2.2.89a10.63,10.63,0,0,1,4.61,6.55l2.58-1.09q3.76-7.25,7.23-2.74a13.46,13.46,0,0,1,2.34,4.18,1.26,1.26,0,0,0,2.09.55c1.18-1.38,5.34,3.22,6.87,3.87a8.54,8.54,0,0,0,6.4-.12c5.1-2,7.06-7.25,8.63-12l-2.06,1.17c4.41.76,4,8.22,9.12,9,2.76.41,5.16-1.52,7.3-2.94,4.22-2.8,8.38-5.67,12.59-8.48l-2.28-.93c1,3.72,3.35,5.2,6.78,6.43,6.21,2.23,8,11.4,8.2,17.45h3.58a28.06,28.06,0,0,1,6.45-19.85L1610,339c2.88,6,10.79,4.5,14.77.52a30.93,30.93,0,0,0,3.43-4.38c2.07-3,3.2-5.82,7.44-2.44s6.07,10.34,6.49,15.34a2.66,2.66,0,1,0,5.25-.71c-1-7.14-5.43-18.54-13.17-20.88-3.14-.94-5.35.62-7.29,2.95-2.39,2.84-8.88,14.31-13.4,7.54a2.07,2.07,0,0,0-3.52,0,32.28,32.28,0,0,0-6.83,22.32c.15,2.27,3.69,2.31,3.58,0a33.11,33.11,0,0,0-4-14.69c-.89-1.59-2.36-4.53-4-5.55a9.48,9.48,0,0,0-1.16-.48l-1.3.17a5.16,5.16,0,0,1-5.08-4.16,1.56,1.56,0,0,0-2.28-.92c-4.14,2.75-16.19,13.58-20.23,8.66-2.17-2.63-2.41-6.07-6.32-6.76a1.72,1.72,0,0,0-2.06,1.16c-1,2.92-2,6.25-4.23,8.48-3.42,3.36-6.73,1.73-10-.58-2-1.44-4.36-2.82-6.2-.49l2,.26c-1.72-3.92-5.39-8.74-10.33-7.48-3.81,1-5.94,5-4,8.43a1.42,1.42,0,0,0,2.59-1.09,14.77,14.77,0,0,0-5.83-8.39,1.51,1.51,0,0,0-2.2.9c-1.76,5.33-10.13,6.1-10.92-.32-.43-3.5-5.6-3.74-5.64,0,0,3.56.23,9.68-3.59,11.68-2.25,1.17-4.56,1-5.15-2-.36-1.92.89-4.51,1.67-6.16,1.49-3.18-3.16-6-4.78-2.79Z"/><path class="cls-22" d="M1502.35,396c4-4.11,3.17-10.19-1.28-13.56-1-.79-2.29.13-2.68,1.09-3.21,7.87-2.87,23,6.56,26.87,10.52,4.32,16-8.68,17.78-16.39.47-2-2.53-3.54-3.54-1.49-2.46,5,1.38,12.37,7.61,11,5.56-1.25,7.1-9.36,2.84-12.77a1.9,1.9,0,0,0-3,2.28c2.38,4.81,6.91,7.18,12.2,6.95a1.44,1.44,0,0,0,1.25-.71l2.18-4.33-1.73.7a17.73,17.73,0,0,1,8.07,4.8l2.41-2.41c2.19-1.77,3.28-1.62,3.26.43.2.57.42,1.12.65,1.67a9.93,9.93,0,0,0,2.86,3.35c1.63,1.22,4.65,2.67,6.76,1.95,5-1.7,6.14-10.24,4.86-14.39l-3.5,2.69a15.65,15.65,0,0,0,19.18-3.16l-3.95-2.3c-.63,3.09.87,5.54,3.87,6.64a7,7,0,0,0,4.47,0c1.48-.43,8.68-5.07,9.15-1.71.38,2.7,4.17,1.7,4.41-.6s7.16,1.86,7.9,2.12a6.43,6.43,0,0,0,4.93,0c2.55-1.1,3.95-3.63,2.95-6.26l-3,2.31c10,7.31,18.7-7.26,18.7-15.76,0-2.63-4-2.61-4.07,0a25.82,25.82,0,0,0,4.82,16.48,2.08,2.08,0,0,0,3.54,0,5.38,5.38,0,0,1,8.71-1c1.7,1.84,4.28-.85,2.71-2.72a9.17,9.17,0,0,0-15,1.63h3.54a22.24,22.24,0,0,1-4.29-14.4h-4.07c0,5.46-5.34,17.72-12.56,12.22-1.41-1.07-3.58.72-3,2.32l-3.6.67c-.63-.39-1.26-.78-1.9-1.15a13.24,13.24,0,0,0-2.22-1.13,7.54,7.54,0,0,0-4.1-.29,5.31,5.31,0,0,0-4.5,5h4.49a5.64,5.64,0,0,0-4.6-5.26,8,8,0,0,0-4,.07c-.87.23-9.21,4.37-8.74,2.08s-2.24-4.14-3.94-2.3a10.88,10.88,0,0,1-13.43,2.38,2.42,2.42,0,0,0-3.51,2.7c.75,2.44,1.26,5.64-.37,7.86-2.84,3.89-5.94-1.23-6.94-4s-1.78-5.16-5.15-5.54c-5.78-.67-7.87,6.43-3.74,9.85,1.66,1.37,4-.89,2.41-2.41a21.3,21.3,0,0,0-9.67-5.34,1.54,1.54,0,0,0-1.72.71c-1,2-1,3.5-3.24,3.59-2.89.11-5.38-3-6.3-5.41l-3.15,1.84c1.17,1.12,2.15,3.57.88,5.06l-3.73,1a3.9,3.9,0,0,1-1.59-5L1519,393c-.75,3.18-1.45,6.56-3.21,9.35-2.86,4.54-8.77,6.77-12.35,1.68-3.92-5.58-3.53-13.36-1.53-19.51l-2.68,1.1a5.59,5.59,0,0,1,1.2,8.48c-1.11,1.32.68,3.19,1.92,1.92Z"/><path class="cls-22" d="M1505.38,440a8,8,0,0,1,5.71,3,9.66,9.66,0,0,1,1.75,3.21,7.43,7.43,0,0,1,.35,2.92c-2.3-3.46,5.38-9.17,8.09-10.8l-3.4-1.39c1.47,5.32,4.82,11.78,11.23,11.67a8,8,0,0,0,8-9.42L1533,440.3a10.88,10.88,0,0,0,9.89,7.62c5.19.29,8.32-2.94,11-7a16.58,16.58,0,0,1,3.12-4.2c4.46-3.57,8.49-.54,11.73,1.81,1.9,1.39,3.88,2.9,6.31,3.14a6.37,6.37,0,0,0,5.73-2.42,13.74,13.74,0,0,0,1.49-2.47c.35-.75.73-1.48,1.15-2.2q5.87-2.4,5.44,2a1.81,1.81,0,0,0,3,1.74c9-7.69,18.12,3.5,27.52,2.78,5.66-.43,10-5.93,7.59-11.31l-2.11,2.74a18.45,18.45,0,0,0,8.5-.59c3.27-.88,10.15-3.47,12,1.47.82,2.28,4.52,1.21,3.61-1-4.26-10.37-15.61-2.17-23.07-3.48a1.89,1.89,0,0,0-2.1,2.73c1.88,4.21-4,6-7,5.56a23.42,23.42,0,0,1-5.46-1.9,38.49,38.49,0,0,0-8.08-2.81c-5.12-1-9.94-.17-13.93,3.27l3,1.74a6.84,6.84,0,0,0-5.24-8c-4.52-1-5.73,2.5-7.93,5.44-5.24,7-10.82-4.76-17.24-3.07a5.36,5.36,0,0,0-3.53,6.74c2.18,7.2,12-.92,5.16-6.3-3.52-2.79-8-.55-10.64,2.36-1.94,2.12-2.94,5-5,7-3.39,3.3-9,1.66-10.71-2.54-1-2.46-4.87-1.6-4.13,1.14q-1.29,5.31-5.84,3.27a6.47,6.47,0,0,1-2.28-2.25,16.37,16.37,0,0,1-2.51-5.64,2.34,2.34,0,0,0-3.41-1.39c-4.79,2.93-10.6,8.11-11.07,14.14-.29,3.64,3.17,8.26,7.22,6.24,3.71-1.84,2.78-8.28,1.4-11.33a12.06,12.06,0,0,0-11.11-7.33c-2.56,0-2.5,3.75,0,3.94Z"/><path class="cls-22" d="M1709,206.85c5.23-10.65,4.83-26.66,0-37.36-.8-1.76-3.26-1.37-4.15,0-7.54,11.53-3.29,26.12,11.07,28.89,9.37,1.8,23.46-6,17.73-17-1.36-2.59-5.41-1.33-5.41,1.46,0,4.53.56,9.26,4.39,12.24,3,2.35,7.5,3.15,11,1.31a9.39,9.39,0,0,0,4.76-8c.17-4-6.49-15.74.57-15.75,5.28,0,3.07,7.9,3.82,11.48.69,3.31,2.6,6.32,6,7.34,7.76,2.37,11.8-5.62,12.14-12l-3.67,2.1c1.44,1,2.84,2.06,4.3,3a2.63,2.63,0,0,0,3.52-.92c4.68-6.5,27.42-9,20.23-21.54-1.26-2.21-4.21-1-4.44,1.2-.63,6.26,5,10.94,10.71,12.07a15.57,15.57,0,0,0,9.5-1.25c2.1-.9,11.68-6.77,13-2a2.45,2.45,0,0,0,4.42.58c2.89-4.16,6.54-8.64,12.13-8.59,4,0,6.41,3.6,10.61,2.61,3.55-.85,5.91-4.12,9.23-5.49a17.66,17.66,0,0,1,14.54.61c2.55,1.29,4.8-2.58,2.24-3.83a22.14,22.14,0,0,0-12.7-2.19,20.66,20.66,0,0,0-7.24,2.18c-2.87,1.55-4.5,4.24-8,4-2.67-.22-4.6-1.8-7.25-2.18a14.89,14.89,0,0,0-7.21.82c-4.77,1.75-7.77,5.62-10.57,9.67l4.43.57c-1.4-4.85-7.29-5.83-11.63-4.73-3.76,1-6.84,3.76-10.64,4.54-4.66,1-11.44-1.8-10.9-7.37l-4.43,1.2c1.91,3.3-2.79,6.35-5.09,7.55-2.12,1.1-4.42,1.86-6.63,2.77-3.23,1.33-6.25,2.9-8.44,5.7l3.11-.4c-1.45-1-3-1.87-4.43-2.82a2.46,2.46,0,0,0-3.66,2.11c-.24,3.49-4.66,11.88-7.83,5-1.18-2.56-.16-5.77-.44-8.47-.51-4.84-3.49-9.18-8.79-9.16a9.44,9.44,0,0,0-9.11,9.54c0,3.94,2.72,6.75,3.33,10.45s-2.64,6.34-6.16,4.28c-3-1.76-2.94-5.16-3-8.2l-5.41,1.47c1.64,3.1-.22,6.23-3,7.92-3.55,2.19-8,1.95-11.78.44-9.26-3.76-9.88-13.1-4.9-20.77h-4.15c4.1,9,4.76,23.81.64,32.87-1.07,2.37,2.37,4.46,3.54,2.07Z"/><path class="cls-22" d="M1715.07,251.43a11.67,11.67,0,0,0,7.15-12.18c-.14-1.36-2-2.62-3.09-1.27-4.1,5.06-2,13.6,5.31,13.82a8.54,8.54,0,0,0,7.57-4.08c1.09-1.86,1.14-4,1.35-6.11.18-1.79.63-9.76,6.11-4.39l1,2a25.09,25.09,0,0,0,3.27-1.66l-2.54-1c1.71,5.09,4.42,11.65,10.77,11.94,4.42.21,7.47-3.49,7.13-7.76l-3,1.26a5.41,5.41,0,0,0,9.33-4.64l-2.89,1.66c2.77,1.62,5.59,1.2,8.24-.53,1.29-.85,2.26-2.09,3.48-3,2.92-2.26,7-2.2,8.72,1.48,1.29,2.82,6,.07,4.13-2.41-2.31-3.11-5.29-5.26-9.34-5a9.63,9.63,0,0,0-5,1.81c-2.33,1.6-4.93,6.22-8.27,4.41a2,2,0,0,0-2.82,2.17l-3.41,1.33c-1.6-1.14-3.09,1-2.43,2.44q-2.7,5.73-6,2.81a5.76,5.76,0,0,1-3-3,26.39,26.39,0,0,1-2.23-5.83,1.75,1.75,0,0,0-2.53-1c-3.12,1.68-7.59,6.75-2.39,9.21s5.06-3.93,3.63-6.94c-1.92-4-6.5-7.28-10.46-3.51-2.06,2-2.39,4.83-2.7,7.48-.4,3.39-1.45,8.49-6.27,7.15-3.83-1.06-3.7-5.32-1.79-7.8l-3.36-.92a8.56,8.56,0,0,1-5.2,9.35c-1.93.88-.25,3.65,1.66,2.83Z"/><path class="cls-22" d="M1717.62,278.61c-2.29,6.2-1.93,17.6,7.15,17.77,9.67.17,10.49-11.34,9.75-18.21-.31-2.85-4.79-2.93-4.53,0,.41,4.65,4,9.64,9.34,8.19,4.51-1.22,6-6.22,4.2-10.14a2.18,2.18,0,0,0-2.93-.76c-3.31,1.7-3,6.08-.3,8.26a6,6,0,0,0,6.22.54,11.13,11.13,0,0,0,2.28-1.35,20,20,0,0,0,2.36-2q2.47-3.22,6.64.47l3.8-.51-.08-2.14-1.86-1.86c.25,6.59,5.75,12.39,12.69,10.68a10.87,10.87,0,0,0,7.27-5.92c1.21-2.62,2.16-4.48,5.27-5.44s6.55-.92,9.71-1.91c1.93-.61,1.64-3.62-.48-3.59-4.6.05-12.94.1-16.13,4-1.8,2.22-1.27,5.15-3.4,7.29-4.45,4.46-11.17.65-11.22-5.15a1.87,1.87,0,0,0-1.85-1.85c-3.74.15-4.2,3.82-3.65,6.87.42,2.33,3.58,1.48,3.8-.51a6.43,6.43,0,0,0-5.17-7.27,8,8,0,0,0-5.53,1.46,27.28,27.28,0,0,0-2.84,2.31l-2,1.64q-3.76,1.74-3.39-.32l-2.93-.77q1.49,5.67-5.31-.22H1730c.5,4.2,1.45,12.11-4.31,12.92-6.65.94-4.4-8.16-3.91-11.92.32-2.51-3.38-2.63-4.15-.56Z"/><path class="cls-22" d="M1733.25,335.64c-.16-4.81-3.17-8.79-3.55-13.51-.33-4.12,1.76-8.61,6.76-6.4,3.5,1.54,3.79,7.57,4,10.71h4.19a23.43,23.43,0,0,1-.07-7.52,7.47,7.47,0,0,1,2.18-4.14q6.18-3.09,5.77,2.47l3.5,2.05c.71-1.68,2.13-5.19,4.14-5.61,3.47-.73,2.44,3.75,2.58,5.44a13.86,13.86,0,0,0,15.6,12.78,14,14,0,0,0,10.87-10.21c.87-3.41-.64-5.95-.45-9.29.54-9.48,14.43-6.65,12.19,2.47l2.23.61c.24-1.35.54-3.56,1.52-4.62,4.45-4.86,5-.5,6.09,1.39a7,7,0,0,0,3.82,3.45c3.55,1.32,7.5,0,10.69-1.67,3.6-1.87,7.15-4.5,11.46-3.64,2.85.56,5.22,2.58,8.07,3.17,3.42.7,6.78-.21,8.57-3.3l-2.26.59c6.53,4.14,13.32,6.64,20.52,9.33,2.51.93,3.72-3.54,1.1-4-7.12-1.19-13.84-4.47-20-8.2a1.66,1.66,0,0,0-2.25.59c-2.92,5.27-12.17-1.88-16.82-1.31-6,.75-12,8.76-18.29,6.44-3.61-1.33-3.87-7.63-8.48-6.92-3.55.54-5.29,5.1-6,8.07a1.16,1.16,0,0,0,2.23.61c2.08-6.2-2.63-13.33-9.56-12.24a9.91,9.91,0,0,0-7,5.14c-2.31,4.38.72,9-1,13.46-2.45,6.4-10.35,8.87-15.62,4.1-4.45-4-2-8.67-4.13-13.28-3.6-7.75-11.36.08-13.32,4.58-1,2.35,2.4,4.43,3.5,2.05a7,7,0,0,0-7.43-9.91c-8.07,1.27-8.87,10.65-8.14,17.05.3,2.63,4.43,2.71,4.19,0-.4-4.62-.94-9.78-4.62-13.08-2.68-2.42-6.69-3.48-10-1.59-8.95,5.18-1.88,17.54.48,24.23.48,1.37,2.72,1.25,2.67-.36Z"/><path class="cls-22" d="M1733,369.54c.66,3.74,5.16,6.31,8.52,3.84,3.57-2.63,2-7.65-1.09-9.81a1.88,1.88,0,0,0-2.27.29c-3.77,4.27-.85,10.45,4.25,12.13,7.26,2.39,12.08-5.78,14.59-11.15l-1.9.5a17.7,17.7,0,0,1,8.61,10.69,1.73,1.73,0,0,0,3.38-.46c.37-6.86,5.82-4.48,9.86-3.88,2.39.36,3.49-1,5.63.27,2.57,1.5,3.72,5.07,7.22,4.89s4.6-3.13,5-6c.54-3.64,2-5.27,4.79-7.68a17.22,17.22,0,0,1,4.29-3.06c2.57-1.11,7.5-1.45,7.73,2.9a1.69,1.69,0,0,0,2.52,1.45c2.44-1.57,5.35-5.92,8.19-6.35l-1.81-.74c.5.69.53,2.71.92,3.58a12.16,12.16,0,0,0,1.82,3,12.49,12.49,0,0,0,7.43,4.38c5.94,1,10.91-2.67,13.54-7.7l-2.38.62c2.92,1.77,6.43,3.44,9.93,2.74,3-.6,4.47-3.38,7.27-4.2,4.11-1.21,8.23,2.53,9.63,6.07,2.1,5.32-.15,11.51-1.87,16.6l4.82,1.33a28.1,28.1,0,0,1,11.79-16.38c2.92-1.92.14-6.67-2.75-4.7a32.75,32.75,0,0,0-13.86,19.75c-.73,3.12,4,4.45,4.82,1.33,2.13-8.42,4.48-19-3.33-25.29a12,12,0,0,0-8.94-2.82,10.18,10.18,0,0,0-4.12,1.66c-1.25.78-2.52,2.49-4,2.9-2.46.68-5.56-1-7.67-2a1.77,1.77,0,0,0-2.55,1,9,9,0,0,1-12.83,4.74,9.94,9.94,0,0,1-4.18-5.12c-.2-.59-.21-2.37-.76-3.11a1.69,1.69,0,0,0-1.8-.74c-3.33.52-6.25,4.85-9,6.55l2.52,1.44c-.18-5.86-6.53-8.43-11.61-6.67-3.57,1.24-6.54,4.19-9.31,6.65s-2.32,4.05-3.17,7.38c-1.27,5-4.56-.62-6.67-2.06-2.71-1.86-6.12-1-9.22-1.47-5.82-.89-11.49,2.12-11.34,8.7l3.38-.46a22.64,22.64,0,0,0-10.53-12.17,1.39,1.39,0,0,0-1.9.5c-1.22,2.77-2.72,5.55-5.17,7.42-1.56,1.19-3.37,2.23-5.48,1.71-.7-.18-9.34-6.54-8.6-3.68-.4-1.54-2.62-.88-2.35.65Z"/><path class="cls-22" d="M1740,414.39a12.64,12.64,0,0,0-2.41,13.71,1.75,1.75,0,0,0,2.88.77,20.15,20.15,0,0,0,7-19c-.31-2.1-3-1.86-4-.53-4.14,5.61-.61,15,6.75,15.38s11.76-8.27,8.62-14.38l-3.08,3.08a11,11,0,0,1,5.46,7.85l4.22-1.16c-1.8-4.9,6-7.34,6.19-1.27a2.07,2.07,0,0,0,4.14,0c.4-9,13.31-8.2,12.53.94a1.79,1.79,0,0,0,1.3,1.7,9,9,0,0,0,9.74-2c1.48-1.37-.09-3.65-1.88-3.23-2.3.53-3.16,2.46-2.58,4.7.8,3,3.61,4.44,6.52,4.52,8.7.25,14.19-8.67,17.53-15.49l-3.33.43a46,46,0,0,1,10.26,17c.92,2.79,4.84,16.92-1.8,16.07l2.16,2.15c-1.39-12.38,13.76-20.08,10.72-33l-2.62,2.61a10.57,10.57,0,0,0,12.74-8.35l-4.15-.56c-.34,3.51-.25,8,2.91,10.27a6.27,6.27,0,0,0,4,1.13c1.12-.08,9-3.1,8.77-1.8a2.11,2.11,0,0,0,3.5,2l6.3-5.8-3.26-.42c2.18,4.33,7.2,5.89,11.74,4.49,5.65-1.76,8.36-7.48,10.22-12.61l-4-.54c-.6,6.83,4.4,12.19,11,12.9,2.79.3,2.82-4.16,0-4.4a7.71,7.71,0,0,1-7-8.5c.15-2.4-3.26-2.59-4-.54-1.1,3.14-2.51,6.56-5.33,8.55s-7.29,2.26-9.14-1.45a2.09,2.09,0,0,0-3.25-.42l-6.34,5.77,3.51,2c.7-3.18-1.36-5.47-4.54-6-2-.32-3.26.35-5,1-2.54,1-4.79,1.73-6-1.31-.47-1.23-.1-3.19,0-4.45.23-2.35-3.7-2.89-4.14-.56-.7,3.64-3.76,6.11-7.54,5.37a2.16,2.16,0,0,0-2.61,2.62c1.5,6.41-3.23,12-6.37,17.08-2.79,4.55-5.18,9.3-4.56,14.79a2.25,2.25,0,0,0,2.15,2.15c7.24.92,8.54-8.42,7.77-13.61a49.85,49.85,0,0,0-13.24-26.77,2.13,2.13,0,0,0-3.32.43,38.05,38.05,0,0,1-5.84,9.25,16.34,16.34,0,0,1-3.68,3.16,8,8,0,0,1-3.71,1.24,4.82,4.82,0,0,1-3.55-1.51l-1.89-3.24a5.69,5.69,0,0,1-6.07,1.32l1.3,1.7c.2-5.52-3.58-11-9.43-11.36-6-.38-10.42,4.83-10.77,10.42h4.14c-.19-12.3-18.56-8.91-14.55,2.43a2.19,2.19,0,0,0,4.22-1.16A15.14,15.14,0,0,0,1758,409.5c-2-1.23-4,1.15-3.08,3.08,1.59,3.19-1.25,8.42-5.2,7.3-3.51-1-4.22-5.72-2.48-8.35l-4-.52a16,16,0,0,1-5.18,15.42l2.71.35c-1.68-3.77-1-7.55,1.18-10.91a1.23,1.23,0,0,0-1.92-1.48Z"/><g class="cls-23"><path class="cls-1" d="M1254.21,610.52c-49-108,86-155,143-90,37-68,154-75,178,6,69-81,168-35,189,53"/><path class="cls-24" d="M1254.12,610.56a145.83,145.83,0,0,1-5.77-14.5,112.89,112.89,0,0,1-3.83-15.16,80,80,0,0,1,.41-31.18,68.27,68.27,0,0,1,13.41-28.19,79.51,79.51,0,0,1,24.08-20,98.37,98.37,0,0,1,61-10.47,92.11,92.11,0,0,1,29.75,9.71,85.29,85.29,0,0,1,24.43,19.43l-.77.09a96.06,96.06,0,0,1,17-22.19,106.53,106.53,0,0,1,22.51-16.56,114.75,114.75,0,0,1,25.94-10.42,116.19,116.19,0,0,1,27.7-3.95,102.81,102.81,0,0,1,27.82,3.19,86,86,0,0,1,25.7,11.23A77.45,77.45,0,0,1,1563.83,501a84.82,84.82,0,0,1,12.31,25.29l-1.67-.35a141,141,0,0,1,22.7-21.59,107.31,107.31,0,0,1,27.5-15.07,94.23,94.23,0,0,1,30.82-5.78,93.29,93.29,0,0,1,31,4.8c20,6.57,37.53,19.42,50.77,35.52a130.24,130.24,0,0,1,16.81,26.3,140.46,140.46,0,0,1,10.27,29.42l-.2,0a136.26,136.26,0,0,0-27.85-54.95,120.32,120.32,0,0,0-22.82-20.83A103.4,103.4,0,0,0,1685.88,490a94,94,0,0,0-30.36-4.56,92.45,92.45,0,0,0-30.14,5.71,108.25,108.25,0,0,0-27,14.78A138.57,138.57,0,0,0,1576,527.14l-1.17,1.35-.5-1.7A83,83,0,0,0,1562.36,502a76.05,76.05,0,0,0-19.73-19.13,84.93,84.93,0,0,0-25.17-11.29,102.32,102.32,0,0,0-27.49-3.43,113.36,113.36,0,0,0-53.35,13.93c-16.25,8.93-30.25,22.26-39,38.65l-.31.6-.46-.51A84.07,84.07,0,0,0,1372.51,502a92.32,92.32,0,0,0-29.37-9.25,99.67,99.67,0,0,0-30.79.43,95.41,95.41,0,0,0-29.13,9.87,77.93,77.93,0,0,0-23.68,19.48A67.76,67.76,0,0,0,1246.12,550a80.69,80.69,0,0,0-.8,30.78,112.12,112.12,0,0,0,3.51,15.13,145.94,145.94,0,0,0,5.47,14.57Z"/></g><g class="cls-25"><path class="cls-1" d="M1764.21,579.52s-10-67,33-95c53.32-34.73,112.65,9.25,127.56,20.71,7.41-17.32,13.44-38,29.37-50.1,98.07-74.61,223.07,17.39,188.07,131.39"/><path class="cls-24" d="M1764.11,579.53a129.15,129.15,0,0,1-1.19-15.23,147.11,147.11,0,0,1,.42-15.28,115.35,115.35,0,0,1,6.36-29.91,74.3,74.3,0,0,1,16-26.12,65.07,65.07,0,0,1,11.95-9.75,79,79,0,0,1,43.82-12.62,102.7,102.7,0,0,1,30.18,5.1c19.48,6.28,37.25,16.87,53.37,29.26l-.49.13c3-7,5.61-14.22,8.71-21.22a92.06,92.06,0,0,1,11.36-20,52.72,52.72,0,0,1,8-8.31c3-2.39,6.14-4.62,9.33-6.75a137.28,137.28,0,0,1,20.15-11.13,120.35,120.35,0,0,1,44.7-10.39,117.51,117.51,0,0,1,65.94,18c3.29,2,6.42,4.27,9.51,6.58s6,4.82,8.81,7.48a119.94,119.94,0,0,1,27,37.21,116.13,116.13,0,0,1,7.66,21.78,118.43,118.43,0,0,1,3.35,22.85,132.61,132.61,0,0,1-6,45.56l-1.66-.51a131.42,131.42,0,0,0,5.66-45,116.75,116.75,0,0,0-3.31-22.46,114.34,114.34,0,0,0-7.56-21.4,119.64,119.64,0,0,0-64.81-60.62,114.19,114.19,0,0,0-44.52-7.71,118.88,118.88,0,0,0-44.18,9.92,135.56,135.56,0,0,0-20,10.87c-3.18,2.08-6.29,4.3-9.29,6.61a52.24,52.24,0,0,0-8,8,92,92,0,0,0-11.49,19.64c-3.12,7-5.78,14.13-8.8,21.17l-.17.38-.32-.25a193,193,0,0,0-25.39-16.79,144.42,144.42,0,0,0-27.93-11.91,101.61,101.61,0,0,0-29.84-4.57,79,79,0,0,0-29.47,5.63c-2.34.91-4.61,2-6.87,3.12s-4.43,2.37-6.55,3.74a62.77,62.77,0,0,0-11.7,9.42,69,69,0,0,0-9.2,11.9A86,86,0,0,0,1771,519.6a114,114,0,0,0-6.71,29.51,148,148,0,0,0-.8,15.19,128.67,128.67,0,0,0,.81,15.2Z"/></g><path class="cls-1" d="M365.66,504.66c15.18-24.07-4.26-55.63-27.23-72.44a167.92,167.92,0,0,0-115.86-31.09c-18.8,2-38.1,7.78-51.38,21.25s-18.46,36.11-7.85,51.76c-32.16-16.05-70.5-23-104.33-10.83S-1.7,509.8,2.1,545.54s44.39,64.9,77.6,51.17c-27.3,14.74-39.34,51.67-27.58,80.39s44.65,46.5,75.41,42.44c30.22-4,54.65-25.43,79.83-42.61,10.22-7,22.31-13.62,34.35-10.78,9.46,2.24,16.53,9.82,24.44,15.45,40,28.47,96.94,4.57,132-29.77,4.3-4.22,8.79-8.78,14.66-10.13,9.75-2.24,18.85,5,26.45,11.55,28.5,24.49,61.7,45.84,99,50.39s79-11.62,95.21-45.55c4-8.48,6.54-18,12.9-24.88,8.19-8.91,20.89-11.61,32.34-15.53,35-12,65.59-43.49,66.4-80.53S707.8,464.42,672.5,475.7c33.49-41.3-2.58-112.39-55.39-118.52s-101.89,42-107.51,94.87c-44.12-19.51-102,2.54-121.93,46.47"/><path class="cls-2" d="M366.81,505.34c10.71-17.56,4.33-38.25-7-53.82-13.18-18.17-33-30.61-53.4-39.31a170,170,0,0,0-68.77-13.7c-21.83.3-45.66,4.28-63,18.46-16.63,13.57-25.1,38.89-12.75,58l2.31-2.31c-42.58-21-97.95-26.75-135.77,7C12.88,493.59,1.69,513,.16,534c-1.44,19.79,7,38.6,21.76,51.66C37.7,599.59,60,606.36,80.16,598.36l-1.32-3.12c-27,15-39.48,50.14-29.51,79.15,10.46,30.46,43.79,49.92,75.4,47.09,18.6-1.67,35.57-10.36,51-20.44,8.08-5.29,15.86-11,23.72-16.62,8.74-6.22,17.74-13.18,28.21-16.14,20.61-5.83,33.42,14.56,50.58,21.82,15.06,6.38,31.77,6.88,47.67,3.7,17.05-3.41,33.26-10.9,47.75-20.4a169.09,169.09,0,0,0,20.69-16c7.25-6.55,14.54-16.63,25.63-14.3,10.21,2.14,18.23,11.31,26,17.63a283.53,283.53,0,0,0,23.52,17.28c16.44,10.75,34.4,19.59,53.55,24.26,31.47,7.67,66.83,2.53,92.17-18.65a76,76,0,0,0,15.5-17.58c4.88-7.72,7.35-16.49,11.63-24.49,9.51-17.77,30.59-19,47.18-26.69,29.42-13.58,54.81-41.4,57-74.87,2-30.86-22.05-62.66-53-67.39a48,48,0,0,0-21.33,1.59l1.48,2.55c25.07-31.56,11.8-77.59-16.32-102.54a74.23,74.23,0,0,0-54.75-19c-22.67,1.53-43.78,12.43-60,28C523.57,401.47,511,426,508,452.05l2.39-1.37c-45.34-19.62-103.27,2.07-124.12,47-.88,1.88,1.91,3.52,2.79,1.63,20.05-43.22,75.86-64.87,119.73-45.91a1.61,1.61,0,0,0,2.39-1.37c4.88-43,38.25-83.86,81.54-92.37,19.75-3.88,39.8,0,56.17,11.81a86.57,86.57,0,0,1,31.71,44.8c6,19.86,4,41.75-9.19,58.33-.87,1.1-.11,3,1.49,2.55,32.73-9.91,65.25,19.26,70.08,50.72,5.29,34.42-20.42,66.13-49.09,81.52-7.78,4.18-16,7-24.34,9.67-7.15,2.32-14.41,4.89-20.39,9.57-6.26,4.89-9.78,11.73-12.81,18.91-3.5,8.33-7,16.3-12.71,23.4C603,696.59,567,706.5,535.29,701.8c-19-2.82-37-10-53.55-19.59-16.87-9.72-31.21-22.18-46.47-34.12-5.73-4.48-12.61-8.79-20.2-8.2s-12.89,5.93-18,10.89A163.73,163.73,0,0,1,354.18,681c-15.05,7.22-31.73,12-48.52,11.73-18-.34-32.47-7.36-46.36-18.35-6-4.76-12.36-9.22-20.17-10.2-8.81-1.09-17.45,2.34-25,6.64-16.2,9.25-30.38,21.76-46.33,31.46-15.54,9.44-33,16.88-51.54,16.22A73.49,73.49,0,0,1,70.7,700.14c-25-22.21-28.25-60.4-7.75-86.86a57.43,57.43,0,0,1,17.62-15.09c1.64-.92.52-3.85-1.32-3.13-36.36,14.41-76-19.93-75.75-56.74.12-19.92,9.74-38.75,23.63-52.64C42.81,470,63.51,461.24,85.48,459.3c26.59-2.36,53.27,4.6,77,16.3,1.42.7,3.3-.79,2.32-2.31-11-17.09-4-39.68,10.45-52.4,15.91-14,38.49-18.18,59.06-18.88a167.68,167.68,0,0,1,62.25,9.85c19.72,7.09,39.7,17.87,54.07,33.38S376.45,484,364.5,504a1.34,1.34,0,0,0,2.31,1.35Z"/><g class="cls-26"><path class="cls-2" d="M82.61,658.44C65.15,667.16,60.09,691.9,69,709.26s28.19,27.48,47.49,30.37c33.69,5,69.62-10.29,89.32-38.08,12.31-17.38,26.92-42.65,47-35.52,8.48,3,13.73,11.31,20.8,16.87,20.06,15.77,50.23,6.6,70.31-9.14s35.77-37.3,58.37-49.14c4.92-2.58,10.45-4.69,15.92-3.72,6.24,1.11,11.06,6,15.3,10.66,21.18,23.47,39.64,50.2,66,67.7s64.18,23.16,88.31,2.73c21-17.82,27.75-51.57,53.48-61.49,10.33-4,22.34-3.28,31.85-9,20.54-12.26,13.75-47.2-7.12-58.88s-47.15-6.16-69.14,3.25-42.94,22.55-66.62,25.89c-44.43,6.26-87.42-23.19-132.18-20.07-22.43,1.55-43.37,11.18-64.89,17.67-52.18,15.7-107.92,12.9-162.26,8.89-23.77-1.75-48.36-3.6-70.8,4.4S81.42,634.22,82.71,658"/></g><path class="cls-2" d="M3018.64,401.52c4.11-30.93-21.38-56.81-49.37-65-32.13-9.39-64.17,6.82-84.71,31.38a138.12,138.12,0,0,0-26.31,50.33l2.2-.89c-30-15-67.8-33.07-101.53-19.23-20,8.23-33.54,31.71-31.92,53.12.89,11.68,6.87,21.91,17.48,27.22a1.51,1.51,0,0,0,1.82-2.36c-15.58-16.38-39.17-19.79-60.66-16.52a117.87,117.87,0,0,0-63,31c-16.58,16.05-26.6,38.08-24.49,61.39,1.87,20.63,13.44,40.53,33.57,47.81,19.95,7.22,45.22,1.69,56.5-17.3l-2.79-.76c2.41,29.9,27.25,51,54.56,59.29,33.62,10.16,67.6-.9,96.54-18.73,18.64-11.48,35.54-25.53,52.25-39.59l-2.56-1.06c-2,34,21,67.54,53.4,78,31.57,10.2,68.21-3.91,86.71-31,4.74-6.93,7.53-14.77,11.22-22.26,3.24-6.57,7.66-15,15.33-17.12,9.73-2.63,17.09,7,23.91,12.24a103.8,103.8,0,0,0,18.75,11.56c26.61,12.75,57.75,14.45,86.13,7.09,32-8.29,61-28.52,76.32-58.21l-1.69.69c39.67,7.44,81.67-2.11,114.8-25,28.18-19.5,70.2-66.05,32.82-97-16.65-13.8-38.18-15.69-59-15.17-13.08.33-26.21,1.32-39.25-.1-11.41-1.25-22.58-4.21-33.51-7.66-21.26-6.69-42-15.71-64.07-19.5a94.68,94.68,0,0,0-29.81-.8c-11.71,1.72-21.76,7.34-32.9,10.85-6,1.89-12.45,2.8-18.49.49-5.39-2.06-9.6-6.3-13.55-10.34-6.57-6.73-13.08-12.54-21.92-16.1a58.68,58.68,0,0,0-51.67,4.21,52.62,52.62,0,0,0-10,8.11c-1.34,1.39.78,3.51,2.13,2.12,13-13.4,33-18.31,51-14A50.75,50.75,0,0,1,3107,396.11c6.43,6.31,12.48,13.95,21.63,16.26,10.52,2.65,20.88-2.32,30.38-6.23,9.94-4.1,20-6.59,30.81-6.64,20.72-.09,40.76,7.06,60.08,13.78,19.56,6.8,39.39,14,60.21,15.43,23.5,1.67,48-3.92,71,3.14,18.38,5.66,36.18,20.11,34.64,41.12s-19.14,40-34.48,53.09c-33.73,28.79-80.44,41.87-124.11,33.68a1.55,1.55,0,0,0-1.7.69c-27.24,52.74-97.45,74.25-151.52,53a104,104,0,0,1-19.64-10.26c-6.72-4.48-12.24-11-19.27-14.89-14.13-7.88-24.33,5-30,16.57-3.52,7.14-6.19,14.65-10.6,21.33a73.08,73.08,0,0,1-18,18.69A77.72,77.72,0,0,1,2960,659.94c-40.37-.61-73.1-38.63-70.76-78.34.09-1.41-1.64-1.83-2.56-1.06-27.67,23.28-56.92,47.72-92.45,57.61-28.67,8-60.8,3.26-84-16.26-12.14-10.22-20.51-24.22-21.8-40.2a1.52,1.52,0,0,0-2.8-.76c-9.63,16.21-30.23,21.73-47.86,17.5-20.45-4.91-33.35-23.09-36.24-43.29-6.59-46.16,35.08-81.18,76.2-91,22.72-5.41,49.44-3.8,66.42,14.05l1.81-2.35c-19.91-10-18.82-35.28-9.62-52.46,5-9.25,12.49-17.37,22.08-21.83,14.43-6.7,31.8-6.07,47-2.71,18.8,4.15,36.36,12.52,53.51,21.07a1.52,1.52,0,0,0,2.2-.9c8.7-30.07,27.56-59.31,56-73.94,13.92-7.16,29.61-10.26,45.07-7.21a73.25,73.25,0,0,1,37.52,20c11.51,11.6,18.09,27.18,15.91,43.61-.25,1.9,2.75,1.89,3,0Z"/><g class="cls-3"><path class="cls-4" d="M2651.72,542.15c-18.54.17-28.93,26.07-18.66,41.52s33.16,18.49,49.9,10.52c6.74-3.21,14-8,21-5.54,7.36,2.59,9.85,11.43,13.07,18.55,12.17,26.86,46.25,37.69,75.38,33.07s54.82-20.95,80.44-35.57c6.29-3.6,13.16-7.22,20.36-6.44,21.14,2.28,20.59,33.39,32.18,51.21,10.59,16.27,33.61,20.88,52.09,14.89s33-20.33,45.05-35.56c13.12-16.6,29.84-37.19,50.39-32.15,8.52,2.09,15.24,8.4,22.35,13.54,24,17.34,55.51,22.49,84.58,17.07,19.2-3.57,37.3-11.38,55.22-19.13l148.65-64.33c-18.36-33-64.32-38.11-101.22-30s-72.87,25.3-110.51,22.1c-25.67-2.19-50.93-13.88-76.27-9.26-32.6,5.93-58.83,37.93-91.8,34.52-23.72-2.45-41.47-22.68-63.71-31.28-46.6-18-96.61,18.15-146.57,17.89-27-.13-52.59-10.94-78.9-16.93s-56.73-6.17-77,11.61"/></g></g></g></svg>