<svg xmlns="http://www.w3.org/2000/svg" viewBox="0 0 578.08 425.4"><defs><style>.cls-1{fill:#00e78f;}.cls-2{fill:#595959;}.cls-3{fill:#efefef;}.cls-4{fill:#e0e0e0;}.cls-5{opacity:0.56;}.cls-6{fill:#ff7300;}.cls-7{fill:#ff8c3e;}.cls-8{fill:#ed6000;}.cls-9{fill:#006837;}.cls-10{fill:#22b573;}.cls-11{fill:#009245;}.cls-12{fill:#ffa15a;}.cls-13{opacity:0.38;}.cls-14{fill:#fff;}</style></defs><title>cookbookAsset 128</title><g id="Layer_2" data-name="Layer 2"><g id="cookbook"><path class="cls-1" d="M12.08,425.4c34.1-7.84,86.05-7,134.32-12.79,23.56-2.81,47.34-5.62,70.94-3.26,13.12,1.32,26.08,4.23,39.26,4.8,22.29,1,44.24-4.75,66.23-8.55,81.86-14.14,173.12-6.71,255.25,5.8-15.51-125.85-8.54-244.08-15.76-370.69-.23-4.19-.61-8.7-3.32-11.9-3-3.48-7.84-4.46-12.34-5.22-26.78-4.54-65.65-13.09-92.79-14-55.95-1.9-111.2,11.63-167,15.64C185.88,32.47,100.35,8.69,0,21.9,0,21.9,22.08,285.4,12.08,425.4Z"/><path class="cls-2" d="M5.35,32.81C12.14,134.06,16.75,235.4,16.48,336.9q-.12,42.78-1.24,85.54a1.31,1.31,0,0,0,1.63,1.25q54.91-10.57,110.65-15.93,27.69-2.64,55.49-4c17.56-.84,36.42-3,53.68,1.17,8,1.93,15.74,4.93,23.95,6a80.46,80.46,0,0,0,23.74-.78c17.91-2.91,35-8.8,53.22-10.29s36.51-.51,54.72.09l55.73,1.85q63.7,2.11,127.39,4.3a1.74,1.74,0,0,0,1.72-1.72c-4.79-61.79-10.2-123.61-12.91-185.53-1.35-30.73-1.41-61.46-.76-92.2.33-15.51.79-31,1.21-46.53q.3-10.87.55-21.77c.15-7.06.92-14.47.07-21.51-1.64-13.45-13.73-12.81-24.61-13.47l-46.45-2.77c-30.65-1.84-61.31-4.4-92-5.06A400.85,400.85,0,0,0,315,23.23c-15.63,3.1-31.25,6.2-47.22,6.84-15.12.61-30.24-.47-45.33-1.35a1298,1298,0,0,0-207,4.13c-3.28.34-3.32,5.5,0,5.18a1354.62,1354.62,0,0,1,179.37-5.66c30,1.09,60.43,5,90.39,1,14.25-1.9,28.27-5.15,42.39-7.8a318.91,318.91,0,0,1,44.53-5.12c29.51-1.33,59,.72,88.48,2.5,29.89,1.81,59.94,3,89.77,5.65,4.45.4,8.38,1.44,9.83,6.18a26.2,26.2,0,0,1,.71,7.8c0,7.92-.29,15.84-.48,23.76-.37,15.18-.82,30.35-1.2,45.53-.75,30-1.15,60.1-.2,90.16,2.15,67.59,9.24,135,14.64,202.42l1.72-1.72Q518.71,401,462,399.18l-56.73-1.81c-18.41-.59-36.89-1.64-55.31-1.11-17.77.51-34.47,3.94-51.68,8.07-8.91,2.13-17.94,4.07-27.13,4.31-9.37.24-18-2-26.9-4.59-16.71-4.85-33.28-4.23-50.5-3.54q-27.8,1.11-55.52,3.54a1191.1,1191.1,0,0,0-122,17.15l1.63,1.24c2.56-101.43,1.08-203-5.08-304.28Q10.13,75.43,6.12,32.81c0-.48-.8-.5-.77,0Z"/><path class="cls-1" d="M262.54,51.63a39.79,39.79,0,0,1-9.39-5.23c-3.54-2.76-8.44,1.7-5.08,5.08a18.33,18.33,0,0,0,13.73,5.61c3.29-.19,3.57-4.28.74-5.46Z"/><path class="cls-1" d="M520.22,50.87c-4.24,0-6.66-1.37-10.42-2.8-4-1.52-8.74-1.72-12.89-2.75-8.06-2-15.77-5.08-23.8-7.17-17.26-4.49-33.85-10.55-51.51-13.53-37.14-6.27-74.23-4.05-111.37.94-10.7,1.44-21.37,3.05-32,4.74-12.23,1.94-25.94,2.07-34.6,12.17-7.43,8.67-7.24,22.62,3.7,28.71A30.45,30.45,0,0,0,269,74.74c4.85-.88,9.67-2,14.5-3,8.69-1.79,17.38-3.56,26.09-5.21,9-1.71,18-3.3,27.06-4.66,2.26-.34,4.51-.67,6.77-1-3.12.41,1.62-.19,2.55-.3q7.26-.87,14.57-1.48a276.86,276.86,0,0,1,53.39.35c4.09.46,4.85.6,9.8,1.46,5.57,1,11.09,2,16.71,2.7,8.36,1,16.73,1.88,25.13,2.48a107.18,107.18,0,0,0,29.6-2.37c4.59-.95,9.58-1.91,13.88-3.84a17,17,0,0,0,4.44-3.05,27.72,27.72,0,0,1,7.16-4.43c.78-.36.36-1.58-.43-1.57Z"/><path class="cls-3" d="M204.85,50.82c-.72-2.77-2.32-3.82-4.15-5.72-2.35-2.42-5.68-2.39-8.52-1.1a5.85,5.85,0,0,0-2,1.16c-4.81,3.47-4.53,11.12,1.69,12.94a126.87,126.87,0,0,1,41.51,21.15c5.37,4.1,12.92-1.51,12.92-7.41,0-8.43,11.72-10.61,18-12.19C275,57,285.77,54.35,296.5,51.7c10.42-2.58,8.55-20.18-2.59-19.16A130.74,130.74,0,0,0,238,50.7c-11.13,6.72-1.35,23.15,10.13,17.33a55.59,55.59,0,0,1,19.53-5.83c4.41-.43,8.33-2.79,9.56-7.28,1.12-4.09-.7-9.17-4.55-11.19C252.55,33.19,232.13,24.23,209,24c-24.19-.23-48.32,2.91-72.49.7-7.86-.72-14.68,6.62-15.64,13.81S124.47,54.81,132.31,56c7.61,1.15,14.05-.08,21.59-.57,5.61-.36,12.08.94,17.91,1.26q18.69,1.05,37.43.75c6.5-.1,13.52-7.14,10.71-14.06-11.68-28.75-49-25.77-74.58-27-29.74-1.47-59.27-5.18-88.95-7.07V39.57c15.89-1.4,31.75-3.17,47.7-3,15.56.19,31.11.8,46.6,2.24A319.16,319.16,0,0,1,195.16,46c12.51,3,26.57,6.22,36.89,14.39,5.16,4.08,12.21,5,17.24,0,4.25-4.25,5.18-13.12,0-17.24-12.44-9.91-26.82-15.38-42.08-19.39a348.72,348.72,0,0,0-50.82-9C140,13,123.48,12.15,107,11.84c-16.9-.32-33.7-1.56-50.57-2.56-7.51-.45-13.93,6.1-14.87,13.13C40.64,29.14,44.94,37.89,52.4,39c27.08,4.16,54.83,5.1,82.19,5.59,13.09.23,26.14.4,39.19-.59,6.63-.5,21.74-3.31,24.76,5.26l10.7-14.06q-17.76-.58-35.46-2.34c-5.25-.52-10.9-.63-16-1.86-5.81-1.39-11-4.89-17-5.75l-4.24,31.29c23,2,46-.88,69.06-1.1,10-.09,20-.69,29.92-.38,9.22.29,18.94,1.25,27.1,5.75l5-18.47A76,76,0,0,0,238,50.7L248.09,68a110.3,110.3,0,0,1,45.82-16l-2.59-19.16c-13.19,3.51-27.08,6.15-39.88,10.9-12,4.44-23.17,14.15-22.31,28.05l12.93-7.42a138.62,138.62,0,0,0-46.41-20l3.12,11.84c1.91-1.56,3.16-2.34,3.89-4.88L199.89,55a1.82,1.82,0,0,1,1.5-.72c2.06.29,4.06-1.2,3.46-3.46Z"/><path class="cls-3" d="M236.73,71Q230.1,65.8,230.92,69a.24.24,0,0,0,.1.21c-.8.85-1,3.49-1.27,4.57a104.42,104.42,0,0,0-2.59,10.13c-1.23,6.93-2.37,13.87-3.68,20.79-2.61,13.9-5.1,27.77-7.2,41.76-4.26,28.37-7.69,57-6.45,85.7.58,13.33,18,18.47,25.18,6.82,15.66-25.44,12.2-55.83,13.69-84.3C250.26,125,263,97.21,268,68c2-12.09-8.91-20.93-20.18-15.51-8.46,4.07-13.12,13.13-15,21.94-2.17,10-3.27,20.31-4.44,30.46-2.28,19.85-4.1,39.75-6.11,59.63-4.09,40.37-7.64,80.8-7.87,121.4a652.68,652.68,0,0,0,3.1,68.92l29.43-8c-9.62-16.16-24.4-30.65-42.24-37.19-8.66-3.17-18.54,2.87-21.86,10.73-3.82,9.05,0,17.61,7.58,23.15l14.5,10.6,18.86-32.26-7.39-3.72c-8.75-4.41-20.73-2.6-25.65,6.72-4.44,8.41-2.7,21.1,6.72,25.66l7.46,3.6c8.78,4.25,20.59,2.7,25.56-6.7,5.07-9.6,1.84-19.52-6.7-25.56l-14.65-10.35L194.78,345.4c1.67.59,3.36,1.09,5,1.65.71.24,1.42.49,2.12.76q-2.53-1.14-.77-.33a76.32,76.32,0,0,1,8.65,4.74c.17.11,4.06,2.95,1.58,1a31.63,31.63,0,0,1,3.37,3.07c.34.35,3,3.55,1.41,1.47a53.66,53.66,0,0,1,3.41,5c3.58,5.73,11.1,9.44,17.84,7.26,6.07-2,12.45-8.25,11.6-15.23-9.28-76.7-2.94-154.17,4.83-230.69,1-9.67,1.87-19.35,3.2-29a145.43,145.43,0,0,1,2.54-14.81c.17-.68.38-1.35.55-2l.44-1.33c-.44.92-.44,1,0,.13a16.78,16.78,0,0,1,1-1.73c-.68,1-2.05,1.83.05.82L241.48,60.69c-5,30.09-17.41,58.38-19.78,89-1,13.56-.44,27.18-1.14,40.76-.64,12.37-2.61,24.06-8.89,34.85l25.19,6.82c-2.26-33,1.71-65.94,6.06-98.64,2.13-16,4.33-32.67,4.42-48.81,0-6.59.31-16.52-4.61-21.55-3.75-3.84-10.58-5.14-13.38.52-2.35,4.74,2.47,10.09,7.38,7.38Z"/><path class="cls-3" d="M260.41,60.1q-.92,1.59,0-1.6c-.32.46-.25.38.21-.22a11,11,0,0,1,3.31-1.84c3.27-1.57,6.71-2.86,10.09-4.13,6.88-2.6,14-4.52,20.87-7A267.37,267.37,0,0,1,340.2,33.15a242.24,242.24,0,0,1,44.22-2.85c15.36.27,32.07,3.41,47.06-.53,5.3-1.4,8.36-9.52,3.51-13.32C427.45,10.52,418.65,7.3,409.14,6a199.78,199.78,0,0,0-29-2.37,262.71,262.71,0,0,0-56,6.6c-18.24,4.15-36.19,10-52.33,19.57-7.42,4.4-16.27,9.07-22.17,15.46s-7.31,17.43,1.47,22c4.52,2.36,11.27-1.62,9.3-7.14Z"/><path class="cls-3" d="M527.69,30.82A24.2,24.2,0,0,0,520.53,14c-5.5-5.53-15.16-7.22-22.59-8.39C483,3.27,467.9.89,452.76.3c-29.2-1.12-59.12.66-87.37,8.57-15.79,4.42-38.58,10.85-45.78,27-3.95,8.89.81,17.32,10.53,18.34,9,.94,17.24-2.65,25.54-5.92a178.69,178.69,0,0,1,23.7-7.4q5.67-1.35,11.41-2.37c2.19-.4,4.39-.74,6.59-1.08s2.21-.32.35-.06c1.11-.14,2.22-.28,3.33-.4,8.11-.91,16.26-1.41,24.41-1.6,16.77-.4,33.58.62,50.32,1.43,8.42.4,16.92,1.54,25.34,1.58,4,0,8.67.43,12.52-.49,2.65-.63,4.9-1.74,6.62-1.46,3.7.59,7.42-1.52,7.42-5.65Z"/><path class="cls-3" d="M254.87,44.13c-10-14.4-27.29-21.37-43.28-26.86-16.46-5.64-33.77-7.3-51.08-8.19-18.13-.95-36.35-.84-54.49-.17q-13.83.51-27.63,1.55-6.89.52-13.78,1.18c-3.32.32-7.2.33-10.38,1.2-4,1.09-6.77,3.8-9.89,6.25-7.21,5.65-4.92,19.38,3,23.19C51,44.05,54.47,46,58.71,46c1.91,0,4-.41,5.9-.6q6.89-.67,13.78-1.23Q92.19,43.06,106,42.5c17.29-.7,34.65-.87,52-.14,7.65.32,15.29.85,22.9,1.71,1.13.13,2.25.26,3.38.41l.61.09c2.59.41,5.18.82,7.78,1.12,1.94.22,3.88.38,5.82.58.56.06,5.64.67,3.3.35,15.59,2.13,30.32,8.07,45.89,10.07,6.18.8,10.58-7.72,7.22-12.56Z"/><path class="cls-3" d="M239.37,96.81l1.5,2.07a96.1,96.1,0,0,0-1.69-27.8c-2.94-14-13.76-26.18-27.72-28.83C156.43,31.8,37,25.9,37,25.9c-2,28,8.28,128.79,9.78,142.37A1116.13,1116.13,0,0,1,53.56,283c.28,37.16-4.26,73.62.65,110.72,68-33.88,148-31.67,223.41-22.15-49.75-30.39-112.35-28.39-170.15-21.08a27.65,27.65,0,0,1-8.6-.47c-5.33-1-18.14,5.55-19.85.89-9.32-25.42-.38-65.33-2.1-92.35-4-62.73-10.44-130-3.14-192.64.41-3.45,1-7.11,3.39-9.66,4.14-4.49,49.46,8.29,55.41,9.65,29,6.62,19.9,1.46,48.9,8.08,12.92,2.94,25.91,5.92,38.08,11.14-38,21.39-62.89-21.35-97,6.78-11,19-28.26,24.75-25,26,15.39,5.92,32.39,3.28,48.88,3a148.39,148.39,0,0,1,63.67,13.42C182,161.05,129.9,147.26,103.7,175.82c-2.45,2.67-4.75,6.18-1.56,10.08a9.71,9.71,0,0,0,2.83,2.26c21.21,11.71,46.5-7,70.06-3.36,15.54,2.41,28.18,14.56,35.32,28.57s9.68,29.84,12.13,45.38c1,6.49,2,13.42-.79,19.38-3.8,8.15-13.62,11.89-22.62,11.85s-18.64,8.52-27.49,6.92c-16.36-2.95-32.59-12.63-47.94-6.27-1.78.74-3.65,1.56-5.57,1.34a8.64,8.64,0,0,1-5.2-3.23c-9.07-10.43-4.59-27.82,5.94-36.78s25-11.48,38.73-12.88c17.07-1.73,35.38-2,50.08,6.86,11.13,6.71,18.77,17.83,25.65,28.85a539.06,539.06,0,0,1,47.6,96.43c78.79-28.16,166.56-13.76,249.15-.32-7.82-45-6.11-88.89-7.71-134.1-2-57.64-1.38-115.26-6.39-172.78-.69-8-3.11-12-9.73-16.06"/><path class="cls-3" d="M233.09,100.48l1.43,2.12c4.28,6.36,12.91,3.49,13.7-3.72,2.35-21.29-.6-45.74-19.29-59.19-12.34-8.88-30.47-9.51-45.11-11.52-16.48-2.26-33.49-4-49.71-5.79-8.2-.9-17.1-2.14-25.57-3.29-4.18-.57,2.85.38-2.15-.35.31.05-4.56-.61-2.07-.22-1.76-.27-3.51-.62-5.26-.92q-5.88-1-11.76-2Q68.78,12.42,50.19,9.51L57.9,14C51.8,8.58,44.55,8.58,37,7.78,26.44,6.67,20,17.06,18.9,25.9c-2,15.78-1.53,32-1.41,47.89.07,10.37.26,20.73.51,31.1.24,9.84,1.29,19.65,2.21,29.46,1.44,15.28,4,30.44,6.3,45.61q1,6.31,1.85,12.66c.14,1,.27,1.95.41,2.92,0,.21.46,3.43.15,1.15s.13,1,.15,1.18c.06.46,1,8.37.54,3.95q1.28,12.84,2.25,25.71,2,25.71,2.75,51.5c1.17,38.19-3.26,76.65,1.66,114.68.84,6.5,2.89,12,8.89,15.49,5.83,3.41,12.25,2.9,18.1,0q4.67-2.32,9.41-4.45c.76-.34,4.64-1.95,2.07-.91,1.87-.75,3.73-1.51,5.61-2.23q10.05-3.83,20.39-6.8c13.83-4,27.93-6.27,42-9.18,6.33-1.31,14.78-2.94,19.92-3.54l4.83-.31c1.75-.1,3.49-.19,5.23-.26q5.67-.27,11.36-.37c14.62-.28,29.26.13,43.86,1,16.6,1,33.16,2.7,49.68,4.72,6.33.78,13.43-5.29,14.79-11.26a15.81,15.81,0,0,0-7.05-17.33c-30.51-18.28-65.63-25.53-100.64-28.75a468.83,468.83,0,0,0-50.55-2.12c-8.64.15-17.25.62-25.87,1l-2.55.07c0-.13,4.42.93.82.12-.82-.19-1.62-.4-2.44-.55-.39-.07-10.32-1.39-3.87-.51,5.92.8-1.81-.59-4.43-.47-2.14.11-4.49.58-6.6.89l-5,.75c-5.15.8,6-.58.17-.07-.46,0-1-.05-1.42,0q-5.84-.27,9.51,2.72l9.66,11.79c.09-1.52-.71-3.74-1-5.29,1.72,8,.27,1.29.16-1a157.46,157.46,0,0,1,1.46-26.75l-1,7.39c2.12-8.76,1.76-18.35,2.22-27.34.36-6.87.73-13.71.43-20.58s-1.17-13.54-2.06-20.3c0,0-.51-10.76-.7-5.31-.13,3.8.13-.16.07-1.2-.12-1.87-.23-3.74-.35-5.61L100.52,224c-2.08-33.92-4-67.9-3.43-101.89.27-16.62,1.13-33.23,2.92-49.76.1-.93.21-1.85.31-2.77.22-2.16,1.45-4.11-.33,2a19.65,19.65,0,0,0,1-4.37l-2.37,4.07a10.28,10.28,0,0,1-4.88,6,26.31,26.31,0,0,1-8.34,4.41c3.25-1-7.28.32-4.87.65,1.41.2,2.94.06,4.37.2s4.82.6-.73-.14c-6-.79-.83-.07.48.16,16.79,2.93,33.15,7.76,49.89,10.87A187.74,187.74,0,0,0,155,96.23c1.69.12,3.38.2,5.07.34,1,.08,2.06.21,3.09.3,3.28.26-7.74-1.21-2.67-.36,8,1.34,15.86,3,23.73,4.85,4.4,1,8.8,2.08,13.14,3.32q3.47,1,6.89,2.13c1.65.54,8.65,3.37,2.26.6V62.84c-.87.46-1.77.88-2.64,1.36-3.66,2,1.86-.87,2.29-.94-1.88.33-3.79,1.3-5.66,1.74-.81.2-1.65.31-2.46.52-3.08.79,6.43-.53,3.3-.44-1.78,0-3.52.23-5.3.19-1.54,0-3.06-.26-4.6-.31,8.76.28,3.61.51.8-.07-3.11-.66-6.19-1.5-9.24-2.41-6-1.78-11.89-3.82-18-5.24a76.54,76.54,0,0,0-30.43-1.1,60.72,60.72,0,0,0-25,10.55A42.45,42.45,0,0,0,96.89,79.77c-1.86,3.08,3.84-4.55,1.56-1.92-.65.76-1.29,1.54-2,2.29a92,92,0,0,1-8.36,7.8c7.94-6.92.76-.81-1.87.89C83,91,79.21,93.23,76.66,96c-7.36,7.93-10.92,18.77-8,29.49C72.16,138,82.29,144.18,93.83,148c23.9,7.86,49.9.66,74.44,3.83l-7.85-1.06A157.85,157.85,0,0,1,181,154.85c3.22.88,6.42,1.87,9.57,3,1.72.6,3.41,1.27,5.12,1.89,5.34,1.93-5.86-2.6-.26-.13l-5.9-45.85c-.28.26-2.63,2.69-2.87,2.56s5.56-4,3.39-2.63c-.72.44-1.38,1-2.08,1.44a59.6,59.6,0,0,1-7.15,4c-.57.28-1.16.51-1.72.8-2.26,1.15,4-2,4-1.7s-3.62,1.34-4.22,1.54c-2.67.9-5.38,1.68-8.11,2.39-11.22,2.89-22.73,4.2-34.09,6.36-12.86,2.46-25.86,6.38-37.17,13.11a71.14,71.14,0,0,0-20,17.25c-11.16,14.45-11.79,35.19,2,48.6,17.4,16.93,42.4,16.32,64.58,12.86l-8.4,1.13c9.45-.38,18.76-3.37,28.11-4.77l-8.61,1.16a61.84,61.84,0,0,1,16.42-.28l-8.76-1.18a44.14,44.14,0,0,1,9.81,2.86l-7.95-3.35a50.08,50.08,0,0,1,8.74,5.19l-6.81-5.26A59.46,59.46,0,0,1,179,226.29l-5.33-6.9a71.38,71.38,0,0,1,8.3,14.63l-3.5-8.29c3.5,8.7,5.3,17.8,6.59,27.06l-1.29-9.6c1.23,9.33,3.11,19.32,1.86,28.71l1.35-10a29.9,29.9,0,0,1-1.31,4.64l3.83-9.08a23.33,23.33,0,0,1-2.14,3.69l6-7.75a23.54,23.54,0,0,1-3.76,3.64l7.81-6a29.24,29.24,0,0,1-4.65,2.57l9.29-3.92a34.81,34.81,0,0,1-6.56,1.79l10.44-1.4c-8.1,1.05-16.24.49-24.29,2.62-5.24,1.38-10.12,3.75-15.5,4.62l10.9-1.46a23.06,23.06,0,0,1-4.07,0l11,1.48c-6.44-1.18-12.59-3.81-18.72-6-9.55-3.45-18.41-4.82-28.63-6.11l11.53,1.55c-12.34-2-18.07-2.12-30.44.15-3.37.62-6.46,2.07-9.81,2.69L119.5,248l-1.43,0,11.7,1.57-1.48-.42,10.52,4.44-1.35-.77,8.92,6.89a12,12,0,0,1-2.27-2.17l6.9,8.94a24.89,24.89,0,0,1-2.73-4.43l4.47,10.59a25.37,25.37,0,0,1-1.64-6.16l1.59,11.82a30.71,30.71,0,0,1,.14-6.5l-1.6,11.87a36.52,36.52,0,0,1,2.25-7.72L149,286.64a38.41,38.41,0,0,1,4.19-7l-7,9.13a53.75,53.75,0,0,1,8.19-8l-9.07,7a56.05,56.05,0,0,1,10.91-6.16l-10.51,4.44c9.51-3.82,19.63-5.64,29.74-7.06l-11.17,1.5a105.92,105.92,0,0,1,26.62-.6l-10.71-1.44a87.83,87.83,0,0,1,12.68,3.1l-9.41-4a62.46,62.46,0,0,1,9.8,5.76l-7.9-6.11c4.76,3.7,8.59,8,12.61,12.5l-6-7.78c3.27,4.43,6.33,8.83,10.54,12.36,2.05,1.71,4.05,3.48,6,5.26,5.78,5.17,11.48,11.75,18.32,15.39L216,304.24c7.83,13.36,15.95,26.45,23.1,40.21,3.44,6.61,6.5,13.26,10.81,19.34,5.16,7.26,9.67,16.14,16,22.34,5.12,5,13.5,7.91,20.53,5.43,7.65-2.71,15.11-5.8,22.87-8.21a155.48,155.48,0,0,1,22.68-5c1.2-.18,6.52-.85,2.74-.41l5.32-.63q6.24-.68,12.48-1.12,12.12-.86,24.27-.91c16.06-.09,32.12.75,48.12,2.2q12.33,1.11,24.61,2.67l5.47.7-1.08-.14c.91.1,1.82.25,2.73.37Q463,382,469.38,383c18.31,2.78,36.55,6,54.79,9.15,8,1.38,15.45.29,21.4-5.66s6.93-13.4,5.66-21.4c-.41-2.61-.81-5.22-1.18-7.83.62,4.36.13.91,0,0-.18-1.62-.39-3.24-.57-4.86-.58-5.49-.92-11-1.16-16.5-.49-11-.61-21.93-.55-32.9.13-22.07,1-44.11.85-66.18-.14-22.52.07-45,.22-67.57.16-22.79.74-45.74-.44-68.5-.65-12.48-1.34-25-2.59-37.43-.86-8.58-2.09-16.37-6.66-23.91s-10.64-12.7-17.85-17.33c-13.22-8.51-33.69-3.15-41,10.76-7.87,14.89-3.35,32,10.76,41.05q3.88,2.56-2.77-2.38A19.08,19.08,0,0,1,490,73.11q-5.08-7.06-2.66-3.43a14.63,14.63,0,0,1,1,2l-3-7.16a27.54,27.54,0,0,1,1.49,6.06l-1.07-8c2.11,20.25,2.86,40.68,4.17,61s2.25,40.38,3.22,60.57c1.94,40.26,3.83,80.59,6.78,120.78.81,11,1.81,22,3.19,32.91q.81,6.38,1.71,12.74l.13,1c-.41-3-.38-2.74.12.91q.66,4.94.26,1.94c-.39-3-.17-1.36.66,4.89q1.22,8.78,2.8,17.48l27.06-27.05c-68.33-10.31-137.36-20.8-206.34-10.46q-6.63,1-13.2,2.28-3.49.67-7,1.46c-.87.19-1.75.37-2.61.59l1.68-.08-5.22.7a158.25,158.25,0,0,0-27.93,6.7L302,371.22c.39-5-1.1-10.78-1.93-15.83q-1-5.94-2.06-11.86c-.33-1.79-.57-3.69-1-5.44a36.52,36.52,0,0,0-2-5q-2.82-6.54.07-.14c-.69-.24-1.7-4.19-2.09-5.13q-2.3-5.52-4.64-11c-6.16-14.48-12.63-29.13-20.48-42.8l4.1,15.14c.22-9.91-3.8-20.91-6.8-30.36-4.08-12.9-11.57-23.81-21.06-33.44a91.26,91.26,0,0,0-30-19.89c-12-5.08-23.27-7.12-36.4-8.4a158.66,158.66,0,0,0-24.08-.21c-10.95.62-22.32,1.67-32.85,4.84-26.42,8-49.46,27.64-55.22,55.61C62,274.44,63.2,292.5,72.38,307.88a57.55,57.55,0,0,0,27.23,23.95,47.57,47.57,0,0,0,25.73,3.3c7.62-1,13.26-3.49,20.43-6.64l-10.48,4.42a34.08,34.08,0,0,1,8-2.19l-11.59,1.56a55.37,55.37,0,0,1,11.44.08l-11.43-1.54c9.76,1.41,19.16,4.53,28.93,5.91,10.34,1.47,19.81,2.31,30-1.25,7.08-2.48,13.71-6,20.53-9.05l-9.59,4.05a32.21,32.21,0,0,1,6.77-2.11l-10.57,1.42c12.55-1.24,23.05-2.87,34.24-9.08a56.72,56.72,0,0,0,24.58-27.89c8.5-20.14,2.75-42.35-2.77-62.61-5.06-18.54-13-35.58-25.13-50.46-10.49-12.83-26.91-23.68-43.38-26.55-21.44-3.75-43.78.84-63.58,9.36l7.55-3.18a97.85,97.85,0,0,1-13,2.9l8.18-1.1a47.08,47.08,0,0,1-9.93.17l8,1.08a30.5,30.5,0,0,1-6.91-1.83l7.15,3c-6.72-3-2.9-4.69,4.2,5.79l3,7.13-.52-1.4,1.07,7.93-.13-1.36-1.06,7.92a6.48,6.48,0,0,1,.67-2.55l-3,7.11c2.45-4.35-4.95,4.92-1.41,1.7.93-.85,1.78-1.81,2.72-2.66,2-1.77,5.48-3.1-2.11,1.47.89-.53,1.7-1.2,2.57-1.76a59,59,0,0,1,6-3.36c5.65-2.79-2.25,1.22-2.44.91,0,0,3.4-1.3,3.56-1.35,9.51-3.38,19.49-5.2,29.38-7.06,24.06-4.51,46.9-10.07,65.57-27,12.95-11.78,10.87-38.13-5.91-45.86a194.5,194.5,0,0,0-62-17.1c-17.23-1.86-34.53,1.08-51.72-.9l8,1.07c-5-.69-9.87-1.48-14.82-2.14l7.94,1.07a67.89,67.89,0,0,1-6.76-1.79l7.06,3,10.2,10.26,4,14.92v-.17l-1,7.86.08-.19-3,7.06c-4.49,6.58-5.7,7-3.29,4.66,2.56-2.52-7.6,5.85-3.29,2.55,3.48-2.66,7-5.28,10.36-8.1a94.45,94.45,0,0,0,17-19.52,22.65,22.65,0,0,0,2.53-4.1q-4.47,5.11-1.32,2.3-5.7,4.31-2.26,1.88c1.48-.88,3-1.74,4.47-2.62,4-2.38-6.54,2.15-2.18.91,1.45-.42,2.89-.83,4.36-1.22,4.33-1.16-8.27.64-1.85.25a53.36,53.36,0,0,1,7.48.18c4.41.34-8.1-1.33-1.78-.17,1.07.19,2.14.4,3.2.65,2.86.68,5.69,1.51,8.51,2.32A138.16,138.16,0,0,0,180,115.75c18.67,3,35.85,1,52.59-8.34,9-5.06,13.66-15.75,12.32-25.72-1.47-10.94-8.66-17.46-18.49-21.46-15.34-6.23-31.49-10.36-47.7-13.66a186.43,186.43,0,0,0-19.67-2.88c-1.46-.13-2.92-.24-4.38-.38-.85-.08-1.71-.21-2.57-.27-2.17-.16,5.59.94,5,.67a11.23,11.23,0,0,0-2.39-.37c-18.32-3.06-35.8-9.72-54.11-12.84C85.67,28,70.48,25.77,58.24,37c-9.74,8.9-10.82,22.3-12,34.49q-1.26,13-1.8,26.12c-1.55,35.85.35,71.77,2.85,107.54,1.34,19.11,3.65,38.29,3,57.46-.63,18.19-5,36.88-2.2,54.95l-1-7.39a225.42,225.42,0,0,0,3.29,30c1.78,9.66,4.84,21.34,11.79,28.5,9.2,9.48,22.33,9,33.88,5.17.34-.12,4.21-1.59,4.35-1.36l-2,.26q-6.12.78,4.07-.56c-.09,0-5.19,0-4,.49,1.64.64,4.7.3,6.41.21a85.48,85.48,0,0,0,11.68-1.74c8.72-1.69,17.47-3.23,26.26-4.55,1.23-.18,7.45-1,3.13-.47q3-.39,5.91-.74,7.15-.85,14.35-1.45a231.41,231.41,0,0,1,26.85-.87q6.23.21,12.43.72c1.92.16,3.83.35,5.75.55,3.23.33,1.49.18.78.07,1.63.25,3.26.54,4.88.84,20.13,3.68,36.17,9.42,53,19.62l7.75-28.6c-30.15-3.87-60.5-6.59-90.92-6.36-14.75.11-29.57.57-44.3,1.34-15.91.84-31.65,3.89-47,8a275.71,275.71,0,0,0-50.21,19l27,15.49c-4.25-33.63-1-67.26,0-100.95C73.26,258.46,71.49,224.2,70,190c-.72-16.15-1.42-32.46-2.67-48.58-.73-9.41-1.77-18.81-2.58-28.21-.59-6.79-1.82-13.51-2.77-20.26q-.54-3.86-1.07-7.71c-.12-.9-.7-5.18-.17-1.27s-.12-.92-.25-1.89C58,63.55,55,44.61,55.13,25.9L37,44c5.79-.07,12.35,1,17.34-2.58l-8.81,2.39c24.76-1.11,49.55-2.35,74.33-1.45,15.84.57,31.6,2,47.37,3.56,14.13,1.44,26.26,2.75,39.82,5.15,8.78,1.56,16,5.93,20.64,13.73,5.82,9.85,6.25,23,5.8,34.07l12.56-5.2-1.57-2c-5-6.48-16,2-11.41,8.81Z"/><path class="cls-3" d="M264.91,78l9.5-11c2.87-3.34,6.45-6.6,8.53-10.49a2.17,2.17,0,0,0-3.39-2.61c-3.33,2.84-5.78,7.08-8.41,10.58L262.4,76c-1.08,1.44,1.33,3.3,2.51,1.93Z"/><path class="cls-3" d="M273.53,103.7a115.22,115.22,0,0,1,9.17-14.52l-9.56,7.35.85-.17c5.8-1.18,11-6.73,12.36-12.36.3-1.22.63-2.41,1-3.6.25-.75.58-1.48.82-2.23.67-2.09-1.82,3.48-.65,1.61.69-1.1,1.18-2.37,1.83-3.5s2.28-2.75,2.51-3.88c-.48,2.4-2.28,2.67-.52.72.49-.56,1-1.13,1.48-1.67q1.59-1.71,3.33-3.28c.6-.55,1.28-1,1.86-1.61,1.74-1.74-2.83,2-.72.54,1.91-1.3,3.78-2.62,5.77-3.81a125.07,125.07,0,0,1,11.25-5.87c.75-.34,4.25-1.78,1.21-.55,1.2-.48,2.41-1,3.63-1.42q4-1.5,8.07-2.82a174.88,174.88,0,0,1,30.25-6.9c-4.21.57,2.23-.2,3.28-.3q3.34-.32,6.69-.54c5-.33,10-.49,15-.55,9.56-.11,19.12.2,28.66.55,4.84.18,9.67.32,14.5.59,2.53.14,5.06.35,7.59.57,4,.35,1.28.14.42,0,1.87.29,3.74.63,5.59,1.05,9.79,2.2,19,6.31,28.78,8.59a98.89,98.89,0,0,0,23.19,2.6,47,47,0,0,0,5-.1c3-.36-1.68-.18-2.12-.52a14.37,14.37,0,0,0,3.25.85q6.69,1.77,13.29,3.84L499.43,55.8c5.27,4.13,9.46,7.16,16.21,8.07,3.05.41,6,.53,9.05.68L498.1,38c-.19,31.9-3.36,63.63-6.53,95.34a388.79,388.79,0,0,0,1.65,93.91q2.23,15.39,4.94,30.71c.17,1,.31,1.93.51,2.88,1.41,6.44-.51-6,.69,2.91a59.15,59.15,0,0,0,2.32,9.35,142,142,0,0,0,6.22,17.72l-2.32-8.6c4,30.58,9.3,57.49,9.86,88.52l20.36-15.51C516.38,350.34,497.56,343.45,478,339c-20.73-4.76-42.45-8.31-63.76-8.42-40.72-.22-81.21,5.38-121.93,5.54l21,21c-.18-1.95.31-3-1,2.22-.73,2.94-.84,3.62-2.48,5.71,1.76-2.24.79,1.09-.93.68.24.05,1.55-.92,1.81-1.06,3.32-1.84,6.81-3.4,10.27-5,3.65-1.65.67-.28-.07,0,.83-.33,1.65-.67,2.49-1,1.66-.65,3.34-1.28,5-1.88q5.89-2.12,11.92-3.81c3.73-1.06,7.5-1.92,11.32-2.63,1.76-.32,3.53-.6,5.3-.89.42-.07,3.41-.5.69-.13s1.08-.11,1.58-.16a182.09,182.09,0,0,1,24-1.06q5.37.12,10.72.55c2.12.17,4.22.45,6.34.63,2.71.24-1.29-.21-1.49-.23,1.22.1,2.46.35,3.67.54,8.26,1.28,16.46,3,24.63,4.78,17.34,3.8,34.55,7.57,52.19,9.74a149.85,149.85,0,0,0,24.87,1.17c6.62-.3,13-1.27,18.84-4.57,7.25-4.08,12.75-12.17,14.37-20.24,4.67-23.2-8.82-45.21-28-57.35C492.13,272.18,471,270,451.14,267.38a376.53,376.53,0,0,0-50.78-3.06,491.1,491.1,0,0,0-121.3,15.85L327.41,317l.09-1.46-1.36,10.15a27.15,27.15,0,0,1,1.38-5.62l-3.84,9.1a32.12,32.12,0,0,1,3.63-6.34l-5.94,7.68a38.62,38.62,0,0,1,6.32-6.2L320,330.24a62.13,62.13,0,0,1,11.7-6.41l-9,3.8c15.43-6.26,31.55-11.35,47.49-16.16a331.78,331.78,0,0,1,49.88-11.42l-9.63,1.29a175.69,175.69,0,0,1,45.07-.19l-9.66-1.3c23.84,3.21,51.35,10.91,72.31-5.29,14.87-11.48,21.47-30.46,15.77-48.63-4.46-14.17-14.36-25-26.44-33.23-16.24-11-37.35-13.46-56.34-14.94-17.3-1.35-34.4.23-51.67.91-18.44.71-36.85,3-55.32,1.93l13.29,1.78c-9.92-2.21-19.58-1.73-29.51-3l13.53,1.81a78.05,78.05,0,0,1-18.7-5l12.32,5.2a30.11,30.11,0,0,1-3.78-2.07l10.47,8.09a12.08,12.08,0,0,1-2.1-1.88l8.11,10.49a9.38,9.38,0,0,1-1.56-2.5L351.5,226a21.17,21.17,0,0,1-1.06-4.53l1.86,13.86c-.91-12.42.06-25.11,1.62-37.43L352,212.09c1.05-7.73,2.17-15.45,3.2-23.19l-1.92,14.28a225.79,225.79,0,0,1,15.23-55.59l-5.41,12.83c3.54-8.28,7.45-16.36,12.86-23.61l-8.41,10.88a67,67,0,0,1,10.25-11L367.08,145a44.69,44.69,0,0,1,8.24-4.88l-12.51,5.28c7.51-3.11,15.36-4.24,23.34-5.44l-13.5,1.82c26.48-2,53.79-3.48,80.31-1.21l-13.33-1.79a17.83,17.83,0,0,1,4,1l-12-5.05,1.19.69-10.13-7.83a8.17,8.17,0,0,1,1.81,1.76l-7.83-10.13a10.33,10.33,0,0,1,1.25,2.19l-5-12a26.21,26.21,0,0,1,1.29,5.11l-1.79-13.29c1.66,13.87,2.2,28,2.79,41.93.57,13.61,1.65,27.76.22,41.33l1.78-13.21a23.18,23.18,0,0,1-.93,3.78l5-11.88a8.87,8.87,0,0,1-1.21,2.14l7.79-10.07-.84.89,10.08-7.79a6.61,6.61,0,0,1-2.23,1.34l11.9-5-1.32.36,13.25-1.78c-4.38.52-8.88-.44-13.22-1l13.29,1.78c-30.92-4.22-62.15-11-93.49-7.62A51.31,51.31,0,0,0,321,161.89c-8.73,14.92-10.21,37,0,51.8,1.95,2.82,3.8,5.75,5.87,8.48A39.17,39.17,0,0,0,340.2,236.7,39,39,0,0,0,357.8,246c12.4,3.41,28.9,1.87,39.89-5.22s20.78-17.73,23.79-30.93c2.88-12.64,3-29.05-5.22-39.89-4.76-6.29-9.65-12.36-14.66-18.42L379,237.27q3.74-.74,7.5-1.27l-13.55,1.82c22.2-2.87,44.84,1.15,66.86,3.81,4.89.59,9.85,1.34,14.78,1.56,15.17.69,32.42-5.47,42.92-16.55a63.36,63.36,0,0,0,9.76-13.16c4.89-9.2,5.5-13,6.75-22.3a140.3,140.3,0,0,0,.94-21.39c-.37-22.37-.4-44.84-2.36-67.15-1-12-2.56-22.27-8.72-32.86-7.93-13.64-21.13-23.13-36.18-27.43-8.1-2.31-17.88-2.33-26.45-2.72q-8.94-.41-17.89-.55-17.4-.3-34.79.35c-10.44.39-21.06.39-31.46,1.47-8.59.89-17.88,1.74-26.08,4.88-14.05,5.38-20.82,9.54-32.5,19C292,70,287.1,77,282.26,83.8a91.52,91.52,0,0,0-7.12,11.88c-11,21.65-19.52,45.2-23.9,69.12a257.9,257.9,0,0,0-4.65,43.89c-.13,13.72.44,28.72,3.63,42,2.32,9.68,8.35,20.05,15.23,27.14a67.81,67.81,0,0,0,14.9,11.59,82.6,82.6,0,0,0,26,9.05c9.46,1.56,19.13,3,28.75,2.9,10-.14,19.71-1.85,29.39-4,11.32-2.57,22.33-6.3,33.39-9.79a230.42,230.42,0,0,1,37.89-8.9l-11,1.47c15.2-2,30.84-3.16,46.13-1.35l-10.41-1.4a60.5,60.5,0,0,1,13.83,3.44l-9.18-3.87a37.94,37.94,0,0,1,7.17,4L464.66,275a30.46,30.46,0,0,1,4.84,4.79l-5.89-7.63a25.49,25.49,0,0,1,2,3.22l-3.78-9a10.44,10.44,0,0,1,.78,2.24l-1.34-9.94a7,7,0,0,1,.12,2.33l1.33-9.91-.26,1.17,3.75-8.89a7,7,0,0,1-1.31,2.3l5.8-7.51-1.11,1.11,7.49-5.79a10.58,10.58,0,0,1-2.35,1.51l8.81-3.72a16.52,16.52,0,0,1-4,1.08l9.76-1.31c-10.09.58-20-1-30-2.23a182.06,182.06,0,0,0-30.07-1.31,342.7,342.7,0,0,0-65.69,9.34c-18.9,4.53-37.65,10.18-56.07,16.4-13.68,4.61-26.07,10.39-36.76,20.26C258.16,285.15,252.52,300.41,251,317c-1.07,11.7,6.26,23.21,15.05,30,9.83,7.59,21.2,9.65,33.31,6.84,32.47-7.56,64.76-15.89,97.84-20.46l-9.31,1.25c29.48-3.94,59.75-5.45,89.33-1.64l-8.11-1.09c3.83.67,7.72,1.23,11.59,1.52l-8-1.08a88.2,88.2,0,0,1,12.85,3c3.49,1.06-5-2.66-2.2-.86.62.39,1.32.7,2,1.08a11.63,11.63,0,0,1,2.49,1.64c-1-1.28-4.94-4.23-1.69-1,.81.81,2.95,3.48.3,0s-.84-1.15-.42-.36a10.92,10.92,0,0,1,1.4,2.57c-.36-3.19-2.08-4-2-7.86a17.14,17.14,0,0,0,.2,2.83l7.42-9.87q1.88-9.76,9.31-10.14l1.9-.27c-.93.09-1.85.18-2.77.25-1.54.12-3.08.22-4.62.29a180.28,180.28,0,0,1-27.58-1c-2.12-.22-5.22-1.14-7.33-.87.64-.08,5.72.82,1,.13l-2.78-.41c-4.93-.73-9.86-1.52-14.78-2.3-20.24-3.22-40.67-6.49-61.22-5.78a229.56,229.56,0,0,0-57.55,9.83,219.35,219.35,0,0,0-31.67,12.4c-12.22,5.86-24.92,16.19-23.58,31.38,1,11.26,8.8,21,21,21,40.08-.16,79.9-6,120-6.18,10.06-.05,20.1-.32,30.15.15q6.76.31,13.5.95,3.82.38,7.65.82l3.82.48q-2.61-.35.83.13c19.67,3,39.83,6.38,59,11.83,10.11,2.88,20.33-5.14,20.37-15.51.08-24.21-3-48.22-6-72.2q-.54-4.32-1.07-8.64c-.15-1.25-.2-2.61-.46-3.83-.38-1.82-.9-2.37-.75-1.08-.21-1.77.67-5.4.82-7.57.12-1.6.23-3.2.35-4.81.25-3.24.62-6.48.82-9.72.71-12,.12-24.26.4-36.33.52-22.35-1.5-44.81-.15-67.15,1-16.32,3.39-32.57,5.21-48.81,2.69-24.12,5-48.31,4.47-72.6a27.09,27.09,0,0,0-26.59-26.59c-1.54,0-3.09-.11-4.63-.08-6.64.09-8.27,1.75-14.28,3.6.41-.13,6-2,1.88-.81-.94.26-1.88.57-2.82.86-1.91.59-3.81,1.21-5.71,1.84l-2.85,1c-2.25.76-3.81,0,1.05.43-2.93-.24-6,.26-9,.23-1.27,0-2.53-.05-3.8-.13-.8-.05-1.6-.13-2.4-.18-4.29-.28,3.49.69,1.31.21C473.77,16.15,464.53,13,455,10.37,442.69,7,429.86,6.3,417.18,5.94c-22.3-.62-44.4-.91-66.56,2.15a186.41,186.41,0,0,0-30.88,6.79c-11.53,3.65-23.61,8-33.79,14.67-16.75,10.87-28.89,25.47-33.72,45-2.08,8.43,1.63,15.07,8.13,20l.45.35-7.35-9.56a132.66,132.66,0,0,0,7,18.34c2.34,5.26,10.48,4.57,13,0Z"/><path class="cls-4" d="M254.3,50.18a64.44,64.44,0,0,0-3.56,15Q250,73,249.37,80.88q-1.29,15.74-2.3,31.48c-.68,10.53-1.88,21-2.91,31.49a281.62,281.62,0,0,0-1.32,32.47q1,62.93,6.46,125.68c1.09,12.57,2.74,25,4.56,37.51,1.78,12.18,2.64,25.28,10.07,35.59,5.81,8.08,17.1,6.75,20.56-2.69,3.83-10.46,2.19-21.47,1.18-32.26-1-10.43-1.73-20.89-2.93-31.29q-3.6-31.32-6.1-62.75t-3.86-62.9c-.46-10.53-.59-21-1.86-31.48s-2.78-21-3.48-31.49c-.77-11.46-1.08-23-1.44-34.44q-.28-8.85-.48-17.71A81.52,81.52,0,0,0,263,50.18c-1.09-4.53-7.35-4-8.68,0Z"/><path class="cls-2" d="M22,32.9c-3.23,46.25,6.87,91,11,136.83,2.31,25.37,3.78,50.83,6,76.22,2.2,25.56,4.52,51.11,5.93,76.73,1.59,28.84,2,57.74.25,86.58-.11,1.69,2.52,1.68,2.62,0,3.25-51.19-.58-102.49-5.15-153.48q-3.45-38.31-6.4-76.64c-1.72-22.55-5.26-44.88-8.41-67.26-3.7-26.15-6.55-52.52-5.74-79a.05.05,0,1,0-.1,0Z"/><path class="cls-2" d="M60.54,401.67c-5.42-98.13-17.85-195.78-20.33-294.09-.69-27.21,0-54.35.34-81.55,0-1.4-2-1.37-2.15,0-1.8,24-1.46,48.29-1,72.35.48,25,1.63,50.07,3.16,75.06,3.06,49.68,7.68,99.23,12.38,148.78,2.51,26.48,5.13,52.95,7.49,79.45,0,.06.1.06.1,0Z"/><path class="cls-2" d="M73.18,395.69c9-41.85-1.82-83.93-7.73-125.39-6.4-44.91-9.18-90.25-10.83-135.55q-.67-18.65-1.1-37.31c-.31-12.66.32-25.7-1.17-38.28a1.08,1.08,0,0,0-2.15,0c-.84,11,.14,22.34.41,33.38s.58,22.25,1,33.38c.74,21.91,1.73,43.81,3.31,65.68s3.68,43.66,6.56,65.38c2.82,21.2,6.86,42.19,10.07,63.33,3.8,25,6.19,50.28,1.41,75.3,0,.18.23.26.27.08Z"/><path class="cls-2" d="M68.64,393.89c7.6-3.08,14.59-8.22,21.84-12.08A202.28,202.28,0,0,1,115.8,370c18.82-6.94,37.54-7.76,57.26-4.8,35.93,5.39,73.35,11.52,106,28.17,1.88,1,3.54-1.87,1.65-2.83-26.3-13.38-55.23-19.58-84.11-24.59-15.06-2.61-30.37-5.64-45.71-5.5-14.14.12-27.85,3.65-40.83,9.12a185.1,185.1,0,0,0-21.48,10.8c-6.77,3.95-14.39,7.81-20.28,13-.24.21,0,.68.32.55Z"/><path class="cls-2" d="M283.65,388.88c12.21-10.92,31.44-11.51,46.87-13.39,17.37-2.11,34.81-3.74,52.29-4.59,35.18-1.72,71.26-1.25,106.16,3.86a154,154,0,0,1,26.73,6.17c8.51,2.86,17,6.62,26.13,6.71,2.48,0,2.34-3.47,0-3.75-8.78-1-16.73-4.05-25.06-6.85A152.21,152.21,0,0,0,491,371c-17.42-2.62-35.13-3.69-52.72-4.31a599.89,599.89,0,0,0-108.14,5.61c-15.66,2.31-35.95,3.16-47.44,15.57a.71.71,0,0,0,1,1Z"/><path class="cls-2" d="M525.71,253.35c.45,21,3.29,42,5,62.91s3,41.92,2.51,63a.41.41,0,0,0,.82,0c.83-21-.47-42-2.36-63s-3.68-42-5.88-62.91a.07.07,0,0,0-.14,0Z"/><path class="cls-2" d="M539.92,21.49a.28.28,0,0,0,0-.56.28.28,0,0,0,0,.56Z"/><path class="cls-2" d="M518.49,15.59a906.22,906.22,0,0,0-11.68,116.13c-1.56,39.39-1.68,79.21,2,118.5.08.82,1.34.85,1.31,0-1.36-39.21-2.54-78.3-1-117.52s5.19-78.16,9.77-117c0-.26-.41-.33-.46-.07Z"/><path class="cls-2" d="M526.45,13.4c-8.51-1.43-17.62-.8-26.24-1.33-9.35-.57-18.67-1.58-28-2.75-18.76-2.38-37.52-5.05-56.35-6.93C381.22-1.08,345.46-.78,313,13.34c-17.77,7.73-33.78,18.83-49.09,30.59-3,2.28,0,7.41,3,5.1,13.25-10.14,27-19.78,42-27.19A148.1,148.1,0,0,1,359.93,7.58C395.3,4.06,430.46,10,465.51,14c10.23,1.17,20.55,1.88,30.84,2.23,9.66.33,20.73,1.13,30.1-1.61.57-.16.67-1.15,0-1.26Z"/><path class="cls-2" d="M267.37,41.07c-10.76-9.3-24.86-15.43-38.05-20.38A222.28,222.28,0,0,0,184.73,9.45C151.12,4.3,116.85,4.69,82.93,5.27A234.42,234.42,0,0,0,56.84,6.91C48.37,8,38.51,9.26,31.06,13.68c-3,1.81-.93,6.09,2.32,5.48,4.75-.88,9.31-2.71,14-3.75a127.75,127.75,0,0,1,15.31-2.34c9.76-.92,19.57-1,29.37-1.1,20.92-.18,41.87-.32,62.76,1a311.87,311.87,0,0,1,58.86,8.81,211.84,211.84,0,0,1,26.36,8.49c9,3.63,17.3,8.34,26,12.45,1,.46,2.2-.8,1.25-1.62Z"/><path class="cls-2" d="M265.2,74.65c.49,39.3-.13,78.52,1.32,117.82s3.78,78.46,7,117.61q2.75,33.56,6.31,67c.2,1.84,3.12,1.85,2.91,0C273.88,299,268.84,220.57,266.45,142c-.68-22.4-1.59-44.93-1.15-67.34,0-.07-.1-.07-.1,0Z"/><path class="cls-2" d="M269,389.67c-30.64-12.29-64.07-17-97-16a274.48,274.48,0,0,0-47.63,5.76c-15.91,3.34-32.79,7.52-47.22,15.18a1.51,1.51,0,0,0,1.16,2.74c15.19-4.63,29.79-10.38,45.37-13.83a272.55,272.55,0,0,1,49.2-6.22c32.54-1.2,64.77,3.75,96.06,12.53a.09.09,0,0,0,0-.18Z"/><path class="cls-2" d="M262.52,388c-29.24-7.51-61.36-7.83-91.34-6.05-30.37,1.79-61.6,6.1-90.68,15.27a2.16,2.16,0,0,0,1.15,4.16c29.95-7.24,59.63-13.25,90.47-15.16,15.08-.94,30.18-1.25,45.28-.7s30,2.15,45.07,2.85a.19.19,0,0,0,0-.37Z"/><path class="cls-2" d="M283.11,383.09c15.38-8.89,30.67-16.76,47.53-22.57a219.87,219.87,0,0,1,51.34-11,209.29,209.29,0,0,1,51.61,1.53c18.14,2.86,35.46,8.59,52.68,14.81,19.61,7.09,39.5,14.75,60.4,16.83,2.09.21,2.59-3.36.5-3.68-38.33-5.79-72.72-25.26-110.91-31.53a213.1,213.1,0,0,0-102.66,8.41c-17.94,6.08-36,14.79-51.06,26.44-.43.33.12,1,.57.73Z"/><path class="cls-2" d="M293.49,386.84c36.5-12.15,73.73-20.5,112.3-21.86A348,348,0,0,1,462,367.5c19.51,2.46,38.13,7.65,57.27,11.77a1.27,1.27,0,0,0,.68-2.44c-14-5.5-29.42-8.36-44.23-10.73a349.86,349.86,0,0,0-44.88-4.26,339.11,339.11,0,0,0-89,8.82,277.56,277.56,0,0,0-48.4,15.92c-.15.06,0,.31.11.26Z"/><path class="cls-2" d="M546.73,27.66c-18.43,88.73-12.09,179.75-7.83,269.54,1.22,25.8,1.47,51.66,2.8,77.44a1.08,1.08,0,0,0,2.16,0c.66-22.53-.84-45.24-1.89-67.75s-2.33-45.22-3.37-67.84c-2.07-44.65-3.56-89.46-.92-134.12a624.07,624.07,0,0,1,9.23-77.22c0-.12-.15-.17-.18-.05Z"/><path class="cls-2" d="M531,21c-20.16,86.55-18.68,177.06-12.75,265.17,1.71,25.46,3.61,50.94,6,76.36.19,2,3.39,2.09,3.24,0-3.24-44.65-7.32-89.19-8.84-134-1.51-44.09-.83-88.32,3.32-132.26,2.38-25.15,5.93-50.11,10.14-75,.12-.7-.91-1-1.08-.3Z"/><path class="cls-2" d="M541.84,29.3c-10,34.9-14.57,71.84-16.62,108q-1.58,27.75-.66,55.56c.59,17.87,1.41,36.06,4.48,53.7.15.83,1.53.64,1.48-.2-1.18-17.86-3.21-35.6-3.82-53.5q-.94-27.3.53-54.61c2-36.8,8-72.75,14.79-108.91,0-.12-.15-.17-.18-.05Z"/><g class="cls-5"><path class="cls-2" d="M301.64,133.12a23.9,23.9,0,0,0,.29-7.07l-1.31,1.32q1.92,0,3.84,0L303.1,126c-.24,3.61,3.18,7.19,6.92,5.66,3.58-1.47,3.73-6.16,1.33-8.67a1.36,1.36,0,0,0-1.91,0,4.89,4.89,0,0,0,1.41,7.59,4.18,4.18,0,0,0,4.3-.43,7,7,0,0,0,1.43-1.44A14.66,14.66,0,0,0,318,126.2c.5-1.8,1.86-2.39,4.07-1.75h2c1.77-2.73,3.14-3.42,4.09-2.06.3.27.6.53.92.77.9.27,1.28.74,2.23,1a8.5,8.5,0,0,0,4.68-.39,7.07,7.07,0,0,0,3.41-2.64c.67-1,.66-2,1.1-3.1l.24-1.47a7.71,7.71,0,0,1,8.13-2.3c3.28,2,3.91,8.92,9.47,5.68,3.19-1.87,2.7-5.88.43-8.16a1.59,1.59,0,0,0-2.47.32,3.76,3.76,0,0,0,1.45,5.53c4,2,7-2.72,9.74-4.62l-2.26-1.29a37.27,37.27,0,0,0,2.48,16.91,1.47,1.47,0,0,0,2.83-.78,23.25,23.25,0,0,1,1-12.84l-2.26.92a7.68,7.68,0,0,0,11.35-6.17L378.4,111c3.29,2.48,7.5.87,8.84-2.85l-2.78-.37c.45,3.7,3.22,5.82,6.91,5,1.71-.4,1-3-.72-2.62l-3.36-2.33a1.42,1.42,0,0,0-2.78-.38q-1.49,3-4.32,1.29a1.5,1.5,0,0,0-2.52,1,4.66,4.66,0,0,1-6.85,3.52,1.55,1.55,0,0,0-2.25.92,26.16,26.16,0,0,0-.87,14.43l2.83-.78a31.64,31.64,0,0,1-2.31-16.13,1.5,1.5,0,0,0-2.25-1.3,20.57,20.57,0,0,0-2.21,1.58l-1.61,1.43c-.81,1.22-1.85,1.31-3.14.25l-2.48.32q-2.89,3-3.83.65a3.86,3.86,0,0,0-.56-.88c-.55-.44-.91-1-1.52-1.39a7,7,0,0,0-4.51-1.15c-2.43.21-5.78,2.12-5.5,5,.5,5.17,9.16,3,6.61-2.26a4.14,4.14,0,0,0-5.59-1.81,5.07,5.07,0,0,0-2.55,3.14c-.41,1.17-.2,2.54-.65,3.67-1,2.5-3.93,4.39-6.67,3.51-3.08-1-4.32-5.52-8.28-3.39-2.5,1.34-2.53,4.31-1.39,6.49a1.15,1.15,0,0,0,2,0,3.31,3.31,0,0,0-2.09-5,4,4,0,0,0-3.34.76,8.21,8.21,0,0,0-2,2.35l-.7,1.26q-1,3.31-4.54-.07h-1.91l-3.63,1.1a1.36,1.36,0,0,0-1.35-1.35c-1.28,0-2.56,0-3.84.11a1.34,1.34,0,0,0-1.27,1.66,23.76,23.76,0,0,0,1.61,6.81.37.37,0,0,0,.68-.09Z"/></g><g class="cls-5"><path class="cls-2" d="M402.07,106.35a3.2,3.2,0,0,0,4.11,3.57c1.65-.39,1.83-1.71,2.86-2.7q1.43-4.29,7.49-.35l2,.9a13.58,13.58,0,0,0,3.25,1.28c2.28.33,2.82-.41,4.72-1.24l.84-.79q2.4-1.11,3.38.89c.78.43,1.3,1.2,2.13,1.64a8.5,8.5,0,0,0,10.21-2l-2.34-.62c1.29,3.47,4.22,4.78,7.76,5.28,5.27.75,12.65,1.34,17.66-.52a1.14,1.14,0,0,0,0-2.17c-4.83-1.66-20.46,2.71-22.72-3.33a1.41,1.41,0,0,0-2.34-.62c-2.68,3-6,2.4-8.78-.07-.94-.84-1.39-1.77-2.71-2.09a3.78,3.78,0,0,0-2.23.19c-.42.16-.75.57-1.15.75a11.29,11.29,0,0,1-6.3,1.08c-2.39-.47-4.08-2.12-6.7-1.12-1.55.6-2.94,2.13-2.44,3.92,1,3.61,5.65,1.07,4.55-2.46-.57-1.84-2.46-3.77-4.56-3.47a3.85,3.85,0,0,0-1.72.78c-.78.6-.57.9-1.08,1.52-.95,1.13-1.67,7.54-5.62,1.74-.06-.09-.24-.09-.26,0Z"/></g><g class="cls-5"><path class="cls-2" d="M309.63,158.55c.71-7.81-9.35-5.55-6.76-.29a4.08,4.08,0,0,0,6.16,1.47,5.07,5.07,0,0,0,1.79-4.07c0-.58-.59-1.45-.46-1.88l-.43-.85q4.69.69,3.07,3.48l2.27-.6q3.24-3.63,4-1.3l.47,1.09c.56.4.9.93,1.65,1.18,1.76.58,3.53-.49,4.94-1.39a1.37,1.37,0,0,0,.48-1.82q-1.06-7.9,5.81-5.56a1.31,1.31,0,0,0,1.9-1.46c0-.12,3.54,1.66,4.08,1.8a6,6,0,0,0,2.7.06,6.17,6.17,0,0,0,4.27-3.24l-2.25-.61c.11,6.95,10.39,1.18,12.46-1.31l-1.35-.17c3.32,4.4,8.78,4.18,13.77,3.21,1.54-.3.89-2.66-.65-2.35-4,.81-8.82,1.82-11.77-1.91a.87.87,0,0,0-1.21,0c-.55.52-8.82,6-8.84,2.53a1.21,1.21,0,0,0-2.24-.61c-3.54,5.83-6.35-1.6-10,0-1.64.69-1.75,1.85-1.49,3.34l1.91-1.47c-6.39-3.24-12.34,2.72-9.42,9.15l.48-1.82c-2.59,1.64-4.59-3.16-6.58-4a5.06,5.06,0,0,0-4.19.13c-3.44,1.73-3.21,6-.9,8.47a1.37,1.37,0,0,0,2.27-.59c1.29-3.63.4-9.3-4.58-9-7,.48-2.92,7-1.78,10.42a.19.19,0,0,0,.37,0Z"/></g><g class="cls-5"><path class="cls-2" d="M309.09,188.8c-.33,1.67.42,3.51,2.54,3.35a3.09,3.09,0,0,0,1.88-1c1-1,.36-1,1.09-2.1l.27-1.54a7.55,7.55,0,0,1,5.81-.25,12.32,12.32,0,0,0,3.7-.36l.59-.45a4.48,4.48,0,0,1,3.52-.87c.56-.06,1.16.35,1.73.19,2.15-.58,3.59-2,6-2.18a22.62,22.62,0,0,1,10.05,2c1.86.75,2.87-2.53.85-3.07-3.91-1.07-8.94-2.27-13-1.24a26.13,26.13,0,0,0-2.71,1.27c-1.63.59-3.78-.06-5.33.51-1.1.41-1.52,1.46-2.44,1.9-2.05,1-4-.46-6-.18a2.61,2.61,0,0,0-2.5,3c.56,3.41,4.86,1.54,3.82-1.79a3.33,3.33,0,0,0-3.37-2.57,3.5,3.5,0,0,0-2.26,1.56,4.77,4.77,0,0,0-.52,1.24,6.06,6.06,0,0,0-.37,1.51,1.89,1.89,0,0,1-1.16,1.79c.3-1.47-2-2.1-2.26-.62Z"/></g><g class="cls-5"><path class="cls-2" d="M313.78,200.66c-3.26-1.4-4.76,3.28-2.44,5.32a4.6,4.6,0,0,0,5,.26,6.59,6.59,0,0,0,2.46-2.72,14.21,14.21,0,0,1,1.25-2.32c.33-1.47,1.22-1.94,2.67-1.43a1.82,1.82,0,0,1,2.71,1.34l1.46,1.46q3.51-4.32,6-1.45a1.57,1.57,0,0,0,.66.38,5.22,5.22,0,0,0,3.17.33c2-.29,4-1.31,6-1.73a34.11,34.11,0,0,1,8.68-.37c1.55.07,1.95-2.52.37-2.76a27.13,27.13,0,0,0-9.84.26c-2.69.57-5.06,2.19-7.88,1-.93-.39-1.42-1.46-2.48-1.88-4.38-1.73-8,2-7.56,6.24a1.51,1.51,0,0,0,1.47,1.46c4.83.26,3.17-5.52.08-7a6.55,6.55,0,0,0-5.59,0,7.6,7.6,0,0,0-2.37,2c-.35.37-.33,1.12-.69,1.43.09-.08-5.54,2.4-3.1.63.15-.11.22-.4,0-.49Z"/></g><g class="cls-5"><path class="cls-2" d="M315.31,219.12A1.69,1.69,0,0,0,315,217a2.15,2.15,0,0,0-2.6,0,4.37,4.37,0,0,0-1.64,4.87,3.63,3.63,0,0,0,4.66,2.21,4.08,4.08,0,0,0,2.74-4.74l-1.42,1.86c.9,0,1.33.73,2,1.16a1.14,1.14,0,0,0,1.7-1c0-2-2-2.92-3.74-3.13-1.06-.13-1.53,1-1.41,1.86.09.65-1.24,1.38-1.67.82-.22-.28-.07-.89.08-1.15s.23-.25.35-.4a2.46,2.46,0,0,0,.45-.25q-.84-.22-.39.12a.73.73,0,0,0,1.13-.15Z"/></g><g class="cls-5"><path class="cls-2" d="M325.49,217.81c1,1.52,1.43,1.65,3.3,1.47,2.92-.28,1.45-1.72,6.16-1.86a11.3,11.3,0,0,0,2.85,0c2.15-.58,2.74-1.73,5.49-1.86,1.85-.09,3.79.46,5.67.42a20.55,20.55,0,0,0,9.71-2.19c1.77-1,.49-3.39-1.3-3.08-3.4.58-6.55,1.67-10.06,1.67-2.62,0-4.89-.38-7.44.21-1.32.31-2,.93-3.52,1.2-1.13.21-2.66-.08-3.76.17-1.83.41-4.23,3-6,2.44a1,1,0,0,0-1.11,1.45Z"/></g><g class="cls-5"><path class="cls-2" d="M315.27,247.38l-.54-1a1.44,1.44,0,0,0,2.87,0c.25-3.62,1.9-7.39,5.89-6.52a11.72,11.72,0,0,1,6.19,4.05c.86,1.05,2.38.11,2.46-1,.34-4.78,3-2.13,5.52-2,1.18.06,1.35-.47,2.25-.71,4.42-1.17,5.59-.94,8.51,2l1.67-2.17c-.47-.27,6.22-2.38,6.45-2.47a16,16,0,0,0,4.38-2.71c1.2-1-.15-2.55-1.36-2.34-2.74.48-2.37,3.37-1.75,5.44,2.12,7.09,6.15,14.08,9.05,20.9,1,2.37,4.38.59,3.93-1.65q-1.05-5.3-2-10.6a47.64,47.64,0,0,1-.92-6.14,2.7,2.7,0,0,1,.06-2c.07-.93.37-.89.88.13,1.25.29,1.88,1.12,3.33,1.08s4-2,5.14-1.32c2.55,1.51,4.87-2.46,2.32-4-2.95-1.74-4.42.81-7.15.52-1.37-.15-2.14-1.81-3.63-2.11a4.72,4.72,0,0,0-3.2.65c-2.88,1.7-2.76,5-2.4,8a113.24,113.24,0,0,0,3.38,16.91l3.93-1.66q-2.61-5-5.18-10.07c-.4-.81-5.61-11.31-5.1-11.4l-1.36-2.34c-2.64,2.14-5.32,2.25-8.38,3.06a4.59,4.59,0,0,0-3,1.78,3.15,3.15,0,0,0,1.15,4.7,1.38,1.38,0,0,0,1.67-2.16c-1.87-1.89-4.16-4-7-4.28s-4.09,1.91-6.9,1.2c-1.9-.48-2.65-1.65-4.71-.33s-2.34,3.83-2.53,6l2.46-1c-2.1-2.64-7.18-6.2-10.77-5.65-4.29.65-6.06,6.63-6.22,10.16h2.87c-.22-2.76-4-5.53-6.08-2.5-1.69,2.45,1.25,5.85,3.75,4.12.2-.14.28-.53,0-.65Z"/></g><g class="cls-5"><path class="cls-2" d="M398.63,231.61q4.69-2.67,6.32,1.35a1.23,1.23,0,0,0,2.28-.61c.14-4.21,7.82,1.83,8.9,2.25a5.9,5.9,0,0,0,3.75.35c1.48-.41,2.19-1.43,3.35-2.26,1.55-1.11,2.83-2,4.54-.84a24.14,24.14,0,0,1,1.48,1.93c2.78,2.69,6.2,2,9.74,1.54,6-.72,12.62-.78,18.4-2.58a2,2,0,0,0-.52-3.86c-7.05-.17-14.23,2.17-21.21,3-4.78.57-6.77-6.21-11.59-3.83-2.47,1.22-2.67,3.33-5.77,3.45-3.34.13-4.62-2.58-7.71-3.31s-5.77.95-5.81,4.14l2.29-.62c-1.44-1.92-3.42-4-6.09-3.51a2.87,2.87,0,0,0-2.67,3.26c0,.15.21.27.32.13Z"/></g><g class="cls-5"><path class="cls-2" d="M319.23,269.29c-.25-1.59-.12-1.22-1.14-2.46a.8.8,0,0,0-.8-.21c-2.72.67-3.47,3.88-.81,5.31a4.22,4.22,0,0,0,4.11-.35c1.72-1.11,2.7-7.17,5.57-2.83a1.56,1.56,0,0,0,1.74.71c2.25-.91,7.8-4,9.7-.68a1.43,1.43,0,0,0,2.43,0c1.66-2.25,6.32-6.79,9-1.83l.39-1.48c-1.54.67-1.53.81-2.17,2.37-.33.81.48,1.45,1.17,1.53l3.14,2.11c1,1.62,3.56.07,2.5-1.46a6.19,6.19,0,0,0-5.64-3.07l1.16,1.53.94-1.14a1.1,1.1,0,0,0,.38-1.49c-3.57-5.31-9.49-2.61-13.1,1.22l2.21.29c-1.78-3.33-5-3.52-8.39-2.61-2.61.72-3,1.24-5.28.44a7.8,7.8,0,0,0-4.58-.43,1.22,1.22,0,0,0-.87.87,5,5,0,0,1-2.53,4c.24.52.93.13.85-.36Z"/></g><g class="cls-5"><path class="cls-2" d="M381.81,262.76c.47,1.42,2.89,2.7,4.35,2.48.93-.14,1.33-.91,2.15-1.23q1.92-1.72,4.75-.31c.37.33.76.65,1.16,1a5.78,5.78,0,0,0,5.41-.55c1.66-.87,2.76-2.18,4.68-2.71,2.69-.74,5.1.39,7.55,1.31,1.29.49,2.11-1.31,1.28-2.19-2.8-3-7.4-3.33-11.09-1.83-2.69,1.09-3.9,3.44-7,2.26-1.61-.61-2.17-1.64-4.12-1.54-1.67.09-2.38.9-3.8,1.53-.6,1.06-1.36,1.22-2.28.49a2.7,2.7,0,0,1-1.45-.64,5,5,0,0,0-1.74-.56c-1.92.13-2.5,1.85-1.81,3.36.5,1.11,2.35.32,2-.83Z"/></g><g class="cls-5"><path class="cls-2" d="M440.27,258.13c.35-1.2,3.43-.3,4.13,0a11.7,11.7,0,0,0,2.07,1,5.52,5.52,0,0,0,3.21-.19c.42-.13.73-.64,1.13-.75,1.45-.42,2.7.3,3.95.79,2,.8,3.37,1.57,5.54,1.74,1.74.14,2.91-2.47,1.5-3.6a18.94,18.94,0,0,0-8.92-3.58c-2.9-.41-4.24,2-7.24,1.68-1.94-.23-3.67-1.67-5.53-.15a2.19,2.19,0,0,0-.53,3.18.38.38,0,0,0,.69-.09Z"/></g><g class="cls-5"><path class="cls-2" d="M320.36,297.16l.77-4.09a1.23,1.23,0,0,0,1.91-.25c1.47-3.24,3.39-.22,5.87-1.26.42-.18.71-.7,1.06-1,2.1-1.58,2.07-1.9,4.52-1.37,1,.22,1.09.87,2.36.62.95-.19,1.32-1.27,2.09-1.52,1.95-.63,1.79,1.44,2.89,2.53a4.32,4.32,0,0,0,4.66,1.18c1-.41,1.21-1,2-1.69,1-.88-.58-2.07,1.24-.92,1.31.82.49,1.2.76,2.44.57,2.56,1.35,4.56,4.25,5.1,5.45,1,7.45-5.42,4-8.93-1.09-1.12-3.11.35-2.2,1.69a12.36,12.36,0,0,1,2.24,8.14c-.1,1.92,2.95,1.94,3,0a15.38,15.38,0,0,0-2.82-9.55l-2.2,1.7q-4.27,1.8-3.58-1.59a3.34,3.34,0,0,0-.5-1.52,4.49,4.49,0,0,0-1.47-1.74,3.08,3.08,0,0,0-3.72.1c-.63.5-.86,2.55-1.22,2.81-3.72,2.57-2-.73-3-1.66-1.08-1.08-1.63-2-3.38-1.84s-1.22.77-2.53,1.41c-1.78.87-.41.45-2,.5s-1.27-.84-3-.55c-1.22.2-2,1-3,1.59-1.78,1-1,1-2.9.82-.6-.05-1.28-.64-2.05-.55-2,.24-2.94,2.47-3.58,4.08l2-.53c-4.5-3.71-7.33,3.22-3.59,6.66a.7.7,0,0,0,1.1-.85Z"/></g><g class="cls-5"><path class="cls-2" d="M400.61,284a.61.61,0,0,0,0-1.22.61.61,0,0,0,0,1.22Z"/></g><g class="cls-5"><path class="cls-2" d="M377.81,284.37c.34-1.36,2.59-1.91,2.24-.17-.39,1.92,2.46,2.75,3,.82a4,4,0,0,1,.51-1.4c.54-.68.25-.62.86-.12.91.73,1,1.54,2.45,1.37a1.71,1.71,0,0,0,1.46-2.54c-.85-1.45-3.19-3-4.92-2.6-2,.41-3,2.65-3.32,4.47l3,.82c.3-2.12-.93-4.58-3.38-4.52a3.17,3.17,0,0,0-3,3.87.61.61,0,0,0,1.17,0Z"/></g><g class="cls-5"><path class="cls-2" d="M299,97.54c-1.13-7.07-2.26-14.13-3.45-21.19l-3,.83c1.9,4.5,5.4,10.62,11.36,8.55s4.58-12.12,4.94-16.88l-3.21.87a31.77,31.77,0,0,1,3,11c.21,2.52-.14,5.13.54,7.6a6.77,6.77,0,0,0,6.41,5.39c2.18.12,2.17-3.25,0-3.38-4.63-.26-3.29-8.5-3.76-11.82A36.23,36.23,0,0,0,308.57,68c-.78-1.68-3.09-.67-3.21.87-.23,3.06.32,7.82-.84,10.64-2.68,6.51-7.45.32-9.14-3.52-.76-1.73-3.17-.41-2.87,1.21q1.94,10.54,4,21c.32,1.66,2.77.94,2.51-.69Z"/></g><g class="cls-5"><path class="cls-2" d="M320.05,78.48c-3.18,2.48-1.49,8.69,2.56,9.24,6.18.86,6.69-6.76,6-10.85-.28-1.8-3.39-1.4-3.2.43l.91,8.7c.26,2.51,1.32,6.19.91,8.7l.11,1.42-1.62,0c-.09-.58,2.16-3,2.5-3.48,1.93-2.47,4.16-4.6,6.23-6.94a1.58,1.58,0,0,0-2.24-2.24c-2.72,2.17-16.93,16.91-7.18,19,3.05.65,5.13-2.22,5.45-4.9.38-3.13-.45-6.68-.76-9.79L328.7,77.3l-3.2.43c1.16,3-.2,4.76-4.05,5.27a12.3,12.3,0,0,1-.33-2.56,4.19,4.19,0,0,0-.63-1.9.28.28,0,0,0-.44-.06Z"/></g><g class="cls-5"><path class="cls-2" d="M345.84,74.19c-.28,2.5.85,5.21.89,7.78a1.45,1.45,0,0,0,2.9,0c0-2.8.07-5.6.12-8.4,0-1.56.38-3.44,2.28-3.37,1.62.06,2.73,1.32,3.55,2.59,1.09,1.65,3.74.14,2.68-1.57-2-3.18-5.89-5.77-9.53-3.36-1.68,1.11-2.13,2.85-2.18,4.77-.07,3.11.12,6.24.18,9.34h2.9c-.13-2.67-.35-6.44-2.47-8.33a.79.79,0,0,0-1.32.55Z"/></g><g class="cls-5"><path class="cls-2" d="M359.39,73.44c2,.76,4.28,1.16,6.1-.21A4,4,0,0,0,367,68.79c-1.53-4.17-7.25-2-9.11.56a7.42,7.42,0,0,0,1.27,10.26c3,2.4,8.56,3,11.39,0a1.24,1.24,0,0,0-1.2-2c-1.94.38-3.79,1-5.78.56s-3.72-1.79-3.85-3.86a4.74,4.74,0,0,1,2.2-4.32c1.19-.62,2.94-.2,2,1.34-.68,1-3.21.83-4.32.87a.67.67,0,0,0-.18,1.31Z"/></g><g class="cls-5"><path class="cls-2" d="M379.24,62.63c-5.79-.59-9.51,6.17-7.7,11.19a6.8,6.8,0,0,0,11.93,1.78c1.35-1.81-1.69-4.17-3.14-2.43-1.88,2.24-4.86.58-5.11-2-.28-3,2.34-4.81,4.69-6,1.29-.67.53-2.37-.67-2.49Z"/></g><g class="cls-5"><path class="cls-2" d="M387.37,66.52c-1,2.85-1.57,6,.53,8.57,1.52,1.82,4.71,3.12,6.52,1a1.25,1.25,0,0,0-.87-2.1c-1.47,0-2.83-.24-3.5-1.71-.74-1.66-.65-3.67-.68-5.44a1,1,0,0,0-2-.27Z"/></g><g class="cls-5"><path class="cls-2" d="M387.06,62.26a5.32,5.32,0,0,0,1.6-.35,2.78,2.78,0,0,0,1.37-1,1.28,1.28,0,0,0-.76-1.85,3.13,3.13,0,0,0-1.76.11,6.8,6.8,0,0,0-1.45.73,1.3,1.3,0,0,0-.53,1.62,1.32,1.32,0,0,0,1.53.75Z"/></g><g class="cls-5"><path class="cls-2" d="M397.22,64.55a76.16,76.16,0,0,0,.54,12c.29,3.24.2,6.52,1.48,9.54.51,1.19,2.52.84,2.77-.36.71-3.5-.21-7.26-.63-10.78a70.21,70.21,0,0,0-1.75-10.7,1.23,1.23,0,0,0-2.41.33Z"/></g><g class="cls-5"><path class="cls-2" d="M400.88,64.66c-1.13-3.64,4.27-3.79,6.28-2.78a5,5,0,0,1,2.82,5.8c-1.56,5.22-7.88,1.7-11.16.91a1.69,1.69,0,0,0-1.3,3.08c3,2.09,8.08,3.18,11.55,1.58A7.36,7.36,0,0,0,412.74,64a8.67,8.67,0,0,0-8.83-5.26c-3.3.34-5.87,3.09-3.74,6.22.24.34.85.14.71-.3Z"/></g><g class="cls-5"><path class="cls-2" d="M417.28,67.91c3.52-.65,8.26-3.21,5.81-7.52-2.68-4.73-6.65-.45-7.56,3-1.27,4.76-.15,11.1,3.84,14.34,3.08,2.51,8.88,1.84,9.12-2.83.07-1.37-2-2.36-2.88-1.2-3.46,4.43-6.54-2.34-6.86-5.47a11.24,11.24,0,0,1,.47-5l.8.86a9.06,9.06,0,0,1-1.5,1.06,17.54,17.54,0,0,1-2,1c-1,.48-.25,1.92.74,1.74Z"/></g><path class="cls-6" d="M157.27,185.55c2.13-2.5,3.15-3.84,3.43-7.23a48.54,48.54,0,0,0-.41-10.84c-.9-6.28-2.26-13.74-5.79-19.14-9.72-14.9-30.87-7.27-34.61,8.19-1.88,7.73-.52,16.11,0,23.93l1.62,25.76c1,16.51,1.86,33,3.3,49.52,1.53,17.62,2.38,36.68,9.34,53.19,1.38,3.27,3.82,5.8,7.63,5.8,3.18,0,7.12-2.42,7.63-5.8.93-6.2,2.72-12.24,4-18.37s2.21-12.3,3.42-18.44c2.42-12.29,4.47-24.35,5.13-36.89a336.53,336.53,0,0,0-.07-36.63q-.52-9.36-1.58-18.69c-.74-6.51-1.06-13.62-3-19.89-4.59-14.69-27.57-8.52-23.17,6.39,1,3.56,1.83,7.13,2.73,10.72.95,3.76,2.83,7.13,4.56,10.59,3.11,6.24,14.53,5.23,15.67-2.05.6-3.81,1.42-7.6,1.26-11.45-.15-3.68-.55-7.31-.62-11h-24c.82,11.81,4.17,23.55,5.43,35.38a337.65,337.65,0,0,1,1.9,35.69c0,11.53,0,23.16-.62,34.67s-2.47,24.74-6.27,35.76h15.26c-1.61-7.32-1.42-14.78-1.27-22.24.17-8.29-.24-16.48-.69-24.76-.91-16.86-2.41-33.68-3.73-50.51l-1.93-24.76c-.57-7.28-1.66-14.65-.79-21.87-.06.52.29-1.55.64-1.05,1,1.49-3.31-1.27-1.75.6,1.76,2.12,4.57,2.72,6.23,5.26,1.79,2.73,2.69,6.27,3.37,9.43.37,1.72.35,3.48.68,5.18.39,2.09,1.24,3.11,2.27,4.92a3.12,3.12,0,0,0,4.86.63Z"/><path class="cls-7" d="M130,151.77a8.05,8.05,0,0,0-3.17-.75c-2.83-.1-4.72,2-5.69,4.34-1.74,4.26-1.33,9.88-1.31,14.39.05,9.22.44,18.45,1.08,27.65.93,13.29,1.87,26.52,3.27,39.77,1.77,16.74,1.46,33.8,4,50.4.37,2.42,4.52,2.42,4.88,0,2.43-16.25,1.46-33.17,1.88-49.59.33-13.17-.15-26.2-.83-39.36-.47-9.14-1.35-18.25-1.83-27.39-.16-2.95-.3-5.92-.22-8.87,0-1,.07-2.06.2-3.08-.22,1.71.06-.12.3-.78a5.87,5.87,0,0,0-1.52-5.75,4.5,4.5,0,0,1,1.36,3.15c-.09-1.55-.81-3.45-2.37-4.13Z"/><path class="cls-8" d="M152.68,171.6c-2.55,4-2.17,8.46-2.36,13-.17,4-.43,8-.51,12.05-.16,7.79.08,15.59-.13,23.38s-.65,15.46-1.31,23.16c-.71,8.32-3.44,17.63-1.86,25.83.7,3.63,6,4,7.71,1,4-7.12,4.06-17.18,5-25.21s1.56-16,1.9-24c.33-7.75.59-15.56.45-23.32-.07-4.29-.4-8.59-.63-12.87-.24-4.54.11-9.06-2.45-13a3.42,3.42,0,0,0-5.83,0Z"/><path class="cls-9" d="M135.87,141c3.73-8.54-1-18.78-3.94-26.88-3.67-10-7.87-20.31-13.42-29.44-.39-.65-1.6-.22-1.28.55,3.69,9,7.93,17.76,11.42,26.87,3.61,9.45,7.14,18.33,6.17,28.62a.57.57,0,0,0,1.05.28Z"/><path class="cls-9" d="M140.28,129.32c-1.61,3.26-1.05,6.16,1,9.1.44.62,1.69.5,1.6-.43-1-11.05-2.92-22.05-4.13-33.09s-2-22.17-2.79-33.28L134,71.9c2.82,8.95,3.79,18.87,5.48,28.09,1.72,9.39,3.6,18.75,5.42,28.12.14.71,1.21.41,1.08-.3-1.6-9.08-3.16-18.18-4.84-27.25-1.75-9.49-4.5-19.31-5.09-28.94-.09-1.33-2.14-1.35-2.09,0,.83,22,2.33,45.08,7.32,66.6l1.44-.84a8.87,8.87,0,0,1-2.27-8c0-.07-.09-.13-.12-.06Z"/><path class="cls-9" d="M147.24,139.33a239.33,239.33,0,0,1,2-33.1c1.5-10.9,5.13-21.42,6.58-32.26,0-.36-.5-.46-.66-.18-5.22,9.36-7.14,21.58-8.61,32.07a147.58,147.58,0,0,0-1,33.47.85.85,0,0,0,1.69,0Z"/><path class="cls-9" d="M155.12,81.42a201.37,201.37,0,0,0-9.92,55.08c0,.88,1.39,1.1,1.55.21,4-21.93,13.82-40.73,26.78-58.61.52-.71-.63-1.58-1.22-.94-14.76,16.08-23.52,37.81-27.08,59.13l1.55.21a204.83,204.83,0,0,1,8.75-55c.08-.27-.32-.37-.41-.12Z"/><path class="cls-9" d="M149.83,131.81c-.35-.11,7.17-12.19,7.77-13.11,2.82-4.29,5.9-8.4,8.66-12.74.53-.83-.72-1.82-1.38-1.06a102.65,102.65,0,0,0-8.74,11.89c-2.55,3.89-6.45,8.67-7.66,13.19-.75,2.8,2.35,4.33,2.37,1.47a.51.51,0,0,0-.5-.5l-.39,0c-.53-.06-.6.76-.13.9Z"/><path class="cls-9" d="M144.64,131.77A142,142,0,0,0,138,97.24c-3.49-10.35-7.88-21.68-14.72-30.29-.56-.71-1.47.19-1.16.89,4.64,10.38,10.25,20,13.86,30.86a160.88,160.88,0,0,1,7.37,33.07c.09.84,1.4.87,1.33,0Z"/><path class="cls-9" d="M140.72,120.09A74.36,74.36,0,0,1,126.8,87.58c-.13-.74-1.41-.57-1.31.17a65.82,65.82,0,0,0,14.24,33.11c.44.55,1.43-.2,1-.77Z"/><path class="cls-9" d="M126.91,91.71c-7.41-4.82-12-11.95-14.17-20.46-.3-1.19-2.07-.68-1.83.51a33,33,0,0,0,15.18,21.35c.89.55,1.69-.84.82-1.4Z"/><path class="cls-9" d="M119.46,73.47c-3.58,1.57-4.52,6-3.08,9.43,2.1,5,7.89,6.25,12.64,7.1a.42.42,0,0,0,.22-.81c-3.49-1.1-7.69-2.33-10.08-5.29-2.19-2.7-2.49-7.44,1-9.21.82-.42.1-1.57-.71-1.22Z"/><path class="cls-9" d="M125.53,87.19c-3.8-2.79-8.1-6.19-9.3-11-1.1-4.41,1.09-9.41,5.65-10.59,1-.25.81-1.92-.24-1.8-5,.57-7.77,5.11-7.57,9.92.28,6.51,6.13,10.85,11.14,14,.35.22.64-.31.32-.55Z"/><path class="cls-9" d="M119.22,60.21a14.78,14.78,0,0,1,4.06-8.05l-.92.24a4.53,4.53,0,0,1,3.19,3.86c.1,1,1.6,1,1.55,0a6.21,6.21,0,0,0-4.24-5.68.93.93,0,0,0-.92.24A16.47,16.47,0,0,0,118,60c-.07.71,1.12.88,1.24.17Z"/><path class="cls-9" d="M126.12,58.93a10.93,10.93,0,0,1,5.62,11.14c-.08.73,1,.83,1.24.17a10.54,10.54,0,0,0-6.12-12.58c-.85-.37-1.6.84-.74,1.27Z"/><path class="cls-9" d="M133.23,72c3.59,4.38,4.1,9.67,2.13,14.88a1,1,0,0,0,1.41,1.08c11-8.27,9.67-24.64-3.79-29.42v2.71c11.9-3.55,12.29,12.56,12,20,0,.81,1.32,1,1.45.19.9-5.9,1.45-12.88-2.21-18-2.82-4-7.24-6-12-4.84a1.42,1.42,0,0,0,0,2.71c11.35,3.51,14.21,18.65,3.57,25l1.31,1.31A14.93,14.93,0,0,0,134.18,71c-.6-.64-1.48.29-1,1Z"/><path class="cls-9" d="M147.21,82.27c-1.44,1.27-3.14,3-2.82,5.07.27,1.7,1.78,3.22,3.56,2.54.65-.24.63-1.36-.18-1.31-1.3.09-1.91-1.42-1.53-2.48a7.13,7.13,0,0,1,2.16-2.63c.81-.73-.38-1.91-1.19-1.19Z"/><path class="cls-9" d="M155.68,71.13c-7.93,3.89-12.48,13.52-9.06,21.94a1,1,0,0,0,2-.54c-1.91-7.72.88-15.9,8-19.82,1-.57.12-2.1-.92-1.58Z"/><path class="cls-9" d="M140.65,99.9a18.64,18.64,0,0,0-2.36,4c-.21.6.58.94,1,.58a19.46,19.46,0,0,0,2.83-3.77c.61-.9-.87-1.76-1.46-.85Z"/><path class="cls-9" d="M132.71,113.7c-9.8-3.12-14.91-12.38-14.8-22.27a1,1,0,0,0-2-.27c-2.39,11,5.81,21.67,16.35,24.17a.85.85,0,0,0,.45-1.63Z"/><path class="cls-9" d="M123.72,88.94c-3.53,2-2.75,8,1.26,8.9a.57.57,0,0,0,.3-1.09c-2.93-.88-3.75-5.45-1.2-7.2a.35.35,0,0,0-.36-.61Z"/><path class="cls-9" d="M147.88,88.71c-2.22,6.66-4.42,14.58-3.65,21.68.1.86,1.47,1.24,1.66.22,1.37-7.22,1.8-14.26,4.1-21.32.43-1.34-1.67-1.91-2.11-.58Z"/><path class="cls-9" d="M157.32,99.3c1.29-4.12,3.16-8.45,3.73-12.74.07-.52-.76-.72-1-.27-1.89,3.89-2.71,8.55-3.9,12.69a.6.6,0,0,0,1.15.32Z"/><path class="cls-9" d="M159.12,87.45A12,12,0,0,1,158,105.53c-1,.79.3,2.45,1.37,1.77,7.13-4.6,7.21-15.82.38-20.68-.5-.35-1.07.42-.64.83Z"/><path class="cls-9" d="M163.72,103.52l-3.34,2.34,1.11,1.44c5.83-6.48,11.93-14,10.85-23.3-.85-7.38-6.17-15.42-13.71-17.26a1.05,1.05,0,0,0-.81,1.92c6.48,3.46,11.49,8,12.37,15.78,1,8.58-4.83,15.43-10,21.57-.61.73.21,2.1,1.1,1.43l3.27-2.46c.85-.64.05-2.09-.85-1.46Z"/><path class="cls-9" d="M161.76,71.12c-3.09-.88-8.86-5.24-4.81-8.71,2.41-2.06,4.89,1.33,5.09,3.51.24,2.61-1.25,5.13-2.44,7.34a.88.88,0,0,0,1.52.88c2.14-3.35,4.45-7.44,2.54-11.43-1.3-2.71-4.47-4.52-7.35-3a6.46,6.46,0,0,0-2.95,7.23c1,3.49,4.68,5.27,7.95,5.85a.85.85,0,0,0,.45-1.63Z"/><path class="cls-9" d="M156.54,56.15c-1.91-1.31-3.78-2.64-5.59-4.09-.44-.35-1.3-.32-1.41.37a43.94,43.94,0,0,0-.14,11.4c.08.74,1.31,1.09,1.45.2a44.26,44.26,0,0,0,.34-11.38l-1.26.73c2.17,1,4.26,2.07,6.36,3.2a.25.25,0,0,0,.25-.43Z"/><path class="cls-9" d="M149.27,49.65l-1.9-1.92c3.53-.42,5.46.66,5.78,3.26,1,1.77.78,4.52,1,6.5.37,4.22-.1,8.43.17,12.64a.81.81,0,0,0,1.59.21c1.11-4.42.76-9.26.27-13.75-.37-3.33-.57-7.52-2.76-10.25s-7.38-3.22-8.47.82a1,1,0,0,0,.42,1c1.1.77,2.18,1.56,3.25,2.35.53.38,1.12-.44.69-.89Z"/><path class="cls-9" d="M143.65,54.85c5.94,0,8.88,6.22,7.69,11.39-.88,3.82-3.46,6.83-5.46,10.09a.92.92,0,0,0,1.43,1.11c4.11-3.84,7.57-10.13,6.25-15.93-1.06-4.64-5.07-8.24-9.91-7.79a.57.57,0,0,0,0,1.13Z"/><path class="cls-9" d="M161.86,63.85c.67,6.59-1.85,12-6,17a1.06,1.06,0,0,0,1.49,1.5c5.56-4.42,7.31-11.91,6.11-18.68-.15-.89-1.68-.69-1.58.22Z"/><path class="cls-9" d="M160.65,88.07A33.66,33.66,0,0,0,146.73,105c-1.76,4.79-3.75,12.18,1.48,15.48,1.4.88,2.62-1.28,1.28-2.19-2.81-1.91-1.78-6.27-1-8.88a35.76,35.76,0,0,1,3.5-7.9,43.31,43.31,0,0,1,10-11.69c1-.78-.29-2.37-1.32-1.71Z"/><path class="cls-9" d="M159.67,114.18c-.64,4.83-4.8,8.16-9.49,8.69a1.13,1.13,0,0,0,0,2.25c6,.1,10.82-5.16,11.25-10.94.09-1.15-1.61-1.08-1.76,0Z"/><path class="cls-9" d="M128.24,105c-8.58,3.43-6,16.49,3.07,16.9,1.69.08,1.87-2.34.38-2.83-5.89-2-6.55-8-2.25-12,.85-.79,0-2.52-1.2-2.06Z"/><path class="cls-10" d="M135,108.21c.91,4.59,1.66,9.25,2.88,13.77.34,1.26,2.07.69,1.9-.53-.65-4.63-1.78-9.21-2.74-13.8-.28-1.33-2.3-.76-2,.56Z"/><path class="cls-10" d="M139.34,130.59c1.88-9.72-3.49-21.58-11.39-27.32-1.19-.86-2.49,1-1.53,2,3.59,3.74,6.86,7.2,9,12,1.93,4.32,2.61,8.7,3.43,13.31a.25.25,0,0,0,.48,0Z"/><path class="cls-10" d="M132.57,85.64a.42.42,0,0,0,0-.84.42.42,0,0,0,0,.84Z"/><path class="cls-10" d="M127.49,91.48a15,15,0,0,0,3.32,11.89c.67.77,1.87-.22,1.38-1.07a17.38,17.38,0,0,1-2.59-10.82c.15-1.36-1.94-1.33-2.11,0Z"/><path class="cls-10" d="M128.41,93.36a5,5,0,0,0-2.82,4.44.77.77,0,0,0,1.54,0,4,4,0,0,1,2-3.23c.79-.45.09-1.61-.71-1.21Z"/><path class="cls-10" d="M125.07,86.53l1.26-1.26c.06-.06,0-.16-.1-.1L125,86.43c-.06.06,0,.16.1.1Z"/><path class="cls-10" d="M124.8,73a7.69,7.69,0,0,1,3.36,4.83c.17.75,1.34.43,1.16-.32A8.89,8.89,0,0,0,125.37,72c-.61-.39-1.17.58-.57,1Z"/><path class="cls-10" d="M120.79,73.65c-2.83,3.84-1.72,9.92,2.65,12.09a.81.81,0,0,0,.82-1.39,7.21,7.21,0,0,1-2.32-10c.48-.72-.65-1.35-1.15-.67Z"/><path class="cls-10" d="M130.73,70.71a29.24,29.24,0,0,1,7.45,12.2c.28.89,1.85.79,1.72-.24a18.06,18.06,0,0,0-8.23-13.18.78.78,0,0,0-.94,1.22Z"/><path class="cls-10" d="M136.2,70.28c7,3.18,7.44,10.89,4.41,17a.92.92,0,0,0,1.44,1.1c6.18-5.65,1.41-16.5-5.5-19-.48-.17-.83.62-.35.84Z"/><path class="cls-10" d="M143,87.48c-1.59,6.08-4.25,12.72-4.34,19,0,1,1.46,1.45,1.9.51,2.71-5.71,3.28-12.8,4.54-19,.28-1.36-1.74-2-2.1-.58Z"/><path class="cls-10" d="M147.73,101.14C145,93.4,147.21,87.6,150,80.42c.48-1.24-1.33-2.17-2.18-1.27-5.61,5.93-5,15.79-1.77,22.69.43.94,2,.28,1.67-.7Z"/><path class="cls-10" d="M154.77,73.88a14.13,14.13,0,0,1,.92-7.4l-1.45.19c4.27,8.7,3.07,17.12.77,26.1-.2.79,1,1.35,1.35.57,4.14-8.56,2.6-18.73-.67-27.28a.8.8,0,0,0-1.53,0,14.38,14.38,0,0,0-.84,8c.12.81,1.56.63,1.45-.2Z"/><path class="cls-10" d="M162,85.22a4.77,4.77,0,0,1-2.17,4.32c-.88.57-.05,2,.81,1.4a6.34,6.34,0,0,0,2.83-5.72c-.06-.94-1.52-1-1.47,0Z"/><path class="cls-10" d="M162.53,82.59A24.52,24.52,0,0,1,159.85,97c-2.28,4.34-5.87,6.65-9.23,10a1.06,1.06,0,0,0,1,1.76c10.41-2.85,14.38-17,12.54-26.38-.18-.91-1.77-.72-1.66.23Z"/><path class="cls-10" d="M154.07,107.2c-3.13,5.15-5.31,10.93-5,17,.06,1.08,1.77,1.45,2,.27,1.08-5.63,2.32-11,5.17-16a1.27,1.27,0,0,0-2.19-1.28Z"/><path class="cls-10" d="M145.49,125.24c-.84,3.35-1.8,6.69-2.32,10.12a.63.63,0,0,0,1.22.33c1.16-3.26,1.89-6.65,2.73-10a.84.84,0,0,0-1.63-.44Z"/><path class="cls-10" d="M139.07,129.26l0-3.77a.25.25,0,0,0-.49,0l0,3.77a.21.21,0,0,0,.42,0Z"/><path class="cls-10" d="M138.47,134.55c1-6.77.66-13.49-2.3-19.72-.51-1.07-2.14-.3-1.86.78,1.57,6.19,2.75,12.27,2.23,18.68-.09,1.09,1.78,1.36,1.93.26Z"/><path class="cls-11" d="M133.09,111.86a88,88,0,0,1,3.84,22.44.74.74,0,0,0,1.48,0,60.6,60.6,0,0,0-4-22.82c-.3-.84-1.64-.49-1.35.38Z"/><path class="cls-11" d="M139.62,111.43c-.77-5-1.26-10.21-2.44-15.14-.3-1.24-2.44-1-2.28.31.62,5.13,2,10.24,3,15.3.24,1.12,1.87.62,1.7-.47Z"/><path class="cls-11" d="M143.94,121.73c.69-6.22,2.81-11.74,5.44-17.37a1,1,0,0,0-1.76-1c-3.61,5.45-5.26,11.94-5.86,18.4-.13,1.41,2,1.38,2.18,0Z"/><path class="cls-11" d="M145.72,117a114,114,0,0,0,6.47-10,.91.91,0,0,0-1.58-.92,111.29,111.29,0,0,0-6.16,10.14.74.74,0,0,0,1.27.75Z"/><path class="cls-11" d="M126.93,90.86a30.38,30.38,0,0,1,5.92,12.25c.32,1.33,2.32.76,2-.56a26.29,26.29,0,0,0-6.82-12.84c-.73-.77-1.78.36-1.14,1.15Z"/><path class="cls-11" d="M133.88,87c-2.95-6.46-5.38-14.36-9.74-20-.71-.93-2,.1-1.82,1.06,1.59,6.93,6.24,13.84,9.37,20.2.73,1.47,2.85.18,2.19-1.28Z"/><path class="cls-11" d="M126.28,64a.21.21,0,0,0,0-.42.21.21,0,0,0,0,.42Z"/><path class="cls-11" d="M121.75,76.62a27.94,27.94,0,0,0,5,12.82c.68.93,2.22.09,1.58-.92a34.39,34.39,0,0,1-5-12.33c-.19-1-1.71-.57-1.56.43Z"/><path class="cls-11" d="M132.17,71c-3,2.87-2.75,8.14,1,10.21a.74.74,0,0,0,.9-1.16c-2-2-2.53-5.53-.62-7.76a.92.92,0,0,0-1.3-1.29Z"/><path class="cls-11" d="M159.08,78.61c-.92,4.19-1.9,8.34-2.51,12.59-.18,1.31,1.65,1.91,2,.56,1.18-4.12,2-8.3,2.85-12.5.31-1.54-2-2.21-2.38-.65Z"/><path class="cls-12" d="M121.56,167.57a30.22,30.22,0,0,0,23.62,14.6c.37,0,.47-.61.09-.67a32.22,32.22,0,0,1-23.06-14.31c-.26-.4-.9,0-.65.38Z"/><path class="cls-12" d="M124.52,179.93a27,27,0,0,0,23.15,11.26.37.37,0,0,0,0-.73,30.05,30.05,0,0,1-22.75-10.84c-.18-.22-.58.08-.4.31Z"/><path class="cls-12" d="M124.87,191.09a34.23,34.23,0,0,0,21.45,12.78c.42.07.61-.57.18-.66a36,36,0,0,1-21.24-12.52c-.23-.28-.62.12-.39.4Z"/><path class="cls-12" d="M129.68,198.67A20.44,20.44,0,0,0,150.17,210c.4-.05.41-.67,0-.64a20.4,20.4,0,0,1-20.07-10.93c-.15-.28-.57,0-.42.25Z"/><path class="cls-12" d="M129.38,204.44c-3.25,13.23,12.06,18.29,22,19.95.38.06.55-.51.16-.59-9.6-2-24.77-6.18-21.85-19.28,0-.19-.25-.27-.29-.08Z"/><path class="cls-12" d="M126.87,213.62a24.2,24.2,0,0,0,23.32,21.57c.5,0,.49-.75,0-.78a24.71,24.71,0,0,1-23-20.83c0-.17-.32-.13-.3,0Z"/><path class="cls-12" d="M126.21,230a23.33,23.33,0,0,0,25.43,13.35c.42-.07.24-.7-.17-.63a23.25,23.25,0,0,1-24.84-13c-.14-.29-.55,0-.42.24Z"/><path class="cls-12" d="M127.41,245.1a29.84,29.84,0,0,0,21.41,14.26c.38.06.55-.52.16-.58a30.41,30.41,0,0,1-21.09-14,.28.28,0,0,0-.48.28Z"/><path class="cls-12" d="M131.21,265.22a18.68,18.68,0,0,0,11.34,7.8c.37.08.53-.48.16-.57A18.71,18.71,0,0,1,131.57,265c-.15-.22-.52,0-.36.22Z"/><path class="cls-12" d="M129.64,278a14.89,14.89,0,0,0,14.25,7.52c.36,0,.38-.6,0-.59a15.32,15.32,0,0,1-13.69-7.27.33.33,0,0,0-.56.34Z"/><path class="cls-12" d="M136.07,294.61l5,2.53c.35.18.66-.34.31-.52l-5-2.58c-.38-.2-.71.37-.33.57Z"/><path class="cls-12" d="M134.4,264.06a11.17,11.17,0,0,0,13.29,8.67c.46-.1.26-.77-.19-.7a11.11,11.11,0,0,1-12.43-8.15c-.1-.45-.76-.26-.67.18Z"/><path class="cls-12" d="M132.51,261.6c5.86,1.72,11.71,3.48,17.6,5.09a.28.28,0,0,0,.15-.54c-5.85-1.74-11.75-3.34-17.63-5a.22.22,0,0,0-.12.43Z"/><path class="cls-12" d="M131.17,251.46a23,23,0,0,0,20.4,5.38c.33-.07.18-.54-.14-.49a23.54,23.54,0,0,1-19.8-5.36c-.31-.27-.78.19-.46.47Z"/><path class="cls-12" d="M132.41,244.07a42,42,0,0,0,19,3.67.21.21,0,0,0,0-.42,44.82,44.82,0,0,1-18.81-3.63c-.26-.12-.48.27-.22.38Z"/><path class="cls-12" d="M136.19,231.35a18.64,18.64,0,0,0,16.57,6.36c.25,0,.19-.45,0-.43a19.33,19.33,0,0,1-16.07-6.38c-.27-.3-.72.15-.45.45Z"/><path class="cls-12" d="M130.72,215.47a22,22,0,0,0,19.49,4.46c.39-.1.22-.7-.17-.61A21.72,21.72,0,0,1,131.22,215c-.35-.29-.85.21-.5.49Z"/><path class="cls-12" d="M136.34,191.12c6.3,0,12.59.07,18.88,0a.24.24,0,0,0,0-.47c-6.29,0-12.58,0-18.88,0a.2.2,0,0,0,0,.4Z"/><path class="cls-12" d="M134.43,162.54a22,22,0,0,0,18.26,8.33.4.4,0,0,0,0-.79,22.92,22.92,0,0,1-17.79-8c-.29-.32-.72.14-.47.46Z"/><path class="cls-12" d="M126.8,155.68a15,15,0,0,0,13.38,14.86c.57.06.55-.82,0-.89a14.67,14.67,0,0,1-12.63-14,.38.38,0,0,0-.75,0Z"/><path class="cls-12" d="M127.39,152.48c6.29,1.66,12.59,3.32,18.9,4.9.44.11.63-.57.19-.68-6.31-1.62-12.64-3.15-19-4.67a.23.23,0,0,0-.12.45Z"/><path class="cls-12" d="M136.43,154.59a28.76,28.76,0,0,0,7.46.59c.22,0,.22-.34,0-.33a32,32,0,0,1-7.37-.59c-.22,0-.31.29-.09.33Z"/><g class="cls-13"><path class="cls-14" d="M49.31,28c10.43,44,8.47,90,12,134.85,3.56,45.32,6.75,90.66,12.16,135.81,1.41,11.75,2.37,23.5,3.42,35.28,1.11,12.42,2.1,25,1.21,37.45-.47,6.52,8.22,11.82,13.67,7.85,9.6-7,19.69-13.11,31.07-16.68a109.29,109.29,0,0,1,33.52-5.22,107.63,107.63,0,0,1,32.81,5.43c13,4.29,25.1,7.68,38.55,2.66,5.22-1.95,8.61-7.86,5.35-13.15-5-8.14-12.69-13.84-21.51-17.38-8.55-3.43-17.75-4.31-26.27-7.86-10.74-4.49-20.77-10.3-31.47-14.81A118.63,118.63,0,0,0,136,306.49c-.66-.16-3-.33-3.4-1l4,1.7q-2.82-1.8.55.62t.7.42l-6.1-4.72-1.31-.77a21.52,21.52,0,0,1,7,6.68l3,7.14-.21-1.05,1.06,7.93.06-1-1.06,7.92.31-1-3,7.1q-5.61,6.39-2.38,3.1-6.22,4.53-2.24,2,4.08-2-2.38.83a14,14,0,0,1,2.76-.73l-7.72,1c3.87-.46,7.61.14,11.48.22,7.09.15,14.58-1.21,20.79-4.77,9.74-5.59,17.15-14.91,17.15-26.66,0-9.33-4.23-18.17-10.45-24.91-7.13-7.72-16.89-12.44-27.06-14.64-1.86-.4-3.75-.76-5.59-1.27-2.47-.68-5.79-3,1.6.95q-3.73-2.22,2.44,2.18-3-3.16,1.91,2.57,2.75,7.32,1.37,3.08a22.39,22.39,0,0,1-.55-2.78l1,7.74c-1-8.27-.59-16.64-1.54-24.93a287.64,287.64,0,0,0-5.78-33.62c-4.54-19.17-10.25-38-14.49-57.28-4.2-19.06-8.39-37.88-14.41-56.48-1.5-4.61-3.24-9.21-4.37-13.91s-1.94-9.59-3-14.35Q93,69,89.14,54.21C86.79,45.33,76.51,39.05,67.55,42,58.05,45,53.25,53.9,55.29,63.54q2.46,11.59,4.47,23.27c.67,3.88,1.3,7.76,1.92,11.64l.9,5.82c.14,1,.29,1.94.43,2.91.27,1.35.18,1.3-.25-.14-.75,7.47.2,15.61.51,23.12.33,7.68.31,15.47,1.21,23.12,2,17.16,4.57,34.33,7.66,51.34,2.76,15.15,6.24,30.15,8.35,45.42l-1-7.44a180.48,180.48,0,0,1,1.72,28.26c-.31,11.5.11,23.25,6.1,33.53a45.24,45.24,0,0,0,30.93,21.52c3.22.59,6.53.82,9.7,1.69a26.31,26.31,0,0,1,2.6.85q-6.81-3.09-3.06-1a17.7,17.7,0,0,1-6.33-6.5q-2.57-7.35-1.49-3.22l-1-7.46.12,1.28,8.24-19.9c9.13-7.65,12.25-5.47,6.58-4.69l7.56-1a30.76,30.76,0,0,1-5.43-.32l7.61,1c-11.59-1.81-21.75-3.22-33,1.23C95,293.94,80.54,306.3,81.77,324.54a38.4,38.4,0,0,0,37.5,35.78,40.23,40.23,0,0,0,21.07-5q3.33-2.34,6.46-4.93-4.25,3.22-1.86,1.59c5.38-2.38-3.16.37,1.51-.81,3.89-1,7.66-2.06,11.64-2.72-3.07.51,2.51-.29,2.57-.3a48.21,48.21,0,0,1,6.36,0c7.51.35,15,.52,22.49.68a71.65,71.65,0,0,1,17.54,2.46c5.7,1.6,8.23,4.67,10.56,10.11L223,348.18c-12.13,2.55-23.58-3.77-35-6.73a105.62,105.62,0,0,0-36.55-2.82c-24.34,2.3-48.23,11.93-68.81,24.92l13.67,7.85a323.77,323.77,0,0,0,2.5-33.8c.09-10.57-1.17-21.18-2.32-31.68-2.42-22.17-4.83-44.28-6.57-66.52-1.84-23.52-3.55-47.05-5.28-70.58-1.7-23.27-4.26-46.41-6.94-69.59-3-25.44-6.4-50.64-14.8-74.95C59.92,15.79,47.21,19.14,49.31,28Z"/></g><g class="cls-13"><path class="cls-14" d="M395.89,339.6c9,1.83,18.32,1.36,27.51,2.15a136.39,136.39,0,0,1,50.25,13.93c9.52,4.82,18.75,8.39,29.53,6.08,4.47-1,8.05-5.87,7.91-10.38-.53-16.53.21-33.13.5-49.66s-.82-33.08-1.78-49.67c-.37-6.26-4.54-11.67-11-12.44-5.72-.68-12.82,2.78-13.9,9.07-4.17,24.36-20.35,40.38-42.49,49.06-13.23,5.19-26.06,10.77-39.77,14.7-14.19,4.06-28.73,6.05-43,9.51-12,2.91-6.83,20.62,5.06,18.33,11.71-2.25,24.07-1.43,36-1.61,12.21-.18,24.34-.21,36.54.18,17.07.54,40.34.26,52-14.61L465.72,318a35.69,35.69,0,0,1,1.31,6c.1,1.22.11,2.45.09,3.67,0,.34-.23,3.47-.06,2.34-1.37,9.13,2.81,17.93,12.84,19.28a15.43,15.43,0,0,0,17.5-15.17c.13-9.62-2.12-18.29-6-27-2.2-5-9.08-7.45-14-6.71-5.91.89-9.59,4.63-11.7,10.08-.4,1-.85,1.42-.15.26-.43.72-.81,1.46-1.31,2.14,1-1.37-1.61,1.56-2.23,2-.95.7-5.06,2-7.76,2.61-8.15,2-16.62,2.19-24.94,2.85-10.51.83-21.05,1-31.6,1.39-10.91.36-22.21,1.67-33,.12l-2.53,18.67c16.18,1.55,33.08-1.29,49-4.33s32-6.89,46.46-14.06c26.57-13.21,45.91-37.63,51.73-66.81l-24.87-3.37c.1,16.61,0,33.11,1.39,49.67s3.15,33.09,3.68,49.66L497.46,341c-6.91,1.48-15-4.63-21.13-7.24a87.52,87.52,0,0,0-27.67-6.87,156.41,156.41,0,0,0-26.15.2c-8.89.74-18.22,1.32-26.62,4.39-3.56,1.3-4.42,7.23,0,8.12Z"/></g><path class="cls-9" d="M139.16,141.9c-.06-1.79-.09-3.61,0-5.4s.46-3.2,0-5a1.42,1.42,0,0,0-2.35-.62c-2.54,3-2.09,7.91-1.26,11.51a1.84,1.84,0,0,0,3.59-.49Z"/><path class="cls-9" d="M140.47,140.6c-.59-2.62.38-4.84,1.5-7.15a1.6,1.6,0,0,0-2.51-1.93c-2.83,2.58-2.75,6.79-1.3,10.06.6,1.36,2.61.36,2.31-1Z"/><path class="cls-9" d="M144.47,143.25a36,36,0,0,0,.05-5c0-1.8.08-3.61,0-5.4,0-2-3.08-2.53-3.59-.49-.84,3.37-.86,8.17,1.09,11.19.55.85,2.21.87,2.4-.32Z"/><path class="cls-9" d="M147.52,143.36a78.49,78.49,0,0,1-1.75-12.31,1.36,1.36,0,0,0-2.72,0c-.55,4.64.7,8.9,2.67,13.07.49,1,2.08.29,1.8-.76Z"/><path class="cls-9" d="M143.7,140c-.73-8.78-3.66-17.25-10-23.55a1.6,1.6,0,0,0-2.51,1.93c3.78,7.15,7.44,14.18,9.6,22,.43,1.58,3.09,1.33,2.94-.4Z"/><path class="cls-11" d="M143.15,145.53c.08-5.77.65-11.44,1.1-17.19.06-.75-1.1-.88-1.29-.18a43.26,43.26,0,0,0-.64,17.48c.07.49.82.35.83-.11Z"/><path class="cls-11" d="M139,140.1c-.3-9.34-.27-18.77-1.27-28.06a.52.52,0,0,0-1,0c-.29,9.33.48,18.73.9,28.06,0,.9,1.43.9,1.4,0Z"/><path class="cls-11" d="M140.83,134c1.2-4.22,2.52-8.43,3.54-12.7a.73.73,0,0,0-1.4-.39c-1.36,4.18-2.44,8.45-3.63,12.68a.77.77,0,0,0,1.49.41Z"/><path class="cls-11" d="M141.86,144c.3-2.17-.36-4.43-2.43-5.45-.66-.32-1.5.36-1.06,1.06a8.24,8.24,0,0,1,1.51,4.12c0,1.08,1.82,1.43,2,.27Z"/><path class="cls-11" d="M138.15,136.62a.14.14,0,0,0,0-.28.14.14,0,0,0,0,.28Z"/><path class="cls-8" d="M134.18,145a9.93,9.93,0,0,0,4.27,3.1,10.35,10.35,0,0,0,5.43.35,1.16,1.16,0,0,0-.3-2.27c-2.94,0-6.27-.32-8.81-1.95-.48-.31-1,.37-.59.77Z"/></g></g></svg>