<svg xmlns="http://www.w3.org/2000/svg" viewBox="0 0 421.59 429.38"><defs><style>.cls-1{fill:#00e78f;}.cls-2{fill:#00d880;}.cls-3{fill:#f15a24;}.cls-4{fill:#f7f7f7;}.cls-5{fill:#ff7300;}.cls-6{fill:#cecece;}.cls-7{fill:#b3b3b3;}.cls-8{fill:#595959;}.cls-9{fill:#09466e;}.cls-10{fill:#b7b7b7;}.cls-11{fill:#efefef;}.cls-12{fill:red;}.cls-13{fill:#39b54a;}</style></defs><title>kokebokapenAsset 136</title><g id="Layer_2" data-name="Layer 2"><g id="Layer_15" data-name="Layer 15"><path class="cls-1" d="M36.34,218.36c-1.53-1.08-3.27,20.88-3.35,22.33-1.23,20.32-2,40.21-5.17,60.37-1,6.69-4,13.12-5.94,19.58a84.7,84.7,0,0,0-3.21,15.26c-.5,4.85-.07,9.6.22,14.44.17,2.83,2.43,32.69,3.79,32.36,10.37-2.53,31.07-11.4,37.06-11.65,114.59-4.68,242.6,5.31,242.6,5.31s-2.06-67.55-4.83-83.86c-4.93-29-11-57.82-15.92-86.84-8.71-51.57-13.58-104.93-1.54-155.83,2-8.57,7.27-19,16-17.88-6.34,82.33-7.5,160.68,4.28,242.41,2.2,15.29.33,61.92-3,77s-43.84.09-59,3c.51,4.74-74.74-24.56-137.55-15.57-16.61,2.38-33.5,7.76-49.82,3.87,42.2-36.65,105.2-47.43,157.18-26.89,10.66,4.21,21.27,9.71,32.73,9.78s24.08-7.76,24.3-19.22c.21-10.49-9.4-18.24-18.31-23.79-17.34-10.8-35.94-20-55.89-24.39s-41.43-3.66-60,4.75c-14.22,6.43-26.13,17-39.31,25.31-4.75,3-10.28,5.84-15.77,4.58C62.19,289.66,64.48,270.38,64.13,260q-.81-24.86-1.63-49.72l-3.18-97c-.33-10-.59-20.49,3.41-29.71a15.31,15.31,0,0,1,4.4-6.2c2.82-2.15,6.53-2.59,10.05-3L217.82,59.6c7.91-.83,16.1-1.63,23.64.9,3.06,1,6.09,2.74,7.63,5.58a16.83,16.83,0,0,1,1.53,6.17l10.95,94c1.91,16.34,2.74,35.59-9.82,46.22-2.81,2.39-6.38,4.18-10.06,3.89-5-.4-8.9-4.46-11.82-8.55-8.82-12.38-13.41-27.36-22.18-39.77s-24.4-22.35-38.74-17.3c-13,4.59-19.39,19.5-21.13,33.22-.94,7.46-1.61,16.17-7.9,20.29-9.86-2.7-18.39-10.5-21.1-20.36s1-21.4,9.46-27.15,21.14-4.66,27.91,3"/><path class="cls-1" d="M38.48,210.59c-13.31-4-13.3,21.38-14.07,28.81-1,9.53-1.63,19.09-2.56,28.62-1.15,11.8-1.7,24.34-5.12,35.74-3.26,10.82-7.63,20.77-8.87,32.14-.73,6.69-.14,13.43.37,20.11.47,6.06,1,12.13,1.67,18.16.62,5.38.67,12.28,4.81,16.39,7,6.92,18.93.56,26.61-2.15,3.74-1.33,7.47-2.67,11.24-3.92,1.59-.52,3.19-1,4.81-1.5,1.39-.39,5.21-.57,1.81-.66,10.28.29,20.76-.71,31.06-.89q17.06-.29,34.11-.25c39,.07,78,2.6,116.9,5.5q12.56.93,25.09,2l5.15.44c1.23.1,6.6.78,1.75,0a31.33,31.33,0,0,0,4.89.6c3.09-.17-3.3-.56-.55-.17l3.91.57c5.46.8,10.92,1.61,16.37,2.48,11.09,1.77,20.72-4.42,21.32-16.25q.45-8.82.81-17.65c.12-2.6.43-5.29.33-7.89l0-.52q-1,7.09.27-2.11c0-.71-.07-1.44-.09-2.15,0-1.64,0-3.29-.08-4.93q-.17-9.27-.41-18.52c-.28-9.76-.46-19.61-1.59-29.33C315.83,271,311.31,249,307.11,227c-2.3-12.09-4.87-24.05-7.56-36.05a82.66,82.66,0,0,0-6.55-18.5c-2.51-5.18-4.56-10.89-7.61-15.76l1.56,5.78a400.42,400.42,0,0,1,.88-70.79,242.5,242.5,0,0,1,5.45-32.33c.59-2.46,1.15-4.94,1.92-7.34a32.28,32.28,0,0,1,1.1-3.13c-.61,1.42-.6,1.13.14,0,0,0,2.1-3.43.9-1.72s1.07-1.5,1.25-1.21c.27.45-2.75,1.54-3,1.63,2.88-1.16-2.86-.16.45.14L280.26,32a1050,1050,0,0,0-2,193.72c1.44,17.07,4,34,6.64,50.91,1,6.36-.24-3.55,0-.11.06.8.17,1.6.24,2.4.15,1.88.26,3.75.34,5.63.23,5,.28,9.95.25,14.93,0,10.67-.5,21.28-1.6,31.9-.24,2.28-.52,4.56-.79,6.85-.45,3.78.62-3.69,0-.11-.15.94-.28,1.88-.43,2.82-.27,1.62-.54,3.24-.91,4.83a8.45,8.45,0,0,0-.5,2c1.32-2.79,1.57-3.49.74-2.12a10,10,0,0,1,4-4.05c-2.51,1.65.24-1,1.43-.42a24.75,24.75,0,0,0-3.06.73c1.24-1.46,4.15-.17.86-.29-1.31,0-2.63,0-3.94-.05-1.06,0-2.11-.14-3.16-.23-.74-.07-1.47-.15-2.2-.24-1.85-.23-1.49-.17,1.1.17-1.72.64-6.25-1-8.09-1.3-11.94-2.05-23.53-4.41-35.62-2.66-7.85,1.14-12.66,10-13,17.09l.59-4.5,4.56-7.83c2.64-3.29,8.28-4.82,11.49-4.91-1.73.05-3.27-1.35,3.13.47-1.07-.3-2.22-.42-3.31-.68-3.7-.9-7.26-2.08-10.86-3.33l-7.6-2.64c-1.87-.64-5.77-2.9-7.57-2.56q6.36,2.81-2.27-.89c-.81-.18-1.61-.37-2.41-.59-1.45-.36-2.89-.75-4.34-1.12q-4.91-1.25-9.83-2.4c-7.1-1.65-14.24-3.14-21.43-4.41-3.52-.62-7-1.15-10.58-1.69q-1.55-.18-3.06-.48-10.35-1.26-3.05-.54c0,.11-5.48-1.49-6-1.62-9.32-2.42-18.9-4.94-28.51-4.95a188.85,188.85,0,0,0-30,2.37l7.53-1A204,204,0,0,1,73,310.6l8.73,1.18c-7.28-1.42-14.35-1.17-21.63-2.06l9.1,1.22a61.81,61.81,0,0,1-8.91-2l8.36,64a138.73,138.73,0,0,1,26.43-14.75L86,362a56.46,56.46,0,0,0,12-5l-9.18,3.87c7.43-2.91,15.5-4.55,23.34-5.93l-11.25,1.51c11.81-.31,23.46-4.62,35.18-6.25l-11.63,1.56a190.63,190.63,0,0,1,48.5.24l-12-1.62a159,159,0,0,1,40,11.18L190,357c16.75,7.09,30.72,13.07,49.16,14.12,17,1,33.59-5.55,46.81-15.76,15.74-12.16,26.17-31.49,24.81-51.8a68.5,68.5,0,0,0-25.41-49.31,219.79,219.79,0,0,0-71.2-37.46c-26.34-8.2-55.49-9.58-82.29-2.76-14.39,3.67-28.31,10.42-40.61,18.7-9.48,6.38-18.44,14.28-28.86,19.11l11-4.63a29.89,29.89,0,0,1-4.81,1.44L80.78,247a13.85,13.85,0,0,1-3.28.12l12.21,1.65a19.34,19.34,0,0,1-3.78-.93l11,4.63a17.16,17.16,0,0,1-2.68-1.5l9.29,7.18a17.76,17.76,0,0,1-2.13-2l7.19,9.29a19.33,19.33,0,0,1-2.49-4.32l4.63,11A35,35,0,0,1,109,264.7l1.64,12.21c-1.3-11.44-.74-23.33-1.12-34.83q-.81-24.81-1.63-49.63L106.23,143c-.51-15.65-2.29-31.88-.63-47.49L104,107.7A48.92,48.92,0,0,1,107,95.8l-4.63,11a28,28,0,0,1,2.27-4l-7.19,9.3a11.63,11.63,0,0,1,2.14-2.18l-9.3,7.19a10.82,10.82,0,0,1,2.61-1.47l-11,4.64a30.13,30.13,0,0,1,5.93-1.34l-12.22,1.64c26.9-3,53.84-5.68,80.76-8.52L196,107.84c13.08-1.38,27-4.3,40.12-2.66l-12.21-1.65a37.88,37.88,0,0,1,6.61,1.75l-11-4.63a22.38,22.38,0,0,1,3.64,2l-9.3-7.18a10.32,10.32,0,0,1,1.94,1.91l-7.18-9.3a9.21,9.21,0,0,1,1.38,2.61l-4.64-11a16,16,0,0,1,.7,3.12l-1.64-12.21c2.68,21.39,5,42.84,7.5,64.26,2.13,18.23,6.31,37.49,4.26,55.88l1.64-12.21a48.32,48.32,0,0,1-2.65,10.72l4.63-11a35.2,35.2,0,0,1-4,7l7.18-9.3a32,32,0,0,1-5,4.95l9.3-7.18a18.05,18.05,0,0,1-2.74,1.64l11-4.63a17.83,17.83,0,0,1-4.51,1.27l12.21-1.64h-1.57l12.21,1.65a10.87,10.87,0,0,1-2.87-.65l11,4.63a20.65,20.65,0,0,1-3.82-2.24l9.3,7.18a34.06,34.06,0,0,1-4.22-4.44l7.18,9.3c-8.38-11.34-12.94-24.83-20.31-36.77-12.28-19.92-30.8-36.67-53.79-43-24.91-6.82-54,.35-71.2,20.26-9,10.42-14.18,20-18.75,33-3.21,9.14-3.78,19.09-5,28.6L103,175.78a40.73,40.73,0,0,1-2.58,10.44l4.63-11a22,22,0,0,1-2,3.25l7.19-9.3a12.69,12.69,0,0,1-1.79,1.8l9.3-7.18-1.05.77L152.13,160c-1.41-.43-2.76-.9-4.13-1.46l11,4.63a38.31,38.31,0,0,1-6.32-3.68l9.3,7.19a36,36,0,0,1-6.17-6.17l7.18,9.3a34,34,0,0,1-3.55-6.3l4.63,11a32.72,32.72,0,0,1-1.51-5.48l1.64,12.21a32.31,32.31,0,0,1-.11-6.95l-1.64,12.21a32.53,32.53,0,0,1,1.72-6.74l-4.63,11a29.83,29.83,0,0,1,3.42-6L155.75,194a29.33,29.33,0,0,1,3.89-3.91l-9.3,7.19A26.85,26.85,0,0,1,155,194.5l-11,4.63a28.35,28.35,0,0,1,5.11-1.45l-12.21,1.64a28.91,28.91,0,0,1,6.64-.1l-12.22-1.64a29.19,29.19,0,0,1,5.13,1.29l-11-4.63a26.13,26.13,0,0,1,4.62,2.51l-9.3-7.19a26.43,26.43,0,0,1,2.93,2.67c8,8.4,21,13.45,32.48,13.45,11.27,0,24.72-5,32.48-13.45,17.18-18.72,17.71-46.35,0-65-20.88-22-55.1-25.56-81.28-11.53-22.57,12.08-37.64,39.87-35.08,65.43,1.15,11.54,3,18.2,7.78,28.67,2.83,6.25,7.14,11.51,11.63,16.74,8.63,10.05,20.88,16.76,33.21,21.07,23.29,8.12,48.54-4.89,59.48-26,6.47-12.51,7.63-23.74,9.35-37.65l-1.64,12.21a63.66,63.66,0,0,1,3.87-15l-4.63,11a44.6,44.6,0,0,1,5.5-9.57l-7.18,9.29a35.75,35.75,0,0,1,4.71-4.74l-9.3,7.18a31,31,0,0,1,5.76-3.41l-11,4.64a30.35,30.35,0,0,1,5.61-1.57l-12.21,1.64a30.4,30.4,0,0,1,7.26,0L168.33,194a37.22,37.22,0,0,1,7.11,1.94l-11-4.63a46.63,46.63,0,0,1,9.28,5.31l-9.3-7.18a55.94,55.94,0,0,1,9.86,9.89l-7.19-9.3c7,9.57,11.35,20.58,16.93,30.95,11.89,22,31,40.95,57.64,41.36,16.21.25,30.63-6.75,42.55-17.35a61.38,61.38,0,0,0,14.95-20.25c5.38-12.09,7.48-20.75,8.92-33.9a89.44,89.44,0,0,0,.22-16c-1.79-26.4-6-52.81-9-79.1L297,76.17c-.74-6.39-1.1-13.06-2.57-19.31a56,56,0,0,0-14.52-25.43c-16.32-16.3-40.09-20-62.1-17.76-27.74,2.86-55.46,5.84-83.19,8.77L93,26.82c-9.88,1-19.75,2-29.58,3.48C47.59,32.68,33.92,43.17,25.33,56.38c-10.44,16.08-12.55,36.44-12,55.14.4,13.79.91,27.57,1.36,41.36l2.73,83.24c.39,11.72.47,23.46.89,35.17C19.09,293,25.49,313,43.2,326.7,57.67,337.88,75.12,341.06,93,337.22c10-2.15,19.23-7.44,27.6-13.18,11.45-7.86,22.32-16.56,35.13-22.17l-11,4.63a90.14,90.14,0,0,1,21.83-5.87l-12.22,1.64a110.18,110.18,0,0,1,28,.26l-12.21-1.64a142.44,142.44,0,0,1,33.54,9.59l-11-4.63C206,311.52,219.5,318.37,231,327.19L221.67,320a43.81,43.81,0,0,1,7.16,7.18l-7.17-9.27a29.45,29.45,0,0,1,2.73,4.79l-4.62-10.94a26.76,26.76,0,0,1,1.1,3.94l-1.64-12.17a23.39,23.39,0,0,1,.12,4.1L221,295.48a20,20,0,0,1-1.3,4.87l4.61-10.92a26.35,26.35,0,0,1-1.91,3.25l7.15-9.25a27,27,0,0,1-4.59,4.54l9.25-7.15a32.75,32.75,0,0,1-5.84,3.26l10.91-4.6a36,36,0,0,1-6.52,1.8l12.13-1.63a37.45,37.45,0,0,1-9.1,0l12.12,1.63c-15.15-2.32-28.78-10.57-43.57-14.43-10.3-2.69-20.88-4.07-31.43-5.33a115.07,115.07,0,0,0-20.48-1c-17.28,1.05-34.81,3.43-51.39,8.57a126.61,126.61,0,0,0-28,12.33c-8.14,4.91-17.17,10.61-24,17l7.7-6a224.38,224.38,0,0,0-30.43,25.51A35.17,35.17,0,0,0,19,356.14a33.33,33.33,0,0,0,10.77,14c6.69,5.16,12.82,6.41,21.21,7.51,9.18,1.2,18.11-.23,27.22-1.62l-8.89,1.19q5.36-.66,10.72-1.42c3.18-1.33,6.37-2.68,9.54-4l-7.84,3.31c11-3.59,21.14-8.45,32.71-10.11L107,366c4.19-.56,8.38-1,12.6-1.29a172.82,172.82,0,0,0,18-2.61c2-.35,4-.65,6-1,2.6-.37,2-.29-1.82.23l3.14-.38a55.14,55.14,0,0,1,10.9-.06q6.09.47,12.15,1.15c1.74.2,4.27.06,5.9.72l-1.33-.18,2.87.41c6.7,1,13.41,2.07,20.05,3.39.82.15,1.63.33,2.44.52q9.63,1.41,2.46.2a29.48,29.48,0,0,1,4.64.67q3.74.54,7.46,1.11c5.78.88,11.6,2.14,17.4,2.73-7.14-.73-2.05-.15-.23.14a55.74,55.74,0,0,0,7.34.9,18.59,18.59,0,0,0,19.08-18.29l-13,17.1c2.63-.51-4.57.17-1.64.21.87,0,1.76-.09,2.63-.1,2.34,0,4.67.14,7,.34,5,.42,9.89,1.11,14.83,1.7,9.66,1.15,20.43,2.53,29.87-.6,6.06-2,11.87-5.74,14.93-11.55,2.7-5.12,3.12-10.64,3.77-16.3,1.13-9.84,1.25-19.73,1.75-29.61.53-10.5.87-21,.52-31.55-.42-12.9-2.59-24.76-3.66-37.95-2.72-33.47-5.16-66.77-5.29-100.37-.13-38,2.13-75.84,4.09-113.73.46-8.78-7.61-15.46-15.79-15.8-16.36-.67-26.83,14-30.34,28.41-3.8,15.59-5.41,32.05-6.14,48.06a317.51,317.51,0,0,0,1.65,47.16q.58,5.68,1.31,11.35c.29,2.3.6,4.6.91,6.9.13.91.34,1.87.39,2.8.14,2.84.33-1.54-.13,1.13-1.42,8.27-3.85,16.59-4.41,25a20.21,20.21,0,0,0,.27,4.49c.77,5.74,0,2-.07,1.14.08,1.87.34,3.75.52,5.61q.6,6.17,1.27,12.31c1,9.37,2.77,18.63,4.47,27.9,3,16.4,6.13,32.76,9.53,49.09,1,4.85,2,9.69,2.82,14.56.51,2.94-.72-5.81-.35-2.63.09.8.2,1.59.29,2.39.23,1.92.44,3.85.64,5.77.93,8.92,1.66,17.86,2.35,26.79q.3,3.93.58,7.84c.1,1.28.2,2.56.27,3.83,0,.54,0,1.08.07,1.62,0,.39.79,8.76.59,4.15-.15-3.49.15.68.25,1.57l.42,3.44.75,6.31q.78,6.62,1.52,13.23l16.85-16.84c-22.63.08-45.17-.49-67.8-.9-49.25-.91-98.66-.9-147.9.3-12.25.3-25.46-.66-37.27,3.05-9.94,3.12-19.54,7.39-29.65,10h5.93l-.1,0,4.92,2.87c.3.34,2.39,4.41,2.52,4.18s-.16-.47-.15-.58a7.83,7.83,0,0,0-.32-1.63c-.13-.7-.22-1.41-.33-2.12.38,2.44,0,.11-.1-.95-.51-4.37-.93-8.76-1.31-13.15-.77-8.7-2.29-18-1.09-26.66,1-7.26,3.56-14.14,5.73-21.1,2.54-8.2,3.29-16.84,4.07-25.35,1.44-15.62,1.57-31.27,2.21-46.93.14-3.49.39-7,.67-10.46.14-1.76.43-5,.55-5.86a17.67,17.67,0,0,0,.3-1.78c.11-1.7,0-.16-.18.07l-2.9,2.89.13-.08-6.21.82.13,0c10.1,2.44,14.24-12.54,4.29-15.55Z"/><path class="cls-1" d="M13.51,394.47c3.51-6.62,2.42-12.63,2.74-19.92.15-3.33,1.13-6.5,1.48-9.8.46-4.49.48-9.07.78-13.58,1-15.07,1.42-30.18,2.37-45.25q2.55-40.82,4.33-81.66c1.16-27.75,2.11-55.48,4.83-83.13q1-10.6,2.31-21.17.51-4.2,1-8.4c.21-1.64.42-3.28.64-4.91q-.32,2.41.07-.49t.8-5.89c.69-5.49,1.31-11,2-16.47.08-.61.72-5.34.15-1.18.18-1.33.37-2.66.55-4q.61-4.38,1.26-8.76c1.69-11.37,3.55-22.72,5.72-34,1.66-8.64-2.42-18.62-11.79-20.76-8.33-1.89-19,2.52-20.75,11.79C5.65,60.31,2.16,94.65.68,128.62-.55,156.8.16,184.85.73,213c.55,27.31-.16,54.63,1,81.93.69,16.82,1.42,33.67,2.71,50.45C5,353.56,5.62,362,7.51,370c2,8.51.57,17.07,5.65,24.52a.21.21,0,0,0,.35,0Z"/><path class="cls-1" d="M21.63,195.12c2.61-5.76,3.86-12.31,5.43-18.39,1.5-5.81,2.86-11.3,3.16-17.32q.48-10.18,1-20.38c1.31-27.22,2.3-54.58,5.46-81.66a23.43,23.43,0,0,1,.48-3.95c0,.09-.52,3.65-.18,1.42.1-.71.2-1.43.31-2.14.32-2.14.68-4.27,1.11-6.39.35-1.73.73-3.45,1.23-5.14.2-.69.47-1.37.66-2.06.73-2.63-2,3.8-.55,1.37,1.3-2.23-1,1.24-1.4,1.62,1.57-1.62-3.44,2.43-1.9,1.45,2.42-1.53-2.67.79-1.51.58.93-.17,1.9-.63,2.82-.88,4.72-1.28,9.62-2.08,14.43-2.91,3.17-.55,6.35-1,9.53-1.49l2.06-.29c3.69-.52-3.6.45.17,0L70,37.79c8.12-1,16.26-1.79,24.41-2.51,16-1.42,32-2.51,48-3.07a588,588,0,0,1,62.82,1.68C235,36,264.86,40.31,294.74,41.26c7.95.25,15.55-7.17,15.19-15.19-.4-9-6.7-14.18-15.19-15.19C267.61,7.66,240.22,5.44,213,3.09,192.25,1.3,171.29-.53,150.45.14a778.73,778.73,0,0,0-98.9,9.52c-10,1.61-21.37,3.1-30.08,8.62-9.29,5.88-10.34,17.41-11.26,27.35-2.42,26-.81,52.68.32,78.74q.51,12.1,1.1,24.19c.36,7.53.34,15,2.13,22.36,1.85,7.57,4.6,15.62,5.08,23.44.08,1.35,2.13,2.23,2.79.76Z"/><path class="cls-1" d="M18,391a18.74,18.74,0,0,0,.44,18.87l3.78-3.78c-3.49-2.62-5.29-6.49-3.06-10.62l-4.49-1.89c-2.85,7.76-.35,16.27,4.7,22.55,7.12,8.84,17.82,10,28.51,8.7,12-1.48,23.66-4.36,35.69-5.44a358.49,358.49,0,0,1,36.2-1.22c49.35.59,98.31,8.71,147.7,8.61,10.67,0,26.21,1.08,34.71-6.76,7.66-7.06,4.9-18.32,8.2-27.19,1.75-4.7-4.4-9.1-8.44-6.49-4.25,2.75-6,6.64-6.62,11.57-.84,6.58-1.29,13.25-1.95,19.86-.77,7.76,11.54,7.81,12.19,0,.38-4.62.75-9.25,1.17-13.86.24-2.7-.09-6.71,2.18-8.55l-9.61-5.59A43.53,43.53,0,0,0,298,400.68c-.07,3.55.57,8.4-2,11.34s-8.06,3.4-11.69,3.92a141.65,141.65,0,0,1-16.85,1c-21.81.47-43.56-1-65.29-2.74-43-3.47-86-7.76-129-2.92-11.75,1.32-23.85,4.67-35.69,2.6-9.06-1.59-22-7.66-18-19,.95-2.7-3.06-4.18-4.49-1.89-3.57,5.74-2.2,15,4.51,17.87,2.85,1.23,5.48-1.84,3.35-4.34a15.05,15.05,0,0,1-2.72-14.65A1.13,1.13,0,0,0,18,391Z"/><path class="cls-1" d="M214.16,369.1c5.14.67,10.14,1.91,15.33,2.6,5.67.75,11.31,1.68,16.94,2.73,5,.94,10,1.54,15,2.24s9.68,2.41,14.3,0a4.72,4.72,0,0,0,.95-7.36c-3.77-3.5-8.87-3.13-13.77-3.54a131.41,131.41,0,0,0-17.18-.45c-5.43.24-10.86.59-16.27,1s-10.15,1.6-15.38,2.39c-.23,0-.14.34,0,.36Z"/><path class="cls-2" d="M299.15,281.32c0,9.86.19,19.8-.26,29.66-.24,5.33-1.62,10.47-1.81,15.83q-.25,6.92-.55,13.85c-.19,4.61-.48,9.23-.63,13.85-.11,3.15,1.36,9.14-1,11.71-4.63,5.09-16.79-.09-22.19-1.13-36.75-7-73.37-3.11-109.84,3.45-3.93.7-3,7.25,1,7,31.33-2,63.54-5.89,94.79-1.23,7.6,1.13,14.83,3.19,22.25,5,6.57,1.63,13.67,2.13,19.8-1.29,13.4-7.49,8.64-26.95,7.66-39.37-.39-4.95-.72-9.91-1.22-14.84-.48-4.69-2-9.15-2.51-13.85-1-9.53-1.58-19.12-2.46-28.67-.17-1.89-3-2-3,0Z"/><path class="cls-2" d="M22.59,29.63c-3.15,22.31-6.05,44.66-8.44,67.06-2.44,22.85-2.7,46.15-3.43,69.11C9.26,211.88,9.49,258,9.9,304.13c.11,13.16.2,26.34,1,39.49q.57,9.87,1.24,19.73c.42,6.39.37,13,2.18,19.14,1.34,4.56,9.35,5.42,10.13,0,1.58-11-.43-22.85-1-33.94-.59-11.53-1.4-23-2.17-34.55-1.54-23-2.78-46.06-3-69.15q-.78-68.67,2.69-137.31c1.32-25.91,1-51.92,2.06-77.86,0-.21-.34-.26-.37-.05Z"/><path class="cls-2" d="M302.06,399.64a16.88,16.88,0,0,0-2.16,8.1H302a19.3,19.3,0,0,1,2.12-10.6l-3.77-1.59A38.11,38.11,0,0,0,299,408.12c.14,2.43,3.83,2.47,3.8,0l-.16-12.28h-3.48c0,3.75-.13,7.46-.32,11.2-.14,2.65,4.26,2.66,4.12,0-.19-3.74-.37-7.45-.32-11.2,0-2.24-3.45-2.24-3.48,0L299,408.12h3.8a34.31,34.31,0,0,1,1.55-11.47c.79-2.55-3.16-3.61-4-1.1a22.36,22.36,0,0,0-.43,12.48c.33,1.35,2.24.75,2-.57a15.31,15.31,0,0,1,.77-7.53c.14-.4-.48-.66-.69-.29Z"/><path class="cls-2" d="M153.55,418.27c23.23-1.26,46.52,0,69.66,2.1,11.39,1,22.75,1.86,34.19,2.31,8.92.35,21.43,1.07,29-4.62,3.15-2.37,1.41-7.39-2.75-6.51-5.07,1.07-9.6,2.86-14.88,3.14a140.13,140.13,0,0,1-15.06-.29c-11.49-.63-22.92-1.16-34.43-1.23-22.07-.14-44.07.41-65.77,4.73a.19.19,0,0,0,.05.37Z"/><path class="cls-2" d="M301.28,31.17l.63-6.83c.15-1.65-2.43-1.93-2.84-.39-3.68,14-4.91,28.2-6.3,42.54-1.42,14.73-2.31,29.47-2.84,44.25q-.8,21.66-.71,43.34c.06,14.78.09,29.43,2.25,44.07.49,3.29,5.34,2.23,5.53-.75.88-14.44.15-28.85.09-43.32s.19-28.9.71-43.34,1.3-28.85,2.12-43.27,2.38-28.7,2-43.13l-2.84.38,1.47,6.55c.1.44.7.3.74-.1Z"/><path class="cls-3" d="M402.25,267.71c2.59,8.9.69,17.42-1,26.28-1.57,8.18-3.84,16.4-4.69,24.68-.36,3.46,4.95,3.92,5.89.8a187,187,0,0,0,5.73-28.3c1.1-8.23.9-16.71-2.31-24.46-.89-2.16-4.31-1.39-3.61,1Z"/></g><g id="Layer_14" data-name="Layer 14"><path class="cls-4" d="M290.94,391.84c-19,3.33-38.19.48-57.15-1.68-18.67-2.14-37.31-2.85-56.09-3.16-38.52-.62-77-1.18-115.54-1.89-8.68-.16-17.7-1-26.35-.13-6.79.72-13.24,3.58-16,10.16-2.28,5.32-1.59,11.91,3.33,15.5,2.8,2,6.19,2.45,9.56,2.55,4.88.14,9.76.13,14.63.2,19.45.28,38.91.44,58.34-.51,19.2-.95,38.29-3.2,57.41-5.18,20.89-2.16,41.85-3.88,62.87-3.15a296.28,296.28,0,0,1,31.76,2.78c5,.71,10,1.56,15,2.51,2.8.53,5.58,1.1,8.36,1.71l2.78.62,2.77.65c1.46.65,1.63-.08.49-2.19l4.58-3.49c-33.73-4.12-67.83-3.64-101.74-3.42s-67.52.46-101.29.64c-19.52.11-39.06.09-58.58.46L36.17,411l.9-9.36-4.47,5.87c35.64-8.16,71.61-7.3,107.69-2.8V390.93c-12.6.7-25.08,1.7-37.72,2.07s-25.16.46-37.71,1.13l4.58,1.9-6.12-5.28v8.87c6.41-5.28,15.78-5.45,23.68-5.81q14.77-.68,29.54,0c19.68.83,39.31,2.83,58.89,4.89,39.16,4.11,79,9.86,118.41,6.65l-6.46-6.47c-.38,5.35-1.61,9.14.52,14.41l4.36-7.69q2.79,1.31,1.46.27c-.44-.63-.85-1.27-1.23-1.94-.63-1-1.18-2.12-1.81-3.15a20,20,0,0,0-6.09-6.77c-5.47-3.45-12.07-3.24-18.28-3q-26.17,1-52.39.75c-35.44-.45-70.36-3.58-105.53-7.68-3.67-.43-6.76,3.43-6.79,6.79,0,4.05,3.16,6.35,6.79,6.8,35.51,4.37,71.74,6,107.51,6.26,17.71.15,35.38-.41,53.08-1,2.57-.09,6-.48,8.42.78s3.26,4.19,4.51,6.4c3,5.37,7.22,8.9,13.68,7.54C298.7,417,301.08,413,300,410c-1.46-4-.16-6.9.34-11.09.4-3.4-3.29-6.55-6.46-6.46-64.1,1.93-127.19-11.08-191.19-11.14-15.31,0-34-1.1-46.93,8.5-3.13,2.32-4.46,6.81-1.27,9.86,2.21,2.12,4.45,5.08,7.14,6.6,2.91,1.63,7,.75,10.22.61l22.82-1,21.84-1c8-.36,15.86,0,23.82-.1,7.45-.14,9.77-12.2,1.83-13.54-37.32-6.31-75.86-3.11-112.75,4.6-2.84.59-4.18,3.3-4.47,5.87L23.81,411c-.39,3.33,3.14,6.18,6.18,6.18,67.8,0,135.71-1.14,203.49-2.65,19.43-.44,38.83-.47,58.12,2.1,2.07.28,4-1.68,4.58-3.48,2.29-7.44-6.47-9.41-11.73-10.61q-13.26-3-26.75-4.84a313.93,313.93,0,0,0-53.87-2.57c-36.82,1.4-73.21,8-110.07,9.1-18.78.59-37.58.31-56.37-.17-2.61-.07-8.66.84-9.25-2.52s3.4-5.51,6.06-6.24c7.67-2.11,17.12-.69,25-.66,37.52.13,75.05.4,112.57.61,20.42.12,40.73.28,61.07,2.26,19.84,1.93,39.79,3.61,59.43-.88,3.15-.72,1.78-5.34-1.33-4.79Z"/></g><g id="Layer_17" data-name="Layer 17"><path class="cls-5" d="M395.33,265l.25,0a2.5,2.5,0,0,0,2.26-1.72l.19-.47a3,3,0,0,0-.82-3.09l-.77-.61a4.11,4.11,0,0,0-4.76-.61c-5.71,3.17-4.24,9.46-3.77,15,.65,7.43.95,14.86,1.28,22.31.29,6.65-.37,14.25,1.06,20.76,1.37,6.22,8.1,5.5,12.36,8.76,2.53,1.93,6.37-.69,6.26-3.59-.25-6.38-.29-12.54,1.13-18.8a167.21,167.21,0,0,0,3.43-18.31c.72-6.39,1.24-13.28.39-19.69-.65-4.83-3.57-7.19-8.25-8.2-3.73-.79-8.08-.93-11.34,1.37-4.27,3-4,7.77-3.29,12.39a228.35,228.35,0,0,1,2.6,42.76c-.17,4.77,7.28,7.17,9.39,2.54,3.32-7.27,3-15.88,3.62-23.72.76-9.32,1.65-18.6,2.67-27.9l-11.28,1.53a2.59,2.59,0,0,1-.06,2.33c-1.91,6.12,6.53,9,9.85,4.15a10.19,10.19,0,0,0,1.29-9.54,5.78,5.78,0,0,0-11.29,1.53c-.33,8-.7,16-1.25,24.05l-.8,11.55c-.24,3.48,0,7.67-1.46,10.93l9.4,2.55a256.51,256.51,0,0,0-.95-29.47,132.41,132.41,0,0,0-1.85-15c-.53-2.48-1.08-2.5,1.16-3.06a18.75,18.75,0,0,1,2.37,0c1.13-.25,1.49.07,1.09,1,.6,1.37.08,4.94.1,6.51,0,2.53,0,5.07-.18,7.6a104.14,104.14,0,0,1-2,14.81,114.43,114.43,0,0,0-2.81,26.08l7.09-2.94a23,23,0,0,0-5.22-3.33c-.83-.36-1.91-.53-2.68-.95-1.67-.91-.51.5-1.43-1.26-1-1.93-.55-6.46-.74-8.73l-.74-8.72c-.46-5.49-1-11-1.35-16.49-.14-2.48-2.08-13.58.71-14.38l-2.28-.6a1.87,1.87,0,0,0,1.41.71Z"/><path class="cls-5" d="M410.82,146.46c-7.6-.1-6.19,17.09-6.22,21.61s6.52,5.32,7.74,1.05a52,52,0,0,0,1.93-18.36c-.35-4.91-7.85-5-7.74,0,.33,15.18-2.41,30-4.73,45-1.08,6.94-2.14,13.89-3,20.87s-2.13,14.64-.51,21.69c.79,3.42,5.91,3.28,6.78,0,1.86-7,1.58-14.53,2.42-21.69.87-7.47,2.07-14.89,3.2-22.33a275.57,275.57,0,0,0,3.56-43.5h-7.74A48,48,0,0,1,404.74,167l7.74,1c0-3.72-.09-7.48-.39-11.19-.25-3.07-.75-5.34.37-8.26a1.72,1.72,0,0,0-1.64-2.16Z"/><path class="cls-5" d="M405.18,121.91c.59,1.84.85,2.79,2.87,3.48,2.51.86,4.34-1.72,3.94-3.94a25.54,25.54,0,0,1,1-13.2l-5.36,2.19c1.33.64-.22,3.71-.52,4.72-.76,2.56-.93,4.78.37,7.17,1.67,3.06,5.72,1.32,6-1.63.56-5.36,4.71-13.31-2.19-16.57a3.72,3.72,0,0,0-5.37,2.18,28.48,28.48,0,0,0-.17,16.85l.83-3.12a12.65,12.65,0,0,1-.89,1l1.44-.38-.63-.16a1.13,1.13,0,0,0-1.38,1.38Z"/><path class="cls-6" d="M400.31,337.59c-.06-4.71-2-9.48-3.58-13.88l-4.37,2.54A25.12,25.12,0,0,0,402.2,333l-1.79-4.38c-4.89,6.88-5,18.27-5.17,26.42l8-1.08A91.44,91.44,0,0,1,399.54,339c-.68-4.47.12-10.11-2.45-14a3.08,3.08,0,0,0-5.26,0c-2.57,4.16-1.14,9.74-.47,14.35a96.74,96.74,0,0,0,4,16.7c1.43,4.27,7.91,3.64,8-1.08a103.84,103.84,0,0,1,1.08-13.3c.56-3.83,1.78-7.75,1.53-11.62a3.08,3.08,0,0,0-2.19-2.87,16.22,16.22,0,0,1-7.72-4.66c-2.13-2.18-5.46.57-4.11,3.16,2.12,4.07,3.57,8.69,6.09,12.48a1.23,1.23,0,0,0,2.27-.61Z"/><path class="cls-6" d="M389.46,252.43l-2.38.92a1.83,1.83,0,0,0,0,3.51c3,.64,5.91-.23,8.94-.59a30.69,30.69,0,0,1,11.72.83,4.19,4.19,0,0,0,5.22-4q1.31-20.87,3.47-41.64c1.39-13.55,3.91-27.88,3.1-41.51a1.93,1.93,0,0,0-3.77-.51c-4.43,12.87-5.47,27.57-6.95,41-1.55,14.18-2.87,28.39-4.1,42.61l5.22-4c-7-1.32-19.58-2.15-23.94,5.05l3.33,1.4.78-2.52a.47.47,0,0,0-.64-.64Z"/><path class="cls-6" d="M402.54,239.84l3.8-3.89-1.59-1.23c-1.66,3.73-3,7.41-5.68,10.59l4.3,3.32c2.1-4.78,4.1-9.61,6.14-14.42L404.34,232l-.72,3.61c-.7,3.58,4.37,5,5.49,1.52,1-3,1.87-6,2.77-9.08l-5.32-1.46c-2,6.81-6.95,19.25-16.12,18.48l2.6,1.49c-1-1.55.45-6.53.63-8.25l1-9.57c.71-6.69,1.28-13.38,1.8-20.09.5-6.38.95-12.78,1.85-19.12,1-6.7,3-12.87,4.76-19.36.74-2.7-3.3-4.56-4.63-1.95-4.88,9.62-6,21.44-7.26,32q-2.15,18.06-3.63,36.17c-.31,3.62-2.27,10.06.26,13.2,2.19,2.7,6.05,1.31,8.72.08,8.69-4,12.54-13.08,15.32-21.63,1.1-3.39-4.21-4.83-5.32-1.46-1,3-2,6-2.94,9l5.49,1.52.69-3.63a2.83,2.83,0,0,0-5.46-1.5c-2,4.82-4,9.63-6,14.49-1.16,2.91,3.5,4.75,5,2.11,2.42-4.29,4-8.74,3.23-13.67a1,1,0,0,0-1.85-.24l-2.58,4.84a.23.23,0,0,0,.37.28Z"/><path class="cls-6" d="M417.58,141.78c-1.83,11-2.53,22.16-5,33.1-.58,2.53,3.35,3.61,3.89,1.07,2.37-11.18,3.95-22.88,1.59-34.17a.23.23,0,0,0-.45,0Z"/><path class="cls-6" d="M416.79,144.52c1.66-5.35-.1-10.26-3.84-14.27l-2.28,3.92q3.15,1.59,2.4,4.33l4.15-1.13c-3.24-6.35-7.48-10.32-14.76-11.18a3.89,3.89,0,0,0-3.75,2.86c-5.5,22.35-8.21,45.83-10.6,68.69-1.1,10.52-2.52,21.26-2.41,31.85.09,7.9,2,15.5,8.77,20.2,2.77,1.93,6.1-.7,6.27-3.6.28-4.61-1-8.86-1.75-13.37a72.22,72.22,0,0,1-.68-13.47c.27-9,1.49-17.92,2.44-26.84l2.95-27.63,1.45-13.5a62.42,62.42,0,0,1,.85-7.49c.17-.77,1.61-4.06,1.8-3.8l.64-5c-8.33,6.81-11.31,16.43-12.05,26.87-.88,12.43,2.05,25.39-3.23,37.17-2.13,4.75,4.65,9,7.12,4.17,5.5-10.67,4.67-22.49,4.6-34.12-.07-9.82,1-21.81,9.36-28.29a4.08,4.08,0,0,0,.64-5c-4.79-7.13-14.07-3.56-16.47,3.65-1.63,4.88-1.56,10.56-2.1,15.64l-2,19.28c-1.26,11.88-2.67,23.75-3.74,35.65a109.9,109.9,0,0,0-.4,18.32c.46,5.9,2.61,11.8,2.27,17.7l6.28-3.61c-6-4.55-3.87-15.17-3.22-21.52,1-10,2-20.09,3.1-30.12,2.31-20.31,5.66-40.54,7.79-60.86l-3.89,3.9c4.36-.09,8.93,1.49,10.92,5.64.77,1.63,3.8,1.35,4.07-.53.64-4.45-1.32-7.85-5.54-9.44-2.19-.83-4,2.41-2.28,3.91,3.21,2.83,4.46,6.4,4.58,10.61a1.32,1.32,0,0,0,2.58.35Z"/><path class="cls-6" d="M404.16,247l-.19-.26-2.07-3.64a27.81,27.81,0,0,0-1.15,4.23c-.33,1.61.46,3.82,2.34,4.12a16.51,16.51,0,0,0,6.11-.08c3.91-.76,2.89-6.76-.92-6.8A41.92,41.92,0,0,0,387,250l4.62,1.88c-.51-2.34.65-4,1.34-6.15s-1.8-3.72-3.58-2.75c-3.79,2.05-4.37,6.69-3.82,10.58.3,2.21,3,2.6,4.62,1.88a45.84,45.84,0,0,1,18.12-4l-.92-6.8a6.27,6.27,0,0,1-3.38.18l3.23,4.24a32.6,32.6,0,0,0,.5-5.22c-.06-5.31-8.27-2.23-5.51,1.49a7,7,0,0,0,1.62,1.57.31.31,0,0,0,.34.05Z"/><path class="cls-6" d="M411.52,248.82c-1.72,2.22-2.8,5.16-1.63,7.88a2.2,2.2,0,0,0,3.79,0c1.17-2.72.1-5.66-1.63-7.88a.39.39,0,0,0-.53,0Z"/><path class="cls-6" d="M417.09,136.35c.51-7.81-11.3-11-17.15-8.88-9.43,3.36-6.77,15.05-2.11,21.08,1.68,2.17,6.22,1.07,5-2.09C401.42,143,397,135,402.69,133.1c4.72-1.55,9.32.75,12.48,4a1.14,1.14,0,0,0,1.92-.79Z"/><path class="cls-3" d="M405.47,264.72q-1.83,13.57-4.4,27c-.87,4.5-1.66,9-2.4,13.53-.62,3.78-1.76,7.4-1,11.19.45,2.23,3.36,2.16,4.46.58,2.34-3.37,2.66-7.9,3.49-11.88.87-4.16,1.49-8.32,2-12.54,1.14-9.06,2-18.16,2.63-27.28.19-2.7-4.42-3.38-4.79-.64Z"/><path class="cls-7" d="M411.93,251.68c3.17-10.29,6.47-21.64,6.45-32.49,0-3.08-4-3.94-5.59-1.51-6.16,9.37-7.73,22.22-6.75,33.2.29,3.29,4.85,4.18,5.89.8Z"/><path class="cls-7" d="M401.13,349.18c.35-1.21,1-2.17,1.29-3.39.29-1.42,0-3.07.18-4.54s.77-3.18.92-4.79a7.49,7.49,0,0,0-.72-3.65,2.09,2.09,0,0,0-3.45-.91c-2.82,2.66-2.68,5.63-2.25,9.35a22,22,0,0,0,.85,4.58c.56,1.63,1.66,2.22,2.86,3.44a.2.2,0,0,0,.32-.09Z"/></g><g id="Layer_16" data-name="Layer 16"><path class="cls-8" d="M420.82,177.86c1-8.29.79-16.71.63-25-.07-3.94-.17-7.88-.21-11.82,0-3.56.16-7.23-1.86-10.35-3.58-5.54-12.88-7.46-19-6.73-2.4.28-4.18,1.23-5.18,3.49-2,4.51-1.73,11-2.38,15.86C386.48,190.84,382,239,384.9,287a401.21,401.21,0,0,0,12.36,78.86c.62,2.33,4.26,1.34,3.62-1-11.22-40.9-14.43-83.43-13.29-125.71.56-21.07,2.17-42.1,4.38-63.06q1.63-15.49,3.64-30.93.48-3.73,1-7.47c.29-2.14.24-6.2,1.15-8.28,1.94-4.39,10-2.22,13.61-1,6.38,2.18,7,7.13,7.08,13.13.08,4,.22,8,.33,12,.22,8.08.72,16.27.09,24.34-.1,1.29,1.82,1.23,2,0Z"/><path class="cls-8" d="M403.92,355.16c5.63-27.64,9.16-55.81,12.06-83.85q2.13-20.64,3.5-41.35c.46-7.11.94-14.24,1.11-21.36.18-7.58.94-15.65,0-23.17-.23-1.83-3.22-2.72-3.59-.49-1.18,7.1-.89,14.58-1.28,21.77-.37,6.83-.58,13.67-.92,20.5q-1.07,21.19-3,42.32c-2.63,28.54-7,56.86-10.1,85.33-.14,1.26,2,1.54,2.21.3Z"/><path class="cls-8" d="M411.43,148.32c2.47-1.82-.77-4.59-3.05-3.5-2.57,1.22-2.23,5.42-2.31,7.67-.23,6.06-.56,12.11-1.1,18.16a315.63,315.63,0,0,1-5.54,36.58c-2.32,11.07-3.79,21.34-.61,32.42a1.47,1.47,0,0,0,2.65.34c9.15-14.12,9.4-31.06,10.66-47.29.73-9.34,2.71-18.17,4.46-27.33,1.45-7.59,1.85-15-1.61-22.11-1.05-2.16-4.31-.27-3.24,1.89,4.13,8.29,1.86,17.35,0,25.94a152.74,152.74,0,0,0-2.95,21.61c-1.1,15.71-1.11,32.08-9.85,45.83l2.65.35c-4.76-16,.94-32,3.15-48q1.46-10.57,2.2-21.23.36-5.25.54-10.51c.07-1.91.11-3.82.15-5.74,0-.95,0-1.91,0-2.87q-.45-2.77,3.42-2.57c-.1.19.11.47.32.32Z"/><path class="cls-8" d="M405.17,122.81A59.42,59.42,0,0,0,408,112c.28-1.36.19-3.69,1.15-4.78,1.3-1.5,3.15.06,3.76,1.73,2.16,6-4.84,11.95-1.37,18A1.84,1.84,0,0,0,415,126a33.46,33.46,0,0,1,1.32-8.94,23.42,23.42,0,0,0,1.37-7.45,8.21,8.21,0,0,0-6-8,6.25,6.25,0,0,0-7.61,3.57c-.92,2.1-1,4.62-1.35,6.85a57.81,57.81,0,0,0-.92,10.32,1.75,1.75,0,0,0,3.41.46Z"/><path class="cls-8" d="M386.94,261a27.09,27.09,0,0,1,15.48-2.11c4.68.73,8.22,3.23,12.55,4.76,1.78.63,2.7-1.7,1.69-2.9-7.08-8.42-22.5-6.67-31-2-1.52.82-.19,2.95,1.32,2.27Z"/><path class="cls-8" d="M389.86,323.6c5.11-2.21,8.84.84,13.06,3.32,2.19,1.29,3.84-1.86,1.94-3.32-4.4-3.35-11.81-6.39-16.36-1.76-1,1,.24,2.25,1.36,1.76Z"/></g><g id="Layer_13" data-name="Layer 13"><path class="cls-8" d="M41.84,416c28.06-.75,56-2.72,84.15-2.93,35.48-.27,71,.41,106.43,1.55q30.57,1,61.13,2.45c1.95.1,1.95-2.93,0-3C224,411,154,408.87,84.34,411.81c-14.2.6-28.58,1.14-42.55,3.89-.19,0-.15.35.05.34Z"/><path class="cls-8" d="M299.82,412.1c-3.92-5.93-3.6-12.5-.07-18.48l-2.17-1.27c-3.08,6.69-3.81,13.57-1.19,20.56.45,1.21,2.4.71,2-.54a22.17,22.17,0,0,1,1.4-18.75c.7-1.19-1.07-2.67-2-1.52-4.95,6.25-4.46,15.18.33,21.32.76,1,2.39-.29,1.71-1.32Z"/><path class="cls-8" d="M13.61,398.86C9.37,311.53,2.46,224.4,6.7,136.9q1.6-33.32,5.21-66.49c1.21-11,2.18-22.18,4.19-33.07.9-4.89,2.34-9.81,6.25-13.17C26.1,21,31.12,19.87,35.85,19c44.36-8.38,90-8.55,135-7.75,24.87.44,49.74,1.28,74.61,1.47,11.65.09,23.23.42,34.86,1.34,9.51.75,19,1.71,28.56,1.76l-1.94-1.94c-.69,39.15.38,78.28.2,117.42-.1,20.65-.93,41.3-.5,61.95.45,21.64,3.5,43,6,64.42a537.63,537.63,0,0,1,3.52,63.05c0,10.55-.23,21.1-.61,31.64q-.29,7.92-.67,15.82c-.25,5.14.83,14.14-2.41,18.29-3,3.87-8,3.71-12.41,3.18-5.82-.7-11.63-1.46-17.46-2.13q-14.88-1.71-29.78-3.06-27.12-2.46-54.34-3.8c-28.85-1.45-57.71-1.89-86.58-2.35a484.35,484.35,0,0,0-50.11,1.32,204.44,204.44,0,0,0-30.56,4.54c-6.18,1.51-14.89,3.58-18.72,9.25-2.07,3.07-1.35,6.3-.81,9.78,1,6.17,2.61,12.86,7.43,17.22,5.44,4.92,13.76,5.83,20.78,5.76,10.14-.09,20.29-1.79,30.41-2.49,42.05-2.89,84.21-.43,126.23,1.93,20.88,1.18,41.77,2.56,62.67,3.49,9.54.43,19.13.52,28.61-.8a79.63,79.63,0,0,0,13.12-2.9c4.64-1.48,5.36-1.72,6.73-6.29a67.09,67.09,0,0,0,2.18-27.18c-.23-2-3.31-2.07-3.17,0a72,72,0,0,1-.33,14.08c-.47,3.76-.84,12.11-3.9,14.74-1.31,1.13-4.3,1.42-6,1.86q-3.46.91-7,1.5a110.91,110.91,0,0,1-15.65,1.34c-19.87.41-39.91-1.62-59.73-2.72-40.7-2.27-81.48-5.09-122.26-3.87-10.11.3-20.2.85-30.27,1.74-9.71.85-19.93,3-29.65,1.27-9.48-1.63-14.1-7.15-16-16.28-.82-4-2.4-8.25.81-11.35,5.51-5.31,15.55-6.7,22.71-8a270.21,270.21,0,0,1,31.22-3.58c16.35-1.08,32.56-.78,48.92-.56,28.72.41,57.44,1,86.12,2.55q27.26,1.5,54.43,4.08,14.63,1.41,29.22,3.15c7.12.86,15.87,3.59,22.57-.27,6.93-4,6-12.52,6.31-19.46.51-10.21.93-20.42,1.19-30.64.52-20.75.34-41.53-1.19-62.24s-5-41-6.85-61.6-1.47-41-1.12-61.54c.63-37.55.11-75.12.23-112.67q0-14.78.31-29.56a2,2,0,0,0-1.93-1.93c-18.92-.1-37.71-2.94-56.65-3.06-23.26-.14-46.5-.77-69.74-1.28-45.85-1-92-1.19-137.38,5.92-8.3,1.3-18.35,2-25.1,7.57C13.52,26.45,12.44,35.16,11.39,43Q6.8,77.08,4.53,111.47c-3,44.37-3.22,88.88-1.83,133.32,1.61,51.43,5,102.82,9.36,154.07.09,1,1.6,1,1.55,0Z"/><path class="cls-8" d="M21.67,395c-5.14,9.67,3.59,22.34,14.57,20.68,1-.16.64-1.57-.23-1.66-4.68-.49-8.88-1.66-11.8-5.68-2.81-3.85-3.08-8.63-2.09-13.15a.25.25,0,0,0-.45-.19Z"/><path class="cls-8" d="M39.39,410c16.17-2.7,32.16-5.44,48.57-6.42a444.59,444.59,0,0,1,47.6,0c32.37,1.52,64.61,5.22,97,6a366,366,0,0,0,54.19-2.3c1.47-.18,1.49-2.5,0-2.32-65.08,8.06-130-7.13-195.18-4-17.5.86-35.69,2.74-52.31,8.53a.21.21,0,0,0,.11.41Z"/><path class="cls-8" d="M37.2,398.87c10.46.32,21.14-1,31.61-1.42,9.89-.43,19.77-.9,29.66-1.24q31.16-1.11,62.34-1.16c41.31-.07,82.39,2.33,123.64,3.74,1.47,0,1.42-2.12,0-2.25-41.26-3.76-83.22-3.87-124.63-3.65q-30.67.17-61.35,1.34c-10.55.41-21.1.88-31.64,1.54-9.84.62-20,.69-29.74,2.34-.44.08-.31.75.11.76Z"/><path class="cls-8" d="M32.67,391.35c18.59-.45,37.16-1.11,55.74-1.78,9.25-.33,18.5-.7,27.74-1s18.48-.42,27.46,1.93a.88.88,0,0,0,.47-1.7c-17.08-5.13-36.15-2.14-53.68-1.41-19.25.8-38.49,1.59-57.73,2.62-.85.05-.87,1.36,0,1.34Z"/><path class="cls-9" d="M66.75,93.89C69,103.16,69.07,114.3,68,123.77c.22-1.94-2.88-2.72-3.7-1-2.09,4.34,2.94,8,6.11,4.11,2-2.5,2.22-6.4,2.3-9.46.12-5,.14-10.23-.11-15.27-.18-3.62.13-10.7-4.35-12C65.35,89.37,62,91.86,62.92,95a2,2,0,0,0,3.83-1.06Z"/><path class="cls-9" d="M83,91.81c-.71,2.89.23,5.79-.54,8.73a13.69,13.69,0,0,1-6,8c-1.07.62-4.39,1.09-5,1.89-1.18,1.58.37,3,1.27,4,2.16,2.48,3.57,5.36,5.37,8.07,1.91,2.86,4.7,6.18,8.53,5.92,3.29-.22,5.15-3,3.91-6a1.05,1.05,0,0,0-2.06.28l-4.55,1.93-1.61-1.4a20.92,20.92,0,0,1-2-2.73c-1.06-1.59-2-3.28-3.05-4.84-1.83-2.64-4.13-5.58-7-7.1s-8.07.8-4.53,3.94c3.91,3.48,12.35-.78,15.3-3.88,3.93-4.12,6.14-11.86,2.74-16.89a.4.4,0,0,0-.73.09Z"/><path class="cls-9" d="M108.46,96.75c1.4,1.53,1.54,1.44,1.81,3.39a30.21,30.21,0,0,1-.06,4.25c0,2.59-.12,5.18-.16,7.77-.09,5-.78,10.21,0,15.1.23,1.36,2.31,1.24,2.62,0,1.47-5.81.86-12.6.72-18.58-.08-3.13-.23-6.26-.34-9.39,0-1.61.13-3.43-.88-4.81-4-5.46-9.67,2.63-4.71,4a1,1,0,0,0,1-1.68Z"/><path class="cls-9" d="M120.57,106.41a8.85,8.85,0,0,0-1.46,2.7,21.65,21.65,0,0,1-1.24,3.28,5.22,5.22,0,0,1-1.18,1.68c-.43.39-5.1,2.19-4.61,1.12l-1.59.91c6.28-.35,5.85,6.27,9,9.67,2.37,2.51,6.15,3.31,8.61.64,1.29-1.4-.37-3.79-2.11-2.72-4.31,2.67-5.74-4.32-7.5-6.85-2-2.81-4.73-4-8-4.41a1.75,1.75,0,0,0-1.58.91c-1.19,2.24,0,4.33,2.29,5.24a7.68,7.68,0,0,0,8.09-2.09c1-1.19,4.43-9.69,1.39-10.12a.09.09,0,0,0-.11,0Z"/><path class="cls-9" d="M130.09,118.78c2.9,0,12.19-1.07,9.24-6.23a4.36,4.36,0,0,0-5-1.73c-2.25.66-3.52,2.69-4.31,4.75-1.76,4.56-1.12,10.38,3.78,12.63,3.48,1.6,9.47,1,10-3.62.21-1.94-2.41-2.17-3.32-.9-.79,1.11-2.85,1.27-4,1.09a4.21,4.21,0,0,1-3.56-4.1c-.12-1.53.13-4.51,1.33-5.55.51-1,1.18-1,2,.13l-1.16.78a13.52,13.52,0,0,1-5,1.49c-.78.1-.84,1.26,0,1.26Z"/><path class="cls-9" d="M141.49,97.5l1.39.09.32,2.79c.12,1.21.22,2.42.3,3.64.2,2.63.31,5.26.46,7.9q.42,7.33.52,14.66c0,2.08,3.4,2.72,3.77.51.8-4.72,1.64-13,8.16-13.18,2.88-.07,5.88,3.84,5.15,6.7-.64,2.53-3.85,5-6.43,4.22-1.74-.55-2.4-1.7-3.5-3.19a1.42,1.42,0,0,0-2.62.71c-.73,10.08,20.65,7.24,15.1-6.31-1.77-4.32-5.82-6.71-10.41-5.24-6.87,2.22-8.13,9.06-9.15,15.27l3.77.51c-.09-5.76-.22-11.54-.83-17.26-.41-3.91-.12-10.54-2.63-13.67-2-2.42-6.14-1-4.59,2.18a.66.66,0,0,0,1.22-.33Z"/><path class="cls-9" d="M175.17,115.1c-.46-1.63-2.53-1.89-4-1.5a6.09,6.09,0,0,0-4,4c-1.54,3.84-1.43,8.59,2.9,10.44,3.94,1.69,9.43.37,11.41-3.64s-.88-9.41-5-10.65c-1.83-.55-2.73,1.68-1.71,2.94,1.37,1.7,4.42,3,3.59,5.74-.76,2.49-4.27,3.18-6.47,2.5-2.67-.83-2.48-3.38-1.77-5.58.89-2.72,2.68-2.59,4.81-3.83a.33.33,0,0,0,.15-.37Z"/><path class="cls-9" d="M217,114c1.14-.1,1.45-1,.94-2-.89-1.79-3.5-2.18-5.23-1.94-5.43.76-9.66,7-9.25,12.23.35,4.5,4.85,8.15,9,5.15,3.73-2.68,4.65-8.28,5.95-12.37l-3.71-.5c-.41,3.65-1.55,11.13,2.27,13.61,3.41,2.21,6.78-1.77,6.78-5a1.73,1.73,0,0,0-3.39-.46,5.19,5.19,0,0,1-.83,1.86c-.58.63-.9.46-.95-.5a6.05,6.05,0,0,1-.4-2.47,37.66,37.66,0,0,1,.3-7c.24-2.2-3.1-2.45-3.71-.5-.68,2.12-2.8,12.31-6.33,10.36-2.56-1.42-.79-5.92.43-7.57a8.87,8.87,0,0,1,4.72-3.44c.19,0,3.21-.56,3.1.21,0,.17.07.39.28.37Z"/><path class="cls-9" d="M225.05,111.13c-.17,5.23-.29,10.54-.26,15.77h3.39a29.55,29.55,0,0,1,1.22-9.49c.52-1.61,2.28-5.78,4.55-3.34.91,1,.53,5.3.13,6.31l3-.78c-2-1.93,2.82-8.69,4.14-5.73.65,1.49.16,4.14.07,5.7-.15,2.62-.89,5.53,1.27,7.55,6.85,6.39,10.64-9,10.53-13.05h-4c.18,4.21-.71,12,4.4,13.72,5.4,1.85,8.81-3.24,7.69-8-.5-2.16-4-1.72-3.9.53.07,1.31,0,3.95-1.92,3.66-1.72-.27-1.67-2.16-1.9-3.5a54.2,54.2,0,0,1-.34-6.38c-.13-2.57-4.14-2.6-4,0,.09,2.34.08,7.11-1.86,8.89-3.59,3.29-2.33-1.73-2.22-3.39.18-2.75.79-7.07-1.34-9.32-5.1-5.39-14.67,6.9-9.06,11.86a1.8,1.8,0,0,0,3-.79c1.68-4.61-.09-14.22-6.93-11.39-5.88,2.43-6.08,11.69-5.78,17,.12,2.17,3.51,2.19,3.39,0-.31-5.25.33-11-1.59-16a.79.79,0,0,0-1.54.21Z"/><path class="cls-9" d="M248.29,106.44c1.69-.56,3.55-1.48,4.25-3.25a4.39,4.39,0,0,0-1.3-4.66,4.46,4.46,0,0,0-6,.09c-1.93,1.77-1.55,5.27,1.24,5.88a2.2,2.2,0,0,0,2.18-.58,5.28,5.28,0,0,0,.67-1.62s.14-.62.22-.63a.66.66,0,0,1-.16.36c-.17.13-.12.12.15,0-.12-.06.1,0,.14.05,1.11.57-1.62,2.55-2.05,2.82-.8.5-.3,1.9.66,1.58Z"/><path class="cls-9" d="M100.85,115.1c-.47-1.63-2.53-1.89-4-1.5a6.09,6.09,0,0,0-4,4c-1.54,3.84-1.43,8.59,2.9,10.44,3.94,1.69,9.43.37,11.41-3.64s-.88-9.41-5-10.65c-1.83-.55-2.73,1.68-1.71,2.94,1.37,1.7,4.42,3,3.59,5.74-.76,2.49-4.28,3.18-6.47,2.5-2.67-.83-2.48-3.38-1.77-5.58.89-2.72,2.68-2.59,4.81-3.83a.33.33,0,0,0,.15-.37Z"/><path class="cls-9" d="M182.82,96.75c1.4,1.53,1.54,1.44,1.8,3.39a30.2,30.2,0,0,1-.05,4.25c0,2.59-.12,5.18-.17,7.77-.08,5-.78,10.21,0,15.1.23,1.36,2.31,1.24,2.62,0,1.46-5.81.86-12.6.71-18.58-.07-3.13-.23-6.26-.33-9.39-.05-1.61.13-3.43-.88-4.81-4-5.46-9.67,2.63-4.72,4a1,1,0,0,0,1-1.68Z"/><path class="cls-9" d="M194.92,106.41a8.83,8.83,0,0,0-1.45,2.7,22.77,22.77,0,0,1-1.24,3.28,5.25,5.25,0,0,1-1.19,1.68c-.43.39-5.1,2.19-4.61,1.12l-1.58.91c6.27-.35,5.84,6.27,9,9.67,2.37,2.51,6.15,3.31,8.6.64,1.29-1.4-.36-3.79-2.1-2.72-4.31,2.67-5.74-4.32-7.51-6.85-2-2.81-4.72-4-8-4.41a1.76,1.76,0,0,0-1.59.91c-1.19,2.24,0,4.33,2.29,5.24a7.68,7.68,0,0,0,8.09-2.09c1.06-1.19,4.43-9.69,1.4-10.12a.11.11,0,0,0-.12,0Z"/></g><g id="Layer_19" data-name="Layer 19"><path class="cls-6" d="M65.23,212.87c-.36-1.94-.59-3.91-.88-5.87,0-.12-.2-.07-.18.06.35,1.93.75,3.87,1,5.82a0,0,0,0,0,0,0Z"/><path class="cls-6" d="M64.26,208.07c.36,2.78.76,5.54,1.2,8.31,0,.28.53.22.49-.07a97,97,0,0,1-.61-22.2c0-.32-.5-.39-.57-.08a43.31,43.31,0,0,0-.4,14.59c.09.83,1.18,5.74.83,6.07.94-.87-.57-5.06-.91-6.62,0,0,0,0,0,0Z"/><path class="cls-6" d="M64.71,211c2.87,12.72,4.53,25.53,6.63,38.37.07.43.77.33.75-.1-.57-12.9-3.63-26-7.35-38.28,0,0,0,0,0,0Z"/><path class="cls-6" d="M70.54,250.17a54.57,54.57,0,0,0-.31-15.47c-1-6.34-4.23-12.31-4.09-18.78l-1.28.17c2.81,12.12,7.81,24,6.38,36.64l1.44-.19c-1.72-5.26-.71-11.28-1.4-16.75A90,90,0,0,0,67.68,219a.65.65,0,0,0-1.26.35c1.1,6.5,3,12.76,3.61,19.37.41,4.76-.31,9.62,1.23,14.21a.74.74,0,0,0,1.45-.2c1.38-12.8-3.7-24.75-6.6-37a.65.65,0,0,0-1.27.17c-.09,5.21,2.13,9.74,3.4,14.7,1.66,6.45,1.39,12.93,1.92,19.5,0,.2.35.28.38,0Z"/><path class="cls-6" d="M72,243c-.84-13.57-6.92-26.72-6.65-40.26,0-.81-1.18-.79-1.25,0-1.17,13.14,4.84,24.68,7.27,37.29.13.67,1.12.38,1-.28-2-12.3-9.08-24.1-7.06-36.84l-1.23-.17c-.81,13.51,5.69,27,7.84,40.27,0,0,.06,0,.06,0Z"/><path class="cls-6" d="M64.68,206.65c.25-4,.06-7.71,1-11.64l-.92-.25a88.12,88.12,0,0,0-.93,15.82c0,.59.94.6.92,0A89.15,89.15,0,0,1,65.7,195c.09-.59-.77-.87-.92-.25-.93,3.81-1.49,8.12-.13,11.89,0,0,0,0,0,0Z"/><path class="cls-6" d="M65.1,205.81a87.22,87.22,0,0,1,.77-13.22c.1-.59-.79-.84-.89-.25-.72,4.44-1,9.07.09,13.47a0,0,0,0,0,0,0Z"/><path class="cls-6" d="M72.13,250.55a147.81,147.81,0,0,0-5.75-36.3l-.89.68c6.66,4,4.5-16.45,4.28-18.71a.26.26,0,0,0-.52,0c0,2.53-.16,5.07-.26,7.61,0,1-.27,11.62-2.89,10a.62.62,0,0,0-.89.69,224.37,224.37,0,0,1,6.86,36,0,0,0,0,0,.06,0Z"/><path class="cls-6" d="M69.59,201.42a124.15,124.15,0,0,0,.9,16.12c.07.61,1,.64,1,0-.34-3.75-.76-7.48-1.19-11.21-.08-.66-1.12-.68-1,0,.23,2.26.43,4.52.51,6.8.06,1.75.48,6.4.31.53a.48.48,0,0,0-1,0c0,2.07,1,1.78.92-.11,0-.4-.56-.7-.85-.35l-2,1.7a.62.62,0,0,0-.27.67,32.24,32.24,0,0,1,2.19,11.34h1.59A62.63,62.63,0,0,0,69,216.29c-.21-.87-1.3-.69-1.59,0a5,5,0,0,0-.14,4.1c.27.84,1.71.76,1.62-.22a5.48,5.48,0,0,0-.75-2.85l-1.17.9.89,1a.75.75,0,0,0,1.23-.32,4.87,4.87,0,0,0-.55-4.43.71.71,0,0,0-1.29.55,223.4,223.4,0,0,1,3.45,36.6.78.78,0,0,0,1.56,0,225.92,225.92,0,0,0-3.65-37l-1.29.54.36,3.33,1.22-.32-.88-1c-.48-.53-1.51,0-1.24.72l.46,2.28,1.62-.22.14-3.22H67.43a68.64,68.64,0,0,1,1.69,10.18c.09,1,1.63,1,1.59,0-.13-3.32-1.09-6.08-1.67-9.31-.19-1,0-4.61,0-1.14a.49.49,0,0,0,1,0c0-.23.14-2.74-.9-1.27-.24.34.6,2.82.63,2.93a.46.46,0,0,0,.91-.12q0-5.85-.41-11.67h-1c.19,1.86.36,3.73.57,5.6.12,1.12.43,5.75,1.23,2.82.5-1.84-.7-5-.92-7s-.38-4.19-.49-6.29c0,0,0,0,0,0Z"/><path class="cls-6" d="M71.62,245.75a165,165,0,0,0-1-30.94c-.09-.74-1.26-.76-1.18,0a63.73,63.73,0,0,1,.29,8.74H71l-.72-6.9a.67.67,0,0,0-1.33,0c0,1.64,0,3.28.08,4.92,0,.64,1.07.86,1.18.16a29.45,29.45,0,0,0,.39-4.78.55.55,0,0,0-1.07-.14L69,218.93l1,.29a3.34,3.34,0,0,0-1.08-3.42.57.57,0,0,0-.8,0,2,2,0,0,1-1.44-1.38c-.46-.61-1.69-.3-1.36.57.73,2,1.42,3.95,2.34,5.85.28.6,1.21.17,1-.45-.52-2-1.25-3.87-2-5.79l-1.24.72a24.91,24.91,0,0,0,1.88,2.23.64.64,0,0,0,1-.13l.56,1.65c-.08.61.92.73,1.06.15s.35-1.42.52-2.12L69.47,217a18.13,18.13,0,0,1-.46,4.46l1.18.16c.06-1.64.06-3.28,0-4.92H68.91l.79,6.9a.63.63,0,0,0,1.26,0,62.22,62.22,0,0,0-.37-8.74H69.41a285.73,285.73,0,0,1,2.12,30.94,0,0,0,1,0,.09,0Z"/><path class="cls-6" d="M70.67,215.46c6.4,3.37,4-16.42,3.52-18.82a.28.28,0,0,0-.54.07c.08,3.29.12,6.57.16,9.86,0,2.33-.77,6.84.26,9,.49,1,1,1.57,2.18,1.24,2.13-.6,2.57-5.28,2.79-6.8.78-5.46,0-11-.2-16.49a.42.42,0,0,0-.83,0c0,3.16.1,6.31.1,9.47,0,1.26,0,2.53,0,3.79v2.84q.33,2.79-3.13,4c-.29-.47-1.22-.34-1.14.31.15,1.3.73,2.45,2.3,2.4,2.51-.08,2.87-3.28,3-5.07a.47.47,0,0,0-.92-.13,154.73,154.73,0,0,0-5.66,34.37c0,.74,1.11.74,1.15,0a91.38,91.38,0,0,0-.32-14.61c-.49-4.6-3.73-12.3.69-15.52l-.91-.92c-1.06,1.78-.8,1.06-1.17,3.09a.69.69,0,0,0,1.14.67l1.06-1.07-1.1-.85a10,10,0,0,0-1.45,3.41l1.47.4.64-1.84a1,1,0,0,0-1.81-.76,6,6,0,0,0-.6,4.42c.19,1,1.51,1,2,.26a12.74,12.74,0,0,0,1.59-2.56l-2.14-.91q-.94,2.88-1.83,5.77l2.46.68c.43-1.9.83-3.8,1.23-5.71l-2.43-.67-.42,2.94c-.22,1.53,2,2.25,2.38.66.12-.51.54-4.54,1.73-4.47l-1.19-1.56c-3.28,12.09-4.66,24.13-2.93,36.61.18,1.31,2.32,1,2.29-.31-.31-11.94.27-24,3-35.65a1.25,1.25,0,0,0-1.19-1.56l-1.63,0a1.22,1.22,0,0,0-1.16.89q-.64,2.73-1.32,5.44l2.38.66.47-2.93c.25-1.56-2.06-2.28-2.43-.67-.43,1.9-.86,3.79-1.26,5.7a1.28,1.28,0,0,0,2.46.68q.84-2.91,1.63-5.82c.34-1.24-1.56-2.14-2.14-.91a12.46,12.46,0,0,1-1.46,2.65l2,.26.2-2.84-1.85-.5-.18,1.9c-.09.85,1.33,1,1.49.2a26.46,26.46,0,0,1,.6-2.78.7.7,0,0,0-.48-.85l-.34-.1a.71.71,0,0,0-.79.32l-.19.36a.72.72,0,0,0,.25.95c1.1.76,1.69,0,2.14-1,.3-.68-.51-1.48-1.1-.85l-1,1.09,1.14.67,1-2.78c.41-.69-.49-1.29-1-.81-2.87,2.42-2.72,5.64-2.15,9.12a102,102,0,0,1,1.44,22.06h1.15a158.36,158.36,0,0,1,1.85-18.05q.58-3.61,1.35-7.2c.31-1.49.66-3,1-4.45.14-.6.3-1.19.46-1.77.77-1.82-.33-1.85-3.28-.1l-1.15.31c1.33,2.34,3.84,1.53,4.77-.7s.21-5.42.18-7.67,0-4.42,0-6.63c0-.57.32-5-.77-4s.08,8.37.08,9.91.51,6.08-.61,7.2c-2.83,2.83-2.8-1.68-2.88-3.74l-.23-5.92c0-.47.07-6.77-.18-2.22-.1,1.83-.68,15.12-3,14-.68-.32-1.27.66-.59,1Z"/><path class="cls-6" d="M71,244.35l.79,12.34a.69.69,0,0,0,1.38,0c.11-2.52.16-5,.22-7.56H72.06c.19,11.1.83,22,1.55,33.11.37,5.65.61,11.31.48,17-.07,2.82-.21,5.64-.5,8.44-.18,1.77-.37,3.55-.68,5.3s.19,3-1.91,2.33c-1.92-.62-1.19-1.49-1-3.29.1-1.28.18-2.56.25-3.85.16-2.89.25-5.78.29-8.68.07-5.8-.07-11.61-.18-17.41-.22-12.11-.29-24.23,1.62-36.23l-2.26-.3c.1,12.22,1.31,24,2.48,36.1,1.1,11.32,2.74,26.31-3,36.58l2.16.28c-.69-4.36.87-8.34,1.48-12.59a38.09,38.09,0,0,0,0-9.66,1.07,1.07,0,0,0-2.14,0q-.58,9.06-1.19,18.13a1.11,1.11,0,0,0,2,.56c1.54-2.67,1.15-5,.66-8-.93-5.62-.41-10.64.12-16.25,1-10.62-2.67-21.31-.14-31.79l-1.89-.25c0,13.45,0,26.92.77,40.36A1,1,0,0,0,73,299a81.05,81.05,0,0,0-.2-16.11.92.92,0,0,0-1.84,0,54.92,54.92,0,0,0-.24,6.54h1.88c-.12-2.69,0-6.8-1.47-9.15a.9.9,0,0,0-1.2-.31l-.27.16a.86.86,0,0,0-.4,1l.07.25a.87.87,0,0,0,1.67,0c2.87-9.78,2.94-19.89,2.79-30a.83.83,0,0,0-1.66,0c.2,10,.28,19.92-2.8,29.54H71a5.81,5.81,0,0,0-.44,5.26c.09,1.09.15,2.18.16,3.27s1.92,1.21,1.88,0a57.09,57.09,0,0,1,.2-6.54H70.92A74.8,74.8,0,0,1,71,299H73c-.61-13.45-.74-26.9-.79-40.36a1,1,0,0,0-1.88-.26c-2.16,9,.41,17.84.43,26.93,0,4.48-.82,8.88-1,13.34-.21,4.26,2.17,11.49-.07,15.14l2.05.55q.57-9.06,1.13-18.13H70.64a39.66,39.66,0,0,1-.75,13.38c-.68,3.13-1.3,6-.94,9.18a1.19,1.19,0,0,0,2.2.6c6-9.57,4.35-23.14,3.65-33.86-.42-6.58-1.73-13-2.3-19.62-.6-6.79-.6-13.59-.52-20.39,0-1.26-2-1.62-2.25-.31-2.26,14.14-1.83,28.38-1.59,42.65.12,7.72.18,15.46-.44,23.17-.21,2.6-1.8,8.74,2.29,9.56,11.44,2.31,3.36-64.24,3.38-71.46a.66.66,0,0,0-1.31,0c-.11,2.52-.23,5-.29,7.56h1.38l-1.57-12.34c0-.38-.63-.4-.6,0Z"/><path class="cls-6" d="M72.36,228.2a6.56,6.56,0,0,0-.16,1.88,17,17,0,0,1-.33,2.57l.76-.43c-.25-.09-.11-2-.12-2.37l-.06-2.95H71a19.25,19.25,0,0,1,.06,3.31,10.9,10.9,0,0,0-.21,3c.11.55.81.52,1.08.14a5.49,5.49,0,0,0,.66-2.92,18.93,18.93,0,0,0-.14-3.53c-.11-.9-1.5-1-1.45,0,.08,1.63.06,3.29.23,4.91.08.74.29,1.4,1.07,1.6a.62.62,0,0,0,.78-.59c.13-1.4.4-3.42-.34-4.67a.21.21,0,0,0-.38,0Z"/><path class="cls-6" d="M70.25,224.1c-.93,5.86-1,11.94-1.12,17.87-.13,4.69-1,10.22.88,14.63a.79.79,0,0,0,1.46-.39c-1.17-10.64.32-21.48-1.13-32.11a0,0,0,0,0-.09,0Z"/><path class="cls-6" d="M72.64,298c-.62-3.81-.74-7.77-1-11.63-.05-.79-1.31-1.08-1.48-.2-.3,1.65-.49,3.32-.71,5h1.76a66.47,66.47,0,0,0-.12-7.6.87.87,0,0,0-1.73,0,5.06,5.06,0,0,0,.58,3.15.61.61,0,0,0,1.13-.31,15,15,0,0,1,0-2.84H69.37c.15,2.54.16,5.06.09,7.6,0,1.16,1.65,1.11,1.76,0,.16-1.59.35-3.18.43-4.78l-1.48.2c.77,3.82,1.25,7.73,2.31,11.48,0,.1.17,0,.16-.05Z"/><path class="cls-6" d="M73.54,248.91c-.22-9,1.54-17.72,3.47-26.47,1.67-7.57,3.67-15.61,3-23.42a.56.56,0,0,0-1.12,0c-.36,9.39-2,18.21-3.91,27.39-1.53,7.46-2.61,14.9-1.46,22.5,0,0,0,0,0,0Z"/><path class="cls-6" d="M78.42,196.23c1,9-.37,17.35-2.55,26.09C74,229.76,72.19,237.23,72.45,245a.66.66,0,0,0,1.31,0c0-16.12,9.61-32.72,5.07-48.77-.06-.22-.43-.19-.41,0Z"/><path class="cls-6" d="M255.13,193.69a24,24,0,0,0,2.47-7.05.54.54,0,0,0-.89-.52c-3.65,3.14-5.26,7.74-6.92,12.14a95.83,95.83,0,0,0-5,18c-2,12.23.85,23.17,3.54,35a61.27,61.27,0,0,1,1.58,20c-.65,6.5-1.68,13-2.29,19.48-.86,9.22-4.22,22.23,2.41,30a1.23,1.23,0,0,0,1.93-.25A27.24,27.24,0,0,0,255,308a1,1,0,0,0-1.94,0,18.43,18.43,0,0,1-3.22,11.23H252c-3.21-4.35-3-9.57-2.63-14.71q.62-8.76,1.51-17.5c1.13-10.93,3.12-21.26.94-32.19s-6.13-21.4-5.38-32.75a83.67,83.67,0,0,1,3.81-18.84c1.69-5.47,2.94-12.28,7.22-16.35l-.9-.52a23.18,23.18,0,0,1-2.22,6.88c-.25.51.51,1,.78.45Z"/><path class="cls-6" d="M251.38,317a40.25,40.25,0,0,1,.32-12l-2-.27c-.39,4.35-2.87,11.95,2.19,14.38a1,1,0,0,0,1.5-.61c4.12-10.4,2.17-23,2-33.91-.22-13,.11-26.17-.77-39.15a1.12,1.12,0,0,0-2.23,0c-.34,12.36.47,24.84.75,37.19.26,11.24,2.47,24.66-1.7,35.33l1.5-.61c-3.54-1.71-1.43-9.78-1.17-12.62.1-1.14-1.81-1.41-2-.27a23.5,23.5,0,0,0,1,12.68c.12.35.74.33.69-.09Z"/><path class="cls-6" d="M256.72,188c-1.3-1.34-1.91.14-2.37,1.25-1.35,3.23-1,8.14-1.35,11.63q-.58,5.82-1.16,11.63c-1.47,14.67-2.73,29.27,0,43.86.18,1,1.84.76,1.73-.24a136.47,136.47,0,0,0-2.81-16.81,1,1,0,0,0-1.95.26,74.79,74.79,0,0,0,1,9.08c.23,1.31,2.16.73,2-.55-1.29-9.3-2.47-18.62-1.7-28s3-18.42,5.3-27.39a1,1,0,0,0-1.86-.52c-2.5,6.22-3.89,12.72-5.19,19.27l2.12.29a25.35,25.35,0,0,1,1.61-7.95l-1.91-.52c-.77,4.26-1.66,8.5-2.52,12.75l2,.26.44-5.15a1,1,0,0,0-1.94-.27c-1.35,6-2.69,12-2.42,18.24.24,5.77,1.64,11.41,3.13,17,.36,1.34,2.21.74,2-.56-1.91-13.36-3.59-26.82,1.12-39.82l-1.82-.25c-.52,9.56-1.26,19.1-1.92,28.65H250c.53-10.21,1.16-20.38,3.53-30.36l-1.68-.23c-1.39,11.8-2.7,23.59-2.41,35.49a.9.9,0,0,0,1.79,0q.38-10.62,1.35-21.18h-1.85A146.45,146.45,0,0,0,253,250.38c.19,1.06,1.78.76,1.82-.25.32-9.69-.84-19.35-.42-29.06s1.12-19.59,1.67-29.39c.07-1.27-1.9-1.26-2,0-.58,9.79-1.31,19.59-1.62,29.39s1.06,19.37.5,29.06l1.81-.24a144.46,144.46,0,0,1-2.26-32.09c.05-1.21-1.74-1.17-1.85,0q-1,10.57-1.29,21.18h1.79c-.33-11.9.95-23.69,2.33-35.49.12-1-1.46-1.15-1.68-.23-2.4,10.13-3.05,20.46-3.58,30.82-.06,1.1,1.62,1.08,1.7,0,.66-9.55,1.26-19.11,2.07-28.65.09-1.12-1.46-1.13-1.81-.24-5.19,13.09-3.37,27.3-1.36,40.87l2-.56c-1.47-5.37-2.87-10.82-3.14-16.41-.29-6,1-11.89,2.31-17.71l-1.94-.26-.47,5.15a1,1,0,0,0,2,.27c.82-4.26,1.6-8.52,2.5-12.76a1,1,0,0,0-1.91-.52,22.91,22.91,0,0,0-1.86,8.47c0,1.19,1.91,1.5,2.12.28,1.16-6.61,2.42-13.08,5-19.32l-1.86-.52c-2.42,9.2-5,18.38-5.71,27.91s.63,19.11,2,28.57l2-.55a78.7,78.7,0,0,1-1-8.53l-2,.26a96.83,96.83,0,0,1,3,16.29l1.74-.23c-2-11.17-1.55-22.6-.59-33.86.44-5.12.94-10.23,1.42-15.34.26-2.91.55-5.82.8-8.73.11-1.29,1.35-8.26.53-9,.65.59,1.6-.34,1-1Z"/><path class="cls-6" d="M254.74,190.56c-1.74,9.43-1.42,19.57-2.2,29.14-.41,5.17-.76,10.34-.87,15.52-.08,3.63-.37,7.14,1.37,10.4a1.15,1.15,0,0,0,2.08-.27c1.32-4.73.83-9.59.71-14.44-.14-5.64,0-11.39-.59-17a1.1,1.1,0,0,0-2.2,0c-.21,5,.25,10.09.46,15.1s1.08,10.77-.58,15.72h2.2c-1.72-4.14-1.08-9-.9-13.4.2-4.85.53-9.7.84-14.55.53-8.43,2-17.92,0-26.23,0-.13-.26-.14-.28,0Z"/><path class="cls-6" d="M255.09,196.59c-3,8-1.24,18.14-1.65,26.62-.46,9.78-1.68,19.83-1.23,29.61a.88.88,0,0,0,1.76,0c1.22-9.39.94-19.23,1.2-28.7.25-9.15-.58-18.37.23-27.48,0-.19-.25-.2-.31,0Z"/><path class="cls-6" d="M251.85,235.16c.32,9.69.32,19.36.06,29h1.85l-1.45-16.64-1.88.25c2.9,11.32,2.08,23.06,1.81,34.62l-.39,16.11c-.14,6,.35,12.31-1.41,18.07l2.19.29c0-14.32.07-28.65.13-43a1.08,1.08,0,0,0-2.16,0,317.37,317.37,0,0,0-.78,39l1.9-.79c-2.93-3.37-.63-13-.36-17,.34-5.29.83-10.58.92-15.88,0-1.26-1.78-1.19-1.91,0-.81,7.12-1,14.33-1.52,21.48-.28,4.2-1.74,9.5,1.3,13a1.12,1.12,0,0,0,1.9-.78,319.34,319.34,0,0,1,.71-39H250.6c0,14.32-.06,28.65-.2,43a1.12,1.12,0,0,0,2.19.3c1.58-5.12,1.36-10.51,1.46-15.82.12-6.32.21-12.63.32-18.95.2-11.75.9-23.65-2.09-35.13-.27-1-2-.84-1.88.26l1.51,16.64a.93.93,0,0,0,1.85,0,191.84,191.84,0,0,0-1.55-29c0-.21-.36-.23-.36,0Z"/><path class="cls-6" d="M255.61,189.26c-2,8.33-2.32,17.18-2.81,25.7-.53,9.13-1.24,18.54-.59,27.67a.86.86,0,0,0,1.72,0c.58-8.86.32-17.8.8-26.68s1.77-17.74,1.67-26.59a.4.4,0,0,0-.79-.1Z"/><path class="cls-6" d="M255.06,188.1c-.77,10.25-1.37,20.47-2.26,30.73a162,162,0,0,0,0,30.67,1.09,1.09,0,0,0,2.17,0c1-10.46-.53-21.07.42-31.55.9-9.94,2.46-20,.77-30-.11-.68-1.08-.46-1.12.15Z"/><path class="cls-6" d="M251.73,315.42a1.35,1.35,0,0,0,.11,1.33c.14.33.57.17.68-.09,1.91-4.85,1.13-10.44,1-15.53l-1.22.17c.68,3.29,1.25,6.53.5,9.87-.51,2.28-1.36,4.52-2.06,6.74a.9.9,0,0,0,1.73.48,59.33,59.33,0,0,0,2-8.16c.37-3.12-.33-6.23-1-9.26a.62.62,0,0,0-1.22.16l.3,7.44c.09,2.23-.53,4.89-.36,6.92a.26.26,0,0,0-.5-.07Z"/><path class="cls-10" d="M254,297c1,3.81.39,7.4-.37,11.19-.51,2.54-.84,7.9-3.67,9.14-.88.39-.12,1.71.76,1.3,3.06-1.43,3.17-5.78,3.66-8.68a28.65,28.65,0,0,0-.34-13,0,0,0,0,0,0,0Z"/><path class="cls-10" d="M255.12,187c-3.14,14.35-3.17,30.25-2.77,44.89a.48.48,0,0,0,1,0c1.26-14.88,1.41-29.89,2.51-44.8a.35.35,0,0,0-.69-.09Z"/><path class="cls-10" d="M65.88,216.21c.13,5.3,1.92,10.29,3.2,15.38,1.68,6.67,1.25,13.2,1.5,20a.56.56,0,0,0,1.12,0C72.88,239.12,69,228.07,66,216.2c0-.07-.13-.06-.12,0Z"/><path class="cls-10" d="M69.63,296.13c-.53,4.9-1.72,10.15-1.55,15.09.09,2.65.94,4.73,3.61,5.44a.53.53,0,0,0,.28-1c-4.43-1.18-2.52-8.69-2.2-11.55a24.63,24.63,0,0,0,.07-8c0-.14-.2-.09-.21,0Z"/><path class="cls-11" d="M145.46,196.13l-3,.86,1.82,6.6c3.11-1,8-4.16,11.05-2.08,4,2.75,10,.75,12.32-3.23,2.71-4.62.65-9.36-3.23-12.31-9.92-7.56-22-.46-28.43,8l3.57-3.57c-1.39.87-2.71,1.78-4,2.77l11.9,15.43c2.41-2.2,3.72-4.82,5.23-7.64,2.54-4.75-.52-12.36-6.74-11.75C134,190.38,123,198.49,115,207c-8.5,9.05-15,20.42-17.25,32.71-2.47,13.34.13,25.36,4.76,37.89s10.74,22.69,21.7,30.51c19.82,14.13,50.91,15.33,71.87,2.87,21.94-13.05,27.33-41,24.27-64.67a56.2,56.2,0,0,0-21-37.58,199.3,199.3,0,0,0-18.57-12.81c-7.31-4.64-14.67-9.81-23.45-10.7l7.83,18.9c.74-.68,1.45-1.38,2.13-2.12l-4.23,2.46c14-3.1,26.17,9.91,34.66,19.26a49.84,49.84,0,0,1,9.45,14.51,26.19,26.19,0,0,0,.85,2.68c.45,1.5.78,3,1.14,4.53.48,2.08.16-.19.29,2,.11,1.82.19,3.64.12,5.48a50.39,50.39,0,0,1-3.75,15.94c-2.6,6.05-6.18,12-9.6,15.63-1,1-2,2-3.06,3-1.72,1.56,1.44-.92-.44.38-.57.39-1.14.77-1.74,1.13s-3.57,1.73-1.5.95a37.75,37.75,0,0,1-5.71,1.49c-6.86,1.41-14.21,3-20.55,1.26-.8-.22-1.58-.47-2.36-.73-2.52-.87,1.75.92-.64-.31q-2.94-1.52-5.76-3.23c-1.77-1.07-3.52-2.19-5.22-3.36-.66-.45-4.28-3.23-2.33-1.63a55.45,55.45,0,0,1-8.78-8.68c1.62,2.09-.9-1.62-1.31-2.34-.2-.35-1.67-3.15-.86-1.46s-.78-2.38-.78-2.36c-2.54-8.12-11.45-14.15-20-11.37-8.15,2.63-14.1,11.32-11.37,20,6.17,19.68,23,34.85,41.33,43.52,6.05,2.87,12.1,5,18.9,4.72,6.52-.24,12.64-2.18,18.86-3.9,10.22-2.82,19.16-5,27.52-11.93,14.36-11.91,22.46-32.19,24.44-50.33s-5.07-35.09-16.74-48.64c-14.42-16.75-37.52-29.9-60.13-24.63h5.09a32.61,32.61,0,0,0-5.73-.77c-4.32-.23-8.58,3-10.12,6.8-1.81,4.5-.58,8.41,2.29,12.1,3.51,4.52,9.44,7.13,14.26,10.07s9.28,5.82,13.81,8.9c6.9,4.7,15.1,9.4,19.1,17,4.12,7.85,4.07,18.07,3.58,26.7-.46,8.17-2.56,16.46-8.38,22.48-11.75,12.14-34.32,12.87-49.07,6.59C127,289.08,116.11,270.59,115,253.68c-.71-10.71,3-21,9.24-29.63A61,61,0,0,1,134,213.67c2-1.72,4.22-3.17,6.2-4.91s3.54-3.92,6.13-4.7h-4l1.42.48V189.48c-3.91,1.36-7,2.59-10.3,5.22-8.69,6.94,2.64,21.51,11.9,15.42,1.37-.9,2.75-1.73,4.17-2.54l-5,1.36c9.32-.7,17.56-2.49,23.06-10.66l-15.55-9.08c-2.39,4-7.81,5.43-11.15,8.67-3.18,3.08,1.59,7.79,4.84,4.84l2.31-2.1c2-1.83-.1-5.2-2.61-4.48Z"/><path class="cls-11" d="M170.41,205c-8.85-12.57-25.76,1-34.27,7.63a55.8,55.8,0,0,0-14.39,16.46c-3.6,6.4-4.9,14.12-9,20.17l19.2,2.51c-2.51-7,3.38-14.4,7.12-20s9-11.08,16.23-10.33c7.95.81,12.81,8.68,16.82,14.77,4.88,7.41,9.41,15.52,11.59,24.18,1.7,6.81.82,14.05-3.4,19.82-1.43,1.95-3.85,4.76-6.47,5,1.18-.11-1.35-.48-1.79-.64a15.58,15.58,0,0,1-3.43-1.78c-6.23-4.42-8.44-12.07-9.95-19.18-1.56-7.28-2.34-15.83,1.48-21.9.22-.34,2.85-2.89,2.8-3.15,0,.27-3.65-.69-3.52-.87s1.9,3.66,2,4a54.14,54.14,0,0,1,1.73,6.29,47.31,47.31,0,0,1,1.17,13.68,26.37,26.37,0,0,1-.8,5,24.56,24.56,0,0,1-1,3.2c-.42,1-1.46,1.9-.68,1.18l5.68-3.31,5.79,1.5L172.28,268c.22.64-.8-1.33-.75-1.24a15,15,0,0,1-2-5c-.25-1.08-.07-2.77-.36-4.42-.43-2.51.2,0,0-.27a.43.43,0,0,1-.21.19,11.91,11.91,0,0,1-6.53,1.94L157,256a3.27,3.27,0,0,1-1.31-3,29.43,29.43,0,0,1,.14,3.51,21.36,21.36,0,0,1-1,5.34L170,253.19c2.07.61-.63-1.47-1.35-2.29-1.23-1.43-2.85-2.66-3.81-4.14-2.53-3.85-3.62-8.76-4.49-13.21-1.08-5.54-7.37-9-12.61-8.23-5.9.88-9.51,5.43-10,11.28A31.6,31.6,0,0,0,139.52,250c1.62,4.48,4,7.59,6.64,11.45,4.64,6.74,8.81,13.31,17.24,15.64a12.57,12.57,0,0,0,15.22-8.64c2.45-8.78,3.51-21.91-3.42-29.1-8.44-8.77-21.45-4.72-27.48,4.52-9.77,15-1.83,45.17,16.84,49.48,13.24,3.06,20.58-9,23.22-20.05,2.19-9.19,1.81-18.5.11-27.72-1.61-8.73-4.56-18-10.6-24.67-7.52-8.33-19.15-9-28.25-2.79-17.37,11.86-18.32,34.15-14.07,52.84,3.81,16.77,14.72,34.14,32.78,37.85,21.39,4.4,36.44-15.26,38.75-34.57,2.19-18.28-8.18-35.63-19-49.54-6-7.72-12.73-15.75-22.09-19.36a31.42,31.42,0,0,0-27.33,2.51c-7.51,4.59-13,11.85-17.71,19.13-5.17,8-10.24,17.77-9.11,27.59.49,4.24,2.24,7.9,6.46,9.6,3.78,1.52,8.57,1,11.47-2.17,7.62-8.19,8.8-20.75,15.53-29.78A137.24,137.24,0,0,1,155,220.44c3.23-3.43,6.88-10,12.32-10,2.58,0,4.77-3.16,3.14-5.48Z"/><path class="cls-11" d="M166.39,212.6c-10.89,1.64-19,14.44-25.38,22.53-4.1,5.22-8.36,10.64-10.6,17a37.77,37.77,0,0,0-.86,20.57l13.63-10.48c-2.1-1.49-5.29-4.57-5.17-7.45s4.52-5.28,6.45-6.83c7.06-5.68,13.15-13.34,15.61-22.19,1.3-4.68,1-9.21.91-14-.09-4.28,2-8.14,1.59-12.51a12.51,12.51,0,0,0-10.18-11.48c-5.08-1-10.11,1.27-14.81,2.94l9.78,16.79c3.4-2.76,7.21-5.1,11.54-5.93,9.8-1.88,7.48-17.56-2.34-17.3-15.67.42-31.84,10.4-42.18,21.7-11.87,13-18.16,29.5-19.94,46.87s5.32,35.05,16.19,48.33c10.48,12.81,34.88,29.28,48,11,3.1-4.34,0-11.46-5.09-12.52-5.91-1.23-11.63-1.92-16.92-5.09a42.47,42.47,0,0,1-11.52-10.27c-7.52-9.64-11.4-21.59-9.62-33.76s6.38-23.67,15-32.61a57.51,57.51,0,0,1,12.43-9.81c5.12-3,10.51-4.46,16-6.51l-4.68-17c-6.47,2.28-12.89,4-19,7.13-11.47,5.92-.82,24.35,10.15,17.35,1.29-.82,2.56-1.67,3.85-2.5l1.28-.84c1.74-.86,1.73-1,0-.43l-3.8-2.22q-.36-3.36-.83-.43c-.29.9-.53,1.81-.74,2.73a31.81,31.81,0,0,0-.51,7.22c.13,3.52.5,6.79-.66,10.21-2.15,6.36-7.25,11.18-12.42,15.17-6.48,5-11.27,10.73-10.4,19.4s5.88,15.86,12.75,20.86,15.3-3.28,13.64-10.48c-2.17-9.39,3.41-20.16,7.3-28.44a138.12,138.12,0,0,1,6.53-12.62c2.47-4.09,5.28-7.7,7.11-12.07.54-1.29-.95-2.16-2-2Z"/><path class="cls-6" d="M157.88,194c-28.55-1.31-56.32,30.24-51,58.54.31,1.65,2.58,1.07,2.72-.37,1.43-14.5,4-27.7,14.14-38.9,9.13-10.05,21.35-14.86,34.32-17.77a.77.77,0,0,0-.2-1.5Z"/><path class="cls-6" d="M189.1,304.47c5.22-3.33,9.68-5.48,13.54-10.54a75.69,75.69,0,0,0,10.54-19.11,71.76,71.76,0,0,0,4.55-21.27c.38-6.44.64-14.75-3.66-20-1-1.25-2.71-.08-2.86,1.19-.74,6.45,1.9,13.14,1.81,19.72a62.62,62.62,0,0,1-3.51,19.35,90,90,0,0,1-8.26,17.33,29.86,29.86,0,0,1-5.63,7.24c-2.41,2.1-4.56,3.5-6.58,6a0,0,0,0,0,.06.07Z"/><path class="cls-8" d="M233.72,253.43a70.63,70.63,0,0,1-20,49.52,69,69,0,0,1-22.46,15.43,67.83,67.83,0,0,1-26.73,5.38A68.63,68.63,0,0,1,115.4,302.9a71.19,71.19,0,0,1-15.05-76.23,70,70,0,0,1,14.92-22.83A68.89,68.89,0,0,1,164.54,183a68.07,68.07,0,0,1,26.74,5.43,69.21,69.21,0,0,1,22.46,15.45,70.61,70.61,0,0,1,20,49.52Zm-.07,0a70.25,70.25,0,0,0-20.21-49.23,68.87,68.87,0,0,0-48.9-20.5,67.89,67.89,0,0,0-26.49,5.35,68.75,68.75,0,0,0-22.34,15.22,70.54,70.54,0,0,0-15,75.78A69.2,69.2,0,0,0,138,317.94a68.8,68.8,0,0,0,75.45-15.27,69.92,69.92,0,0,0,14.93-22.61A70.87,70.87,0,0,0,233.65,253.43Z"/><path class="cls-8" d="M221.8,253.65a58.1,58.1,0,0,1-16.5,40.77,56.59,56.59,0,0,1-40.5,17.17,56.73,56.73,0,0,1-40.62-17,58.12,58.12,0,0,1-12.38-18.79,58.29,58.29,0,0,1,0-44.19,58.19,58.19,0,0,1,12.37-18.8,57.33,57.33,0,0,1,18.6-12.63,56.64,56.64,0,0,1,62.53,12.75,58.1,58.1,0,0,1,16.5,40.77Zm0,0a58.66,58.66,0,0,0-4.32-22A58,58,0,0,0,205.18,213a57.09,57.09,0,0,0-18.49-12.56,56.28,56.28,0,0,0-62.15,12.68,57.68,57.68,0,0,0-12.19,18.66,58.78,58.78,0,0,0,0,43.74,57.68,57.68,0,0,0,12.19,18.66,56.62,56.62,0,0,0,18.4,12.6,56.22,56.22,0,0,0,43.75.08,56.78,56.78,0,0,0,18.49-12.56,58,58,0,0,0,12.3-18.68A58.63,58.63,0,0,0,221.8,253.65Z"/><path class="cls-8" d="M69.28,251.58c.3-7.81.46-15.55-1.52-23.17-1.66-6.36-3.22-12.66-3.66-19.26a49.35,49.35,0,0,1,.72-13.29c.26-1.26,1.33-3.53.92-4.5.57,1.35-.07,4.29-.09,5.77a98.33,98.33,0,0,0,.28,12.38c.18,1.68.08,3.56,1.47,4.64a.41.41,0,0,0,.49-.06c1.11-1,.86-2.62,1-4.08.29-3.24.44-6.49.63-9.74.15-2.66.85-5.75.56-8.4-.2-1.88-.33.48-.36,1.11a39.15,39.15,0,0,0,.29,4.59c.18,2.81.35,5.63.52,8.44.09,1.45-.4,5.64.38,6.92,1,1.69,1.87.82,2.38-.69,1.6-4.68.82-11,1-15.88,0-1.12.16-2.26.14-3.38,0-.6-.07-2.89-.4-1.38-.49,2.32.31,5.58.41,8,.13,3,.24,6,.38,8.95,0,1.13-.38,4,.49,4.88,1.51,1.52,1.9-.52,2.16-1.81,1.16-5.75.49-12.11.91-18,.06-.92-.27-3.81,0-1.66s.79,4.52,1,6.81a62.8,62.8,0,0,1,0,11.39c-1,11.46-4.94,22.31-5.15,33.89-.37,21.07,2.64,42.31.76,63.34-.23,2.54-.33,8.9-2.92,10.55-4.4,2.79-4.77-6.94-4.83-9.08-.51-15.94,1.85-31.95,2-47.89a.42.42,0,0,0-.83,0c-.37,10.39-.94,20.75-1.56,31.13-.41,6.8-1.18,13.93-.27,20.72.29,2.16.8,5.66,3.33,6.38,2.11.6,3.37-1,4.17-2.73,1.64-3.52,1.75-8,2-11.81.38-6.44.27-12.91.11-19.35-.35-14.06-1.43-28.14-1.11-42.2.2-8.49,2.38-16.5,3.92-24.79A70.87,70.87,0,0,0,78.69,190c-.09-.45-.69-.29-.74.1-.47,3.82-.55,7.68-.68,11.52-.08,2-.14,4.05-.25,6.08,0,.74.21,5.33-1.31,4.46-.88-.5-.45-9.42-.5-10.56-.16-3.72-.29-7.45-.6-11.16a.34.34,0,0,0-.68,0c-.32,3.48-.35,7-.47,10.46-.07,2-.15,3.92-.28,5.88-.06,1,.06,6.3-1.66,5.3-.84-.49-.54-9.43-.61-10.57-.23-3.69-.51-7.38-.69-11.07,0-.36-.62-.5-.68-.09-.43,3.07-.61,6.16-.79,9.26-.19,3.33.48,8.55-.77,11.64-1,2.59-1.18-.76-1.32-2.32-.18-1.88-.22-3.77-.25-5.66,0-4.39.13-8.78.16-13.17a.42.42,0,0,0-.81-.11c-3.81,9.76-3,20.51-.7,30.54.88,3.9,2.23,7.67,3,11.57,1.36,6.42,1.22,13,1.11,19.53a0,0,0,1,0,.06,0Z"/><path class="cls-8" d="M248.11,314.45c1.3-19.58,4.88-39.64,2.42-59.25-2.71-21.61-10.66-48.73,4.71-67.81l.68-.8c.72-1.09.91-1,.57.16.54.78-.23,4.86-.28,5.85-.16,3.14-.31,6.29-.45,9.43q-.47,10.53-.73,21.07c-.27,11-.34,22-.33,33,0,15.24.47,30.46.55,45.69,0,2.59,1.36,18.94-3.78,18.35-.63-.07-.62.92,0,1,6.22.72,5.1-13.46,5.12-16.63.13-20.59-1.09-41.17-1-61.76.09-19.31.54-38.68,1.87-57.95a.45.45,0,0,0-.76-.31c-16.25,15.71-12,43.26-8.34,63,4.16,22.49-.25,44.41-.3,67,0,0,0,0,0,0Z"/></g><g id="Layer_18" data-name="Layer 18"><path class="cls-12" d="M155.89,251.07l.32-.52a.66.66,0,0,0,0-.65c-2.19-3.73-7.44,4.2-2.08,6.56,6.83,3,9.58-10.85,1-10.37-8.08.45-3.53,14,3.84,8.39,2.66-2,4.22-6.86,1.51-9.53s-6.45-1-7.43,2.13a2.94,2.94,0,0,0,.76,2.86c3.21,3.06,8.78,1,7.86-3.89-1-5.1-7.86-5.09-10-1a4.42,4.42,0,0,0,6.63,5.61c3.9-2.85,2.87-9.55-1.9-10.69s-8.41,4.89-4.54,8.29c3.62,3.16,8.83-.45,8.05-4.91-1-5.55-9.71-6.38-14.05-5.56-6.59,1.24-10,6.68-10.07,13.13-.09,14.06,10.65,27.43,25.22,27.14,13.94-.28,25-12.18,26.69-25.63.88-7-2.81-12.66-8.7-16.29-6.94-4.28-13.11-2.7-20,.49-6,2.77-13.42,1.76-16.2,9.18-2.6,7,3,15.72,6.69,21.35,4.79,7.33,13,9.14,19.86,3.19,5.68-4.92,11.2-14.84,9.72-22.6-1.6-8.39-11.77-8.86-16.82-3.39-5.7,6.16-6.06,15.49,1.21,20.41,4.07,2.77,9.17-1.79,8-6.17-2.17-8.26-10.65-6.82-15.88-2.73l6.6-.85-3.78-2.87c-4.84-3.67-11.36,4.68-6.55,8.48l3.73,2.95c1.71,1.35,4.57,2.41,6.6.85,2-.92,1.56-1.9-1.26-2.92l9.14-5.32c-1.77-1.38-.35-1.68-.08-3.42l.63-.93c-1.79-1.47-2.71-1.47-2.76,0-.71.89-.78,3-1.3,4.09a17.33,17.33,0,0,1-2.79,4.28c-2.38,2.66-3.31,2.83-4.91-.24-1.34-2.58-2.19-5.43-3.56-8s-.47-1-.69-.89c.81-.52,2.29-.48,3.2-.7a32.52,32.52,0,0,0,7.53-2.91c2.07-1.07,4.22-2.7,6.67-2.48s5.72,2,6.29,4.49c1.13,4.93-2.94,11.64-6.36,14.83a16.25,16.25,0,0,1-15.6,3.86c-5.88-1.79-9.08-7.17-10.48-12.85-.53-2.14-1.2-5.17-.12-7.26.85-1.65,1.95-2.09,3.7-2.49,1.23-.28,5.15-.86,6-.59l2.29,2.28-.29-1.94,1.35,3.31L155,250.83a.48.48,0,0,0,.88.24Z"/><path class="cls-5" d="M143.87,242.3c-3.29-3.45-6.29,5.24-6.42,7.27-.36,5.48,2.6,13.41,8.41,14.94,3.63.95,6.42-3.65,3.69-6.35a22.37,22.37,0,0,1-4.89-6.47c-1-1.95-1.71-3.36-1.41-5.64.09-.66.19-2.69.62-3.25a.36.36,0,0,0,0-.5Z"/><path class="cls-8" d="M166.17,239.17c-9.55,1.63-25.56-7.11-30.15,6.26-3.25,9.47,2,20.72,10,26.06,9.2,6.15,21.82,5.32,30.44-1.45,7.06-5.55,13.43-16.73,9.41-25.74-5.64-12.67-21.95-11.69-32.5-6.78-.59.28-.17,1.29.45,1.06,6.49-2.39,13.45-4.66,20.39-2.7s12.33,7.64,12,15c-.54,13-12.78,23.73-25.35,24.15-13.1.44-24.58-9.62-25.19-22.82-.42-9.15,5.72-14.59,14.67-13.88,5.4.44,10.42,2,15.84.86,0,0,0,0,0,0Z"/><path class="cls-13" d="M155.07,235.8c-1.52-1.3-1.93-1.51-4-1.35-2.73.22-2.66,4.57,0,4.24a10.38,10.38,0,0,1,3.29-.16l-1-2.31c-2.65,2.81-5.93,5.09-8.18,8.25l1.59.92c1.48-3,5.33-6.84,8.25-2.39.95,1.43,1.58,3.38,2.38,4.91a1.14,1.14,0,0,0,2.07-.27,10.18,10.18,0,0,0-4.36-10.34l.37,2.89c3.58-3.28,8.23-2.7,11.25.95l2.16-2.8A16.32,16.32,0,0,0,155,236l2.26,2.95a8.31,8.31,0,0,1,7.74-3.51c2.39.16,2.32-3.44,0-3.68a11.91,11.91,0,0,0-11.2,5.16c-1,1.44.68,3.45,2.26,2.95a12.56,12.56,0,0,1,11.14,1.53c1.81,1.17,3.37-1.33,2.16-2.8-4.36-5.3-11.36-5.56-16.37-1a1.86,1.86,0,0,0,.81,3.08,5.55,5.55,0,0,1,3.6,6.38l2.07-.27c-1.23-2.49-2.9-7.2-6.12-7.85s-5.92,3.43-7.91,5.36a.92.92,0,0,0,1.11,1.44c3.31-2,5.83-5.14,8.83-7.59.85-.69.27-2-.59-2.26l-2.58-1.13-1.07,3.95a23.66,23.66,0,0,0,3.28-.31,1.55,1.55,0,0,0,.69-2.58Z"/><path class="cls-8" d="M156.5,235.59a12.14,12.14,0,0,0-10.69,1.22.44.44,0,0,0,.34.81q3.07-1.44,5,.47c1.12.51,1,1-.47,1.39a18.44,18.44,0,0,1-1.73,1.46,20.56,20.56,0,0,0-3.93,5.24c-.17.3.19.76.51.52,1.8-1.36,4.64-4.48,6.73-5.08q1.48-1.69,3,1.1a3,3,0,0,1,2.54,2.48,15.85,15.85,0,0,1,.95,4.18c.05.27.42.27.55.07a8.08,8.08,0,0,0,1.43-6.14c-.13-.67-1.44-2.71-1.41-3.23.33-6.06,8.4-.74,10.19.74a.39.39,0,0,0,.64-.17c.58-2.48-.7-4.4-3.12-5.19-2.15-.69-4.33,0-6.5.08-1.26.07-2.69,1-.16-.47a22.62,22.62,0,0,1,5.92-2.06.42.42,0,0,0,.1-.76c-5.1-2.63-10.29-.48-12,5-.18.58.73.83.92.25a8.09,8.09,0,0,1,6.78-5.61l2.45.69a16.35,16.35,0,0,0-2.27.76,26,26,0,0,0-5,2.67c-.32.2-.24.85.21.79,1.91-.24,4.13-.86,6-.75,2.54.14,2.94,2.62,5.3,3.21-2.64-.66-4.36-2.49-7.37-2.61-3.65-.16-3.93.91-2.61,3.75.2.43,3.05,7.48.26,7.13,0,0-1.36-4.61-1.52-5-.34-.74-.93-2.58-1.89-2.89-2.62-.84-5.79,2.8-7.51,4.13-1.29,1-3.55,3.25-.14-.76a19.66,19.66,0,0,1,5.54-4.38.42.42,0,0,0,0-.72,16.75,16.75,0,0,0-5.29-1.5c-.46-.09-1.12-.15-.72.31l2.83-1a10.86,10.86,0,0,1,6,.32.25.25,0,0,0,.14-.49Z"/></g></g></svg>