<svg xmlns="http://www.w3.org/2000/svg" viewBox="0 0 499.38 309.37"><defs><style>.cls-1{fill:#00e78f;}.cls-2{fill:#ccc;}.cls-3{fill:#e6e6e6;}.cls-4{opacity:0.3;}.cls-5{fill:#09466e;}.cls-6{fill:#f2f2f2;}.cls-7{opacity:0.25;}.cls-8{fill:#595959;}.cls-9{opacity:0.62;}.cls-10{fill:#fff;}.cls-11{opacity:0.06;}.cls-12{fill:gray;}.cls-13{fill:#ff7300;}.cls-14{fill:#ff8224;}.cls-15{fill:#083d5b;}.cls-16{fill:#cecece;}.cls-17{fill:#b3b3b3;}.cls-18{fill:#0d6393;}.cls-19{fill:#dd5e00;}</style></defs><title>sign-up-cookbookAsset 135</title><g id="Layer_2" data-name="Layer 2"><g id="cookbook_first-page" data-name="cookbook first-page"><path class="cls-1" d="M9.88,19.83c36.32-1.67,72.68-3.34,109-2.31,45.39,1.29,89.34,10.87,136.07-.71,26.91-6.67,54.94-7.24,82.66-6.58,24.87.59,46.61,1.16,74.33,2.6-12.9,48.94-3.25,100.32.6,150.78,2.79,36.6,4.83,73.38,1.87,110-.15,1.95-.42,4.12-1.92,5.36-1.84,1.53-4.56.95-6.86.35-44.91-11.72-92.22-1.36-137.73,7.73-21.64,4.32-43.85,8.36-65.65,5-12.3-1.93-24.14-6.19-36.45-8-12.57-1.83-25.36-1-38-.26-28.24,1.75-54.49-.5-82.73,1.25-1.76.11-5.67,1.17-7.1.14-1.59-1.14-2.06-.27-2.41-2.19A1214.77,1214.77,0,0,1,17,28"/><path class="cls-1" d="M9.88,27.57c27.74-1,55.49-1.95,83.26-1.71,26.63.22,52.93,2.61,79.45,4.81C198.39,32.8,224.42,33,249.93,28c12.88-2.55,25.41-5.55,38.54-6.7a392.68,392.68,0,0,1,39.71-1.17c27.94.4,55.89,1.49,83.79,3L402,10.1a273.53,273.53,0,0,0-9.09,62.41c-.57,21,1.61,41.77,3.68,62.64,2.1,21.23,3.82,42.49,4.91,63.8.53,10.47.89,21,1,31.44.09,10.82-.63,21.61-.64,32.41,0,2.61.2,5.23.29,7.84.13,4-1.09,3.78,4.13.07s5.17-2.57,1.73-3.52c-5.1-1.42-10.23-2.65-15.44-3.58a210.38,210.38,0,0,0-32.16-3.23c-21.18-.49-42.18,2.09-63,5.58-20,3.36-41.11,8.44-60.29,10.34-5.15.51-10.33.83-15.5.84-2.59,0-5.17-.05-7.75-.2-1.29-.08-2.57-.19-3.86-.29l-1.93-.2c.8.13.64.11-.48-.07-10.18-1.52-19.83-5.36-29.75-8-24.11-6.33-48.81-2.73-73.3-1.28-11.43.67-22.85,1.16-34.29,1.21-5.79,0-11.57.12-17.35.36-2.9.12-5.82.19-8.7.51-1.76.19-3.51.58-5.27.72,2.4-.2,1.73-.11-.21-.34l8,2.16c-2.08-.88-4.07-1.93-6.21-2.72l7,4.08-.44-.4,4.08,7c-2.32-7.66-3-16.21-4.29-24.11s-2.52-16.08-3.67-24.14c-2.13-15.09-3.88-31.28-5.35-47.26q-4.57-49.63-5-99.52C32.58,65.79,32.7,46.88,33,28c.12-8.34-7.42-16.32-15.94-15.93A16.29,16.29,0,0,0,1.09,28C-2,90.39,1.78,153.34,9.61,215.28c2.05,16.26,4.24,32.51,6.79,48.71,1.12,7.07,2.14,14.19,3.54,21.21,1.06,5.3,3.54,10,8.36,12.79l3.78,1.59q-3.54-1.38-1.37-.46a17.5,17.5,0,0,0,9,2.28,46.81,46.81,0,0,0,6.51-.72c4.3-.59-5.47.08.84,0,3.88,0,7.79-.35,11.68-.43,7.64-.17,15.34-.32,23,.08,15.39.81,30.71,2.26,46.12,1.45,7.62-.4,15.24-.85,22.87-.71,3.17.07,6.34.22,9.5.38,1.89.09,3.78.24,5.67.38q3.27.38.83.06c1.23.19,2.46.39,3.69.61,15.76,2.74,31.27,6.8,47.37,6.83,30.88.05,61.29-9.4,91.42-15.05,28-5.26,57.31-9.72,85.89-4.68,7.67,1.36,15.69,4.38,23,.08,7.78-4.59,8.65-14.33,9.88-22.42,2.41-15.86,1.55-32.71,1.12-48.7-.91-34.28-4.37-68.34-7.54-102.47-3-32.85-7.82-68.09.42-100.56,1.71-6.73-3.19-12.71-9.93-13C387.2,1.32,362.43.64,337.64.15,311-.38,284,.28,257.88,6c-12.67,2.78-25,5.43-38,6.25a325,325,0,0,1-38.1-.15c-26.28-1.41-52.43-3.73-78.77-3.66C72,8.56,40.91,10.33,9.88,12.1c-9.87.56-10,15.82,0,15.47Z"/><path class="cls-2" d="M221.17,288.12c3.13,1.22,6.26.51,9.56.25q5.33-.42,10.65-.79c3.56-.24,7.11-.48,10.67-.69a88.18,88.18,0,0,1,10.67.22c14.11.76,28.74-2,42.77-3.17,28.72-2.44,57.32-5.38,86.12-6.88,5.87-.3,10.89-4.78,10.89-10.89,0-5.68-5-11.17-10.89-10.89-29.68,1.44-59.56,3.2-89,7.26-13.91,1.91-28.82,3.07-42.17,7.68-3.74,1.29-7.24,2.6-11.13,3.57q-4.74,1.17-9.46,2.39c-6.23,1.6-15.19,2.31-20.07,6.64-2,1.73-.65,4.5,1.4,5.3Z"/><path class="cls-3" d="M385,22.83c9.53,3.59,10.18,12,9.72,20.81-.5,9.84-.84,19.69-1.22,29.53q-1.12,29.81-1.83,59.62c-.46,19.87-.69,39.75-1.2,59.62-.37,14.34-.8,28.44.52,42.73.48,5.22,1,10.47,1.14,15.71,0,1,0,2,0,3,0,1.79-.66,2.07.09.15-.87,2.22.44-.52.41-.47-.7,1.17,2.82-3,4.24-3.53a4.62,4.62,0,0,1,3.45-.43q3.82.31,1.91-.14c1.9.32,1.64.87-.05-.37-1.35-1,1.57,1.26,1.44,1.13s1.82,2.67,1.1,1.4c-.47-.84,0,.45.18.54l.36.89q-1.86-4.29-.71-1.79c.27,2,0-.63-.09-1.26-.28-1.26-.33-2.38-.12-.41-.12-1.14-.24-2.27-.34-3.41-.21-2.5-.34-5-.44-7.51-1.12-27,1.6-53.93-.25-81a238.86,238.86,0,0,1-.56-32c.69-10.58,3.12-20.92,4.6-31.39,3.18-22.46.43-45-1.21-67.49-.48-6.51-5.22-12.09-12.09-12.09-6.13,0-12.64,5.55-12.1,12.09,1.74,21.12,5.14,43,2.28,64.1-1.49,11-3.87,21.75-4.22,32.85a222.06,222.06,0,0,0,1.8,32,398.57,398.57,0,0,1,2.41,47.37c-.07,13.75-1.15,27.45-1.21,41.19,0,10.19.68,20.67,10.71,26a13.93,13.93,0,0,0,20.07-8.08c1.58-4.67,1.42-9.85,1-14.71-.61-6.58-1.88-13.11-2.95-19.64-.23-1.39-.46-2.79-.67-4.19-.1-.66-.2-1.33-.29-2,.26,2,.05.35,0-.05-.42-4.43-.59-8.88-.83-13.32q-1.71-32.79-2.33-65.59Q407,106,406.89,69.2c0-18.29,4.58-48.41-20.15-52.61A3.24,3.24,0,0,0,385,22.83Z"/><g class="cls-4"><path class="cls-5" d="M198.41,32.79c-15-5.57-31.43-5.35-47.42-4.86-39.14,1.21-80.25-1.35-119.23,2.32,1,31.68,4.07,68.35,5.1,100,.47,14.4.94,28.81.33,43.2-1.4,32.74,3.06,61.91,3.58,102,52.48-3.11,126.48-6.11,157.58,4.7,3.14-1.54-1.92-44.39-1.06-60.46a1133,1133,0,0,0-4.9-182.14"/><path class="cls-5" d="M201.11,28.18c-5.9-2.89-12.29-5.6-18.81-6.56A165.34,165.34,0,0,0,161.69,20c-14.09-.31-28.2,0-42.29-.17-29.22-.34-58.49-1.32-87.64,1.29-4.82.44-9.35,3.86-9.18,9.18,1,32.23,3.49,64.37,4.12,96.62.6,31.39-1.53,62.67-.16,94,.38,8.63.8,17.25,1.11,25.88.35,9.58-.44,19.13-.14,28.7.22,6.75,5.91,13.82,13.26,13.26,27.61-2.11,55.26-3.91,82.95-4.32,13.12-.2,26.26-.06,39.35.82q3.9.25,7.78.63c1.45.13,2.89.28,4.33.45.51.06,3.81.47,2.38.28l4.06.55c-.24,0-1.39-.19-.12,0,1.08.16,2.16.33,3.23.51,2.32.4,4.62.87,6.91,1.43,3.13.77,6.2,2,9.47,1.09a11.37,11.37,0,0,0,7.6-7.72,30.05,30.05,0,0,0,.79-9.51c-.3-9.91-1.1-19.83-1.65-29.74-1.57-28.28,1.15-56.6,1.21-84.92.08-40.32-2.52-80.52-5.42-120.71-.49-6.73-5.69-12-12.75-11-7.28,1-10.3,7.34-9.35,14,5.43,38.26,7,77.11,7.23,115.74.16,31.07-2.32,62-.35,93,.4,6.22,1,12.48.94,18.71,0,2.27-.08,4.53-.17,6.8-.08,2-.52,2.11,0,.51-.07.21-.06.45-.13.65-.21.7-.1.5.31-.57a7.58,7.58,0,0,1,3.73-4.21l8-1c-22.66-8.58-48.86-8.71-72.77-9.33-29.19-.75-58.4.14-87.57,1.35L54,275.5c0-8.46-1.32-16.76-1.9-25.18-.52-7.64-1.12-15.28-1.74-22.91-1.13-14.24-2.26-28.49-2.43-42.78-.19-16.84,0-33.58-.8-50.42-.8-16.17-2-32.31-3.19-48.45q-2.1-27.7-3-55.51l-9.18,9.18C59.93,36.8,88.24,37,116.5,36.81c13.9-.08,27.73-.58,41.62-1.21C170.94,35,184.44,35,197,37.94c5.64,1.32,9.79-7,4.12-9.76Z"/></g><path class="cls-6" d="M207.19,32.32C265.75,9.89,325.75,3.89,381.12,19.81c-3.37,71.08,5.75,229.77,4,229.79-93.38,1.29-144.38,19.29-169.65,32.3-2.35,1.21-3.93-58.11-2.73-106,.42-16.81,3.84-84.26,2.32-101-1-10.57-.88-26.06-3.74-36.28"/><path class="cls-6" d="M208.1,35.64C236,25.9,265,18.42,294.44,16.08a253.87,253.87,0,0,1,41.27,0q10.92.9,21.71,2.86c7,1.28,14.56,2.45,21.09,5.33l-2.37-5.83c-3,16.06-2,33.48-2.15,49.79-.18,19.52.21,39,.65,58.56.76,33.54,2,67.06,3,100.59.15,5.21.3,10.43.36,15.64,0,1.51,0,3,0,4.52a7.35,7.35,0,0,0,0,1.24c0,.11-.08.32,0,.42-.83-1.79,2.45-5.46,3.5-5.91l3.69-1c-50.72,1.64-103.51,5.32-151.35,23.67-4.09,1.57-8.14,3.26-12.14,5q-2.53,1.13-5,2.31c-.78.37-1.55.75-2.32,1.14s-3.21,1.1-.82.54h3.82c1.24.41,4.63,3.21,4.56,4.22a3.76,3.76,0,0,1-.15-.6s-.48-3.19-.17-.82c-.35-2.74-.54-5.5-.72-8.26-.53-8.09-.8-16.2-1-24.31q-.9-33.06,0-66.12c.8-29.12,2.86-58.19,3.21-87.32.08-6.09,0-12.17-.39-18.24-.9-12.33-.64-25-3.74-37-2.51-9.77-17.74-5.61-15.13,4.17C207,52.9,207.12,66.42,207.68,79c.42,9.55.18,19.14,0,28.68-.43,21.59-1.39,43.15-2,64.72-.8,28.58-.68,57.32.35,85.89.28,7.87-.13,16.77,1.92,24.45,1.4,5.24,6.21,7.45,11.16,5.35,3-1.26,5.86-2.88,8.84-4.21s5.6-2.39,9.31-3.8q6.25-2.37,12.64-4.4c10.17-3.25,20.52-5.86,30.93-8.2,29.24-6.57,60-10.81,90-10.52,4.66,0,9.71.45,14.34-.05,3-.34,5.5-1.68,6.75-4.58a13.46,13.46,0,0,0,.81-4.8c.2-4.59-.13-9.24-.29-13.83-.65-18.57-1.51-37.14-2.26-55.71-1.94-47.88-4-95.91-3.62-143.83a143.15,143.15,0,0,0-.23-14.36c-.19-2-1.46-4.66-3.8-5-7.34-1-14.49-3.15-21.79-4.47q-10.65-1.9-21.44-2.89a252.52,252.52,0,0,0-43.91-.11A298.29,298.29,0,0,0,206.27,29c-4,1.64-2.44,8.13,1.83,6.64Z"/><g class="cls-7"><path class="cls-2" d="M198.07,38.6c.92,8.2,1.85,15.75-.09,23.82s-1.28,16.34-1.29,24.67c0,16,.11,32-.7,48-1.6,31.55-5.13,63.23-3.1,94.84a144.54,144.54,0,0,0,3.94,27.16c2.44,9.27,4.76,19.2,11.65,26.18,4.51,4.56,13.7,2.78,15.05-4,1.57-7.88-.13-15.09-.82-23s-1.41-15.75-1.9-23.64a451.18,451.18,0,0,1-.37-46.23c.65-15.89,1.81-31.75,2.59-47.63.76-15.52,1.77-31.49.17-47-1-9.64-1.37-20.05-5.25-29-1.76-4.06-4-7.57-5.19-11.88-1.23-4.61-2.27-9.27-3.46-13.88-1.57-6.06-12-5-11.23,1.52Z"/></g><path class="cls-8" d="M7.76,13.86c-1.82,18.8-1,38-.75,56.83s.53,37.89,1,56.83c.81,37.29,1.84,74.61,3.61,111.87.93,19.38,2.73,38.81,9.1,57.27.78,2.28,4.42,1.29,3.63-1C18.5,279,16.45,261.51,15.44,244c-1-18.2-1.63-36.43-2.28-54.65q-2-55.8-2.83-111.64C10,56.47,10.78,35,8.65,13.86a.45.45,0,0,0-.89,0Z"/><path class="cls-8" d="M22.14,297.05c12.09,4.24,25.53,5,38.25,5.22,13.56.24,27.11-.59,40.63-1.47,27.88-1.81,55.11-3,82.8,1.58,13,2.16,26.19,4.56,39.46,3.77,13.08-.78,25.7-4.62,38.46-7.3,27.49-5.77,55.69-7.22,83.63-9.38,11.59-.9,23.2-1.75,34.83-1.74,13.09,0,26,1.45,39.05,2.39,1.92.14,2.4-3.12.46-3.41-21.07-3.08-42.43-3.29-63.64-1.87-26.18,1.75-52.58,3.29-78.55,7.19-13.58,2-26.75,5.67-40.19,8.35-14.57,2.91-28.67,2.21-43.28,0-13.08-2-26-4.27-39.27-4.81a387.68,387.68,0,0,0-40.76,1c-15.41,1-30.83,2.29-46.28,2.46s-30.21-1.73-45.39-3.47c-.94-.11-1,1.28-.21,1.55Z"/><path class="cls-8" d="M6.64,14.78c3.71.79,7.75,0,11.51-.19s7.6-.44,11.4-.63c8.27-.43,16.53-.91,24.8-1.26,16.91-.72,33.84-1,50.76-.86,16.54.18,33.07.87,49.55,2.21q12.26,1,24.48,2.5c8.18,1,16.88,3.43,25.11,3.37a1.54,1.54,0,0,0,.41-3c-7.25-2.6-16-2.86-23.65-3.8q-12.67-1.56-25.41-2.54c-16.48-1.29-33-1.92-49.53-2s-33.21.26-49.8,1c-8.28.38-16.56.8-24.82,1.43q-6.64.51-13.3,1.09c-3.81.33-7.93.18-11.51,1.57-.5.19-.63,1,0,1.15Z"/><path class="cls-8" d="M207.55,17.15c3.84.26,7.76-1.36,11.5-2.25,4.33-1,8.65-2,13-2.92,9.05-1.81,18.19-3.1,27.36-4.14a472.92,472.92,0,0,1,51.05-2.66c16.74-.08,33.48.32,50.22.58,18.48.3,37.11,1.33,55.58.79a1.88,1.88,0,0,0,0-3.75c-19.1-1.15-38.43-.68-57.56-1-17-.26-34-.66-50.93-.51a441.9,441.9,0,0,0-52.06,3.12c-8.24,1-16.44,2.52-24.55,4.31-4.34,1-8.67,2-12.94,3.24-3.74,1.1-7.94,1.9-11,4.36-.35.28,0,.78.33.8Z"/><path class="cls-8" d="M418.1,10.65c-11.61,71,2.12,142.21,2.38,213.5a564.64,564.64,0,0,1-3.58,61.24c-.27,2.6,4.15,3.22,4.61.62,6.09-35,4.67-71.26,2.54-106.53-2.15-35.76-5.59-71.45-6.2-107.29a503.23,503.23,0,0,1,2.28-61.27c.12-1.15-1.84-1.42-2-.27Z"/><path class="cls-8" d="M23.54,23.08c30.76-1.33,61.5.25,92.26.52,15.18.14,30.3-.24,45.46-.87,14.7-.62,29.54-.43,43.32,5.34,1.25.52,1.81-1.53.56-2-13.1-5.35-27.23-5.83-41.2-5.29-15.42.59-30.78,1.21-46.21,1.15-31.4-.13-62.82-1.3-94.19.41-.49,0-.5.8,0,.78Z"/><path class="cls-8" d="M23.57,23.69c-.17,23,1.42,46.14,1.89,69.18q.45,22.07.48,44.13c.09,31.51-.07,63,.37,94.52.17,12.58.39,25.18,1.11,37.74.24,4.12.51,8.24,1.06,12.33.24,1.75.31,4.48,1.41,6,1.57,2.16,4.92,1.3,7.31,1.29,5.7,0,11.39-.19,17.09-.38,15.53-.5,31.06-1.18,46.6-1.63,19.34-.56,38.71-.89,58.06-.17,15.66.58,31.86,1.41,47,5.86a1.2,1.2,0,0,0,.64-2.31c-12.21-3.58-25.14-4.7-37.78-5.46-16.4-1-32.85-1-49.27-.72-28.41.46-56.84,2.67-85.25,2.45-.93,0-2.67-.35-2.19.14,0,0-.19-.35-.26-.49a9.32,9.32,0,0,1-.69-2.76A90.26,90.26,0,0,1,30,272.88c-.81-11.53-1-23.11-1.24-34.67-.54-30.69-.42-61.38-.47-92.07,0-15.46-.06-30.91-.42-46.37-.58-25.28-.59-50.89-2.82-76.08a.74.74,0,0,0-1.48,0Z"/><path class="cls-8" d="M202.86,35.38c0,7.57,1.62,15.25,2.15,22.82q.83,11.85,1,23.73c.27,16.43-.33,32.87-1.16,49.28-1.69,33.21-4.53,66.41-4.19,99.69.18,17.31,1.1,34.81,4.27,51.85.32,1.75,2.91,1,2.64-.73-10.13-64.76,1.38-130,.87-195.09-.07-9.05-.35-18.1-1.1-27.12-.66-8-.93-16.9-3.44-24.57a.53.53,0,0,0-1,.14Z"/><path class="cls-8" d="M208.42,32.59c18.08-11.47,40.94-15.69,61.79-18.66a403.42,403.42,0,0,1,78.28-3.4,218.47,218.47,0,0,1,36.58,4.6c1.68.38,2.39-2.19.71-2.58-23-5.24-47.23-5.83-70.7-5.07-25.9.83-52.27,3.51-77.3,10.45C227.17,20.88,216.55,24.59,207.5,31c-.95.67-.09,2.22.92,1.58Z"/><path class="cls-8" d="M382.37,20.94c4.4,19.26,3.52,38.84,1.82,58.37-1.69,19.36-3.29,38.49-2.47,57.94.82,19.71,2.61,39.39,4,59.06s2.55,39.48,4.4,59.16c.05.59,1,.61.94,0-2.16-40.09-7-80.06-8.48-120.19-.73-19.42,1-38.55,2.59-57.88,1.55-18.89,2.27-38-2.67-56.51a.09.09,0,0,0-.18.05Z"/><path class="cls-8" d="M214.28,282.49a491.57,491.57,0,0,1,84.13-18.42c14.51-1.9,29.08-3.3,43.67-4.42,13.2-1,27-.64,40-2.66,1.31-.2.9-2.15-.3-2.21-6.92-.36-14.11.57-21,1q-11,.69-22,1.56c-14.16,1.14-28.31,2.56-42.39,4.46-27.86,3.75-56.48,8.74-82.19,20.49-.1,0,0,.23.09.2Z"/><path class="cls-8" d="M236.43,283.43c17.23-2,34.33-5.62,51.55-7.91s34.7-4.09,52.06-6c1-.11,1-1.64,0-1.55-17.71,1.55-35.39,3.29-53,5.6-16.84,2.2-34.43,4.38-50.61,9.71-.07,0-.06.15,0,.14Z"/><path class="cls-8" d="M277,281.13c23.68-1.91,47.4-3.58,71-6.6.66-.09.7-1.1,0-1.06-23.73,1.64-47.35,4.63-71,7.38-.18,0-.18.3,0,.28Z"/><path class="cls-8" d="M349.91,266.48c5,.95,10.28.82,15.34,1.09,5.74.31,11.49.77,17.24.79a.67.67,0,0,0,0-1.34c-5.41-.41-10.85-.41-16.28-.54s-10.95-.72-16.28-.14c-.07,0-.1.12,0,.14Z"/><path class="cls-8" d="M370.64,275.31l13.8.07a.28.28,0,0,0,0-.56l-13.8.07a.21.21,0,0,0,0,.42Z"/><path class="cls-8" d="M392.36,20.73c-.19,15.69,2,31.59,3.1,47.24q1.62,23.15,2.73,46.32,2.19,46.86,1.94,93.76a.14.14,0,1,0,.28,0c.3-31.58,0-63.17-1.14-94.74q-.86-23.67-2.33-47.31c-.95-15-1.33-30.54-4.23-45.32,0-.2-.35-.14-.35.05Z"/><path class="cls-8" d="M402.2,230.75a99.17,99.17,0,0,0,3.28,32.71.24.24,0,0,0,.47-.13,99,99,0,0,1-3.54-32.58c0-.14-.2-.14-.21,0Z"/><path class="cls-8" d="M393.77,17.34c3.72,3.53,7.37,7.09,11.33,10.33.42.34,1-.19.6-.59-3.5-3.73-7.3-7.13-11.08-10.59-.57-.51-1.4.31-.85.85Z"/><path class="cls-8" d="M405.19,30.17c-1.14,19.55.37,39.54.82,59.11.47,20.08.93,40.17,1.51,60.26,1.16,39.77,2.84,79.54,6,119.2.16,2,3.26,2,3.1,0-3.22-39.66-5-79.43-6.2-119.2-.61-19.76-1.1-39.52-1.59-59.28s.06-40.32-2.29-60.09a.67.67,0,0,0-1.33,0Z"/><path class="cls-8" d="M387.07,256.62c1.32,3.56,4,5.69,7.1,7.75,5,3.33,9.1,6.59,12.7,11.47.53.71,1.73.05,1.22-.71a34.43,34.43,0,0,0-8.77-9c-4.21-3-9-5.07-11.48-9.87-.21-.42-.93-.13-.77.32Z"/><path class="cls-8" d="M215.25,288.49c13.53,1.14,27.54-.22,41.06-1.16q21.35-1.49,42.66-3.42c27.92-2.49,55.9-4.56,83.95-4.82a.39.39,0,0,0,0-.78c-28-1.5-56.05.84-83.95,3.13-13.93,1.15-27.83,2.55-41.76,3.69s-28.1,1.41-42,3.15a.11.11,0,1,0,0,.21Z"/><path class="cls-8" d="M390.28,67.39c1.5,35.51,2.31,71,3.07,106.53a.4.4,0,0,0,.8,0c-.24-35.51-1.71-71.08-3.76-106.53,0-.07-.12-.07-.11,0Z"/><path class="cls-8" d="M385.62,128.77q1.58,28.83,3.41,57.62c1.19,18.51,1.79,37.57,5.74,55.74.08.38.74.31.69-.09-5-37.61-6.8-75.44-9.61-113.27,0-.14-.24-.15-.23,0Z"/><path class="cls-8" d="M399.3,32.67a199.7,199.7,0,0,1,1.12,49.76c0,.15.21.15.23,0a183.27,183.27,0,0,0-1.08-49.84c0-.18-.29-.1-.27.08Z"/><path class="cls-2" d="M208.59,38.82a.1.1,0,0,0,0-.19.1.1,0,0,0,0,.19Z"/><g class="cls-9"><path class="cls-10" d="M379.65,234.3c-10.83-1.87-21.37-3.91-32.33-4.9-10.09-.91-20.19-1.81-30.32-2.24-10.69-.45-21.61-.63-32.24.63q-10,1.19-19.8,3.13c-2.95.59-5.89,1.22-8.82,1.91-1.83.42-3.66.87-5.49,1.33l-1.86.48c-3.09.59-2.49.87,1.81.87l5.37,3.13c1.48,1.39,2,4.67,1.4,1.25-.23-1.42-.49-2.82-.69-4.24-.14-1-.25-2.05-.42-3.07-.08-.57-.18-1.14-.29-1.7-.24-1.22-.28-.9-.13,1,1.22-2.25,2.14-5.06,3.62-6.9,2.34-2.92,5.65-5.42,8.58-7.72l-6,3.49c3.71-1.47,7.53-2.35,10.92-4.54,2.7-1.74,5.24-3.73,8-5.45,5.45-3.45,11.15-6.47,16.63-9.86,11.8-7.31,23.58-14.73,33.93-24.06A110.89,110.89,0,0,0,358,139.61a205.33,205.33,0,0,0,9.33-25.7c2.6-8.79,5.59-17.83,5.86-27L339.49,96c-1.09-2.46.87,2.75.86,2.71.5,1.48,1,3,1.49,4.43.94,2.83.75,4.84.68,8.17A172.37,172.37,0,0,1,341,130.43c.27-2.05-.44,3.2-.42,3.06-.29,2-.6,4-.87,6.08-.51,3.8-.61,7.65-.83,11.48-.33,5.46-.78,10.92-1.17,16.38-.81,11.19-1.43,22.48-.14,33.66.74,6.48,1.66,12.56,4.12,18.61.52,1.27,3.67,9.85,1.78,3.32-1.5-5.14-.62-2.12-.69-.74a36.8,36.8,0,0,0,1.13,7.43c.74,3.37,0-5.08.27-5.67L353,212.59l-.45.26,9.67-2.62c-1.75.22-3.41.14-5.16.19q-2.13-.18,1.3.18c-.76-.14-1.52-.3-2.27-.49-3.33-.77-6.59-1.8-9.88-2.7a58.84,58.84,0,0,0-23.22-2c-8.12,1-16.26,1.86-24.43,2.31-3.91.21-7.83.33-11.74.3q-2.94,0-5.87-.15c-1.31-.06-2.61-.14-3.91-.23q-3.63-.37-.57,0v38.42a329.23,329.23,0,0,0,40.89-19.71c13.61-7.89,26.27-17.35,38.6-27.09,4.33-3.41,6.76-11.09,6.76-16.31,0-5.66-2.51-12.42-6.76-16.32-9.63-8.84-23-8.6-32.63,0-4.95,4.43-10.05,8.66-15.21,12.85-4,3.25,2.63-1.93-1.16.9-1.44,1.07-2.87,2.15-4.32,3.21-2.64,1.92-5.32,3.79-8,5.68a287.92,287.92,0,0,1-33.54,20.38c-7.48,3.89-11.75,14.46-9.15,22.5a20.71,20.71,0,0,0,19.21,14.62c19.6,1,39.5-.95,58.77-4.64,3.09-.6-2.43-.25.11,0a20.55,20.55,0,0,0,2.22,0c1.34,0,2.75.92-.48-.08.73.23,1.53.32,2.27.51,3.82,1,7.47,2.52,11.25,3.65,11.59,3.46,26.72,4.42,33.9-7.45,3.55-5.86,3-11.84,2.08-18.19-.5-3.49-.08,4.12.18.21a24.84,24.84,0,0,0-1.27-9.49c-1.07-3.21-2.12-6.31-2.92-9.61-.42-1.69-.83-3.38-1.16-5.09-.14-.75-.23-1.51-.39-2.26-.51-2.35.33,3.61,0-.23-1.45-15.16-.65-30.33-.71-45.53,0-10.25-1.27-20.41-1.87-30.64-.27-4.58-1.16-10.06-1.36-14.11-.11-2.2.74-5.82.95-8.61s.27-5.58.4-8.37C374,69,347.86,62.25,339.49,77.77c-3.85,7.13-5.56,15-7.94,22.66-2.06,6.62-4.3,13.19-6.9,19.62-.42,1-.86,2.1-1.29,3.15,1.65-4-.48,1.07-.71,1.57-1.37,3-2.86,5.93-4.49,8.79-1.33,2.33-2.75,4.61-4.28,6.81-.46.66-3.59,4.49-.61.93-1.25,1.49-2.49,3-3.8,4.4a121.11,121.11,0,0,1-11.4,10.56c-3.62,3.05,3.19-2.29-.64.5-.75.55-1.49,1.11-2.24,1.65-2.63,1.89-5.31,3.72-8,5.52-9.73,6.48-19.31,13-28.18,20.62-5.51,4.75-9.66,9.06-12.36,16l-.42,1.12q-.64,2.22-.33.18c-.86,1.11-1.64,2.3-2.42,3.46-1.61,2.44-3,5-4.63,7.43-3.85,5.75-7.59,11.84-7.29,19.05a87.91,87.91,0,0,0,2.32,14.53c1.3,5.75,4.6,11.17,10.67,12.79,4.3,1.14,8.44-.49,12.56-1.56,3.88-1,7.77-1.93,11.69-2.76a320.3,320.3,0,0,1,35.86-5.55c12.31-1.19,24.66-1.46,37-1.56,6-.05,12.26.35,18.25-.28,6.6-.69,13.2-1.86,19.73-3,5.05-.85,5-9.31,0-10.17Z"/></g><g class="cls-11"><path class="cls-5" d="M170.55,26.28c-1.15-.31-2.26-.7-3.41-1,3.82,1.11-2.89-1.16-3.35-1.3-3.41-1.11-8-.83-11.64-1.09-5.36-.38-10.56-.66-15.94-.51-10.71.31-21.43.43-32.14.57-21.2.29-42.44-1.93-63.66-2C31.64,21,22,29,22.91,38.47c2.42,24.45,4,48.87,4.93,73.42,1.11,29.25,2,58.65,6,87.68,1.52,11.15,3.46,21.9,10.54,30.94,6.47,8.26,21.86,5.48,26.28-3.38,3-6,5.57-12.11,8.11-18.29,1-2.43,2-4.88,3-7.32.39-1,.76-2,1.18-3-1.06,2.46,1.43-2.95,1.66-3.44,4.79-10.09,9.58-20.19,14.94-30,2.79-5.11,5.73-10.14,8.9-15q2.14-3.33,4.44-6.56c.61-.86,1.24-1.7,1.86-2.56,1.27-1.68,1.26-1.69,0,0,.65-.83,1.3-1.64,2-2.45A126.45,126.45,0,0,1,127.45,127c2.15-2,4.4-3.9,6.66-5.77,4.56-3.78-3,2.19,1.72-1.32,1.45-1.08,2.87-2.17,4.32-3.24,11-8.13,23.06-15.74,31.69-26.47,11.16-13.89,18-36,3.09-50.19-7.4-7-18.88-9.33-28.55-6.3-8,2.51-14.1,8-19.77,13.93-7.22,7.53-14.29,15.19-21.34,22.88C88.08,89.29,71,108.15,53.64,126.78l40.1,16.61c1.06-16.94,5.06-33.87,3.49-50.91-.49-5.34-1-10.94-2.73-16.07-.24-.72-.52-1.42-.79-2.13q-4-9.34-1.76-4.2,3.12,5.67-3.56,11.36c-2.76,6.44-3.68,12.72-11.75,12a25.38,25.38,0,0,0,3.14-.14c13.92-.59,27.78-.5,41.41-3.63,9-2.06,16.47-11.85,16.05-21.09-.4-9-6.41-19.43-16.05-21.08C106.39,45,91.06,45.07,76.05,46c-11,.64-21.28,5.12-26.88,15.14a31.15,31.15,0,0,0-2.88,22.37,48,48,0,0,0,3.14,8.29c-3.16-7-1.32-3.28-.77-1.5.6,2,.76,4,1.32,6-1.75-6.22-.46-3.49-.3-1.09.08,1.14.12,2.29.15,3.44a143.17,143.17,0,0,1-.53,15.22c-.77,9.86-2.26,19.67-2.54,29.57-.27,9.32,6.12,18,14.44,21.46,8.15,3.44,19.51,2.21,25.66-4.85C100,144.85,113,129.57,126.07,114.31q9.87-11.57,19.77-23.1c3.16-3.68,6.27-7.39,9.39-11.11,1.16-1.38,2.3-2.75,3.46-4.12.86-1,1.7-2,2.62-3A21.67,21.67,0,0,1,163,71.39,8.48,8.48,0,0,1,158.75,74c-8.59,2.47-14.64-5.13-16.8-12.6l-.06,1.56c.45-3,.4-3.27-.13-1-.49,3.42-.39-1.24.33-.64A21.68,21.68,0,0,1,140.51,64c-2.23,4.32,2.77-2.59-.66,1-1.87,1.92-3.67,3.87-5.66,5.68-8.64,7.89-18.41,14.44-27,22.35-16.06,14.71-27.89,33.51-37,53.13-5.33,11.47-10,23.25-14.61,35l-1.16,3c-.15.37-2,4.44-.84,2.05-1.34,2.87-2.73,5.73-4.11,8.58-2.53,5.17-5.12,10.31-7.68,15.47L68,206.85c4,5.06,2.36,3.11,1.51,1.68-1.46-2.45.75,1.25.82,2.1-.13-1.56-1.17-3.43-1.58-5a133.89,133.89,0,0,1-2.51-13.31c-.4-2.57.53,4.36,0,.21-.18-1.49-.37-3-.53-4.49-.34-3-.64-6.11-.92-9.17-.6-6.6-1.07-13.21-1.49-19.82-1.83-29-2.87-58-3.55-87-.3-12.77-.43-25.63-2.52-38.26L40.41,56c21-1.36,42.75-1.31,63.66,1.44,10.39,1.36,20.79,2.76,31.2,4a110.33,110.33,0,0,0,15.94.7,95.68,95.68,0,0,0,10-.57,9.7,9.7,0,0,0,4.87-1.32c2.49-1.13,3.05-1.35,1.67-.63-2.07.61,2.89-.75,2.78-.72,15.93-4.52,16.22-28.17,0-32.57Z"/></g><path class="cls-12" d="M226.83,50.45c-.18,8.85-.17,18.81,1.8,27.48.27,1.16,2,.66,1.77-.49-1.6-8.63,0-18.83-3.43-27,0-.07-.14-.07-.14,0Z"/><path class="cls-12" d="M226.89,53.16a83.61,83.61,0,0,1,8,12.13,1,1,0,0,0,1.65,0,35,35,0,0,0,4.81-15.49l-1.7.23c2.1,8.46,1.6,17.2,2.8,25.78.22,1.58,2.72.94,2.44-.67-1.49-8.5-1.32-17.2-3.57-25.57a.87.87,0,0,0-1.7.23,32.3,32.3,0,0,1-4.73,14.52h1.65a48.37,48.37,0,0,0-9.36-11.49c-.22-.21-.51.1-.33.33Z"/><path class="cls-12" d="M248.61,63.5l-.18-1a.49.49,0,0,0-1,0c-.11,3.14.15,9.49,4.85,9.08s4.16-6,2.85-9c-.41-.94-1.72-.36-1.77.48-.39,6.34,2.36,11.83,3.11,18a8.58,8.58,0,0,1,.07,3.74l-4.33-4.29c.13-.65,2.45-2.27,2.92-2.72a20.71,20.71,0,0,0,4.44-6.06,1,1,0,0,0-1.66-1,45.12,45.12,0,0,1-6.36,7.22c-1.43,1.43-2.69,2.91-2.93,5a5.52,5.52,0,0,0,5.14,6.31c3.58.11,5.28-3,5.24-6.19-.08-6.91-4.15-13-3.74-20l-1.77.48q-4.31,6.1-4.66,1.68c-1.11-2.06-1.49-2.68-1.15-1.88-.15.07,1.23.52.76.36a.11.11,0,0,0,.14-.14Z"/><path class="cls-12" d="M274.05,52.28c-1.32-3-3.89,0-4.22,2-.51,3.06.89,6.31,1.64,9.21.21.84,1.22,14.24,1.18,14.23-.69-.23-1.46.68-1,1.31l.31.43a1.13,1.13,0,0,0,1.21.49l.63-.13a1.17,1.17,0,0,0,.82-.82c.88-3.7.35-8.14-.21-11.87-.29-1.95-4.8-14.81-.64-14.32.27,0,.37-.3.28-.5Z"/><path class="cls-12" d="M268.89,65.14a14.67,14.67,0,0,1,4.93-2.55c1.28-.39,2.86-.16,3.85-1.11a.67.67,0,0,0-.13-1c-1.31-1-3.68,0-5,.59a13.31,13.31,0,0,0-4.51,3.2c-.58.6.27,1.39.89.9Z"/><path class="cls-12" d="M278.82,58.65c-.59,2.3-.49,6.11,1.27,7.95,1.27,1.33,4.61.52,3.4-1.56a.86.86,0,0,0-1.15-.3c-1,.66-1.23-1.14-1.45-1.94a32.12,32.12,0,0,1-.71-4.15c-.1-.71-1.19-.62-1.36,0Z"/><path class="cls-12" d="M278.33,55.58l.06-.09-.11.14,0,0-.5.21a1,1,0,0,0,.59-.2,1.43,1.43,0,0,0,.28-.32l-.14.17.11-.11-.17.13.11-.06-.2.08.12,0-.22,0h.07a.8.8,0,0,0,.21-1.56,1.32,1.32,0,0,0-1,.14,1.48,1.48,0,0,0-.31.25A.85.85,0,0,0,277,55a.87.87,0,0,0,.29.64l-.19-.31a1.2,1.2,0,0,0,.13.28.66.66,0,0,0,.55.32.61.61,0,0,0,.54-.32Z"/><path class="cls-12" d="M284.39,57.88c.3,2.12.59,4.24.92,6.35.19,1.22,2,.69,1.86-.51l-.54-3.79c-.09-.67-.31-1.67.17-2.29a2.89,2.89,0,0,1,2.39-.69c1.08,0,3.59.29,3-1.64a.76.76,0,0,0-1.37-.18l-.16.22.76-.44c-2.28.2-4.93-.78-6.49,1.57-1.38,2.08,0,5.53.42,7.75l1.86-.51c-.78-2-1.6-4-2.42-5.94a.19.19,0,0,0-.36.1Z"/><path class="cls-12" d="M298.57,52.9a2.56,2.56,0,0,0-4,3c.7,1.51,2.25,1.67,3.67,2,5.71,1.47-1.15,7.09-2.36,3.83a1,1,0,0,0-1.85.25c-.4,4.55,6.33,3,7.83.35a4.29,4.29,0,0,0-.41-4.76,4,4,0,0,0-1.94-1.21c-.51-.16-1.12-.11-1.6-.31-.27,0-.53-.09-.79-.15q-1.24-3.26,1.13-2.44c.34.14.63-.39.36-.63Z"/><path class="cls-12" d="M304.55,51.12a20.26,20.26,0,0,0-1.29,6.74c-.16,2-.19,4.22,1.19,5.88s6.46,2.2,5.65-1.09a.79.79,0,0,0-.93-.53c-1.2.18-1.81,1.35-3.08-.29-.83-1.07-.57-2.72-.55-4,0-2.21.27-4.52-.39-6.66a.33.33,0,0,0-.6-.08Z"/><path class="cls-12" d="M302.62,57.73a12.91,12.91,0,0,1,3.28-.38,5.19,5.19,0,0,0,2.69-.21.83.83,0,0,0,.17-1.29c-1.68-1.38-4.89-.05-6.61.77-.64.3-.18,1.27.47,1.11Z"/><path class="cls-12" d="M318.6,54.85c-.85,1-.3,2.15-.11,3.4a50.16,50.16,0,0,1,.58,6.48h2.18a51.28,51.28,0,0,1,.13-6.79c.13-1.34.53-2.73,2.09-2.87.88-.07,1.66.19,2.54,0s.83-1.31.23-1.72a4.74,4.74,0,0,0-6.4,1.29c-1.58,2.68-.94,7.08-.77,10,.07,1.39,2.23,1.41,2.18,0a40.05,40.05,0,0,0-.66-6.28c-.27-1.33-.36-3.13-1.74-3.66a.25.25,0,0,0-.25.06Z"/><path class="cls-12" d="M326.89,57.62c1.36-.61,2.89-.29,4-1.42a2.32,2.32,0,0,0,.57-2.73c-1.34-2.37-4.18-.41-4.81,1.39-.89,2.54-1.32,6.21.84,8.24,1.25,1.17,5.48,2.33,5.45-.54a.76.76,0,0,0-.55-.73c-.86-.14-1.64.34-2.49,0-1.45-.5-1.71-2.21-1.69-3.54a12.13,12.13,0,0,1,.2-1.9,9.29,9.29,0,0,1,.22-1c.36-1.21.66-1.3.89-.27-.14.5-2.69,1.13-3.23,1.51a.56.56,0,0,0,.57,1Z"/><path class="cls-12" d="M338.59,51.59c-4-.48-6.5,5.13-5.13,8.42,1.61,3.88,8.31,3.67,9.35-.53a.86.86,0,0,0-1.24-1c-1.08.51-1.9,1.44-3.11,1.69a2.34,2.34,0,0,1-3-1.89,5.28,5.28,0,0,1,3.26-5.81.47.47,0,0,0-.12-.92Z"/><path class="cls-12" d="M344.24,53.36a7,7,0,0,0-.85,3.7,6.88,6.88,0,0,0,.77,3.91c1.26,1.73,4.65.22,3.27-1.58A1,1,0,0,0,346,59.2c.33-.32,0-1-.11-1.47s-.15-1-.24-1.46a11.43,11.43,0,0,0-.68-2.91.41.41,0,0,0-.69,0Z"/><path class="cls-12" d="M343.13,51.16a2.16,2.16,0,0,0,1.21-.12.71.71,0,0,0,0-1.21,2.25,2.25,0,0,0-1.21-.12.73.73,0,1,0,0,1.45Z"/><path class="cls-12" d="M347,53.46a59.33,59.33,0,0,1,.57,7.41c0,2.05-.34,4.14.09,6.14a1.42,1.42,0,0,0,2.71,0c1.2-4.21-.71-9.92-2.11-13.9a.65.65,0,0,0-1.26.35Z"/><path class="cls-12" d="M347.72,54c.54-2.24,3.79-3.86,5-1.2a2,2,0,0,1-.58,2.51,2.94,2.94,0,0,1-2.72.15c-1.62-.46-2.31,1.68-1.08,2.57,1.75,1.27,4.4.52,5.81-.92a4.55,4.55,0,0,0,.49-5.64,4.39,4.39,0,0,0-5-1.94A3.94,3.94,0,0,0,346.82,54c.07.47.8.43.9,0Z"/><path class="cls-12" d="M356.2,54.09c1.36,0,2.87.42,4-.55a2.17,2.17,0,0,0,.67-2.46,2,2,0,0,0-2.45-.9,4.42,4.42,0,0,0-2.48,2.91c-1,2.59-.84,6.57,1,8.77,1.58,1.85,5.56,2.27,6.18-.71.22-1.07-1-2.38-2.07-1.59-2.13,1.56-2.84-1.19-3-3a6.94,6.94,0,0,1,.26-3.17c.41-1.11.42-.7-.65-.5-.37.06-1.19.11-1.57.16-.59.08-.42,1,.14,1Z"/><path class="cls-12" d="M233.84,108.42c-3.7.76-2.32,5.53.67,6.42,4.41,1.3,10.12-2.85,8.39-7.55a.78.78,0,0,0-1.49,0c-.6,2-1.28,4.77.73,6.31,1,.77,6.26.34,6.27.81l1.65-.23c-1.73-4.33,6.43-4.17,8.36-5.75a3.56,3.56,0,0,0,1.48-3.58,1,1,0,0,0-2-.27c-1.9,6,2.25,11.6.61,17.52l1.94-.26c-3.44-5,4.76-9.71,6.75-13.74l-1.93-.53a3.84,3.84,0,0,0,.28,2,1,1,0,0,0,1.26.71,6.37,6.37,0,0,0,2.85-1.23c.52-.42,4.56-5.22,4.56-4.1a1,1,0,0,0,1.87.51c1.32-1.89,4.45,2.38,5.76,2.86,2.17.8,4.47,0,6.54-.75,1.35-.49.76-2.67-.6-2.17-6.13,2.3-8.84-8.34-13.43-1l1.83.24a2.52,2.52,0,0,0-2.78-2.21c-3.41.07-3.82,5-7.15,5.84l1.26.71-.18-1.43a1,1,0,0,0-1.93-.52c-2.43,4.86-11.24,9.48-6.8,15.86a1.07,1.07,0,0,0,1.94-.25c1.63-6-2.52-11.69-.68-17.54l-2-.27c.3,2.38-7.84,3-9.27,4.93-1.17,1.58-.89,3.41-.08,5a.85.85,0,0,0,1.57-.42c0-1.23-.1-1.78-1.31-2.41-2-1.06-7.85,2.72-5.88-4.3h-1.49Q238,118.83,234,108.8a.21.21,0,0,0-.16-.38Z"/><path class="cls-12" d="M238.47,135.93l-1.46-.68a.69.69,0,0,0-.92.24,3.13,3.13,0,0,0,.67,4.39c2,1.68,4.39.7,6.16-.75.75-.61,1.59-2.2,2.4-2.59,1.63-.8,5.67-.17,7.47.32s3.3,1.59,5.19,1.21a3.65,3.65,0,0,0,3-4.55.93.93,0,0,0-1.13-.64c-1.24.31-1.95,1-1.59,2.44.65,2.51,5.2,1.39,6.78,1.56,1.23.14,1.59.71,2.6-.53,1.73-2.14.56-5.83-.54-7.91a1,1,0,0,0-1.75.47c-.07,3.17.25,7.33,4.09,8a3.45,3.45,0,0,0,3.22-.86c.47-.43,1.68-3.94,2.61-2,.4.84,1.63.36,1.66-.45l4.72-1.78.89.79c.13,0,.22.21.38.22,1.7.11,1.31.73,3.2.2,1.32-.38,2.18-1.73,3.49-1.89s3.85,1.21,5.19,1.59a.87.87,0,0,0,.46-1.68,23.29,23.29,0,0,1-5.43-2.27.87.87,0,0,0-1.05.13,5.47,5.47,0,0,1-6.34,1.27c-.61-.24-.41-.61-1.1-.79a4.85,4.85,0,0,0-2.78-.25,4.46,4.46,0,0,0-3.41,4.46l1.66-.45a6.53,6.53,0,0,0-1.61-2.47.88.88,0,0,0-1.08-.14c-1,.58-.68.88-1.55,1.49-.16.38-.3.76-.43,1.15q-5.64-.37-4.92-4.33l-1.74.47a5.08,5.08,0,0,1,.4,5.69,3.08,3.08,0,0,0-1-.56,6.67,6.67,0,0,1-1.72-.07,34.51,34.51,0,0,1-8.29,1.27,19.38,19.38,0,0,0-2.73-1,6.14,6.14,0,0,0-2.92-.07c-2.93,1-3.45,4.86-.36,5.88a.88.88,0,0,0,1.08-.61c.28-1.93.25-4.79-1.92-5.72a3,3,0,0,0-2.68.19,6.66,6.66,0,0,0-1.17,1c-3,2.55.11,1.54-5.83,1.24a.35.35,0,0,0,.18-.65Z"/><path class="cls-12" d="M238.23,161.87c-.83,2.28,0,5.07,2.81,5.22a3.85,3.85,0,0,0,2.7-1.06c.35-.34.6-1.08.85-1.3l.07-.16q-.22-2.7,2-.2l1.23.7c-.12-6.2,6.44-.18,7.77.06a3.6,3.6,0,0,0,2.5-.46,2.53,2.53,0,0,0-.43-4.24c-1.66-.8-3,.52-2.9,2.14a4,4,0,0,0,1.5,2.56,5.27,5.27,0,0,0,2.51.89l.22,0q5.07-.75,2.51,5.39l.72,1.24A16,16,0,0,0,267.2,160l-1.14.65a3,3,0,0,0,4.62-2.71l-1.57.22A3.06,3.06,0,0,0,271,160.8c.94.5.69.19,2,.56-1-.3,8.93.67,4.47,2.07l.7,1.66a16,16,0,0,0,6.2-8.53l-1.89-.25a15.45,15.45,0,0,0,2.12,9.39,1,1,0,0,0,1.13.46c2.73-.69,3.67-6.95,6-6.24.43.13,1,1.93,1.76,2.29a3.25,3.25,0,0,0,3.06-.37c2.82-1.72,1.13-4.66,6.66-4.42,1.71.08,3.28,1.12,5,1.14,2.54,0,4.82-1,5.21-3.66l-1.85.24a19.06,19.06,0,0,1,3.59,15.06l2.42-.31a4.54,4.54,0,0,1,.79-6.2c1.31-1.08-.56-2.9-1.86-1.85a6.62,6.62,0,0,0-1.21,9.38,1.33,1.33,0,0,0,2.46-.67,21.82,21.82,0,0,0-4.44-16.43,1,1,0,0,0-1.89.51c-.54,4.07-8.81.06-11.47,1-1.91.65-1.77,2-3.17,2.94a7.19,7.19,0,0,1-3.36.37c-.32-.19-.59-1.27-1-1.61-1.33-1.2-2.76-1-4,.31-.86.91-1,2-1.38,3.09-.25.65-.54,2.66-1.59,2.66-1.26,0-1.2-6.18-1.14-7,.08-1.12-1.57-1.26-1.88-.26a14,14,0,0,1-5.26,7.47c-.76.57-.36,2,.69,1.66a2.45,2.45,0,0,0,1.67-3.44c-1.25-3.55-8.36-.82-8.92-4-.16-.91-1.55-.66-1.57.21l-2.25,1.41a.76.76,0,0,0-1.14.65,13.81,13.81,0,0,1-4.41,11.65.75.75,0,0,0,.73,1.24c4.42-1.48,3.75-6.43,0-8.15-2.79-1.3-6.32-1.51-9.18-3-1.14-.58-1.75-1.11-3.09-.94-2.25.29-3.31,2.27-3.48,4.26-.06.67.72.94,1.23.7,2.31-1.06,3.36-4.51.62-5.87a3.44,3.44,0,0,0-3.54.49c-.35.3-.45.75-.8,1.06a3.29,3.29,0,0,0-.29,1.46q-.22,2.37-4.29-.77c.21-.63-.77-.89-1-.27Z"/><path class="cls-12" d="M328.84,156.2l1.5-1.63.87.9c.48.16.87.71,1.34.93a4.62,4.62,0,0,0,3.08.35,3.79,3.79,0,0,0,2.66-3.84l-1,1a108.28,108.28,0,0,0,13.36.16,1,1,0,0,0,0-1.92c-4.46-.1-8.91-.05-13.36-.18a1,1,0,0,0-1,1c0,4.77-5.9-.85-7.11-1a2.52,2.52,0,0,0-1.76.39c-1.63,1.3-.35,3.31.66,4.46.34.38.95-.11.7-.54Z"/><path class="cls-12" d="M243.61,186.4q1.86-4.12,3.11-2.31l.86,1.1c.37.13,1,.88,1.5,1.14a3.91,3.91,0,0,0,4.22-.08,3.23,3.23,0,0,0-.22-5.32,1.07,1.07,0,0,0-1.56.63,3.12,3.12,0,0,0,2.25,4.22,3.94,3.94,0,0,0,2.79-.45c.51-.26,3-3.51,3.17-1.29a.93.93,0,0,0,1.81.25c1.57-5.16,9.67-.79,12.14-5.14a1,1,0,0,0-1.4-1.41,2.85,2.85,0,0,0-1.86,3.32c.5,3.71,4.18,4.83,3.48,9.57-.19,1.3,1.79,1.86,2,.55a10.4,10.4,0,0,0-.46-5.79c-.38-.95-3.65-5.2-2.12-5.88l-1.4-1.4c-1.28,2.28-6.35.29-8.58,1.21a6.19,6.19,0,0,0-3.56,4.48h1.77c-.28-1.73-1-2.31-2.54-3a.86.86,0,0,0-.95.39l-4.48.89-1.56.64q-2.65,2.58-3.77.15l-.83-1.11a5,5,0,0,0-1-.88,2.87,2.87,0,0,0-2.6.09c-2.48,1.2-2.12,3.7-1,5.7.26.45.84.12.78-.32Z"/><path class="cls-12" d="M288.82,183.24a25.19,25.19,0,0,1-.24-3.36c-.67-2.28-.24-3.1,1.29-2.44,1.07-.13,1.32.12.74.75.08,1-1.15,2-.94,3.25.29,1.77,1.79,2.66,3.46,2.9,4.25.62,9.93-4.12,5.82-8a1,1,0,0,0-1.61.66,3.35,3.35,0,0,0,3.57,4c1.82-.15,2.07-1.49,3.25-2.45s-.77-1.89,1.57-.71c1.58.79.95,1.41,1.31,2.8.6,2.28,2.53,3.92,4.82,2.55.74-.44,1.89-3.27,1.93-3.28-.16,0,2.09,6.31,2.54,7.37.57,1.37,2.85.78,2.27-.62-1.43-3.46,2.65-7.76,2-11.55l-1.77,1.36,2.82,1.51c1.42.76,2.68-1.43,1.26-2.15l-2.87-1.43a1.21,1.21,0,0,0-1.76,1.35c.73,4.3-3.85,7.08-2,11.53l2.15-.91c-.89-2.09-1.93-11.47-5.89-10.15a1.12,1.12,0,0,0-.79.79c-.21,1.11-.28,3.4-3,1.47.51.36-.77-3.06-.55-2.69a3.53,3.53,0,0,0-2-1.75,2.41,2.41,0,0,0-2.38.39c-.39.3-.35.85-.7,1.15l-.08.21c0,1.83-1.31,2.31-3.92,1.44l-1.57.42q-1.81,8.46-5.08.88.33-.63.6-1.29c-.17-1.34.65-1.12-.12-2.46a2.74,2.74,0,0,0-2.93-1.27c-4.48.77-3.12,7.09-1.75,9.79.11.22.52.13.48-.13Z"/><path class="cls-12" d="M337.14,177.86c-.44-.77-1.19-2.16-.09-2.36s.84.48,1.14,1.22a6.51,6.51,0,0,0,1,2,4,4,0,0,0,4.13,1.45,3.1,3.1,0,0,0,.75-5.49.92.92,0,0,0-1.38.79,3.15,3.15,0,0,0,4.85,2.71c1-.67.06-2.35-1-1.66s-1.72.23-2.05-1.05l-1.38.79c.59.36.5,1.54.09,2-1.28,1.35-2.83-.65-3.29-1.49-.33-.61-.47-1.3-.8-1.9a2.41,2.41,0,0,0-2.37-1.56c-3,.4-1.52,3.76-.28,5.08.31.34.84-.09.62-.48Z"/><path class="cls-5" d="M461.58,175.39c-.8,9.85,0,19.63,1.15,29.44.55,4.79.88,9.64,1.52,14.42.75,5.48,1.51,9.25-.05,14.73-2.73,9.61,12,13.6,14.92,4.11,3.11-10.08,4.21-21,4.67-31.48a202.16,202.16,0,0,0-.88-31.22c-1.51-13.54-20.2-13.89-21.33,0Z"/><path class="cls-13" d="M468.51,70.84c-2.78,8.23-.43,18.53-.57,27.12-.12,7.61-.72,15.21-1.08,22.81-.7,14.7-.32,29.45-1.3,44.12-.78,11.72,18.18,11.9,18.37,0,.25-14.93,1.81-29.92,2.72-44.84.47-7.68,1-15.35,1.39-23,.46-9.43,1.92-19.63-1.92-28.48-3.57-8.23-15.24-4.72-17.61,2.3Z"/><path class="cls-14" d="M470.54,71c-1.41,14.56-2.72,29.05-3.13,43.68s-.65,29.14-.77,43.71c0,4.71,7.21,4.7,7.31,0,.63-29.15,1.78-58.23,2-87.39,0-3.56-5.11-3.42-5.44,0Z"/><path class="cls-15" d="M479.05,178.49c.74,5.08-1.18,11.31-1.62,16.42-.39,4.54-.73,9.09-1.11,13.63s-.79,9.08-1.2,13.62-1.39,9.47-.77,14.11c.27,2,3.11,1.58,3.63,0,1.46-4.42,1.28-9.48,1.66-14.11q.62-7.78,1.19-15.57c.38-5.18.83-10.38,1-15.57.14-4.22.89-9.16-.12-13.27-.44-1.78-2.93-1-2.67.74Z"/><path class="cls-16" d="M467,245.3c.38,6.52.54,13.05,1.1,19.54.25,3,5,4.19,5.66.77,1.23-6.29,2.07-12.64,3.12-19,1.25-7.51-10.28-8.36-9.88-1.33Z"/><path class="cls-17" d="M473.08,243.36A54.82,54.82,0,0,0,469.51,265c.1,1.64,2.68,2.22,3,.41,1.41-7.11,2.17-14.55,2.88-21.77.14-1.43-1.91-1.49-2.35-.32Z"/><path class="cls-16" d="M490.36,76.53c3.1,13.24.47,27.31-1.1,40.61-.81,6.9-1.75,13.81-2.18,20.74-.38,6.37-1.08,13.5,1,19.63.85,2.49,4.74,2.86,5.42,0,1.66-6.9,1.2-14.45,1.84-21.51.65-7.24,1.49-14.46,2.29-21.69,1.34-12.19,4.34-28.73-3.24-39.49a2.23,2.23,0,0,0-4.05,1.71Z"/><path class="cls-17" d="M494.1,75.86c-1.14,5.75-.75,11.93-1,17.79-.27,6.88-.54,13.76-.93,20.64-.76,13.4-2.72,26.78-3.3,40.18-.06,1.44,2.28,1.8,2.56.34,2.44-12.88,2.85-26.46,3.49-39.54.33-6.55.57-13.1.59-19.66s.54-13.44-.82-19.75a.32.32,0,0,0-.61,0Z"/><path class="cls-16" d="M477.46,59.56a5.08,5.08,0,0,0-1.42-.34L477.38,61a3.41,3.41,0,0,1,.53-2.09c.36-.72.43-1.54,1-2.11-.07.08.47-.3.15-.12.32-.18.22-.15.71-.1a1.35,1.35,0,0,1,.29,0c-.07,0,.39.08.35.24a4.09,4.09,0,0,1-.19-.47c0-.12.07-.28.07-.39,0-.38.29.22,0,0,.08.06-.28.14-.17.14s.28-.11.44-.09l1,.22-.95-.41c-3.82-1.06-7.16,3.44-4.13,6.47A4.48,4.48,0,0,0,479,63.6a4.2,4.2,0,0,0,.85,0c-.1,0,1.58-.21.85-.11l.82-.11.49-.14a7.59,7.59,0,0,0,1.65-.79A7.19,7.19,0,0,0,487,56.73c0-4.68-4.91-7.45-9.13-6.4a7.64,7.64,0,0,0-5.2,4.75c-1,2.5-.06,4.67,1.31,6.82,1.08,1.68,4,.64,3.34-1.41l-.26-.81-.2.5.61-.22c.23,0,.16-.34,0-.4Z"/><path class="cls-17" d="M480.49,53.76c-.13,2.77-.51,5.68.6,8.28a2.37,2.37,0,0,0,4.08,0c1.12-2.6.73-5.51.6-8.28a2.64,2.64,0,0,0-5.28,0Z"/><path class="cls-8" d="M482.16,62.39c-5.19-.25-11.57-.72-14.63,4.49-1.85,3.15-1.94,7.55-2.2,11.1-.82,11.66-.32,23.4-.61,35.08-.92,36.57-4.69,73.3-2.7,109.9,1,18.45,4.23,36.7,5.42,55.15.09,1.46,2.34,1.95,2.69.36A757.75,757.75,0,0,0,484,198.05c3.12-28.07,5.31-56.27,6.87-84.47.88-16,3.14-33.3-2.94-48.6-1-2.53-5.15-1.43-4.13,1.13,6.86,17.15,3.5,37.54,2.44,55.49s-2.4,35.64-4,53.43c-1.47,16.79-2.89,33.61-5,50.34a498.2,498.2,0,0,1-9.8,52.37l2.7.37c-.78-14.77-2.76-29.4-4.08-44.11-1.51-16.9-1.46-33.85-1-50.79.77-29.91,2.84-59.75,2.86-89.68,0-5.9.07-11.81.59-17.68.19-2.17.16-5,1.16-7,2.37-4.73,8-4.23,12.47-4.17a1.13,1.13,0,0,0,0-2.26Z"/><path class="cls-8" d="M473.29,63.7c0-2.22.09-4.44.13-6.66s.41-3.74,2.58-4.67a11.06,11.06,0,0,1,4.06-.43c1.15,0,2.93-.27,3.74.71.51.62.6,2.27.74,3.05a47.52,47.52,0,0,1,.28,7.35c0,1.06,1.73,1.39,1.94.26.72-3.93-.27-8.28-1.68-11.94-.1-.24-.28-.52-.57-.56a22.28,22.28,0,0,0-6.05-.13c-1.57.2-3.9.39-5.19,1.44s-1.15,2.48-1.13,4c0,2.53.16,5.07.24,7.61a.46.46,0,0,0,.91,0Z"/><path class="cls-8" d="M487.75,76.84c1.38,0,2.16-1.29,3.22-1.4l4.13,1.66c0,.62,0,1.25,0,1.87a12.63,12.63,0,0,1,0,2.46c0,4.27,0,8.55-.05,12.82-.21,9.51-.75,19-1.46,28.51-.63,8.51-1.32,17-2.23,25.52-.32,3-.64,5.93-1.1,8.88-.13.88-.41,3.69-.71,4l2.25.29c-2.87-5.75-3.28-12-4.19-18.28-.25-1.75-2.88-1-2.64.73.91,6.55,1.4,13,4.36,19a1.43,1.43,0,0,0,2.24.29c2.46-2.76,2.12-9.71,2.52-13.12,1.2-10.14,2-20.32,2.56-30.51.61-11.12,1-22.27.83-33.4-.06-3.29.5-9-1.23-12-2.69-4.6-5.84.64-8.69,1.81-.41.16-.4.84.11.82Z"/><path class="cls-8" d="M466.28,240.52c.57,1.74,2.31,1.95,4,2.09s3.92.13,5.25-1.05c.76-.68.07-1.7-.75-1.8-1.46-.2-3,.48-4.5.41s-2.63-.63-3.94.19a.15.15,0,0,0-.07.16Z"/><path class="cls-8" d="M464.41,169.86c4,5.54,13.72,6.14,19.52,3.51,2.72-1.23.36-5.24-2.35-4-3.88,1.76-11.22,1.67-14-1.93-1.39-1.79-4.5.58-3.16,2.44Z"/><path class="cls-18" d="M466.12,174.56c-2.78,9.43-2.15,20.38-1.92,30.11.24,10.2.32,21.31,2.83,31.23a1.91,1.91,0,0,0,3.73-.51c-.29-10.23-2.09-20.43-2.34-30.72-.24-9.84,1.19-20,.32-29.75a1.34,1.34,0,0,0-2.62-.36Z"/><path class="cls-19" d="M485.07,78.4c-1.15,7-.27,14.38-1,21.47-.74,7.45-1.84,14.87-2.57,22.32s-1.5,15-2.25,22.54c-.67,6.76-3.14,15.59-1.12,22.15.5,1.65,3,2.18,3.85.51,3.05-5.84,2.36-14.24,2.9-20.7q1-11.76,2-23.53a223.53,223.53,0,0,0,.74-23.29C487.5,93,488.14,85,486,78.4c-.13-.39-.8-.48-.88,0Z"/></g></g></svg>