<svg xmlns="http://www.w3.org/2000/svg" viewBox="0 0 70.44 56.19"><defs><style>.cls-1,.cls-2{fill:none;stroke:#09466e;stroke-miterlimit:10;}.cls-1{stroke-linecap:square;stroke-width:3.33px;}.cls-2{stroke-width:4px;}</style></defs><title>cooks-iconAsset 117</title><g id="Layer_2" data-name="Layer 2"><g id="Cook_silhuette" data-name="Cook silhuette"><path class="cls-1" d="M28.3,25l.45,2.29a12.94,12.94,0,0,1,1.1,5.25,12.2,12.2,0,0,1-3.82,9A10.05,10.05,0,0,1,24.1,43l-.12.07.31,3.12h0l.32,0c.89.1,3.6.23,4.42.39"/><path class="cls-1" d="M2.72,51.47C3.81,49,8.56,46.93,14.78,46.22l.29,0,.32-3.06,0-.09A11.8,11.8,0,0,1,9.54,32.56a12.79,12.79,0,0,1,1.11-5.25l.81-4.47a11.74,11.74,0,0,1-2.75.54,6.92,6.92,0,0,1-7-6.79,6.92,6.92,0,0,1,7-6.79,7.2,7.2,0,0,1,4.95,1.95l.06.06a7,7,0,0,1,6.6-4.41,7.33,7.33,0,0,1,1.41.14"/><path class="cls-2" d="M26.17,56.19c0-3.61,6.22-6.65,14.75-7.63l.35,0,.37-3.66,0-.12a14.12,14.12,0,0,1-7-12.56A15.5,15.5,0,0,1,36,25.88l1-5.36a14.16,14.16,0,0,1-3.29.64A8.31,8.31,0,0,1,25.18,13a8.31,8.31,0,0,1,8.46-8.15,8.58,8.58,0,0,1,5.93,2.35l.07.06A8.59,8.59,0,0,1,55,6.31l0,.09A8.64,8.64,0,0,1,60,4.87,8.31,8.31,0,0,1,68.44,13,8.31,8.31,0,0,1,60,21.16a11.82,11.82,0,0,1-3.37-.77l1.06,5.49A15.5,15.5,0,0,1,59,32.18a14.16,14.16,0,0,1-6.9,12.52l-.15.08.39,3.74h0l.37,0c8.52,1,14.73,4,14.73,7.63"/></g></g></svg>