<svg xmlns="http://www.w3.org/2000/svg" viewBox="0 0 57.91 57.84"><defs><style>.cls-1,.cls-2,.cls-3{fill:none;stroke-linecap:round;stroke-miterlimit:10;}.cls-1{stroke:#00e78f;}.cls-1,.cls-2{stroke-width:4px;}.cls-2,.cls-3{stroke:#063c60;}.cls-3{stroke-width:3px;}</style></defs><title>edit-icon Asset 156</title><g id="Layer_2" data-name="Layer 2"><g id="Layer_30" data-name="Layer 30"><path class="cls-1" d="M52,27.57V51a4.71,4.71,0,0,1-4.46,4.89H6.46A4.71,4.71,0,0,1,2,51V10.73A4.71,4.71,0,0,1,6.46,5.84H29.65"/><path class="cls-2" d="M50,2.3,27.34,24.91l-4.53,9.53a.51.51,0,0,0,.66.66L33,30.56,55.6,8a1,1,0,0,0,0-1.46L51.41,2.3A1,1,0,0,0,50,2.3Z"/><line class="cls-3" x1="30.88" y1="24.2" x2="33.71" y2="27.03"/></g></g></svg>
