<svg xmlns="http://www.w3.org/2000/svg" viewBox="0 0 95.4 121.02"><defs><style>.cls-1{fill:#ff7300;}</style></defs><title>kAsset 146</title><g id="Layer_2" data-name="Layer 2"><g id="Layer_18" data-name="Layer 18"><path class="cls-1" d="M17.7,104.47l.43-35.83q-8.49-1.73-13.31-6.4A14.57,14.57,0,0,1,0,51.52,14.23,14.23,0,0,1,4.89,40.87q4.89-4.6,13.24-5.62L17.41,7.34A8.43,8.43,0,0,1,19,2a5.21,5.21,0,0,1,4.32-2,5.21,5.21,0,0,1,4.32,2,7.41,7.41,0,0,1,1.58,4.68q0,2.67-.72,29,14.1,2.45,21.59,12.37A72.8,72.8,0,0,0,62,29.14,87.26,87.26,0,0,0,68.64,6.33Q69.78,0,74.54,0a4.63,4.63,0,0,1,3.52,1.44,5.41,5.41,0,0,1,1.37,3.88q0,10.23-7.19,25.62T55.83,56.41Q70.22,85.9,79,100q5.9,9.49,12.81,9.93H93c1.63,0,2.44.23,2.44.72v.72a9.72,9.72,0,0,1-2.52,7,7.93,7.93,0,0,1-6,2.67,11.08,11.08,0,0,1-5.83-1.44,16.17,16.17,0,0,1-3.3-2.45q-.94-1-3-3.45-4.18-4.75-12.24-20L47.05,63.17a50.11,50.11,0,0,1-18.56,5.9l1,34.39v1a6,6,0,0,1-2.74,5.47,6.6,6.6,0,0,1-3.16.86l-3.17-.86A6,6,0,0,1,17.7,104.47Zm.72-46.19V45.9a14.14,14.14,0,0,0-6.19,2.23A4.72,4.72,0,0,0,9.93,52Q9.93,56.27,18.42,58.28Zm9.78-11.8.15,12.66q9.21-.86,13.67-4A20,20,0,0,0,28.2,46.48Z"/></g></g></svg>