<svg xmlns="http://www.w3.org/2000/svg" viewBox="0 0 61 61"><defs><style>.cls-1{fill:none;stroke:#063c60;stroke-miterlimit:10;stroke-width:4px;}</style></defs><title>settings-iconAsset 157</title><g id="Layer_2" data-name="Layer 2"><g id="Layer_30" data-name="Layer 30"><path class="cls-1" d="M56,24.6H49.63a20.1,20.1,0,0,0-1.44-3.45l4.5-4.5a3,3,0,0,0,0-4.27L48.62,8.31a3,3,0,0,0-4.27,0l-4.5,4.5a20.1,20.1,0,0,0-3.45-1.44V5a3,3,0,0,0-3-3H27.62a3,3,0,0,0-3,3v6.35a20.1,20.1,0,0,0-3.45,1.44l-4.5-4.5a3,3,0,0,0-4.27,0L8.31,12.38a3,3,0,0,0,0,4.27l4.5,4.5a20.1,20.1,0,0,0-1.44,3.45H5a3,3,0,0,0-3,3v5.76a3,3,0,0,0,3,3h6.35a20.1,20.1,0,0,0,1.44,3.45l-4.5,4.5a3,3,0,0,0,0,4.27l4.07,4.07a3,3,0,0,0,4.27,0l4.5-4.5a20.1,20.1,0,0,0,3.45,1.44V56a3,3,0,0,0,3,3h5.76a3,3,0,0,0,3-3V49.63a20.1,20.1,0,0,0,3.45-1.44l4.5,4.5a3,3,0,0,0,4.27,0l4.07-4.07a3,3,0,0,0,0-4.27l-4.5-4.5a20.1,20.1,0,0,0,1.44-3.45H56a3,3,0,0,0,3-3V27.62A3,3,0,0,0,56,24.6Z"/><circle class="cls-1" cx="30.5" cy="30.5" r="10"/></g></g></svg>