<svg xmlns="http://www.w3.org/2000/svg" viewBox="0 0 82.16 81.36"><defs><style>.cls-1,.cls-2,.cls-3,.cls-4,.cls-5{fill:none;stroke-linecap:round;stroke-miterlimit:10;}.cls-1,.cls-3,.cls-4,.cls-5{stroke:#09466e;}.cls-1{stroke-width:4px;}.cls-2{stroke:#ff7300;}.cls-2,.cls-3{stroke-width:3px;}.cls-4{stroke-width:3.49px;}.cls-5{stroke-width:2.32px;}.cls-6{fill:#09466e;}</style></defs><title>shopping-list-iconAsset 111</title><g id="Layer_2" data-name="Layer 2"><g id="Layer_30" data-name="Layer 30"><path class="cls-1" d="M30.16,36V5.3A3.29,3.29,0,0,1,33.45,2H76.86a3.3,3.3,0,0,1,3.3,3.3V65.7a3.3,3.3,0,0,1-3.3,3.3H35.45"/><polyline class="cls-2" points="38.62 16 41.62 19 46.62 12"/><polyline class="cls-3" points="38.62 51.69 41.62 54.69 46.62 47.69"/><line class="cls-2" x1="52.16" y1="16" x2="69.16" y2="16"/><line class="cls-3" x1="52.16" y1="34" x2="69.16" y2="34"/><line class="cls-3" x1="52.16" y1="52" x2="69.16" y2="52"/><polygon class="cls-4" points="2.16 46.31 34.69 46.31 31.2 62.57 5.64 62.57 2.16 46.31"/><polyline class="cls-4" points="34.69 46.31 37.01 34.69 41.66 34.69"/><line class="cls-5" x1="12.12" y1="62.61" x2="23.83" y2="74.33"/><line class="cls-5" x1="25.83" y1="62.61" x2="13.8" y2="74.64"/><path class="cls-6" d="M10.8,75.8a1.37,1.37,0,1,1-1.37,1.37A1.37,1.37,0,0,1,10.8,75.8m0-2.73a4.1,4.1,0,1,0,4.1,4.1,4.09,4.09,0,0,0-4.1-4.1Z"/><path class="cls-6" d="M26.72,75.9a1.37,1.37,0,1,1-1.36,1.36,1.36,1.36,0,0,1,1.36-1.36m0-2.74a4.1,4.1,0,1,0,4.1,4.1,4.11,4.11,0,0,0-4.1-4.1Z"/></g></g></svg>