<svg xmlns="http://www.w3.org/2000/svg" viewBox="0 0 3392.46 372.23">
  <defs>
    <style>.cls-1{fill:#fff;}.cls-2{fill:#0071bc;}.cls-3{opacity:0.05;}</style>
  </defs>
  <title>cloudsAsset 41</title>
  <g id="Layer_2" data-name="Layer 2">
    <g id="CookingCloud">
      <path class="cls-1" d="M343.29,84.88c-10-57.22-76.67-97.12-131.85-79s-85.08,89.84-59.16,141.83A195.22,195.22,0,0,0,33,201.31c-15.53,15-29,33.61-31.48,55S10.47,301.78,31.09,308c28.32,8.59,87.36-11,126.36-35,26,28,109,28,134.75-20-15,48.35,26.15,101.63,75.89,111.07s101-16.28,135.1-53.67c13.42,39.94,64.07,62.5,102.75,45.76s56.89-69.1,36.95-106.23c26.76,30.68,63.8,55.55,104.51,55.81s82.67-31.31,83.17-72c.2-16.27-1.59-48.53-1.59-48.53s60.47-24.17,59.56-74.76c8-34.76-34.68-60.63-70.36-60.83a149.89,149.89,0,0,0-106,43.82c-17.39-37.75-64.06-56.26-105-49.12s-75.72,35.47-99.84,69.32C460.22,66.61,408.45,67,343.45,85"/>
      <path class="cls-2" d="M344.73,84.48c-8.41-46.16-52.05-80.81-98-84.22a91.92,91.92,0,0,0-63.5,19.16C165.37,33.36,152.48,53.3,146,75c-7.24,24.22-6.22,50.7,5,73.55l1.3-2.26a198.11,198.11,0,0,0-81.79,25.24C46.18,185.35,22.06,205,8.63,230-3,251.67-4.23,279.57,13.44,298.54c15.4,16.53,39.41,14.22,59.58,10.1,29.89-6.12,59.2-18.43,85.18-34.32l-1.81-.23c12.58,13.29,32.52,18.08,50.15,19.2,21.44,1.36,44.2-2.82,62.62-14.24a68.71,68.71,0,0,0,24.33-25.29l-2.74-1.15c-11,36.63,8.83,74.75,38.59,96.11,34.11,24.5,78.33,22.88,115.49,6.25,22.58-10.1,42.71-25.33,59.42-43.5l-2.51-.66c11.1,32.1,44.71,53.19,78.25,52.42,34.64-.79,62-26.9,70.1-59.74,4.48-18.2,2.87-37.63-5.9-54.31L641.83,251c28.35,32.28,70.42,60.9,115.44,55.7,37-4.27,74.07-33.54,74.8-73,.3-16.15-.7-32.41-1.59-48.53l-1.1,1.44c26.78-10.76,54-34,59.56-63.36,1-5.35,1-10.77,1.71-16.14a37.66,37.66,0,0,0-1.24-16c-3.11-10.3-10.34-18.83-18.76-25.28-20.82-16-47-19.87-72.5-16.48a152.17,152.17,0,0,0-87,43l2.35.31c-13.35-28.37-42.46-45.8-72.83-50.21-33.8-4.91-67.09,7.29-93.79,27.67a200.16,200.16,0,0,0-40.82,42.74l2.36-.31c-16.31-16.13-35.63-29-57.83-35.35-21.15-6-43.43-5.93-65.06-2.85a340.65,340.65,0,0,0-42.49,9.21,1.5,1.5,0,0,0,.8,2.89c42.74-11.76,89.61-18.65,130.24,3.64a146,146,0,0,1,32.22,24.58,1.51,1.51,0,0,0,2.35-.3c19.84-27.65,46.55-51.83,79-63.37C617,40.6,649.85,42.36,677,58c14.67,8.47,26.69,20.8,33.92,36.17a1.51,1.51,0,0,0,2.36.3,149.33,149.33,0,0,1,74-40.16c25-5.37,51-4.49,73.57,8.59,9.55,5.54,18.39,13.2,23.37,23.21s3.6,20.26,2.61,31C885,136.82,873,153.43,858,165.73c-8.69,7.17-19.27,13.93-29.46,18a1.55,1.55,0,0,0-1.1,1.45c.72,13,1.3,25.94,1.54,38.92.16,8.78.09,17.38-2.48,25.87a67.65,67.65,0,0,1-14.31,25.15A88.43,88.43,0,0,1,763,302.81c-20.84,4-42.74-.57-61.77-9.4C679.07,283.13,660,267.14,644,248.88c-1.17-1.33-3.12.36-2.36,1.81,14.95,28.45,7.85,65.26-13.91,88.27-23,24.34-59.31,26.91-88,11.25-16.05-8.77-29.05-22.8-35.07-40.2a1.51,1.51,0,0,0-2.5-.66c-27.95,30.38-67,53.77-109.13,55.13-38.12,1.22-74-18.62-92.26-52.4-9.73-18-13-38.91-7.1-58.67a1.51,1.51,0,0,0-2.74-1.16C271,288.61,219.43,297.57,182.6,286c-8.91-2.81-17.6-7.13-24.09-14a1.51,1.51,0,0,0-1.82-.24,278.78,278.78,0,0,1-70,30.5c-11.19,3.13-22.7,5.59-34.33,6.22-9.54.52-19.57-.09-28-5C1.16,290.05-1.41,258.92,8.68,236.63c11.21-24.76,33.84-44.31,56.49-58.46a194.75,194.75,0,0,1,87.11-28.92,1.52,1.52,0,0,0,1.29-2.25C134,107.15,147,56.5,179,27A89.22,89.22,0,0,1,238.71,3c22.39-.2,44.49,7.57,62.61,20.54,20.62,14.76,35.94,36.62,40.52,61.75.35,1.89,3.24,1.09,2.89-.8Z"/>
      <g class="cls-3">
        <path class="cls-2" d="M50,230.53c-25.61,3.1-56.42,58.14-40.05,77.34s48,20.79,70.89,9.38c33.49-16.66,65.18-57.14,98.61-40.36,9.12,4.58,15.9,13,25.59,16.36,34.84,11.93,52.08-45.95,87.53-56.11C300,279.53,327.27,342.7,368,363.53c42.55,21.79,116,3,133.56-60,9.15,18.31,19,37.44,36.29,49.09S609,377.27,626,365.53c25-17.34,20-47.38,21-58,2.58-27.1-4.16-56.51-4-57,33,23,35.84,26.29,75.42,35.66,24.53,5.81,52.23,8.32,73.49-4.8s28.6-47.28,7.95-61.28c-7.57-5.13-17.1-6.6-26.26-7.94L636,192.16c-20.2-2.93-41.24-5.82-60.74,0-16.59,5-31.66,16.17-49,15.89-14.05-.23-27.14-8.08-41.19-7.85-36.51.59-55.28,52.34-91.79,52-20.26-.2-35.55-16.64-51.52-28.63-25-18.77-57.34-28.31-89-26.29-21.58,1.38-42.4,7.87-63.29,13.28C132.18,225.4,109.21,231.77,50,230.53"/>
      </g>
      <path class="cls-1" d="M1664.56,113.58c6.2-48-34.41-96.82-82.73-99.45s-94,41.48-93,89.87c-33.07-29.75-80.23-47.33-122.89-34.75S1291.47,130.9,1307,172.59c-35.35,9.52-72.48,32.42-77.44,68.7-5.69,41.6,36.68,77.17,78.55,80.4s81.79-16.15,119.3-35c-2.57,37.34,40.07,64.84,77.33,61.21s68.75-28,98-51.43c21.63,42.56,76.61,61.12,123,49.94s84-46.67,108.46-87.64c23.38,71.39,120.37,106.49,184,66.61,12.17-7.62,23.31-17.5,37.08-21.55,13.06-3.84,27-2,40.62-2.08a143,143,0,0,0,61.48-14.36c13.36-6.5,26.18-15.66,32.85-28.93,14.93-29.73-8.68-67.16-39.69-79.21s-65.75-6.11-98.45,0c-2.52-44.68-44.69-79-88.56-87.8S1874.46,93.3,1831,104c5.47-41.95-28.51-72.21-70.55-76.92s-92,44.87-96,87"/>
      <path class="cls-2" d="M1666.06,113.58c4.62-38.46-19.36-77.11-54-93.24-35.82-16.66-77-4.32-102.3,24.91-14.11,16.31-22.68,37.06-22.44,58.75l2.56-1.06c-28.27-25.2-66.33-42.41-104.81-38.85-33.85,3.13-63.8,24.45-77.16,55.91-7.15,16.84-8.59,35.65-2.34,53l1-1.85c-39.29,10.75-87.31,41.37-78,88.83,4.18,21.24,19.76,38.68,37.88,49.62,21.34,12.88,45.64,16,70.08,12.54,32.53-4.62,62.54-19.58,91.57-34.18l-2.26-1.29c-1.49,26.87,19,47.88,42.65,57.26,29.63,11.78,60.91,3.05,87.55-12.24,17-9.75,32.4-22,47.65-34.18l-2.36-.3c16.6,32,51.11,50.3,86.23,53.4,38.7,3.42,75.71-13,104.39-38.21,17.23-15.14,31.63-33.28,43.44-52.9l-2.74-.35c22,66,105,101.85,169.06,76.2a123.53,123.53,0,0,0,23.85-13.11c10.47-7.17,20.84-15.06,33.48-17.86,13.19-2.93,26.86-.81,40.23-1.21a144.92,144.92,0,0,0,36-5.7c20.48-6,43.54-16.49,54.78-35.67,9.34-16,7.21-35.2-1.52-50.93-11.2-20.17-30.84-33-53.17-37.64-27.73-5.74-56.32-.56-83.73,4.54l1.9,1.45c-2-30.84-22-56.51-47.6-72.46-31.78-19.83-69.7-22.64-106.13-18.22-23.41,2.85-46.37,8.37-69.24,14l1.9,1.45c4.31-35.7-20.39-64.31-53.32-74.55-16.68-5.19-33.26-5.52-49.57,1.12-16.67,6.8-31.3,18.56-42.83,32.27C1674.56,77.31,1664.93,94.92,1663,114c-.2,1.92,2.8,1.9,3,0,3.4-32.79,29.81-63.38,58.45-77.85a67.33,67.33,0,0,1,47.6-5.63c15.69,3.72,30.69,11.42,41.73,23.35,12.66,13.68,18,31.65,15.77,50.05-.13,1,1,1.65,1.89,1.44,38.35-9.39,77.9-19,117.65-14.7,31.43,3.39,62.16,17.4,82.52,42.12,10.88,13.23,17.88,29.24,19,46.4a1.53,1.53,0,0,0,1.9,1.45c42.63-7.94,96.85-16.46,127.4,22.51,11.62,14.84,17.9,35.42,9.61,53.32-9.43,20.37-33,31.42-53.32,37.59a141.53,141.53,0,0,1-35.12,6c-12.38.53-24.82-1.14-37.15.43-21.09,2.69-35.58,18.23-53.67,27.66-29.46,15.35-64.89,15.64-96,5.12-35.57-12-66.59-38.8-78.66-75a1.53,1.53,0,0,0-2.75-.36c-19.82,32.93-47.63,62.39-83,78.49-33,15-71.65,15.76-104.35-.69-17.62-8.87-32.4-22.51-41.51-40.09a1.53,1.53,0,0,0-2.36-.31c-24.76,19.85-51,40.69-82.43,48.47-26.44,6.55-55.43.53-75-19.18-10.14-10.2-16.1-23.52-15.29-38a1.52,1.52,0,0,0-2.26-1.3c-44.17,22.22-98.8,49.29-148.2,27.1-19.37-8.7-37.17-24.25-44.51-44.61-7.27-20.18-2-41.84,11.66-58,15.61-18.48,38.86-29.54,61.8-35.82a1.52,1.52,0,0,0,1-1.85c-11-30.51,3-63.79,26.61-84.18,27.28-23.53,65.2-25.91,98.39-14.89a156.15,156.15,0,0,1,54.3,31.94,1.52,1.52,0,0,0,2.56-1.06c-.41-37.49,26.57-72,61.58-84.07,36.41-12.49,75,4.1,96.12,35.15,11.68,17.14,17.56,37.79,15.07,58.5-.23,1.91,2.77,1.89,3,0Z"/>
      <g class="cls-3">
        <path class="cls-2" d="M1253.37,244.26c-14.06,14.37-11.85,39.51.86,55.09s33.11,22.94,53,25.54c49.48,6.43,101.63-14.05,133.51-52.42-1.55,37.93,29.59,74.33,67.3,78.68s76.32-24,83.43-61.3c21.16,46.38,72.4,77.23,123.3,74.2s98.12-39.74,113.61-88.31c12.33,36.84,45.06,66.1,83,74.22s79.83-5.17,106.14-33.73c3.68-4,7.26-8.39,12.28-10.43,5.69-2.32,12.13-1.18,18.15,0,41.92,8.41,92.54,15.7,121.13-16.09,9-10,14.42-25,8.44-37-2.82-5.69-7.84-10-13.27-13.31-35.37-21.5-80.53-1.95-117,17.63-6.62,3.56-13.49,7.19-21,7.73-12.62.91-23.94-6.95-34.77-13.49a201.87,201.87,0,0,0-70.87-26.2c-23.75-4-48.57-3.76-70.84-12.91-35.82-14.71-66.23-53.06-104-44.72-35.9,7.91-55.83,55.85-92.59,55.56-15.07-.12-28.51-8.77-41.79-15.9-29.34-15.74-66.79-24.59-95-6.88-7.07,4.44-13.42,10.48-21.49,12.63-15.4,4.12-30.66-7.1-46.57-8-34.68-2-53.15,41.29-84.43,56.41-36.55,17.67-78.7,7.82-111-16.72"/>
      </g>
      <path class="cls-1" d="M2937.68,129c-5.81-29.54-39.23-51.94-63.25-56.23-90-7.71-121.3,55.82-121.3,55.82C2682.45,74,2591.45,110,2584.45,153c0,0-78,9-87.73,59.09-6.34,32.63,13.62,67.61,44.83,79s92.9-14.13,112.23-34.44c24.83,20.58,57,29.69,89.49,26.91,42.18-3.6,88.8-42.67,88.8-42.67s26.38,67.07,77.29,69.81c59.64,10.74,105.15-32.92,105.15-32.92S3059.45,328,3128.1,328c42.35,0,99.35-24,111.33-61.2,31,26.22,102,9.22,109.19-37.15,30.83-17.63,48.83-56.63,40.43-85.45-8.27-32.43-58.63-48.75-76.45-20.41-7.44-51.28-60.07-89.36-111.84-87.24s-98.43,39.3-119.29,86.73c-21-45.26-66.54-41.09-85-37.26-22.13,4.58-47.19,21-59,43"/>
      <path class="cls-2" d="M2939.13,128.57c-4.29-20.43-20.12-36.62-37.64-46.9-8-4.71-17.35-9-26.66-10.37-11.1-1.59-23.08-.94-34.17.44-30.16,3.76-58.74,17.67-78.44,41.1a77.48,77.48,0,0,0-10.38,15l2-.54c-25-19.07-55.85-29.31-87.36-27.61-24.17,1.31-49.68,9.3-67.68,26.07-7.73,7.2-14,16.36-15.85,26.91l1.45-1.1a156.29,156.29,0,0,0-34.3,8.39c-19,6.81-38.51,17.65-48.86,35.7C2488,218.74,2494,249,2509.74,269.3c8.36,10.8,20,19.75,33.1,23.88,11.12,3.5,23.39,2.61,34.71.66a175,175,0,0,0,44.83-14.66c11.59-5.49,23.46-12.1,32.46-21.4h-2.12c25.28,20.68,58.06,30.22,90.55,27.35,26.61-2.34,51.79-16.12,73.48-30.94,5.61-3.83,11.17-7.81,16.39-12.17l-2.51-.66c8.6,21.78,23.52,43.28,42.41,57.2,16.15,11.91,36,15.5,55.78,15.41,20.6-.08,40.8-6.06,58.89-15.72,9.85-5.26,19.74-11.58,27.86-19.34h-2.12c16.13,17.95,38.74,31.67,61,40.33,40.42,15.73,85.37,12.53,123.65-7.7,18.3-9.67,36-24.07,42.78-44.33l-2.51.66c15.85,13.12,38.34,15,57.83,10.86,20.3-4.28,40.9-16.09,49.88-35.55a51.15,51.15,0,0,0,2.63-7c.36-1.23.59-2.49.93-3.73.55-2.05,1.19-2.32,3-3.48a84.56,84.56,0,0,0,15.84-13.14A90.67,90.67,0,0,0,3389,181.37c7.17-22.39,3.84-47.48-15.74-62.34-18.09-13.74-48-17.4-61.94,4l2.74.36c-6.14-40.25-39-71.9-77-83.52-40-12.24-82.56.31-114.22,26.43a154.71,154.71,0,0,0-42.64,56.22h2.59c-10.39-21.92-29.44-36.31-53.55-39.46a94.77,94.77,0,0,0-58.36,11.24c-14.24,8-26.78,19.57-34.7,34-.93,1.69,1.66,3.21,2.59,1.51,20.6-37.4,75-57.39,113.81-36.31,12.54,6.8,21.57,17.81,27.62,30.57a1.5,1.5,0,0,0,2.59,0C3099.27,87,3131,56,3170,43.56A112.57,112.57,0,0,1,3280.37,68c16.14,14.86,27.46,34.37,30.79,56.16.21,1.38,2.11,1.34,2.74.36,12.07-18.56,37.55-16.11,54.16-5.5,20.19,12.89,25.09,36.55,18.9,58.67a86.85,86.85,0,0,1-18.48,33.67,83.2,83.2,0,0,1-15.25,13.6c-1.64,1.13-4.85,2.24-5.91,3.91s-1.05,5-1.65,7c-5.89,19.44-23.93,32.27-42.63,38-20.19,6.2-45.56,6-62.55-8.11a1.52,1.52,0,0,0-2.51.67c-6,18.11-21.53,31.29-37.66,40.48a152.89,152.89,0,0,1-58.55,18.84c-38.35,4.18-76.6-9.29-107.1-32.13a130.57,130.57,0,0,1-19.1-16.82,1.53,1.53,0,0,0-2.12,0c-19.74,18.86-48.41,31.37-75.38,33.76-11.27,1-22.44-.17-33.6-1.75a63.68,63.68,0,0,1-24.59-9.21c-13.78-8.56-24.7-21.26-33.44-34.78a140.61,140.61,0,0,1-12.92-24.25,1.53,1.53,0,0,0-2.51-.66A228.08,228.08,0,0,1,2789.56,267c-12.18,6.3-25.12,11.59-38.67,14.07-15.38,2.81-31.85,1.87-47-1.58a119,119,0,0,1-49-23.86,1.53,1.53,0,0,0-2.12,0c-7.39,7.62-16.8,13.26-26.16,18.11a182.3,182.3,0,0,1-37.06,14.36c-11.82,3.14-24.32,5.27-36.57,4-13-1.33-25.1-8.31-34.35-17.38-18.82-18.48-28.36-49.71-16.4-74.41,8.8-18.18,27.39-29.39,45.62-36.39a155.78,155.78,0,0,1,36.65-9.44,1.53,1.53,0,0,0,1.44-1.1c3.48-20,22.35-33.75,39.83-41.35,24.63-10.71,53.07-12.32,79-5.69a133,133,0,0,1,47.66,23.47,1.51,1.51,0,0,0,2-.54c6.79-13.7,19.2-25.5,31.54-34.08a120,120,0,0,1,44.11-18.74c19.83-4.12,42.15-5.37,60.94,3.12,20.63,9.31,40.4,26.8,45.21,49.75.4,1.89,3.29,1.09,2.9-.8Z"/>
      <g class="cls-3">
        <path class="cls-2" d="M2497.29,227.22c-3.31,36,31.17,67.7,67.2,70.45s70.58-17.23,95.33-43.56c3.48-3.69,7.21-7.75,12.22-8.56,6.93-1.12,13,4.3,18.45,8.67,28,22.3,71.16,23,100,1.74,12.18-9,26.12-22.26,40-16.1,5.32,2.37,9,7.25,12.46,12,20.09,27.75,31.12,43.06,60.71,60.34s73.84,15.55,91.7-13.7c5.2-8.51,9.28-17.56,18.67-20.94,4.42-1.6,16.77,12,21.4,12.74,31.23,5.35,59.7,21.36,90.58,28.46s68.57,2.29,85.77-24.32c4.84-7.5,7.86-16.44,14.62-22.28,10.43-9,39.61-8.56,39.61-8.56s73,3,91.09-62.49c1.91-6.91,5.33-13.92,3.22-20.78-2.84-9.21-12.76-14.31-22.18-16.38-34.51-7.57-68.37,11.85-100.39,26.8-5.73,2.68-11.75,5.29-18.08,5.27-7,0-13.44-3.18-19.92-5.7-42.32-16.46-94.08-4.79-125.24,28.25-6.71,7.11-13.3,15.57-22.88,17.51-7.51,1.51-15.1-1.39-22.33-3.91a245.67,245.67,0,0,0-81.53-13.68c-23.22.08-47,3.4-69.3-3-32.66-9.27-62.41-38.71-95.17-29.81-10.4,2.83-19.78,9.47-30.53,10.27-8.86.66-17.46-2.76-25.63-6.25-30.5-13-66-27.81-95.1-11.94-7,3.8-13.05,9.2-20.3,12.47-21.87,9.89-47.59-1.81-71.28,2.09-20.72,3.41-38.7,19.88-43.9,40.22"/>
      </g>
    </g>
  </g>
</svg>
