<svg xmlns="http://www.w3.org/2000/svg" viewBox="0 0 3404.79 587.29"><defs><style>.cls-1{fill:#fff;}.cls-2{fill:#0071bc;}.cls-3{opacity:0.05;}.cls-4{fill:#3fa9f5;}.cls-5{fill:#00e78f;}.cls-6{fill:#333;}.cls-7{fill:#f2f2f2;}.cls-10,.cls-8,.cls-9{fill:none;stroke:#333;stroke-miterlimit:10;}.cls-8{stroke-width:0.8px;}.cls-9{stroke-width:1.6px;}.cls-10{stroke-width:0.78px;}.cls-11{opacity:0.59;}.cls-12,.cls-21{fill:#b3b3b3;}.cls-12{opacity:0.09;}.cls-13{fill:red;}.cls-14{fill:#009245;}.cls-15{fill:#f7931e;}.cls-16{fill:#00a99d;}.cls-17{fill:#fbb03b;}.cls-18{fill:#39b54a;}.cls-19{fill:#8cc63f;}.cls-20{opacity:0.42;}.cls-22{opacity:0.86;}.cls-23{fill:#09466e;}.cls-24{opacity:0.84;}.cls-25{opacity:0.02;}</style></defs><title>cookbook-cloudsAsset 57</title><g id="Layer_2" data-name="Layer 2"><g id="Layer_12" data-name="Layer 12"><path class="cls-1" d="M834.13,150.89c3.07,0,3.08-4.78,0-4.78s-3.09,4.78,0,4.78Z"/></g><g id="CookingCloud"><path class="cls-1" d="M1481.14,234.31c-27.11,11.7-26.49,25.88-41.94,46-3.33-27.74-20.45-34.23-59.53-48.19-29.68-10.61-64.93-13.08-96.18-4.87-49.3,12.95-84.37,52.18-79.76,91.12-27.16-7.29-58.79-8-83.78,2.74-28.45,12.3-42.81,44.09-30.8,67.19,7.23,13.91,55.24,34.12,75,24.78-28.85,13.67-50.37,75.1-28.41,94.66s59.77,25.71,93.53,21.88,64.61-16.08,94.71-28.14c22.44,24.51,51.33,46.53,87.39,59s80,14.19,114.87,0c25.42-10.33,44-27.86,61.78-44.91,45.91,39.24,118.09,60.35,187.4,54.81s133.9-37.58,167.7-83.18a166.75,166.75,0,0,0,92.55,48.51c37.64,6.14,80.29-2.07,105.23-24s27.63-57.7,2.07-79.28c33.12-19.93,62.93-44.32,77.93-74.07s13-65.55-12.59-90.91S2131,231.29,2095,248.21c-21.91-21.46-51.41-40.07-86.76-45.53s-76.6,5.29-92.56,29.51c-35.21-11.38-72.52-22.11-110.75-19.78-48,2.91-89.16,25.74-126.49,48.48-5.42,3.3-11.36,6.78-18.35,7-5.34.18-10.42-1.6-15.24-3.33l-81.2-29.2c-14.05-5.05-28.7-10.21-44.28-10.16C1505.84,225.25,1492.86,229.25,1481.14,234.31Z"/><path class="cls-2" d="M1480.81,233.74c-9.9,4.38-18.54,10.19-24.91,19.07s-10.8,18.51-17.32,27.11l1.34.36c-1.88-14.66-8.7-25.53-21.53-33-7.84-4.55-16.41-7.81-24.88-11-12.54-4.67-25.09-9.1-38.26-11.63-46-8.82-98.79.71-131.4,36.6-14.15,15.58-23.37,35.68-21.2,57l1.37-1c-36.58-9.78-88.75-10.05-111.78,25.79-8.28,12.87-11.45,29.61-4.92,43.9,5.16,11.3,19.64,17.57,30.43,21.94,13.75,5.56,32.5,11.53,47,5.16l-1.21-2.07c-13.08,6.41-22.2,19.35-28.37,32.14-6.49,13.44-11,29.13-9.39,44.17s10.86,23.48,23.68,30.29c17.7,9.39,38.26,12.94,58.13,13.23,23.7.35,47.25-4.56,69.75-11.72,12-3.84,23.88-8.31,35.64-12.95,2.5-1,5-2.2,7.56-3,3.3-1,3.75-.49,6.08,1.95q6,6.35,12.53,12.25c32.34,29.38,72.87,48.91,116.64,52.66,24.58,2.1,50.12-.51,72.94-10.26,23.35-10,42.09-27,60.21-44.33h-1.86c39.5,33.45,91.35,50.79,142.44,55.09,53.14,4.47,108-6.16,154.61-32.35,23.17-13,44.19-30,60.18-51.34l-2.18.28c30.78,31.82,74.3,51,118.71,50.9,37-.11,86-13.65,98.82-53,6.53-20,0-40.91-15.73-54.61l-.28,2.15c37.92-22.93,81.3-56.07,87.4-103.33a75.65,75.65,0,0,0-16.86-58.54c-12.94-15.41-31.78-24.87-51.09-29.62-22.69-5.58-47.4-4.94-68.85,4.85l1.87.24c-26.06-25.36-59.53-44-96.23-47.1-29.83-2.54-67.74,4.89-85.73,31.27l2-.82c-29.49-9.51-59.64-18.27-90.77-19.85-29.46-1.49-58.31,4.66-85.47,15.88a351.78,351.78,0,0,0-36.45,17.81q-8.23,4.57-16.31,9.41c-6.5,3.87-13,8.79-20.27,11.23-7.83,2.64-15.19.35-22.65-2.32L1620.3,254l-45.82-16.46c-15.83-5.69-31.85-12.32-48.79-13.68-15.83-1.28-30.85,3.05-45.28,9.18-1.71.72-.24,3.22,1.46,2.5,14.51-6.16,30.07-10.05,45.9-8.3,15.16,1.67,29.55,7.53,43.78,12.65l45.8,16.49,20.82,7.49c6.41,2.31,13,5.29,19.93,5.62,12.53.62,23.72-8.85,33.94-14.86,11.46-6.74,23.1-13.17,35.11-18.87,26.44-12.56,54.83-21.26,84.27-21.92,35.61-.8,70.21,9.25,103.78,20.06a1.85,1.85,0,0,0,2-.83c17.51-25.73,55.47-32.25,84.32-29.57,35.15,3.27,67.35,21.55,92.35,45.78a1.62,1.62,0,0,0,1.88.25c34.85-16,83.94-8.28,111.48,18.81a72.59,72.59,0,0,1,21.4,57.39c-1.63,21.74-12.48,41.33-26.55,57.54-16.84,19.41-38,34.62-59.87,47.86a1.37,1.37,0,0,0-.27,2.15c14.2,12.35,20.77,30.65,15.89,49.08-4.92,18.61-19.64,32.07-36.36,40.48-37.11,18.65-83.12,16.85-121,1.45a166,166,0,0,1-56.48-38.16,1.42,1.42,0,0,0-2.19.29c-29.34,39.2-75.66,63.63-122.43,75.3-51.16,12.77-105.93,10.31-155.92-6.35-27-9-52.81-22.35-74.62-40.8a1.34,1.34,0,0,0-1.86,0c-13.71,13.12-27.66,26.2-44,36-17.56,10.48-37.22,16.24-57.55,18-39.57,3.34-79.42-7.21-113-28.07a229.52,229.52,0,0,1-47.58-39.88,1.2,1.2,0,0,0-1.22-.32c-44.69,17.9-92,35.67-140.9,26.89a110.92,110.92,0,0,1-30.61-9.86c-7.33-3.72-15.71-8.57-19.95-15.88-7.64-13.21-4.12-31.26.54-44.84,5.63-16.42,15.9-34.46,32-42.47,1.39-.69.17-2.68-1.21-2.07-12,5.35-27.57,1.08-39.29-3-11-3.81-25.8-9.63-33-19.5-8.91-12.26-5.6-30.63,1.39-42.84,9-15.63,24.39-24.87,41.51-29.21,22.71-5.76,46.8-3.88,69.29,1.89a1.09,1.09,0,0,0,1.37-1c-4.58-41.14,31.43-73.58,66.87-86.6,45.32-16.65,94-7.14,136.83,12.19,7.29,3.29,14.66,7.19,20.17,13.11,6,6.45,8.69,14.66,9.81,23.24a.72.72,0,0,0,1.33.37c6-8,10.4-16.85,15.89-25.14,6.41-9.66,15.26-16,25.76-20.63C1482.25,234.53,1481.58,233.4,1480.81,233.74Z"/><g class="cls-3"><path class="cls-4" d="M1157.19,501.22c29.83,37,91.17,25.89,158.94-1.44,7.39-3,35.28,27.88,41.7,32.46,37,26.37,83.68,44,129.9,38.35s89.92-39.09,95.08-82.25c40.22,49.73,100.23,88.72,166.94,92.71S1925.5,537.56,1943,477.48c39,19.39,73.61,57.72,117.79,56.82,32.19-.65,82.3-6.47,95.2-46.67,10.6-33-3.7-52.94-42.34-45.37-56.47,11.07-131.2,12.22-182-15.56-7.44-4.07-14.66-8.88-23.16-10.64-25.62-5.31-46,17.69-62.78,35.78-63,68.15-180.4,97-267,54.19-28.8-14.24-55.77-36-88.7-36-25.61,0-49.17,13.57-74.75,14.65-24.72,1.05-48-9.58-69.81-19.91-39.62-18.73-51.41-24.95-88.35-1.11-27,17.4-63.48,47.59-100,37.53"/></g><path class="cls-5" d="M1394.63,68.12c27.35,118.76,39.21,220.72,46.13,342.32,43.2-7,201-41.18,228.08-48.89,21.27-6.06,39.58,2.08,60.35,5.78,23.9,4.26,195.1,49.26,208.17,28.72,1.57-2.46,1.49-5.58,1.35-8.49-6.32-131.71-1.9-236.31-13.47-365.32A13.13,13.13,0,0,0,1909.4,10.7c-20.52,4.29-56.54,8.29-62,10.32-27.91,10.3-103.93,33.06-191.94,57C1594.25,59.86,1394.12,65.91,1394.63,68.12Z"/><path class="cls-6" d="M1405.17,68.47q20.7,150.5,40.51,301.09l2.5,18.83,1.25,9.41.32,2.35.15,1.17a7,7,0,0,0,.23,1,7,7,0,0,0,2.2,3.4,7.11,7.11,0,0,0,3.73,1.6,10.52,10.52,0,0,0,4.26-.62l9.18-2.43,18.36-4.86,73.43-19.4,36.73-9.63c12.25-3.19,24.47-6.53,36.88-9.2a215.42,215.42,0,0,1,37.69-5.11,259.08,259.08,0,0,1,38,1.44c12.61,1.31,25.13,3.29,37.61,5.44l37.38,6.67,74.79,13.24,37.4,6.6,18.7,3.28c3.11.53,6.27,1.12,9.32,1.61a5,5,0,0,0,3.92-1.32,4.89,4.89,0,0,0,1.53-3.84c-2.72-25.11-5-50.4-6.48-75.67a1509.47,1509.47,0,0,1-1.61-151.92c1-25.31,2.53-50.58,2.23-75.85s-2.46-50.55-8.83-74.94l1.18.95a126.66,126.66,0,0,0-32.3,3.36,297.61,297.61,0,0,0-31.37,9.36l-62,22-62,21.94L1699,79.3A160,160,0,0,1,1683.07,84a74.6,74.6,0,0,1-16.52,2c-11.18,0-22-2.7-32.61-5.44s-21.25-5.35-32-7.51-21.53-4-32.38-5.4-21.77-2.35-32.71-2.93c-21.88-1.12-43.81-.59-65.71.4s-43.8,2.44-65.7,3.51l0-.24c21.9-1.28,43.77-2.9,65.68-4.13,11-.6,21.91-1.09,32.89-1.29s22-.09,32.93.39,21.93,1.4,32.83,2.72,21.76,3.09,32.54,5.21,21.49,4.65,32.11,7.4S1655.7,84,1666.54,84a72.59,72.59,0,0,0,16-2,157.69,157.69,0,0,0,15.64-4.7l31-11,62-22.06,62-22a298.91,298.91,0,0,1,31.63-9.46,127.65,127.65,0,0,1,33-3.44l1,0,.24.92c6.38,24.68,8.49,50.22,8.73,75.56s-1.32,50.69-2.39,76c-2.16,50.55-2,101.22.91,151.75,1.37,25.28,3.51,50.45,6.1,75.69a6,6,0,0,1-6.7,6.29c-3.19-.52-6.25-1.11-9.38-1.66l-18.68-3.38-37.39-6.69-74.77-13.33L1748,363.8c-12.47-2.12-25-4.06-37.56-5.34a254.45,254.45,0,0,0-37.84-1.21,214.31,214.31,0,0,0-37.44,5.33c-12.33,2.74-24.52,6.14-36.75,9.41l-36.67,9.86-73.38,19.6-18.35,4.89-9.17,2.45c-.8.2-1.46.42-2.39.6a8.61,8.61,0,0,1-2.68.08,9.13,9.13,0,0,1-7.74-6.55,9.86,9.86,0,0,1-.28-1.31l-.16-1.18-.3-2.36-1.23-9.41-2.45-18.83Q1424,219.22,1404.93,68.5Z"/><path class="cls-7" d="M1465.74,401.13c41.5-15,83.21-29.45,124.52-45,17.73-6.65,90.47-17.18,90.47-17.18s70.2,9.34,102.58,15.23c70.52,12.82,124.74,19.54,124.74,23.18.14-66.27-.13-117-.13-183.06-1.62-50.13-1.13-115.13-1.13-165.35.08-13.63-23.31-29-23.31-29S1802.09,3.32,1746,27.65c-42.47,18.43-95.35,42.45-95.35,42.45s-62.58-22.21-144.26-28.83c-14.83-1.2-61.31,1.2-61.31,1.2S1422,61.88,1424.28,72.13c14.11,63,26.43,159.26,33.36,223.45C1458.72,305.62,1471.35,399.11,1465.74,401.13Z"/><path class="cls-6" d="M1877.59.4c0,.2-.16.21-.22.26l-.23.07-.44.1q-.43.08-.87.12c-.58.07-1.16.12-1.75.16-1.16.09-2.32.16-3.49.21l-7,.31-13.94.69q-14,.74-27.79,2.34a205,205,0,0,0-27.35,4.87c-8.93,2.47-17.89,5-26.7,7.94s-17.58,6-26.21,9.5-17.15,7.22-25.48,11.35-16.56,8.5-24.67,13.08l-6.06,3.46-6,3.54-6,3.6c-1,.6-2,1.21-3,1.79a20.93,20.93,0,0,1-3.28,1.47A37,37,0,0,1,1653,66.79a82.7,82.7,0,0,1-13.94-2.17c-4.57-1.07-9.06-2.4-13.51-3.85s-8.81-2.94-13.27-4.25q-13.33-4-27-6.81a268.73,268.73,0,0,0-27.46-4.28c-18.44-1.92-37.07-1.82-55.67-1.34l-27.93.71a70.74,70.74,0,0,0-27.09,5.4l-.1-.22a70.92,70.92,0,0,1,13.23-4.58c2.28-.54,4.59-1,6.91-1.3s4.7-.45,7-.54c9.3-.41,18.6-1,27.91-1.36s18.64-.68,28-.66,18.69.44,28,1.33A284,284,0,0,1,1613,54.36c4.45,1.37,8.91,2.88,13.28,4.41s8.81,2.88,13.29,4a86.44,86.44,0,0,0,13.6,2.38A35.29,35.29,0,0,0,1666.68,64a19,19,0,0,0,3.11-1.32c1-.51,2-1.14,3-1.71l6.07-3.48,12.18-6.84q12.24-6.77,24.7-13.09l6.27-3.1,6.32-3c4.22-2,8.46-3.92,12.75-5.75q12.86-5.53,26.09-10.15c8.86-3,17.77-5.72,26.82-8.1a206.48,206.48,0,0,1,27.67-4.65c9.29-1,18.61-1.46,27.93-1.77,4.66-.16,9.32-.2,14-.24l7-.06,3.49-.06c.58,0,1.16,0,1.74-.07.29,0,.58,0,.86-.08l.42-.07c.12,0,.3-.13.27-.08Z"/><path class="cls-8" d="M1429.89,100.17c6.72,22.33,9.8,46.5,14.61,69.48q2.49,11.94,4.84,23.93c5.84,30,10.74,60.28,13.53,90.76,3.44,37.61-2.63,77.92,5.6,114.79.39,1.77,114.75-33.67,125-37.25,20.92-7.3,86.86-22.49,86.86-22.49s82.26,11.46,103.38,15.23c67.32,12,80.14,4.81,117.24,14.54-3.78-127.39,10-212.52,6.17-339.91"/><path class="cls-9" d="M1479.42,381.48c-6.31-47,.35-95-5.2-142.07-3.09-26.21-9.92-51.82-16.74-77.32L1431,62.84c12.93,27.33,26.19,45.62,34,74.82,22.54,84.27,22.75,172.67,22.81,259.9"/><path class="cls-6" d="M1447,49.86a567.24,567.24,0,0,1,31.35,81.55l1.56,5.24,1.43,5.28c.94,3.52,1.93,7,2.83,10.56,1.72,7.08,3.54,14.13,5.11,21.25s3.12,14.23,4.64,21.35c.73,3.57,1.36,7.16,2.07,10.73l1,5.37.92,5.38,1.8,10.78,1.56,10.82c.56,3.61,1,7.23,1.41,10.85l.64,5.43c.22,1.81.42,3.62.57,5.43l1,10.89c.35,3.63.53,7.27.8,10.91.56,7.27.8,14.56,1.11,21.83.6,14.55,1.05,29.1,2.56,43.56a194.51,194.51,0,0,0,8.79,42.62l-.15.05a181.26,181.26,0,0,1-9.89-42.53c-1.72-14.5-2.38-29.08-3-43.63-.31-7.27-.63-14.54-1.13-21.8-.24-3.62-.39-7.26-.71-10.88l-.93-10.87c-1.44-14.47-3-28.95-5.35-43.31l-.83-5.4-.94-5.38c-.63-3.58-1.23-7.17-1.94-10.74l-2.2-10.69c-.68-3.58-1.62-7.1-2.43-10.65s-1.63-7.09-2.6-10.6l-2.83-10.54c-1-3.51-2-7-3-10.48l-1.54-5.24-1.64-5.2-3.26-10.41L1470.36,111c-1.1-3.47-2.36-6.89-3.57-10.32s-2.37-6.87-3.7-10.26l-3.85-10.21c-1.28-3.41-2.69-6.76-4-10.15-2.63-6.78-5.59-13.43-8.36-20.17Z"/><path class="cls-6" d="M1886.78,353.77l1.67-43.71c.56-14.6,1-29.2,1.45-43.8.89-29.2,1.41-58.41,1.89-87.62L1893.26,91l.83-43.82q.48-21.91,1.26-43.82l.86,0L1892.59,91q-1.77,43.78-3.16,87.59l-.63,21.91-.56,21.9-.51,21.91-.4,21.91C1886.86,295.39,1886.85,324.69,1886.78,353.77Zm0,.16c-.78-29.35-.78-58.5-.6-87.74l.21-21.92.32-21.92c.26-14.61.67-29.22,1.08-43.83.83-29.21,2-58.41,3.31-87.61s2.8-58.37,4.26-87.56l.86,0q-.9,21.89-1.51,43.79l-.54,21.91L1893.83,91c-.41,29.21-.39,58.43-.71,87.65s-1,58.44-2,87.65c-.5,14.6-1.15,29.2-1.84,43.79-.33,7.3-.73,14.6-1.14,21.89l-.63,10.94-.35,5.53Z"/><path class="cls-6" d="M1883.43,0c.33,13.69.44,27.37.5,41.05s0,27.37-.23,41.05l-.48,20.52c-.17,6.84-.34,13.68-.43,20.52-.17,13.69-.14,27.37,0,41.05s.2,27.37.17,41,0,27.37-.15,41.05c-.32,27.37-.8,54.73-1.76,82.09h-.24c-.56-27.37-.64-54.74-.56-82.1.07-13.68.27-27.36.45-41s.44-27.36.77-41,.54-27.36.57-41c0-6.84,0-13.69-.13-20.53l-.18-20.52c-.07-13.69.21-27.37.38-41s.56-27.36,1.1-41Z"/><path class="cls-10" d="M1661.73,76.2c7.21,19.8,8.59,40.93,9.4,61.76,2.41,62.06,13.42,124.53,6.79,186.2"/><g class="cls-11"><path class="cls-1" d="M1473.17,97.59a162.39,162.39,0,0,1,8.12,20.3c26.4,77,35.94,249.84,42.44,251.58,7.89,2.11,48.23-22.78,65.12-23.7,7.21-.39,15.91-2.08,17.8-8,1.73-5.42-3.52-10.56-7.39-15.23-8.63-10.4-11.68-23.93-8.13-36.07,1-3.31,2.41-6.65,1.91-10.06-1.79-12.13-24.24-14.33-29.31-25.83s10.89-25,3.45-35.75c-1.84-2.65-4.84-4.55-7.49-6.65-7.84-6.22-13-14.78-14.43-23.73-1.78,3-7.19,3-10.34.89s-4.57-5.54-5.77-8.77a277.58,277.58,0,0,1-11.92-41.77c-2.24-11.11-4-22.85-11.88-32s-35.52-53.53-45.81-46.67c4.93.68,19.31,45.29,16.89,48.93"/></g><path class="cls-12" d="M1742.15,41.77a98.08,98.08,0,0,1-17.27,44c-3.68,5.18-8.08,10.58-7.93,16.93.07,3.31,1.4,6.44,2.34,9.61a42.86,42.86,0,0,1-1.24,27.9c-2.2,5.52-5.64,11.06-4.74,16.94,1.29,8.36,10.59,13.05,14,20.8,6.21,14.2-9.46,28.42-11.22,43.81-.73,6.42,1,12.84,1.4,19.3.65,11.19-2.91,22.16-6.43,32.81l-17.25,52.25c-5.67-38.64,4.22-78.22-.64-117-1.61-12.88-4.83-25.5-7.43-38.22a395.91,395.91,0,0,1-6.49-44.82c-1.1-12.54-5.35-33.08-1.37-45.15,3.3-10,18.29-16.53,27.66-21.85C1709.46,56.86,1741.85,44.12,1742.15,41.77Z"/><path class="cls-13" d="M1829.49,114.67a7.83,7.83,0,0,0-8.61-3.37c-4.06,1.28-6.47,5.38-6.86,9.44-.86,8.91,7.66,14.89,15.92,14.27,7.54-.56,19.09-6.59,14.51-15.86-3.7-7.51-17.21-9.65-20.18-.62-1.61,4.89,4.46,9.52,8.77,6.75.91-.49,1-.58.14-.3a4.34,4.34,0,0,1,.88.21,5.08,5.08,0,0,1,1.07.39q.49-4.68-1.14-3.34c-.55-.07-2.87,1.36-3.58,1.52a7,7,0,0,1-3.43.16c-5.11-1.36-.42-6.73,2.2-8.07a.87.87,0,0,0,.31-1.18Z"/><path class="cls-14" d="M1826.51,112.26a3.07,3.07,0,0,1-2-2.16l-1.12,2a5.22,5.22,0,0,1,5.42,3.06,1.73,1.73,0,0,0,2.08,1.18,9.72,9.72,0,0,1,3.11-.62l-1.46-.84c-.23-.41,1,.48.5.38a1.71,1.71,0,0,0,1.24-.51,1.6,1.6,0,0,0,.46-1.72,1.83,1.83,0,0,0-2.17-1.23c-2.86.41-4.09,4.83-1.2,6.13s5.53-2.21,4.09-4.76a1.69,1.69,0,0,0-1.46-.84,13.06,13.06,0,0,0-4,.75l2.08,1.18a8.35,8.35,0,0,0-9.54-5.26,1.62,1.62,0,0,0-1.12,2,6.17,6.17,0,0,0,3.9,4c1.57.62,2.71-2,1.15-2.74Z"/><path class="cls-14" d="M1828.52,114.47c3.13.87,6.35.48,9.48,1.16,3.63.79,3.66-5.14,0-4.34-3.13.68-6.35.28-9.48,1.16a1.06,1.06,0,0,0,0,2Z"/><path class="cls-15" d="M1783.47,126.18c2.56,2.18,3,5.69,4.54,8.59,1.89,3.54,5,6,7.1,9.38,4,6.36,7.28,13.12,12.05,19,2.52,3.12,7.32-.87,5.43-4.18-4.64-8.16-10.33-15.3-12.42-24.56-1.41-6.23-5-17.71-12.94-17.32-4.24.21-7.48,5.89-3.76,9.08Z"/><path class="cls-16" d="M1790.73,119.22a93.49,93.49,0,0,0-16.33-22.07l-1.59,1.59A62.78,62.78,0,0,1,1789,124.58l1.52-.64c-4.06-7.81-10.57-13.68-17.29-19.2l-1.46,1.9a49.64,49.64,0,0,1,11.9,11l.89-2.16a18.67,18.67,0,0,1-7.33-2.38l-1.4,2.39a13.79,13.79,0,0,1,5.91,4.67l2-2-7.72-3.44c-1.67-.75-3.14,1.59-1.46,2.49,3.54,1.91,7.09,4.3,10.82,5.83,1.51.62,2.88,1.2,4.34.06,3.4-2.66.13-9.32-1.36-12-.74-1.36-3.19-.41-2.57,1.08,1.35,3.2,2.67,6.42,4.08,9.6.61,1.38,3,.38,2.47-1-1.23-3.12-2.55-6.2-3.83-9.3l-2.57,1.09c.74,1.37,2.13,3.68,2.06,5.31-.14,3.07-1.55,2.56-3.49,1.51l-8.49-4.6-1.46,2.49,7.71,3.47c1.18.52,2.94-.68,2-2a15.15,15.15,0,0,0-7.36-5.73c-1.47-.56-2.49,1.85-1.07,2.53a25.56,25.56,0,0,0,8.73,2.52c1.22.13,1.49-1.41.89-2.16A51.61,51.61,0,0,0,1773,104.55c-1.13-.73-2.54,1-1.46,1.9,6.69,5.42,13.28,10.68,17.56,18.33a.83.83,0,0,0,1.51-.64,62.91,62.91,0,0,0-16.18-27,1.12,1.12,0,0,0-1.59,1.59,103.28,103.28,0,0,1,16.1,21.54c.66,1.18,2.46.13,1.82-1.06Z"/><path class="cls-16" d="M1777.15,99.68c1.93-1.31,2.19-2.79,1.94-5a1.16,1.16,0,0,0-1.95-.8c-1.58,1.36-4.33-.56-6-.87a4.65,4.65,0,0,0-4.61,1.29,3.88,3.88,0,0,0,.33,5c1.58,1.84,4,1.83,6.24,1.59l-1.5-1.13a2.75,2.75,0,0,1-.39,2.09,1.52,1.52,0,0,0,1.3,2.26c.77,0,2.67-.1,3,.83a1.2,1.2,0,0,0,2.32-.64c-.37-2.56-3.12-3.21-5.32-3.19l1.3,2.26a6.82,6.82,0,0,0,.83-4,1.56,1.56,0,0,0-1.54-1.54,7.45,7.45,0,0,1-2.94-.14c-1-.35-1.39-1.31-.41-1.68s2.68.59,3.59.85c2.11.59,4.46.63,5.62-1.52l-1.8.23c1,1,.4,2.92-.36,3.74-.22.23.07.67.37.47Z"/><path class="cls-16" d="M1778.42,113.21a33.1,33.1,0,0,1-1.08-5.4l-1.26,1.66c-2.45,1.38-3.45,1.24-3-.44l-1.44.39-.33,2,1.21.32a13,13,0,0,0-3.5-4.44c-.25-.19-4.77-3.17-4.87-3.14l-1.49-1.13-2.46,0,.56,1.38.57-.93a1.24,1.24,0,1,0-1-2.27,3,3,0,0,0-2,2.55,1.27,1.27,0,0,0,.56,1.38c2.55,1.34,5.75,1.46,6-2.06a1.18,1.18,0,0,0-1.48-1.14,2.53,2.53,0,0,0-1.49,3.8,4.43,4.43,0,0,0,2.17,1.56c2.83,1.41,5,2.66,6.78,5.38a.89.89,0,0,0,1.21.32c1.51-1.13,2-2.78.78-4.35a.78.78,0,0,0-1.45.39c-.2,3.6,3.2,7.06,6.78,4.7,3.39-2.23,1.23-6.53-2.22-6.89-.93-.09-1.4.91-1.27,1.66a16.48,16.48,0,0,0,2,5.38.87.87,0,0,0,1.58-.67Z"/><path class="cls-17" d="M1787.78,128.33a13,13,0,0,0,10.45,1.17l-.84-2c-2.9,1.64-5.44,1.72-8.66,1.79a.77.77,0,0,0-.65,1.15,9,9,0,0,0,9.71,4.16c.83-.16.87-1.59,0-1.72a6,6,0,0,0-6.34,2.77A.9.9,0,0,0,1792,137c2.13.78,4.26,1.57,6.41,2.29l-.45-1.1a5.86,5.86,0,0,0,1.21,7.18c.46.42,1.15-.26.69-.7a4.71,4.71,0,0,1-.6-5.72.76.76,0,0,0-.27-1c-2.16-.92-4.34-1.78-6.52-2.65l.54,1.32a4.67,4.67,0,0,1,4.55-1.91l-.23-1.76a7.35,7.35,0,0,1-7.93-3.21l-.86,1.12c3.33,1.15,7,.2,10-1.41,1.07-.57.33-2.41-.84-2a11.34,11.34,0,0,1-9.11-.37c-.86-.41-1.61.82-.76,1.3Z"/><path class="cls-17" d="M1800.82,149.8l2.29,1.47c.2.13.39-.19.19-.33l-2.25-1.53c-.24-.16-.47.24-.23.39Z"/><path class="cls-18" d="M1836.76,146.65a11.67,11.67,0,0,0-12.92,6.1c-2.42,5,.05,11,4.92,13.37,3.61,1.76,11.23.29,9.77-5.23a3.73,3.73,0,0,0-1.86-2.32,4.76,4.76,0,0,0-1.67-.51l-.6-.08c-.9-.21-1.07-.1-.52.33a7.29,7.29,0,0,1,1.29,1.73h-1.12a6,6,0,0,1-.94-2.85,10.58,10.58,0,0,1,.73-5.77h-4.37l-.55,2.07c1.17-.94,3-1.59,4.19-.45.83.77,1.06,2.7-.7,2.65l2,1.53a1.74,1.74,0,0,1,1-2.21l-2.83-2.84c-1.3,2.36-3.84,2.88-6.32,3.19-1.77.23-3.53,1.73-2.85,3.75a7.69,7.69,0,0,0,7.64,5.53c3.17-.18,4.23-5.11.79-5.83a3.75,3.75,0,0,1-3-2l-1.07,4c3.31-1.56,6.57-3.31,8.41-6.62a2.09,2.09,0,0,0-2.84-2.83,6.08,6.08,0,0,0-2.93,6.9,2.12,2.12,0,0,0,2,1.53c4.2.14,6.8-4.66,5-8.33-2.21-4.63-8.25-3.7-11.56-1.06a2.11,2.11,0,0,0-.54,2.08c1.76,5.8,9.73,3.65,8.48-2.27-.48-2.29-3.45-1.79-4.15,0-1.61,4.08-1.52,16.17,5.53,15,6.24-1,5.35-10.31-.6-11.08-6.23-.81-7.92,8.26-1,8.24l.34-.5a1.91,1.91,0,0,1-1.71.41,4.32,4.32,0,0,1-2.61-1.21,6.13,6.13,0,0,1-2.19-4.86c.36-4.27,5.16-6.3,8.89-6.2,2,.06,2.45-3.06.47-3.47Z"/><path class="cls-14" d="M1827.38,164.41c8,6,16.08-4.09,12.08-11.92l-1.4,3.45a5.57,5.57,0,0,0,4.42-3.72,8.67,8.67,0,0,0,.56-2.31c0-1.21,0-2.42,0-3.63q2.49-2.84-1.32,4.21l1.49,3.6-1.6,1.08c-1.24,2.16,1.5,4,3.27,2.52l3.47-.33-1.49-1.48q-.72-4.33,2.28-3.15l3.13.82.59-2.71-3.22-.85c1.82,2.9-1,5-2.84,6.29-.31.22-2.63,1.76-2.71,1.35-.56-2.85-4.55-1.92-4.77.64-.09,1.19-2.19,2.28-2.77,3.37a5.4,5.4,0,0,0-.66,2.57,3.4,3.4,0,0,0,2.7,3.54v-3.92a3.36,3.36,0,0,1-4.24-.74c0-2.64-3.86-2.57-4.06,0-.44,5.6,5.39,6,9.38,4.66a2.06,2.06,0,0,0,.48-3.71c1.53,1.08,3.9-4.85,4-5.77l-4.77.65c1.35,9.31,20.66-1.57,14.29-11.3a2.37,2.37,0,0,0-3.21-.84c-3.12,2.27-4.07,5.62-2.18,9.09a2.31,2.31,0,0,0,3.14.82c3.52-2.66,2.62-8.29-2.11-8.91-4.91-.66-9,5.31-7,9.73,1.75,3.74,7.94,3.76,8.78-.73,1.06-5.61-6.7-4.14-9.22-2l3.27,2.52c1.11-2,2.07-4.69.07-6.51a3.47,3.47,0,0,0-5,.35c-1,1.25-.52,3.8,1.5,3.6,7.26-.72,7.27-8,5.38-13.5a2.6,2.6,0,0,0-2.39-1.82,5.38,5.38,0,0,0-5.49,2.59c-1.51,2.38.1,8.88-2.37,9.43a2.37,2.37,0,0,0-1.4,3.45c2.95,5-2.41,8.39-6.9,6.88-1.7-.58-2.36,1.75-1.13,2.67Z"/><path class="cls-19" d="M1833.09,166.5a9.06,9.06,0,0,0,8.74-.64,10.88,10.88,0,0,0,3.32-3.05c.89-1.23,1-4.06,1.83-4.94l-2,.53-.71,4.8,2.14,1.63q-1.34-3.87,2.95-5.75a37.13,37.13,0,0,1-2.21,3.1c-1.48,1.81-3.29,3.72-5.67,4.23-4.28.92-10.06-2-14.3-2.67-3.36-.55-4.87,4.26-1.44,5.22,5.33,1.48,13,4,18.36,1.82,3.73-1.5,9-6.72,9.78-10.8s-4.27-5-7.19-4c-4.27,1.46-5.89,5.92-4.56,10a2.25,2.25,0,0,0,2.14,1.63c5.94-.64,10.13-8.14,4.23-12.27-1.81-1.26-4-1.49-5.22.62-1,1.68-.35,3.77-1.49,5.56-1.76,2.8-5.18,3.74-8.3,3.48a.79.79,0,0,0-.4,1.47Z"/><path class="cls-19" d="M1825.52,147.84c-4.37.94-3.17,6.88,1.21,6.54l-.58-2.14c-3.46,2.15-5.91,7.25-3.23,10.95.67.94,2.46.74,2.38-.64-.19-3.25-.3-6.05,2.24-8.51a1.16,1.16,0,0,0-.5-1.92c-1.37-.31-.72-1.43-.16-2a1.4,1.4,0,0,0-1.36-2.32Z"/><g class="cls-20"><path class="cls-1" d="M1766.77,63.82c12.76-6.76,26.5-15.69,41.07-17.83,13.52-2,28.33-.21,41.55,2.8V21.17c-8.37,2.53-16.13,5-24.08,8.76q-5.52,2.63-11.08,5.11l-5.16,2.26c-3.19,1.41.88-.32-2.62,1.12-14.47,6-29.6,9.29-44.55,13.8a21.12,21.12,0,0,0-15.07,23.08c1.34,10,10.15,18.6,20.66,18.23,13.06-.45,26.11-1.55,39.15-2.41s26-.71,39.14-.62L1834.27,48c-8.71,5.93-17,12.46-25.32,18.88-9.48,7.27-19.4,14.24-28.38,22.13-7.64,6.71-9.71,21.36-3.85,29.86,7.93,11.51,18.47,16.5,32.13,17.78,3,.28,6.1.26,9.15.35.59,0,1.26.19,1.85.14-.65.06-5.94-1.45-2.62-.18a8.44,8.44,0,0,0,1.82.54c2.65.27-5-2.67-1.85-.64a15.24,15.24,0,0,1-7-11.41,20.66,20.66,0,0,1,.38-6.12c-.46,2.73-1.52-.6,1.07-2.4-1.77,1.23-3.52,5.39-4.51,7.34-7.28,14.34-5,30.8,8.08,40.92a40.43,40.43,0,0,0,5.7,3.85c1.25.68,4.88,3.41,1.82.7a16.69,16.69,0,0,1-4.91-6.54c-1.59-3.93-.76-2.06-.57-1.12,0,0-.37-7-.63-3.58,0-.3,1.42-6.49.42-3.39-1.69,5.28-4,10.59-5,16.06-2.35,12.89,0,25.83,9.77,35.28,1.15,1.12,2.47,2.06,3.71,3.08,1.73,1.42,4,4.87.48-.46,2.38,3.55-1.66-4.56-.46-.52-1.6-5.41-.42-4.13-.53-2.1,0,1,0,2-.08,3-.57,12.41-.07,23.34,5.75,34.7,2.31,4.5,5.81,8.92,8.89,12.9a25.19,25.19,0,0,0,6.48,5.95q9,3.8,4,1.71c-1.67-.72-2-.83-.85-.34,1.73.82,3.55,1.56,5.33,2.27,1.56.62,2.52,1.9.06.2l-5.35-5.35c2.79,5.5,4.15,13.47,6.76,20.17a40.86,40.86,0,0,0,2.29,5.31c1.37,2.39,1.59,1.36,1.56,3.57a58.58,58.58,0,0,1-1.46,11.77c-1.48,6.92,8.61,9.8,10.65,2.94,1.28-4.31,1.93-8.74,3.13-13.05s4.21-7.61,5.35-12.07c2.68-10.49.4-20.8-1-30.14v7.93c-1.24,3.86,1-2.09,1.25-2.68a39,39,0,0,0,2.19-6.05,24.43,24.43,0,0,0-.89-14.6c-.3-.78-.63-1.54-.94-2.3q-1.35-3.23-2.73-6.44c-.52-1.22-.45-1.05.22.53,2.11,5.07-2.19-6.1-3.3-7.56.87,1.15,1,4.71.7,1.11-.06-.72-.69-3.8-.13.1s.16-1.6.21-2.85c.07-2.07.27-4.13.4-6.19.7-11.43-1.69-22.36-8.75-31.49a48.68,48.68,0,0,0-4.79-5.43c-.89-.86-4.37-4.75-1.82-1.41,2.33,3,.82,1.06.41.32,3.1,5.64,1.85,5,1.45,3,0-.14.8,7.2.65,3.45-.15-3.55-.18,3.46-.51,3.29s4.48-17.37,4.68-18.89c1.54-11.43-1-22.68-9.81-30.85-2.27-2.11-7.87-7-11.42-7.84,3.47.83,7.6,9.47,7.76,10.25a19.53,19.53,0,0,1,.35,6.64c-.46,3.87-.19,2.24.1,1.13-1.58,6-1.76,4-.64,2,5.36-9.45,8.92-20.69,5-31.38-4.61-12.63-15.62-21.09-28.77-23.44a78.69,78.69,0,0,0-10.7-1.18c-1.15,0-7.19-.62-2.72,0,5.4.72-5.09-2.21-.15.16,3.61,1.73,1.34.64.68.21a10.75,10.75,0,0,1,4.19,4q2,2.92.52.51l-8.84,33.71c9.63-7.19,18.61-15.17,27.74-23,8-6.87,16.12-13.61,23.74-20.91,6.62-6.35,8.19-16.7,4.72-24.92-3.16-7.48-12-15.16-20.85-14-13,1.69-26,3.45-39.14,4.19s-26.13,1.25-39.15,2.4l5.59,41.31c16.35-5.89,31.5-14.2,47.24-21.46q11-5.1,21.82-10.74c8-4.2,14.39-9.55,21.18-15.47,4.74-4.13,5.29-12.15,2.24-17.36-3.35-5.73-9.9-7.84-16.17-6.58-15.88,3.19-29.92,9.43-44.41,16.37-7.24,3.46-14.82,5.94-21.94,9.74a97.17,97.17,0,0,0-19.14,12.83c-2.07,1.84.57,4.93,2.87,3.71Z"/></g><path class="cls-21" d="M1492.43,79.94a20.26,20.26,0,0,0-.07,15.52c1.62,3.74,5.12,7.92,9.72,6.85,9.17-2.13,10-15.8,7-22.59-.67-1.5-3-1-3.38.44-1.27,4.76-3.07,16.26,3.13,18.69,7.52,3,7.22-8.54,11.6-10.33l-2.36-1a14.68,14.68,0,0,1,1.19,7,2.17,2.17,0,0,0,2.72,2.07,13.56,13.56,0,0,0,10.79-9.06l-4.4-1.21c-1.2,3.28,1.2,6.59,4.6,7.12,4.24.66,7-3.25,8.44-6.62l-3.09.81c4.39,2.41,3.82,9.11,10.21,8.83a9.87,9.87,0,0,0,6.1-2.9c1.12-1,1.93-2.29,3-3.39a12,12,0,0,1,2.8-2.57c3.51-.67,5.36.61,5.57,3.85.06,2.82,4.07,2.73,4.33,0,.1-1.14,4.18-.76,5-.36a19.81,19.81,0,0,1,2.77,2.18,13.92,13.92,0,0,0,3.9,2.25,7.42,7.42,0,0,0,7.61-1.34h-3c3.18,3,6.91,1.53,10.86,1.29,2.21-.13,19.72,1.59,19.42,5.58-.23,2.94,4.77,3,4.58,0-.36-5.58-7-6.75-11.37-8a43.27,43.27,0,0,0-10-1.85c-2.5-.12-8.54,1.79-10.43,0a2.2,2.2,0,0,0-3,0c-3.53,2.81-9.92-5.58-14.28-5.45a6.13,6.13,0,0,0-6.3,5.75h4.33c-.11-6-6.14-10.59-11.85-7.75a12.84,12.84,0,0,0-3.47,2.8,37.09,37.09,0,0,1-2.42,2.85c-1.29,1.13-4.88,2.26-6.5,1.27-1-.6-1.59-3-2.26-4a9.08,9.08,0,0,0-3.19-2.91,2.27,2.27,0,0,0-3.09.81,13.81,13.81,0,0,1-.82,1.74c-.57,1.43-1.88,1.84-3.92,1.25,1-2.79-3.41-3.94-4.4-1.21a9.27,9.27,0,0,1-7.53,6.12l2.73,2.08a19.34,19.34,0,0,0-1.89-9.14c-.5-1.12-1.91-1.15-2.86-.75-2.48,1.06-3.54,3-4.61,5.36-.38,1-.8,2-1.25,3q-5.19,1.62-4.5-3.35a25.07,25.07,0,0,1,.8-8.62l-3.37.45c1.79,3.88,2.47,13.12-2.43,15.64l-5.64-.15L1496.39,95a16.45,16.45,0,0,1-1.33-4.07,18.3,18.3,0,0,1,.85-10c.78-2.21-2.65-3.08-3.48-1Z"/><path class="cls-21" d="M1506.06,126.91a4.16,4.16,0,0,0,6.15,1,6.54,6.54,0,0,0,2.19-3.67c.19-.63,2-4.93,3.43-3.65.23.22.06,2.7.1,3,.3,2.52,1.63,4.94,4.59,4.52,3.6-.5,4.22-4.4,4.11-7.36l-3.31.9,1.41,2.18a1.82,1.82,0,0,0,3.1,0c2.15-2.82,6-1.57,7.22,1.08.65,1.37,3.2,1.13,3.43-.45q1.43-6.44,6-.31c.13,1.49,2.22,2.91,3.4,1.41,1.78-2.29,4.26-3.49,7.14-2.75,2.6.68,4.2,2.94,6.47,4.25s5.63,1.78,7.85-.2a4.3,4.3,0,0,0-4.78-7.11,2.15,2.15,0,0,0-1,2.37,98.16,98.16,0,0,0,5.15,20.39c1.06,2.85,5.69,1.55,4.57-1.26a97.57,97.57,0,0,1-5.67-20.24l-1,2.37c-3.31,1.74-5.8-2.41-8.36-3.77a10.33,10.33,0,0,0-5.15-1.16,10.8,10.8,0,0,0-8.42,4.7l3.71,1c-.93-9-12.56-9.15-13.71-.19l3.49-1c-2.68-5.47-10.07-5.68-13.56-1h3.1l-1.44-2.17c-.92-1.38-3.4-1-3.31.9a2.7,2.7,0,0,1-1.66,3.3,18.67,18.67,0,0,1-.17-2.48,14.08,14.08,0,0,0-.24-2.42,4.11,4.11,0,0,0-7.19-2.13,7.41,7.41,0,0,0-1.54,2.36c-.16.35-2,8.23-3.56,5.94-1.11-1.62-3.77-.11-2.66,1.55Z"/><path class="cls-21" d="M1518.65,145.58l-.2-.54a1.59,1.59,0,0,0-1.48-1.13c-3.53,0-4.82,4.3-5.43,7.26-.75,3.57-.11,7.7,3.1,9.93,7.82,5.45,13.76-5.93,14.27-12.21.19-2.35-3.41-2.71-4-.54a6.89,6.89,0,0,0,5.49,8.93,2.09,2.09,0,0,0,2.33-.95,22.56,22.56,0,0,0,.46-17.71,2.09,2.09,0,0,0-4.08.55,31.29,31.29,0,0,0,2.11,13c1.08,2.69,2.77,6.92,5.66,8.22a5.4,5.4,0,0,0,6.41-2c2-2.74,1.2-6.18.22-9.16l-3.84,1.62a7.47,7.47,0,0,0,8.49,3.38c1.57-.46,2.19-1.52,3.46-2.31l.64-.89q3.3.41,3.8,3.19c.63.85,1,2,1.6,2.84,1.14,1.55,3.86.71,3.28-1.38-1.42-5.06,4-.46,4.1-.43.88.25,1.89,1.12,2.83,1.39a11,11,0,0,0,6.4-.27c5-1.62,8-6.2,10.6-10.43l-3.91-1.06a3.11,3.11,0,0,0,1.45,3.16,11.11,11.11,0,0,0,2.41,1c2.28,1,2.8,2,4.24,3.85,2.29,2.88,5.59,5.19,9.12,2.9,2.14-1.39.18-4.8-2-3.44-2.62,1.64-5-4-6.37-5.32-.27-.24-4.57-2.72-4.64-2.17.27-2.19-2.91-2.68-3.91-1.06-2.22,3.61-4.8,8.21-9.38,9.06-4.28.8-5.4-3.06-9-3.4-3.94-.37-6.47,3.68-5.37,7.16l3-1.75c-2.15-2.72-2.53-7.71-6.77-8.27-3.83-.51-7.18,7-10.41,2.11-1.25-1.9-4.63-.76-3.84,1.61.29.87,2.41,6.84-1.23,5.93-.93-.23-3.1-5.45-3.31-6a27.78,27.78,0,0,1-1.65-11.06l-4.09.55a18.39,18.39,0,0,1,0,14.53l2.33-.95q-3.26-.3-2.64-3.87l-4-.54c-.22,2.9-3.24,12.49-8.32,8.56-2.38-1.84-1.13-9.09,1.26-10.67l-1.86-.24.43.4c1,.86,2.82,0,2.33-1.36Z"/><path class="cls-21" d="M1521.07,185.12a5.82,5.82,0,0,0-1.41,5.5.82.82,0,0,0,.58.59c3,.86,4.87-1.08,6.33-3.58,1.15-1.95,1.59-5.5,3.66-6.59,5.21-2.74,4.24,4.45,5,6.55,2.63,6.88,9.28,1.22,10.75-3.21l-2.3.93c3.91,2.1,10.54,3.53,14.51.74,2.5-1.75,3.46-4.86.73-6.72a1.87,1.87,0,0,0-2.72,1.11c-1.38,3.26.82,6.48,4,7.61,4.83,1.71,8.3-2.44,12-4.73,7.2-4.49,7,5.17,13.49,4.34a8,8,0,0,0,4.15-2.07c1.19-1,4.94-8.57,5.22-1.82a1.61,1.61,0,0,0,3.22,0c0,.89,8.32.74,9.28.27,2.74-1.31,4.54-4.21,6-6.76h-2c4.66,9.49,16.72,3.74,24.45,6.47a1.62,1.62,0,0,0,1.79-.72c2.88-3.91,9.87-2.06,9.15,3.23-.4,2.94,3.9,3.48,4,.54.27-9-10.67-12.86-15.86-5.37l1.78-.73c-6.78-2.17-19.41,3.28-23.28-4.59a1.17,1.17,0,0,0-2,0c-.47.82-.93,1.66-1.47,2.44a8.08,8.08,0,0,1-7.28,3.2c-1.34-.24-2.29-1.47-3.78-1.49a3.57,3.57,0,0,0-3.88,3.08l3.16.43c.21-3.22-.31-7.24-4.18-7.88a4,4,0,0,0-3.55.94c-2.47,2.29-.8,5.89-5.55,5-4.15-.82-5.37-4.88-10.49-3.8a14.64,14.64,0,0,0-5.41,2.73,39.83,39.83,0,0,1-3.3,2.51c-2,1.09-7.5,1.93-6-1.81l-2.72,1.11-4.29,1.36a10.52,10.52,0,0,1-3.17-.18,25.24,25.24,0,0,1-4.7-1.25,1.57,1.57,0,0,0-2,1.5q-.26,5.81-6,2.58a18.89,18.89,0,0,1-.56-3.25,8.87,8.87,0,0,0-.57-2.39,4,4,0,0,0-3.12-2.47,4.79,4.79,0,0,0-4,2,12.42,12.42,0,0,0-1.84,2.94c-.19.44-.37.9-.52,1.36-.32,2.76-1.72,3.17-4.23,1.21.37-.65-.54-1.42-1.06-.82Z"/><path class="cls-21" d="M1528.05,210.47c-2.36,4.74-3.72,13.14,3.67,14,8.38,1,10.33-8.34,10.34-14.6l-4.44.6c1.47,9.14,14,9.6,15.51.3l-1.76.72a8,8,0,0,1,3.69,5.25l2.07-.88q6.38-4.46,7.67,1.15a1,1,0,0,0,1.68.45c1.1-1.1,4.48,2.78,5.81,3.22a7.16,7.16,0,0,0,4.81-.2c4.1-1.58,5.66-5.83,6.93-9.67l-1.65.94c3.57.76,3.22,6.57,7.3,7.2,2.33.36,4.45-1.44,6.22-2.61,3.26-2.15,6.47-4.38,9.72-6.55l-1.83-.74c.92,3.07,2.61,4,5.39,5.13,5,2.05,6.44,9,6.62,14h2.87a22.71,22.71,0,0,1,5.17-15.9l-2.57-.33c2,3.95,7,4,10.38,1.68a13,13,0,0,0,2.63-2.61c1.85-2.2,1.86-3.61,4.9-4.16,1.88-1,3.2-.45,4,1.64a23.8,23.8,0,0,1,1.65,2.68,21.58,21.58,0,0,1,2.22,8,2.13,2.13,0,1,0,4.21-.57c-.81-5.64-4.23-14.58-10.31-16.66a4.8,4.8,0,0,0-4.84.9c-2.54,2-7.66,13.48-12,7.43a1.67,1.67,0,0,0-2.83,0,26,26,0,0,0-5.47,17.88c.12,1.83,3,1.85,2.87,0a26.49,26.49,0,0,0-3.16-11.61c-.69-1.26-2-3.87-3.28-4.61-2.54-1.4-4.42,1.56-6-3.57a1.26,1.26,0,0,0-1.83-.75c-3.86,2.56-12.6,10.73-16.74,6-1.64-1.88-1.74-3.86-4.53-4.46a1.38,1.38,0,0,0-1.65.94c-.74,2.23-1.55,5.15-3.39,6.79-5.29,4.7-6.17,0-9.24-1.3-1.59-.7-2.52-.87-3.75.45l1.57.2c-1.47-3.23-4.56-7.27-8.65-5.85a4.59,4.59,0,0,0-2.8,6.62,1.14,1.14,0,0,0,2.07-.88,11.82,11.82,0,0,0-4.43-6.53,1.22,1.22,0,0,0-2,.53c-1.91,5.54-8.1,4-8.83-.86-.38-2.58-4.4-1.87-4.44.6,0,2.75.19,6.57-2,8.67s-3.94,1.37-4.85-2.64a13.44,13.44,0,0,1,1.17-3.23c1.18-2.56-2.55-4.82-3.83-2.24Z"/><path class="cls-21" d="M1535,257.61a7.08,7.08,0,0,0-.73-10.64,1.49,1.49,0,0,0-2.45.65c-2.51,6.35-2.33,19.13,5.77,21.74,8.34,2.68,12.31-7.22,13.74-13.34.38-1.63-2.07-2.87-2.83-1.2-1.84,4,1,9.94,6.09,8.8,4.52-1,5.6-7.44,2.28-10.23a1.52,1.52,0,0,0-2.38,1.83c2,3.87,5.47,5.67,9.78,5.57a1.16,1.16,0,0,0,1-.58c.89-1.77.86-2.43,2.79-2,1.49.34,3,1.89,4,2.92l1.93-1.93c1.81-2,2.68-1.87,2.61.35l.69,1.65a8.29,8.29,0,0,0,2.12,2.37c1.24.93,3.8,2.13,5.42,1.56,4-1.41,4.87-8.19,3.9-11.53l-2.81,2.16a12.6,12.6,0,0,0,15.37-2.54l-3.23-1.33a4.39,4.39,0,0,0,3.32,4.83,5.63,5.63,0,0,0,3.56,0c1.19-.36,6.74-3.95,7.2-1.32.3,1.69,3.23,1.75,3.47,0,.29-2.08,5.95,1.11,6.82,1.33a5.12,5.12,0,0,0,3.17,0,4,4,0,0,0,2.72-5.15l-2.41,1.86c8.11,5.75,14.89-5.78,15-12.63,0-2.11-3.19-2.1-3.27,0a21.09,21.09,0,0,0,3.86,13.2,1.67,1.67,0,0,0,2.85,0,4.28,4.28,0,0,1,7-.79c1.39,1.44,3.47-.7,2.18-2.18a7.37,7.37,0,0,0-12,1.31h2.85a18.1,18.1,0,0,1-3.44-11.54h-3.27c-.05,4.17-4.06,14.22-10.06,9.79-1.18-.87-2.79.57-2.41,1.86.66,2.25-6.18-1.32-6.4-1.38a6.24,6.24,0,0,0-2.94-.19,4.23,4.23,0,0,0-3.68,3.57h3.47a4.5,4.5,0,0,0-3.77-3.79,6.78,6.78,0,0,0-3.07.11c-.56.15-7.23,3.74-6.93,1.17.2-1.67-2.17-2.45-3.23-1.34a8.79,8.79,0,0,1-10.76,1.91,1.93,1.93,0,0,0-2.81,2.16c.83,2.89.43,12.56-5.62,4.15-.71-1-.44-2.74-1.29-3.82a4.58,4.58,0,0,0-4.2-1.7c-4.14.54-4.65,5.43-1.87,7.88,1.31,1.16,3.23-.73,1.93-1.93a17.39,17.39,0,0,0-7.75-4.27,1.23,1.23,0,0,0-1.38.56c-2.07,4.47-6,2.55-7.65-1.46l-2.52,1.47c1.8,1.73,1.33,2.48-1.39,2.24-2.37,1.3-3.1.84-2.17-1.37l-2.83-1.2c-1,4.28-4.81,15.84-11.54,10.05-4.45-3.83-3.68-12-2.15-16.84l-2.16.87q3.66,2.78,1,6.8c-.86,1.07.56,2.59,1.54,1.54Z"/><path class="cls-21" d="M1537.42,292.85a6.77,6.77,0,0,1,5.16,3.24,5.24,5.24,0,0,1,1,2.59,4.42,4.42,0,0,1-.09,2.69c-1.52-4,4-8.16,6.72-9.84l-2.73-1.11c1.16,4.15,3.74,9.27,8.75,9.38a6.46,6.46,0,0,0,6.66-7.58l-3.3.92c2.64,7.68,11.83,7.62,16.07,1.47a21.89,21.89,0,0,1,2.46-3.66c4.53-4.27,7.32-1.12,10.22.9,1.59,1.11,3.12,2.26,5.12,2.37a5.13,5.13,0,0,0,3.85-1.31,8.9,8.9,0,0,0,1.47-2.08l.5-1c.72-2.17,2.39-2.05,5,.36a1.44,1.44,0,0,0,2.39,1.39c7.71-6.3,14.61,3.27,22.46,2.18,4.12-.57,7.51-4.54,5.83-8.65l-1.83,1.83c4.12.65,14.43-4.18,16.38.72a1.5,1.5,0,1,0,2.75-1.16c-3.49-7.81-12.61-1.52-18.34-2.43-1-.16-2.31.66-1.83,1.83,2.16,5.34-4.82,4.8-7,4.37-1.79-.35-3.4-1.45-5.11-2.09a23.3,23.3,0,0,0-5-1.38,12.6,12.6,0,0,0-10.33,2.76l2.44,1a5.42,5.42,0,0,0-4.68-6.12,4.61,4.61,0,0,0-3.36.82c-1.43,1-1.61,3.25-2.82,4.11-1.7,1.22-5.84-.18-7.31-1a26.61,26.61,0,0,0-2.59-1.61,5.73,5.73,0,0,0-4.07-.28,4.39,4.39,0,0,0-2.28,5.64c2.19,5.13,8.56-.7,4.52-4.95-2.21-2.33-5.61-1.53-7.87.29-1.6,1.3-2.52,3.09-3.67,4.76-2.83,4.11-8,4.66-10.27-.43-.81-1.85-3.55-.49-3.13,1.32l-4.8,2.55a7,7,0,0,1-2.25-2.52,14.21,14.21,0,0,1-1.47-3.74,1.88,1.88,0,0,0-2.73-1.11c-3.82,2.35-8.42,6.42-8.89,11.21-.28,2.94,2.52,6.76,5.8,5.13,2.91-1.45,2.24-6.5,1.18-8.91a9.72,9.72,0,0,0-9-6.05c-2.06,0-2,3,0,3.15Z"/><path class="cls-21" d="M1700.56,106.05c4.16-8.65,3.85-21.25,0-29.94-.62-1.4-2.62-1.1-3.33,0-6,9.29-2.67,20.92,8.88,23.16,7.67,1.49,18.59-4.85,14.21-13.62-1-2.11-4.35-1.05-4.34,1.17,0,6,3.36,13.42,10.8,11.44a7.17,7.17,0,0,0,5.09-5.36,10.18,10.18,0,0,0,.06-4,21.68,21.68,0,0,0-1-3.16c-1-2.84-2-2.61,1.37-4.59,3-1.75,2.77-1.75,3.06,1,.1.85,0,1.65,0,2.5a13.85,13.85,0,0,0,.55,4.48,6.81,6.81,0,0,0,4.88,4.7c6.1,1.45,9-4.64,9.32-9.7l-2.94,1.68c1.16.81,2.28,1.66,3.45,2.45a2.12,2.12,0,0,0,2.82-.74c4-5.25,21.65-7.1,16.21-17.27-1-1.78-3.42-.8-3.56,1-.37,4.92,3.73,8.62,8.3,9.63a12.36,12.36,0,0,0,7.16-.65c2.1-.78,9.86-5.93,11.2-1.89a2,2,0,0,0,3.54.47c2.53-3.64,6.33-8,11.4-6.68,2.4.65,3.57,2.4,6.28,2s4.26-2.53,6.41-3.8a14.16,14.16,0,0,1,13.18-.24c2.06,1,3.86-2.09,1.8-3.07a18.14,18.14,0,0,0-11-1.64c-4.61.79-9,5.76-13.6,4.35-3.5-1.07-6-2-9.71-.5s-5.91,4.5-8.07,7.61l3.55.46c-1.17-3.51-5-4.51-8.38-4-2.39.37-4.36,1.66-6.51,2.66-3.94,1.85-12.15,1.7-11.69-4.74l-3.55,1c2.48,4.59-7,7.21-9.74,8.42a16.11,16.11,0,0,0-6.42,4.42l2.5-.32c-1.17-.78-2.37-1.5-3.56-2.26a2,2,0,0,0-2.93,1.69c-.09,1.17-.37,3.49-1.27,4.41q-5,1.93-5.21-1.35a5.56,5.56,0,0,1-.21-2,26.54,26.54,0,0,0-.1-5c-.75-3.51-3.25-6.25-7-6.14a7.49,7.49,0,0,0-7,6.17c-.41,2.38.49,4.56,1.33,6.74.25.59.49,1.2.71,1.81q1.95,3.33-3.28,5.21c-3.13-.36-3.5-4.66-3.54-7.07L1716.27,88c3.71,7.33-8.62,8.4-12.69,6.34-6.71-3.41-6.74-10.5-3-16.29h-3.33c3.27,7.26,3.78,19,.52,26.34-.84,1.9,1.91,3.59,2.84,1.66Z"/><path class="cls-21" d="M1705.46,141.78a9.44,9.44,0,0,0,5.73-9.76,1.46,1.46,0,0,0-2.7-.73c-3.36,4.41-.71,11.25,5.3,10.75a6.73,6.73,0,0,0,5.32-3.4c.88-1.61.81-3.31,1-5l.35-2.44c2-2.46,3.48-2.76,4.33-.92,1.45.64,1.68,1.55,3.58.44l-2-.83c1.36,4,3.54,9.36,8.57,9.58,3.63.16,6-2.79,5.78-6.23l-2.44,1c3.44,2.92,7.82.94,7.49-3.71l-2.32,1.33a5.64,5.64,0,0,0,5.39.26c3.45-1.52,7.91-8.15,11-1.93,1.12,2.25,4.79,0,3.31-1.93-1.76-2.31-3.86-4-6.9-4a7.71,7.71,0,0,0-3.7.86c-2.13,1.09-4.7,5.49-7.54,4.13-1-.46-2.42.07-2.31,1.33L1740,132c-1.32-.87-2.45.78-2,1.95q-4.82,5.21-7.39-.42a27.82,27.82,0,0,1-1.63-4.38,1.4,1.4,0,0,0-2-.83c-2.38,1.3-5.87,4.83-2.31,7.15,3,2,4.62-1.08,3.91-3.75-.88-3.33-4-7.06-7.77-5.24a6.26,6.26,0,0,0-3,4,17.93,17.93,0,0,0-.45,3.17,5.74,5.74,0,0,1-2,5q-8-1-4.39-5.81l-2.7-.73a6.91,6.91,0,0,1-4.16,7.49c-1.53.74-.19,3,1.33,2.27Z"/><path class="cls-21" d="M1707.51,163.56c-1.74,5-1.68,13.57,5.38,14.16,8,.67,8.75-9,8.16-14.52h-3.63c.4,3.74,3.26,7.77,7.54,6.54,3.62-1,4.68-5,3.31-8.09a1.73,1.73,0,0,0-2.35-.62,4,4,0,0,0,0,6.8,4.75,4.75,0,0,0,4.17.49,10,10,0,0,0,3-1.76,9.34,9.34,0,0,0,1.32-1.19q2.43-3.69,5.32.38l3-.41-.07-1.72-1.48-1.48c.32,5.18,4.32,9.75,9.9,8.63,2.59-.51,4.33-2.15,5.81-4.2.23-.5.44-1,.66-1.51.57-2.31,1.85-3.46,3.85-3.47,2.3-.94,5.34-.84,7.78-1.53,1.55-.45,1.3-2.95-.39-2.88-3.5.13-9,.11-11.87,2.31a6.35,6.35,0,0,0-2.11,3.13c-.88,2.07-1.38,4.25-4,4.82a5.34,5.34,0,0,1-6.65-5.3,1.49,1.49,0,0,0-1.49-1.49c-3,.3-3.34,2.9-2.92,5.51.29,1.83,2.91,1.21,3-.41a5.15,5.15,0,0,0-3.4-5.61,5.78,5.78,0,0,0-4.25.45c-.61.28-1.09.73-1.68,1.06a8.73,8.73,0,0,0-.93.78,5.78,5.78,0,0,1-4.9,1.57l-2.35-.62-4.25-.18c-.29-2.27-3.89-2.33-3.63,0,.29,2.57,1.14,7.79-1.48,9.51q-6.18,1.86-5.8-3.73c.19-1.51.4-3,.63-4.52a1.69,1.69,0,0,0-3.26-.9Z"/><path class="cls-21" d="M1720,209.26c-.17-3.61-2.18-6.5-2.76-10-.42-2.54.12-7,4-6.55s4.3,6.39,4.53,9.18h3.36A23.28,23.28,0,0,1,1729,198a5.13,5.13,0,0,1,.47-2.46q.35-4.53,6.09-1c-.79,1.89,2,3.56,2.81,1.64.53-1.21,2.74-6.48,5.35-2.52.27.41.11,3.21.21,3.73a10.87,10.87,0,0,0,2,4.56,10.54,10.54,0,0,0,18.61-2.7,11.54,11.54,0,0,0,.61-5c-.15-2.47-2.3-6.84,2.2-7.93l5.49.79a5.45,5.45,0,0,1,1.5,5.54l1.79.5c.49-2.6.5-3.44,3.31-3.67,3.18-.27,1.86.05,3.24,1.87a5.75,5.75,0,0,0,2.37,1.89c2.89,1.27,6.28,0,8.89-1.3,2.94-1.52,5.81-3.56,9.33-2.81,2.31.49,4.19,2.16,6.55,2.53a6.06,6.06,0,0,0,6.56-2.7l-1.81.47c5.25,3.31,10.68,5.31,16.44,7.48,2,.75,3-2.83.88-3.19-5.71-1-11.06-3.59-16-6.57a1.34,1.34,0,0,0-1.81.47c-2.49,4.06-9.74-1.56-13.66-1-5.63.77-11.58,9.23-17,3-1.4-1.64-1.83-4-4.61-3.3s-3.93,4.08-4.53,6.39a.93.93,0,0,0,1.79.5c1.4-4.45-1.19-9.59-6.19-9.87-6.36-.36-8,5.39-7.53,10.36.64,7.3-7.34,13.67-13.38,7.42-3.12-3.23-1-7-2.9-10.38-3.19-5.8-9,.27-10.6,3.88l2.81,1.64a5.6,5.6,0,0,0-5.92-7.94c-6.5,1-7.13,8.54-6.56,13.66.24,2.11,3.56,2.17,3.36,0-.48-5.32-3.26-15-10.79-12.15-8.42,3.2-2.46,14.58-.52,19.81.4,1.08,2.2,1,2.14-.29Z"/><path class="cls-21" d="M1719.8,236.43c.69,3,4.2,5.19,7,3s1.38-6-1-7.76a1.49,1.49,0,0,0-1.82.23c-2.87,3.42-.81,8.33,3.34,9.7,5.87,1.93,9.71-4.57,11.76-8.91l-1.52.39a14.46,14.46,0,0,1,6.9,8.57,1.39,1.39,0,0,0,2.71-.37c.3-3.85,3.69-3.77,6.5-3.56.54,0,1,.44,1.6.48,2,.15,3.36-.29,5.08.95s2.92,3.57,5.55,3.06c2.28-.44,3-2.2,3.45-4.15.61-2.66,1-4.2,3.23-6.1,1.93-1.68,9.71-7.18,10.27-.71a1.35,1.35,0,0,0,2,1.15c2-1.33,3.64-3.64,5.8-4.67.76-.37-.9-.53-.56.08a9.7,9.7,0,0,1,.51,1.55,9.58,9.58,0,0,0,3.37,4.31c5.46,4,12.09,1.16,15-4.37l-1.9.5c4.23,2.5,7.24,2.92,11.36.41s8.28-1.54,10.14,3.28c1.65,4.29-.12,9.2-1.5,13.3l3.86,1.07a22.77,22.77,0,0,1,9.45-13.13c2.33-1.55.11-5.35-2.2-3.76A26.5,26.5,0,0,0,1827,246.77c-.61,2.51,3.23,3.57,3.86,1.07,1.7-6.75,3.58-15.25-2.66-20.26a9.49,9.49,0,0,0-7.4-2.21,9.76,9.76,0,0,0-3.07,1.28c-1.59.83-1.27,1.18-3.42,1.74-2.46.66-3.64,0-5.91-1a1.41,1.41,0,0,0-2,.83,7.15,7.15,0,0,1-12.33,1.89c-1.11-1.45-1-3.8-2.15-4.95a1.24,1.24,0,0,0-1.24-.33c-2.76.85-4.81,3.73-7.2,5.25l2,1.16c-.34-5.07-5.73-6.88-10-5.07-2.31,1-4.3,2.89-6.15,4.55a8.7,8.7,0,0,0-2.74,3.14c-.35.87-.08,2-.41,2.79-1.76,4.19-3.76-.68-6.14-1.69-1.92-.81-4.7-.46-6.58-.65-4.76-.5-9.09,1.54-9.09,7l2.71-.36a18.5,18.5,0,0,0-8.44-9.76,1.13,1.13,0,0,0-1.52.4,16,16,0,0,1-3.53,5.46,5.4,5.4,0,0,1-6,1.46,5.77,5.77,0,0,0-5.94-2.55,1,1,0,0,0-1.89.52Z"/><path class="cls-21" d="M1725.46,272.38a10.17,10.17,0,0,0-1.94,11,1.4,1.4,0,0,0,2.31.61,16.18,16.18,0,0,0,5.6-15.25c-.24-1.65-2.46-1.51-3.23-.42-3.18,4.56-.58,12,5.42,12.33s9.26-6.63,6.9-11.53l-2.47,2.47a8.81,8.81,0,0,1,4.38,6.29l3.38-.93,5-1a1.66,1.66,0,0,0,3.32,0c.48-7.33,10.48-6.4,10,.75a1.46,1.46,0,0,0,1,1.36,7.45,7.45,0,0,0,7.81-1.59c1.22-1-.09-3-1.51-2.59-4.9,1.35-.82,7,2.64,7.37,7.17.75,11.87-6.92,14.57-12.39l-2.67.35a37,37,0,0,1,7.74,12.24c.81,2.19,4.82,14.75-1,14.26l1.73,1.73c-1-9.93,10.89-16.09,8.59-26.45l-2.1,2.09c4.84.84,9.17-1.76,10.21-6.69l-3.32-.45c-.26,2.76-.23,6.33,2.24,8.17a4.67,4.67,0,0,0,2.86.91c1,0,7.59-2.11,7.47-1.38a1.69,1.69,0,0,0,2.8,1.63l5-4.65-2.61-.33a7.72,7.72,0,0,0,9.1,3.67c4.71-1.28,7-6,8.5-10.18l-3.19-.43c-.4,5.54,3.46,9.67,8.84,10.34,2.23.28,2.26-3.3,0-3.53-3.7-.38-5.77-3.32-5.6-6.81.1-1.93-2.6-2.08-3.18-.44-1.32,3.67-7.68,13.13-11.6,5.7a1.68,1.68,0,0,0-2.61-.34l-5.07,4.63,2.8,1.63a3.83,3.83,0,0,0-3.1-4.7,7.89,7.89,0,0,0-3.21.14c-1.47.18-4.54,1.42-6,0-.62-.59-.16-3.33-.09-4,.18-1.89-2.93-2.3-3.32-.45a5.14,5.14,0,0,1-6,4.31,1.72,1.72,0,0,0-2.09,2.09c2,9.3-9.74,15.87-8.76,25.55a1.77,1.77,0,0,0,1.72,1.72c5.92.5,6.87-6.77,6.19-11.14a40.12,40.12,0,0,0-10.57-21.22,1.72,1.72,0,0,0-2.67.35,33.12,33.12,0,0,1-4.08,6.72,18,18,0,0,1-1.85,2,6.68,6.68,0,0,1-2.6,1.67c-1.55.9-3.19.7-4.92-.62l-1.5-2.59-4.87,1.06,1,1.36c.16-11.18-15.21-11.84-16.19-.75h3.32c-.57-9.71-14.55-7.2-11.66,1.94a1.75,1.75,0,0,0,3.38-.93,12.26,12.26,0,0,0-5.93-8.48c-1.66-1-3.19.94-2.48,2.47,1.25,2.68-1.49,8-5.42,5.11-1.81-1.34-1.79-4.25-.73-5.95l-3.22-.42a12.9,12.9,0,0,1-4.15,12.36l2.17.28c-1.37-3.15-.81-6,.94-8.74.59-.93-.78-2-1.53-1.18Z"/><g class="cls-22"><path class="cls-1" d="M1313.5,434.28c-43.31-103.56,76-148.62,126.37-86.3,32.7-65.2,136.1-71.91,157.31,5.76,61-77.67,148.47-33.56,167,50.82"/><path class="cls-23" d="M1313.41,434.32c-1.84-4.41-3.56-8.88-5-13.46a118.6,118.6,0,0,1-3.38-13.95,85.75,85.75,0,0,1-.23-28.68,68.72,68.72,0,0,1,10.5-26.72,70.74,70.74,0,0,1,20.54-20.13,79.3,79.3,0,0,1,26.64-10.9,82.3,82.3,0,0,1,28.77-.86,77.65,77.65,0,0,1,27.18,9.38,76.69,76.69,0,0,1,21.74,18.71l-.73.08a91.44,91.44,0,0,1,14.61-20.8,94.33,94.33,0,0,1,19.73-16,96.7,96.7,0,0,1,48.36-14.16,83.55,83.55,0,0,1,25.23,3.36,73.61,73.61,0,0,1,22.85,11.3,71,71,0,0,1,17.46,18.62A85.33,85.33,0,0,1,1598,353.5l-1.56-.31a128.82,128.82,0,0,1,19.88-20.55A92.76,92.76,0,0,1,1641,318a76.26,76.26,0,0,1,56.22-.3,92.8,92.8,0,0,1,24.7,14.36,110.63,110.63,0,0,1,19.68,20.65,125.8,125.8,0,0,1,14.17,24.72,142.9,142.9,0,0,1,8.57,27.12l-.18,0a143.21,143.21,0,0,0-9.07-26.86,128.47,128.47,0,0,0-14.37-24.36A109.19,109.19,0,0,0,1721,333.14a91.49,91.49,0,0,0-24.43-13.86,78.71,78.71,0,0,0-27.52-4.94,75.45,75.45,0,0,0-27.39,5.44,92.92,92.92,0,0,0-24.09,14.35,127.3,127.3,0,0,0-19.69,20.16l-1.1,1.38-.46-1.7a83.5,83.5,0,0,0-10-23,69.85,69.85,0,0,0-16.91-18.38,72.46,72.46,0,0,0-22.34-11.32,82.79,82.79,0,0,0-24.88-3.57,94.29,94.29,0,0,0-48.07,13.74,89.51,89.51,0,0,0-33.86,36.69l-.3.61-.43-.53a75.85,75.85,0,0,0-21.67-18.2,77.33,77.33,0,0,0-26.79-8.92,80.62,80.62,0,0,0-54.36,11.54A68.32,68.32,0,0,0,1306,378.43a87.06,87.06,0,0,0-.15,28.36,119.22,119.22,0,0,0,3.09,13.94c1.31,4.59,2.94,9.08,4.69,13.52Z"/></g><g class="cls-24"><path class="cls-1" d="M1765,411.63s-8.2-53.61,28.58-76.24c45.62-28.06,96,6.87,108.63,16,6.4-13.91,11.63-30.48,25.26-40.27,84-60.23,190,12.85,159.66,104.31"/><path class="cls-23" d="M1764.89,411.64a108.37,108.37,0,0,1-.4-25.33,86.19,86.19,0,0,1,6.1-24.64,59.15,59.15,0,0,1,14.55-20.83,57.34,57.34,0,0,1,10.4-7.45,69.68,69.68,0,0,1,11.62-5.32,72.08,72.08,0,0,1,25.12-4,93.05,93.05,0,0,1,25.08,4c16.26,4.9,31.27,13.19,45,23.06l-.4.11c2.62-5.74,4.94-11.62,7.67-17.33a72,72,0,0,1,10-16.16,43.62,43.62,0,0,1,6.93-6.58c2.57-1.87,5.18-3.65,7.87-5.34a121,121,0,0,1,16.86-8.8,109.62,109.62,0,0,1,37-8.55,104.61,104.61,0,0,1,37.62,5.12A102.7,102.7,0,0,1,2059.07,312a98.42,98.42,0,0,1,13.44,13.56A97.06,97.06,0,0,1,2083,341.45a91,91,0,0,1,10.08,36.6,101.12,101.12,0,0,1-5.32,37.58l-1.31-.44a100.24,100.24,0,0,0,5-37,89.25,89.25,0,0,0-9.95-35.91,95.06,95.06,0,0,0-10.32-15.64A97.1,97.1,0,0,0,2058,313.3a100.66,100.66,0,0,0-32.65-18.14,103,103,0,0,0-37-5.18,108.4,108.4,0,0,0-36.56,8.17,118.8,118.8,0,0,0-16.76,8.6q-4,2.47-7.85,5.23a43,43,0,0,0-6.86,6.35,71.23,71.23,0,0,0-10.07,15.87c-2.75,5.67-5.09,11.54-7.74,17.28l-.14.29-.26-.19a162.6,162.6,0,0,0-21.49-13.28A124.82,124.82,0,0,0,1857.1,329a91.79,91.79,0,0,0-24.84-3.63,72.32,72.32,0,0,0-24.62,4.11,74.46,74.46,0,0,0-11.39,5.19,56.17,56.17,0,0,0-10.19,7.21,55.45,55.45,0,0,0-8.28,9.36,65.64,65.64,0,0,0-6.1,10.93,85.26,85.26,0,0,0-6.4,24.26,108.54,108.54,0,0,0-.23,25.22Z"/></g><path class="cls-1" d="M365.65,366.43c15.19-24.07-4.25-55.64-27.22-72.44A167.92,167.92,0,0,0,222.57,262.9c-18.8,2-38.11,7.78-51.38,21.25s-18.46,36.1-7.86,51.76c-32.15-16.05-70.5-23-104.33-10.83S-1.7,371.57,2.1,407.3s44.39,64.91,77.6,51.18c-27.3,14.74-37.83,51.1-27.59,80.39,27.59,78.91,159.59,44.91,189.6-11,43,42.86,142,36.86,171.06-24.45,9.76-2.25,12.41,55.69,98.93,64.31,37.4,3.73,118-20,134.64-72.81,39.36,3.81,98.36-23.19,98.75-96.05-.26-37.05-37.3-72.73-72.59-61.46,33.49-41.29-2.58-112.38-55.4-118.52s-101.89,42-107.5,94.88c-44.13-19.52-124,9-143.9,53"/><path class="cls-2" d="M366.81,367.1c10.7-17.55,4.32-38.24-7-53.82-13.18-18.16-33-30.6-53.4-39.3a170,170,0,0,0-68.77-13.7c-21.83.3-45.65,4.28-63,18.46-16.64,13.57-25.1,38.89-12.76,58l2.32-2.31c-42.58-21-97.95-26.75-135.77,7C12.88,355.35,1.69,374.77.16,395.79c-1.44,19.8,6.94,38.6,21.75,51.66C37.69,461.36,60,468.13,80.16,460.13L78.84,457c-43.55,24.25-41.58,91.93-.68,117.48,34.71,21.69,82.93,12.83,117.54-4.31,18.76-9.29,37.16-22.74,47.37-41.46l-2.47.32c24.77,24.33,62.88,31.54,96.31,26.68,17.79-2.59,35.35-8.84,50-19.41a87.54,87.54,0,0,0,18.22-17.53A80.06,80.06,0,0,0,412,508.33c.48-.88,1.56-3.44,1.56-3.44s.47.25.67.35c2,1,3.43,4.6,4.44,6.37,2.19,3.82,4.32,7.66,6.72,11.35a93.38,93.38,0,0,0,25.54,26.37c29.48,20.13,67.84,24,102,16.13,38-8.75,82-30.35,94.91-70.1l-1.42,1.08c29.33,2.67,60-10.26,78.68-32.94,11.38-13.8,18-30.71,20.44-48.36,2.92-21.43-1.05-41.72-15.16-58.61S694,329.39,672.09,336l1.49,2.55C698.64,307,685.38,261,657.25,236a74.2,74.2,0,0,0-54.74-19c-22.67,1.53-43.78,12.43-60,28C523.57,263.24,511,287.72,508,313.82l2.39-1.37c-19.52-8.43-41.88-7.72-62.3-3.27C425.56,314.09,403.41,324,385.74,339c-8.84,7.48-16.53,16.47-21.43,27-.87,1.87,1.91,3.52,2.79,1.63,8.72-18.75,26-32.24,43.91-41.62,19.64-10.26,42-16.58,64.26-16.81,11.42-.12,23,1.47,33.53,6a1.61,1.61,0,0,0,2.38-1.37c4.88-43,38.26-83.86,81.55-92.37,19.74-3.88,39.79,0,56.17,11.81a86.53,86.53,0,0,1,31.71,44.8c6,19.86,4,41.74-9.19,58.33-.87,1.1-.11,3,1.48,2.54,19.63-5.94,39.48,2.5,52.94,17.1,14.48,15.69,19.37,35.42,17,56.29-3.72,32.6-22.88,60.84-53.28,74a89.37,89.37,0,0,1-43.2,7.23,1.49,1.49,0,0,0-1.41,1.07c-11.74,36.2-50.66,56.62-85,66.12s-72.25,7.75-103.34-11.16a89.57,89.57,0,0,1-28-27c-3.89-5.84-6.58-13.36-11.38-18.51-1.08-1.16-3-2.72-4.74-2-2.22.87-3.83,6.24-5.09,8.28a78.85,78.85,0,0,1-8.18,11c-11.91,13.36-28,22.43-45,27.53-36.76,11-83.09,5.83-111.38-22a1.58,1.58,0,0,0-2.46.32c-8.51,15.55-22.91,27.22-38.08,35.92a158.69,158.69,0,0,1-55.66,19.17c-18.79,2.75-38.89,2.06-56.61-5.33a64.42,64.42,0,0,1-36.72-39.75c-9.14-28,.71-62.42,27.28-77.18,1.65-.92.52-3.87-1.32-3.13-36.36,14.4-76-19.93-75.76-56.75.13-19.91,9.74-38.74,23.64-52.64C42.8,331.77,63.51,323,85.48,321.06c26.58-2.35,53.27,4.6,77,16.31,1.42.7,3.3-.79,2.32-2.32-11-17.09-4-39.67,10.44-52.39,15.92-14,38.5-18.18,59.06-18.88a167.72,167.72,0,0,1,62.26,9.84c19.72,7.09,39.69,17.88,54.07,33.38s25.82,38.74,13.87,58.75a1.34,1.34,0,0,0,2.31,1.35Z"/><g class="cls-25"><path class="cls-2" d="M95.2,578.28c33.7,5,93.31-12.2,113-40,12.32-17.37,24.52-17.61,44.59-10.48,8.47,3,13.73,11.3,20.8,16.86,20.05,15.77,50.23,6.61,70.3-9.13s35.78-37.31,58.37-49.14c4.92-2.58,10.46-4.69,15.93-3.72,6.24,1.1,11.06,5.95,15.3,10.65,21.17,23.48,39.64,50.21,66,67.7s64.18,23.17,88.3,2.73c21-17.81,27.76-51.56,53.48-61.48,10.34-4,22.34-3.29,31.86-9,20.53-12.26,13.75-47.19-7.13-58.87s-47.15-6.16-69.13,3.25-42.94,22.55-66.63,25.89c-44.42,6.26-87.42-23.19-132.17-20.08-22.43,1.56-43.37,11.19-64.9,17.67-52.17,15.71-107.91,12.91-162.25,8.9-23.77-1.75-48.36-3.6-70.81,4.4S11.2,519.28,95.2,578.28"/></g><g class="cls-3"><path class="cls-4" d="M2640.2,399.28c-18.54.17-30.26,31.56-20,47s48,12.65,64.76,4.68c6.74-3.21,14-8,21-5.54,7.37,2.58,9.85,11.43,13.08,18.54,12.17,26.87,46.24,37.69,75.38,33.08,31.4-5,58.81-23.57,86.43-39a24.48,24.48,0,0,1,12.3-3.18c23.25.43,22.29,33,34.25,51.33,10.58,16.28,33.61,20.89,52.08,14.89s33-20.32,45.06-35.55c13.12-16.6,15.09-46.33,35.63-41.29,8.53,2.1,30,17.54,37.1,22.68,24,17.34,55.52,22.48,84.59,17.07,19.19-3.57,65.31-33.75,77.31-65.75,45,3,77,3.73,126.55-17.71-18.35-33-64.32-38.11-101.21-30s-72.88,25.31-110.51,22.11c-25.67-2.19-50.93-13.88-76.27-9.27-32.61,5.94-58.84,37.93-91.8,34.53-23.72-2.45-41.47-22.68-63.71-31.28-46.6-18-96.61,18.14-146.58,17.89-27-.14-52.59-10.94-78.89-16.93s-56.73-6.18-77,11.6"/></g><path class="cls-2" d="M3018.64,263.28c4.11-30.93-21.39-56.81-49.39-65-32.31-9.44-64.48,7-85,31.76a138.58,138.58,0,0,0-26,49.95l2.21-.9c-30-14.95-67.94-33.13-101.67-19.16-20.09,8.32-33.67,32.11-31.73,53.62,1,11.47,7,21.44,17.43,26.66a1.51,1.51,0,0,0,1.81-2.36c-15.64-16.46-39.37-19.81-60.93-16.48a117.72,117.72,0,0,0-63,31.25c-16.4,16-26.26,37.95-24.14,61.11,1.89,20.73,13.56,40.65,33.82,47.86,19.9,7.08,45,1.51,56.24-17.39l-2.79-.76c2.39,29.76,27,50.85,54.19,59.18,33.73,10.33,67.86-.72,96.92-18.63,18.63-11.48,35.53-25.52,52.24-39.58l-2.56-1.06c-1.41,23.7,9.08,47.47,26.82,63.13,17,15,40.2,20.53,62.55,18.33,32.68-3.21,58.26-25.42,74.06-53.08a130,130,0,0,0,10.19-22.09l-2.74.36c5.06,8.61,14.59,14.15,23.4,18.19,13,6,27.07,9.46,41.18,11.43,32.42,4.52,67.7,1.19,96.63-15.05A99,99,0,0,0,3258,423.71l-1.69.69a202.56,202.56,0,0,0,77.09-.35c22.51-4.55,46.44-13.85,60.6-32.86,11.46-15.4,15.63-38.3,3.19-54.34-12.12-15.62-33.8-21.26-52.52-23.35-22.23-2.48-47.32-.88-67.74,9l2.25,1.29c-.13-24.09-10.33-46.63-30.89-59.93-21.2-13.72-48.09-15.56-72.38-11.09-17.25,3.17-33.75,9.68-49,18.25l2,.54c-17.77-33.89-64.35-44-96.89-25.54-7,4-13.34,9.57-16.67,17-.78,1.74,1.8,3.27,2.59,1.51,6-13.46,21.45-20.24,35.1-23,17.17-3.42,36-1.14,51.16,7.87a59,59,0,0,1,22.12,23.62,1.52,1.52,0,0,0,2,.53C3152.75,260,3180.89,251.44,3209,254c22.35,2,44.55,12,56.88,31.51,7.25,11.45,10.27,24.8,10.34,38.25a1.52,1.52,0,0,0,2.26,1.3c17.2-8.31,37.81-10.18,56.65-9.33,18.66.85,40.09,4.71,54.56,17.47,15.28,13.46,14.88,35,4.95,51.67-11.6,19.5-34.13,29.56-55.3,34.77a195.72,195.72,0,0,1-82.2,1.84,1.53,1.53,0,0,0-1.69.69c-15.74,30.49-45.94,47.91-79,53.77-29.39,5.22-61.63,2.79-89.49-8.25-9.95-3.94-21.6-9.6-27.24-19.2a1.51,1.51,0,0,0-2.74.36,126.59,126.59,0,0,1-29.86,47.82c-11.45,11.37-25.57,19.86-41.38,23.49-20.19,4.63-43.82,2.18-61.49-9-22.6-14.29-36.59-41.12-35-67.82.08-1.41-1.65-1.83-2.56-1.06-27.71,23.3-57,47.81-92.6,57.65-28.58,7.9-60.54,3.2-83.68-16.17-12.22-10.23-20.66-24.28-21.95-40.33a1.52,1.52,0,0,0-2.8-.76c-9.68,16.29-30.45,21.79-48.13,17.43-20.19-5-33-22.9-35.93-42.86-6.9-46.23,34.86-81.44,76-91.3,22.76-5.45,49.57-3.88,66.58,14l1.82-2.35c-19.82-9.92-18.84-35.07-9.74-52.24,4.89-9.24,12.35-17.36,21.87-21.89,14.5-6.9,32.08-6.24,47.38-2.86,18.78,4.15,36.32,12.52,53.43,21.06a1.53,1.53,0,0,0,2.21-.9c8.73-30.19,27.73-59.61,56.39-74.15,13.69-6.94,29.07-10,44.25-7.08a73.16,73.16,0,0,1,37.84,20c11.57,11.61,18.21,27.24,16,43.71-.26,1.91,2.74,1.89,3,0Z"/></g></g></svg>