<svg xmlns="http://www.w3.org/2000/svg" viewBox="0 0 1043.39 980.58"><defs><style>.cls-1{opacity:0.2;}.cls-2{fill:#534741;}.cls-3{opacity:0.53;}.cls-4{fill:#fff;}.cls-5{fill:#333;}.cls-6{opacity:0.21;}.cls-7{fill:#fff8f0;}.cls-8{opacity:0.02;}.cls-9{opacity:0.42;}.cls-10{opacity:0.69;}.cls-11{fill:#ffffe9;}.cls-12{opacity:0.05;}.cls-13{fill:#ffbd1a;}.cls-14{fill:#ff7300;}.cls-15{opacity:0.74;}.cls-16{opacity:0.5;}.cls-17{opacity:0.14;}.cls-18{fill:#4d4d4d;}.cls-19{opacity:0.17;}</style></defs><title>cracked-eggsAsset 59</title><g id="Layer_2" data-name="Layer 2"><g id="cracked_egg" data-name="cracked egg"><g class="cls-1"><path class="cls-2" d="M728.64,447.49v.23c.1,6.75,4.48,11.69,10.58,13.89,23,8.27,47.78,12.33,71.79,16.74a490.62,490.62,0,0,0,78.74,8A457.19,457.19,0,0,0,969,480.92c15-2.31,29.12-6.12,40.69-16.65,18-16.44,19.39-45.83,1.84-63.27-26.83-26.65-68.77-21.26-102.59-16.61L919.2,383a582.46,582.46,0,0,1-95.36,5c-17.07-.57-31.52,13.49-33.7,29.75-1,7.32,0,15.49,4.07,21.88,4.55,7.06,11.86,14.34,20.51,15.77,23.81,3.95,48.22,7.29,72.41,6.7q16.07-.39,32.07-1.94c13.1-1.28,25.84-4,38.83-5.84l-10,1.34a87.15,87.15,0,0,1,22.53-.36L960.91,454a53.09,53.09,0,0,1,11.37,3.07l-8.51-3.6a28.26,28.26,0,0,1,3.84,2.14l-7.16-5.54a11.66,11.66,0,0,1,2.1,1.93L957,444.86a8.81,8.81,0,0,1,1.47,2.42L955,438.89a8.18,8.18,0,0,1,.59,2.31l-1.24-9.29a7.88,7.88,0,0,1-.08,2.22l1.25-9.26a8.62,8.62,0,0,1-.66,2.11l3.5-8.29a11.08,11.08,0,0,1-1.16,2l5.41-7a23.77,23.77,0,0,1-3.5,3.59l6.94-5.37a37.31,37.31,0,0,1-7,4.11l8.08-3.41c-9.87,4-20.81,6.28-31.21,8.57-11,2.42-22.16,4.31-33.34,5.81l8-1.07c-27.8,3.62-55.71,4.06-83.68,5.26-14,.59-28,.85-42,.91s-27.87-.27-41.84,1.22c-6.31.68-12.2,4-13.89,10.58a15,15,0,0,0-.52,3.6Z"/></g><g class="cls-1"><path class="cls-2" d="M117.07,474.4c33.55,18.4,69.63,30.46,106.32,40.86a216.25,216.25,0,0,0,32.6,6.62q14.37,1.79,28.8,3c9.63.82,19.25,1.74,28.88,2.56,9.9.83,20,1,29.82,2.27l-10-1.34c8.23,1.58,16.43,3.15,24.74,4.26s16.78,1,25.2,1.21c7.09.14,14.22.56,21.29-.1,6.4-.6,12.8-1.19,19.19-1.9,33.68-3.7,65.75-9.48,95.81-26,9-4.93,15.5-13.44,19.38-22.65,3.78-9,6.09-21.42,2.39-30.84-4.51-11.49-9.46-21.95-18.83-30.4a78.09,78.09,0,0,0-31.11-17.28c-13.82-4.11-28.53-4-42.79-3.76-14.92.28-29.93.12-44.83.93-15.28.83-30.55,2-45.82,3-11.28.74-21.74,4.22-29.92,12.39-7.33,7.34-12.86,19.38-12.38,29.91.49,10.94,4.08,22.29,12.38,29.91,8.61,7.9,18.22,11.56,29.92,12.39,19.24,1.38,38.49,3.17,57.78,3.66,17.19.43,34.82-.26,51.91,1.76l-12.47-1.68a56.59,56.59,0,0,1,13.46,3.35l-11.28-4.76a35.53,35.53,0,0,1,6.31,3.54l-9.59-7.41a29.78,29.78,0,0,1,5.11,5L452,483.27a28.64,28.64,0,0,1,2.5,4.33l-4.77-11.31.49,1.22L472,424c-4.11,2.3-8.3,4.37-12.61,6.25l11.3-4.77c-16.7,7-34.38,10.63-52.27,13.05l12.52-1.68c-14.94,2-30.26,2.54-45,5.48-5.7,1.14-11.38,2.42-17.07,3.61-5.94,1.24-12.2,2-18,3.92-5.54,1.81-10.92,4.11-16.44,5.95s-11.35,2.68-17,3.83c-11.93,2.42-23.9,4.86-36,6.51l8-1.08c-14.22,1.91-28.48,3.08-42.73,4.66-8.69,1-17.29,2.83-25.94,4.12l-5.22.75c2.93-.41.35-.05-1.16.14-3.67.46-7.33.76-11,1a398.44,398.44,0,0,1-85.59-3.07c-1-.15-1.72,1.15-.72,1.7Z"/></g><g class="cls-1"><path class="cls-2" d="M737.47,551.4a172.63,172.63,0,0,1,21.64,18.78q2.55,2.64,5,5.38a16.3,16.3,0,0,1,3.1,4.13c.83,1.51-.46-1.34.46,1.2.34.94.7,1.87,1,2.81.85,2.4,1.5,4.85,2.28,7.26.37,1.15,4.44,13.73,4.13,13.78l-.32-3.27.88,6.54c.31,1.33.84,2.65,1.19,4q1,3.64,1.65,7.35c.11.57,1,6.17.29,1.45s0,.77.05,1.39q.27,3.71.23,7.41A150.2,150.2,0,0,1,778,645.31l1-7.74a78.3,78.3,0,0,1-5,18.65l3-7.13a77.53,77.53,0,0,1-4.62,9.2c-1,1.69-2.07,3.35-3.19,5-.57.81-1.15,1.6-1.74,2.39q4.74-6,2.5-3.3a111.23,111.23,0,0,1-15.59,14.86l6.37-4.92a118.62,118.62,0,0,1-24.74,14.18l7.77-3.28a160.86,160.86,0,0,1-39.26,10.12l9-1.21c-20.13,2.63-40.82,1.58-60.69,5.67l33,56.67c.93-.9,1.9-1.77,2.9-2.59l-6.74,5.21c17.1-12.54,34-25.47,51.35-37.65,17.1-12,36-23.11,45.3-42.87,9.91-21.13,12.11-45.72,4-67.91a114.09,114.09,0,0,0-15.1-29c-6.62-9-14.25-16.36-21.44-24.73l5,6.5a23.34,23.34,0,0,1-2.44-3.92l3.25,7.7a9.48,9.48,0,0,1-.69-2.76l1.15,8.58,0-1.4-1.15,8.55a6.39,6.39,0,0,1,.71-2.42l-3.23,7.64.55-.86-5,6.47.67-.73-6.45,5a6.83,6.83,0,0,1,1.67-1.08l-7.59,3.2a9.17,9.17,0,0,1,2-.61l-8.4,1.13a17.18,17.18,0,0,1,4.53,0l-8.32-1.12a23.47,23.47,0,0,1,4.56,1.37l-7.4-3.13a34.86,34.86,0,0,1,4.22,2.56c3.41,2.32-3.27-2.17-3.19-2.26l.89.95c1.39,1.66,1.15,1.3-.74-1.07-3.53-4.59.12.44.88,1.75a50.31,50.31,0,0,1,2.57,5.27l-3.09-7.31a54.11,54.11,0,0,1,3.07,11.4l-1.1-8.17a55.88,55.88,0,0,1,0,14.56l1.1-8.2A54.71,54.71,0,0,1,721,614l3.12-7.4a50,50,0,0,1-6.07,10.47l4.87-6.3a58.16,58.16,0,0,1-9,9l6.33-4.9a63.06,63.06,0,0,1-13.47,7.87l7.54-3.17a69.8,69.8,0,0,1-16.62,4.45l8.45-1.13a75.25,75.25,0,0,1-18.67-.24l8.51,1.15c-.95-.13-1.9-.28-2.84-.45l14.11,53.45c10.13-12,18.14-25.45,21.76-40.9a98.84,98.84,0,0,0-.2-46.79c-3.61-14.61-11.12-26.79-20.69-38.18-6.62-7.88-14.52-14.55-21.63-22v45.83l1.14-.93L681.14,579a59.24,59.24,0,0,1,11.22-6.7l-7.72,3.26a56.39,56.39,0,0,1,14.1-3.81l-8.47,1.14a65.31,65.31,0,0,1,14.79,0l-8.35-1.12a65.35,65.35,0,0,1,15.62,4.13L705,572.79c4.12,1.79,7.66,4.18,11.5,6.45-6.93-4.11-4.06-3.24-2.11-1.58.93.8,1.84,1.62,2.72,2.47,1.59,1.53,3,3.23,4.5,4.83,2.39,2.51-3.9-5.47-1.95-2.59.69,1,1.43,2,2.1,3a62.19,62.19,0,0,1,3.28,5.72c.5,1,2,4.41,0-.18-2-4.84-.27-.54.13.61a64.2,64.2,0,0,1,1.92,7.07c3.21,14.77,21.23,24.77,35.5,20.16,7-2.26,13.71-6.59,17.24-13.26,3.88-7.35,4-14.09,2.91-22.24-3.78-27.11-23.8-53.35-48.6-64.76-13.89-6.38-29.17-10.49-44.61-9.33-18.63,1.41-34.7,7.34-48.8,19.82-13,11.45-12,34.25,0,45.83,8.74,8.42,18.49,15.82,26.12,25.35l-5-6.41A61.36,61.36,0,0,1,669.29,606l-3.16-7.5a53.27,53.27,0,0,1,3.61,13.4l-1.12-8.33a69.61,69.61,0,0,1,0,15.54l1.12-8.38a70.09,70.09,0,0,1-4.91,18l3.19-7.58a68.65,68.65,0,0,1-7.9,13.37l5-6.46c-1,1.22-2,2.4-3,3.57-7.7,8.68-11.4,19.6-8.22,31.12,2.78,10.12,11.64,20.25,22.33,22.34,43.9,8.57,91.86-13.18,105.62-57.74,6.21-20.11,3.42-42.44-6.21-61-11.26-21.67-35.29-38.72-60.35-32.06-12.34,3.28-22.41,13.87-25.82,26-3.59,12.8-.19,25.26,7.73,35.52,6.87,8.89,15.92,15.71,22.89,24.6l-4.93-6.37A89,89,0,0,1,726,632.51l-3.13-7.4a70.12,70.12,0,0,1,4.35,15.51l-1.1-8.14a63.23,63.23,0,0,1,.15,16l1.08-8.05a51.6,51.6,0,0,1-3.4,12.19l3-7.2a49.53,49.53,0,0,1-3,5.64c-.56.9-1.14,1.78-1.76,2.64q4.71-5.94,1.75-2.37c-2.92,3-6.34,5.67-9.22,8.71q6-4.54,2.26-1.77c-.87.64-1.74,1.26-2.61,1.88-1.32.93-2.65,1.83-4,2.73-4.07,2.75-8.22,5.32-12.46,7.79l-25.66,14.94c-9,5.25-18,11.44-27.55,15.6-4.71,2.05-9.64,7.84-12.17,12.16a33.51,33.51,0,0,0-4,21.62,32.16,32.16,0,0,0,6.67,16c4,5.23,10.78,11.2,17.62,12.15,8.75,1.22,16.9,2,25.69,1.46,6.18-.39,12.35-.89,18.5-1.63,14-1.69,28-4,41.58-8.18,24.19-7.4,47.22-19.6,65.12-37.71A110.84,110.84,0,0,0,836,647.77c2.29-26.3-9.42-54.71-27.61-73.3a90.61,90.61,0,0,0-16.06-12.57c-4.18-2.68-6.83-5-11.52-8.84A204.52,204.52,0,0,0,749,531.75a11.62,11.62,0,0,0-15.58,4.08c-3.37,5.77-.88,11.93,4.09,15.57Z"/></g><g class="cls-3"><path class="cls-4" d="M442.31,407.75c.41,18.75,8.07,37.36,22.22,50a105.52,105.52,0,0,0,43.73,23.53c16,4.16,33,5.26,49.45,6.49s32.83,1.82,49.27,1.91c9.24,0,18.44-1,27.61-2,11.42-1.21,23.26-1.84,34.51-4L659,485.07c2.9.12,5.77.35,8.65.73l-10.09-1.35a54.21,54.21,0,0,1,11.55,3.13l-9-3.82a63.47,63.47,0,0,1,12.44,7.45l-7.65-5.91c6.48,5.08,12.26,10.87,18.18,16.57A255.34,255.34,0,0,0,707.41,522c15.72,11.74,32.88,20.18,51.05,27.46C775,556.1,792.35,560,809.81,563.1c21.13,3.74,42.37,5.25,63.61,8l-10.54-1.41c7.13,1,14.35,2.57,21.52,2.86l-10.32-1.39a213.78,213.78,0,0,1,34.22,10.43l-9.08-3.83a132.63,132.63,0,0,1,29.11,16.74l-7.52-5.81a97.85,97.85,0,0,1,16.15,16l-5.72-7.4c3.31,4.34,6.51,8.75,9.88,13.07l-5.68-7.34c.73,1.23,1.44,2.46,2.12,3.71l-3.66-8.67a70.56,70.56,0,0,1,3.66,14.73l-1.38-10.23a72.07,72.07,0,0,1,.08,17.18l1.47-10.91A67.26,67.26,0,0,1,935,620.5l4.32-10.24c-4.34,5.75-5.28,13.13-8,19.64l4.42-10.45a67.23,67.23,0,0,1-8,13.27l6.92-9A87.49,87.49,0,0,1,920.16,638l9.11-7a144.45,144.45,0,0,1-30.95,17.85l10.83-4.57c-34.47,14.24-72.15,16.7-108,25.81-20,5.08-40.33,12.39-57.85,23.43a156.81,156.81,0,0,0-52.12,54.21c-12.75,21.84-20.87,46.1-30.67,69.33l4.68-11.08c-6,14.08-12.72,27.87-22,40.09l7.32-9.47a102.28,102.28,0,0,1-18,18l9.52-7.36a100.23,100.23,0,0,1-21.39,12.26l11.3-4.77A118,118,0,0,1,604,862.08l12.65-1.7a157.59,157.59,0,0,1-41.28-.28l12.75,1.71a213.31,213.31,0,0,1-52.22-14.47l11.57,4.89C509.4,836.14,476,811,440.8,789.67a438.79,438.79,0,0,0-65.34-32.39c-18.28-7.28-37.44-11.7-56.59-16-20.55-4.59-41.23-9.1-60.73-17.23l12,5a129.27,129.27,0,0,1-27.67-15.82l10.2,7.87a103.18,103.18,0,0,1-17.44-17.32l7.92,10.24a116.08,116.08,0,0,1-14.58-25.25L233.66,701a138.4,138.4,0,0,1-9-33.07l1.84,13.68a121.18,121.18,0,0,1-.35-31.89l-1.86,13.9a81.7,81.7,0,0,1,4.78-18.19L223.73,658a64.23,64.23,0,0,1,7.71-13.5l-8.32,10.76a62.41,62.41,0,0,1,10.21-10.21l-10.84,8.37a74,74,0,0,1,14.7-8.56l-12.9,5.45A111.14,111.14,0,0,1,252.65,643l-14.57,2c15.16-1.9,30.46-2.15,45.71-2.7,20.67-.75,42.33-2.1,62-8.71,24-8,43.06-21.21,62.5-37.06,11.79-9.63,22.65-20.34,34.69-29.67L432.46,575c13.29-10.12,28.82-17.05,40.49-29.29,7.9-8.28,14.52-17.55,23-25.33l-10.3,8c8.83-6.36,18.48-11.75,25.71-20.12,12.73-14.73,20.45-31,21.53-50.62A65.26,65.26,0,0,0,525,422.82c-16-29.6-58.4-33.4-81.57-10.48-11.84,11.71-18.56,29.54-18.31,46.13a53.9,53.9,0,0,0,15.3,37.06c10,10,23,14.66,36.87,15.2s27.37-6.26,37.33-15.59C519,491,522.37,485.78,526,481l-8,10.35a8.75,8.75,0,0,1,1.39-1.26l-10.35,8c7.16-5.51,14.79-10.49,21.38-16.68,10-9.34,18.42-22.3,21.47-35.71a67.55,67.55,0,0,0-19.22-64.29,101.82,101.82,0,0,0-22.34-16.21,42.46,42.46,0,0,1-5.56-3.08l10.39,8a6,6,0,0,1-.78-.73l8,10.39a2.06,2.06,0,0,1-.25-.4l5.18,12.27a.73.73,0,0,1-.08-.25l1.83,13.66a1.93,1.93,0,0,1,0-.24l-1.83,13.66a.79.79,0,0,1,.06-.22l-5.18,12.27a.86.86,0,0,1,.13-.2l-8,10.39a1.14,1.14,0,0,1,.19-.19l-10.4,8a3.74,3.74,0,0,1,.58-.33l-12.27,5.18a10.4,10.4,0,0,1,2.52-.6l-13.66,1.84c11.73-1.45,24.38.82,36,2.37l-13.69-1.84c28.64,3.9,58.86,8.6,85.65,19.8l-12.56-5.3c7.3,3.09,14.67,6.47,21,11.27l-11-8.48a37,37,0,0,1,5,4.74L583,466.17c4.21,7.12,10,12.82,15.11,19.22l-8.6-11.12a52,52,0,0,1,5.88,9.9l-5.49-13a58.57,58.57,0,0,1,3.77,14.37l-1.92-14.33c1.25,9.74,1.21,20.06,3.68,29.53l-1.89-14.13c.77,7.53,1.49,15.15,3.2,22.54,1.59,6.91,4.88,13.8,7.71,20.08,4.93,10.92,12.91,20.67,21.39,29l23.52-89.1A190.23,190.23,0,0,1,614,477.66l14.21-1.91a188.35,188.35,0,0,1-49.13,0l14.26,1.92c-20.27-2.86-40-7.89-60.4-10.29a121.44,121.44,0,0,0-70,13c-5.15,2.66-9.57,6.33-14.14,9.86a126,126,0,0,0-13.19,11.2c-5.25,5.33-9.91,11.2-14.72,16.91A202.64,202.64,0,0,1,390,548.1L401.74,539A238.62,238.62,0,0,1,364,562.36l14.38-6.07c-14.35,5-27.64,13-41.64,18.88l14.5-6.12c-40.23,16.82-83,26.34-125.51,35.21l-14.8,6.24a46.71,46.71,0,0,0-17.37,16c-8.07,10.45-13.91,24-13.3,37.53a73.41,73.41,0,0,0,8.45,31.25,46.9,46.9,0,0,0,15.95,17.38,46.68,46.68,0,0,0,21.07,11.08c35.53,14.13,73.59,18.71,111.05,24.91,34.11,5.65,67.61,12.86,99.58,26.32l-14.78-6.24c23.92,10.21,47.41,22.92,68.06,38.81L477.41,798a342.93,342.93,0,0,1,60.79,60.79l-9.55-12.36a338.32,338.32,0,0,1,20.83,30.46l36.67-90.15a61.37,61.37,0,0,1-14.93,4.05l16.34-2.2a83.3,83.3,0,0,1-20.75-.38l16.38,2.2c-15.29-2.3-29.85-7.57-44.32-12.83q-23-8.37-45.56-17.89L508.15,766q-17.22-7.29-34.16-15.21c-9.94-4.66-20.08-9.19-28.88-15.85l12.63,9.75a54.25,54.25,0,0,1-9-9l9.76,12.64a51.63,51.63,0,0,1-5.87-10.42l6.3,14.92a60.71,60.71,0,0,1-3.43-13.11l2.24,16.62a70,70,0,0,1,0-16.81l-2.24,16.63a80.68,80.68,0,0,1,5.55-19.9l-6.31,15a131.33,131.33,0,0,1,16.77-27.46l-9.82,12.71c23.25-29.63,51.63-56,81.34-79.07l-12.68,9.8c20.6-15.85,42.34-30.46,66.34-40.67l-14.84,6.26c23-9.5,47-12.5,71.25-16.91s47.15-15,71.61-18.34l-16.25,2.19a101.27,101.27,0,0,1,24.42.08l-16.24-2.19c28.39,3.89,56,14.79,83.2,23.36l41.74,13.13c13.55,4.27,27.91,7.65,41,13.12l-15.06-6.35a14.21,14.21,0,0,1,2.43,1.38l-12.77-9.87a8.7,8.7,0,0,1,2,1.88l-9.87-12.78.71,1.18-6.36-15.09a7.25,7.25,0,0,1,.72,2.89l-2.26-16.8-.07,1.48,2.26-16.79a12.09,12.09,0,0,1-.82,3l6.38-15.1a29.59,29.59,0,0,1-3.34,5.42l9.89-12.81a71.49,71.49,0,0,1-11.1,10.76l12.84-9.92a92.49,92.49,0,0,1-19.39,11L854,564.25c-16.78,6.92-34.78,9.92-52.41,13.86a274.45,274.45,0,0,0-66.1,24.17,190.07,190.07,0,0,0-24.06,14.8c-11.52,8.32-23.31,17.06-33.48,27.1s-19,21.59-27.73,33.1A189.17,189.17,0,0,0,634.8,701c-8.95,16.41-16.11,33.89-27.56,48.82l10.61-13.73a71.11,71.11,0,0,1-12.26,12.38l13.76-10.63a49.76,49.76,0,0,1-9.32,5.46l16.25-6.86a45.3,45.3,0,0,1-10.7,2.94l18.1-2.43a48.44,48.44,0,0,1-12.09-.17l18.11,2.44A80.83,80.83,0,0,1,622.24,734l16.31,6.88a198.79,198.79,0,0,1-42.36-25l13.87,10.72c-8.82-6.88-17.34-14.29-24.35-23l10.71,13.85a68.56,68.56,0,0,1-8.32-13.69L595,720a48.06,48.06,0,0,1-3-10.38l2.43,18.13a41.06,41.06,0,0,1-.15-9.27l-2.43,18.1A39.7,39.7,0,0,1,594,728l-6.86,16.24a45.23,45.23,0,0,1,5.79-9.86L582.3,748.16a63.09,63.09,0,0,1,9.42-9.28L578,749.48a100.36,100.36,0,0,1,21.75-12.43l-16.13,6.81a143.16,143.16,0,0,1,34.63-9.58l-17.86,2.4c9.41-1.25,19.19-2,28.63-.77l-17.77-2.39a34.9,34.9,0,0,1,6.38,1.62l-16-6.73a21.46,21.46,0,0,1,4.34,2.48l-13.51-10.44a13.54,13.54,0,0,1,1.74,1.73l-10.44-13.5a16.74,16.74,0,0,1,1.82,3.08l-6.72-15.93.22,1-2.38-17.72a7.39,7.39,0,0,1,0,2.1l2.38-17.72a9.29,9.29,0,0,1-.58,2.06l6.72-15.93a15.07,15.07,0,0,1-1.67,2.78L594,639a9.67,9.67,0,0,1-1.51,1.49L606,630a8.42,8.42,0,0,1-1.7,1.08l15.93-6.72a6.65,6.65,0,0,1-1.79.56l17.72-2.38-.89.05L653,625a4.36,4.36,0,0,1-1.74-.42l15.92,6.71-.81-.5,13.49,10.43-.76-.71,19.53,47.13a126.37,126.37,0,0,1,.94-15.18l-2.38,17.72a122.63,122.63,0,0,1,8.48-30.88l-6.72,15.92a121.24,121.24,0,0,1,14.5-24.73L703,664a85.82,85.82,0,0,1,13.44-13.9L703,660.47a56.79,56.79,0,0,1,10.76-6.6l-15.86,6.7a40.85,40.85,0,0,1,10.34-2.87l-17.62,2.37a35.29,35.29,0,0,1,7.41.07l-17.59-2.36a25.71,25.71,0,0,1,4.67,1.24l-15.79-6.66a22.11,22.11,0,0,1,4.23,2.41l-13.41-10.35a32.54,32.54,0,0,1,5.17,5.19l-10.43-13.5a31.85,31.85,0,0,1,3.59,6.29l-6.77-16a28.06,28.06,0,0,1,1.49,5.62l-2.41-18a24.94,24.94,0,0,1,0,4.49l2.42-18a21.17,21.17,0,0,1-1.09,4.28L659,588.52a19.79,19.79,0,0,1-2.36,3.89l10.69-13.83-.79.89,48.38-20-1.52-.2,18.21,2.45a12.93,12.93,0,0,1-2.9-.94l16.41,6.93-1.34-.71,13.92,10.75a53.75,53.75,0,0,1-4.28-4.26,51.88,51.88,0,0,0-22.26-14.31,52.15,52.15,0,0,0-26.66-5.95c-17,0-37.24,7.53-48.92,20.26-12.11,13.19-21.09,30.5-20.27,48.92l2.47,18.4a69.16,69.16,0,0,0,17.8,30.53c14,17.73,37.93,24,59.34,25,32.57,1.52,62.77-26.26,68.92-57.5,3-15.22,4-31.11-1.61-46s-12.37-28.34-24.41-39.18c-12.25-11-23.1-17.27-38.72-22.49-15.8-5.28-33.15-4.18-49.15-.8-5.43,1.15-10.15,3.38-15.29,5.56s-10.22,4-14.89,7c-9.46,5.93-19.29,13.41-26.9,21.86a204.09,204.09,0,0,0-20.37,26.78c-6.45,10.14-10.79,21.26-15.39,32.35-7.1,17.12-9.83,35.2-11.4,53.65-.24,2.8-.39,5.62-.4,8.44-.06,12.66,2.68,24.37,9.09,35.33,6.58,11.23,9.35,12.78,17.93,19.42,12.61,9.74,26.79,15.15,42.94,15.23a73.57,73.57,0,0,0,37.18-10.19c17.48-10.27,29.87-27.37,35.21-46.76a74.32,74.32,0,0,0-.54-39.59,59.82,59.82,0,0,0-8.06-18.06,90.21,90.21,0,0,0-12.14-15.27c-20.44-19.68-48.25-25.61-75.74-24.53-18.95.74-38.65,3.47-56.68,9.63a255.64,255.64,0,0,0-32.15,13.47c-10.09,5.08-18.92,12.24-27.63,19.35-16.15,13.17-29.7,34.32-34,54.81-3.69,17.72-3.58,32.27.23,50.1,2.36,11,7.33,21.87,13.14,31.51A151.34,151.34,0,0,0,509,820.23c33.83,27,71.78,50.5,116.2,53.17a91.13,91.13,0,0,0,35-4.9c17.81-6.31,27-12.2,41.5-24,12.33-10,22-23.71,30.06-37.23,6.06-10.14,11-20.89,16.24-31.45a200.91,200.91,0,0,1,20.44-33L757.91,756.5a209.44,209.44,0,0,1,36.74-36.56l-13.48,10.42A193.2,193.2,0,0,1,822,706.48l-15.66,6.61c12.89-5.42,26.31-9.07,39.81-12.6a342.74,342.74,0,0,0,53.08-18.1L884,688.82c21.35-8.8,40.23-17.81,56.84-34.57A131.23,131.23,0,0,0,950.9,642c2.29-3,5.26-6.27,7.13-9.73a87,87,0,0,0,8-19.5,70.39,70.39,0,0,0,1.3-27.42c-1.31-9.74-1.31-9.83-5.1-18.81A67.76,67.76,0,0,0,947.54,544a90.13,90.13,0,0,0-7.45-5.78c-3.33-2.56-5.07-4.28-8.22-6-11.35-6-23.74-9.2-36-12.75l-25.78-7.48-49.64-14.39c-16.23-4.71-32.41-9.83-48.85-13.79A288.51,288.51,0,0,0,732,477.55a113.73,113.73,0,0,0-24.4,0c-12.85,1.49-25.39,3.3-37.83,6.78-7.72,2.16-15.35,4.66-23.06,6.85-15.9,4.53-32.2,6.74-48.51,9.25-15.7,2.41-31.16,5.58-46,11.28-19.11,7.31-37.61,15.82-55,26.63C480,549,464,561.32,448.08,573.74a454.28,454.28,0,0,0-36,30.93,448.47,448.47,0,0,0-31.64,33.75c-12.65,15-25.64,30.71-33.57,48.81-4.75,10.85-9.82,21.64-11.73,33.4-1.87,11.52-3.88,23.29-2.52,35,.95,8.21,1.61,16.75,3.88,24.77s5.85,15.89,9.49,23.32a51.75,51.75,0,0,0,4.72,7.65c4.9,6.71,9.91,14,16.29,19.49,8.92,7.7,18.43,14.86,29,20.22,7,3.56,14.14,6.76,21.27,10q29.63,13.37,59.93,25.24c15.26,6,30.65,11.78,46.29,16.7a166.69,166.69,0,0,0,23.43,5.8c12.09,2,24.87,4.29,37.23,3.19a180.39,180.39,0,0,0,24.8-3.54c8.52-2,16.52-6.07,24.49-9.49a68.64,68.64,0,0,0,28.2-36.68c3.61-15.84,2.66-33.15-6.18-47.29A412.74,412.74,0,0,0,606,750.9c-18.57-19.67-39.65-36.52-61.46-52.45l12.24,9.45c-34.13-28.32-73.71-48.77-115.27-63.83a309.24,309.24,0,0,0-54-14.29c-20.51-3.46-41.18-5.85-61.72-9.08-22.81-3.58-45.47-8.3-67.13-16.44V723.69c26.76-6.1,53.49-12.46,79.68-20.73,12.92-4.08,25.68-8.65,38.2-13.85,10.43-4.33,20.89-8.65,31.07-13.55q4.74-2.28,9.4-4.73c7.36-3.87,13.22-8.53,20-13.89l-12.19,9.42c18.91-11.66,37.13-25.32,52.95-40.94,16.36-16.15,28.59-35.49,42.45-53.67L511.49,583a85,85,0,0,1,13.06-13.74l-11.09,8.56a56.42,56.42,0,0,1,11.06-6.7l-13,5.46a52.53,52.53,0,0,1,12.49-3.46l-14.35,1.93a101.54,101.54,0,0,1,26.58.52L522,573.66c25.74,3.66,50.9,10.48,77.08,10.89a227.75,227.75,0,0,0,78.69-12.61c17.9-6.34,32-18.3,37.23-37.23,5-18.12-.13-38.68-13.71-51.86a78.16,78.16,0,0,1-7.23-8l8.33,10.78a54.29,54.29,0,0,1-6-10.16l5.37,12.71A53.56,53.56,0,0,1,698.4,476l1.9,14.13a119.36,119.36,0,0,1-.51-13.65,171.5,171.5,0,0,0-2.88-26.93c-4.1-22.95-19.54-45.9-39.06-58.22l11.07,8.55c-12.69-10.84-20.73-15-36-21.13A146.19,146.19,0,0,0,614.61,373c-15.69-4-31.39-8-47.29-11.13-19.4-3.77-39-6.64-58.66-8.76-13.77-1.49-28.45-2.75-42,.86A54.58,54.58,0,0,0,441.68,368a52.72,52.72,0,0,0-8.21,63.23,56.62,56.62,0,0,0,20.44,20.2c4.59,2.63,9.31,4.8,13.6,8l-10.38-8a35,35,0,0,1,6,5.87l-8-10.37a21.33,21.33,0,0,1,2.33,4.07l-5.16-12.24a18.28,18.28,0,0,1,.84,3.17l-1.83-13.63a16.82,16.82,0,0,1-.05,3.82l1.82-13.62A19,19,0,0,1,452,422.1l5.16-12.23a26.33,26.33,0,0,1-3.29,5.36l8-10.36a56.24,56.24,0,0,1-9.17,8.68l10.35-8c-1.69,1.3-3.42,2.56-5.13,3.85-11.06,8.32-12.38,9.53-20.83,20.8l8-10.35a20.35,20.35,0,0,1-2.77,3l10.34-8a4.71,4.71,0,0,1-.94.57L464,410.3l-.25.07,13.58-1.82h-.23l13.59,1.83-.2,0,12.2,5.15-.17-.08,10.34,8-.15-.14,8,10.34a1.24,1.24,0,0,1-.22-.39l5.15,12.21a2.57,2.57,0,0,1-.12-.55l1.82,13.59a8.89,8.89,0,0,1,0-1.86l-1.83,13.58a22.26,22.26,0,0,1,1.37-5.09l-5.14,12.2a12.28,12.28,0,0,1,1.37-2.55l-8,10.33a4.48,4.48,0,0,1,.61-.62l-10.33,8,.2-.12-12.19,5.14a.86.86,0,0,1,.38-.1H466.65l.19,0-12.19-5.14.18.08-10.33-8a1.22,1.22,0,0,1,.34.34l-8-10.33a3.36,3.36,0,0,1,.3.6L432,462.75a13.23,13.23,0,0,1,.48,2.07l-1.83-13.57a32.66,32.66,0,0,1,.15,6.33L432.64,444a29.45,29.45,0,0,1-1.84,7l5.14-12.18a37.82,37.82,0,0,1-3.73,6.39l8-10.32a47.33,47.33,0,0,1-7.47,7.57l10.3-8c-6.56,5-13.51,9.13-20,14.39a87.34,87.34,0,0,0-9,8.63c-6,6.51-11.57,13.58-18.47,19.22L406,468.72c-4.63,3.57-10.19,5.82-15.18,8.84a188.44,188.44,0,0,0-16.75,11.54c-13.19,10-25.71,20.84-38.76,31L346,511.86c-10.2,7.87-21.06,15.26-32.93,20.39l12.8-5.41a106.57,106.57,0,0,1-25.83,6.65l14.36-1.93c-17,2.13-34.08,1.39-51.15,1.56-18.75.19-38.37,2.42-56.26,8.39-20.81,6.93-42.14,17.79-56.4,35-10.78,13-17.71,24.83-23.33,40.89-3.93,11.24-5.29,23.71-5.91,35.51-.63,12.09,1.23,24.19,3,36.1a169.56,169.56,0,0,0,5.37,23.75A209.74,209.74,0,0,0,143,745.4c5.35,10.71,12.56,20.12,20.07,29.41a103.6,103.6,0,0,0,16.55,16.28c8.59,6.74,17,13.33,26.7,18.41a239.85,239.85,0,0,0,52,19.61c33.66,8.58,68.17,12.52,100.45,26l-11.63-4.91c29.73,12.66,56.66,31,83.77,48.38,28.83,18.47,58.22,35.59,90.88,46.47,17.24,5.75,34.82,8.68,52.83,10.85,17.56,2.11,34.41.79,51.88-1.71,32.71-4.67,66-21.77,87.06-47.56a194.58,194.58,0,0,0,29.16-47.88c7.56-17.79,14.06-36,21.5-53.81l-4.64,11c5.41-12.8,11.65-25.17,20.09-36.26L772.57,789a105.68,105.68,0,0,1,18.52-18.45l-9.25,7.15a125.77,125.77,0,0,1,26.28-15l-10.91,4.61c27.06-11.34,56.4-15.23,84.95-21,34.93-7.08,70.5-18.15,98.14-41.56a129,129,0,0,0,24.8-28.54c4.16-6.44,7-13.7,9.81-20.8a57.16,57.16,0,0,0,2.73-34.84l1.53,11.39a103.84,103.84,0,0,0-17.74-60c-1.75-2.55-3.09-5.32-4.69-8a140.66,140.66,0,0,0-10.59-14.37,99,99,0,0,0-13.88-14.34c-26.07-21.94-57.2-34.63-90.13-42.35-21.87-5.13-43.86-7.7-66.08-10.68l10.83,1.46c-20.29-2.8-40.19-7.05-59.13-15l9.37,4a188.3,188.3,0,0,1-40.47-23.8l7.71,5.95c-11.88-9.34-22.24-20.22-34.35-29.32-14.79-11.14-32.76-15.55-51-16.33l10.09,1.36c-12.72-3.09-26.42-2.24-39.44-2.71-11.19-.42-22.32-.68-33.52-.84-21.32-.28-42.94-1.06-64.09-3.88L543,404.53a120.09,120.09,0,0,1-29-7.65l9.68,4.09A55.79,55.79,0,0,1,512,394.25l8.07,6.24a39.1,39.1,0,0,1-5.73-5.63l6.19,8a32.48,32.48,0,0,1-4-6.79l4,9.36a32.47,32.47,0,0,1-1.8-6.8L520.08,409l-.14-1.23c-1.2-10.62-3.54-19.62-11.37-27.45-6.73-6.73-17.78-11.8-27.45-11.37-20.65.93-39.28,17.07-38.81,38.82Z"/></g><path class="cls-5" d="M766.82,1.2,741.57,36,729.05,53.24l-6.27,8.57-3.14,4.28-.39.53c-.09.15-.2.29-.28.44a4,4,0,0,0-.39,1,4.22,4.22,0,0,0-.08,2,4.49,4.49,0,0,0,.85,1.84,7,7,0,0,0,1.74,1.41l4.45,3,8.89,6,17.77,12q17.79,12,35.51,24l1.8,1.23-1.42,1.67-30.18,35.55-30.25,35.5-7.58,8.85-1.9,2.22-.47.55-.22.26-.1.13a1.66,1.66,0,0,0-.25.56,1.72,1.72,0,0,0,.16,1.22,19.33,19.33,0,0,0,1.58,1.78l15.82,17.13q15.78,17.18,31.49,34.4l1.22,1.34-1.24,1.27-58.8,59.77L700,329.16l-3.67,3.74-.46.47c-.1.09-.09.09-.12.16a.33.33,0,0,0,0,.32,7.86,7.86,0,0,0,.79.61l1,.78,16.81,12.52,33.7,24.93,1,.72-1.06.57-37.14,20-37.1,20,.33-1.41,14.77,20.9,7.38,10.45,3.7,5.23,1.84,2.61a6.94,6.94,0,0,0,1.9,2,6.73,6.73,0,0,0,2.43,1l3.13.6,6.28,1.21L728.15,459l25.13,4.84-.91.06,79.89-28.17-1.37,1.37,50.55-144.53,6.37-18.05,3.19-9,3.45-8.93,13.85-35.69,13.88-35.68,14-35.64.44,2.37L885.77,95.34,835.13,38.58l.33.26c-11.38-6.15-22.73-12.44-34.16-18.71Zm-.11-.49L801.5,18.59c11.66,6,23.4,12,35.1,18.09l.18.1.16.16L888.56,92.8l51.44,56,1,1-.51,1.34L926.86,187,913.17,222.7l-13.7,35.72L896,267.34l-3.2,9-6.38,18L835.1,438.57l-.36,1-1,.34-80.21,27.23-.46.16-.45-.1L727.55,462,715,459.37l-6.27-1.31-3.15-.66a9.52,9.52,0,0,1-3.38-1.5,9.69,9.69,0,0,1-2.52-2.64l-1.81-2.63-3.62-5.28-7.23-10.55-14.48-21.11-.61-.9.95-.51,37.23-19.8,37.21-19.84-.1,1.29-33.83-24.75-16.95-12.34-1.06-.77-.53-.38a2.75,2.75,0,0,1-.71-.65,2.4,2.4,0,0,1-.34-2.17,2.54,2.54,0,0,1,.58-.94l.45-.47,3.61-3.8,7.21-7.6,57.76-60.78,0,2.61q-16-16.95-31.92-34l-15.89-17.07-1-1.06a7.55,7.55,0,0,1-1.22-1.58,6.19,6.19,0,0,1,.31-6.5l.35-.45.25-.3.47-.55,1.9-2.22,7.57-8.86,30.4-35.37,30.47-35.31.38,2.89Q767.86,109.32,750.3,97L732.72,84.76l-8.79-6.13-4.39-3.07a9.55,9.55,0,0,1-2.33-2,7.09,7.09,0,0,1-1.32-3,6.79,6.79,0,0,1,.18-3.26,7,7,0,0,1,.65-1.51c.14-.24.3-.46.46-.69l.41-.53,3.28-4.31,6.57-8.59L740.6,34.56Z"/><g class="cls-6"><path class="cls-2" d="M798.87,80a7,7,0,0,1,.28,1.09l-1.07-8a2.25,2.25,0,0,1,0,.58l1.07-8-.07.24,3-7.15c-.27.58,10.55-10.23,9.87-9.92l7.15-3a3,3,0,0,1-.59.16l8-1.07A10,10,0,0,1,824,45l8,1.07c-14.7-2.29-27.82-10.37-42.69-12.37-11-1.48-21.62-1.14-31.53,4.72a53.27,53.27,0,0,0-7.12,5.74c-3.18,3.43,5.62-3.15,1.12-1l-1.24.71q-3.79,1.91,2.66-1A25.06,25.06,0,0,0,749,44.18c-4.47,1.5,6.5-.07,1.42-.09-1.18,0-2.4,0-3.58,0-2.57.12,6.85,1.45,1.21.16-1.9-.43-7-2.64-.06.44l11.47,28.21c.4-1.44.81-2.86,1.29-4.27.31-.92,1.93-4.85.25-1s0,.18.42-.68c.56-1.09,1.16-2.17,1.8-3.22,1.77-2.87,2.21-1.21-.91.88a16.37,16.37,0,0,0,2-2.08c1.49-1.48,3.23-2.7,4.72-4.17-.95.93-4.49,3.26-1.39,1.17.83-.56,1.64-1.14,2.47-1.69,2.09-1.39,4.22-2.71,6.36-4,4.44-2.72,8.9-5.41,13.28-8.24L755.63,26.07a153.93,153.93,0,0,0,3.76,45.08c3.44,14.3,9.44,27.86,15.17,41.35l2.1,4.92c2.07,4.82-.88-3.08.54,1.35.41,1.08.78,2.18,1.11,3.29q.68,3.09.28.48a5.75,5.75,0,0,1,.34-3.58c1.29-2.62,1.35-2.93.2-.93,3.06-4.51.44-.9-.59.11-1.25,1.23-2.55,2.42-3.84,3.61-3.24,3-6.09,6.19-9.05,9.43-5.44,6-11.42,11.59-16.58,17.79-3.31,4-5.24,8.26-7.42,12.88-2.11,4.45-4.69,8.91-6,13.65l4-6.88c-9.37,9.12-18.85,18.13-28.59,26.86-7.12,6.39-5.2,19.29,3.06,23.74,13.28,7.15,27.07,13.76,39.6,22.18l37.72,25.39c6.74,4.53,17.75,2.94,23.21-3a19.74,19.74,0,0,0,3-23.2c-10.44-18.47-21.43-36.65-32.16-55l-20,34.86c1.36.12,2.73.29,4.1.37,2.93.19-4.84-1.12-.53,0,2.67.67,5.28,1.32,7.92,2.12,3,.93-.14.35-1-.55.7.7,2.73,1.29,3.68,1.8,1.21.64,2.39,1.33,3.55,2.06s5.36,3.9.56.13l16.68-40.27,9.59,7.36q10.63,2.78,10.16,11.94c0-.95.25-2.91-.22,1.22a15.26,15.26,0,0,1-1.92,5.88c1.61-3-1.92,2.16-2,2.23.25-.24-5,3.43-2.71,2.08,2.57-1.5-4.92,1.49-2,.74a8.12,8.12,0,0,0,1.9-.56c-.43.58-5.85.16-2.38.32a14.5,14.5,0,0,0,2.66,0c-.39.18-4.93-1.3-3-.35a10.23,10.23,0,0,0,2.57.73c2.19.34-2.54-.79-2.65-1.09.06.16,2.43,1.38,2.26,1.37s-3.91-3.28-2.3-1.62-1.57-2.35-1.57-2.32,2.57,5.27.7.62c-1.41-3.5-.44-1.15-.28-.39.83,3.91-.21-2.25-.14-2.47-.22.64-.33,7,.25,2.11.61-5.16-1.87,3.53.29-.94,1.84-3.8.34-.36-.21.12-2.13,1.84,3.34-3.83,1.45-1.68-3.44,3.94,3.48-2-.21.33-2.46,1.55-1.21-.66,1.38-.41a9,9,0,0,0-2.32.77c-4,1.22-8,1.92-12.07,2.9a115.85,115.85,0,0,0-45.74,22.65,147.37,147.37,0,0,0-15.58,15c-2.39,2.64-4.7,5.36-6.94,8.12q-1.45,1.8-2.88,3.63a58.08,58.08,0,0,1-4.44,5.74c-2.1,2.12,2.63-3.14.61-.9-12,13.29-21.91,28.94-31.79,43.8-6.24,9.4-2.09,24.11,7.7,29.35l63.68,34.09-4.12-32c-17.35,17.69-36.08,34-53.54,51.57-16.71,16.81-26.43,49.9-.87,64.09,6.13,3.4,14.45,4,20.52,0,28.58-18.89,58.65-35.81,88-53.58,8.8-5.34,12.89-17.9,7.06-26.94s-17.46-12.7-26.94-7.06c-29.44,17.51-58.49,36.12-88.59,52.48h20.52a10.75,10.75,0,0,1,4.09,4.34q-1.59-2.76.79,2.16-.7-3.19.32,2.42.17-3.3-.41,2.23a22.18,22.18,0,0,1,.6-2.3q1.13-3.14-.75,1.55c.67-.37,1.37-2.67,1.85-3.46.92-1.54,2-3,2.94-4.49,1.34-1.86,1-1.47-1,1.16.54-.66,1.1-1.31,1.68-1.94,3.17-3.49,6.6-6.78,9.9-10.16,14.15-14.47,28-29.26,42.65-43.28,9.43-9.06,7.07-25.54-4.12-32l-62.59-36,7.69,29.34c5.32-7.5,10.52-15.24,16.36-22.35-3.9,4.75,1.57-1.94,2.32-2.87q1.93-2.4,3.93-4.76a128.71,128.71,0,0,1,9.95-10.67c3.12-3,6.34-5.88,9.65-8.65.78-.64,1.58-1.27,2.35-1.92,4-3.34-3.43,2.5-.7.51,2-1.46,4-2.93,6-4.31,7.31-4.94,14.78-9.94,22.73-13.78a16.92,16.92,0,0,0,3.36-1.56c-.34.29-5.7,2.22-1.79.8,1.89-.69,3.76-1.38,5.67-2,5.16-1.62,10.5-2.65,15.61-4.46,14.84-5.28,26.26-14.88,31.48-30a46,46,0,0,0-4-37.69c-7.62-12.78-21.51-20-36-21.14s-30.51,5.57-37.63,18.73a33.58,33.58,0,0,0-3,25.15c3.58,12.08,14.1,18.81,26.24,19.52,9.88.58,20.56-7.7,22.75-17.32,2.54-11.13-2.12-20-10.84-26.64-12.88-9.83-30.58-15.83-46.84-15.17-8.26.33-15.75,4.2-20,11.47-3.79,6.47-4.87,17,0,23.39,14,18.26,27.79,36.73,42.08,54.76l23.21-30.07L769.13,215c-13.78-6.18-26.67-14.4-39.77-21.9l3.06,23.74c10-8.49,19.79-17.16,29.3-26.17l-6.89,4c4.77-1.16,9.38-3.77,13.85-5.83,5.36-2.48,9.82-4.56,14.26-8.69,6.35-5.93,12.24-12.48,18.17-18.82,5.78-6.18,12-13.54,15.85-21.22,5.39-10.87,5.3-23.19,1.13-34.46-5-13.55-11-26.71-14.62-40.73-.84-3.25-1.57-6.53-2.16-9.84-.17-.95-.32-1.9-.47-2.86.42,3.27.52,4,.31,2.29s-.37-3.46-.5-5.2A148.32,148.32,0,0,1,801,26.07c1.47-17.34-20.3-28-34.13-19.59-9.79,6-19.93,11.2-29,18.23a82.19,82.19,0,0,0-24,29c-6.17,12.8-3,26.08,9,34.17a55.5,55.5,0,0,0,34.8,9A63.74,63.74,0,0,0,777.74,92a39.57,39.57,0,0,0,8.31-4.21c2-1.44-9,2.76-4.15,1.9l-7.62,1a17.19,17.19,0,0,1,4.18.09l-7.71-1c12.11,1.88,24,7.51,35.54,11.4A64.86,64.86,0,0,0,826.14,105c20.44.3,37.3-21,30.49-40.87C851.56,49.32,835.84,38,819.79,43.19c-14.66,4.75-26.37,21-20.92,36.85Z"/></g><path class="cls-7" d="M1012.57,301C997.34,360,949.8,404.52,897.4,431.49c-75.26,38.73-165,34.83-165,34.83L648.92,408l87.15-72.37L646.74,247l158.4-33.87L725.4,115c-.07-.09,68.76-54.23,76.17-59.66-13.32-17.59-27.39-34.73-41.15-52a309.25,309.25,0,0,1,173.68,87C986.85,143.17,1032.15,225.29,1012.57,301Z"/><path class="cls-5" d="M1010.77,300.54c-23,83.7-105.17,136-185.69,154a386.54,386.54,0,0,1-88.4,9.54,28,28,0,0,0-3.17-.06c-1.31.14-1.17-.58,0,.25-1.55-1.06-3.09-2.16-4.63-3.24q-12.67-8.86-25.32-17.74L650.2,405.78l.51,4,76.46-63.18,10.88-9a2.82,2.82,0,0,0,0-4L660.18,256l-11.25-11.21L647.56,250q69.59-14.69,139.09-29.71l19.3-4.2c2.45-.54,2.7-3.46,1.35-5.1-22.94-28-45.48-56.43-68.27-84.6q-5.6-6.93-11.21-13.85v4.84c1.8-2.06,4.6-3.68,6.73-5.37q8.25-6.52,16.52-13Q771,83.34,790.92,67.75c4.1-3.19,8.17-6.44,12.36-9.52,1.33-1,2.41-3,1.21-4.63C790.94,35.76,776.75,18.43,762.8.91l-3.27,5.62c55.55,8.09,108.68,31.27,151.74,67.39,42,35.26,76.69,82.82,93.27,135.39,9.33,29.57,12.07,60.41,3.47,90.47-1.69,5.89,7.83,8.44,9.13,2.51,12.38-56.38-6-113.66-36.92-160.84a327.25,327.25,0,0,0-55-64.22C903.81,58,879.89,42.56,854.39,29.38c-29-15-60.84-24.61-93.07-29.33-3.4-.5-5.45,2.89-3.27,5.62,13.58,17.07,27.41,34,40.59,51.35l1.22-4.63c-23.16,17-45.48,35.34-68.05,53.15-2.79,2.2-6.48,4.32-8.82,7a3.53,3.53,0,0,0,0,4.84c23.4,28.84,46.75,57.72,70.54,86.23,3.21,3.85,6.31,7.79,9.46,11.69l1.34-5.1q-69.6,14.61-139.11,29.64L645.91,244a3.13,3.13,0,0,0-1.37,5.19l78.25,77.2,11.3,11.15v-4L658,397.14l-10.83,9c-1.34,1.12-.71,3.11.51,4l47.12,32.77q14.57,10.13,29.1,20.28c3.09,2.16,6.12,5.34,10,5.51,27,1.13,54.82-2.31,81.24-7.41C858.18,453,899.36,436.94,935,411.07c37.26-27.08,68-64.24,79.41-109.54C1015,299.19,1011.41,298.2,1010.77,300.54Z"/><path class="cls-4" d="M132.07,178.63c-4.61-58.3,21.82-118.15,68-154l3.59,4.89c1.32,6.61,17.44,74.23,12.8,74.45l75.88-3.6c3.78-.18,7.93-.24,10.88,2.13s3.83,6.78,4.31,10.69a322.83,322.83,0,0,1-3.08,97.12l81.92-1.38,2.08,74.14c.14,5.07.61,10.82,4.57,14,3.06,2.43,7.29,2.54,11.19,2.54l43.8.06-21.91,69.95c-.93,3-1.84,6.28-.54,9.1,1.54,3.34,5.51,4.67,9.06,5.65L473,394.94l.25-.39c-32.13,33.85-98.39,24.39-138,49.06Z"/><path class="cls-5" d="M134.53,178.63c-4-58,21.75-116.22,67.51-152L197.69,26c1.56,2.12,3.11,3.93,3.59,5.57.65,2.21,1,4.55,1.51,6.79,1.79,7.95,3.56,15.91,5.24,23.88,1.84,8.72,3.63,17.46,5.06,26.25.51,3.14,1,6.3,1.26,9.47a22.06,22.06,0,0,0,.14,3.46c.45,1.76-1.26.29,1.23-.19-3.11.6-2.41,5.67.75,5.53l48.92-2.3q12.48-.58,25-1.17c3.16-.14,7.41-.82,10.28.87,3.59,2.11,3.83,7.26,4.26,10.9a318.29,318.29,0,0,1-3.24,94.45,3,3,0,0,0,2.81,3.69l81.92-1.39-2.9-2.91,1.15,41,.61,21.46c.16,5.86-.1,11.92.82,17.73,1.67,10.62,9.39,13.35,19.16,13.38,14.27,0,28.53,0,42.8,0l-2.78-3.64L434,334.8c-3.76,12-8.35,24.07-11.3,36.31-2.3,9.57,3.71,13.9,12.12,16.25,12.47,3.49,24.95,6.89,37.43,10.34a2.93,2.93,0,0,0,3.22-1.32l.26-.39c1.79-2.73-2.25-5.77-4.49-3.46-17.36,17.92-43.4,23.08-66.9,28-23.71,4.92-49.09,8.56-70.06,21.47l2.62.69-69.24-89.77L158.08,210.8c-8.4-10.88-16.83-21.74-25.19-32.65-.73-1-2.38,0-1.64,1,23,30,45.78,60.07,68.68,90.1l108.68,142.6,25,32.77a2,2,0,0,0,2.62.69C378.58,419.53,439,434,475.28,396.57l-4.48-3.46-.26.39,3.23-1.31-30.71-8.49c-3.86-1.07-11-1.75-13.9-4.88-3.54-3.87,1.09-12.85,2.38-17l19.26-61.44a2.91,2.91,0,0,0-2.78-3.65l-35.83-.05c-4.92,0-12.07,1.21-16.5-1.36-4.91-2.84-4.29-10.37-4.42-15.21l-2-71.22a3,3,0,0,0-2.91-2.9l-81.92,1.36,2.82,3.7A332.38,332.38,0,0,0,312.64,159q.3-13.38-.51-26.76c-.48-7.93-.54-16.55-2.59-24.26-1.53-5.78-5.41-9.63-11.44-10.36-8.32-1-17.37.46-25.72.86l-55.91,2.68.75,5.53c4.79-.93,2.61-10.41,2.23-13.33-1.22-9.23-3.08-18.38-5-27.5s-3.94-18.38-6-27.55c-.61-2.72-1.16-5.47-1.84-8.18s-2.5-4.65-4.15-6.9a2.85,2.85,0,0,0-4.36-.56c-46.77,36.69-73.21,96.7-68.51,156C129.86,181.76,134.75,181.8,134.53,178.63Z"/><g class="cls-6"><path class="cls-2" d="M162.44,120.17c22.7,11.1,46.95,8.64,70.86,3.24,5.64-1.28,11.28-2.49,16.93-3.68,5-1-2.73.31,2.16-.46,1.26-.2,2.54-.32,3.81-.47a112.78,112.78,0,0,0,11.3-1.7c3.05-.67,6.11-1.29,9.19-1.81.4-.07,4.52-.68,2.38-.39s2-.2,2.37-.24a137.38,137.38,0,0,1,18.26-.26L285.48,89.63c-4.17,6-6,9-11.05,14.08-4.59,4.59-9.42,9-14.42,13.11-1.08.91-2.18,1.8-3.29,2.68a17.05,17.05,0,0,1-2.13,1.64c-2.73,2-5.47,4-8.27,5.86-5.62,3.78-11.46,7.22-17.3,10.65a16.59,16.59,0,0,0-6.77,20.66c3.09,7.32,11.59,12,19.52,9.57,1.73-.53,3.49-.93,5.23-1.42q2.87-.53-.32-.05l1.33-.09c1.93.08,1.76,0-.5-.33,1.78.49,1.63.34-.43-.47a14,14,0,0,1-2.62-3.72q-.15-3.11,0-.17a24.17,24.17,0,0,1-.18,2.94c.36-3.37-.31,1.1-.44,1.79-.9,5-1.77,9.74-1.1,14.75a29.27,29.27,0,0,0,14.42,21.18c10.63,5.9,21.79,2.33,28.61-7.26h-27.4c.9,1.64,1,1.73.19.29q-.07-2.67,0,.21.6-2.57,0,.22,1.13-2.13-.23.3c-5.4,9.47,1.25,24.9,13.55,23.61,17.84-1.87,35.68-3.83,53.54-5.59,18.51-1.82,36.86-3.35,55-7.53l-10-23.74c-15,10.67-33.47,17.51-50.52,24.18a570,570,0,0,1-54.47,18.16l7,25.4c32.88-13.35,66.9-23.14,102.23-27.14l-12.27-9.34c3.62,25.54,4.89,51.38,8,77,.92,7.56,6.22,16,15.17,15.18l61.36-5.52-11.33-27.35c-23.57,28.46-36.07,62-39.42,98.6l28.4-11.76c-2.15-1.94-4-4-6-6.15,2.41,2.62-.41-.63-.77-1.16-.79-1.18-1.54-2.4-2.24-3.64s-1.32-2.54-2-3.81c-1.51-2.88.37,1.44-.21-.48-.84-2.75-1.83-5.39-2.47-8.22-.26-1.16-.46-2.34-.69-3.52.84,4.27,0,.09-.05-1a59.79,59.79,0,0,1,0-8.57c0-.72.11-1.43.19-2.14q.22-2.07-.16,1.28c-.22-1.12.62-3.13.88-4.18a58.59,58.59,0,0,1,2.75-8.14c5.36-13-10.38-27-22.76-22.75-4.59,1.56-9.2,3.17-13.85,4.55-.69.21-4.57,1.16-.93.68a21.91,21.91,0,0,1-3.34,0c-1.11,0-2.21-.14-3.31-.22,1.72.13,2.49.55.42-.1-.57-.18-4.95-1.48-2.1-.46,2.49.89-.61-.4-1.13-.71s-3.79-2.41-.94-.51c2.62,1.75.27-.11-.31-.59-2-1.66,2.57,4.19.61.88-.46-.77-.91-1.55-1.38-2.32-1.71-2.82.81,1.08.71,1.93.1-.85-.82-2.43-1-3.25s-.37-1.84-.63-2.72c-.82-2.88.34,5.47.33,2.51,0-2.09-.06-4.2-.06-6.3,0-3.95.05,2.64-.48,2.9.24-.11.46-2.36.54-2.69.59-2.56,1.52-5,2.32-7.48,1.11-3.43-2.58,5.17-.84,2.08.56-1,1-2.07,1.54-3.08,1.22-2.31,2.54-4.57,3.93-6.79,2.82-4.5,5.9-8.83,9-13.15s4.49-11.45,4.49-16.59a32.58,32.58,0,0,0-7.06-19.93c-8.47-11-21.24-14.32-34.56-11.78-17.48,3.33-34.56,9.25-51.62,14.23l-51.41,15C222.16,239,209.24,259,215.19,277.43c5.68,17.55,24.73,30.93,43.6,24.75L306,286.72c17.8-5.84,36.09-11,53.28-18.4l-8.05,3.39c5.76-2.24,11.46-4.54,17.12-7L320,227.56c-9.22,26-15.77,57.46,1.81,81.73,9.62,13.28,23,21.93,39.71,22.68,7.34.33,14.24-1.66,21.29-3.28a121.41,121.41,0,0,0,18.08-5.27l-22.75-22.76c-10.14,28.57-.73,63.85,22.88,83.06,5.35,4.34,11.49,6.25,18.17,3.43A16.83,16.83,0,0,0,429.43,372c.09-2.22.27-4.44.49-6.65.06-.61.67-5.3.23-2.24.56-3.85,1.28-7.69,2.14-11.49a153.77,153.77,0,0,1,6.25-20.78,137.2,137.2,0,0,1,8.25-17.26q2.88-5.1,6.13-10c.92-1.39,1.87-2.77,2.83-4.13.35-.49,3.73-5,2.49-3.43,4.11-5.25,6.07-11,3.31-17.5-2.24-5.3-8.42-10.58-14.64-9.85l-61.36,7.21L400.19,287c-3.82-25.52-9.5-50.75-12.82-76.34-.82-6.27-5.2-13.49-12.74-12.73C336,201.85,298,211.07,262.25,226.47c-5.93,2.56-7.74,11.08-5.38,16.44,2.56,5.83,9.13,9.56,15.53,7.63a572.08,572.08,0,0,0,55-19.69c9.26-3.87,18.45-7.9,27.52-12.21,8.45-4,16.71-8.83,25.48-12.1,6.05-2.25,10.32-7.51,9.31-14.25A13.07,13.07,0,0,0,377,181c-17.66-.66-35,1.19-52.56,2.79s-35,3-52.55,4.46l13.54,23.61c6.14-10.29,6-22.43.36-32.87a15.84,15.84,0,0,0-13.7-7.86c-6.07,0-10.27,3.22-13.7,7.86,6.16-8.31,9.4-5.93,15.2-3.91,1,.85,1,.78-.05-.21,1.12,1.59,1.37,1.89.73.9s-.48-.64.32,1.17q-.71-2.67-.09.87c-.27-2.8-.69,2.43.19-1.37,1.8-7.82,3.38-16.09,1-24-5.76-19-26.26-21.26-42.66-16.52l12.75,30.24c25.19-14.13,46.63-35.14,65.62-56.64,4-4.48,5.87-10.08,4.24-16-1.4-5.06-6-10.63-11.5-11.5-13.27-2.1-26.15-.88-39.3,1.71C253.33,86,243,91.21,231.88,94.71c-5.42,1.71-10.9,3.29-16.42,4.67-2.45.61-4.92,1.17-7.39,1.66-1.47.29-2.94.55-4.41.8a9.7,9.7,0,0,1-2.37.32c-11.15,1-19.33.42-29.64-3.83-5.42-2.24-12.11,2-14.1,6.92-2.08,5.15-.54,12.27,4.89,14.92Z"/></g><path class="cls-7" d="M198.29,27.25C65.39,77.3-30.59,263.39,35.44,386.34c63,117.29,318.83,201.85,479.78-23.11L401.58,394.11a168.31,168.31,0,0,1,10.85-112.28l-125.69-1a723.81,723.81,0,0,1,88.9-135.31L250.89,130.67a280.89,280.89,0,0,1,12.72-95.76,212.58,212.58,0,0,0-65.81-7.74"/><path class="cls-5" d="M197.78,25.4C129.63,51.14,75.51,108.15,43.33,172.48,12.4,234.32-.93,310.24,27.71,375.46,48.6,423,92.09,457.63,138.32,479,193,504.3,255.16,512.69,314.46,502c72.88-13.18,136.37-55.51,183.47-111.79,6.91-8.25,13.6-16.68,19.89-25.42,1.59-2.21-1-5.06-3.4-4.42l-113.66,30.8,3.8,2.16a166.32,166.32,0,0,1,10.61-109.86c1-2.14-.17-4.76-2.74-4.78l-125.69-1.06,2.83,4.92A734,734,0,0,1,378,147.92a3.39,3.39,0,0,0-2.36-5.71L250.89,127.53l3.15,3.14a283.1,283.1,0,0,1,12.62-94.92,3.21,3.21,0,0,0-2.21-3.9A220.84,220.84,0,0,0,197.8,24c-4.09.15-4.1,6.52,0,6.38a214.9,214.9,0,0,1,65,7.6l-2.22-3.9a288.68,288.68,0,0,0-12.8,96.61,3.25,3.25,0,0,0,3.14,3.14L375.64,148.9l-2.36-5.71a727.06,727.06,0,0,0-89.36,136,3.31,3.31,0,0,0,2.82,4.92l125.69.87-2.74-4.78A173.26,173.26,0,0,0,398.6,394.93a3.12,3.12,0,0,0,3.8,2.16l113.62-31-3.39-4.42C469,422.58,409.4,472,336.19,491.88c-57.86,15.75-120,12.16-176.12-8.78-46.5-17.37-92-47.43-118.4-90.37-35.84-58.22-30-132.14-5.74-193.48C62.17,133,111.59,72.63,175.39,39.6A225,225,0,0,1,198.8,29.11c2.29-.88,1.3-4.59-1-3.71Z"/><g class="cls-8"><path class="cls-2" d="M586.49,418.85c14.18-3.22,31,4.81,33.13,19.62.56,3.86-.15,5.92-1.39,10.1-2.15,7.29-1.32,14.48,0,21.92,2.27,12.61,9.12,23.24,20.18,29.82,19,11.32,43.87,14.82,65.59,15.56a251.44,251.44,0,0,0,33.28-.67c5.18-.51,8.45-1.38,13-1.33-.15,0,3.8.3,2,0s2,.48,1.82.45c1.56.31.62.89,0-.07,1.79,2.8-2.55-4.88-2.19-3.51a6.13,6.13,0,0,1,.48-4.69c2.43-2.1,3-2.74,1.58-1.91-.75.44-.7.39.16-.15.7-.1,2,0-.41-.05-1.5,0-3,0-4.51-.07l-19.92-.66-19.92-.66c-3.65-.12-7.31-.18-11-.36-.47,0-4.59-.29-2.34-.07,1.26.25.85.18-1.22-.2l-3.73-.66c-8.66-1.53-16.77.37-22.38,7.63-4.72,6.1-6.74,16.94-1.66,23.64,3.55,4.7,6.83,8.8,12,11.9a77.83,77.83,0,0,0,13,5.95c6.92,2.58,14.4,3.63,21.72,4.21,14.54,1.16,29.13-1.82,43.3-4.68,13.59-2.73,26.95-6.51,40.63-8.78q2.73-.45,5.46-.84c-3.18.45,1.23-.12,2.25-.24q6.44-.71,12.89-1.05,11.52-.63,23.07-.13,6.92.29,13.79,1c.07,0,3.08.39,1.23.14-1.67-.22,1.83.28,2.14.33,2.13.33,4.25.68,6.37,1.07a241.09,241.09,0,0,1,26.89,6.55V512.79c-19.91,4.94-39.81,10-59.75,14.8-7.49,1.82-13.79,9.86-13.44,17.66.33,7.42,5.37,16.38,13.44,17.65a327.37,327.37,0,0,1,74.56,20.83c-.76-.31-2.81-1.23.63.28,1.69.74,3.38,1.48,5.06,2.25,2.06.93,4.11,1.89,6.13,2.92s4.24,2.26,6.28,3.51c1,.63,2,1.27,3,1.95,1.63,1.1,3.11,2.52.77.46,1.75,1.54,3.37,3.17,5.05,4.78,3.12,3-1.68-3.3.35.44.41.74.91,1.59,1.36,2.28,2.23,3.41-.59-3.65.12.36a18.93,18.93,0,0,0,.63,2.61l-.32-2.33a28.72,28.72,0,0,1,0,3.47c0,.89-.66,6-.12,1.87-1.1,8.33-2,15.55-.4,23.9.53,2.8,1.35,5.52,2.07,8.27.29,1.09.53,2.21.82,3.3.43,2.25.44,2.22,0-.07.05.82.06,1.65,0,2.47.14,2.38-1.24.32.32-1.58-.41.5-.68,2.66-.84,3.34-.58,2.35-1-.48.67-1.46a10.31,10.31,0,0,0-1.38,2.48c-1.34,2.65-1.6.09.68-.64-.56.18-1.5,1.71-2,2.18-.69.72-1.41,1.41-2.16,2.08-3.48,3.11.15.3.07.06.32.93-10.09,6.05-11.2,6.58s-2.57,1.57-3.66,1.69c.37,0,4.24-1.68.91-.4-2.51,1-5,1.92-7.57,2.79-10.67,3.64-21.52,6.62-32.11,10.51-12,4.41-23.23,10.9-34.17,17.45-10.59,6.35-21.48,12.15-32,18.69s-20.6,13.55-30.39,21-19.4,15.55-25.74,26.41c-6.22,10.65-8.37,22.67-10.38,34.65-1.94,11.55-3.84,20.92-10.83,29.8-5.83,7.41-14.73,16.39-20.24,25.65-6.09,10.25-10.1,21.54-15.63,32.08a106.81,106.81,0,0,1-9,14.25c-2.13,2.87-5.86,7.54-9.14,11.28a108.79,108.79,0,0,1-24,20.51c-18.75,11.75-41.39,16.76-63.38,15.06-6.58-.51-8.11,10.33-1.57,11.6A122.2,122.2,0,0,0,657,947.92c20-7,41.19-17.89,54.66-34.8a144.9,144.9,0,0,0,18.21-30c5-10.77,10.09-22.07,17.23-30.39,8.74-10.19,17.61-19.6,22.58-32.3,4.41-11.28,5.15-23.42,8-35.1,2.63-10.87,7-16.86,16.08-24.57,7.62-6.5,19.86-14.11,29.79-20.11q8.31-5,16.87-9.61,3.89-2.08,7.83-4.08a51.35,51.35,0,0,1,7.38-3.36c12-4.52,24.49-7.77,36.51-12.26,20.4-7.62,43.16-12,61.07-25.06,10.05-7.32,18.69-16.64,22-29a47.91,47.91,0,0,0,.33-21.83c-.55-2.79-1.39-5.5-2.14-8.24-.3-1.09-.53-2.22-.86-3.3q-.65-3.35-.12.06a30.88,30.88,0,0,1,0-3.47c0,.14.47-5.52.18-2.67-.19,1.38-.15,1.07.13-.93q.48-3.39.89-6.79a47.59,47.59,0,0,0-.62-13.36A42.57,42.57,0,0,0,965,579c-8.63-11.61-20.7-19.36-33.79-25.16a343.24,343.24,0,0,0-89.45-26.29V562.9c19.89-5,39.83-9.91,59.74-14.85,7.48-1.86,13.77-9.81,13.42-17.63a18.88,18.88,0,0,0-13.42-17.63,268.64,268.64,0,0,0-123.19-7.36c-8.3,1.43-16.54,3.23-24.82,4.79-2.08.4-4.18.71-6.25,1.14-2.3.37-2.09.37.62,0q-9.1,1.23-3.11.4c-3.91.91-8.34.91-12.34,1.1a105.47,105.47,0,0,1-12.06-.06c-1-.06-2-.15-3-.24-2.38-.28-1.95-.21,1.3.19-.26.38-5.07-1-5.63-1.16-1.85-.47-3.63-1.11-5.45-1.67-2.2-.86-1.78-.66,1.25.57q-1.29-.58-2.55-1.26a52.76,52.76,0,0,1-4.93-3c-1.92-1.33-12.29-6.09-5.21-2.79l-5.09,38.92c13.08-4.22,26.84-5.85,40.37-8.15,11.54-2,25.48-2.28,35.78-8.44a19.21,19.21,0,0,0,.93-32.64c-9.23-6.07-19.67-4.69-30-3.69-12.45,1.19-24.64,1-36.9-1.49a170.8,170.8,0,0,1-17.84-4.7q-4.43-1.42-8.76-3.08c-1.15-.45-2.31-.9-3.46-1.37,2.11.88-2.91-1.37-3.39-1.6a70.89,70.89,0,0,1-6.69-3.78c.59.38,2.32,2.11-.06-.09-1.1-1-2.2-2-3.2-3.14-.67-.75-1.27-1.54-1.91-2.32,0,0-2.89-3.91-1.38-1.64s-1.07-2.15-1.06-2.12c1.8,3.22-.19-.63-.48-1.58a75,75,0,0,1-1.71-7.84l.16,1.42a17.32,17.32,0,0,0-2.38-8.8c-.45-.87-1-1.73-1.43-2.61-2.64-5.08-4.22-9.71-7.36-14.87C629.24,411.58,604,400.39,583.5,408c-6.72,2.49-4.17,12.47,3,10.85Z"/></g><g class="cls-9"><path class="cls-2" d="M962.68,538.39A204.56,204.56,0,0,1,993,570.11c8.45,11.25,16.72,22.07,22.61,35a104.1,104.1,0,0,1,9.3,37.29c.58,11-1.56,22.27-4.34,32.9-5.45,20.84-17.06,38.7-34.92,51-24.72,17.06-54.75,23.56-83.62,29.85-29.76,6.49-60,13.07-86.52,28.66-23.18,13.6-41.34,34-55.11,56.89-12.76,21.21-22,46.82-39.09,64.32-15.22,15.59-34.89,26.77-55.08,34.66-43.93,17.16-95,23.23-140.76,9.91a147,147,0,0,1-15.15-5.33c-4.64-1.91-10.21,2.08-11.42,6.49-1.44,5.25,1.79,9.59,6.48,11.41,22.48,8.74,47.13,11.79,71.13,11.56a287.15,287.15,0,0,0,77.27-10.91c23.5-6.82,46.69-16.91,66.28-31.74,21.18-16,37.44-37.52,52.38-59.26,7-10.19,13.53-20.72,20.65-30.82.87-1.24,1.77-2.47,2.67-3.69.18-.25,1.82-2.4.9-1.22s.52-.64.55-.68c2.12-2.58,4.26-5.13,6.52-7.59a132.39,132.39,0,0,1,14.5-13.51c.5-.4,1.45-1.09,2.72-2,1.49-1.12,3-2.24,4.5-3.31q4.75-3.37,9.76-6.38a156.83,156.83,0,0,1,19.82-10c14.39-6.06,29.51-10.35,44.52-14.57,30.29-8.51,61.84-16.57,88.18-34.52,20.19-13.76,35.32-32.67,42.26-56.25,6.66-22.62,8.27-48.65,3-71.64-6.53-28.69-23-53.62-44.9-72.88-5.86-5.15-12-9.95-18.3-14.54-5.39-3.92-12.23,4.92-7.16,9.28Z"/></g><g class="cls-10"><path class="cls-11" d="M637.17,960.75c22-5.37,42.72-20.18,59.67-34.73,17.81-15.28,31.75-33.81,44-53.71,11.57-18.83,22.4-38.42,36.67-55.4,14-16.71,30.41-29.58,49.28-40.37q7.1-4,14.47-7.6c2.47-1.18,4.95-2.31,7.45-3.42,3-1.3,1.39-.59.73-.32q2.63-1.1,5.29-2.1c10.11-3.83,21-6.06,31.64-7.88,1.35-.23,2.71-.45,4.06-.66.56-.09,4.66-.69,1-.16s.37,0,.94-.06c2.59-.3,4.4-.56,6.67-1,4.53-.84,9-1.69,13.58-2.44,8.33-1.38,16.69-2.64,25-4.27,17.08-3.34,35.25-7.53,50.44-16.27,19.09-11,34.83-29.47,40.37-51,6-23.34,3.23-49.9-5.36-72.23-4.47-11.62-9.53-23.22-16.67-33.48a78.08,78.08,0,0,0-32.11-26c-7.64-3.32-15.65-5.87-24.06-3.15a32.36,32.36,0,0,0-16.22,11.19c-9.11,11.79-9.06,30.41,2.44,41a62.81,62.81,0,0,1,6.64,7.2l-5.13-6.65a81.61,81.61,0,0,1,5.23,7.67,137.39,137.39,0,0,0,10.46,14.3l-5.47-7.07A130.47,130.47,0,0,1,964.44,640l-3.37-8c4.35,10.31,8,20.79,9.5,31.92l-1.1-8.24a71.5,71.5,0,0,1,.09,18l1.05-7.87a53,53,0,0,1-2,8.31c-.5,1.53-1.06,3.05-1.59,4.57-.29.84-.6,1.67-.89,2.51-1.41,4.22,2.63-5.27,1.05-2.42-1.43,2.57-2.58,5.22-4.2,7.69-.44.67-.93,1.31-1.37,2-1.64,2.52,3.93-4.5,1.79-2.38-1.12,1.12-2.09,2.41-3.19,3.55-2.06,2.1-4.38,3.85-6.51,5.85.13-.13,5-3.61,2-1.6-.49.33-1,.68-1.46,1q-2.21,1.5-4.5,2.86c-2.4,1.43-4.89,2.62-7.34,4-3,1.64,1.46-.73,1.83-.69a10.44,10.44,0,0,0-2.33.76c-1.57.49-3.14,1-4.73,1.4-12.32,3.47-25,5.57-37.52,8-15.37,3-29.57,8.55-43.72,15.31-14.92,7.12-29.67,14.83-43.3,24.22-14.31,9.88-27.09,21.25-39.33,33.55-25,25.11-40.83,56.24-59.32,86-10.21,16.44-20.34,32.25-34.11,46A203.59,203.59,0,0,1,658,935.27c-7.94,5.93-16.42,11-24.47,16.74-4.29,3.06-1.84,10.09,3.68,8.74Z"/></g><g class="cls-12"><path class="cls-2" d="M122,720.31c11.72,25.49,29.58,47.31,49.62,66.76a135,135,0,0,0,34.11,24.14A133.5,133.5,0,0,0,229.12,820c7.8,2.13,15.81,3.34,23.59,5.55A89.49,89.49,0,0,0,268,828.7l6.43.7,2.75.33c2.85.33,1,.53-.57-.1,2.79,1.13,6.7,1,9.7,1.57q5.22,1,10.38,2.14a280.36,280.36,0,0,1,39.2,12.47c2.77,1.08-3.28-1.4-3-1.27,2.42,1,4.79,2.07,7.22,3,1.66.65,3.33,1.27,5,1.92a33.47,33.47,0,0,1,4.25,1.73c-.25-.15-6.46-2.81-2.36-1l2.78,1.23q9.39,4.23,18.41,9.19c11.77,6.46,23.15,13.85,34.42,21.13,6.55,4.22,13,8.6,19.43,13.05q2.16,1.5,4.27,3c1.15.83,3.52,3.46,4.79,3.57,0,0-3.82-3-1.82-1.39.79.65,1.61,1.27,2.4,1.92q2.38,1.92,4.72,3.9,8.7,7.36,16.72,15.49c5.47,5.57,11.59,10.29,17.4,15.5,10.07,9,27.57.42,23.5-13.68-2.1-7.28-4.21-15-7.83-21.65a202.43,202.43,0,0,0-10.74-17.29,291.51,291.51,0,0,0-28.33-35.41c-21.5-22.89-50.08-37.51-78.9-48.93-26.83-10.63-56.82-14.88-85.58-15a133.32,133.32,0,0,0-28.26,2.42c-.86.18-6.25,1.27-2.94.75-1.81.28-3.68.37-5.5.53-4.24.38-8.49.67-12.74.81-14.22.45-28.12-.74-41.05-7-29-14.11-45.33-42-66.19-65.17-2.06-2.28-5.11.62-4,3.07Z"/></g><g class="cls-3"><path class="cls-11" d="M362.07,502.42c-6.2,6.41-13.65,12-21.74,14.89a101.92,101.92,0,0,1-13.69,4,120.21,120.21,0,0,1-15.3,2.25c-6.83.67-13.68,1.08-20.53,1.45-8.73.46-17.4,1.69-26.08,2.73-19.59,2.34-40.2,3.28-58.84,10.19-35,13-67.21,40.35-82.54,74.79-12.42,27.9-10.2,59.22,1.11,87.17.24.61,8.45,17.77,8.37,17.84.26-.26-1.67-4-.47-1.12.73,1.74,1.45,3.48,2.19,5.22.47,1.08.94,2.16,1.43,3.24,1.23,2.67,2.53,5.31,3.92,7.9a146.91,146.91,0,0,0,8.22,13.48c2.38,3.48,4.81,7,7.51,10.26-6-7.15,1.32,1.66,2.84,3.58.95,1.2,1.91,2.4,2.88,3.58,3.56,4.32,7.25,9.11,11.61,12.61,6.09,4.89,12.28,9.67,18.67,14.17A344.2,344.2,0,0,0,223,810.11C247.93,824,275.29,834,302,844c25.25,9.45,50.73,18.27,76,27.75q18.35,6.88,36.47,14.38l2.39,1c2.81,1.16-6.36-2.71-3.57-1.51l4.26,1.83q4.67,2,9.31,4.14,8.15,3.72,16.15,7.76a295.05,295.05,0,0,1,30.68,17.74q3.38,2.25,6.66,4.63c1.08.78,2.15,1.58,3.22,2.38,4.39,3.24-5.28-4.25-1-.8s8.17,7.23,12.36,10.73c3.85,3.22,7.71,6.37,11.32,9.87a23.73,23.73,0,0,0,31,1.85c9-7,12.34-20.39,6.09-30.48a116.61,116.61,0,0,0-23.65-27.87,270.52,270.52,0,0,0-31.28-22.9c-22.47-14.09-46.72-25.08-71.15-35.27s-49.12-19.23-73.81-28.5c-12.65-4.75-25.29-9.54-37.84-14.54q-9.06-3.62-18-7.38c10.29,4.29-.49-.23-3.18-1.4q-4.85-2.13-9.68-4.32c-22.26-10.16-44.7-20.41-65.16-34-4.83-3.2-9.67-6.14-14.62-9.15-2.19-1.33-4.36-2.7-6.49-4.12-1.12-.74-2.21-1.52-3.32-2.26-1.41-.94-3.57-2.82,2,1.6-2-1.54-3.94-3-6-4.45-3.85-2.76,3.33,2.71.83.64-1-.86-2.1-1.69-3.14-2.55q-3.24-2.72-6.32-5.59a134.19,134.19,0,0,1-11.09-11.66c-.37-.43-.73-.88-1.1-1.32-2-2.36.55,1,.72.92a24.78,24.78,0,0,1-1.7-3.09c-1.39-2.61-2.66-5.27-3.89-8-1.67-3.65.79,2.16-.1-.21-.48-1.26-1-2.51-1.45-3.77q-1.47-4.05-2.67-8.19c-1.61-5.58-2.56-11.21-3.66-16.9-.43-2.25.48,4.35.13.95-.07-.64-.16-1.29-.23-1.93-.14-1.31-.26-2.61-.37-3.92a82.39,82.39,0,0,1,.11-12.47c.06-.86.61-3-.08.42.17-.85.28-1.72.45-2.57.37-1.94.82-3.87,1.33-5.78A115.19,115.19,0,0,1,153,623.68c-1.2,3.08,1.11-2.31,1.53-3.16q1.41-2.84,3-5.59a121.58,121.58,0,0,1,7.36-11.44c.36-.5,2.24-3,.68-1,.59-.78,1.21-1.54,1.83-2.29q1.86-2.28,3.83-4.48a145.24,145.24,0,0,1,10.4-10.51q2.19-2,4.46-3.89c.94-.79,1.9-1.57,2.86-2.34,1.93-1.52-1.39,1,.59-.44,3.75-2.77,7.61-5.39,11.61-7.77a124.43,124.43,0,0,1,11.47-6.08c.86-.4,1.73-.8,2.6-1.17-1.77.75.42-.15.65-.24,2.41-.89,4.81-1.78,7.27-2.54,9.43-2.91,19.31-4.18,29-5.82,16.91-2.84,33.81-5.16,50.4-9.5,20.27-5.3,42-11.44,55.73-28.31A77.84,77.84,0,0,0,366,505.49c1.37-2.47-1.93-5.18-4-3.07Z"/></g><g class="cls-10"><path class="cls-2" d="M608.07,745.92c9.33-2.82,18.94-3.35,28.61-3.85,4.65-.25,9.27-.57,13.9-1.06,5-.53,10.14.31,15.14-.68a120.3,120.3,0,0,0,13-3.55c4.77-1.52,9.51-3.9,14.35-5.09,2.73-.67,5.37-.86,8.34-2.15,2.13-.92,4.25-1.87,6.37-2.81,4.17-1.84,8.34-3.71,12.47-5.66,16.1-7.6,31.64-16.62,43.47-30.2,12.08-13.88,19.29-30,20.72-48.4s-5.22-38.61-19.88-50.36c-8-6.39-18.81-7.06-25.61,1.73s-3.31,19,4.82,25.21c-2.69-2.06-.09.12.9,1.13.58.61,1.09,1.32,1.7,1.88,1.33,1.22-.61-.76-.73-1,.73,1.27,1.62,2.44,2.33,3.73.4.73.7,1.54,1.14,2.24,1.1,1.79-.69-2.61-.25-.55.6,2.88,1.57,5.77,2.23,8.66.52,2.27.16-2.9-.13-.59a14.55,14.55,0,0,0,.13,2c.09,1.75.09,3.51,0,5.27,0,1-.86,6.34-.06,2.19-.26,1.31-.46,2.64-.75,3.94-.39,1.75-.85,3.47-1.39,5.18-.3,1-2.23,5.73-.69,2.31a61.42,61.42,0,0,1-4.38,8.15c-.43.67-.88,1.32-1.33,2-.2.3-2.14,2.92-1.07,1.53s-.65.78-.68.82c-.86,1-1.71,2-2.59,3-10.85,11.86-20.94,18.84-34.15,27.22-3.16,2-6.34,4-9.53,5.91-1.71,1-3.45,2-5.14,3.12a23.73,23.73,0,0,0-4.11,2.92c-.13.13-3.27,3.54-1.42,2-6.7,5.61-15.69,9.47-23.43,13.38-4.41,2.23-7.92,5.27-12.78,6.58-4.5,1.21-9.07,2.15-13.63,3.11-9.27,2-18.42,4.13-27,8.27-1.44.69-.43,3,1.08,2.57Z"/></g><g class="cls-3"><path class="cls-11" d="M486.46,519.69c-2.66,1.52-5.4,2.89-8.18,4.18-1.6.74-3.22,1.45-4.84,2.15,1.42-.61-.33.13-.89.36l-2.6,1a219.4,219.4,0,0,1-23.53,7.74L463,539.55c-5.2-4.21-10-9-16.81-10.57a72.65,72.65,0,0,0-10.62-1.29,41.65,41.65,0,0,0-19.86,2.87c-6.73,2.84-13.45,5.69-20,8.89-11.43,5.56-23.13,12.33-32.15,21.37-12.68,12.72-20.57,29.38-26.57,46-3.44,9.56-5.53,19.93-5.09,30.09.64,14.79,5.05,25,11.09,38.23l-4-9.46A101.39,101.39,0,0,0,387.09,729c18.27,10.42,39.24,16.12,59.83,19.67,22.12,3.81,44.15,6.23,66.6,6a263.94,263.94,0,0,0,36.73-2.57c2.63-.39,5.26-.79,7.88-1.22,1-.17,2.12-.29,3.13-.53-6.06,1.41-3.71.48-1.91.36,5.36-.37,10.72-1.05,16-1.7,12.76-1.56,25.07-3.34,37.4-7a274.39,274.39,0,0,0,27.55-9.57c7.86-3.25,13.29-9.51,12.08-18.52-1-7.59-8.21-15.49-16.57-14.63-18.76,1.92-37.7,1.1-56.52,1.32q-8,.09-15.94-.08c-2.7-.06-5.43-.05-8.11-.31-1.8-.18-6-1.27,1.26.18-1.29-.26-2.63-.37-3.93-.56-13-1.91-26.07-3.1-39.1-4.83l7.93,1.06c-28.69-3.92-58.33-9.3-85.22-20.37l8.2,3.46A97.52,97.52,0,0,1,423.3,667l7.27,5.61a75,75,0,0,1-12-11.82l5.8,7.51a65.31,65.31,0,0,1-8.21-13.87l3.86,9.13a67.84,67.84,0,0,1-4.27-15.9l1.41,10.48a16.61,16.61,0,0,1-.15-4.45l-1.43,10.64c.88-4.52,2.6-8.81,3.51-13.29,1.68-8.23,2.77-16.47,3.82-24.81l-1.61,12a102.87,102.87,0,0,1,7-25.36l-4.36,10.32a53.24,53.24,0,0,1,6.18-11l-6.63,8.58c3.23-4.14,6.47-8.26,9.66-12.42l-6.56,8.48a140.9,140.9,0,0,1,18.36-18.68c4.62-4,9.54-7.52,13.29-12.39,7.44-9.63,13.35-23.3,9.57-35.4l1.06,7.91L468,551.6l-5,12c11.09-10.31,23.81-19.06,34-30.27,6.56-7.19-1.73-18.77-10.56-13.69Z"/></g><path class="cls-13" d="M661.11,551.48c-5-4.49-9.67-8.66-14.27-13.54l5.08,6.58c-3.56-6.39-7.95-9.48-13.63-13.76l12.19,12.18c-2.9-4-6-7.91-9.05-11.79l9.86,16.92c-2.82-7-5.13-13.85-11-19.2A47.21,47.21,0,0,0,621,518l9.75,4.11c-6.83-3.18-13.8-6.16-20.87-8.75-7.82-2.88-15.24-4-23.64-5.12l12.34,1.66c-25.58-3.55-51.24-4.87-76.49,2.31a213.21,213.21,0,0,0-36.42,14.52c-11.91,5.92-22.23,13.82-32.65,22A138,138,0,0,0,425.15,579a48,48,0,0,0-4,6.83c-2.75,5.76-5.75,11.88-7,18.18-2.89,14.59-3.17,28.78,1.11,43.25,9,30.58,32.31,54.93,59.37,70.78,26,15.24,54.36,20.85,83.82,24.5l-14.22-1.91c36.81,6.35,73.35,10.17,110.22,1.72,11.43-2.63,22.41-7.43,33-12.35,9.89-4.59,18.6-11.82,26.84-18.77s14.69-16,21-24.63c6.48-8.81,10.41-19.13,14.4-29.22s5-20.87,6.16-31.56c1.14-11.06-.51-21.87-2.24-32.82a49.57,49.57,0,0,0-2.09-8.67,146.38,146.38,0,0,0-9.84-22.82,68.62,68.62,0,0,0-5.23-7.74c-5-6.69-9.88-13.66-15.6-19.79-17.26-18.48-38.87-28.61-62.1-37.37A153.89,153.89,0,0,0,636.49,490c-14-3-28.52-5.37-42.89-4.75a270.06,270.06,0,0,0-46,6c-6.54,1.44-12.44,4.24-18.62,6.85-6,2.51-12,4.62-17.29,8.3A189.86,189.86,0,0,0,493,520.88c-2.78,2.5-5.29,6.55-7.13,8.93a23.22,23.22,0,0,0-6.7,9.18l-8,18.87a31.37,31.37,0,0,0-1.06,3.91c-1.5,7.27-3,15.9-2.91,23.4a100.71,100.71,0,0,0,1.48,11.29c.4,3,.7,8.08,1.72,11.79.16.59.4,1.13.6,1.71,2.09,6.12,5.13,14,8.42,19.55.34.58.75,1.07,1.13,1.62,3.18,4.64,8.24,12,12.36,15.84.47.44,1,.84,1.46,1.26,3.93,3.5,11.53,10,16.31,12.26l-14.54-11.24c12.63,12,29.21,22,46.63,24.76,10.15,1.63,18.82,2.9,28.7,2.8a111.78,111.78,0,0,1,12.14.31l-17.94-2.41c1.75.24,3.42.55,5.15,1l-49.13-64.52c0,.78,0,1.57-.09,2.36l2.38-17.71-.39,1.09L530.39,581a20.56,20.56,0,0,1-2.32,3.8l10.5-13.59a23.46,23.46,0,0,1-3.23,3.07L549,563.67a32,32,0,0,1-5,2.9l16.28-6.87A72.6,72.6,0,0,1,543,564.15l18.36-2.47c-15.5,2-31.6,1.47-47.2,1.46-16.53,0-33.77.63-50.18-1.49l18.72,2.52a15.78,15.78,0,0,1-2.95-.76l16.83,7.1a10.65,10.65,0,0,1-2.44-1.26l14.27,11a18.37,18.37,0,0,1-2.55-2.44l11,14.28a17.82,17.82,0,0,1-1.87-3l7.09,16.8a22.26,22.26,0,0,1-1.33-4.74l2.5,18.62a31,31,0,0,1,0-6.46l-2.49,18.52a39,39,0,0,1,2.49-8.93l-7,16.52a55.53,55.53,0,0,1,6.81-11.69l-10.7,13.84A67.7,67.7,0,0,1,524,630.2l-13.65,10.54a66.7,66.7,0,0,1,13.55-7.47l-16.1,6.79a139.93,139.93,0,0,1,35.31-9.13l-18,2.42a240.33,240.33,0,0,1,60.93,0l-18.2-2.45a241.11,241.11,0,0,1,60.55,16.33l-16.52-7c8.7,3.7,17.24,7.75,24.85,13.42l-14.06-10.86a71.88,71.88,0,0,1,5.57,4.89c5.58,5.38,12.22,9.75,18.54,14.25L633,651.28a43.25,43.25,0,0,1,5.3,4.82l13.42,10.36a49.37,49.37,0,0,0,24.64,7.87,33.55,33.55,0,0,0,17.62,0,49.4,49.4,0,0,0,24.65-7.87,79,79,0,0,0,23.77-23.78A49.27,49.27,0,0,0,750.22,618,50.26,50.26,0,0,0,749,591.61c-5.56-30.17-29.66-53.55-56.58-66.16-20-9.38-40.84-17.54-62.47-22.34-43.72-9.7-88.12-10.47-132-1.3a175.15,175.15,0,0,0-52.1,20.35C426,533.86,407,550,396.19,570.87a181.09,181.09,0,0,0-8.43,19.66,35.81,35.81,0,0,0-1.4,4.29,155.34,155.34,0,0,0-3,21.12,35.18,35.18,0,0,0-.14,5.13c.72,14.16,3.55,29,11.23,41.23,7.81,12.45,17.16,21.48,29.54,29.32,17.12,10.84,37.91,11.19,57.43,11.31q13.86.09,27.73-.23c24.27-.55,49.24-1,73.09-5.85,8.77-1.78,17.21-5.58,25.15-9.51,7.67-3.8,14.68-9.6,21-15.16,12.57-11,20.79-27.23,24.78-43.24l2.39-17.79a50.33,50.33,0,0,0-5.76-25.78,33.45,33.45,0,0,0-8.61-14.77,50.54,50.54,0,0,0-18.77-17.23c-9.37-4.66-19-8.84-29.2-11.13-4.89-1.09-9.8-2-14.5-3.79l16.77,7.07a36.38,36.38,0,0,1-7.34-4.15l14.4,11.12a32.58,32.58,0,0,1-4.75-4.86l18.49,31.7c-.25-1.24-.57-2.45-.78-3.7l2.62,19.49a18.85,18.85,0,0,1,.07-3.83l-2.66,19.84a19.47,19.47,0,0,1,1-3.44L609,625.81a19.28,19.28,0,0,1,1.81-2.9l-12,15.58a22.24,22.24,0,0,1,2.47-2.38l-15.83,12.23c7.47-5.43,14.82-11,21.89-16.93l-16.06,12.41a45.41,45.41,0,0,1,9.5-5.55l-18.91,8c7.73-3.17,16.1-4.59,24.33-5.73l-20.93,2.82c3.72-.47,7.46-.85,11.2-1.07,10.17-.61,19.88-1.87,30.14-3.31l-20.77,2.79a158.76,158.76,0,0,1,36.65.51l-19.55-2.63a127.7,127.7,0,0,1,30.22,8l-16.4-6.92a51.46,51.46,0,0,1,10.22,5.59l-13.44-10.39a55.65,55.65,0,0,1,9.22,9.25l-10.11-13.1a50.55,50.55,0,0,1,5.54,9.59l-6.37-15.1a46.63,46.63,0,0,1,2.67,9l-2.21-16.49a56.26,56.26,0,0,1-.28,12.1l2.2-16.36a66.8,66.8,0,0,1-4.52,15.87l6.14-14.55a76.35,76.35,0,0,1-9.39,15.7l9.42-12.19a76.49,76.49,0,0,1-12,12l12.06-9.32a94.91,94.91,0,0,1-20.7,11.92l13.94-5.88a133.35,133.35,0,0,1-32.41,8.29l15-2a253.18,253.18,0,0,1-53.22,1l14.22,1.91c-14.54-2.14-28.86-5.44-42.45-11.12l12.87,5.44a104.74,104.74,0,0,1-22-12.66l11,8.47a81.46,81.46,0,0,1-11.6-12.1l8.6,11.13a71.13,71.13,0,0,1-7.86-13.05l5.62,13.32a49.37,49.37,0,0,1-3.31-11.22l2,15a38.39,38.39,0,0,1-.12-8.23l-2,15.09a50.83,50.83,0,0,1,3-10.73l-5.72,13.57a60.85,60.85,0,0,1,7.43-12.2l-8.76,11.33A129.34,129.34,0,0,1,541.5,617.4l-11,8.48A141,141,0,0,1,561,608.11l-12.49,5.27c6.77-2.82,13.56-5.5,20.31-8.39l-12.35,5.21a148,148,0,0,1,36.62-10.14l-12.52,1.68c9.58-1.25,19.1-2.72,28.66-4.06l-11.66,1.57c3.27-.42,6.53-.76,9.82-1,1.46-.09,2.72,0,4.16,0,11.68.31,21.63-5.22,29.88-13l-7.76,6c.92-.42,1.85-.83,2.79-1.22l-8.54,3.6c.75-.32,1.51-.62,2.26-.92l-9,1.21A44.65,44.65,0,0,0,640.26,589l-7.76,3.28c1.54-.28,3.08-.54,4.63-.76l-7.92,1.06a16.72,16.72,0,0,0,3.31-.34q2.15,0-1.64-.34-4.14-.61-.9-.09c2.29.43,4.58.86,6.87,1.38,10.44,2.34,22.87-1.45,28.16-11.47,5-9.46,4.52-22.64-3.9-30.21Z"/><path class="cls-14" d="M424.88,682.19a217.92,217.92,0,0,0,30.69,22.28,99.3,99.3,0,0,1,14.13,9.61c5.44,4.65,11.31,7.51,17.83,10.35a303.91,303.91,0,0,0,37.74,13.65c13.33,3.8,27.21,5.62,41,7.19,26.56,3,52.66,3,78.73-3.64a174.86,174.86,0,0,0,59.93-27.78,194.16,194.16,0,0,0,26.85-23.32A58.44,58.44,0,0,0,742.65,675c2.49-5.29,4.77-10.69,6.9-16.14,2.41-6.17-1.56-14.79-7.24-17.79-6.53-3.44-13.58-2.29-19.09,2.47-1.67,1.44-3.35,2.86-5.06,4.26l-1.75,1.4c-3.15,2.57,3.41-2.52.26-.19-4.45,3.3-8.82,6.44-12.59,10.51q-4.23,4.56-8.77,8.81c-3.35,3.13-7.49,5.81-10.62,9.12,3.1-3.28,2.51-1.91,1.24-1-1,.74-2,1.49-3,2.22-1.71,1.22-3.46,2.41-5.22,3.56q-6.25,4.08-12.88,7.55c-2.17,1.14-4.37,2.22-6.59,3.26l-2.47,1.12c-4.4,2,4.46-1.71-.08,0-4.85,1.87-9.72,3.65-14.72,5.12s-10.09,2.72-15.22,3.73c-2.8.56-5.62,1-8.44,1.47-3.88.63.24.05.84-.1a46.86,46.86,0,0,1-6.48.7c-12.08,1.14-24.08,2.05-36.23,2.1-12,0-23.86-.57-35.76-1.71-6-.58-12-.91-18-1.6-1.09-.12-2.17-.25-3.26-.39,3,.37-2.48-.35-2.44-.35-3.3-.49-6.6-1.05-9.88-1.66-6.53-1.23-12.92-2.92-19.38-4.43s-13.22-.68-19.5-3.24a202.59,202.59,0,0,1-36.3-19.42c-4.6-3.07-10.2,4.06-6,7.73Z"/><g class="cls-15"><path class="cls-11" d="M530.65,527.82c22.63-7.64,46.57-13,70.53-13.34,5.7-.07,11,1.74,16.49,2.95,3,.65,5.9,1.4,8.8,2.31a62.73,62.73,0,0,1,6.68,2.48c4.26,2,10,5.42,12,7.53.22.24,2.92,3.15,1.48,1.31a19.14,19.14,0,0,1,2.09,3.44c-1.58-3.26.49,3.19.18.88s-.68,4.71,0,.86l22.25-9c-30-17.05-66.21-25.83-100.55-19-8.36,1.66-13.34,11-12.29,18.83,1.15,8.56,8.23,14.57,16.85,14.87,7.56.27,15.1-.39,22.67-.25,7.11.14,14.2.78,21.28,1.44,5.23.48-3.4-.62,1.84.22,1.6.26,3.21.52,4.81.82q5.64,1.08,11.18,2.6a155.1,155.1,0,0,1,18.92,6.67c10.74,4.72,22-.82,22.8-13.08,2.42-36.45-43.13-46.1-70.68-40.54-6.79,1.37-13.75,1.71-20.6,2.82a218.92,218.92,0,0,0-22.22,4.88,284.87,284.87,0,0,0-37.56,13.19c-4.08,1.75-1.17,8.62,3,7.2Z"/></g><g class="cls-16"><path class="cls-11" d="M485.17,532.91c-2.22-1.78-5.45-2.61-8.17-3.37a19.63,19.63,0,0,0-12.75.78A88.94,88.94,0,0,0,444,541.19c-13.51,9.87-23,23.44-28.86,39-3.25,8.58,8.17,16.9,15.57,12,20.34-13.55,41.18-26.48,62.12-39.07,9.73-5.85,1.21-19.88-8.8-15.06a629.59,629.59,0,0,0-64,35.82l15.57,12c4.54-11.23,12.79-20.61,21.86-28.44a69.1,69.1,0,0,1,14.95-9.62,23.36,23.36,0,0,0,7.83-6c1.67-2,4.06-3.94,5.29-6.16a2.28,2.28,0,0,0-.35-2.72Z"/></g><g class="cls-17"><path class="cls-14" d="M200.36,23.2c-8,1.67-14.63,6.55-21.56,10.7Q168.66,40,158.61,46.25c-14.1,8.82-28.59,17.46-41.75,27.66C92.25,93,69,114,49.55,138.46,10.1,188.06-10.52,258.27,5.4,320.71c8.83,34.65,21.62,67.18,43.83,95.54,2.61,3.33,8.31-1.05,5.89-4.55a203.24,203.24,0,0,1-21.76-40.19c-5.48-13.71-10.62-28.8-12-43.57-2.77-29.6-1.85-60.12,6-88.9a191.58,191.58,0,0,1,16.14-40.45q5.27-9.83,11.38-19.16,2.73-4.17,5.64-8.23c2.52-3.52,4.08-5.59,6.1-8.13,3-3.76,3.84-4.94,6.66-8.43q3.38-4.2,6.92-8.27,7.61-8.77,15.82-17a439.77,439.77,0,0,1,33.1-29.88C142,89,154.47,78.07,167.7,68.05q10.44-7.9,21.05-15.56,5.12-3.7,10.25-7.37c1.82-1.29,3.76-2.5,5.47-3.95,2-1.7,3.43-4,5-6.13,4.51-6.14-2.9-13.15-9.1-11.84Z"/></g><g class="cls-17"><path class="cls-14" d="M57,427.7A132.79,132.79,0,0,0,77.3,444Q88,450.79,99.17,457c7,3.85,14.3,7.14,21,11.55a51.06,51.06,0,0,0,4.6,3c2.82,1.42-.43,1.51-1.39-2,.16.57.72,1.05,1,1.55,3,5.25,8.94,9.3,14.12,12.09,14.89,8,30.46,15.38,47,19.48,16.24,4,33.23,6.19,49.87,7.59a305.21,305.21,0,0,0,44.44.52,187.47,187.47,0,0,1,22.23-.55c10.34.54,20.38,1.28,30.65-.63,17.65-3.28,35.17-8,51.63-15.19,9.34-4.07,19.95-8.13,25.87-16.9.75-1.1,2.53-2.26-1,.15-4.11,2.8-1,.82.2.21,1.67-.87,3.34-1.76,5-2.65q5.76-3.12,11.4-6.43a310.07,310.07,0,0,0,50.48-36.15,299.18,299.18,0,0,0,21.49-21.25c1.85-2,3.76-4,5.52-6.12.93-1.11,1.79-2.32,2.67-3.46,3.73-4.82-1,.92,2-2.37,3.79-4.21,7.73-10,10.53-13.41,4.85-5.92,6.28-13.81,1.21-20.18-4.56-5.73-13.3-8.21-19.84-4-9.71,6.3-20.2,11.61-30.3,17.3s-20.12,11.34-30.34,16.68c-19.18,10-37.9,20.72-57.85,29.2l7.14-3a42.73,42.73,0,0,1-6,2.24l8.09-1.09c-6.2-.35-11.78-.94-18,.84-3.53,1-7,2.41-10.47,3.53-6.95,2.24-13.74,4.81-20.63,7.22s-13.61,4.51-20.51,6.43c-9.12,2.53-17.35,6.53-26,10.22l7.58-3.2c-5.76,2.31-12.12,5.53-18.29,6.38l7.47-1a310.25,310.25,0,0,1-44.45,2.69q-11.49-.13-22.94-1.15-5.19-.45-10.35-1.08c-6.44-.79,5.11.76.45.07q-3.34-.5-6.67-1c-7.47-1.24-15-2.38-22.42-3.68-5.42-1-10.84-1.75-16.3-2.42-4.23-.51,5.65.82-.43-.07-2-.31-4.08-.62-6.12-1-3.83-.63-7.62-1.45-11.45-2.09a45.56,45.56,0,0,0-9.1-.8,40.16,40.16,0,0,0-5.77.67c-1.15.22-4.77.58-.32.61,5,0-1.19-.69-2.47-1-2-.45-4.12-.84-6.13-1.41a73.63,73.63,0,0,1-10.24-4.1q-12.37-5.43-24.36-11.66c-9-4.67-17.93-8.69-27.26-12.61-8-3.36-13.95,8.66-8.21,14.1Z"/></g><g class="cls-17"><path class="cls-14" d="M673.65,408.59c.49,2.83.71,5.62,2.37,8.07,2,2.92,5.32,5.32,8.09,7.45,5.6,4.3,11.46,8.22,17.13,12.41,5.19,3.84,9.52,8.57,14.91,12.27,6.55,4.5,13,8.6,20.64,11a112.52,112.52,0,0,0,44.82,4.89c15.5-1.61,30-6.15,44.63-11.39a608.17,608.17,0,0,0,83.63-37.18c22.67-12.26,45-26.1,61.47-46.27a299.76,299.76,0,0,0,24.56-34.73A132.4,132.4,0,0,0,1012,295.7c2.45-10.95-13.17-18.74-18.85-7.94-2.61,4.95-5.56,9.66-8.59,14.36a129.33,129.33,0,0,1-9.47,13.18q-4.86,5.81-10.24,11.13c-1.08,1.07-2.24,2.09-3.3,3.18-3.27,3.39,1.37-.84-.81.77-2.6,1.93-5.27,3.78-7.92,5.63-9.19,6.45-18.8,12.54-28.34,18.48-9.76,6.07-19.08,12.75-29,18.56-11.15,6.52-22.6,12.55-34.21,18.22Q852,395.82,842.54,400q-4.29,1.92-8.62,3.76c4.67-2-1.11.45-1.72.69q-3,1.26-6.11,2.47c-12.9,5.11-26,10.14-39.47,13.52-3,.74-5.91,1.47-8.88,2.14-1.77.4-3.56.7-5.34,1.07-.89.19-4,.45.15,0a109.17,109.17,0,0,1-20.69,0c-5.34-.48,2.53.62-.69-.12-1.92-.44-3.91-.75-5.86-1.13a120,120,0,0,0-13.22-1.68c3.63.31-1.9-.31-2.17-.36-2-.34-3.93-.79-5.9-1.16-4.07-.79-7.41-.73-11.07-1.75-6.35-1.78-12.37-5.16-18.35-7.9-3.12-1.44-6.59-3.35-10-4.22s-6.53.18-9.82,1.09a1.75,1.75,0,0,0-1.18,2.08Z"/></g><g class="cls-17"><path class="cls-14" d="M770.54,23.85c22.91.7,44.8,8,66.23,15.62,20.06,7.1,40.92,14,57.45,28,15.52,13.07,28.12,29.33,42.27,43.81,10,10.25,20.7,20,29.67,31.19,10,12.57,17.27,29.07,23.06,44.54,3.74,10,19.44,6.1,16.28-4.49-5-16.54-11.4-32.33-21.8-46.23-9-12-20-22.26-30.53-32.84-14.61-14.6-27.64-30.92-43-44.74C892.7,42.93,871.85,34,849.93,26.26c-25.74-9.11-51.81-18.26-79.39-19-10.69-.29-10.67,16.26,0,16.59Z"/></g><path class="cls-4" d="M41.06,330.32c11.07,17.75,26,32.3,43.29,43.92,19,12.7,39.61,18.39,62,21.31,9.19,1.2,18.72-5.23,24-12,5.56-7.19,8.71-17.63,5.47-26.62-5.26-14.61-13.87-24.79-26.53-33.52-6.5-4.48-13.76-7.7-20.08-12.48l6.31,4.87a37.73,37.73,0,0,1-5.77-5.6l4.89,6.33a33,33,0,0,1-4.14-7.29l3.16,7.49c-3.33-8.65-4.37-17.91-5.91-27-1.66-9.75-5.19-19-6.85-28.7l1.13,8.42a40.78,40.78,0,0,1-.28-8.41l-1.13,8.43a29.68,29.68,0,0,1,1.76-6.89l-3.19,7.57a26.33,26.33,0,0,1,2.87-4.82l-5,6.41a23.17,23.17,0,0,1,3-2.87l-6.41,4.95a14.72,14.72,0,0,1,2.38-1.43l-7.57,3.19a21.81,21.81,0,0,1,4-1.25L104,275.42a25.74,25.74,0,0,1,5.48,0l-8.41-1.13a28.63,28.63,0,0,1,5.45,1.52L99,272.64a34.64,34.64,0,0,1,6.32,3.73L99,271.5a37.37,37.37,0,0,1,5.23,5.14l-4.83-6.25a103.92,103.92,0,0,1,9.06,15.1,112.58,112.58,0,0,0,13,19.22c11.6,14.08,29,21.76,47.17,19.32,17.25-2.32,27-15.46,29.17-31.79,1.46-10.85-1.28-20.81-6.06-30.52s-13.09-17.39-17.55-27.44l3.33,7.89a61,61,0,0,1-3.81-13.72l1.22,9a60.48,60.48,0,0,1-.14-14.23l-1.24,9.26a60.85,60.85,0,0,1,2-9.26L150.88,248a28.75,28.75,0,0,1,4.19-.92l-9.48,1.27a27.4,27.4,0,0,1,5.58.18l-9.57-1.29a32.63,32.63,0,0,1,5.42,1.56l-8.68-3.66a37.32,37.32,0,0,1,7.52,4.47l-7.47-5.76a44,44,0,0,1,6.3,6.36l-5.85-7.57a69,69,0,0,1,7.84,14l-3.82-9c3.37,8.24,5.54,16.87,8.58,25.22a116.89,116.89,0,0,0,19.4,34.59l-5.92-7.67c6.73,8.93,11.63,14.45,20.64,21A59.75,59.75,0,0,0,205,329.68c12.48,3.42,29.26.4,37.94-10,7.24-8.7,13.53-18.09,15.54-29.48,2.25-12.81,1.88-22.47-.58-35.33-2.42-12.67-8.73-24.14-11-36.92l1.51,11.23a39,39,0,0,1-.05-10.24l-31,40.75a8,8,0,0,1,2.71-.74l-11.23,1.51,1.4,0L199,258.91a15.38,15.38,0,0,1,4.11,1.13L193,255.78a13.13,13.13,0,0,1,2.48,1.57L187,250.74a35.09,35.09,0,0,1,4.14,4.39l-6.54-8.46a38.73,38.73,0,0,1,3.05,5.54l-4.13-9.78c1.75,4.23,3.46,8.49,5.38,12.65l-4.08-9.66c3.79,15.31,7.81,30.57,11.72,45.85,4.87,19,24.33,30.74,43.21,28.2a39.39,39.39,0,0,0,34.14-38.67c.19-11.9-.22-23.77-.53-35.66-.37-14.38-.28-28.7-2.63-42.92-1.76-10.64-13.61-22.62-24.3-24.3-10.34-1.62-17-2.13-27.28-.09l8.69-1.17c-18.1-.11-34.31,7.31-47.93,18.74l6.36-4.91c-12.47,9.61-23.14,20.79-30.52,34.9-6.27,12-11.56,25.25-13.85,38.65-3.83,22.47-2.62,47.42,9.13,67.63a69.46,69.46,0,0,0,9,12,42.06,42.06,0,0,0,3.05,2.92c.42.37.87.71,1.3,1.07q11,8.46,1.33,1a43.11,43.11,0,0,0,6.2,4.74,80.85,80.85,0,0,0,22.55,10.31c15.4,4.64,32.32,5.46,48.34,5.1,15.55-.35,30.9-2.71,46.39-4.08l-29.82-52a80.62,80.62,0,0,1-8.45,13.53l5.48-7.09a84.66,84.66,0,0,1-14.48,14.21l7.22-5.57a91.61,91.61,0,0,1-18.88,10.82l8.65-3.65a83.22,83.22,0,0,1-19.56,5.33l9.73-1.31a133,133,0,0,1-31.21.09l9.27,1.25c-5.95-.81-11.84-1.83-17.81-2.58l9,1.21c-2.24-.78-4.44-1.65-6.64-2.57l8.09,3.42A130.55,130.55,0,0,1,172.8,324l7,5.38a115.16,115.16,0,0,1-19.45-19.77l5.57,7.21c-.66-.85-1.31-1.72-2-2.59a35.77,35.77,0,0,0-30.88-17.72,36.24,36.24,0,0,0-30.89,17.72c-15.15,24.82-7.37,59.24,14.58,77.48,10.17,8.45,22.63,16.53,35.51,20.08a213.15,213.15,0,0,0,25.55,5,207.49,207.49,0,0,0,22,2.5c7.37.26,14.57-.76,21.86-1.9,13.82-2.16,25.06-10.09,34.86-19.66,15.58-15.22,27.34-34.91,39.9-52.66,4.85-6.86,6.11-19.57,3.58-27.4a36.91,36.91,0,0,0-12.74-18.47C274,289,252.37,288.69,240.57,302l-18.82,21.2c-5.52,6.2-10.83,12.72-17.29,18l7.79-6c-.84.65-1.7,1.29-2.57,1.91l9.23-3.9a106.56,106.56,0,0,1-20.62,5.3L209.2,337c-9.54,1.28-19.09.48-28.59-.77l10.74,1.44c-10.51-1.44-21.13-4.18-31.69-4.81l10.53,1.42A72.28,72.28,0,0,1,159,331.9l9.06,3.82a51.39,51.39,0,0,1-8.28-4.74l7.58,5.86a36.44,36.44,0,0,1-5.92-6l5.79,7.49a37.26,37.26,0,0,1-3.51-6.1l3.7,8.76a31.08,31.08,0,0,1-1.85-6.61l1.3,9.66a26.68,26.68,0,0,1-.05-5.36l-1.29,9.59a23.78,23.78,0,0,1,1.41-5.18l-3.61,8.56.6-1.25-56.18,7.24c19.58,21.66,45.09,37.25,72.61,46.52l-8.06-3.41c14.14,7.81,33.35,13.57,49.56,12.41a123.79,123.79,0,0,0,45.62-12.19,105.52,105.52,0,0,0,30.64-22.58c11.13-11.67,18.2-24.26,24.37-38.95,4.6-11-1-25.75-8.88-33.6a34.52,34.52,0,0,0-33.6-8.88c-11.15,1.67-22.23,3.82-33.36,5.57l8.9-1.2c-8.93,1.15-17.74,2.94-26.66,4.16l8.59-1.16c-11,1.45-22.18,2.25-33.23.84l8,1.08a62.61,62.61,0,0,1-11.48-2.62c-2.89-1-5.48-3.44,2.94,1.35-.74-.43-1.56-.73-2.31-1.13-1.55-.84-7-4.82-2-1s-.33-.59-1.49-1.8c-1.88-1.94-2.1-4.2,2.19,3-.53-.89-1.21-1.7-1.76-2.58-1.67-2.67-3.63-9.16-.38.33a38.76,38.76,0,0,1-1.75-7l1,7.4a75.94,75.94,0,0,1,.22-20l-1,7.67a96.62,96.62,0,0,1,6.2-21.74l-3,7.17A141.35,141.35,0,0,1,216.68,246l-4.89,6.33A70,70,0,0,1,223,240.83l-6.36,4.91a44.29,44.29,0,0,1,8.39-4.84l-7.61,3.21a46.66,46.66,0,0,1,10.94-3l-8.61,1.16a46.6,46.6,0,0,1,8-.13l-8.69-1.17c1.49.57,3,1.09,4.45,1.7l-8.07-3.41a43.1,43.1,0,0,1,4.1,2.27l-16-39.27c-3.4,13.76-3.78,28.8-5.24,42.92-1.22,11.88-2.54,23.74-3.27,35.66l77.34-10.47c-3.21-15.47-6.23-31-9.65-46.41l1.44,10.75c-.84-16.16-5.44-31.32-17-43.19-12.66-13-35-19.69-52.35-13.3-8.89,3.27-16.05,7.51-22,15.14a21.09,21.09,0,0,0-5.43,9.33,31.74,31.74,0,0,0-3.64,16.27c-2.87,21.93,9,40.88,17.49,60l-4.12-9.75a63.64,63.64,0,0,1,4.3,14.48L180.12,273a39,39,0,0,1,.18,8.71l1.41-10.52a28.64,28.64,0,0,1-1.84,6.8l3.95-9.37a31.49,31.49,0,0,1-2.15,3.74l44-17.92a31.3,31.3,0,0,1-6.85-1.93l9.23,3.89a36.22,36.22,0,0,1-6.09-3.62l7.74,6a37.58,37.58,0,0,1-6.24-6.11l5.92,7.66a64.9,64.9,0,0,1-7.3-12.94l3.82,9c-2.87-7.11-4.86-14.52-7.33-21.77-4.32-12.68-9.41-23.86-18-34.13-15.21-18.12-39.87-27.39-63.09-22.54-9.46,2-17.88,6.71-23.8,14.37-6.42,8.31-7.73,17.48-8.36,27.7A82.52,82.52,0,0,0,108.76,248a85.45,85.45,0,0,0,11.86,25c5.56,7.84,12.3,14.55,18.26,22l-5-6.43a42.92,42.92,0,0,1,5.36,8.78l-3.16-7.49a28,28,0,0,1,1.13,3.9l-1.12-8.28a21.15,21.15,0,0,1,.15,4l1.1-8.24a20.56,20.56,0,0,1-1,4.07l21.5-21.51a14.63,14.63,0,0,1-2.85.77l8.15-1.09a24.12,24.12,0,0,1-4.33.14l8.1,1.09a26.55,26.55,0,0,1-5.69-1.45l7.22,3c-.37-.16-5.52-2.58-5.34-2.95s5,4.44,3,2.24c-.84-.94-3.2-3.59-.32.18,3.11,4.09-.44-1.09-1.14-2.39-1.21-2.22-2.26-4.52-3.29-6.83-4.34-9.76-8.54-18.27-15.7-26.45a55.33,55.33,0,0,0-37.57-18.15c-16.81-1-31.3,8.27-40.85,21.37-7,9.66-10.05,23.47-8.79,35.24,1.15,10.65,4.56,20,6.7,30.39,3.25,15.69,4.53,32.34,13.36,46.28,6.17,9.73,14.69,17.16,24.58,23,6,3.48,12.28,6.32,17.87,10.41l-6.23-4.81a37,37,0,0,1,5.84,5.55l-4.79-6.21a30.06,30.06,0,0,1,3.67,6.14l-3.08-7.3.47,1.19,29.44-38.66c-1.58-.16-3.15-.34-4.73-.55l8.1,1.09a149.18,149.18,0,0,1-23-5.43c-3.47-1.07-7-2.08-10.37-3.35-1-.36-1.93-.73-2.89-1.11q6.81,2.92,2.63,1.11c-1.64-.77-3.29-1.51-4.92-2.32-3.44-1.72-6.8-3.59-10-5.63-1.22-.76-2.53-1.87-3.81-2.49q7.29,5.77-2.43-1.8-3.42-2.39,1.8,1.48c-2.2-2.56-5.46-4.6-7.9-7a106.8,106.8,0,0,1-8-8.76c-3.7-4.51-12.17-7.64-17.85-7.39a26.1,26.1,0,0,0-15.3,5.42c-9.63,7.44-13.21,21.81-6.5,32.57Z"/><path class="cls-4" d="M862.69,118.66a40,40,0,0,1,14.36,4.27c1.1.57,3.72,2.86,1.37.36.63,1.41.74,1.64.34.71s-.31-.7.2.59a35.8,35.8,0,0,0,4.9,10.33,117.33,117.33,0,0,1,9.27,15.4c.75,1.48,1.42,3,2.15,4.49q1.1,2.48-.79-1.91c.31.76.61,1.51.89,2.28,1.78,4.67,3.58,9.23,5.65,13.8s.87-.14-.23-.65c.75.35,1.49,3.81,1.84,4.78,1.19,3.24,2.27,6.53,3.26,9.83,2,6.71,3.66,13.52,5,20.39.71,3.52,1.28,7.07,1.91,10.61,1,5.53-.7-6,0,0,.22,1.82.47,3.64.65,5.48a97.89,97.89,0,0,1-.22,21.91l1-7.44a108.69,108.69,0,0,1-3.47,13.82c-.9,3.12,3.17-6.57.72-1.63-.47.93-.91,1.88-1.39,2.8-1,1.84-2,3.63-3.13,5.38-.69,1.09-1.48,2.12-2.17,3.2-1.83,2.91,3.9-4.66,1.66-2.08-1.34,1.53-2.62,3.11-4,4.59-1.56,1.64-3.19,3.23-4.87,4.74-.75.67-1.52,1.31-2.27,2-3.61,3.15,4.53-3.24,1.73-1.29a121.46,121.46,0,0,1-12.5,7.81c-2.09,1.11-4.22,2.16-6.36,3.16-1.07.49-2.19.91-3.24,1.45,6.89-3.56,3.1-1.31,1.24-.58-9.38,3.71-19.74,8.2-29.72,9.81l7.76-1.05a14.7,14.7,0,0,1-3.63,0l7.73,1c-4.24-.91,1.46.95,2.56,1.46-3.75-1.74,2.74,1.53,2.39,2,.13-.18-4-3.76-4.06-4.43,0,.55,4.06,5.31,1.61,2.07-1.77-2.34-3.57-4.66-5.37-7-1.29-1.65-2.6-3.29-4-4.86a109.49,109.49,0,0,0-23.83-19.47,63.7,63.7,0,0,0-32.33-9.56h-2.76c-1.21,0-3-.67-.83.26,2.53,1.1-.07,0-1-.19s-2-.37-3-.54c-4.17-.76-8.36-1.43-12.56-2.09l4,30.36c6.2-2.81,15.22-4.28,22.85-6.42,7.83-2.19,15.56-4.59,23.43-6.59a402.78,402.78,0,0,0,48.25-15.4c14.87-5.85,19-21.22,8.89-33.67l-2.34-2.9q1.93,2.55-.16-.27c-1.24-1.75-2.51-3.47-3.76-5.21-2.69-3.74-5.3-7.53-8-11.29a203.15,203.15,0,0,0-19.15-23.06c-6-6.26-11.77-12.78-17.77-19.06.84,1.52.62,1.34-.64-.52-.76-1-1.52-2-2.27-3-1.14-1.51-2.26-3-3.39-4.56q-4.49-6.09-8.88-12.27v18.4c-2.5,3.4.71-.63,1.38-1.29,3.23-3.17-1.66.65,1.22-1.19,1.17-.74,2.35-1.41,3.54-2.12,3.35-2-2.7.62.75-.39,1.74-.51,3.48-1,5.24-1.43,3.54-1-3.28,0,.71-.08,1.38,0,2.71-.07,4.09-.05,3.93.05-2.74-.84.75.13,1.75.48,3.51.94,5.26,1.44,3.53,1-2.07-1.26,1.48.57a74.29,74.29,0,0,1,8.09,4.73q1.32.9,2.58,1.86c-1.54-1.17-1.5-1.11.11.2,1.19,1.11,2.44,2.14,3.62,3.26,2.59,2.47,5.05,5.08,7.39,7.78,1.29,1.48,2.52,3,3.75,4.5,2.45,3-1.24-1.84,1.15,1.54,2.07,2.91,4.12,5.82,6,8.84s3.78,6.2,5.48,9.41c.79,1.5,1.55,3,2.29,4.53.27.55,2.61,5.82,1.82,3.89s1.28,3.46,1.48,4q.84,2.4,1.58,4.84a100.73,100.73,0,0,1,2.62,10.71c.16.84.3,1.68.44,2.52-.3-2.42-.31-2.48,0-.18.13,1.7.3,3.39.37,5.1a87.6,87.6,0,0,1-.37,12L928.45,229A166,166,0,0,0,897.9,173.8,130.4,130.4,0,0,0,875,153a94.77,94.77,0,0,0-10.87-6.93c-1.76-1-3.59-1.81-5.33-2.82.17.1-2.58-1.68-2.63-1.65,1.67-.85,6,7.39,4.21,3.85,3.53,6.95,1.21,2.55.61-.13-.69-3,0,7.1.48,2.53,0-.52-.16-2.19.12-2.5s-1.79,7.09-.25,3.05a13.54,13.54,0,0,0,.74-2.38c-.44,4.29-2.32,4.88-1,2.69,2.32-3.86-4.1,4.2-1.13,1.3s-4.4,2.87-1.48,1.15c2.76-1.61-5,1.59-2,.81,3.2-.82-6.65-.08-1.64.14,3.38.14-1.06.52-2.22-.52a15.58,15.58,0,0,0,2.87.71c4,1-1.35-.23-1.68-.75-.15-.25,2.62,1.58,2.65,1.54q-4.24-3.48-1.27-.95l1.14,1.07c.75.74,1.41,1.54,2.15,2.28,3.6,3.63-1.85-3.32-.38-.43,1.1,2.18,2.51,4.21,3.6,6.42a18.66,18.66,0,0,0,1.41,3c-2.34-2.83-1.32-3.29-.52-1.13,1,2.72,2,5.44,2.89,8.2q2.54,7.86,4.34,15.94c.54,2.4,1,4.82,1.47,7.24q.33,1.83.63,3.66c.2,1.22.39,2.44.56,3.66l-.39-2.86c-.2.3.35,3.05.42,3.69q.28,2.76.48,5.55.35,4.63.46,9.29c.15,6.2,0,12.42-.46,18.61-.08,1-1.35,5.71-.09,1.56,1.2-4,2.42-6.74,5.87-9.42a15.53,15.53,0,0,1,7.78-3.31,11.82,11.82,0,0,1,6.63.35c-1.79-.53-1.51-.37.81.48.81.33,6.32,4.65,4.35,2.58q-2-2,1.46,2.15c-.46-.65-.89-1.33-1.29-2a70.47,70.47,0,0,1-4-8.14c-4-9.12-16.42-13.35-25.35-12.15-10.64,1.43-17.39,8.51-21.14,18.22-2.18,5.63,2.47-5.15-.08.28-.73,1.54-1.45,3.09-2.22,4.62q-2.12,4.15-4.57,8.12c-1.55,2.52-3.91,5-5.16,7.63l2-2.62c-.68.86-1.38,1.71-2.09,2.55-1,1.25-2.15,2.46-3.26,3.67h36.89a16.4,16.4,0,0,1,4.54,7.7q-.95-3.94.39,3.62l0-1.16q.28-4.06-.51,3.44c.13-.59.29-1.17.48-1.75q1-2.92-1.49,3.44a18.42,18.42,0,0,1,1.2-2.06q-4.31,5.19-2.23,3t-3.12,2.26c1.89-1.07,1.2-.83-2.06.74l1.64-.41c-4.07.45-4.67.62-1.79.53,5.3-.25-4.77-1.38.07,0,2.25.64,4.55,1.14,6.81,1.8,14.53,4.18,33.95-7.9,32.18-24.52-3.56-33.34-13.28-66.51-29.74-95.85-6.56-11.71-23.58-16.61-35.07-9.2-11.25,7.25-17,23-9.2,35.08A182.83,182.83,0,0,1,842,195.5c1.54,3.09,2.72,6.43,4.37,9.45-3-5.48-.36-.79.15.61.61,1.66,1.1,3.34,1.6,5A200.16,200.16,0,0,1,853,231.25c.32,1.75.58,3.52.88,5.28.83,4.79-.38-3.73,0-.5.4,3.85.8,7.68,1.06,11.54l32.17-24.51c-18.19-6-39.59-6.38-53.36,9.08-14.4,16.16-15.32,39.24-1,55.68,8.8,10.09,28.12,10.14,36.89,0a147.82,147.82,0,0,0,27.51-47.61l-46.49,6.07c8.37,17.88,24.7,33.2,46,28,11.56-2.82,19.8-11,23.9-22.05,2.68-7.24,2.64-15.62,2.75-23.3.46-30.3-5.58-61.3-18.43-88.79-7.21-15.41-18.77-28.49-34.87-34.64s-35.58-2.18-47.13,10.74c-12.51,14-16.17,34.68-7.83,51.67a39.13,39.13,0,0,0,16.74,17,104.31,104.31,0,0,0,12.3,5.14c4.85,1.77-5.22-2.55-.55-.23,1.29.63,2.6,1.22,3.88,1.88q4.17,2.14,8.12,4.69,1.53,1,3,2c1.55,1.08,5.41,5.29,1.26.82,4,4.36,9,7.87,13.09,12.32q1.53,1.68,3,3.42c.65.77,1.29,1.56,1.92,2.35q-2.58-3.39-.48-.6c1.8,2.54,3.62,5.05,5.21,7.74s3,5.49,4.39,8.31a42.9,42.9,0,0,1,2,4.31c-1.76-4.92.59,1.71.92,2.59,3.48,9.44,11.56,15.74,22,14.34,10.15-1.36,16.77-9.6,17.35-19.66,2.2-38-18-75.85-44.75-101.81-13.73-13.34-30.39-23.27-49.79-24.69-17.48-1.29-35.79,5.4-46.93,19.25-4.94,6.14-7.56,14.84-2.85,22.09,5.12,7.9,10.82,15.49,15.77,23.48s9.4,16.13,14.34,24c10.75,17.21,25.17,30.34,39.21,44.73l4.08-31.64c-14.73,7.44-29.59,14.75-44.69,21.43a205,205,0,0,1-20.73,7.26c-7.37,2.3-15.67,5.27-22,5.59-7.06.36-14.35,4.88-16,12.19s1.09,14.92,7.64,18.76q3.79,2.22,7.57,4.49c2.22,1.34,5.85,2.76,7.57,4.7-3.48-3.92-.69,0,0,.73,1,1,1.9,2.1,2.83,3.16a34.68,34.68,0,0,0,6.95,6.11c-7.8-5.77,2.37,2.42,4.84,3.68-5.84-3-2.63-2-.68-.45,2.59,2.08,5.21,4.11,7.89,6.08l1.23.88q3.42,2.56-2-1.51a32.77,32.77,0,0,0,3.45,3,80.47,80.47,0,0,1,6.5,6.56l1,1.18q2.76,3.39-1.46-2c.84,1.77,2.46,3.51,3.55,5.16,5.39,8.18,11.21,16.62,19.92,21.61,12.19,7,26.28,7.35,39.41,2.87,15.61-5.33,31.58-11.35,45.71-19.94a119.53,119.53,0,0,0,36.63-34.55c9.7-14,14.45-30.44,16-47.26s-2-34.29-6.43-50.53a219,219,0,0,0-17.46-45c-7.92-14.91-23-29.29-38.2-36.69-4.92-2.39-10.14-2.93-15.54-2.87-.63,0-5.25.42-1,.83-2.17-.21-4.67-2-6.79-2.76A61.27,61.27,0,0,0,862.69,99c-12.83.22-12.4,18.49,0,19.63Z"/><path class="cls-18" d="M202,538.23a120.84,120.84,0,0,0-67.78,46.24c-15.65,21.79-23.86,48.78-25,75.44a145.45,145.45,0,0,0,21.41,82.42c16.87,27.8,40.88,51.22,67.81,69.25a224.9,224.9,0,0,0,42.91,22.56c15.84,6.2,32.62,9.34,48.84,14.36C328,860.21,364.37,876.61,399,895.79c16.07,8.9,31.84,18.39,47.07,28.66,9.27,6.26,18.13,13.08,27.27,19.52A215.44,215.44,0,0,0,502.4,960.9c13.51,6.64,27,12.9,41.84,15.91,30.42,6.18,62.91,4.32,93.09-2.32s57.1-20.84,80.24-41.44c23.4-20.83,41.43-46.58,61-70.8,20-24.74,42.71-49.85,71.69-64.08,51.57-25.32,119-18,161.13-62,17.21-18,26.9-42.82,30.48-67.18,4.66-31.7-1.55-64-19.06-91-26.19-40.44-71.09-64.57-115.45-80-16.24-5.65-32.43-10.17-49.48-12.54-4.89-.68-7.07,6-2.1,7.59,29.59,9.5,59.6,17.21,87.54,31.17,20.22,10.1,39.35,22.71,55.08,39.05,22.26,23.13,35.48,53.22,35.47,85.47,0,23.56-6.37,47.55-18.67,67.34a75.53,75.53,0,0,1-12.85,15.86c-10,9.79-22.2,17.06-35.11,22.32-26.28,10.71-54.74,14.5-82,21.76-13.78,3.67-27.39,8.21-40.17,14.6-13.82,6.9-26,16.38-37.37,26.76-22.87,20.91-41,46-60.26,70.09s-40.56,46.68-67.65,62.2c-25.84,14.82-56.21,20.88-85.71,22.42-15,.79-30.3.37-45.15-2.27s-28-8.32-41.45-14.77a217.62,217.62,0,0,1-29-16.41c-8.43-5.77-16.54-12-25-17.75-30.15-20.54-62.48-38.13-95.67-53.24C341,860,323.82,853,306.34,847c-16.88-5.8-34.25-9.51-51.26-14.78-30.43-9.44-58.52-27-81.93-48.4-23.05-21.11-43-47.41-51.91-77.71-15-50.75,1.12-112.14,44.81-144a116.29,116.29,0,0,1,37.63-17.95c3.84-1.07,2.22-7-1.64-6Z"/><path class="cls-18" d="M417.6,690.93c-20.65-20.67-29.85-49.7-27.65-78.6,2.27-29.89,17.49-57.1,39.16-77.38C478.32,488.9,552.06,483.36,615.74,493c60,9.09,126.65,40.41,144.32,103.73,8.38,30,.07,60.62-20.14,84-20.95,24.2-50.33,37.59-81.09,44.51-31.56,7.09-65.07,9.66-97.39,9.48-29.84-.18-60.75-4.21-87.17-19a212,212,0,0,1-18.18-11.62c-1.78-1.26-3.85,1.51-2.31,3,22.45,21.49,55.41,29.32,85.54,31.75,33,2.65,67.18-.14,99.89-5.1,33.06-5,66.18-15.25,91.84-37.53,22.85-19.86,38.53-48.38,37.07-79.23-3.19-68-69.62-110.26-129.54-124a317.75,317.75,0,0,0-104.43-6.19c-33.46,3.66-66.54,14-93.65,34.42-23.68,17.82-42.76,42.93-49.86,72-6.78,27.8-2.86,59.09,13.13,83.14A76.75,76.75,0,0,0,417,691.53c.4.36,1-.21.59-.6Z"/><path class="cls-18" d="M551.64,362.94c8.53-1.19,17.42-1,26-1.15a190.2,190.2,0,0,1,25.69,1.43,161,161,0,0,1,25.07,5.09c8.16,2.33,16.13,6,24.44,7.7,3,.61,4.19-2.91,2-4.63-7.19-5.5-16.61-8.3-25.22-10.67a173.41,173.41,0,0,0-25.36-4.92,146.48,146.48,0,0,0-26.57-.65c-9.29.58-17.78,2.91-26.74,5.27-1.68.44-.93,2.76.7,2.53Z"/><g class="cls-19"><path class="cls-2" d="M142.34,741.23a156.71,156.71,0,0,0,15.58,29.12c6.15,8.85,13.82,16.64,20.61,25,14.92,18.36,35.48,32,57.72,39.71,23.44,8.09,48.29,10.89,71.81,18.93q7,2.4,13.87,5.18c.33.13,4.74,2,1.5.6l3.28,1.44c2.59,1.16,5.17,2.36,7.72,3.59,9.05,4.38,18.12,8.8,27.09,13.34,10.4,5.26,20.33,11.51,30.86,16.45C404,900.05,414.65,908.1,425.45,915c6.34,4.08,14.14-5.65,8.18-10.6-8.7-7.23-18.09-14.1-26.24-21.94-7.42-7.15-14.74-14.08-22.74-20.62s-16.27-13.66-25.25-19A271.82,271.82,0,0,0,333,829.13c-22.11-10-44.95-16.56-68.36-22.73-22.34-5.87-44.19-10.9-63.66-20.64-5-2.49-10-4.85-14.81-7.65-5.09-3-9.29-7.38-13.38-11.59-8.59-8.84-16.56-17.94-23.26-28.33-2.28-3.53-9-1.28-7.2,3Z"/></g><g class="cls-3"><path class="cls-11" d="M486.2,458.28l19.53-22.39c5.78-6.63,11.44-13.66,18.38-19.11l-3.5,2c8.18-2.52,16.49-6.76,24.23-10.42a91.67,91.67,0,0,1,23.68-6.88c2.49-.38-1.68.16.81-.09,1-.11,2-.2,3-.28,2.27-.17,4.54-.27,6.81-.28,2,0,4.05.06,6.07.16,1,.05,2,.11,3,.2-.1,0,4,.4,2.56.22s1.52.25,1.77.29c1,.17,2,.36,3,.57,2.23.46,4.44,1,6.63,1.65.92.27,1.84.54,2.75.88-1.77-.66-.19-.45.26.23-1-1.48-2.7-3.57-2-5.66l4-6.94c1.39-1.8,4.65-1.08,6.09-2.12-.42.3-2.1,0-2.61,0-2.45-.09-4.9-.31-7.35-.43a82.22,82.22,0,0,0-18.77,1.41,261.26,261.26,0,0,0-29.06,6.95,179.19,179.19,0,0,0-31.49,12.6q-6.63,3.48-13.05,7.31a87.92,87.92,0,0,0-8.66,5.76c-4,3.08-6.72,7.17-9.68,11.21-5.74,7.84-3.53,20.3,1.92,27.36,5.65,7.31,16.66,12.13,25.9,8.83,2.9-1,.27-.23-1.26-.28a24.41,24.41,0,0,0,3.51-.35c3.81-.43,7.62-.95,11.4-1.58,4.63-.77,9.2-1.82,13.73-3,9.47-2.49,18.72-5.7,28.15-8.35a138.79,138.79,0,0,1,13.85-3c.48-.09,4.28-.74,1.55-.3s1.07-.11,1.57-.17q3.51-.36,7-.48c2.28-.08,4.57-.07,6.85,0,1.12.06,2.24.19,3.36.26,3,.17-3.46-.87-.62,0a94.79,94.79,0,0,0,17.44,3.37c7.64.81,15.26-5.62,18-12.1A19.89,19.89,0,0,0,641,423.84c-9.2-9.83-23.72-12-36.62-12.26-11.22-.2-22.59,1.65-33.52,4-9.58,2.09-19.17,4.15-28.79,6-2.62.51-5.25,1-7.88,1.41-.85.14-2.7.78-3.51.53,1.13.35,4-.44.82-.17-2.62.23-5.23.47-7.86.56a29.29,29.29,0,0,0-3.51.07c-2.44.39,4.79,1.5.38-.2v47.51c12.07-2.78,22.39-10.86,33.39-16.42,9.62-4.87,18.93-10.3,28.75-14.81l3.17-1.43c.24-.1,5.51-2.28,2-.88-3,1.22.53-.19,1.28-.49,1.37-.55,2.74-1.08,4.12-1.61a173.45,173.45,0,0,0,18.71-8c3.75-1.94,7.73-3.55,11.2-6,6.81-4.75,11.51-12.29,11.5-20.81,0-26.5-34.94-30.34-54.73-28.92a111.44,111.44,0,0,0-29.69,6c-9.45,3.39-19.58,7.62-27,14.6-4,3.79-8,7.82-10.76,12.58s-7.22,9-10.63,13.53c-8.21,10.9-16.06,22.07-24.07,33.12-3.55,4.89,4.42,11,8.39,6.47Z"/></g><g class="cls-3"><path class="cls-11" d="M299.94,558.32c-7.09-.24-13.85,1.14-20.79,2.42q-4.75.87-9.48,1.79c-1.58.31-3.16.61-4.73.93-3.28.67,4.27-.31-1.31.07a203.55,203.55,0,0,0-39.09,6.35l7.47-1c-2.27-.28-4.53-.5-6.82-.59l8.66,1.17c-8.17-1.27-15.21-2.53-23.46-.66s-16.62,8.5-22.4,14.43a61.67,61.67,0,0,0-16.36,33.51c-2.84,18.5-2.93,38.13,2.29,56.28,5.58,19.46,16.13,35.33,32.4,47.3,14.38,10.6,33.21,12.43,50.24,15.5a201.45,201.45,0,0,0,34.33,3c4.45,0,8.9-.27,13.37-.26a35.67,35.67,0,0,0,11.45-1.77c-.42.14-3.41.17-.95.2,1.57,0,3.21-.2,4.77-.29,17.87-1.06,25.17-24.24,9.23-34.07-1.59-1-3.19-2.08-4.83-3,1.48,1.34,1.7,1.52.68.54l-1.81-1.77c-3.64-3.18-7.48-4.72-11.57-7-6.37-3.58-12.61-7-19.24-10.18-14.78-7.1-30.68-10.51-45.72-16.84l8.15,3.44a51.42,51.42,0,0,1-8.95-5.1l7.05,5.45a40.57,40.57,0,0,1-6.7-6.72l5.55,7.18a47.78,47.78,0,0,1-5.32-9.36L249.7,668a67.73,67.73,0,0,1-4.09-16.22l1.33,9.94a131,131,0,0,1-.31-31.47l-1.37,10.2a55.62,55.62,0,0,1,3.28-12.69l-3.9,9.24c2.25-5,4.66-9.94,6.68-15.09l-3.89,9.21a39.57,39.57,0,0,1,4-6.62l-5.85,7.56c5.84-7.23,9.93-13.17,11.19-22.52.36-2.69.58-5.15.83-7.79l-1.2,9,.25-1.16-3.28,7.78a67.63,67.63,0,0,1,3-6.12l-10.09,10.09c4.48-3.35,9.21-6.29,13.87-9.37,5.33-3.51,10.27-7.6,15.43-11.36,4.85-3.53,10.28-6.27,15.53-9.18,6.34-3.5,12.21-6.86,17.85-11.45,9-7.35,1.09-21.27-8.95-21.61Z"/></g><g class="cls-1"><path class="cls-2" d="M855,467.42a1.51,1.51,0,0,0,0-3,1.51,1.51,0,0,0,0,3Z"/></g><g class="cls-1"><path class="cls-2" d="M244.79,508.85a165.9,165.9,0,0,0,58.68,9.88c10.32-.22,21-2.68,31.09-4.93s19.94-5.06,29.73-8.21c19.95-6.43,39-15,58-23.76,15.89-7.31,31.87-14.6,46.8-23.76,8.73-5.36,17.64-11.19,24.43-18.93a124.61,124.61,0,0,0,17.57-25.39c2.87-5.64,2-12.52-3.28-16.44-4.84-3.62-12.42-3.8-16.74,1a103,103,0,0,1-8.23,8.22,51.26,51.26,0,0,1-7.83,6.14c-1.48,1-3,2-4.49,2.94-.86.55-1.76,1.07-2.59,1.67,0,0-5.78,4.35-2.48,1.91-3.37,2.49-6.8,4.89-10.33,7.16-13.62,8.74-28.27,15.73-42.93,22.53-18.53,8.59-35.19,15.8-52.83,23.42-3.06,1.32-6.57,2.75-10.86,4.41q-7,2.71-14.1,5.14a262.56,262.56,0,0,1-26.69,7.58c-9.95,2.24-19.71,5.28-29.78,7a146.74,146.74,0,0,1-31.75,1.82c-6.4-.3-6.88,8.63-1.43,10.59Z"/></g></g></g></svg>