<svg xmlns="http://www.w3.org/2000/svg" viewBox="0 0 1147.53 775.04"><defs><style>.cls-1,.cls-10,.cls-11,.cls-14,.cls-9{fill:none;}.cls-1{stroke:#0071bc;stroke-width:3px;}.cls-1,.cls-10,.cls-11,.cls-9{stroke-miterlimit:10;}.cls-2{fill:#fff;}.cls-3{fill:#0071bc;}.cls-4{opacity:0.05;}.cls-5{fill:#3fa9f5;}.cls-6{fill:#00e78f;}.cls-7{fill:#333;}.cls-8{fill:#f2f2f2;}.cls-10,.cls-11,.cls-9{stroke:#333;}.cls-9{stroke-width:0.8px;}.cls-10{stroke-width:1.6px;}.cls-11{stroke-width:0.78px;}.cls-12{opacity:0.59;}.cls-13,.cls-23{fill:#b3b3b3;}.cls-13{opacity:0.09;}.cls-15{fill:red;}.cls-16{fill:#009245;}.cls-17{fill:#f7931e;}.cls-18{fill:#00a99d;}.cls-19{fill:#fbb03b;}.cls-20{fill:#39b54a;}.cls-21{fill:#8cc63f;}.cls-22{opacity:0.42;}.cls-24{opacity:0.86;}.cls-25{fill:#09466e;}.cls-26{opacity:0.84;}</style></defs><title>favorite-cloudAsset 144</title><g id="Layer_2" data-name="Layer 2"><g id="Layer_30" data-name="Layer 30"><path class="cls-1" d="M649.61,121.36s14.39-8.49,20.29-11.9c6.28-3.63,11.09-7.92,11.32-15.17a12.29,12.29,0,0,0-9.4-12.58,17.19,17.19,0,0,0-10,.82,27.5,27.5,0,0,0-12.24,9.08h-.73a27.55,27.55,0,0,0-12.24-9.08,17.23,17.23,0,0,0-10-.82,12.28,12.28,0,0,0-9.39,12.58c.23,7.25,5.17,11.31,11.31,15.17,5.42,3.41,20.29,11.9,20.29,11.9Z"/><path class="cls-1" d="M564.61,41.56S579,33.07,584.9,29.66C591.18,26,596,21.73,596.22,14.48a12.3,12.3,0,0,0-9.4-12.58,17.2,17.2,0,0,0-10,.83,27.47,27.47,0,0,0-12.24,9.07h-.73a27.53,27.53,0,0,0-12.24-9.07,17.24,17.24,0,0,0-10-.83,12.29,12.29,0,0,0-9.39,12.58c.23,7.25,5.17,11.32,11.31,15.18,5.42,3.41,20.29,11.9,20.29,11.9Z"/><path class="cls-1" d="M533,184.07s14.39-8.49,20.29-11.9c6.28-3.63,11.09-7.92,11.32-15.17a12.3,12.3,0,0,0-9.4-12.59,17.28,17.28,0,0,0-10,.83A27.55,27.55,0,0,0,533,154.31h-.73A27.6,27.6,0,0,0,520,145.24a17.32,17.32,0,0,0-10-.83A12.29,12.29,0,0,0,500.61,157c.23,7.25,5.17,11.31,11.31,15.17,5.42,3.41,20.29,11.9,20.29,11.9Z"/></g><g id="CookingCloud"><path class="cls-2" d="M397.32,428.07c-27.11,11.7-26.5,25.87-41.94,46-3.33-27.75-20.45-34.23-59.53-48.2-29.68-10.61-64.94-13.07-96.19-4.86-49.29,12.95-84.36,52.18-79.75,91.11-27.16-7.28-58.79-8-83.78,2.75C7.67,527.14-6.68,558.93,5.33,582c7.23,13.91,55.24,34.12,75,24.78-28.85,13.66-50.37,75.1-28.41,94.66s59.77,25.71,93.53,21.88,64.61-16.09,94.71-28.14c22.44,24.51,51.33,46.52,87.39,58.95s80,14.19,114.87,0c25.42-10.33,44-27.85,61.78-44.9,45.91,39.24,118.09,60.35,187.4,54.81s133.9-37.58,167.7-83.19a166.66,166.66,0,0,0,92.55,48.51c37.64,6.15,80.29-2.06,105.23-24s27.62-57.71,2.07-79.28C1092.23,606.15,1122,581.77,1137,552s13-65.55-12.6-90.91-77.27-36.06-113.26-19.15c-21.91-21.46-51.41-40.06-86.76-45.53s-76.6,5.29-92.56,29.51c-35.21-11.37-72.52-22.1-110.75-19.78-48,2.92-89.16,25.75-126.49,48.48-5.42,3.31-11.36,6.79-18.35,7-5.35.17-10.42-1.6-15.24-3.34l-81.21-29.19c-14-5.05-28.7-10.21-44.28-10.17C422,419,409,423,397.32,428.07Z"/><path class="cls-3" d="M397,427.5c-9.91,4.38-18.54,10.19-24.91,19.06s-10.81,18.52-17.32,27.12l1.34.36c-1.89-14.66-8.7-25.53-21.53-33-7.84-4.55-16.42-7.81-24.89-11-12.54-4.67-25.08-9.1-38.25-11.63-46-8.82-98.79.71-131.4,36.6-14.15,15.57-23.37,35.68-21.2,57l1.37-1C83.61,501.27,31.45,501,8.41,536.83.14,549.71-3,566.45,3.49,580.74c5.17,11.3,19.65,17.57,30.44,21.93,13.75,5.57,32.5,11.54,47,5.17l-1.21-2.07c-13.07,6.41-22.19,19.34-28.36,32.14-6.49,13.44-11,29.13-9.39,44.17s10.86,23.48,23.68,30.29c17.69,9.39,38.26,12.93,58.13,13.23,23.7.35,47.25-4.56,69.75-11.73,12-3.83,23.88-8.31,35.64-13,2.49-1,5-2.2,7.56-3,3.3-1,3.76-.48,6.09,2q6,6.35,12.53,12.24c32.34,29.37,72.86,48.9,116.63,52.63,24.57,2.1,50.1-.51,72.92-10.26,23.34-10,42.07-27,60.19-44.32h-1.78c39.49,33.44,91.32,50.77,142.4,55.06,53.13,4.47,107.93-6.16,154.57-32.34,23.16-13,44.17-30,60.16-51.32l-2.07.27c30.77,31.81,74.27,51,118.66,50.88,36.93-.11,85.91-13.64,98.75-53,6.53-20,0-40.86-15.71-54.54l-.26,2c31.8-19.24,65.21-44,80.57-79.11,13.85-31.63,7.81-69-19.13-91.79-24.6-20.79-61.42-28.4-92.61-21.7a84.74,84.74,0,0,0-12.08,3.52c-1.14.42-2.76,1.51-4,1.6-2.22.17-3.52-1.9-5.22-3.45a185.27,185.27,0,0,0-21.47-16.92,154.24,154.24,0,0,0-53.4-23.06c-33.78-7.23-80.92-2.29-102.09,28.77l2-.79c-29.49-9.51-59.63-18.26-90.75-19.84-29.46-1.5-58.3,4.65-85.46,15.87a352.46,352.46,0,0,0-36.43,17.81c-5.49,3-10.92,6.19-16.31,9.4-6.51,3.88-13,8.8-20.29,11.25-7.83,2.64-15.2.35-22.68-2.33l-23.94-8.6-45.82-16.46c-15.83-5.68-31.84-12.31-48.77-13.68-15.82-1.28-30.83,3.05-45.25,9.17-1.63.7-.22,3.08,1.4,2.39C412.53,423.09,428.1,419.2,444,421c15.16,1.67,29.56,7.53,43.79,12.65l45.81,16.49,20.82,7.49c6.4,2.31,13,5.29,19.91,5.62,12.52.62,23.7-8.85,33.91-14.85,11.45-6.74,23.1-13.17,35.11-18.87,26.45-12.56,54.85-21.27,84.3-21.93,35.62-.8,70.22,9.25,103.8,20.06a1.77,1.77,0,0,0,2-.8c17.52-25.75,55.51-32.28,84.38-29.6,35.16,3.27,67.38,21.56,92.4,45.8a1.54,1.54,0,0,0,1.8.23c34.87-16,84-8.28,111.55,18.83a72.63,72.63,0,0,1,21.43,57.43c-1.63,21.77-12.49,41.37-26.57,57.6-16.84,19.41-38,34.62-59.88,47.87a1.31,1.31,0,0,0-.27,2c14.23,12.37,20.8,30.69,15.92,49.15-4.93,18.62-19.66,32.1-36.4,40.51-37.13,18.67-83.15,16.87-121,1.46A166.1,166.1,0,0,1,860.2,680a1.35,1.35,0,0,0-2.08.27c-29.35,39.21-75.68,63.66-122.48,75.34-51.17,12.76-105.94,10.3-155.95-6.37-27-9-52.83-22.35-74.64-40.82a1.3,1.3,0,0,0-1.78,0c-13.72,13.13-27.67,26.21-44.06,36-17.57,10.48-37.25,16.24-57.58,18-39.57,3.34-79.43-7.24-113.06-28.1A229.82,229.82,0,0,1,241,694.33a1.19,1.19,0,0,0-1.21-.32c-44.69,17.89-92,35.66-140.9,26.87A110.57,110.57,0,0,1,68.28,711c-7.33-3.72-15.72-8.57-20-15.89-7.64-13.2-4.12-31.25.54-44.83,5.63-16.42,15.9-34.46,32-42.47,1.4-.69.18-2.69-1.21-2.07-12,5.35-27.56,1.08-39.28-3-11-3.82-25.8-9.63-33-19.51-8.9-12.26-5.6-30.62,1.4-42.84,9-15.62,24.39-24.87,41.51-29.21,22.7-5.75,46.8-3.88,69.29,1.9a1.09,1.09,0,0,0,1.37-1c-4.58-41.14,31.43-73.57,66.87-86.59,45.32-16.65,94-7.14,136.83,12.19,7.29,3.29,14.66,7.19,20.17,13.11,6,6.44,8.69,14.66,9.81,23.24a.72.72,0,0,0,1.33.36c6-8,10.4-16.85,15.89-25.14,6.41-9.66,15.26-15.95,25.76-20.62C398.43,428.29,397.76,427.15,397,427.5Z"/><g class="cls-4"><path class="cls-5" d="M73.37,695c29.83,37,91.17,25.9,158.94-1.43,7.39-3,35.27,27.88,41.7,32.45,37,26.38,83.68,44,129.9,38.36S493.83,725.26,499,682.1c40.21,49.73,100.23,88.71,166.94,92.71s175.75-43.49,193.28-103.57c39,19.38,73.61,57.72,117.79,56.82,32.19-.66,82.3-6.47,95.2-46.67,10.6-33-3.7-52.94-42.34-45.37-56.47,11.07-131.2,12.21-182-15.56-7.44-4.07-14.66-8.88-23.16-10.64C799.1,604.51,778.67,627.5,762,645.6c-63,68.15-180.4,97-267,54.18-28.8-14.23-55.77-36-88.7-36-25.61,0-49.17,13.56-74.75,14.65-24.72,1-48-9.58-69.81-19.91-39.62-18.73-51.41-24.95-88.35-1.11-27,17.4-63.48,47.59-99.95,37.52"/></g><path class="cls-6" d="M310.81,261.88C338.15,380.64,350,482.6,356.94,604.2c43.19-7,201-41.19,228.08-48.9,21.27-6.06,39.58,2.09,60.35,5.79,23.89,4.25,195.1,49.26,208.17,28.72,1.57-2.47,1.49-5.58,1.35-8.49C848.57,449.61,853,345,841.42,216a13.13,13.13,0,0,0-15.84-11.54c-20.52,4.29-56.54,8.29-62,10.31-27.91,10.3-103.93,33.06-191.94,57C510.43,253.62,310.3,259.67,310.81,261.88Z"/><path class="cls-7" d="M321.35,262.23Q342,412.71,361.86,563.32l2.5,18.82,1.25,9.41.31,2.36.16,1.17a8.49,8.49,0,0,0,.22,1,7.06,7.06,0,0,0,2.21,3.41,7,7,0,0,0,3.73,1.59,10.19,10.19,0,0,0,4.26-.62l9.18-2.43L404,593.18l73.43-19.4,36.73-9.64c12.25-3.19,24.47-6.52,36.88-9.19a216.39,216.39,0,0,1,37.69-5.12,257.76,257.76,0,0,1,38,1.45c12.61,1.3,25.13,3.28,37.6,5.44l37.39,6.66,74.79,13.25,37.4,6.6,18.7,3.27c3.1.54,6.27,1.12,9.32,1.61a4.92,4.92,0,0,0,5.45-5.15c-2.72-25.11-5-50.4-6.48-75.67a1506.52,1506.52,0,0,1-1.61-151.92c1-25.31,2.53-50.58,2.23-75.85s-2.46-50.55-8.83-74.94l1.18.95a126.21,126.21,0,0,0-32.3,3.36,297.61,297.61,0,0,0-31.37,9.36l-62,21.94-62,21.95-31,10.92a162.69,162.69,0,0,1-15.88,4.69,74.6,74.6,0,0,1-16.52,2c-11.18,0-22-2.7-32.62-5.44s-21.24-5.35-32-7.51-21.53-4-32.38-5.41-21.77-2.34-32.71-2.92c-21.88-1.13-43.81-.6-65.71.4s-43.8,2.44-65.71,3.51v-.24c21.9-1.28,43.77-2.9,65.67-4.13,11-.61,21.92-1.09,32.9-1.29s21.95-.1,32.93.39,21.93,1.39,32.83,2.71,21.76,3.1,32.54,5.22,21.48,4.65,32.11,7.4,21.28,5.3,32.12,5.25a72.67,72.67,0,0,0,16-2,158.5,158.5,0,0,0,15.64-4.7l31-11,62-22.05,62-22A303.69,303.69,0,0,1,801,206.42,128.53,128.53,0,0,1,834,203l1,0,.23.92c6.39,24.68,8.5,50.21,8.74,75.55s-1.32,50.69-2.4,76c-2.15,50.55-1.95,101.21.92,151.74,1.37,25.29,3.51,50.46,6.1,75.7a6,6,0,0,1-6.7,6.29c-3.19-.53-6.25-1.11-9.38-1.67l-18.69-3.37-37.38-6.69-74.77-13.33-37.4-6.57c-12.47-2.12-25-4.07-37.56-5.34A254.45,254.45,0,0,0,588.82,551a215.24,215.24,0,0,0-37.44,5.32c-12.33,2.74-24.52,6.15-36.75,9.42L478,575.61l-73.37,19.6-18.35,4.89-9.17,2.45c-.8.2-1.46.42-2.39.59a8.61,8.61,0,0,1-2.68.09,9.13,9.13,0,0,1-7.74-6.55,10.21,10.21,0,0,1-.28-1.31l-.16-1.19-.3-2.35-1.23-9.41-2.45-18.83Q340.15,413,321.11,262.26Z"/><path class="cls-8" d="M381.92,594.89c41.5-15,83.21-29.45,124.51-45,17.74-6.66,90.48-17.18,90.48-17.18s70.2,9.34,102.58,15.22C770,560.8,824.23,567.52,824.23,571.15c.14-66.26-.13-117-.13-183C822.48,338,823,273,823,222.75c.07-13.63-23.31-29-23.31-29s-81.39,3.32-137.44,27.64c-42.47,18.44-95.35,42.46-95.35,42.46S504.29,241.65,422.6,235c-14.82-1.2-61.3,1.2-61.3,1.2s-23.13,19.41-20.84,29.65c14.11,63,26.43,159.26,33.36,223.45C374.9,499.38,387.53,592.86,381.92,594.89Z"/><path class="cls-7" d="M793.77,194.15c0,.21-.16.22-.22.26a1,1,0,0,1-.23.08l-.44.1-.87.12-1.75.16c-1.16.08-2.33.15-3.49.21l-7,.31-13.95.69q-13.94.73-27.78,2.34a203.09,203.09,0,0,0-27.35,4.87c-8.93,2.47-17.89,5-26.7,7.93s-17.58,6-26.21,9.51-17.15,7.22-25.49,11.35-16.56,8.5-24.66,13.08l-6.07,3.45-6,3.55-6,3.6c-1,.59-2,1.21-3,1.79a21.9,21.9,0,0,1-3.28,1.47,37,37,0,0,1-14.08,1.52,81.69,81.69,0,0,1-13.94-2.16c-4.57-1.07-9.06-2.41-13.51-3.85s-8.81-2.94-13.27-4.26q-13.34-4-27-6.8A263.73,263.73,0,0,0,474,239.19c-18.45-1.92-37.07-1.83-55.67-1.34l-27.93.7a70.93,70.93,0,0,0-27.09,5.4l-.1-.21a70.2,70.2,0,0,1,13.23-4.58c2.28-.54,4.59-1,6.91-1.3s4.7-.45,7-.54c9.3-.41,18.6-1,27.91-1.36s18.64-.69,28-.67,18.69.45,28,1.34a284.46,284.46,0,0,1,54.84,11.48c4.46,1.38,8.92,2.88,13.29,4.42s8.81,2.88,13.29,4a86.46,86.46,0,0,0,13.6,2.39,35.68,35.68,0,0,0,13.55-1.14,19.89,19.89,0,0,0,3.11-1.32c1-.51,2-1.14,3-1.71l6.06-3.48,12.19-6.85q12.22-6.76,24.7-13.09l6.27-3.09,6.32-3c4.22-2,8.46-3.93,12.75-5.75q12.86-5.53,26.09-10.16c8.86-3,17.77-5.71,26.82-8.09a206.48,206.48,0,0,1,27.67-4.65c9.29-1,18.61-1.46,27.93-1.77,4.66-.16,9.32-.21,14-.24l7-.06,3.49-.06c.58,0,1.16,0,1.74-.08.29,0,.58,0,.86-.07l.42-.07c.12,0,.3-.13.27-.08Z"/><path class="cls-9" d="M346.07,293.92c6.72,22.34,9.8,46.5,14.61,69.48q2.49,12,4.84,23.93c5.84,30.05,10.74,60.29,13.53,90.77,3.44,37.61-2.63,77.92,5.6,114.79.39,1.77,114.75-33.67,125-37.25,20.92-7.3,86.86-22.49,86.86-22.49s82.26,11.45,103.38,15.22c67.31,12,80.14,4.81,117.24,14.54-3.78-127.39,10-212.51,6.17-339.9"/><path class="cls-10" d="M395.6,575.24c-6.31-47,.35-95-5.2-142.07-3.09-26.22-9.92-51.82-16.74-77.32L347.14,256.6c12.93,27.33,26.19,45.61,34,74.82,22.54,84.26,22.75,172.67,22.81,259.89"/><path class="cls-7" d="M363.17,243.62a568,568,0,0,1,31.35,81.55l1.55,5.24,1.44,5.28c.94,3.52,1.93,7,2.83,10.55,1.72,7.09,3.54,14.14,5.11,21.25s3.12,14.23,4.64,21.36c.73,3.57,1.36,7.15,2.07,10.73l1,5.36.92,5.39,1.8,10.78,1.56,10.82c.56,3.6,1,7.22,1.41,10.84l.64,5.43c.22,1.81.42,3.62.57,5.44l1,10.89c.35,3.63.53,7.27.8,10.9.56,7.28.8,14.56,1.11,21.84.6,14.55,1.05,29.1,2.56,43.56a194.54,194.54,0,0,0,8.79,42.61l-.15.06A180.76,180.76,0,0,1,424.33,541c-1.72-14.5-2.38-29.09-3-43.63-.31-7.28-.64-14.54-1.13-21.8-.24-3.63-.39-7.26-.71-10.88l-.93-10.87c-1.44-14.48-3-29-5.35-43.32l-.83-5.39-.94-5.38c-.63-3.58-1.23-7.17-2-10.74l-2.19-10.7c-.69-3.57-1.62-7.09-2.43-10.64s-1.63-7.09-2.6-10.6l-2.83-10.55c-1-3.5-2-7-3.05-10.48l-1.54-5.23-1.64-5.2L390,315.14l-3.45-10.35c-1.1-3.47-2.36-6.88-3.57-10.31s-2.37-6.88-3.7-10.26L375.42,274c-1.28-3.41-2.69-6.76-4-10.15-2.63-6.79-5.6-13.43-8.37-20.17Z"/><path class="cls-7" d="M803,547.53l1.68-43.72c.56-14.59,1-29.19,1.45-43.79.89-29.21,1.4-58.41,1.89-87.63l1.47-87.64.82-43.82q.5-21.92,1.26-43.82l.87,0-3.62,87.58q-1.77,43.8-3.16,87.6l-.63,21.9-.57,21.91-.5,21.91-.4,21.91C803,489.14,803,518.45,803,547.53Zm0,.16c-.78-29.36-.78-58.5-.6-87.75l.21-21.92.32-21.91c.25-14.61.67-29.22,1.08-43.83.83-29.21,2-58.41,3.3-87.61s2.81-58.38,4.26-87.56l.87,0q-.92,21.9-1.51,43.8l-.54,21.91L810,284.76c-.4,29.21-.38,58.43-.7,87.65s-1,58.44-2,87.65c-.51,14.6-1.15,29.2-1.84,43.79-.34,7.3-.74,14.59-1.14,21.89l-.63,10.94-.35,5.53Z"/><path class="cls-7" d="M799.6,193.78c.34,13.68.45,27.37.51,41.05s0,27.37-.23,41l-.48,20.52c-.17,6.84-.34,13.68-.43,20.52-.17,13.68-.14,27.37,0,41.05s.2,27.37.17,41,0,27.37-.15,41.05c-.32,27.36-.8,54.73-1.76,82.08H797c-.56-27.37-.64-54.74-.56-82.1.06-13.69.27-27.37.45-41.05s.44-27.36.77-41,.54-27.36.57-41c0-6.84-.05-13.68-.13-20.52l-.18-20.53c-.07-13.68.21-27.36.38-41s.56-27.36,1.1-41Z"/><path class="cls-11" d="M577.91,270c7.21,19.79,8.59,40.93,9.4,61.76,2.41,62.06,13.42,124.52,6.79,186.2"/><g class="cls-12"><path class="cls-2" d="M389.35,291.34a165.19,165.19,0,0,1,8.12,20.3c26.39,77,35.94,249.85,42.44,251.59,7.89,2.11,48.23-22.78,65.12-23.7,7.21-.39,15.91-2.09,17.79-8,1.74-5.42-3.51-10.56-7.38-15.24-8.63-10.39-11.68-23.93-8.13-36.06,1-3.32,2.41-6.65,1.9-10.07-1.78-12.12-24.23-14.33-29.3-25.83s10.89-25,3.44-35.74c-1.83-2.65-4.83-4.55-7.49-6.66-7.83-6.21-13-14.77-14.42-23.72-1.78,3-7.19,3-10.34.88s-4.57-5.53-5.77-8.76a276.41,276.41,0,0,1-11.92-41.77c-2.24-11.12-4-22.85-11.88-32.05S386,243,375.72,249.85c4.93.68,19.31,45.3,16.89,48.94"/></g><path class="cls-13" d="M658.33,235.52a98.07,98.07,0,0,1-17.27,44c-3.68,5.18-8.08,10.58-7.94,16.93.08,3.31,1.41,6.44,2.35,9.61a42.86,42.86,0,0,1-1.24,27.9c-2.2,5.52-5.64,11.06-4.74,16.93,1.29,8.36,10.59,13.06,14,20.81,6.21,14.19-9.46,28.42-11.22,43.81-.73,6.42,1,12.84,1.4,19.29.65,11.2-2.91,22.17-6.43,32.82L610,519.86c-5.67-38.65,4.22-78.22-.64-117-1.61-12.88-4.83-25.49-7.43-38.21a395.94,395.94,0,0,1-6.5-44.82c-1.09-12.54-5.34-33.08-1.36-45.16,3.3-10,18.29-16.52,27.66-21.84C625.63,250.61,658,237.88,658.33,235.52Z"/><path class="cls-14" d="M647.7,134h1.07"/><path class="cls-15" d="M745.67,308.43c-1.69-2.77-5.52-4.42-8.59-3.28-3.85,1.44-6.23,5.37-6.62,9.34-.86,8.78,7.54,14.63,15.66,14,7.34-.56,18.74-6.4,14.29-15.47-3.58-7.3-16.81-9.48-19.71-.68-1.54,4.67,4.27,9.09,8.39,6.45.86-.46.95-.57.27-.34a4.39,4.39,0,0,1,.95.23,4.92,4.92,0,0,1,1.13.41c.26-2.86-.1-3.83-1.09-2.93-.51-.09-3,1.43-3.69,1.59a7.36,7.36,0,0,1-3.58.16c-5.47-1.46-.5-6.9,2.28-8.32a.87.87,0,0,0,.31-1.18Z"/><path class="cls-16" d="M742.69,306a3,3,0,0,1-2-2.15l-1.12,2a5.21,5.21,0,0,1,5.42,3.05,1.71,1.71,0,0,0,2.08,1.18,10,10,0,0,1,3.11-.62l-1.46-.83c-.23-.41,1,.48.5.38a1.72,1.72,0,0,0,1.24-.52,1.56,1.56,0,0,0,.45-1.71,1.81,1.81,0,0,0-2.16-1.23c-2.86.41-4.09,4.83-1.2,6.13s5.53-2.22,4.09-4.76a1.69,1.69,0,0,0-1.46-.84,13,13,0,0,0-4,.74L748.3,308a8.34,8.34,0,0,0-9.54-5.26,1.61,1.61,0,0,0-1.12,2,6.17,6.17,0,0,0,3.89,4.05c1.58.61,2.72-2.05,1.16-2.75Z"/><path class="cls-16" d="M744.7,308.23c3.13.87,6.35.48,9.48,1.16,3.63.79,3.66-5.14,0-4.35-3.13.69-6.35.29-9.48,1.16a1.06,1.06,0,0,0,0,2Z"/><path class="cls-17" d="M699.84,319.75c2.58,2.2,3,5.72,4.58,8.64,1.87,3.52,4.77,6.2,6.87,9.52,4,6.35,7.28,13.12,12.05,19,2.52,3.11,7.32-.87,5.43-4.19-4.64-8.14-10.21-15.35-12.63-24.5-1.62-6.07-4.76-17.5-12.73-17.11-4,.2-7.11,5.6-3.57,8.63Z"/><path class="cls-18" d="M706.91,313a93.44,93.44,0,0,0-16.33-22.06L689,292.5a62.71,62.71,0,0,1,16.17,25.84l1.52-.64c-4.06-7.81-10.57-13.69-17.29-19.2l-1.46,1.89a49.8,49.8,0,0,1,11.89,11l.9-2.15a18.47,18.47,0,0,1-7.33-2.39l-1.41,2.4a13.69,13.69,0,0,1,5.92,4.67l2-2-7.72-3.45c-1.67-.74-3.14,1.6-1.47,2.5,3.55,1.91,7.1,4.3,10.82,5.83,1.52.62,2.89,1.19,4.35.05,3.4-2.65.13-9.31-1.36-12-.74-1.36-3.2-.41-2.57,1.09,1.35,3.2,2.66,6.42,4.08,9.59.61,1.39,3,.39,2.47-1-1.23-3.12-2.55-6.21-3.84-9.3l-2.57,1.08c.75,1.38,2.14,3.68,2.07,5.32-.14,3.06-1.55,2.55-3.5,1.5l-8.48-4.6-1.47,2.5,7.72,3.46c1.18.53,2.94-.67,2-2a15.21,15.21,0,0,0-7.37-5.74c-1.46-.55-2.48,1.85-1.07,2.54a25.44,25.44,0,0,0,8.74,2.51c1.21.13,1.48-1.4.89-2.15a51.41,51.41,0,0,0-12.46-11.26c-1.13-.73-2.54,1-1.46,1.89,6.68,5.42,13.28,10.69,17.56,18.34a.83.83,0,0,0,1.51-.64,62.85,62.85,0,0,0-16.18-27A1.12,1.12,0,0,0,689,292.5,103.48,103.48,0,0,1,705.09,314c.66,1.19,2.46.14,1.82-1.06Z"/><path class="cls-18" d="M693.33,293.43c1.92-1.31,2.19-2.79,1.94-5a1.16,1.16,0,0,0-1.95-.81c-1.58,1.37-4.33-.56-6-.86a4.62,4.62,0,0,0-4.61,1.29A3.88,3.88,0,0,0,683,293c1.58,1.84,4,1.83,6.23,1.59l-1.49-1.14a2.76,2.76,0,0,1-.39,2.1,1.52,1.52,0,0,0,1.3,2.26c.77,0,2.67-.1,3,.83A1.2,1.2,0,0,0,694,298c-.37-2.57-3.13-3.22-5.32-3.19l1.29,2.26a6.75,6.75,0,0,0,.84-4,1.58,1.58,0,0,0-1.55-1.55,7.46,7.46,0,0,1-2.94-.13c-1-.36-1.38-1.31-.4-1.68s2.67.59,3.58.84c2.11.59,4.47.64,5.63-1.51l-1.8.23c1,.95.4,2.92-.36,3.73-.22.24.07.67.37.47Z"/><path class="cls-18" d="M694.6,307a32,32,0,0,1-1.08-5.41l-1.26,1.67q-3.68,2.07-3-.45l-1.45.4-.32,2,1.21.32a13,13,0,0,0-3.5-4.44c-.25-.19-4.77-3.18-4.87-3.15l-1.49-1.13-2.46,0,.56,1.38.57-.93a1.24,1.24,0,1,0-1-2.27,3,3,0,0,0-2,2.55,1.27,1.27,0,0,0,.56,1.38c2.55,1.34,5.75,1.46,6-2.07a1.18,1.18,0,0,0-1.48-1.13,2.52,2.52,0,0,0-1.49,3.79,4.45,4.45,0,0,0,2.17,1.57c2.83,1.41,5,2.66,6.78,5.38a.89.89,0,0,0,1.21.32c1.51-1.14,2-2.78.78-4.36a.79.79,0,0,0-1.45.39c-.2,3.61,3.2,7.07,6.78,4.71,3.39-2.23,1.23-6.54-2.22-6.89-.93-.09-1.4.91-1.27,1.66a16.34,16.34,0,0,0,2,5.38.87.87,0,0,0,1.58-.67Z"/><path class="cls-19" d="M704,322.09a13,13,0,0,0,10.45,1.17l-.84-2c-2.9,1.64-5.45,1.72-8.66,1.79a.76.76,0,0,0-.65,1.14,9.05,9.05,0,0,0,9.71,4.17c.83-.16.87-1.59,0-1.72a6,6,0,0,0-6.34,2.76.91.91,0,0,0,.54,1.32c2.13.77,4.26,1.56,6.41,2.29l-.45-1.11a5.85,5.85,0,0,0,1.21,7.18c.46.43,1.15-.25.69-.69a4.71,4.71,0,0,1-.6-5.73.76.76,0,0,0-.27-1c-2.16-.91-4.34-1.77-6.52-2.64l.54,1.32a4.68,4.68,0,0,1,4.55-1.92l-.23-1.75a7.35,7.35,0,0,1-7.93-3.21l-.86,1.11c3.33,1.16,6.95.2,10-1.4,1.07-.57.33-2.41-.84-2a11.38,11.38,0,0,1-9.11-.37c-.86-.41-1.62.82-.76,1.3Z"/><path class="cls-19" d="M717,343.56l2.29,1.46c.2.14.39-.19.19-.32l-2.25-1.53c-.24-.16-.48.23-.23.39Z"/><path class="cls-20" d="M752.94,340.41a11.66,11.66,0,0,0-12.92,6.1c-2.42,5,.05,11,4.92,13.37,3.61,1.76,11.22.28,9.76-5.23a3.67,3.67,0,0,0-1.86-2.32,4.45,4.45,0,0,0-1.66-.51l-.6-.08c-.9-.21-1.07-.1-.52.33a7.57,7.57,0,0,1,1.29,1.73h-1.13a6.17,6.17,0,0,1-.93-2.85,10.58,10.58,0,0,1,.73-5.77h-4.38l-.54,2.08c1.16-.95,3-1.59,4.19-.46.83.78,1.06,2.71-.7,2.65l2,1.54a1.75,1.75,0,0,1,1-2.22l-2.83-2.83c-1.3,2.36-3.84,2.88-6.32,3.19-1.77.22-3.53,1.73-2.85,3.75a7.69,7.69,0,0,0,7.64,5.53c3.17-.18,4.23-5.11.79-5.83a3.78,3.78,0,0,1-3-2l-1.06,4c3.31-1.56,6.57-3.31,8.4-6.61a2.09,2.09,0,0,0-2.83-2.84,6.1,6.1,0,0,0-2.93,6.91,2.12,2.12,0,0,0,2,1.53c4.19.14,6.8-4.67,5-8.33-2.22-4.63-8.25-3.7-11.56-1.06a2.08,2.08,0,0,0-.54,2.07c1.76,5.81,9.73,3.66,8.48-2.26-.49-2.29-3.45-1.79-4.16,0-1.6,4.07-1.51,16.17,5.54,15,6.24-1,5.35-10.3-.6-11.07-6.23-.82-7.92,8.26-1,8.24l.34-.5a1.91,1.91,0,0,1-1.71.41,4.32,4.32,0,0,1-2.61-1.21,6.13,6.13,0,0,1-2.19-4.86c.36-4.28,5.16-6.31,8.89-6.2,2,.05,2.45-3.06.47-3.47Z"/><path class="cls-16" d="M743.56,358.17c8,6,16.08-4.09,12.08-11.92l-1.4,3.44a5.54,5.54,0,0,0,4.42-3.71,9.17,9.17,0,0,0,.56-2.31c0-1.21,0-2.42,0-3.63q2.49-2.84-1.33,4.2l1.5,3.61-1.6,1.07c-1.24,2.17,1.5,4,3.26,2.52l3.48-.32L763,349.63q-.72-4.32,2.27-3.14l3.14.82.59-2.72-3.22-.84c1.81,2.89-1,5-2.84,6.29-.31.21-2.63,1.76-2.71,1.35-.56-2.85-4.56-1.92-4.77.64-.09,1.19-2.19,2.28-2.77,3.37A5.3,5.3,0,0,0,752,358a3.4,3.4,0,0,0,2.71,3.53v-3.91a3.36,3.36,0,0,1-4.24-.74c0-2.64-3.86-2.58-4.06,0-.44,5.59,5.39,6,9.38,4.65a2,2,0,0,0,.48-3.7c1.53,1.08,3.9-4.85,4-5.77l-4.76.65c1.35,9.31,20.66-1.57,14.29-11.3a2.37,2.37,0,0,0-3.21-.84c-3.12,2.26-4.07,5.62-2.18,9.08a2.31,2.31,0,0,0,3.14.83c3.52-2.66,2.61-8.29-2.11-8.92-4.91-.65-9,5.32-7,9.74,1.74,3.73,7.93,3.76,8.78-.74,1.06-5.6-6.71-4.13-9.22-2l3.27,2.52c1.11-2,2.07-4.68.07-6.5a3.47,3.47,0,0,0-5,.34c-1,1.25-.53,3.81,1.49,3.61,7.27-.72,7.28-8,5.39-13.51a2.63,2.63,0,0,0-2.39-1.82,5.4,5.4,0,0,0-5.5,2.6c-1.5,2.37.11,8.88-2.36,9.43a2.37,2.37,0,0,0-1.4,3.45c2.95,5-2.41,8.38-6.9,6.87-1.7-.57-2.36,1.76-1.13,2.68Z"/><path class="cls-21" d="M749.27,360.25a9,9,0,0,0,8.74-.64,11.09,11.09,0,0,0,3.32-3c.89-1.23,1-4.07,1.82-4.94l-2,.53-.71,4.8,2.14,1.63c-.9-2.58.09-4.5,2.95-5.75-.69,1.07-1.42,2.1-2.21,3.1-1.48,1.81-3.29,3.72-5.67,4.23-4.28.92-10.06-2-14.3-2.67-3.36-.55-4.87,4.26-1.44,5.21,5.33,1.49,13,4,18.36,1.83,3.73-1.5,9-6.72,9.78-10.81s-4.27-5-7.19-4c-4.27,1.46-5.89,5.93-4.56,10a2.27,2.27,0,0,0,2.14,1.63c5.94-.64,10.13-8.14,4.23-12.27-1.81-1.27-4-1.49-5.23.62-1,1.67-.34,3.77-1.48,5.56-1.76,2.79-5.18,3.74-8.3,3.47-.76-.06-1.11,1.16-.4,1.47Z"/><path class="cls-21" d="M741.7,341.6c-4.37.94-3.17,6.88,1.21,6.53l-.58-2.14c-3.46,2.16-5.91,7.25-3.23,11,.67.94,2.46.74,2.38-.64-.19-3.25-.3-6.05,2.24-8.51a1.16,1.16,0,0,0-.5-1.92c-1.37-.31-.72-1.43-.17-2a1.4,1.4,0,0,0-1.35-2.32Z"/><g class="cls-22"><path class="cls-2" d="M683,257.58c12.82-6.79,26.47-15.57,41.07-17.85,13.53-2.11,28.39-.56,41.69,2.31v-26.6a179.82,179.82,0,0,0-23.83,8.93q-5.5,2.63-11.08,5.11c-1.71.76-3.44,1.51-5.16,2.26-2.79,1.23.24-.06-2.8,1.2-14.47,6-29.6,9.28-44.55,13.8A20.31,20.31,0,0,0,663.79,269c1.29,9.59,9.76,17.91,19.88,17.55,13.06-.45,26.11-1.55,39.15-2.42s26-.7,39.14-.62l-11.11-41c-8.71,5.93-17,12.46-25.32,18.87-9.43,7.24-19.29,14.17-28.22,22-7.4,6.5-9.4,20.68-3.73,28.91,7.72,11.19,18.11,16.24,31.45,17.39,2.85.24,5.69.17,8.54.31a18.12,18.12,0,0,0,2.45.18c-.29,0-4.83-1.22-3-.3a8.2,8.2,0,0,0,2.44.68c2.52.32-4.32-2-2.18-.85s-2.93-2.73-3.44-3.46a15.16,15.16,0,0,1-2.48-5.11,16.59,16.59,0,0,1,.14-7.77c-.2.78-1,2.9.33-.54,1.4-3.73-.65.46-1.34,1.51a45,45,0,0,0-2.51,4.16c-6.54,12.89-5.38,27.74,5.45,38,1.11,1.05,8.69,7.41,11.39,7.5-1.58-.05-5-4.77-5.32-5.35.25.5-2-5.69-1.45-3.45s-.51-4.55-.47-3.91c.23,3.58,1.25-4.64.5-2.7a100.42,100.42,0,0,0-5,16c-2.43,12.42-.38,24.6,8.52,34.12a34.57,34.57,0,0,0,3.58,3.16c.75.61,2.69,2.91,3.65,3.15-.42-.11-3.22-4.87-1.25-1.33.1.17-2.17-4.71-1.24-2.28.84,2.16-.51-2.42-.39-2.68-.31.66,0,2.9,0,3.75-.15,4.11-.72,8.21-.52,12.32.38,7.93,2.2,14.07,5.43,21.21,1.85,4.1,4.75,7.71,7.32,11.38a50.46,50.46,0,0,0,4,5.23,16.74,16.74,0,0,0,7.18,4.61c3.13,1.32,3.55,1.5,1.29.54-4.36-1.71,4.42,2.43,1.58.16l-3.7-6.36c2.91,7.55,4.57,15.55,7.45,23.11,1.1,2.88,3.87,7.48,4.12,8.8.76,4-.59,8.72-1.42,12.62-1.48,6.92,8.6,9.79,10.65,2.94,1.28-4.31,1.93-8.75,3.13-13s4.21-7.62,5.35-12.08c2.53-9.91,1-20.27-1.52-30v7.65c-.07.31-1.21,2.87-.3.37.6-1.65,1.41-3.22,2-4.86a32.53,32.53,0,0,0,1.44-4.31,23.71,23.71,0,0,0-.88-14.19c-.31-.77-.63-1.53-.95-2.3q-1.3-3.13-2.64-6.25c-.51-1.19-.45-1,.18.44,2.09,5.06-2.1-6.38-3.26-7.46.78.73,1.29,4.8.62.92-.13-.74-.67-3.63-.15,0,.54,3.79.16-1.75.2-3,.07-2.06.27-4.12.4-6.19.69-11.24-1.63-22-8.58-31a46.49,46.49,0,0,0-4.73-5.36c-.86-.82-4.31-4.66-1.88-1.49,2.22,2.9.74,1,.35.24,3,5.47,1.74,4.71,1.37,2.78,0-.1.78,6.92.62,3.23-.16-3.5-.28,3.29-.48,3.08-.62-.61,1.95-7.07,2.22-7.92a61.93,61.93,0,0,0,2.44-10.85c1.51-11.19-1-22.21-9.59-30.2-2.1-1.95-7.86-7-11.26-7.71,3.28.66,7.31,9.38,7.4,9.77a18.75,18.75,0,0,1,.33,6.33c-.44,3.73-.17,2.09.11,1-1.53,5.81-1.62,3.7-.55,1.82,5.26-9.26,8.77-20.29,4.93-30.78-4.54-12.36-15.35-20.58-28.22-22.89a79,79,0,0,0-10.49-1.15c-1.11,0-7.07-.59-2.83,0,5.12.67-5-2.17-.35.09,3.46,1.67,1.21.59.59.17a10.22,10.22,0,0,1,4,3.8q1.91,2.82.46.43l-8.56,32.63c9.57-7.15,18.5-15.08,27.58-22.85,8-6.86,16.12-13.6,23.74-20.9,6.39-6.13,7.9-16.13,4.56-24.06-3.05-7.22-11.61-14.64-20.13-13.54-13.05,1.69-26,3.46-39.14,4.2s-26.13,1.25-39.15,2.39l5.38,39.77c16.28-5.87,31.37-14.15,47.05-21.39q11-5.1,21.82-10.73c7.9-4.14,14.43-9.4,21.21-15.17,4.6-3.91,5.06-11.74,2.15-16.71-3.25-5.56-9.51-7.49-15.57-6.34-15.9,3-30,9.06-44.55,15.87-14.38,6.73-29,11.81-41.08,22.55-2.08,1.85.57,4.94,2.87,3.72Z"/></g><path class="cls-23" d="M408.61,273.69a20.29,20.29,0,0,0-.07,15.53c1.62,3.74,5.12,7.92,9.72,6.85,9.16-2.14,10-15.8,7-22.59-.66-1.5-3-1-3.37.44-1.27,4.76-3.07,16.25,3.13,18.69,7.52,3,7.21-8.54,11.6-10.33l-2.36-1a14.53,14.53,0,0,1,1.18,7,2.19,2.19,0,0,0,2.73,2.08c5.25-.85,8.9-4.18,10.79-9.06l-4.4-1.21c-1.21,3.27,1.2,6.59,4.6,7.12,4.24.66,7-3.25,8.44-6.62l-3.1.81c4.4,2.41,3.83,9.11,10.22,8.83a9.87,9.87,0,0,0,6.1-2.9c1.12-1,1.93-2.29,3-3.39a12,12,0,0,1,2.8-2.57c3.51-.67,5.36.61,5.57,3.85.06,2.82,4.07,2.73,4.33,0,.1-1.15,4.18-.76,5-.36a21,21,0,0,1,2.77,2.17,14,14,0,0,0,3.89,2.26,7.42,7.42,0,0,0,7.61-1.35h-3c3.18,3,6.9,1.54,10.86,1.3,2.21-.13,19.71,1.59,19.41,5.58-.22,2.94,4.78,3,4.59,0-.36-5.58-7-6.75-11.37-8a43.82,43.82,0,0,0-10-1.86c-2.5-.11-8.54,1.8-10.44,0a2.19,2.19,0,0,0-3,0c-3.53,2.81-9.92-5.58-14.28-5.46a6.15,6.15,0,0,0-6.3,5.76h4.33c-.11-6-6.14-10.59-11.85-7.75a12.51,12.51,0,0,0-3.47,2.8c-.83.88-1.52,2.06-2.42,2.85-1.29,1.12-4.88,2.26-6.5,1.26-1-.59-1.59-3-2.26-4a8.94,8.94,0,0,0-3.2-2.91,2.27,2.27,0,0,0-3.09.81,11.49,11.49,0,0,1-.82,1.74q-.85,2.13-3.91,1.25c.95-2.8-3.41-3.95-4.4-1.21a9.29,9.29,0,0,1-7.53,6.12l2.72,2.07a19.2,19.2,0,0,0-1.88-9.13c-.51-1.12-1.91-1.15-2.86-.75-2.48,1.05-3.54,3-4.61,5.36-.39,1-.8,2-1.25,3q-5.19,1.63-4.5-3.34a24.83,24.83,0,0,1,.8-8.62l-3.38.44c1.8,3.89,2.48,13.13-2.42,15.65l-5.64-.15-1.41-2.13a17.19,17.19,0,0,1-1.34-4.07,18.39,18.39,0,0,1,.86-10c.77-2.22-2.65-3.08-3.48-1Z"/><path class="cls-23" d="M422.24,320.67a4.14,4.14,0,0,0,6.14,1,6.53,6.53,0,0,0,2.2-3.66c.19-.64,2.05-4.94,3.43-3.65.23.21.06,2.69.1,3,.29,2.52,1.63,4.94,4.59,4.52,3.6-.51,4.21-4.41,4.11-7.36l-3.31.89,1.41,2.19a1.82,1.82,0,0,0,3.09,0c2.16-2.82,6-1.57,7.23,1.07.65,1.38,3.2,1.14,3.43-.44q1.43-6.45,6-.31c.13,1.49,2.22,2.91,3.39,1.4,1.79-2.28,4.27-3.48,7.15-2.74,2.6.67,4.2,2.94,6.47,4.25s5.63,1.78,7.85-.2a4.3,4.3,0,0,0-4.78-7.11,2.14,2.14,0,0,0-1,2.37A98.07,98.07,0,0,0,485,336.3c1.06,2.86,5.69,1.55,4.57-1.26a96.79,96.79,0,0,1-5.67-20.24l-1,2.37c-3.31,1.74-5.8-2.4-8.36-3.76a10.14,10.14,0,0,0-5.15-1.16,10.79,10.79,0,0,0-8.42,4.69l3.71,1c-.93-9-12.56-9.15-13.71-.19l3.49-.95c-2.68-5.47-10.07-5.68-13.56-1H444l-1.43-2.16c-.92-1.38-3.4-1-3.31.9a2.7,2.7,0,0,1-1.66,3.3,17.13,17.13,0,0,1-.17-2.48,14.19,14.19,0,0,0-.24-2.43,4.48,4.48,0,0,0-2.54-3.27,4.44,4.44,0,0,0-4.65,1.15,7.24,7.24,0,0,0-1.54,2.36c-.16.35-2,8.23-3.56,5.93-1.12-1.61-3.77-.1-2.66,1.56Z"/><path class="cls-23" d="M434.82,339.34l-.19-.54a1.59,1.59,0,0,0-1.48-1.13c-3.53,0-4.82,4.3-5.43,7.25-.75,3.58-.11,7.7,3.09,9.93,7.83,5.45,13.77-5.93,14.28-12.2.19-2.35-3.41-2.72-4-.55a6.91,6.91,0,0,0,5.5,8.94,2.11,2.11,0,0,0,2.33-1,22.58,22.58,0,0,0,.46-17.72,2.09,2.09,0,0,0-4.08.56,31.25,31.25,0,0,0,2.11,12.94c1.08,2.7,2.77,6.93,5.65,8.22a5.4,5.4,0,0,0,6.42-2c2-2.73,1.2-6.17.22-9.16l-3.84,1.62a7.45,7.45,0,0,0,8.49,3.38c1.57-.45,2.19-1.51,3.45-2.31l.65-.88c2.2.26,3.47,1.33,3.8,3.18.63.85.95,2,1.6,2.85,1.14,1.54,3.86.71,3.28-1.38-1.42-5.06,4-.46,4.1-.43.88.25,1.89,1.12,2.83,1.39a11.09,11.09,0,0,0,6.4-.27c4.95-1.62,8-6.2,10.6-10.43l-3.91-1.06a3.09,3.09,0,0,0,1.45,3.16,11.11,11.11,0,0,0,2.41,1c2.28,1,2.8,2,4.24,3.85,2.29,2.88,5.59,5.18,9.12,2.9,2.13-1.39.17-4.81-2-3.44-2.62,1.63-5-4-6.38-5.32-.26-.24-4.56-2.73-4.63-2.17.27-2.19-2.91-2.69-3.91-1.06-2.22,3.61-4.8,8.2-9.38,9.06-4.29.8-5.4-3.06-9-3.41-3.93-.37-6.46,3.68-5.36,7.16l3-1.74c-2.14-2.72-2.53-7.71-6.76-8.27-3.83-.51-7.18,7-10.41,2.1-1.25-1.9-4.63-.75-3.84,1.62.28.87,2.41,6.84-1.23,5.93-.93-.23-3.1-5.46-3.31-6a27.89,27.89,0,0,1-1.66-11.05l-4.08.55a18.43,18.43,0,0,1,0,14.53l2.33-.95q-3.26-.31-2.64-3.87l-4-.54c-.22,2.9-3.24,12.49-8.33,8.55-2.37-1.84-1.12-9.08,1.27-10.67l-1.87-.24.44.4c.95.87,2.82,0,2.32-1.35Z"/><path class="cls-23" d="M437.25,378.88a5.78,5.78,0,0,0-1.41,5.5.84.84,0,0,0,.58.59c3,.85,4.87-1.08,6.33-3.58,1.15-1.95,1.59-5.5,3.66-6.59,5.21-2.74,4.24,4.45,5,6.55,2.63,6.88,9.28,1.22,10.74-3.21l-2.29.93c3.91,2.1,10.54,3.53,14.51.74,2.49-1.75,3.46-4.86.73-6.72a1.87,1.87,0,0,0-2.72,1.1c-1.38,3.27.81,6.49,4,7.62,4.83,1.71,8.3-2.45,12-4.74,7.2-4.48,7,5.18,13.49,4.34a7.94,7.94,0,0,0,4.15-2.06c1.19-1,4.94-8.58,5.22-1.82a1.61,1.61,0,0,0,3.22,0c-.05.89,8.32.73,9.28.27,2.74-1.32,4.54-4.22,6-6.76h-2c4.65,9.48,16.72,3.74,24.45,6.47a1.61,1.61,0,0,0,1.79-.73c2.88-3.9,9.87-2.06,9.15,3.24-.4,2.93,3.9,3.47,4,.54.27-9-10.68-12.86-15.86-5.37l1.78-.73c-6.78-2.17-19.42,3.28-23.28-4.59a1.17,1.17,0,0,0-2,0c-.47.82-.93,1.66-1.48,2.43a8,8,0,0,1-7.28,3.2c-1.33-.24-2.28-1.46-3.77-1.48a3.57,3.57,0,0,0-3.88,3.08l3.16.43c.21-3.22-.31-7.24-4.18-7.89a4,4,0,0,0-3.55.95c-2.47,2.29-.8,5.89-5.55,5-4.15-.81-5.37-4.87-10.49-3.8a14.66,14.66,0,0,0-5.41,2.74A37.63,37.63,0,0,1,482,377c-2,1.1-7.5,1.94-6-1.8l-2.72,1.11L469,377.64a10.21,10.21,0,0,1-3.17-.17,24.81,24.81,0,0,1-4.71-1.26,1.57,1.57,0,0,0-2,1.51q-.25,5.8-6,2.58a18.83,18.83,0,0,1-.56-3.26,8.89,8.89,0,0,0-.57-2.38,4,4,0,0,0-3.13-2.48c-1.64-.18-3,.85-4,2a12.93,12.93,0,0,0-1.83,2.94,13.3,13.3,0,0,0-.52,1.37c-.32,2.76-1.73,3.17-4.23,1.21.36-.65-.54-1.42-1.06-.82Z"/><path class="cls-23" d="M444.23,404.23c-2.36,4.73-3.72,13.14,3.67,14,8.37,1,10.32-8.35,10.34-14.6l-4.44.6c1.47,9.13,14,9.59,15.51.29l-1.77.72a8,8,0,0,1,3.7,5.25l2.07-.87q6.38-4.46,7.67,1.15a1,1,0,0,0,1.68.44c1.1-1.09,4.48,2.78,5.81,3.23a7.23,7.23,0,0,0,4.81-.21c4.09-1.57,5.66-5.82,6.93-9.66l-1.65.94c3.57.76,3.22,6.56,7.3,7.19,2.32.36,4.45-1.43,6.22-2.6,3.26-2.15,6.47-4.38,9.72-6.55l-1.83-.75c.92,3.08,2.61,4,5.39,5.13,5,2,6.44,9,6.62,14h2.87a22.69,22.69,0,0,1,5.17-15.9l-2.57-.33c2,3.95,7,4,10.38,1.68a13.27,13.27,0,0,0,2.63-2.61c1.85-2.21,1.86-3.61,4.9-4.16,1.87-1,3.2-.45,4,1.64A20.74,20.74,0,0,1,563.2,413a2.13,2.13,0,1,0,4.21-.57c-.82-5.63-4.23-14.58-10.31-16.65a4.78,4.78,0,0,0-4.84.9c-2.54,2-7.66,13.47-12,7.43a1.66,1.66,0,0,0-2.83,0A26,26,0,0,0,532,422c.12,1.83,3,1.85,2.87,0a26.56,26.56,0,0,0-3.16-11.62c-.7-1.26-2-3.87-3.28-4.6-2.54-1.4-4.42,1.56-6-3.58a1.26,1.26,0,0,0-1.83-.74c-3.86,2.56-12.6,10.72-16.74,6-1.64-1.88-1.74-3.86-4.53-4.46a1.38,1.38,0,0,0-1.65.94c-.75,2.22-1.55,5.15-3.39,6.79-5.29,4.7-6.18,0-9.24-1.3-1.6-.7-2.52-.87-3.75.45l1.57.2c-1.47-3.24-4.56-7.27-8.65-5.85a4.58,4.58,0,0,0-2.8,6.61c.58,1.15,2.42.35,2.07-.87A11.78,11.78,0,0,0,469,403.4a1.22,1.22,0,0,0-2,.53c-1.91,5.53-8.1,4-8.83-.86-.38-2.58-4.4-1.87-4.44.6,0,2.74.19,6.57-2,8.66q-3.48,3.38-4.85-2.63a13.29,13.29,0,0,1,1.17-3.23c1.18-2.56-2.55-4.82-3.83-2.24Z"/><path class="cls-23" d="M451.17,451.37a7.09,7.09,0,0,0-.73-10.64,1.49,1.49,0,0,0-2.45.65c-2.51,6.34-2.33,19.12,5.77,21.73,8.33,2.69,12.31-7.21,13.74-13.34.38-1.62-2.07-2.86-2.83-1.19-1.84,4,1,9.94,6.09,8.8,4.52-1,5.6-7.45,2.27-10.24a1.52,1.52,0,0,0-2.37,1.84,10.07,10.07,0,0,0,9.77,5.57,1.16,1.16,0,0,0,1-.58c.89-1.77.86-2.43,2.78-2,1.5.35,3,1.89,4,2.93L490.2,453q2.71-3,2.6.34c.23.56.47,1.11.7,1.66a8.43,8.43,0,0,0,2.12,2.37c1.24.93,3.79,2.13,5.41,1.56,4-1.41,4.88-8.19,3.91-11.53l-2.81,2.15A12.6,12.6,0,0,0,517.5,447l-3.23-1.34a4.39,4.39,0,0,0,3.32,4.83,5.63,5.63,0,0,0,3.56,0c1.19-.35,6.74-3.95,7.2-1.31.29,1.69,3.22,1.74,3.47,0,.29-2.08,5.95,1.1,6.82,1.32a5.13,5.13,0,0,0,3.17,0,4,4,0,0,0,2.72-5.15l-2.41,1.86c8.11,5.74,14.89-5.79,15-12.64,0-2.1-3.19-2.09-3.27,0a21.12,21.12,0,0,0,3.86,13.21,1.67,1.67,0,0,0,2.84,0,4.28,4.28,0,0,1,7-.79c1.39,1.44,3.47-.7,2.18-2.18a7.36,7.36,0,0,0-12,1.31h2.84a18.12,18.12,0,0,1-3.43-11.55h-3.27c-.05,4.18-4.06,14.22-10.06,9.8-1.18-.87-2.79.57-2.41,1.85.66,2.26-6.18-1.31-6.4-1.37a6.37,6.37,0,0,0-2.94-.2,4.25,4.25,0,0,0-3.68,3.58h3.47a4.51,4.51,0,0,0-3.77-3.79,6.64,6.64,0,0,0-3.07.11c-.56.15-7.23,3.74-6.93,1.16.19-1.66-2.17-2.44-3.23-1.33a8.77,8.77,0,0,1-10.76,1.9,1.94,1.94,0,0,0-2.81,2.16c.83,2.9.43,12.57-5.62,4.16-.72-1-.44-2.74-1.29-3.82a4.58,4.58,0,0,0-4.2-1.7c-4.14.53-4.65,5.43-1.87,7.88,1.3,1.15,3.22-.73,1.93-1.93a17.41,17.41,0,0,0-7.75-4.28,1.25,1.25,0,0,0-1.38.57c-2.07,4.47-6,2.55-7.65-1.46l-2.52,1.47c1.79,1.73,1.33,2.47-1.39,2.24q-3.57,2-2.17-1.38L464.51,449c-1,4.28-4.81,15.83-11.55,10-4.44-3.82-3.67-12-2.15-16.83l-2.15.87q3.66,2.78,1,6.8c-.85,1.07.57,2.59,1.55,1.54Z"/><path class="cls-23" d="M453.59,486.61a6.79,6.79,0,0,1,5.17,3.23,5.31,5.31,0,0,1,.95,2.6,4.39,4.39,0,0,1-.09,2.68c-1.52-4,4-8.15,6.72-9.83l-2.73-1.11c1.16,4.15,3.74,9.26,8.75,9.38A6.46,6.46,0,0,0,479,486l-3.3.91c2.64,7.69,11.83,7.62,16.06,1.47a23,23,0,0,1,2.47-3.66c4.53-4.26,7.32-1.11,10.22.91,1.59,1.11,3.12,2.26,5.12,2.37a5.1,5.1,0,0,0,3.85-1.32,8.81,8.81,0,0,0,1.46-2.07l.51-1q1.07-3.26,5,.36a1.44,1.44,0,0,0,2.39,1.39c7.71-6.3,14.6,3.26,22.46,2.18,4.12-.57,7.51-4.54,5.83-8.65l-1.83,1.83c4.12.65,14.43-4.18,16.38.71a1.49,1.49,0,1,0,2.74-1.16c-3.48-7.81-12.6-1.51-18.33-2.42-1-.16-2.31.66-1.84,1.83,2.16,5.34-4.81,4.79-7,4.37-1.79-.35-3.4-1.45-5.11-2.09a22.73,22.73,0,0,0-5-1.38,12.63,12.63,0,0,0-10.33,2.75l2.44,1a5.42,5.42,0,0,0-4.68-6.12,4.61,4.61,0,0,0-3.36.82c-1.43,1-1.61,3.25-2.82,4.11-1.71,1.22-5.84-.18-7.31-1a28.6,28.6,0,0,0-2.59-1.6,5.67,5.67,0,0,0-4.07-.28,4.39,4.39,0,0,0-2.28,5.64c2.19,5.12,8.55-.7,4.52-5-2.21-2.33-5.61-1.52-7.87.3-1.61,1.3-2.52,3.09-3.67,4.76-2.84,4.11-8,4.65-10.27-.44-.81-1.84-3.55-.49-3.13,1.32l-4.8,2.55a7,7,0,0,1-2.25-2.51,14.49,14.49,0,0,1-1.47-3.74,1.89,1.89,0,0,0-2.74-1.11c-3.81,2.35-8.41,6.41-8.88,11.21-.29,2.93,2.52,6.75,5.8,5.12,2.91-1.44,2.24-6.49,1.18-8.9a9.71,9.71,0,0,0-9-6.05c-2.06,0-2,3,0,3.15Z"/><path class="cls-23" d="M616.74,299.81c4.16-8.65,3.85-21.26,0-29.95-.63-1.4-2.62-1.1-3.33,0-6,9.3-2.67,20.93,8.87,23.17,7.67,1.49,18.59-4.85,14.22-13.62-1.06-2.11-4.35-1.05-4.34,1.17,0,6,3.36,13.42,10.8,11.44a7.21,7.21,0,0,0,5.09-5.36,10.18,10.18,0,0,0,.06-4,21.35,21.35,0,0,0-1-3.16c-1-2.84-1.94-2.62,1.38-4.59,3-1.76,2.76-1.75,3.06,1a23.33,23.33,0,0,1,0,2.51,14.42,14.42,0,0,0,.55,4.48,6.84,6.84,0,0,0,4.89,4.7c6.1,1.44,9-4.65,9.32-9.71l-2.94,1.69c1.15.81,2.28,1.65,3.44,2.44a2.1,2.1,0,0,0,2.82-.74c4-5.24,21.66-7.1,16.22-17.26-1-1.78-3.42-.81-3.56,1-.37,4.92,3.73,8.63,8.3,9.64a12.36,12.36,0,0,0,7.16-.65c2.1-.78,9.86-5.94,11.19-1.89a2,2,0,0,0,3.55.46c2.53-3.63,6.33-8.05,11.4-6.67,2.39.65,3.57,2.4,6.28,2s4.26-2.53,6.41-3.8a14.13,14.13,0,0,1,13.18-.24c2.06,1,3.86-2.09,1.8-3.07a18.14,18.14,0,0,0-11-1.64c-4.61.79-9,5.75-13.6,4.35-3.51-1.07-6-2-9.71-.5s-5.91,4.49-8.07,7.6l3.54.47c-1.16-3.52-4.95-4.52-8.38-4-2.38.37-4.35,1.65-6.5,2.66-3.95,1.84-12.15,1.69-11.69-4.75l-3.56,1c2.48,4.59-7,7.21-9.73,8.41a16.13,16.13,0,0,0-6.42,4.43l2.49-.33c-1.16-.78-2.36-1.49-3.55-2.25a2,2,0,0,0-2.93,1.68c-.09,1.18-.37,3.5-1.27,4.41-3.31,1.29-5,.84-5.22-1.34a5.79,5.79,0,0,1-.2-2,26.66,26.66,0,0,0-.1-5c-.75-3.51-3.25-6.24-7-6.13a7.48,7.48,0,0,0-7,6.16c-.41,2.39.48,4.56,1.32,6.75q.39.89.72,1.8,1.95,3.33-3.28,5.22c-3.14-.36-3.51-4.67-3.54-7.07l-4.33,1.17c3.71,7.34-8.62,8.41-12.69,6.34-6.72-3.4-6.74-10.49-3-16.28h-3.33c3.26,7.25,3.78,19,.52,26.34-.85,1.9,1.91,3.59,2.84,1.66Z"/><path class="cls-23" d="M621.64,335.53a9.44,9.44,0,0,0,5.73-9.75,1.46,1.46,0,0,0-2.7-.73c-3.36,4.41-.71,11.25,5.29,10.75a6.7,6.7,0,0,0,5.32-3.4c.89-1.62.82-3.31,1-5l.35-2.45c2-2.45,3.48-2.76,4.32-.91,1.46.63,1.68,1.55,3.59.44l-2-.83c1.36,4,3.54,9.36,8.57,9.58,3.63.16,6-2.79,5.78-6.23l-2.44,1c3.44,2.92,7.82.93,7.49-3.72l-2.32,1.33a5.61,5.61,0,0,0,5.39.27c3.45-1.53,7.91-8.15,11-1.93,1.12,2.25,4.79,0,3.31-1.94-1.76-2.3-3.86-4-6.9-4a7.7,7.7,0,0,0-3.7.85c-2.13,1.1-4.7,5.5-7.54,4.13-1-.46-2.42.07-2.31,1.33l-2.68,1.48c-1.32-.87-2.46.77-1.95,1.95q-4.83,5.19-7.39-.42a26.63,26.63,0,0,1-1.63-4.39,1.39,1.39,0,0,0-2-.82c-2.38,1.3-5.87,4.83-2.31,7.15,3,2,4.62-1.08,3.91-3.75-.89-3.33-4-7.07-7.77-5.25a6.35,6.35,0,0,0-3,4,18.61,18.61,0,0,0-.44,3.17,5.76,5.76,0,0,1-2,5q-8-1-4.39-5.81l-2.7-.73a6.89,6.89,0,0,1-4.16,7.48c-1.53.74-.19,3,1.33,2.27Z"/><path class="cls-23" d="M623.69,357.31c-1.74,5.05-1.68,13.58,5.38,14.17,8,.67,8.75-9,8.16-14.52H633.6c.4,3.73,3.26,7.77,7.54,6.54,3.62-1,4.68-4.95,3.31-8.1a1.74,1.74,0,0,0-2.35-.61,4,4,0,0,0,0,6.8,4.72,4.72,0,0,0,4.17.48,9.89,9.89,0,0,0,3-1.75,10.67,10.67,0,0,0,1.32-1.19q2.43-3.69,5.32.37l3-.41-.07-1.71-1.48-1.49c.32,5.19,4.31,9.75,9.9,8.64a9.44,9.44,0,0,0,5.81-4.2c.22-.5.44-1,.65-1.52.58-2.3,1.86-3.46,3.85-3.46,2.31-.94,5.35-.85,7.79-1.54a1.47,1.47,0,0,0-.39-2.88c-3.5.14-9,.12-11.88,2.32a6.41,6.41,0,0,0-2.1,3.12c-.88,2.08-1.38,4.26-4,4.83a5.35,5.35,0,0,1-6.65-5.31,1.5,1.5,0,0,0-1.49-1.48c-3,.3-3.34,2.89-2.92,5.51.29,1.83,2.91,1.21,3-.42a5.14,5.14,0,0,0-3.39-5.6,5.68,5.68,0,0,0-4.25.45c-.62.28-1.09.73-1.68,1a10,10,0,0,0-.94.78,5.72,5.72,0,0,1-4.89,1.57l-2.35-.61-4.25-.18c-.3-2.27-3.9-2.33-3.63,0,.29,2.56,1.14,7.79-1.48,9.5q-6.18,1.88-5.81-3.72c.19-1.51.41-3,.64-4.53a1.69,1.69,0,0,0-3.26-.9Z"/><path class="cls-23" d="M636.21,403c-.18-3.62-2.18-6.51-2.76-10-.42-2.54.12-7,4-6.54s4.3,6.38,4.53,9.18h3.36a22.27,22.27,0,0,1-.25-3.91,5,5,0,0,1,.47-2.46q.33-4.53,6.09-1c-.8,1.89,2,3.55,2.8,1.63.54-1.21,2.74-6.47,5.36-2.52.27.41.11,3.22.21,3.74a10.83,10.83,0,0,0,2,4.55A10.54,10.54,0,0,0,680.7,393a11.56,11.56,0,0,0,.61-5c-.15-2.47-2.3-6.84,2.2-7.94l5.49.8a5.45,5.45,0,0,1,1.5,5.54l1.79.49c.49-2.6.5-3.43,3.31-3.66,3.18-.27,1.86,0,3.24,1.87a5.75,5.75,0,0,0,2.37,1.89c2.89,1.27,6.28,0,8.89-1.31,2.94-1.51,5.81-3.55,9.33-2.81,2.31.49,4.19,2.16,6.55,2.53,2.77.44,5.06-.35,6.55-2.69l-1.81.47c5.26,3.31,10.69,5.3,16.45,7.48,2,.75,3-2.83.88-3.19-5.71-1-11.06-3.6-16-6.57a1.34,1.34,0,0,0-1.81.47c-2.5,4.06-9.74-1.56-13.66-1-5.63.77-11.58,9.23-17,2.95-1.4-1.63-1.83-4-4.61-3.29s-3.93,4.07-4.53,6.39a.93.93,0,0,0,1.79.49c1.39-4.44-1.19-9.59-6.19-9.87-6.36-.36-8,5.39-7.53,10.37.64,7.29-7.34,13.67-13.38,7.42-3.13-3.24-1-7-2.9-10.38-3.19-5.8-9,.26-10.6,3.88l2.8,1.63a5.59,5.59,0,0,0-5.91-7.93c-6.51.95-7.13,8.54-6.56,13.66.24,2.11,3.55,2.17,3.36,0-.48-5.33-3.26-15-10.79-12.15-8.42,3.2-2.46,14.57-.52,19.81.4,1.08,2.2,1,2.14-.29Z"/><path class="cls-23" d="M636,430.18c.69,3,4.2,5.2,6.95,3s1.38-6-1-7.77a1.5,1.5,0,0,0-1.82.24c-2.87,3.41-.82,8.33,3.34,9.7,5.87,1.93,9.71-4.57,11.76-8.92l-1.53.4a14.47,14.47,0,0,1,6.91,8.57,1.39,1.39,0,0,0,2.71-.37c.3-3.86,3.69-3.77,6.5-3.57.53,0,1.05.45,1.6.49,2,.15,3.36-.29,5.08.95s2.92,3.57,5.55,3.06c2.28-.44,3-2.2,3.45-4.15.61-2.66,1-4.2,3.23-6.11,1.92-1.67,9.7-7.17,10.27-.71a1.36,1.36,0,0,0,2,1.16c2-1.33,3.64-3.65,5.8-4.68.76-.36-.9-.52-.56.09a8.51,8.51,0,0,1,.5,1.55,9.67,9.67,0,0,0,3.38,4.31c5.46,4,12.09,1.16,15-4.37l-1.9.5c4.23,2.5,7.24,2.92,11.36.41s8.28-1.54,10.14,3.28c1.65,4.29-.12,9.2-1.5,13.3l3.86,1.07a22.77,22.77,0,0,1,9.45-13.13c2.33-1.55.1-5.35-2.2-3.76a26.46,26.46,0,0,0-11.11,15.82c-.61,2.5,3.23,3.57,3.86,1.07,1.7-6.75,3.58-15.26-2.66-20.27a9.52,9.52,0,0,0-7.4-2.21A10.25,10.25,0,0,0,734,420.4c-1.59.83-1.27,1.18-3.42,1.75-2.47.65-3.65,0-5.91-1a1.42,1.42,0,0,0-2,.83,7.15,7.15,0,0,1-12.33,1.9c-1.11-1.46-1-3.81-2.15-5a1.3,1.3,0,0,0-1.24-.33c-2.77.86-4.81,3.74-7.21,5.25l2,1.16c-.33-5.07-5.73-6.87-10-5.06-2.32,1-4.3,2.89-6.15,4.54a8.81,8.81,0,0,0-2.74,3.15c-.36.87-.08,2-.41,2.78-1.76,4.19-3.76-.67-6.14-1.68-1.92-.81-4.71-.46-6.58-.66-4.76-.49-9.09,1.55-9.09,7l2.71-.37a18.52,18.52,0,0,0-8.44-9.75,1.13,1.13,0,0,0-1.53.4,16,16,0,0,1-3.52,5.46,5.42,5.42,0,0,1-6,1.46,5.74,5.74,0,0,0-5.94-2.55,1,1,0,0,0-1.89.51Z"/><path class="cls-23" d="M641.64,466.13a10.19,10.19,0,0,0-1.94,11,1.4,1.4,0,0,0,2.31.61,16.18,16.18,0,0,0,5.6-15.25c-.24-1.66-2.47-1.51-3.23-.42-3.18,4.55-.58,12,5.41,12.33s9.27-6.64,6.91-11.53l-2.47,2.47a8.78,8.78,0,0,1,4.38,6.29l3.38-.93,5-1a1.66,1.66,0,0,0,3.32,0c.48-7.33,10.48-6.4,10,.75a1.43,1.43,0,0,0,1,1.36,7.45,7.45,0,0,0,7.81-1.59c1.21-1-.09-3-1.51-2.59-4.9,1.35-.82,7,2.64,7.37,7.17.75,11.87-6.92,14.56-12.39l-2.66.34a37.15,37.15,0,0,1,7.73,12.25c.82,2.18,4.83,14.75-.95,14.26l1.73,1.72c-1-9.92,10.89-16.09,8.59-26.44l-2.1,2.09c4.84.84,9.17-1.76,10.21-6.69l-3.32-.45c-.26,2.76-.23,6.33,2.23,8.17a4.78,4.78,0,0,0,2.87.91c1,0,7.59-2.11,7.46-1.39a1.7,1.7,0,0,0,2.81,1.64l5-4.65-2.61-.34a7.72,7.72,0,0,0,9.1,3.68c4.71-1.28,7-6,8.49-10.19l-3.18-.43c-.4,5.55,3.46,9.68,8.83,10.35,2.24.27,2.26-3.31,0-3.54-3.69-.37-5.76-3.31-5.59-6.81.1-1.92-2.6-2.07-3.19-.43-1.31,3.67-7.67,13.12-11.59,5.69a1.68,1.68,0,0,0-2.61-.33l-5.07,4.62,2.8,1.64a3.85,3.85,0,0,0-3.1-4.71,8.07,8.07,0,0,0-3.21.14c-1.47.19-4.55,1.43-6,0-.62-.59-.16-3.33-.09-4.05.18-1.89-2.93-2.3-3.32-.45a5.15,5.15,0,0,1-6,4.31,1.73,1.73,0,0,0-2.1,2.09c2,9.3-9.73,15.87-8.75,25.54a1.79,1.79,0,0,0,1.72,1.73c5.92.49,6.87-6.78,6.19-11.15a40.09,40.09,0,0,0-10.57-21.21,1.71,1.71,0,0,0-2.67.34,33.19,33.19,0,0,1-4.08,6.73,18,18,0,0,1-1.86,1.95,6.76,6.76,0,0,1-2.59,1.67q-2.32,1.35-4.92-.62L687,468l-4.86,1.06,1,1.36c.15-11.18-15.21-11.85-16.19-.75h3.32c-.57-9.71-14.56-7.2-11.66,1.94a1.75,1.75,0,0,0,3.38-.93,12.25,12.25,0,0,0-5.94-8.48c-1.65-1-3.18.94-2.47,2.47,1.25,2.68-1.5,8-5.43,5.11-1.8-1.35-1.78-4.25-.72-6l-3.23-.42a12.87,12.87,0,0,1-4.14,12.36l2.17.28c-1.38-3.15-.81-6,.94-8.74.59-.93-.79-2-1.53-1.19Z"/><g class="cls-24"><path class="cls-2" d="M229.68,628c-43.31-103.56,76-148.63,126.37-86.3,32.7-65.2,136.1-71.91,157.31,5.75,61-77.66,148.46-33.56,167,50.83"/><path class="cls-25" d="M229.59,628.08c-1.84-4.41-3.56-8.88-5-13.46a119.08,119.08,0,0,1-3.38-14A85.49,85.49,0,0,1,221,572a68.65,68.65,0,0,1,10.5-26.72,70.82,70.82,0,0,1,20.53-20.13,79.23,79.23,0,0,1,26.65-10.9,82.3,82.3,0,0,1,28.77-.86,77.63,77.63,0,0,1,27.18,9.37,76.73,76.73,0,0,1,21.74,18.72l-.73.08a91.44,91.44,0,0,1,14.61-20.8,94.37,94.37,0,0,1,19.73-16,96.78,96.78,0,0,1,48.35-14.15A83.26,83.26,0,0,1,463.59,494a73.8,73.8,0,0,1,22.85,11.29,71.19,71.19,0,0,1,17.46,18.63,85.2,85.2,0,0,1,10.32,23.38l-1.57-.32a130.55,130.55,0,0,1,19.88-20.55,93.21,93.21,0,0,1,24.6-14.64,76.26,76.26,0,0,1,56.22-.3,92.8,92.8,0,0,1,24.7,14.36,110.27,110.27,0,0,1,19.67,20.65,125.27,125.27,0,0,1,14.18,24.71,142.77,142.77,0,0,1,8.57,27.13l-.18,0a142.43,142.43,0,0,0-9.08-26.85,128,128,0,0,0-14.36-24.37,109.14,109.14,0,0,0-19.67-20.21A91,91,0,0,0,612.75,513a78.72,78.72,0,0,0-27.52-4.95,75.55,75.55,0,0,0-27.4,5.45,93.5,93.5,0,0,0-24.09,14.34,127.74,127.74,0,0,0-19.68,20.17l-1.1,1.37-.46-1.69a83.67,83.67,0,0,0-10-23,69.73,69.73,0,0,0-16.92-18.38,72.19,72.19,0,0,0-22.33-11.32,82.81,82.81,0,0,0-24.89-3.57,94.27,94.27,0,0,0-48.06,13.73,89.54,89.54,0,0,0-33.86,36.7l-.3.6-.43-.52A75.67,75.67,0,0,0,334,523.82a77.62,77.62,0,0,0-26.79-8.93,80.72,80.72,0,0,0-54.36,11.54,69.31,69.31,0,0,0-20.2,19.62,68.53,68.53,0,0,0-10.56,26.13,87.12,87.12,0,0,0-.15,28.37,119.22,119.22,0,0,0,3.09,13.94c1.3,4.59,2.94,9.07,4.69,13.51Z"/></g><g class="cls-26"><path class="cls-2" d="M681.15,605.39s-8.2-53.61,28.58-76.24c45.62-28.06,96,6.87,108.62,16,6.4-13.91,11.64-30.48,25.27-40.26,84-60.23,190,12.84,159.66,104.31"/><path class="cls-25" d="M681.07,605.4a108.38,108.38,0,0,1-.41-25.33,86.54,86.54,0,0,1,6.11-24.64,59,59,0,0,1,14.55-20.83,57.67,57.67,0,0,1,10.39-7.46,70.83,70.83,0,0,1,11.62-5.31,72.36,72.36,0,0,1,25.12-4,93,93,0,0,1,25.08,4.06c16.27,4.9,31.28,13.19,45,23.06l-.4.1c2.62-5.73,4.94-11.62,7.67-17.33a72,72,0,0,1,10-16.15,42.76,42.76,0,0,1,6.93-6.58c2.57-1.88,5.18-3.65,7.87-5.34a121,121,0,0,1,16.86-8.8,109.56,109.56,0,0,1,37-8.55A104.52,104.52,0,0,1,942,487.38a102.75,102.75,0,0,1,33.27,18.33,98.27,98.27,0,0,1,13.43,13.55,96.29,96.29,0,0,1,10.49,16,92.92,92.92,0,0,1,7,17.77,94.56,94.56,0,0,1,3.11,18.83,100.92,100.92,0,0,1-5.33,37.58l-1.31-.44a99.82,99.82,0,0,0,5-37A88.91,88.91,0,0,0,997.66,536a94.64,94.64,0,0,0-10.32-15.64,98.31,98.31,0,0,0-13.21-13.31,101.14,101.14,0,0,0-32.65-18.14,103.21,103.21,0,0,0-37-5.17,108.16,108.16,0,0,0-36.56,8.17,119.8,119.8,0,0,0-16.76,8.59c-2.68,1.65-5.3,3.41-7.85,5.23a43.49,43.49,0,0,0-6.86,6.36A71.39,71.39,0,0,0,826.34,528c-2.75,5.67-5.09,11.54-7.74,17.28l-.14.3-.26-.19a162.67,162.67,0,0,0-21.49-13.29,125.46,125.46,0,0,0-23.43-9.32,92.25,92.25,0,0,0-24.84-3.64,72.33,72.33,0,0,0-24.62,4.12,74.46,74.46,0,0,0-11.39,5.19,56.6,56.6,0,0,0-10.2,7.21A55.72,55.72,0,0,0,694,545a66.51,66.51,0,0,0-6.11,10.94,85.24,85.24,0,0,0-6.39,24.26,108.53,108.53,0,0,0-.23,25.22Z"/></g></g></g></svg>